<svg width="316" height="290" viewBox="0 0 316 290" fill="none" xmlns="http://www.w3.org/2000/svg">
<path d="M290.273 99.6698C290.273 99.6698 295.313 108.3 295.313 111.12C295.313 113.94 292.793 129.83 292.793 129.83L295.313 152.24L296.253 162.1L293.863 168.69L290.263 172.71L289.083 173.4L276.333 176.16L261.003 174.91L256.453 173.25L252.043 167.94L251.073 164.66V152.13L222.923 154.93L182.083 165.11L138.373 179.16L90.5427 191.23L55.2327 192.91L29.8027 187.01L21.4727 178.87L19.7927 166.89L22.8827 152.76L19.2327 132.92V123.28C19.2327 123.28 22.5027 116.09 24.4227 114.86C26.3427 113.63 33.3627 110.9 40.0427 110.66C46.7227 110.42 58.4027 114.9 58.4027 114.9L64.9527 124.66V137.09L91.9527 135.4L135.213 124.79L209.363 102.48L249.813 96.4998C265.273 96.3998 279.823 96.8298 290.273 99.6598V99.6698Z" fill="#FFF5D1"/>
<path d="M111.792 62.1099H117.232V62.3799C116.792 62.3799 116.482 62.5599 116.312 62.9299C116.142 63.2999 116.062 63.6899 116.062 64.0999V78.4499C116.062 78.8899 116.142 79.2999 116.312 79.6599C116.482 80.0299 116.782 80.2099 117.232 80.2099V80.4799H111.792V80.2099C112.232 80.2099 112.542 80.0299 112.712 79.6599C112.882 79.2999 112.962 78.8999 112.962 78.4899V64.1399C112.962 63.6999 112.882 63.2899 112.712 62.9299C112.542 62.5699 112.232 62.3799 111.792 62.3799V62.1099Z" fill="#5B3722"/>
<path d="M132.702 62.9098C132.532 63.2898 132.452 63.6998 132.452 64.1398V78.4498C132.452 78.8898 132.532 79.2998 132.702 79.6598C132.872 80.0298 133.182 80.2098 133.622 80.2098V80.4798H129.002L123.292 65.8098V78.4398C123.292 78.8798 123.372 79.2898 123.542 79.6498C123.712 80.0198 124.022 80.1998 124.462 80.1998V80.4698H119.962V80.1998C120.402 80.1998 120.712 80.0198 120.882 79.6498C121.052 79.2898 121.132 78.8798 121.132 78.4398V64.0898C121.132 63.6498 121.052 63.2398 120.882 62.8798C120.712 62.5198 120.402 62.3298 119.962 62.3298V62.0598H124.932L130.292 75.8698V64.0998C130.292 63.6598 130.212 63.2498 130.042 62.8898C129.872 62.5298 129.562 62.3398 129.122 62.3398V62.0698H133.622V62.3398C133.182 62.3398 132.872 62.5298 132.702 62.9098Z" fill="#5B3722"/>
<path d="M147.073 65.1198H146.723C146.643 64.8898 146.513 64.7098 146.333 64.5898C146.153 64.4698 145.953 64.3798 145.743 64.3198C145.533 64.2598 145.323 64.2198 145.103 64.1998C144.883 64.1898 144.693 64.1798 144.533 64.1798H143.083V78.4598C143.083 78.8998 143.163 79.3098 143.333 79.6698C143.503 80.0398 143.813 80.2198 144.253 80.2198V80.4898H138.813V80.2198C139.253 80.2198 139.563 80.0398 139.733 79.6698C139.903 79.3098 139.983 78.8998 139.983 78.4598V64.1798H138.493C138.333 64.1798 138.153 64.1798 137.943 64.1998C137.733 64.2198 137.523 64.2498 137.323 64.3198C137.113 64.3898 136.913 64.4798 136.733 64.5898C136.553 64.7098 136.423 64.8798 136.343 65.1198H135.953L136.623 62.0698H146.443L147.073 65.1198Z" fill="#5B3722"/>
<path d="M160.683 78.4598C160.813 78.8798 161.023 79.2698 161.313 79.6298C161.603 79.9998 161.963 80.1798 162.403 80.1798V80.4498H156.733V80.1798C157.153 80.1798 157.393 79.9998 157.453 79.6298C157.513 79.2598 157.483 78.8598 157.353 78.4198L156.843 76.5398H151.093L150.583 78.4198C150.453 78.8598 150.413 79.2698 150.463 79.6298C150.513 79.9998 150.773 80.1798 151.243 80.1798V80.4498H146.663V80.1798C147.103 80.1798 147.473 79.9998 147.773 79.6298C148.073 79.2598 148.283 78.8698 148.423 78.4598L152.413 64.0698C152.543 63.6498 152.583 63.2598 152.533 62.8998C152.483 62.5398 152.243 62.3498 151.833 62.3498V62.0798H156.133L160.673 78.4698L160.683 78.4598ZM156.263 74.4298L153.993 66.2198L151.683 74.4298H156.263Z" fill="#5B3722"/>
<path d="M176.702 62.9098C176.532 63.2898 176.452 63.6998 176.452 64.1398V78.4498C176.452 78.8898 176.532 79.2998 176.702 79.6598C176.872 80.0298 177.182 80.2098 177.622 80.2098V80.4798H173.002L167.292 65.8098V78.4398C167.292 78.8798 167.372 79.2898 167.542 79.6498C167.712 80.0198 168.022 80.1998 168.462 80.1998V80.4698H163.962V80.1998C164.402 80.1998 164.712 80.0198 164.882 79.6498C165.052 79.2898 165.132 78.8798 165.132 78.4398V64.0898C165.132 63.6498 165.052 63.2398 164.882 62.8798C164.712 62.5198 164.402 62.3298 163.962 62.3298V62.0598H168.932L174.292 75.8698V64.0998C174.292 63.6598 174.212 63.2498 174.042 62.8898C173.872 62.5298 173.562 62.3398 173.122 62.3398V62.0698H177.622V62.3398C177.182 62.3398 176.872 62.5298 176.702 62.9098Z" fill="#5B3722"/>
<path d="M180.353 62.1099H185.793V62.3799C185.353 62.3799 185.043 62.5599 184.873 62.9299C184.703 63.2999 184.623 63.6899 184.623 64.0999V78.4499C184.623 78.8899 184.703 79.2999 184.873 79.6599C185.043 80.0299 185.343 80.2099 185.793 80.2099V80.4799H180.353V80.2099C180.793 80.2099 181.103 80.0299 181.273 79.6599C181.443 79.2999 181.523 78.8999 181.523 78.4899V64.1399C181.523 63.6999 181.443 63.2899 181.273 62.9299C181.103 62.5699 180.793 62.3799 180.353 62.3799V62.1099Z" fill="#5B3722"/>
<path d="M201.752 78.4598C201.882 78.8798 202.092 79.2698 202.382 79.6298C202.672 79.9998 203.032 80.1798 203.472 80.1798V80.4498H197.802V80.1798C198.222 80.1798 198.462 79.9998 198.522 79.6298C198.582 79.2598 198.552 78.8598 198.422 78.4198L197.912 76.5398H192.162L191.652 78.4198C191.522 78.8598 191.482 79.2698 191.532 79.6298C191.582 79.9998 191.842 80.1798 192.312 80.1798V80.4498H187.732V80.1798C188.172 80.1798 188.542 79.9998 188.842 79.6298C189.142 79.2598 189.352 78.8698 189.492 78.4598L193.482 64.0698C193.612 63.6498 193.652 63.2598 193.602 62.8998C193.552 62.5398 193.312 62.3498 192.902 62.3498V62.0798H197.202L201.742 78.4698L201.752 78.4598ZM197.332 74.4298L195.062 66.2198L192.752 74.4298H197.332Z" fill="#5B3722"/>
<path d="M131.332 211.82V212.05C130.962 212.05 130.662 212.2 130.422 212.5C130.182 212.8 130.012 213.14 129.902 213.51L126.562 225.42C126.472 225.79 126.452 226.12 126.492 226.43C126.532 226.73 126.742 226.88 127.112 226.88V227.11H122.572V226.88C122.922 226.88 123.112 226.73 123.152 226.43C123.192 226.13 123.172 225.79 123.092 225.42L121.692 220.42L120.302 225.45C120.192 225.8 120.152 226.12 120.192 226.42C120.222 226.72 120.422 226.87 120.792 226.87V227.1H116.282V226.87C116.602 226.87 116.792 226.72 116.832 226.43C116.872 226.14 116.852 225.82 116.762 225.47L113.422 213.5C113.312 213.13 113.142 212.8 112.902 212.49C112.662 212.19 112.372 212.04 112.022 212.04V211.81H116.722V212.04C116.352 212.04 116.152 212.2 116.102 212.51C116.062 212.82 116.082 213.16 116.162 213.53L118.982 223.65L120.762 217.19L119.722 213.49C119.612 213.12 119.442 212.79 119.202 212.48C118.962 212.18 118.672 212.03 118.322 212.03V211.8H123.032V212.03C122.642 212.03 122.422 212.19 122.382 212.5C122.342 212.81 122.372 213.15 122.482 213.52L125.242 223.64L128.102 213.52C128.212 213.15 128.232 212.81 128.182 212.5C128.132 212.19 127.932 212.03 127.582 212.03V211.8H131.312L131.332 211.82Z" fill="#5B3722"/>
<path d="M141.092 224.02L140.182 227.07H132.942V226.84C133.312 226.84 133.562 226.69 133.702 226.39C133.842 226.09 133.912 225.76 133.912 225.42V213.51C133.912 213.14 133.842 212.81 133.702 212.5C133.562 212.2 133.302 212.05 132.942 212.05V211.82H139.592L140.112 214.35H139.792C139.722 214.16 139.622 214.01 139.472 213.91C139.322 213.81 139.162 213.74 138.982 213.68C138.802 213.62 138.632 213.59 138.462 213.58C138.292 213.57 138.142 213.56 138.012 213.56H136.482V217.68H136.802C137.432 217.68 137.922 217.67 138.282 217.65C138.642 217.63 138.902 217.4 139.072 216.97H139.392V220.15H139.072C138.882 219.76 138.602 219.54 138.262 219.5C137.912 219.46 137.432 219.43 136.802 219.43H136.482V225.34H139.012C139.382 225.32 139.732 225.18 140.062 224.93C140.392 224.68 140.632 224.37 140.762 224.01H141.082L141.092 224.02Z" fill="#5B3722"/>
<path d="M151.642 224.05L150.732 227.1H143.362V226.87C143.732 226.87 143.982 226.72 144.122 226.42C144.262 226.12 144.332 225.79 144.332 225.45V213.54C144.332 213.17 144.262 212.84 144.122 212.54C143.982 212.24 143.722 212.08 143.362 212.08V211.85H147.872V212.08C147.502 212.08 147.252 212.23 147.122 212.54C146.992 212.85 146.912 213.17 146.892 213.51V225.39H149.552C149.922 225.37 150.272 225.23 150.602 224.98C150.932 224.73 151.172 224.42 151.302 224.06H151.622L151.642 224.05Z" fill="#5B3722"/>
<path d="M162.412 223.24L161.922 226.45C161.662 226.56 161.412 226.66 161.172 226.74C160.932 226.83 160.682 226.9 160.422 226.97C160.162 227.03 159.892 227.08 159.612 227.1C158.422 227.21 157.452 227.04 156.712 226.6C155.972 226.16 155.392 225.56 154.972 224.8C154.552 224.04 154.272 223.19 154.122 222.24C153.972 221.29 153.902 220.36 153.902 219.45C153.902 218.41 153.982 217.43 154.142 216.51C154.302 215.59 154.572 214.78 154.942 214.09C155.312 213.4 155.812 212.84 156.442 212.42C157.062 212 157.842 211.79 158.772 211.79C159.052 211.79 159.332 211.82 159.602 211.89C159.872 211.96 160.122 212.02 160.362 212.09C160.622 212.18 160.872 212.28 161.112 212.39L161.572 215.07H161.242C161.242 215.07 161.192 214.96 161.092 214.79C160.992 214.63 160.852 214.45 160.652 214.27C160.462 214.09 160.222 213.92 159.942 213.77C159.662 213.62 159.332 213.54 158.972 213.54C158.062 213.54 157.422 214 157.042 214.92C156.662 215.84 156.472 217.35 156.472 219.45C156.472 220.66 156.562 221.65 156.732 222.4C156.902 223.16 157.132 223.76 157.412 224.2C157.692 224.64 158.002 224.95 158.352 225.11C158.702 225.27 159.032 225.35 159.362 225.35C159.922 225.35 160.382 225.24 160.742 225.02C161.102 224.8 161.372 224.57 161.572 224.31C161.812 224.01 161.962 223.65 162.022 223.24H162.412Z" fill="#5B3722"/>
<path d="M168.912 211.82C169.842 211.82 170.612 212.03 171.242 212.44C171.862 212.85 172.372 213.41 172.762 214.11C173.152 214.81 173.422 215.62 173.582 216.54C173.742 217.46 173.822 218.44 173.822 219.48C173.822 220.52 173.742 221.5 173.582 222.42C173.422 223.34 173.142 224.15 172.762 224.84C172.372 225.53 171.872 226.08 171.242 226.5C170.612 226.91 169.842 227.12 168.912 227.12C167.982 227.12 167.242 226.91 166.612 226.5C165.982 226.09 165.482 225.54 165.112 224.84C164.732 224.15 164.462 223.34 164.302 222.42C164.142 221.5 164.062 220.52 164.062 219.48C164.062 218.44 164.142 217.46 164.302 216.54C164.462 215.62 164.732 214.81 165.112 214.11C165.492 213.41 165.992 212.85 166.612 212.44C167.232 212.03 168.002 211.82 168.912 211.82ZM171.272 219.46C171.272 217.37 171.082 215.87 170.712 214.98C170.342 214.09 169.742 213.62 168.912 213.57C168.122 213.61 167.552 214.08 167.182 214.98C166.812 215.88 166.622 217.37 166.622 219.46C166.622 221.55 166.812 223.02 167.182 223.94C167.552 224.86 168.132 225.33 168.912 225.35C169.722 225.33 170.312 224.86 170.692 223.94C171.072 223.02 171.262 221.53 171.262 219.46H171.272Z" fill="#5B3722"/>
<path d="M190.232 212.53C190.092 212.83 190.022 213.16 190.022 213.5V225.41C190.022 225.78 190.092 226.11 190.232 226.42C190.372 226.72 190.622 226.87 190.992 226.87V227.1H186.482V226.87C186.852 226.87 187.102 226.72 187.232 226.42C187.362 226.12 187.442 225.79 187.462 225.45V215.59L183.862 227.11H182.462L178.892 215.72V225.45C178.892 225.8 178.962 226.12 179.102 226.42C179.242 226.72 179.492 226.87 179.862 226.87V227.1H176.132V226.87C176.502 226.87 176.752 226.72 176.892 226.42C177.032 226.12 177.102 225.78 177.102 225.41V213.5C177.102 213.15 177.032 212.83 176.892 212.53C176.752 212.23 176.492 212.07 176.132 212.07V211.84H180.252L183.532 222.38L186.842 211.84H190.992V212.07C190.622 212.07 190.372 212.22 190.232 212.53Z" fill="#5B3722"/>
<path d="M201.413 224.02L200.503 227.07H193.263V226.84C193.633 226.84 193.883 226.69 194.023 226.39C194.163 226.09 194.233 225.76 194.233 225.42V213.51C194.233 213.14 194.163 212.81 194.023 212.5C193.883 212.2 193.623 212.05 193.263 212.05V211.82H199.913L200.433 214.35H200.113C200.043 214.16 199.943 214.01 199.793 213.91C199.643 213.81 199.483 213.74 199.303 213.68C199.123 213.62 198.953 213.59 198.783 213.58C198.613 213.57 198.463 213.56 198.333 213.56H196.803V217.68H197.123C197.753 217.68 198.243 217.67 198.603 217.65C198.963 217.63 199.223 217.4 199.393 216.97H199.713V220.15H199.393C199.203 219.76 198.923 219.54 198.583 219.5C198.233 219.46 197.753 219.43 197.123 219.43H196.803V225.34H199.333C199.703 225.32 200.053 225.18 200.383 224.93C200.713 224.68 200.953 224.37 201.083 224.01H201.403L201.413 224.02Z" fill="#5B3722"/>
<path d="M157.382 36.5697H158.122C160.552 29.4197 168.562 24.5197 176.102 26.5397C180.382 27.6897 185.272 31.2897 187.402 35.2197C190.292 40.5597 190.132 49.0897 196.742 51.5597C199.452 52.5797 202.502 52.5397 204.832 50.6997C206.192 49.6297 207.652 47.0597 207.132 45.3197C206.542 43.3497 204.712 45.8497 203.962 46.1897C199.592 48.1697 195.502 43.5297 198.262 39.4497C198.762 38.7197 199.972 38.0197 200.862 37.8997C208.462 36.8297 212.582 43.5897 208.542 49.9897C207.402 51.7997 205.812 52.2997 204.602 53.9597C205.082 54.0797 205.512 54.1997 206.012 54.2397C211.132 54.5897 216.952 54.5297 222.122 54.4697C223.962 54.4497 226.182 54.8297 228.002 54.1497C231.362 52.8997 232.892 47.6097 229.332 45.6997C227.962 44.9697 226.742 45.5497 225.732 46.6797C224.902 47.5997 224.893 48.5697 226.042 49.2497C227.342 50.0297 227.342 48.4297 228.082 47.7297C228.402 48.0697 229.032 48.5597 229.142 49.0097C229.172 49.1297 228.503 50.4297 228.402 50.5197C227.753 51.1397 226.042 51.1897 225.202 50.8597C223.592 50.2197 223.372 47.4997 224.192 46.1897C225.502 44.1097 227.702 43.1697 230.032 44.2197C232.122 45.1597 233.692 48.3697 233.012 50.5997C232.973 50.7197 231.923 52.6997 231.842 52.7997C231.443 53.2997 229.802 53.7997 230.652 55.0097C230.902 55.3597 238.062 55.6397 239.232 55.7697L241.702 56.2797H73.0525L76.0325 55.7697L84.9825 54.9897C85.3325 53.3697 84.0325 53.4497 83.5625 52.9097C82.8125 52.0497 82.1625 49.2797 82.3925 48.1197C82.4225 47.9697 83.6625 45.5897 83.7625 45.4697C83.8725 45.3297 85.1025 44.4097 85.3125 44.2997C89.0325 42.3097 93.4125 46.7797 91.2025 49.9297C89.5925 52.2197 85.6325 50.8697 86.7625 48.3597C86.8925 48.0797 87.0225 47.6297 87.4325 47.7297L88.3525 49.5397C92.0125 49.2097 89.6725 45.3797 87.4325 45.3797C87.0125 45.3797 84.8525 46.3397 84.6925 46.6097C84.4525 46.9897 84.2025 48.3797 84.1825 48.8897C84.0425 51.7797 86.1125 54.2097 88.9825 54.4797C93.6125 54.9197 98.6325 54.3397 103.252 54.1997C104.382 54.1697 110.562 54.4197 110.912 53.9497C110.342 53.5497 109.922 52.7797 109.492 52.3897C109.152 52.0797 108.612 51.9997 108.332 51.7297C105.332 48.7197 104.162 43.5997 107.142 40.1997C109.252 37.7897 111.802 37.4997 114.942 37.8697C116.852 38.0997 118.482 41.1797 118.172 42.9197C118.052 43.6197 116.852 45.4897 116.232 45.9197C114.792 46.9097 112.042 46.9297 110.672 45.7697C110.112 45.2997 110.002 44.1697 108.832 44.7397C107.312 46.5197 109.032 49.3597 110.522 50.5897C113.882 53.3597 118.862 52.2797 121.812 49.4297C125.812 45.5497 125.822 38.3797 129.072 33.5997C132.402 28.7097 138.822 25.6997 144.762 26.2097C150.092 26.6697 155.752 31.4897 157.362 36.5697H157.382ZM181.842 31.8197C175.692 26.2897 165.232 27.5497 160.892 34.7997C154.202 45.9797 169.002 57.6697 177.182 49.5297C179.252 47.4697 179.862 45.6597 179.402 42.6997C178.812 38.9097 171.572 36.6697 170.142 40.8797C170.582 41.6197 171.652 41.3097 172.172 41.8897C173.912 43.7997 171.132 47.7797 168.782 44.7597C167.532 43.1497 167.882 41.0897 168.932 39.4697C169.202 39.0497 171.262 37.1597 171.642 36.9897C172.672 36.5197 175.892 36.8597 177.002 37.3297C181.382 39.1697 182.442 44.3997 180.512 48.4597C179.782 49.9997 177.822 52.2097 176.042 52.4297L176.152 53.2197L194.712 53.9797C195.052 52.2397 193.972 52.4997 193.142 51.7897C186.792 46.3197 187.842 37.2397 181.832 31.8397L181.842 31.8197ZM139.462 52.4097C134.562 50.9597 132.662 44.4397 135.092 40.1197C137.162 36.4297 143.512 35.3597 146.212 39.0397C147.472 40.7597 148.122 43.3297 146.482 45.0197C143.982 47.5797 141.632 43.5297 143.342 41.8797C144.003 41.2397 146.342 41.6497 144.922 39.8097C143.262 37.6697 138.912 38.6597 137.282 40.4797C135.392 42.5897 135.682 46.4597 137.392 48.6297C142.722 55.3697 153.912 51.4797 155.892 43.7797C159.252 30.7197 141.382 23.1897 132.722 32.5397C128.122 37.4997 128.252 45.6997 123.812 50.4797C122.672 51.6997 120.922 52.0897 120.272 53.8097C123.762 53.6597 127.282 53.7897 130.792 53.6897C132.292 53.6497 133.812 53.0697 135.422 53.6497C136.702 52.9997 139.172 54.2097 139.472 52.3797L139.462 52.4097ZM112.932 40.2797C109.352 40.9197 112.042 46.5497 114.672 44.3497C116.762 42.5997 115.592 39.8097 112.932 40.2797ZM201.132 40.2697C200.892 40.3397 199.882 41.3097 199.792 41.5197C199.122 43.0897 200.832 45.1197 202.322 44.8497C205.292 44.2997 204.762 39.1697 201.142 40.2697H201.132ZM165.132 52.4197C161.672 51.3297 159.462 48.1797 157.752 45.1497C156.312 47.5797 154.692 50.0197 152.262 51.5897C151.552 52.0497 150.652 52.0797 150.102 52.7997C150.442 53.2597 150.682 53.3897 151.252 53.4597C153.732 53.7897 161.712 53.7497 164.252 53.4597C164.542 53.4297 164.822 53.4597 165.032 53.1997L165.132 52.4197Z" fill="#5B3722"/>
<path d="M239.603 233.99C239.503 234.46 239.093 234.47 238.703 234.52C237.393 234.66 230.243 234.68 230.013 235.04C229.633 235.64 231.733 237.07 232.133 237.69C232.293 237.94 232.933 239.38 233.003 239.67C233.593 242.19 231.243 245.94 228.573 246.19C226.963 246.34 224.383 244.9 223.893 243.34C223.243 241.31 224.403 238.37 226.733 238.66C228.003 238.82 229.573 240.52 228.723 241.65C227.873 242.78 227.423 240.84 226.903 240.6C225.933 240.15 224.853 241.37 225.173 242.56C225.203 242.66 226.403 244.06 226.483 244.12C226.983 244.5 228.423 244.45 229.043 244.31C230.113 244.07 231.163 242.4 231.273 241.35C231.703 237.34 228.403 235.06 224.683 235C220.963 234.94 216.203 235.64 212.243 235.81C209.873 235.91 207.403 235.52 205.103 236.06C204.633 236.76 207.193 238.22 207.693 238.78C212.413 244.14 209.843 252.19 202.303 252.33C197.093 252.42 195.443 245.54 200.193 243.48C201.933 242.72 203.363 243.1 204.823 244.25C205.373 244.68 205.473 245.87 206.663 245.28C207.763 244.73 206.933 241.94 206.453 241.07C203.983 236.57 197.603 236.98 194.073 239.96C190.173 243.24 189.803 250.02 187.513 254.41C184.753 259.68 178.093 264.15 172.013 263.84C165.223 263.49 160.593 258.99 157.753 253.2C156.043 256.33 154.023 259.46 150.963 261.45C142.953 266.66 132.413 262.51 128.093 254.58C125.053 249 125.463 241.1 118.633 238.35C113.553 236.31 107.743 239.28 108.373 245.11L109.723 245.38C111.923 241.58 117.603 242.96 118.183 247.11C118.303 247.94 117.433 250.42 116.893 250.97C116.813 251.05 115.063 252.12 114.943 252.14C112.353 252.64 109.123 251.81 107.293 249.95C105.553 248.18 105.283 246.46 105.483 243.98C105.703 241.24 108.003 237.67 110.663 236.84C110.723 236.05 109.833 235.87 109.243 235.8C107.423 235.59 105.183 235.9 103.273 235.8C99.0525 235.58 90.7525 234.28 87.1325 236.01C82.5825 238.2 83.4425 245.09 88.2025 244.35C89.6825 244.12 91.3825 241.1 89.5125 240.72C87.8725 240.39 87.9525 242.14 87.2025 242.01C85.8625 241.79 86.5425 239.33 88.0925 238.79C91.2725 237.69 93.3825 242.61 90.0225 245.13C88.1225 246.56 86.2925 246.55 84.4425 245.01C83.1425 243.93 81.7425 241.24 82.3425 239.55C82.3925 239.41 83.3325 237.58 83.4025 237.47C83.8925 236.75 85.1025 236.19 85.3625 235.27C84.7825 234.49 77.1025 234.68 75.4925 234.5C75.1025 234.46 74.6925 234.45 74.5925 233.97L79.3825 233.44H235.583L239.593 233.97L239.603 233.99ZM139.983 236.84C139.943 236.49 139.633 236.39 139.323 236.34C138.233 236.16 135.693 236.11 134.413 236.06C130.603 235.92 125.143 235.74 121.423 236.07C121.073 236.1 120.743 236.2 120.403 236.32L120.253 236.85C129.093 241.38 126.923 253.12 134.393 258.9C143.943 266.31 159.413 257.78 155.663 245.67C153.603 239.01 144.323 235.09 138.693 239.85C134.043 243.78 135.313 251.67 142.133 251.35C143.043 251.31 145.173 250.49 145.173 249.42C145.173 248.5 142.483 248.58 142.833 246.07C143.233 243.24 146.873 243.68 147.243 246.3C148.053 252.07 142.153 254.9 137.503 252.15C135.043 250.69 133.443 247.08 134.033 244.26C134.763 240.77 136.543 239.24 139.093 237.13C139.303 236.96 139.693 236.87 139.973 236.84H139.983ZM165.663 236.33C164.213 235.93 162.593 236.33 161.133 236.33C157.843 236.34 153.663 235.95 150.473 236.31C150.083 236.35 149.673 236.36 149.573 236.84C150.713 236.62 150.923 237.67 151.403 238C151.823 238.29 152.373 238.33 152.663 238.55C154.883 240.25 156.203 242.34 157.743 244.62C159.533 242.22 161.003 239.02 164.023 238.06L165.653 236.32L165.663 236.33ZM179.073 248.44C179.473 247.8 179.523 244.81 179.393 243.99C179.093 242.04 176.283 239.24 174.483 238.53C170.043 236.77 165.193 238.19 162.153 241.77C157.843 246.84 158.333 253.59 163.323 257.99C168.893 262.9 176.233 262.97 181.873 258.11C187.513 253.25 186.963 245.08 191.353 239.83C191.933 239.14 195.073 236.87 194.983 236.46C194.683 235.99 194.293 236.09 193.833 236.05C189.933 235.74 184.293 235.88 180.323 236.05C179.663 236.08 175.993 236.35 175.793 236.45C175.683 236.5 175.473 236.76 175.543 236.84C176.483 237.08 177.673 238.09 178.403 238.79C181.333 241.57 182.533 245.81 180.533 249.49C178.393 253.43 171.793 254.73 169.103 250.69C168.383 249.61 167.883 248.17 168.043 246.87C168.583 242.43 173.633 243.94 172.573 247.25C172.203 248.42 170.813 248.58 170.093 249.45C171.333 251.51 173.943 251.75 176.073 251.01C176.183 250.97 177.993 249.85 178.073 249.77C178.263 249.58 178.253 249.18 178.433 248.96C178.643 248.7 179.023 248.6 179.103 248.46L179.073 248.44ZM203.743 245.73C202.363 244.37 198.833 245.88 199.853 248.2C201.003 250.83 204.423 249.97 204.313 247.38C204.303 247.11 203.913 245.89 203.753 245.73H203.743ZM111.773 245.73C110.053 247.34 112.163 250.66 114.293 249.68C114.883 249.41 115.893 248.05 115.873 247.34C115.843 245.48 112.863 244.7 111.763 245.73H111.773Z" fill="#5B3722"/>
<path d="M288.373 173.03C288.663 172.99 289.023 172.92 289.253 172.74C293.913 168.96 295.763 163.52 295.383 157.59C295.213 154.91 294.723 152.75 292.893 150.74C290.953 148.61 288.043 147.38 285.773 145.94C285.283 145.63 284.613 145.65 284.233 145.13C284.603 144.91 285.323 144.84 285.753 144.91C286.223 144.98 288.653 145.72 289.163 145.91C290.403 146.38 291.543 147.17 292.663 147.87L293.273 147.43C292.993 143.19 292.823 140.23 288.993 137.78C287.963 137.12 286.103 136.65 285.183 136.14C284.503 135.76 284.483 134.56 283.193 134.89C283.363 134.33 284.663 134.73 285.123 134.65L291.333 136.69C292.023 136.49 291.833 133.31 291.563 132.63C291.123 131.53 288.503 130.12 287.413 129.51C286.933 129.24 286.153 129.23 285.713 128.94C285.163 128.58 284.973 127.68 283.713 127.76C284.003 127.35 284.423 127.35 284.873 127.35C285.603 127.35 288.263 128.1 289.053 128.39C289.783 128.66 290.503 129.76 291.513 129.34C291.673 127.88 292.853 125.25 291.893 124C291.603 123.62 288.173 121.64 287.533 121.36C286.803 121.03 285.873 121.13 285.283 120.5C287.703 119.22 290.573 121.01 292.663 122.19C296.493 118.01 288.963 113.73 285.543 112.71L283.983 111.03C285.283 111.46 287.223 111.53 288.403 111.93C288.833 112.08 290.763 113 291.233 113.25C292.583 113.98 294.513 116.56 294.113 112.97C293.663 108.98 287.363 103.85 283.473 103.25C283.423 102.87 283.453 102.35 283.893 102.23C284.013 102.2 286.163 102.43 286.443 102.49C287.593 102.71 289.253 103.99 290.483 104.29C291.283 103.4 287.753 100.75 287.033 100.35C284.413 98.8798 282.713 99.1997 279.973 98.8397C244.123 94.2097 208.663 102.89 174.773 113.24C132.733 126.08 86.7626 145.59 41.8926 136.38C38.3626 135.66 29.9426 133.69 27.3526 131.53C20.9526 126.21 23.1326 118.89 29.1026 114.4C35.7826 109.38 47.4226 108.69 55.1026 112.02C61.2826 114.7 68.3826 122.39 63.2126 129.07C62.8426 129.55 61.2626 131.15 60.8026 131.44C60.4626 131.66 59.6026 131.83 59.2026 131.79C58.6426 131.04 59.6126 130.88 59.9526 130.46C63.1826 126.54 63.9826 123.68 60.8826 119.21C54.3626 109.78 33.8926 109.87 27.3126 119.35C24.8226 122.93 25.2026 126.92 28.8526 129.44C29.2926 129.42 29.3526 126.55 29.6526 125.84C32.3126 119.46 46.5226 117.05 52.1426 120.17C52.7926 120.53 53.1426 121.28 53.9826 121.39L54.1426 122.19C52.9826 122.56 52.5926 121.54 51.8226 121.27C46.1826 119.29 38.4426 120.23 33.6726 123.89C32.8426 124.52 30.8426 126.73 30.8526 127.72C30.8526 127.88 31.8526 130.03 31.9826 130.21C32.8726 131.38 36.9926 133.42 38.3926 133.05C39.7426 132.21 40.2226 130.3 41.7026 129.6C42.0826 129.42 45.0626 128.72 45.4226 128.76C45.9726 128.82 48.3426 129.69 48.7026 130.24C46.7926 130.83 44.5626 130.08 42.7626 130.92C41.4626 131.52 40.2926 133.08 41.8826 134.08C43.7626 134.08 45.4826 134.86 47.3026 135.14C87.3126 141.22 126.493 126.12 163.733 114.4C201.443 102.54 238.723 91.8697 278.933 96.5197C283.883 97.0897 287.873 96.9598 291.653 100.93C297.473 107.05 296.953 116.14 295.293 123.78C293.633 131.42 293.663 136.31 295.343 144.19C297.273 153.27 300.163 165.7 291.503 172.38C290.793 172.93 288.453 174.72 288.403 173.05L288.373 173.03Z" fill="#5B3722"/>
<path d="M271.383 156.69C274.343 156.29 276.273 153.46 271.893 153.06C244.653 150.6 213.173 157.32 187.083 164.74C139.593 178.25 86.6226 203.29 36.4626 190.29C26.5926 187.73 18.6626 182.41 18.5526 171.08C18.4926 164.83 21.4326 159.27 21.4426 152.66C21.4626 141.25 12.9326 125.04 22.8526 115.7C23.8226 114.79 26.1126 112.86 27.3926 113.37C27.2726 113.97 26.4526 113.9 26.1726 114.22C25.4426 115.03 24.5326 116 23.7626 116.87C20.7126 120.32 19.6026 125.57 20.1326 130.1C20.6126 134.31 27.0326 138.65 30.5126 140.35C30.2926 141.03 29.4526 140.93 28.8826 140.81C26.5626 140.33 24.8526 138.66 23.0426 137.82C20.4026 136.6 21.8426 139.02 22.0826 140.08C22.5426 142.12 22.1626 142.99 23.7926 144.6C24.6526 145.45 27.5926 147.52 28.6026 148.08C29.1126 148.36 29.8426 148.23 30.2426 148.78C28.9526 149.91 27.8226 148.78 26.7626 148.38C26.2326 148.18 25.3826 148.14 24.9826 147.89C24.7226 147.73 24.6926 147.21 24.3926 147.12C24.0526 147.01 23.5026 147.27 23.5026 147.49V151.64C23.5026 152.93 27.3926 154.88 28.4226 155.54C29.0626 155.95 29.4726 156.74 30.5026 156.7C30.8426 157.1 30.4726 157.17 30.1126 157.22C29.3926 157.31 26.8126 156.45 26.0226 156.12C25.3826 155.85 24.7326 154.65 23.8626 155.38C23.5526 155.63 23.2326 158.1 23.2226 158.67C23.1926 160.95 28.0126 162.99 29.7126 164.1C29.7126 165.67 25.1426 163.55 24.4326 163.16C23.7226 162.77 23.2226 161.39 22.3426 162.7C20.5526 165.33 21.9726 166.93 24.0126 168.78C25.5026 170.14 27.9826 171.7 29.6226 172.77C30.1226 173.1 30.8726 172.93 31.2826 173.45C30.6826 173.64 29.7026 173.67 29.0926 173.56C27.9226 173.35 24.9526 171.93 23.8926 171.24C23.2726 170.83 22.3526 169.77 21.9426 169.55C20.9926 169.04 20.8726 171.43 20.9526 172.08C21.2326 174.13 23.9526 177.09 25.5826 178.35C27.2126 179.61 29.0426 180.45 30.7526 181.49C31.1026 182.15 28.8326 181.87 28.6126 181.82C27.9126 181.67 24.2126 179.62 24.0126 179.8L23.8826 180.58C24.8026 181.24 25.3526 182.35 26.2226 183.17C29.7626 186.51 35.8426 188.04 40.5526 189.08C85.8426 199.07 132.883 178.87 175.313 165.98C209.143 155.7 246.263 146.92 282.003 151.79C287.853 152.59 293.203 155.53 292.513 162.3C290.883 178.28 260.613 183.54 252.343 169.78C250.063 165.99 250.873 162.27 253.853 159.18C254.193 158.82 256.433 156.58 256.713 157.89C256.743 158.04 254.943 159.94 254.633 160.28C252.853 163.45 252.503 166.32 254.793 169.42C262.923 180.44 290.033 175.45 290.433 160.98C290.503 158.57 287.633 155.17 285.163 154.93C283.983 155.8 285.503 157.13 285.443 158.11C285.103 163.79 276.433 167 271.633 167.35C268.233 167.6 264.303 167.24 261.403 165.4L260.093 163.73C261.803 163.98 264.063 165.55 265.693 165.78C270.473 166.47 277.253 165.34 280.973 162.16C283.223 160.23 284.673 158.25 282.283 155.67C281.153 154.45 278.563 153.17 276.953 153.99C276.603 154.17 275.493 156.59 274.493 157.24C274.063 157.52 271.823 158.39 271.313 158.48C269.723 158.73 268.683 158.17 267.433 157.3C267.203 157.14 266.953 157.35 267.093 156.72C268.443 156.59 270.063 156.9 271.373 156.72L271.383 156.69Z" fill="#5B3722"/>
<path d="M234.933 160.58C232.213 160.94 229.183 160.65 226.513 161.12C206.333 164.64 186.893 170.73 167.433 177.27C166.033 177.74 162.613 178.39 161.573 178.94C161.123 179.18 161.033 179.73 160.813 179.79C160.263 179.93 159.503 179.65 158.843 179.84C158.503 179.94 158.033 180.53 157.443 180.77C124.903 193.77 83.9926 203.18 48.8326 198.43C46.9126 198.17 45.0426 197.49 43.0626 197.2C42.0226 197.05 40.8926 197.17 39.8526 196.91C39.8026 195.82 41.5226 196.09 42.3326 196.12C46.1126 196.26 49.7326 197.19 53.4826 197.42C66.8426 198.24 81.4526 197.98 94.6926 196.09C130.893 190.93 163.623 174.99 198.663 165.94C201.723 165.15 205.593 163.99 208.643 163.46C214.243 162.49 220.653 160.74 226.293 160.09C227.663 159.93 233.043 159.66 234.123 159.98C234.453 160.08 234.883 160.18 234.953 160.58H234.933Z" fill="#5B3722"/>
<path d="M137.123 90.2797C135.263 90.6997 133.713 90.3997 131.873 91.1297C131.183 91.3997 128.743 92.8997 128.223 93.3797C127.893 93.6897 127.823 94.5797 127.003 94.8197C127.943 95.8997 129.033 94.5997 129.993 94.4497C135.603 93.5597 140.883 99.5697 138.423 104.96C137.123 107.81 132.593 108.96 130.103 107.03C126.363 104.12 130.963 98.6798 134.393 101.44C134.833 101.8 135.883 103.72 136.743 102.5C137.713 101.12 135.603 97.6697 134.243 96.9297C133.273 96.3997 129.833 96.3297 128.743 96.5697C128.573 96.6097 126.253 98.0197 125.983 98.2197C123.973 99.7197 122.263 104.57 120.633 106.88C118.673 109.64 114.663 112.38 111.293 112.84C107.083 113.42 101.293 110.95 98.2126 108.07C92.4626 102.7 91.8426 93.0197 99.1226 88.7397C99.0826 90.2897 98.0426 91.7897 97.6526 93.2397C97.1626 95.0597 97.0426 97.0097 96.6526 98.8597C98.3426 98.1497 98.1226 97.0898 98.7626 95.9098C101.393 90.9898 108.573 89.4697 113.323 92.1797C115.463 93.3997 117.663 97.1997 117.023 99.6497C116.503 101.68 114.623 104.2 112.493 104.72C109.113 105.54 105.743 102.88 106.313 99.3197C106.623 97.3597 108.363 96.3497 109.773 98.0697C111.343 99.9897 107.773 100.27 107.803 101.86C107.803 102.24 109.623 103.12 110.063 103.22C113.693 104.08 116.083 100.14 114.953 96.7797C113.893 93.6397 109.693 91.4197 106.503 92.2397C104.253 92.8197 100.983 94.9298 99.9726 97.1198C95.4126 107.01 108.243 115.06 116.243 108.98C120.603 105.67 122.313 98.1998 125.603 93.6898C128.343 89.9398 132.953 85.8098 137.133 90.2998L137.123 90.2797ZM133.453 102.51C127.223 101.99 132.073 109.63 134.453 104.15L133.453 102.51Z" fill="#5B3722"/>
<path d="M210.753 184.76C210.933 184.94 210.913 185.4 211.143 185.66C211.313 185.86 211.723 185.89 211.963 186.26C212.643 187.29 212.583 190.2 211.573 191.04C209.953 192.41 207.743 190.29 208.973 188.5C209.363 187.94 210.983 188.28 211.043 187.19C208.073 183.25 202.473 186.4 203.343 190.99C204.503 197.1 212.833 197.9 216.903 193.77C224.173 186.39 215.233 175.28 206.143 177.82C198.133 180.06 197.373 189.25 193.173 194.94C192.633 195.67 189.803 198.81 189.153 199.22C187.733 200.14 184.323 200.29 182.793 199.6C180.273 198.47 184.693 198.13 185.503 197.9C187.553 197.32 189.823 195.85 191.093 194.16C190.933 193.39 187.413 194.08 186.543 194.03C183.293 193.86 180.773 191.34 179.763 188.37C178.833 185.65 180.563 181.54 183.563 180.91C185.933 180.41 188.253 180.53 189.543 182.74C191.343 185.82 187.813 188.94 184.673 187.63C184.273 187.46 184.253 186.99 183.973 186.77C182.913 185.96 181.943 184.82 181.763 186.89C181.453 190.49 185.183 193.04 188.583 192.41C189.023 192.33 191.283 191.38 191.723 191.14C194.803 189.38 196.193 184.04 198.373 181.19C203.333 174.7 212.163 174.64 218.693 179.03C223.863 182.51 226.663 190.26 223.493 195.93C223.113 196.61 220.613 199.6 220.033 199.73C218.523 200.07 220.133 197.82 220.223 197.58C221.093 195.29 222.533 191.81 221.083 189.62C220.713 189.62 220.443 191.67 220.233 192.13C217.103 199 204.583 200.09 202.003 192.35C200.613 188.19 203.703 183.32 208.313 183.97C208.603 184.01 210.683 184.65 210.783 184.75L210.753 184.76ZM185.823 182.41C185.583 182.48 184.573 183.45 184.473 183.67C183.763 185.22 185.673 186.63 187.013 186.21C187.643 186.01 188.363 184.48 188.193 183.85C188.003 183.14 186.663 182.16 185.823 182.41Z" fill="#5B3722"/>
<path d="M272.543 91.5698H258.133C227.663 91.9498 198.073 99.5898 169.353 108.62C146.213 115.89 123.583 124.5 99.8326 129.12C95.4326 129.98 90.3826 130.14 86.3326 131.24C83.3426 132.05 78.7726 131.38 75.6426 131.26L78.8826 130.75C102.083 129.13 124.413 121.56 146.573 114.39C181.683 103.03 216.803 91.2598 254.493 89.7498C260.303 89.5198 265.903 90.4198 271.633 91.0498C272.023 91.0898 272.433 91.1098 272.533 91.5798L272.543 91.5698Z" fill="#5B3722"/>
<path d="M158.663 13.2398C159.513 13.4198 159.023 12.6698 159.313 12.2098C159.453 11.9898 160.553 10.5798 160.883 10.1398C161.283 9.59977 162.483 8.08977 162.983 7.82977C163.853 7.38977 166.883 7.10977 166.953 8.42977C167.013 9.63977 164.093 11.5598 163.173 12.5498C162.693 13.0598 161.873 14.5898 161.723 14.7398C161.673 14.7898 160.363 14.8998 161.013 15.5698C161.413 15.9798 163.693 13.9298 164.143 13.6498C166.353 12.2598 167.663 11.7498 170.493 11.9298C172.803 12.0798 174.943 13.2798 175.633 15.6198C176.113 17.2498 174.443 19.3998 173.193 20.3498C171.783 21.4198 170.713 21.7098 168.933 21.5298C167.613 21.3998 164.973 20.3198 165.433 18.6798C166.543 19.0998 167.723 19.4298 168.933 19.1898C170.813 18.8198 170.833 14.9298 168.403 14.5398C163.663 13.7898 160.783 18.3098 158.013 21.2898C157.033 21.4498 154.583 17.8298 153.723 17.0198C151.863 15.2898 149.593 13.9798 146.933 14.5798C145.153 14.9798 144.643 17.5598 145.983 18.7898C147.173 19.8898 148.493 19.1998 149.853 18.9398C149.803 19.2998 149.983 19.9198 149.813 20.1898C149.743 20.3098 147.553 21.4298 147.333 21.4698C145.093 21.9298 142.333 20.9798 140.923 19.1798C139.413 17.2398 139.473 15.7098 140.923 13.7498C142.473 11.6398 146.823 11.4198 149.093 12.3098C149.713 12.5598 153.033 15.2698 153.493 14.7798C154.073 14.1698 152.813 13.4598 152.613 13.1998C152.433 12.9698 152.423 12.5998 152.183 12.3398C151.343 11.4198 148.223 9.42977 148.343 8.16977C150.803 6.59977 152.663 7.73977 154.273 9.73977C154.883 10.4898 154.913 11.8798 156.093 11.6798C156.543 9.60977 155.053 7.93977 154.823 6.06977C154.503 3.40977 154.693 -0.760235 158.443 0.119765C161.183 0.759765 160.893 3.51977 160.683 5.76977L158.683 13.2298L158.663 13.2398Z" fill="#5B3722"/>
<path d="M297.973 80.1598C298.563 80.2598 298.383 80.1398 298.553 79.8298C298.973 79.0498 299.983 76.1498 300.023 75.3198C300.103 73.7498 299.303 72.3598 299.263 70.8198C301.073 71.1598 301.513 73.1098 301.783 74.6598C302.683 79.9298 298.363 84.0098 293.893 85.8098C281.543 90.7898 265.623 86.1098 252.433 86.6298C239.093 87.1598 226.323 89.9998 213.463 92.7998C212.453 93.0198 210.803 92.9198 209.943 93.1798C209.573 93.2898 209.413 93.7898 208.853 93.8998C208.123 94.0398 207.163 93.8098 206.393 93.8998C206.823 93.1498 208.013 93.3498 208.783 93.0498C224.183 87.2198 243.803 84.0598 260.493 84.5498C268.953 84.7998 285.383 88.2698 292.503 83.3698C298.623 79.1498 296.103 68.0498 287.753 69.0298C285.743 69.2598 281.933 71.3998 281.623 73.5598C281.373 75.3798 284.433 76.2598 283.463 77.6998C282.083 79.7498 278.953 77.5098 278.873 75.0498C278.643 68.7198 287.653 65.0498 292.873 67.7398C294.913 68.7898 297.973 72.4798 297.973 74.8298V80.1498V80.1598Z" fill="#5B3722"/>
<path d="M149.143 269.7C149.433 269.92 151.003 270.36 150.103 270.96C149.203 271.56 148.823 270.42 148.143 270.3C147.003 270.1 145.353 271.42 145.213 272.58C145.053 273.95 146.293 275.61 147.653 275.75C148.183 275.81 151.023 274.8 151.583 274.51C154.063 273.24 155.393 270.24 157.753 268.74C159.923 270.25 161.233 272.95 163.603 274.32C163.873 274.47 166.723 275.68 166.903 275.71C170.103 276.25 171.853 271.5 168.273 270.42C167.073 270.06 166.903 271.04 166.043 271.09C163.853 271.23 166.463 269.17 167.423 268.82C168.833 268.31 171.183 268.33 172.513 269.05C173.593 269.63 175.683 271.97 175.713 273.24C175.773 275.65 173.203 277.76 170.973 278.07C168.033 278.48 165.443 277.22 163.113 275.6C162.633 275.26 162.643 274.41 161.533 274.72C161.203 275.04 162.443 276.5 162.693 276.8C163.363 277.6 166.813 280.62 166.953 281.12C167.233 282.14 164.993 282.92 163.983 282.52C162.493 281.93 161.603 280.8 160.743 279.52C160.203 278.72 160.033 277.21 158.683 277.05C158.453 277.8 159.273 278.07 159.413 278.53C159.633 279.29 159.533 280.53 159.793 281.52C160.403 283.76 161.053 284.25 160.753 287.04C160.513 289.26 158.153 290.88 156.073 289.39C154.423 288.21 154.633 286.07 154.823 284.23C155.043 281.98 156.433 280.42 156.083 278.1C154.843 277.87 154.933 279.28 154.483 280C153.143 282.16 150.293 283.55 148.313 281.31C148.173 280.5 154.713 275.68 154.523 273.95L153.993 274.7C152.263 274.37 152.843 275.33 152.393 275.7C152.193 275.86 151.643 275.82 151.313 276.05C150.433 276.64 149.503 277.41 148.363 277.76C145.253 278.71 140.833 277.7 139.873 274.21C139.173 271.67 142.473 268.76 144.843 268.52C145.673 268.44 147.793 268.6 148.523 268.94C148.933 269.13 148.973 269.55 149.173 269.7H149.143Z" fill="#5B3722"/>
<path d="M103.403 200.01C102.523 200.97 100.763 200.67 99.5426 200.95C80.7126 205.26 61.8626 206.27 42.6426 203.05C36.5826 202.03 30.1826 200.38 23.9226 201.07C19.3126 201.58 14.1526 204.55 14.1426 209.73C14.1326 214.6 18.1626 218.06 23.0026 217.27C25.1526 216.92 28.9026 214.68 28.1226 212.12C27.9526 211.56 26.4626 210.57 26.6726 209.51C27.5926 207.3 30.3126 208.86 30.8326 210.45C32.6126 215.92 25.5026 220.02 20.8226 219.69C15.1526 219.29 10.9126 212.91 12.1526 207.45C12.2626 206.96 14.1026 203.82 13.9126 203.64C10.7426 204.61 9.28264 208.45 9.23264 211.54C9.21264 212.52 9.48264 213.26 9.52264 214.13C9.69264 217.87 7.40264 214.05 7.19264 212.56C6.27264 205.83 11.7326 201.55 17.6926 200.02C30.4726 196.73 44.6326 201.92 57.6326 202.86C69.4226 203.71 83.4326 202.19 95.2126 200.75C97.9126 200.42 100.653 199.14 103.413 200.01H103.403Z" fill="#5B3722"/>
<path d="M60.7625 66.2498C68.5025 74.4198 67.9825 87.6198 59.4325 94.9598C46.1325 106.38 26.0825 96.2398 26.8725 78.7398C27.6225 62.0298 49.1925 54.0298 60.7625 66.2498ZM57.8425 66.8298C49.5125 59.7598 36.4125 61.8498 31.2425 71.6798C23.0925 87.1698 40.0225 103.97 55.2925 95.2098C65.7925 89.1898 67.0625 74.6598 57.8425 66.8298Z" fill="#5B3722"/>
<path d="M281.023 222.75C271.633 230.48 257.423 227.92 251.323 217.48C241.183 200.14 260.793 180.39 278.233 190.57C289.903 197.39 291.503 214.12 281.033 222.75H281.023ZM254.723 196.45C248.423 204.05 250.163 216.6 258.453 222C275.213 232.92 293.803 212.79 282.353 197.06C275.823 188.09 261.753 187.96 254.723 196.45Z" fill="#5B3722"/>
<path d="M81.5426 110.32C82.6126 111.38 79.5226 113.52 80.8226 115.06C81.7326 115.66 83.0026 115.55 83.9226 115.03C85.7626 113.99 85.9326 112.63 85.7726 110.63C85.3226 105.12 75.3626 105.09 74.6426 111.45C74.0726 116.46 77.8626 120.79 82.4426 122.27C90.8526 124.97 99.8026 121.17 108.023 119.15C115.523 117.31 123.093 115.65 130.663 114.04C132.123 113.73 134.103 112.2 135.823 113.5C135.553 113.92 135.113 113.85 134.713 113.94C121.233 117.05 107.833 121.71 94.1226 124.45C90.0526 125.27 84.8126 126.19 80.7126 125.81C73.6426 125.16 67.2726 119.12 68.3826 111.67C68.6226 110.07 69.9326 112.75 70.1426 113.28C71.3626 116.26 71.8826 118.57 74.5426 120.89C74.9026 121.2 78.1126 123.45 78.3426 123.46C78.5226 123.46 80.3326 123.22 79.7926 122.7C78.3726 122.88 78.2326 121.9 77.5926 121.39C77.2626 121.13 76.7726 121.04 76.6026 120.89C72.5826 117.2 70.3026 110.22 75.3926 106.25C79.9026 102.74 86.1526 104.84 87.6526 110.29C88.6926 114.07 85.2926 117.89 81.4726 117.51C78.8426 117.25 76.5726 114.54 77.6526 111.87C78.0826 110.8 80.6226 109.4 81.5426 110.31V110.32Z" fill="#5B3722"/>
<path d="M248.943 178.74C248.603 174.88 246.183 170.68 243.063 168.41C242.403 167.93 240.483 166.67 239.743 166.82C238.133 167.15 240.643 168.06 240.743 168.14C242.573 169.49 245.213 172.66 245.913 174.9C247.033 178.46 245.623 182.36 242.433 184.3C239.243 186.24 234.973 185.88 232.483 182.88C231.153 181.27 230.513 178.13 231.153 176.14C231.493 175.07 233.493 173.15 234.593 172.84C236.993 172.17 240.493 172.99 241.303 175.63C242.113 178.27 238.263 181.3 237.013 179.63C236.353 178.74 237.703 177.88 237.923 177.21C238.573 175.24 237.373 174.31 235.493 174.78C231.553 175.77 232.073 181.01 235.313 182.9C237.313 184.07 240.943 183.55 242.553 181.84C246.043 178.11 243.113 172.16 239.583 169.56C231.323 163.48 217.763 169.15 208.733 171.37C203.033 172.77 197.413 174.04 191.643 175.29C189.783 175.69 187.443 176.01 185.793 176.45C185.083 176.64 184.843 177.1 183.963 177.21C183.393 177.28 182.193 177.28 181.613 177.21C181.253 177.16 180.793 177.01 181.223 176.69C182.043 176.54 183.423 176.6 184.153 176.37C184.573 176.24 184.843 175.69 185.363 175.51C188.663 174.34 193.523 173.63 197.063 172.68C209.123 169.45 227.003 163.29 239.203 164.5C243.053 164.88 248.783 169.09 249.653 172.99C249.793 173.6 250.273 177.16 250.233 177.59C250.193 178.06 249.203 179.04 248.933 178.76L248.943 178.74Z" fill="#5B3722"/>
<path d="M167.183 189.85C166.193 190.38 166.013 191.01 164.813 190.35C163.703 189.75 164.453 188.74 163.453 188.08C161.853 189.22 161.443 189.74 161.783 191.82C162.203 194.44 166.143 194.52 167.983 193.38C169.983 192.15 170.963 189.13 170.553 186.94C169.473 181.1 162.893 180.2 158.783 183.67C156.973 185.2 155.883 188.18 156.043 190.55C156.093 191.25 156.463 191.78 156.453 192.25C156.373 195.22 154.313 196.62 151.913 197.81C151.823 198.18 153.163 199.17 153.493 199.34C157.213 201.2 162.333 202.35 166.573 201.84C167.693 201.71 169.803 200.17 170.463 201.58C169.073 202.91 166.893 203.66 164.993 203.89C161.943 204.26 157.883 203.22 155.193 201.8C154.333 201.35 153.453 200.17 152.303 200.26C151.363 200.38 151.433 202.31 150.983 203.11C150.713 203.59 148.553 205.27 148.093 205.41C145.873 206.06 141.733 203.99 141.873 201.48C141.963 199.82 144.033 198.86 144.343 200.2C144.523 200.98 143.473 202.07 144.643 203C145.703 203.84 147.723 203.84 148.773 203C150.543 201.57 150.613 199.23 148.923 197.69C147.233 196.15 144.953 196.15 142.763 196.47C138.903 197.03 134.883 199.31 130.773 199.52C128.953 199.61 125.843 199.01 124.133 198.35C123.563 198.13 122.843 197.03 122.073 196.78C122.543 195.26 124.383 197.27 125.333 197.42C126.983 197.68 131.313 197.57 133.103 197.43C138.113 197.04 142.483 193.39 148.093 195.16C148.803 195.39 149.263 196.04 149.993 196.13C152.483 196.44 155.863 193.61 154.633 190.95C154.583 190.85 153.253 189.34 153.153 189.3C152.353 188.97 150.313 188.95 149.713 189.65C149.233 190.22 149.383 191.98 148.203 191.69C147.143 191.43 147.423 189.62 147.903 188.87C148.383 188.12 150.433 187.15 151.333 187.1C152.313 187.04 153.233 188.42 154.523 187.71C155.103 185.72 155.973 183.78 157.493 182.38C161.413 178.76 167.523 179.01 170.853 183.29C173.573 186.79 172.733 191.77 169.303 194.45C166.483 196.66 162.973 196.68 160.733 193.66C156.823 188.39 165.873 182.85 167.183 189.85Z" fill="#5B3722"/>
<path d="M175.723 90.4798C175.453 90.7498 174.183 91.1798 173.833 90.8098C172.893 89.8198 175.003 89.3898 173.563 87.6998C171.533 85.3098 166.683 87.8798 168.073 91.3798C169.193 94.2098 173.543 94.5698 176.163 94.1598C180.833 93.4098 183.393 91.4698 188.883 91.8398C190.223 91.9298 193.113 92.5698 194.183 93.2798C194.603 93.5598 194.803 94.5198 195.753 94.4398C195.693 96.5198 194.353 94.7098 193.383 94.3498C192.653 94.0798 189.733 93.4898 188.893 93.3898C183.203 92.6998 175.993 96.9698 170.313 95.3598C168.873 94.9498 168.263 93.9898 166.343 94.1898C163.943 94.4398 161.923 97.4798 163.213 99.6098C163.263 99.6998 164.593 100.97 164.693 101C165.363 101.28 167.523 101.42 167.873 100.65C168.173 100.01 167.753 98.3298 169.393 98.6298C170.703 98.8698 170.223 101.53 168.703 102.26C166.683 103.24 165.003 102.39 163.063 102.32C162.063 103.66 161.693 105.35 160.583 106.59C155.733 112 145.203 109.76 145.143 101.81C145.123 99.5798 145.593 98.0598 146.983 96.3598C149.183 93.6598 152.473 92.5598 155.533 94.5598C156.513 95.1998 157.843 97.2898 157.843 98.4398C157.843 100.26 155.993 102.79 154.083 102.97C150.783 103.27 149.043 98.9198 151.773 98.8598C153.803 98.8198 153.293 100.75 153.703 101.06C155.413 101.46 156.283 99.4698 156.043 97.9398C155.973 97.4698 154.573 95.7398 154.253 95.5898C153.783 95.3598 151.363 95.3798 150.763 95.4798C149.123 95.7398 147.103 98.5498 146.783 100.06C146.423 101.82 147.113 104.16 148.143 105.59C149.113 106.94 152.163 108.27 153.823 108.15C157.843 107.87 161.683 103.78 161.523 99.7298C161.493 99.0198 161.203 98.3998 161.233 97.6698C161.373 94.9698 163.423 93.4698 165.653 92.4698C165.113 90.9198 163.863 90.9598 162.723 90.4798C158.863 88.8398 155.313 88.0098 151.003 88.4598C149.613 88.5998 148.663 89.4998 147.243 89.2298C147.273 88.7898 148.303 87.7698 148.613 87.5898C149.033 87.3398 151.793 86.4698 152.323 86.3898C156.723 85.7398 162.533 87.8798 165.793 90.7798C166.793 90.0898 166.253 88.9198 166.763 87.8598C168.143 84.9898 171.813 84.1998 174.353 86.1198C175.473 86.9598 176.963 89.2398 175.723 90.4698V90.4798Z" fill="#5B3722"/>
<path d="M19.1726 80.0898C19.6526 80.6298 20.5726 81.1198 21.1626 81.8598C22.3226 83.3098 23.2226 85.2898 21.8126 86.9098C21.0426 85.6198 18.7426 81.6798 17.3526 81.2598C15.6926 80.7598 14.8226 81.9598 13.6526 82.3798C10.3826 83.5498 5.11261 84.1298 1.99261 82.3598C0.472609 81.4998 -0.637391 79.9298 0.412609 78.2198C2.07261 75.5198 7.51261 75.3598 10.2926 75.8798C12.3526 76.2598 13.8626 77.1298 15.6626 77.7698C18.8626 78.9098 19.4926 74.3398 21.8226 73.1798C22.8326 74.1998 21.7226 76.3398 21.0226 77.3098C20.4526 78.1098 18.4126 79.2598 19.1726 80.0998V80.0898ZM13.9026 79.8998C14.3126 79.3498 11.4826 78.3098 11.0626 78.2098C8.73261 77.6398 3.70261 77.2498 2.49261 79.7698C5.82261 82.3798 10.2726 81.0598 13.9026 79.8998Z" fill="#5B3722"/>
<path d="M68.9025 211.68C69.2525 212.04 68.2025 215.38 67.8725 215.9C67.4225 216.61 65.6425 217.49 65.5225 218.31C65.3425 219.56 66.2325 219.42 66.6825 220C67.5325 221.1 69.4425 224.05 67.4725 224.91C66.8625 223.58 64.3725 220.04 62.9425 219.83C62.5025 219.76 62.2225 220.41 61.8225 220.56C58.0625 222 50.4025 223.62 47.2325 220.49C45.5825 218.86 45.6325 217.74 47.4925 216.34C51.2625 213.5 57.4025 214.8 61.4425 216.4C61.7825 216.54 62.0125 216.98 62.3425 217.07C63.8225 217.52 65.7525 214.91 66.5225 213.83C67.2925 212.75 67.0525 211.41 68.9025 211.67V211.68ZM59.4925 217.72C58.6125 217 50.5325 216.87 49.5525 217.63C48.9025 218.14 48.6725 219.27 49.6925 219.61C52.1125 220.4 55.5925 220.14 58.1025 219.7C58.7725 219.58 59.4125 219.33 60.0725 219.21C60.1525 219.1 59.6425 217.85 59.4825 217.73L59.4925 217.72Z" fill="#5B3722"/>
<path d="M251.103 69.4398C251.793 70.0898 252.483 70.6898 253.483 70.5898C254.283 70.5098 254.423 69.9898 255.013 69.7698C258.553 68.4798 264.913 67.3998 268.103 69.6898C270.173 71.1698 270.383 72.6298 268.393 74.3298C266.083 76.2998 260.543 76.1698 257.693 75.4298C256.873 75.2098 253.073 73.3998 252.733 73.4698C250.693 74.7598 249.733 76.9998 248.033 78.5998C246.873 77.4298 247.823 75.8298 248.573 74.7298C249.323 73.6298 251.103 72.8098 250.373 71.3398C250.193 70.9798 249.403 70.7098 249.063 70.3198C247.603 68.6198 246.863 67.1598 247.653 64.8598C248.493 64.7598 248.403 65.7498 248.723 66.2498C249.303 67.1398 250.383 68.7598 251.113 69.4398H251.103ZM261.343 70.6398C260.443 70.6798 257.653 70.8698 256.993 71.2198C256.213 71.6398 255.873 72.7098 256.973 73.0398C258.073 73.3698 261.873 73.7198 263.093 73.6898C263.913 73.6698 266.843 73.3498 267.073 72.4598C267.603 70.3198 262.523 70.5898 261.343 70.6398Z" fill="#5B3722"/>
<path d="M293.813 214.54C291.623 213.89 293.583 210.77 294.473 209.62C294.923 209.03 295.683 209.13 295.633 208.21C295.583 207.18 294.673 207.02 294.223 206.47C292.983 204.96 292.173 203.33 292.253 201.31C294.143 201.09 293.873 202.29 294.533 203.31C295.193 204.33 296.802 206.43 297.952 206.66C299.012 206.87 299.333 206.09 300.223 205.78C303.533 204.6 307.002 203.99 310.552 204.42C312.182 204.62 315.623 206.72 315.033 208.65C314.783 209.45 312.772 211.03 311.982 211.31C307.942 212.75 301.912 211.43 298.202 209.46C296.312 210.57 294.492 212.46 293.802 214.54H293.813ZM305.702 206.57C304.092 206.7 301.792 206.77 301.102 208.44C301.332 208.74 301.682 208.94 302.052 209.03C303.152 209.28 306.692 209.91 307.702 209.88C308.492 209.86 312.062 209.14 312.202 208.4C312.602 206.22 306.882 206.47 305.702 206.57Z" fill="#5B3722"/>
<path d="M293.563 219.99C293.083 220.92 291.883 220.61 291.093 221.28C289.773 222.4 288.263 224.98 286.833 226.36C277.823 235.01 263.133 235.94 253.543 227.85C252.923 227.33 252.053 227.68 252.583 226.47C252.873 226.18 256.123 228.47 256.663 228.75C266.583 233.77 279.883 231.52 287.213 223.11C287.843 222.39 289.633 219.56 290.113 219.27C291.373 218.5 292.303 219.83 293.563 220V219.99Z" fill="#5B3722"/>
<path d="M62.8926 60.7498L62.8026 61.7498C62.5626 61.1898 61.6226 61.3498 61.4326 61.1798C61.2926 61.0598 61.3926 60.5398 61.1326 60.3298C61.0426 60.2598 59.5126 59.4798 59.2426 59.3498C49.4926 54.5998 36.4826 55.3798 28.6826 63.4398C27.6726 64.4898 25.3926 68.2098 24.4626 68.5798C23.6626 68.8998 22.5626 68.2298 21.6826 68.2498C21.0326 67.4598 24.0226 66.3098 24.4626 65.8398C25.8526 64.3598 26.7926 62.5398 28.5526 60.9798C37.9026 52.6998 52.5226 51.7098 61.9026 60.3398C62.1526 60.5698 62.5926 60.6098 62.8926 60.7698V60.7498Z" fill="#5B3722"/>
<path d="M288.733 191.09C289.373 191.75 290.473 193.3 290.943 193.67C291.923 194.44 293.313 193.8 293.033 195.84L290.103 196.12L288.033 192.82C278.903 182.2 265.333 181.56 253.533 188.06C253.383 188.14 252.453 189.76 252.053 188.46L254.923 185.88L257.053 184.63C269.483 179.22 279.573 181.5 288.733 191.08V191.09Z" fill="#5B3722"/>
<path d="M59.1226 100.49C59.7126 100.19 62.3026 98.7697 62.6726 99.1097C62.7826 99.8797 61.8626 99.8997 61.3926 100.3C50.3526 109.5 35.9326 106.95 26.3426 96.9197C25.4726 96.0097 24.4826 94.1797 23.5126 93.5297C22.7626 93.0197 21.8226 93.1797 21.4226 92.3797L24.2826 91.4797C25.4826 91.8997 25.5626 93.0197 26.1326 93.7597C34.4426 104.45 47.3526 106.54 59.1226 100.5V100.49Z" fill="#5B3722"/>
<path d="M213.912 86.9098C212.912 86.7198 212.282 87.6498 211.642 87.8798C210.012 88.4698 204.612 88.6898 202.642 88.7398C198.412 88.8498 193.962 88.4998 189.792 87.9498C189.942 87.4998 191.142 87.2898 191.542 87.2398C195.102 86.7798 198.592 87.0698 202.122 86.9198C205.652 86.7698 209.202 86.0798 212.762 86.3798C213.212 86.4198 213.772 86.3398 213.912 86.9098Z" fill="#5B3722"/>
<path d="M129.603 202.86C125.753 203.22 121.913 203.02 118.053 203.11C114.643 203.19 111.123 203.63 107.673 203.39C106.873 203.33 105.843 203.31 105.223 202.73C105.213 202.38 107.493 202.14 107.943 202.08C114.653 201.23 122.113 200.49 128.703 202.32C129.063 202.42 129.513 202.35 129.603 202.85V202.86Z" fill="#5B3722"/>
<path d="M109.893 255.52C110.563 254.27 111.773 255.09 112.883 255.02C117.373 254.75 118.883 252.61 121.083 249.2C121.953 247.85 121.883 251.01 121.843 251.51C121.543 254.58 118.303 257.31 115.213 257.36C112.943 257.39 111.713 256.64 109.903 255.52H109.893Z" fill="#5B3722"/>
<path d="M196.102 37.9697C195.532 38.6097 194.872 40.0597 194.322 40.7397C193.642 41.5897 193.392 39.1797 193.472 38.5997C193.542 38.1297 194.582 35.7297 194.862 35.3097C195.262 34.6997 198.132 32.6497 198.802 32.4897C199.092 32.4197 201.892 32.6697 202.302 32.7597C202.842 32.8697 204.922 33.6797 205.052 34.1697C205.382 35.4497 203.102 34.6797 202.122 34.7997C200.112 35.0597 197.422 36.4597 196.092 37.9797L196.102 37.9697Z" fill="#5B3722"/>
<path d="M196.093 252.07C197.093 253.31 200.243 254.88 201.853 255C203.173 255.1 204.443 254.35 205.343 255.39C203.383 257.16 200.353 257.84 197.813 256.96C195.273 256.08 192.123 251.18 194.063 248.78C194.263 248.78 195.793 251.7 196.093 252.07Z" fill="#5B3722"/>
<path d="M119.403 37.9598C117.663 36.0698 113.223 33.7498 110.793 35.2798C109.033 33.4998 114.053 32.4398 115.213 32.4298C116.583 32.4098 119.543 33.9698 120.383 35.0398C121.313 36.2198 122.743 39.7298 121.433 40.9898C121.253 40.9898 119.723 38.2998 119.403 37.9598Z" fill="#5B3722"/>
<path d="M228.383 199.42C228.193 199.6 227.743 199.66 227.423 199.89C227.123 200.11 227.053 201.19 226.183 200.15C225.993 198.96 227.183 198.31 227.363 197.75C227.483 197.36 228.163 193.77 228.183 193.36C228.283 191.28 227.173 188.9 227.423 186.78C228.013 186.18 229.363 188.74 229.543 189.19C230.133 190.62 230.713 193.11 230.463 194.63C230.293 195.68 229.113 198.72 228.383 199.42Z" fill="#5B3722"/>
<path d="M92.5028 88.2098C92.7628 89.2098 91.8828 89.5298 91.5928 90.2798C90.8828 92.1198 90.2328 95.4498 90.4628 97.3898C90.6528 98.9698 91.7028 100.42 91.4728 102.07L90.8228 102.22C89.2228 99.8198 87.7528 96.7998 88.1328 93.8098C88.3528 92.0098 90.3728 88.1698 92.5128 88.1998L92.5028 88.2098Z" fill="#5B3722"/>
<path d="M119.403 92.1698C121.163 94.3298 121.173 96.7798 120.733 99.4298C120.003 99.6498 119.473 102.34 118.843 102.2C117.843 101.98 118.963 98.8498 118.973 98.1698C118.993 97.2398 118.513 94.6898 118.123 93.8298C117.583 92.6298 116.033 91.8698 116.363 90.5298C116.763 90.0898 119.073 91.7698 119.393 92.1598L119.403 92.1698Z" fill="#5B3722"/>
<path d="M156.503 260.76C158.183 260.24 160.043 261.3 160.383 263.04C160.573 264.01 158.873 265.93 157.953 266.12C157.033 266.31 155.163 264.67 154.943 263.78C154.723 262.89 155.773 260.99 156.503 260.76Z" fill="#5B3722"/>
<path d="M157.302 23.9198C160.762 23.4998 161.222 29.0698 157.712 29.2398C154.532 29.3998 153.932 24.3298 157.302 23.9198Z" fill="#5B3722"/>
<path d="M213.403 41.6398L214.053 41.2498C215.263 42.8098 216.023 43.9798 216.023 46.0498C216.023 47.1398 215.223 48.6898 214.443 49.4198C213.823 50.0098 211.323 51.6998 211.073 50.1998C211.693 49.5898 213.403 47.6098 213.403 46.8198V41.6298V41.6398Z" fill="#5B3722"/>
<path d="M211.062 238.92C215.892 239.54 217.662 245.16 214.042 248.52C212.902 248.81 213.612 246.17 213.602 245.8C213.582 245.12 213.432 243.69 213.282 243.06C212.932 241.53 211.293 240.51 211.062 238.93V238.92Z" fill="#5B3722"/>
<path d="M202.503 198.19C198.213 197.26 196.583 192.2 198.333 188.43C198.593 187.87 199.773 186.83 200.043 186C201.113 187.24 199.473 188.89 199.413 190.31C199.393 190.7 199.583 192.5 199.673 192.85C200.113 194.64 201.863 196.46 202.513 198.18L202.503 198.19Z" fill="#5B3722"/>
<path d="M104.442 238.92C104.342 240.44 102.662 241.3 102.282 242.59C101.772 244.29 102.162 246.62 102.112 248.38C101.982 249.42 99.9925 246.74 99.8425 246.24C98.7425 242.65 100.772 239.48 104.452 238.91L104.442 238.92Z" fill="#5B3722"/>
<path d="M101.463 41.5097C102.653 41.2497 101.883 44.2997 101.903 44.7497C101.933 45.3697 102.233 47.2497 102.443 47.7897C102.763 48.6097 105.203 50.4397 104.023 50.8097C102.673 51.2397 100.353 48.8797 99.9026 47.7297C99.0626 45.5897 99.7626 43.0097 101.473 41.4997L101.463 41.5097Z" fill="#5B3722"/>
<path d="M123.413 259.64C122.853 257.99 122.103 256.99 122.333 255.13C122.723 251.97 125.233 250.82 125.683 254.65C125.863 256.24 125.903 260.54 123.413 259.64Z" fill="#5B3722"/>
<path d="M190.383 252.74C190.593 252.53 191.573 252.07 191.873 252.26C192.683 253.86 193.603 255.49 193.043 257.35C192.903 257.83 191.953 259.61 191.463 259.69C190.063 259.92 189.933 258.43 189.823 257.44C189.693 256.34 189.593 253.52 190.383 252.75V252.74Z" fill="#5B3722"/>
<path d="M123.383 37.8798C123.153 35.9698 121.963 34.8798 122.353 32.8298C122.483 32.1398 123.423 31.0798 123.413 30.1298C125.263 29.6698 125.603 31.6398 125.713 33.0898C125.863 35.0298 125.663 37.5798 123.383 37.8798Z" fill="#5B3722"/>
<path d="M190.733 30.1298C191.123 29.9998 191.693 30.0398 192.003 30.3498C192.103 31.2098 193.023 32.4398 193.153 33.0898C193.453 34.6598 192.533 36.5298 191.713 37.8598C188.923 37.8098 189.663 30.4998 190.733 30.1298Z" fill="#5B3722"/>
<path d="M145.943 94.4298C145.253 96.1198 143.473 97.6598 143.153 99.5498C142.993 100.47 142.983 102.43 143.113 103.36C143.253 104.37 143.943 104.88 144.113 105.73C144.183 106.06 144.333 106.76 143.743 106.62C143.303 105.62 142.223 105.03 141.923 104.03C141.383 102.22 141.323 99.4698 142.113 97.7298C142.463 96.9598 145.083 93.6698 145.943 94.4298Z" fill="#5B3722"/>
<path d="M173.373 192.67C174.163 191.58 174.733 187.74 174.473 186.4C174.383 185.9 173.963 185.63 173.833 185.22C173.703 184.81 172.913 182.64 174.083 183.15C174.213 183.21 175.583 185.26 175.653 185.47C176.153 186.86 176.123 190.22 175.473 191.54C175.333 191.82 173.103 194.6 172.923 194.7C172.453 194.96 172.193 194.85 171.883 194.43C172.113 193.61 173.093 193.04 173.353 192.67H173.373Z" fill="#5B3722"/>
<path d="M58.4025 155.2C60.2825 154.91 61.9225 155.09 63.3125 155.73C64.7125 156.37 65.9125 157.35 66.9125 158.65C67.9125 159.95 68.7225 161.52 69.3425 163.33C69.9525 165.15 70.4225 167.11 70.7425 169.21C71.0625 171.32 71.2025 173.33 71.1625 175.24C71.1225 177.16 70.8125 178.88 70.2325 180.4C69.6525 181.92 68.8025 183.2 67.6625 184.23C66.5225 185.26 65.0125 185.91 63.1325 186.2C61.2925 186.48 59.6825 186.3 58.2825 185.66C56.8825 185.02 55.7025 184.06 54.7225 182.77C53.7425 181.48 52.9425 179.93 52.3325 178.12C51.7225 176.31 51.2525 174.34 50.9325 172.24C50.6125 170.13 50.4725 168.12 50.5125 166.21C50.5525 164.29 50.8525 162.57 51.4025 161.02C51.9525 159.48 52.7925 158.19 53.9325 157.16C55.0725 156.13 56.5625 155.48 58.4025 155.2ZM65.5425 169.98C64.8925 165.73 64.0525 162.76 63.0325 161.06C62.0025 159.36 60.6425 158.59 58.9525 158.76C57.3725 159.09 56.3425 160.22 55.8725 162.15C55.4025 164.08 55.4825 167.17 56.1325 171.41C56.7725 175.61 57.6125 178.59 58.6425 180.33C59.6825 182.07 60.9925 182.85 62.5925 182.65C64.2225 182.36 65.2825 181.22 65.7725 179.24C66.2625 177.26 66.1925 174.17 65.5425 169.97V169.98Z" fill="#5B3722"/>
<path d="M84.1826 151.56C85.2726 151.38 86.3726 151.43 87.4626 151.71C88.5626 151.98 89.5626 152.46 90.4826 153.15C91.4026 153.84 92.1926 154.73 92.8626 155.84C93.5326 156.95 93.9926 158.25 94.2326 159.73C94.7226 162.76 94.2926 165.23 92.9626 167.15C91.6326 169.07 89.7126 170.24 87.2126 170.64L83.4026 171.25L84.7626 179.73C84.8826 180.48 85.1326 181.13 85.5126 181.7C85.8926 182.27 86.4626 182.49 87.2026 182.37L87.2726 182.83L78.1326 184.3L78.0626 183.84C78.8126 183.72 79.2726 183.33 79.4626 182.67C79.6526 182.01 79.6826 181.31 79.5626 180.56L75.6826 156.43C75.5626 155.68 75.3126 155.03 74.9326 154.46C74.5526 153.89 73.9826 153.67 73.2426 153.79L73.1626 153.33L84.1726 151.56H84.1826ZM85.4826 167.27C86.6726 167.08 87.6626 166.48 88.4326 165.48C89.2026 164.48 89.4026 162.84 89.0326 160.56C88.6626 158.28 87.9626 156.79 86.9126 156.08C85.8726 155.37 84.7526 155.11 83.5526 155.31L80.8926 155.73L82.8126 167.7L85.4626 167.27H85.4826Z" fill="#5B3722"/>
<path d="M120.033 169.01L119.923 175.54L105.623 179.54L105.493 179.09C106.223 178.89 106.643 178.45 106.753 177.77C106.863 177.09 106.823 176.41 106.633 175.73L100.043 152.19C99.8426 151.46 99.5126 150.84 99.0726 150.32C98.6226 149.8 98.0426 149.64 97.3126 149.84L97.1826 149.39L110.333 145.71L112.763 150.43L112.123 150.61C111.883 150.26 111.593 150.03 111.243 149.92C110.893 149.81 110.523 149.75 110.153 149.74C109.783 149.73 109.423 149.76 109.073 149.84C108.723 149.92 108.423 149.99 108.163 150.06L105.153 150.9L107.433 159.04L108.073 158.86C109.313 158.51 110.283 158.22 110.973 157.98C111.663 157.74 112.063 157.15 112.163 156.19L112.803 156.01L114.563 162.29L113.923 162.47C113.323 161.81 112.663 161.53 111.963 161.64C111.253 161.75 110.283 161.97 109.043 162.32L108.403 162.5L111.673 174.17L116.673 172.77C117.383 172.52 118.003 172.06 118.533 171.39C119.053 170.71 119.343 169.97 119.403 169.18L120.043 169L120.033 169.01Z" fill="#5B3722"/>
<path d="M137.553 138.31C137.473 139.01 137.553 139.72 137.773 140.44L145.103 163.69C145.333 164.41 145.673 165.02 146.133 165.53C146.593 166.04 147.183 166.18 147.903 165.95L148.043 166.4L140.553 168.76L123.763 147.87L130.233 168.38C130.463 169.1 130.803 169.71 131.273 170.22C131.733 170.73 132.323 170.87 133.043 170.64L133.183 171.09L125.883 173.39L125.743 172.95C126.463 172.72 126.863 172.27 126.953 171.59C127.043 170.91 126.973 170.21 126.743 169.49L119.393 146.18C119.163 145.46 118.823 144.85 118.363 144.34C117.903 143.83 117.313 143.69 116.593 143.92L116.453 143.47L124.523 140.93L140.293 160.6L134.263 141.48C134.033 140.76 133.693 140.15 133.233 139.64C132.773 139.13 132.183 138.99 131.463 139.22L131.323 138.77L138.623 136.47L138.763 136.92C138.043 137.15 137.643 137.61 137.563 138.31H137.553Z" fill="#5B3722"/>
<path d="M162.712 130.91C162.612 131.59 162.652 132.27 162.852 132.95L169.692 156.42C169.902 157.15 170.232 157.76 170.682 158.28C171.132 158.8 171.722 158.95 172.442 158.74L172.572 159.19L163.682 161.78L163.552 161.33C164.272 161.12 164.682 160.68 164.762 160.01C164.842 159.34 164.802 158.66 164.652 157.96L161.222 146.19L154.832 148.05L158.242 159.75C158.452 160.48 158.782 161.09 159.232 161.61C159.682 162.13 160.272 162.28 160.992 162.07L161.122 162.52L152.232 165.11L152.102 164.66C152.822 164.45 153.232 164.01 153.312 163.34C153.392 162.67 153.352 161.99 153.202 161.29L146.362 137.82C146.152 137.1 145.822 136.48 145.372 135.96C144.922 135.44 144.332 135.29 143.612 135.5L143.482 135.05L152.372 132.46L152.502 132.91C151.772 133.12 151.362 133.57 151.262 134.24C151.162 134.92 151.202 135.6 151.402 136.28L153.822 144.59L160.212 142.73L157.812 134.48C157.602 133.76 157.272 133.14 156.822 132.62C156.372 132.1 155.782 131.95 155.062 132.16L154.932 131.71L163.822 129.12L163.952 129.57C163.222 129.78 162.812 130.23 162.712 130.9V130.91Z" fill="#5B3722"/>
<path d="M178.502 125.15C180.342 124.67 181.992 124.68 183.442 125.17C184.902 125.66 186.192 126.51 187.322 127.7C188.452 128.9 189.422 130.37 190.222 132.11C191.022 133.85 191.682 135.76 192.222 137.82C192.762 139.88 193.102 141.87 193.262 143.78C193.412 145.69 193.292 147.43 192.872 149.01C192.462 150.59 191.732 151.94 190.702 153.08C189.672 154.22 188.232 155.03 186.392 155.51C184.592 155.98 182.972 155.97 181.512 155.47C180.052 154.97 178.782 154.14 177.672 152.96C176.562 151.78 175.612 150.32 174.812 148.57C174.012 146.83 173.352 144.93 172.812 142.86C172.272 140.79 171.932 138.81 171.772 136.9C171.622 134.99 171.732 133.24 172.122 131.65C172.512 130.06 173.212 128.69 174.242 127.55C175.272 126.41 176.682 125.61 178.482 125.14L178.502 125.15ZM187.122 139.12C186.042 134.96 184.902 132.09 183.702 130.5C182.502 128.91 181.072 128.29 179.402 128.63C177.862 129.12 176.962 130.35 176.692 132.32C176.422 134.29 176.822 137.35 177.902 141.51C178.972 145.62 180.112 148.5 181.322 150.13C182.532 151.76 183.922 152.39 185.492 152.03C187.082 151.57 188.022 150.33 188.302 148.31C188.582 146.29 188.192 143.23 187.122 139.11V139.12Z" fill="#5B3722"/>
<path d="M216.203 116.37L216.303 116.83C215.563 116.99 215.123 117.42 214.973 118.1C214.823 118.79 214.833 119.51 214.993 120.24L216.813 128.64L218.863 138.08C219.143 139.38 219.163 140.66 218.913 141.92C218.663 143.18 218.213 144.32 217.553 145.35C216.893 146.38 216.053 147.26 215.033 147.98C214.013 148.7 212.853 149.2 211.553 149.48C210.253 149.76 208.983 149.79 207.733 149.56C206.483 149.33 205.343 148.89 204.313 148.22C203.283 147.56 202.413 146.7 201.683 145.66C200.963 144.61 200.453 143.44 200.173 142.14L196.283 124.24C196.083 123.51 195.773 122.87 195.353 122.33C194.943 121.78 194.383 121.59 193.693 121.74L193.593 121.28L202.643 119.32L202.743 119.78C202.003 119.94 201.563 120.37 201.423 121.05C201.273 121.74 201.283 122.46 201.443 123.19L205.673 142.65C205.923 143.82 206.553 144.73 207.563 145.38C208.563 146.03 209.653 146.22 210.823 145.97C211.953 145.72 212.833 145.1 213.483 144.1C214.123 143.1 214.323 142.01 214.073 140.84L209.833 121.31C209.673 120.57 209.383 119.93 208.973 119.39C208.553 118.84 207.983 118.65 207.243 118.81L207.143 118.35L216.193 116.39L216.203 116.37Z" fill="#5B3722"/>
<path d="M228.813 120.96C228.973 121.92 229.383 122.78 230.073 123.52C230.753 124.27 231.593 124.97 232.573 125.65C233.563 126.32 234.603 126.99 235.693 127.64C236.793 128.3 237.833 128.98 238.823 129.7C239.813 130.42 240.663 131.21 241.363 132.09C242.063 132.97 242.503 133.95 242.683 135.05C242.983 136.89 242.883 138.44 242.383 139.68C241.883 140.93 241.213 141.96 240.353 142.77C239.493 143.58 238.593 144.18 237.643 144.56C236.693 144.94 235.883 145.18 235.233 145.29C233.703 145.54 232.293 145.58 231.003 145.43C229.723 145.28 228.473 144.94 227.263 144.41L227.683 138.2L228.403 138.08C228.533 138.91 228.803 139.59 229.203 140.11C229.603 140.63 230.073 141.04 230.613 141.33C231.153 141.63 231.733 141.8 232.353 141.86C232.973 141.92 233.563 141.9 234.133 141.81C235.273 141.63 236.123 141.06 236.693 140.12C237.263 139.18 237.463 138.18 237.293 137.13C237.123 136.08 236.683 135.17 235.973 134.38C235.263 133.6 234.413 132.87 233.433 132.2C232.443 131.53 231.383 130.88 230.253 130.26C229.113 129.64 228.053 128.97 227.063 128.25C226.073 127.54 225.203 126.72 224.473 125.81C223.743 124.9 223.273 123.83 223.083 122.6C222.803 120.85 222.923 119.41 223.463 118.27C224.003 117.13 224.713 116.24 225.593 115.6C226.473 114.96 227.423 114.5 228.433 114.2C229.443 113.9 230.273 113.7 230.933 113.6C231.543 113.5 232.123 113.43 232.653 113.39C233.183 113.35 233.653 113.32 234.053 113.3C234.553 113.31 235.003 113.3 235.403 113.28L237.073 118.2L236.413 118.31C235.983 117.89 235.443 117.52 234.783 117.22C234.123 116.92 233.183 116.87 231.963 117.07C230.693 117.28 229.813 117.73 229.313 118.44C228.823 119.15 228.653 119.99 228.803 120.95L228.813 120.96Z" fill="#5B3722"/>
<path d="M263.952 135.14L262.682 141.55L247.892 142.94L247.852 142.48C248.602 142.41 249.092 142.05 249.322 141.41C249.552 140.77 249.632 140.09 249.562 139.38L247.272 115.04C247.202 114.29 246.992 113.62 246.652 113.03C246.302 112.44 245.762 112.18 245.002 112.25L244.962 111.79L258.552 110.51L260.102 115.58L259.442 115.64C259.272 115.25 259.022 114.98 258.692 114.81C258.362 114.64 258.022 114.52 257.652 114.44C257.282 114.36 256.932 114.33 256.572 114.34C256.212 114.35 255.902 114.37 255.642 114.39L252.522 114.68L253.312 123.1L253.972 123.04C255.252 122.92 256.262 122.8 256.982 122.69C257.712 122.58 258.202 122.06 258.472 121.15L259.132 121.09L259.742 127.59L259.082 127.65C258.612 126.89 258.012 126.5 257.302 126.48C256.582 126.46 255.592 126.51 254.302 126.63L253.642 126.69L254.772 138.76L259.942 138.27C260.692 138.16 261.382 137.81 262.022 137.24C262.662 136.67 263.072 135.99 263.272 135.22L263.932 135.16L263.952 135.14Z" fill="#5B3722"/>
</svg>
