<svg width="157" height="160" viewBox="0 0 157 160" fill="none" xmlns="http://www.w3.org/2000/svg">
<path d="M148.178 84.2099C149.034 74.8513 158.708 73.9144 156.735 61.356C154.983 50.226 144.31 51.4496 138.991 44.8863C133.196 37.7394 137.152 33.2649 135.251 26.164C133.416 19.3089 126.397 14.5784 119.377 15.0954C117.051 15.2644 114.601 16.4112 112.178 16.5852C96.601 17.7013 98.3278 2.04561 86.5838 0.263994C71.6732 -1.99886 72.1087 10.9793 60.8412 12.766C57.6183 13.278 54.8616 12.51 52.1972 11.6039C49.9939 10.7028 47.8316 9.70963 45.0493 9.61748C45.0083 9.61748 44.9673 9.61748 44.9212 9.61748C43.0561 9.44853 41.0783 9.66868 38.8801 10.6004C35.1857 11.9674 32.1216 14.691 30.2668 18.4641C27.879 23.3226 29.8671 29.1385 26.2138 33.8946C20.1983 41.7173 13.9317 38.7787 7.91625 44.0621C3.81712 47.6611 1.79317 54.1784 3.34059 59.4055C4.93926 64.8169 8.99228 67.2231 8.8693 73.8478C8.67459 84.5068 -3.18728 87.3635 0.829874 99.7273C3.45332 110.612 15.2178 108.671 19.8396 116.975C23.6108 123.754 20.4135 128.034 22.3401 134.387C23.7953 139.184 28.9909 143.955 34.0329 144.652C41.2063 145.645 44.9366 141.421 52.6276 144.447C59.7139 147.237 59.509 152.864 64.4279 156.647C69.4699 160.528 75.967 161.091 81.6033 158.07C86.3737 155.515 88.1568 149.633 93.9007 147.898C103.354 145.046 106.731 151.087 114.699 150.299C120.13 149.766 125.577 145.65 127.37 140.5C129.23 135.175 127.345 130.854 131.305 125.545C137.685 117.001 149.429 121.701 153.379 109.316C156.961 98.084 147.215 94.6538 148.168 84.1996L148.178 84.2099ZM119.782 58.9038C104.338 74.6977 88.5001 90.0974 72.7389 105.569C71.4426 106.838 66.5339 113.069 65.1504 113.064C55.6712 104.729 46.981 95.089 37.8194 86.2424C35.9902 83.6928 35.7904 82.5614 37.5991 79.8992C39.3976 77.2524 43.6607 72.9621 47.0374 73.9707C50.8803 75.1175 63.9002 91.0855 65.1504 91.0855L108.576 47.7021C111.696 43.7139 119.623 51.4701 120.704 53.9582C121.555 55.9037 120.868 57.2552 119.777 58.8986L119.782 58.9038Z" fill="#5B3722"/>
</svg>
