<svg width="191" height="20" viewBox="0 0 191 20" fill="none" xmlns="http://www.w3.org/2000/svg">
<g clip-path="url(#clip0_4304_5453)">
<path d="M50.2104 1.12419C53.555 3.81975 47.4497 8.45233 46.2486 3.67075C51.0028 5.70936 50.5107 1.78115 47.483 1.58474C41.9782 1.22578 42.145 8.73679 50.0519 9.71884C78.6686 8.13401 111.122 11.9742 139.288 9.79334C150.523 8.92642 148.121 0.318229 142.683 1.68633C140.289 2.28911 140.364 5.58745 144.668 3.67075C143.475 8.4591 137.37 3.81975 140.706 1.12419C146.086 -3.21039 152.408 6.14959 145.502 9.7527C157.579 11.3782 162.784 6.96232 170.824 1.00228C176.162 6.48145 181.909 7.51091 189.373 9.68497C194.053 11.0463 187.222 11.026 186.146 11.2698C179.373 12.8072 175.436 15.6789 170.215 19.1872C163.226 12.3534 156.537 10.0439 145.494 10.4368C149.13 13.3626 150.289 20.2844 143.4 19.9864C136.511 19.6884 140.689 11.2901 144.659 16.5255L141.332 15.855C139.73 19.4378 145.785 20.237 146.803 17.2637C148.454 12.4483 143.2 10.9447 138.296 10.518C110.922 11.8319 80.3367 8.4591 53.3465 10.4435C48.5756 10.7957 42.9874 11.9064 43.9132 16.7219C44.5972 20.2708 51.1028 19.7222 49.5765 15.855L46.2486 16.5255C50.2855 10.965 54.0971 19.7019 47.508 19.9864C40.919 20.2708 41.778 13.3626 45.4145 10.4368C40.4269 10.6941 35.214 10.4232 30.4932 12.1977C26.2979 13.7757 24.1793 17.5346 20.0924 19.1872C16.0139 15.6179 11.8186 13.1391 6.06354 11.5746C5.08769 11.3104 -1.65152 11.3037 0.375245 9.76625C0.750572 9.48179 7.90682 8.24915 10.2755 7.30096C14.3541 5.66872 16.8897 3.52175 20.0924 1.00228C28.1328 6.96232 33.3457 11.3782 45.4145 9.7527C38.5085 6.14959 44.8307 -3.21039 50.2104 1.12419ZM17.0648 11.1005C15.6135 9.42084 28.6332 5.74999 20.718 2.34329C15.8554 5.08626 11.7602 9.21088 5.38795 9.76625L14.0038 13.2542C15.1631 13.7351 20.3677 17.8936 20.8097 17.8733C21.0433 17.8665 23.5621 15.4689 23.7039 14.8594C22.7197 12.9359 17.29 11.3714 17.0565 11.1005H17.0648ZM185.537 9.76625C179.131 9.21765 175.044 5.03885 170.14 2.30942C162.517 6.20377 175.536 9.11606 173.86 11.1005C172.442 12.7801 162.917 13.2136 170.107 17.8733L176.913 13.2542L185.528 9.76625H185.537ZM32.0696 9.76625C25.6056 7.44996 23.5955 3.84007 19.567 11.1005C21.7773 10.9718 23.1034 13.8706 24.8383 13.7283C25.8391 13.647 31.1771 10.7957 32.0696 9.76625ZM171.358 11.1005C167.621 4.14485 165.102 7.11809 158.855 9.76625C159.748 10.7957 165.086 13.647 166.087 13.7283C167.821 13.8638 169.148 10.965 171.358 11.1005Z" fill="#5B3722"/>
</g>
<defs>
<clipPath id="clip0_4304_5453">
<rect width="191" height="20" fill="white"/>
</clipPath>
</defs>
</svg>
