<svg width="80" height="80" viewBox="0 0 80 80" fill="none" xmlns="http://www.w3.org/2000/svg">
<path d="M12.2006 12.2925H25.17C25.17 12.2925 25.4284 8.81623 27.1762 7.62655C29.3357 6.1586 39.0598 4.85601 45.8977 5.81582C53.4339 6.87241 55.1979 9.72765 54.5843 12.103L67.9372 12.2966V24.4676L71.9657 26.48L74.5854 34.3117L73.4511 52.7901L67.9332 56.2784L67.9695 67.7437H54.9799L53.9021 72.4178L40.9852 74.5027L29.6143 72.8856L25.7634 70.9458L25.3315 67.4574L14.788 67.4211L11.4135 67.1711L11.5871 55.1291L7.37694 52.3989L5.04785 41.0062L7.13071 27.4519L11.8373 24.0401L12.1885 12.3006L12.2006 12.2925Z" fill="#F8F3E8"/>
<path d="M73.5883 6.89259V21.0074C73.5883 21.1768 75.3281 21.9632 76.1758 23.0601C81.4112 29.8433 81.2659 50.6285 75.7721 57.2665C74.9648 58.2424 73.5883 58.7788 73.5883 58.9159V73.0308H59.6623C59.4483 73.0308 57.6682 75.6319 56.8367 76.257C49.2278 81.9635 27.9633 81.0843 21.1012 74.0349C20.7661 73.6922 20.7661 73.0348 20.7096 73.0348H6.5817V59.5249C6.5817 59.1902 4.93883 58.3473 4.56343 57.9117C-1.61652 50.7293 -1.4712 29.1336 4.70471 21.9632C5.00745 21.6124 6.5817 20.7977 6.5817 20.4106V6.89259H20.1041C20.4392 6.89259 21.8116 4.75923 22.3484 4.29545C29.0289 -1.5118 50.3015 -1.2779 57.2403 4.07365C57.9831 4.64631 59.4766 6.89662 59.6623 6.89662H73.5883V6.89259ZM58.2495 8.10243C58.1687 7.01761 57.4341 6.15055 56.647 5.469C50.685 0.302967 26.3446 -0.370514 22.1547 6.94905C21.9085 7.38056 21.9811 8.10647 21.9206 8.10647H7.79267V21.818C7.79267 22.0156 5.63312 23.0279 4.78948 24.2619C0.490559 30.5773 0.24433 49.7735 4.96709 55.8913C5.54028 56.6333 7.79267 58.1255 7.79267 58.311V71.216L8.39815 71.8209H21.9206C22.0336 71.8209 22.2758 73.0993 22.9176 73.8535C28.1853 80.0116 52.8486 80.0559 57.7974 73.1679C58.1203 72.7202 58.1809 71.8209 58.2495 71.8209H71.9737V58.1094C71.9737 57.9964 73.2654 57.7988 74.0122 57.1173C79.9903 51.673 80.2365 27.226 73.3219 22.2657C72.8739 21.9431 71.9737 21.8826 71.9737 21.814V8.10243H58.2495Z" fill="#5B3722"/>
<path d="M58.2495 8.10247H71.9737V21.814C71.9737 21.8866 72.8739 21.9431 73.3219 22.2657C80.2365 27.2261 79.9903 51.673 74.0122 57.1173C73.2654 57.7989 71.9737 57.9965 71.9737 58.1094V71.821H58.2495C58.1768 71.821 58.1203 72.7203 57.7974 73.1679C52.8486 80.056 28.1853 80.0116 22.9176 73.8535C22.2758 73.1034 22.0336 71.821 21.9206 71.821H8.39816L7.79268 71.216V58.311C7.79268 58.1255 5.54029 56.6334 4.9671 55.8913C0.244342 49.7736 0.490571 30.5774 4.78949 24.262C5.62909 23.0239 7.79268 22.0117 7.79268 21.8181V8.10247H21.9206C21.9811 8.10247 21.9085 7.37656 22.1547 6.94505C26.3446 -0.370477 50.685 0.303003 56.647 5.46904C57.4341 6.15059 58.1688 7.01764 58.2495 8.10247ZM23.5352 10.1189H9.81095V23.4272H8.60403V23.8264H10.2186V10.5222H23.9429C23.5433 7.01361 26.5263 6.01347 29.2873 5.17465C30.1915 4.90041 33.1301 4.06965 33.8324 4.06965H45.9421C46.2731 4.06965 48.2671 5.2311 48.5658 4.06965C42.2042 3.19453 35.7619 2.83158 29.5093 4.58585C26.7766 5.35209 23.0185 6.56193 23.5392 10.1148L23.5352 10.1189ZM55.0202 11.732C55.2463 8.72756 53.9788 7.67499 51.3833 6.69502C45.712 4.55762 33.6992 4.45277 28.1086 6.82003C25.3597 7.98149 24.7906 8.50978 25.1539 11.732H11.4256V24.637C8.72108 25.0443 7.91781 25.4799 6.90868 27.9883C4.51904 33.9327 4.26878 47.124 7.18316 52.8667C8.4022 55.2703 9.56069 54.3185 11.4256 55.484V68.1874H25.1498C24.391 72.0992 26.8048 72.7727 29.9896 73.6357C35.7902 75.2045 46.4143 75.3174 52.0009 73.0348C54.7942 71.8936 54.9758 71.3975 55.0202 68.1874H68.3408L68.353 55.3187C70.5892 54.8146 71.4167 54.9961 72.5994 52.8829C75.647 47.4386 75.5824 32.7672 72.8456 27.1817C71.453 24.3426 70.3551 25.7702 68.4054 23.9474L68.6436 12.3127L68.135 11.7239H55.0162L55.0202 11.732ZM56.6349 10.1189L55.4279 7.29591L56.2312 10.5222H69.5518V23.2255L72.3734 24.2297V23.8345L70.3591 23.4272V10.7238L69.7536 10.1189H56.6349ZM5.36672 52.0602C4.07099 46.0432 3.34844 40.3247 4.20823 34.1625C4.53923 31.7872 5.508 29.4522 5.57258 27.0527C3.19102 33.1664 2.97708 40.0787 3.81265 46.5634L5.36672 52.0602ZM76.4139 45.406C76.7449 41.8047 76.1677 37.7679 76.4139 34.1141L75.6107 31.4928C76.2767 38.7599 76.531 46.0916 73.9839 53.0603C74.4845 53.6289 75.0254 51.5399 75.0899 51.3383C75.5784 49.7816 76.2686 46.9667 76.4139 45.402V45.406ZM70.3591 56.4963C71.6145 56.589 73.883 55.2824 73.3865 54.0766C71.7558 56.5043 69.5518 55.0807 69.5518 58.311V69.4013H56.2312L55.8316 72.2242H56.2272L56.6349 69.8046H69.7536L70.3591 69.1996V56.4963ZM10.2146 56.093C8.71705 56.1373 7.66351 55.3671 6.58575 54.4799C6.59383 56.0446 8.57981 56.4156 9.81095 56.4963V69.8046H23.5352C23.1114 72.4662 25.0449 73.5148 27.1721 74.4383C32.2662 76.6483 40.412 76.8862 45.8856 76.2087C47.8715 75.9627 49.8171 75.3537 51.787 75.0432C51.8839 74.3173 50.911 74.6762 50.4791 74.7448C48.6062 75.0432 46.7252 75.7288 44.7432 75.8699C39.754 76.2329 32.5044 76.0151 27.8705 74.1439C25.5414 73.2042 23.5554 72.3573 23.9389 69.4013H10.2146V56.093Z" fill="#F8F3E8"/>
<path d="M70.3592 56.4963V69.1997L69.7537 69.8046H56.6349L56.2272 72.2203H55.8317L56.2313 69.4014H69.5519V58.3111C69.5519 55.0808 71.7558 56.5044 73.3866 54.0767C73.8791 55.2784 71.6105 56.5891 70.3592 56.4963Z" fill="#5B3722"/>
<path d="M56.6349 10.1189H69.7537L70.3592 10.7238V23.4272L72.3734 23.8385V24.2297L69.5518 23.2255V10.5222H56.2312L55.428 7.2959L56.6349 10.1189Z" fill="#5B3722"/>
<path d="M10.2145 56.093V69.4013H23.9388C23.5553 72.3573 25.5413 73.2042 27.8704 74.1439C32.5043 76.0151 39.7499 76.2329 44.7431 75.8699C46.7291 75.7247 48.6102 75.0392 50.4791 74.7448C50.911 74.6762 51.8838 74.3173 51.7869 75.0432C49.8171 75.3537 47.8715 75.9627 45.8855 76.2087C40.4119 76.8862 32.2621 76.6483 27.1721 74.4383C25.0448 73.5148 23.1073 72.4662 23.5351 69.8046H9.81089V56.4963C8.57975 56.4156 6.59377 56.0446 6.58569 54.4799C7.66345 55.3671 8.71699 56.1373 10.2145 56.093Z" fill="#5B3722"/>
<path d="M23.5352 10.1188C23.0145 6.56189 26.7725 5.35205 29.5052 4.58984C35.7578 2.8396 42.2002 3.20256 48.5618 4.07364C48.2631 5.23106 46.273 4.07364 45.938 4.07364H33.8284C33.1301 4.07364 30.1874 4.9044 29.2832 5.17864C26.5182 6.01746 23.5392 7.01357 23.9388 10.5262H10.2146V23.8344H8.59998V23.4352H9.8069V10.1188H23.5312H23.5352Z" fill="#5B3722"/>
<path d="M5.36666 52.0601L3.81259 46.5634C2.98106 40.0826 3.19096 33.1704 5.57253 27.0526C5.5039 29.4481 4.53917 31.7831 4.20817 34.1625C3.34839 40.3246 4.07497 46.0431 5.36666 52.0601Z" fill="#5B3722"/>
<path d="M76.4139 45.406C76.2686 46.9707 75.5783 49.7816 75.0899 51.3423C75.0294 51.544 74.4844 53.633 73.9839 53.0643C76.5269 46.0956 76.2726 38.764 75.6106 31.4968L76.4139 34.1182C76.1677 37.7719 76.7449 41.8087 76.4139 45.41V45.406Z" fill="#5B3722"/>
<path d="M55.0202 11.7319H68.139L68.6476 12.3207L68.4095 23.9554C70.3591 25.7823 71.457 24.3546 72.8497 27.1897C75.5864 32.7711 75.651 47.4465 72.6034 52.8908C71.4207 55.004 70.5892 54.8226 68.357 55.3267L68.3449 68.1954H55.0243C54.9799 71.4055 54.7982 71.9015 52.0049 73.0428C46.4224 75.3254 35.7982 75.2125 29.9937 73.6437C26.8088 72.7807 24.395 72.1072 25.1538 68.1954H11.4256V55.492C9.56067 54.3265 8.40218 55.2783 7.18314 52.8747C4.26876 47.132 4.51903 33.9406 6.90866 27.9963C7.9178 25.4879 8.71703 25.0483 11.4256 24.645V11.7319H25.1498C24.7865 8.5097 25.3557 7.98543 28.1046 6.81995C33.6952 4.45269 45.712 4.56157 51.3793 6.69493C53.9748 7.67491 55.2422 8.72747 55.0162 11.7319H55.0202ZM25.3516 12.9418H12.6365V24.8386C11.4336 26.4194 9.74635 25.4798 8.50713 27.1655C5.31826 31.5169 5.63715 46.8537 7.8855 51.7657C9.2216 54.6854 10.7434 53.1893 12.6365 55.0847V66.9815H25.3516C26.3446 67.8486 25.9127 69.5988 26.4496 70.724C27.6242 73.184 39.1929 73.9623 41.9216 73.8575C43.8996 73.7808 53.1594 72.6234 53.7487 70.7522C53.9586 70.0827 53.5469 66.9815 54.8184 66.9815H67.5335V54.4798C70.5286 53.8224 71.0574 54.137 72.1715 51.2495C74.0485 46.3899 74.2746 38.5461 73.4794 33.4204C72.8577 29.4199 72.3249 25.6008 67.5335 25.4475V12.9458H54.8184C53.3451 12.0989 54.217 9.62679 53.5509 8.87265C52.2269 7.37245 44.1135 6.1747 41.9216 6.06985C39.0759 5.93273 28.0198 6.457 26.5828 8.93315C26.0338 9.88086 26.1589 12.6837 25.3516 12.9458V12.9418Z" fill="#5B3722"/>
</svg>
