<svg width="18" height="24" viewBox="0 0 18 24" fill="none" xmlns="http://www.w3.org/2000/svg">
<path d="M15 13.5L15.7929 12.7071C16.1834 12.3166 16.1834 11.6834 15.7929 11.2929L15 10.5" stroke="#B71931" stroke-width="1.5" stroke-linecap="round" stroke-linejoin="round"/>
<path d="M15.75 12H9.75M4.5 18C2.84315 18 1.5 16.6569 1.5 15V9C1.5 7.34315 2.84315 6 4.5 6M4.5 18C6.15685 18 7.5 16.6569 7.5 15V9C7.5 7.34315 6.15685 6 4.5 6M4.5 18H10.5C12.1569 18 13.5 16.6569 13.5 15M4.5 6H10.5C12.1569 6 13.5 7.34315 13.5 9" stroke="#B71931" stroke-width="1.5" stroke-linecap="round"/>
</svg>
