<svg width="213" height="65" viewBox="0 0 213 65" fill="none" xmlns="http://www.w3.org/2000/svg">
<g filter="url(#filter0_ddd_4295_99087)">
<path d="M28.1041 51.6543C28.1041 51.6543 27.3526 53.4319 24.3138 54.23C21.2751 55.0281 16.8803 55.8988 14.3072 52.7426C11.734 49.5865 10.0431 46.8657 10.8028 42.1314C11.5625 37.3972 11.9464 35.8464 10.9744 34.5857C10.0023 33.3251 8.38489 32.6358 9.2426 30.6043C10.1003 28.5727 11.1459 29.2439 11.2276 27.4663C11.3093 25.6887 10.7538 20.9544 10.3862 19.6847C10.0186 18.415 12.6571 10.5247 15.655 9.07356C18.6529 7.62246 21.2506 6.99667 24.8203 8.65637C28.39 10.3161 28.3655 11.5132 28.3655 11.5132L33.6016 7.94895C33.6016 7.94895 38.7152 10.2979 41.754 10.434C44.7927 10.57 81.2822 10.5791 81.2822 10.5791L146.264 10.5156C146.264 10.5156 174.332 10.9056 175.124 10.0077C175.916 9.10984 179.208 8.22104 179.208 8.22104C179.208 8.22104 184.371 10.6154 184.91 10.9872C185.449 11.359 189.615 8.22104 189.615 8.22104C189.615 8.22104 193.879 6.61576 197.408 8.98286C200.937 11.35 202.914 14.751 202.963 18.0704C203.012 21.3898 201.623 22.9225 202.007 24.2648C202.391 25.607 202.113 28.2916 202.113 28.2916C202.113 28.2916 203.682 28.9174 203.837 30.3231C203.992 31.7289 202.832 33.7241 202.497 34.5494C202.162 35.3748 202.244 38.0049 202.604 40.4627C202.963 42.9205 202.514 49.1784 200.651 51.0285C198.789 52.8787 199.173 53.5951 196.346 54.3388C193.52 55.0825 189.068 55.0553 187.859 54.0577C186.65 53.06 185.31 51.4004 185.31 51.4004L179.601 55.146L173.842 52.6066L165.967 52.525L41.5497 52.0715L33.6751 55.1551L28.0878 51.6634L28.1041 51.6543Z" fill="#FFF5D1"/>
<path d="M203.328 28.8992C203.018 28.4458 202.315 28.1827 202.283 28.1193C202.111 27.7928 202.536 27.0672 202.495 26.5593C202.446 25.7794 201.964 24.9722 201.997 24.1741C202.029 23.3669 202.65 22.1425 202.756 21.1449C203.728 11.9758 196.597 4.74747 188.51 7.70408C187.448 8.09407 184.663 10.2889 184.401 10.3161C183.446 10.4158 180.252 7.34131 179.051 7.34131C178.528 7.34131 176.184 8.82869 175.301 9.11891C170.996 10.5428 166.014 9.654 161.611 9.69935C125.799 10.1165 89.9222 9.92608 54.0454 9.76283C48.9481 9.73562 41.8495 10.697 37.0709 9.19146C36.0988 8.8831 33.6155 7.34131 33.1254 7.34131C32.1288 7.34131 28.7143 10.4158 27.7749 10.3161C27.342 10.2707 25.5612 8.50219 24.6708 8.07593C16.5021 4.2033 8.5213 11.3228 9.40352 20.8365C9.50971 21.9702 10.1632 23.2943 10.1959 24.1559C10.2122 24.6275 9.9835 27.2214 9.90181 27.7202C9.70576 28.9083 7.87598 29.3527 8.00667 31.6019C8.08836 33.0077 9.75477 34.3046 9.90181 35.1752C10.5635 39.1839 8.90523 42.2584 9.70576 46.4122C11.5355 55.9532 21.3216 58.6286 27.7586 52.5794C28.7143 52.4887 31.8511 55.4634 32.8558 55.5813C33.4521 55.6448 35.625 54.2663 36.4745 53.9488C41.2206 52.2075 47.053 53.178 51.9215 53.1598C89.0074 53.0691 126.167 52.7517 163.481 53.1054C168.48 53.1507 172.116 52.4252 177.033 54.5384C177.523 54.747 178.936 55.7899 179.051 55.7899C179.484 55.7899 183.601 52.7789 184.418 52.3889C192.112 60.0525 203.377 54.2028 202.805 42.6031C202.666 39.855 201.752 38.2951 202.266 35.1752C202.397 34.3862 203.197 34.0144 203.565 33.3341C204.333 31.8921 204.259 30.2415 203.344 28.8992H203.328ZM200.951 34.2955C200.894 34.5767 201.261 35.8736 201.188 36.6626C201.123 37.3791 200.657 37.9777 200.657 38.4402C200.657 39.0025 201.196 39.583 201.31 40.2087C203.41 51.4094 193.354 59.2635 185.471 51.6906C185.202 51.4276 185.12 50.8018 184.924 50.7836C183.903 50.6748 180.431 53.9942 179.296 54.0758C178.512 54.1302 176.739 52.9059 175.816 52.6066C174.158 52.0624 172.45 51.9082 170.743 51.6815H40.8775C39.8727 51.9717 38.7945 51.881 37.7897 52.1259C36.6379 52.4071 33.8197 54.0577 33.109 54.0577C32.0063 54.0577 28.9103 51.355 27.7014 50.8471C25.8226 52.4252 24.4666 53.8219 22.0486 54.3026C14.6396 55.7718 9.90181 49.396 10.7432 41.4603C10.8412 40.508 11.4865 39.1748 11.4865 38.4493C11.4865 37.8054 10.9882 37.1342 10.9719 36.3542C10.9474 35.6015 11.4048 34.6673 11.2741 34.0234C11.2251 33.7695 10.4328 33.6062 10.0652 33.2162C7.44304 30.4047 11.462 28.9264 11.4947 28.6271C11.5029 28.5092 10.9882 27.4572 10.9719 26.8223C10.9474 25.8519 11.511 25.1082 11.4947 24.4462C11.4865 23.8113 10.8004 21.9702 10.7187 20.8728C10.0243 11.8307 16.9841 5.28256 24.6545 9.55424C25.4877 10.0168 27.3338 11.9939 27.5135 12.0302C28.2813 12.1934 31.9001 8.86496 33.1009 8.83776C33.9096 8.81962 36.0824 10.2526 37.1444 10.5791C38.1818 10.8965 39.2764 11.0053 40.3383 11.2049H171.274C172.279 11.0416 173.365 10.9963 174.354 10.7605C175.555 10.4793 178.618 8.73799 179.296 8.81055C180.154 8.91031 183.192 11.5314 184.262 11.9576C184.499 12.0483 184.793 12.2025 185.038 12.0483C185.112 11.9939 185.218 11.4497 185.471 11.1958C192.276 4.63863 201.743 9.8626 201.727 19.6847C201.727 21.2719 200.812 23.0223 200.714 24.1922C200.657 24.8271 201.155 25.9517 201.196 26.8314C201.229 27.43 200.894 28.3188 200.951 28.5909C201.033 28.999 202.895 29.4706 202.985 31.348C203.059 32.8807 201.033 33.9418 200.951 34.3046V34.2955Z" fill="#5B3722"/>
<path d="M17.1474 15.9572C18.9609 16.0842 21.387 14.3157 22.7838 16.3925C24.6054 19.0861 20.9214 21.5258 20.3986 19.3401C20.1208 18.1883 21.3625 18.5238 21.4523 18.1701C22.0976 15.7033 18.3891 15.9481 17.997 18.8685C17.4007 23.3578 23.7722 25.1626 25.9288 21.0996C27.8239 17.5262 26.2228 12.6741 22.7021 11.4316C17.2536 9.50888 13.3898 13.2817 12.8589 19.2403C13.496 18.9048 14.2312 18.6599 14.7295 19.3945C15.0072 20.0566 13.7084 19.6757 13.447 20.637C12.5158 24.0108 16.5511 27.82 19.2223 28.4004C20.954 28.7813 20.4966 27.9469 21.1011 27.566C22.5796 26.6319 24.6871 26.1693 26.2473 27.1488C26.7375 27.4572 27.0397 28.1465 27.4726 28.473C29.0247 29.6338 31.2711 28.5455 32.9702 29.0625C33.1009 28.2825 32.864 28.5999 32.5862 28.4457C29.4413 26.6228 26.3699 22.9769 28.4039 18.7869C30.6094 14.2522 35.2411 19.8752 32.0961 21.3988C29.8497 22.4872 29.7272 18.5601 32.1615 19.8389C32.4474 17.9434 30.4624 17.5353 29.3678 18.669C28.1425 19.9477 28.412 24.2103 30.0131 25.1989C29.8089 24.5096 30.6339 23.5574 31.0914 24.0108C31.1812 24.1015 30.4379 25.2715 31.3609 26.5502C32.7251 28.4548 36.5399 29.5431 38.533 28.5455C40.2158 27.7021 38.3288 26.26 39.8237 26.2238C40.8611 26.2056 40.7467 27.8018 40.3383 28.4639C40.1831 28.7178 38.9333 29.4252 38.6147 29.525C37.4874 29.8878 28.9348 29.9059 27.7504 29.661C26.4516 29.389 25.9614 26.7135 23.2413 27.3484C21.8444 27.6749 20.7988 29.5069 20.5048 29.5522C20.1453 29.6066 17.5722 28.6543 17.0821 28.4004C8.36609 23.8476 12.091 7.43199 22.2528 10.434C29.9396 12.7104 28.5672 25.1808 21.3788 24.2376C17.0086 23.6571 17.4905 19.6757 17.1474 15.9572Z" fill="#5B3722"/>
<path d="M185.022 29.5885C184.548 29.8969 175.056 29.7789 174.011 29.5885C171.176 29.0625 170.972 25.8428 172.867 26.3961C173.553 26.5956 172.769 27.6295 173.12 28.1918C174.231 29.9694 181.036 28.2734 181.33 25.6161C181.42 24.8089 180.497 22.6232 182.106 24.7092C182.866 25.6977 183.699 21.9883 183.723 21.4351C183.87 17.9706 180.17 16.7735 179.982 19.3854C179.917 20.247 180.374 19.4943 180.93 19.5124C182.653 19.585 181.82 21.8977 180.513 21.4986C178.357 20.8365 178.855 17.0546 181.444 17.1362C184.034 17.2179 184.687 20.4738 184.197 22.8771C183.544 26.0605 181.363 27.3302 179.173 29.0625C180.595 28.6725 182.751 29.2983 184.115 28.7722C185.128 28.3823 185.831 26.9402 187.097 26.6954C187.767 26.5684 189.27 26.5865 189.915 26.8133C190.732 27.0944 191.394 28.6181 192.178 28.6453C194.637 28.7541 199.628 24.0562 198.909 21.0089C198.697 20.1201 195.723 18.3334 199.293 19.2313C199.015 14.6694 196.565 11.0144 192.186 10.8693C187.26 10.7151 183.715 16.4107 186.362 21.2175C188.657 25.3894 195.184 23.0767 194.065 18.3243C193.493 15.8847 190.528 15.9844 190.691 17.5897C190.781 18.5148 191.631 18.2064 191.753 18.3606C192.807 19.6938 189.066 21.4623 189.074 17.889C189.082 14.3157 193.395 15.4765 195.266 16.4016C194.359 17.1 194.98 18.016 194.914 18.9501C194.694 22.1153 193.493 23.8204 190.52 24.1741C183.952 24.954 182.539 13.835 188.919 10.8421C198.77 6.2167 204.333 22.1607 195.788 28.0014C195.078 28.482 192.317 29.652 191.639 29.5431C191.206 29.4797 190.43 27.9741 189.654 27.7021C188.682 27.3756 187.04 27.4209 186.166 28.0286C185.594 28.4276 185.137 29.5159 185.022 29.5885Z" fill="#5B3722"/>
<path d="M40.4608 36.4721C40.1912 36.6444 39.5132 36.4358 39.1456 36.4993C39.1211 35.8463 39.554 35.4201 39.1783 34.8487C37.7569 32.7174 31.5977 34.6038 30.9361 37.0888C30.7645 37.7237 31.3364 39.4197 30.5603 39.0388C30.0375 38.7758 30.0702 37.6058 29.8905 37.6965C27.6441 39.4469 28.6325 46.7749 31.7203 44.5711C31.9898 44.3806 32.5617 43.0112 31.8837 43.1925C29.7353 43.773 30.062 40.898 31.8428 41.4603C33.9667 42.1314 33.207 45.8317 30.7155 45.7229C27.5297 45.5778 27.399 40.7982 28.5345 38.2769C29.5556 36.0096 31.3445 35.3657 32.9783 33.8239C31.4834 34.2592 29.4902 33.4157 28.0689 33.8783C27.5788 34.0415 26.9498 35.148 26.3616 35.5561C24.8749 36.581 22.8899 36.4903 21.4604 35.4382C20.8151 34.9666 20.6844 34.1141 19.8267 34.232C17.1147 34.5948 12.3605 38.8937 13.4388 42.2584C13.6348 42.866 14.7784 42.8388 14.468 43.9453L12.8588 43.8002C13.3326 49.5955 17.8417 53.713 23.0533 51.2371C28.6815 48.5616 27.6604 38.3767 21.1663 39.6101C16.6736 40.4627 17.5068 46.9745 20.7742 46.3396C21.5339 46.1854 21.6973 44.9429 21.4114 44.5802C21.3052 44.4532 19.5734 44.3625 20.6435 43.2016C22.6939 40.9796 25.0546 46.8838 21.0275 47.5096C16.6817 48.1807 15.9792 40.5352 20.1044 39.0297C28.2894 36.0459 30.2581 49.9311 22.6694 52.3073C11.658 55.7446 7.87589 38.0502 18.2338 33.9871C18.6259 33.8329 20.2596 33.3069 20.5128 33.3432C21.0601 33.4248 22.0567 35.7012 24.2378 35.5924C25.8878 35.5108 26.2391 34.1957 27.203 33.5246C28.0689 32.9169 36.7277 33.0348 38.1899 33.2616C39.1946 33.4157 40.5016 34.1413 40.6568 35.3203C40.6895 35.5289 40.5588 36.4177 40.4608 36.4721Z" fill="#5B3722"/>
<path d="M179.173 33.8239C180.301 34.9939 181.918 35.5743 182.882 36.9891C184.034 38.6851 184.508 40.4355 184.246 42.5849C183.723 46.8838 178.708 46.4485 179.182 42.9296C179.492 40.635 182.367 41.0975 181.836 42.8751C181.42 43.6914 180.578 43.3649 179.982 43.0565C179.664 45.1606 181.885 45.3964 182.939 44.1086C184.802 41.8322 182.523 37.234 182.13 37.6965C182.335 38.3858 181.518 39.3381 181.052 38.8846C180.987 38.8211 181.354 37.7509 181.322 37.2793C181.101 34.4678 173.472 32.4998 173.006 35.1662C172.859 36.0096 173.406 36.9528 172.099 36.4631C170.939 36.0368 171.993 34.0688 172.933 33.5881C174.836 32.6086 180.407 33.2072 182.784 33.2344C183.217 33.2344 183.65 32.9351 184.124 32.9442C185.104 32.9623 186.182 35.6015 188.151 35.6196C190.119 35.6378 191.173 33.2979 191.851 33.2888C192.529 33.2797 194.767 34.2592 195.445 34.6583C204.088 39.7825 199.685 56.1981 189.098 52.1259C181.959 49.3779 184.058 36.0187 192.243 39.1023C197.185 40.9706 194.547 49.913 190.185 47.0471C187.481 45.2695 190.144 41.2427 191.533 43.1744C192.619 44.689 190.887 44.4986 190.724 45.0155C190.095 46.9836 193.264 46.5754 193.918 45.206C195.396 42.1133 192.341 39.1204 189.523 39.5013C184.581 40.1725 184.344 47.7454 187.889 50.5025C192.693 54.2391 199.236 50.439 199.301 44.0995C199.309 43.1382 198.108 44.4169 197.684 43.9453C197.136 43.3468 198.313 42.857 198.492 42.6212C199.807 40.9524 197.635 37.5242 196.344 36.3452C195.715 35.7738 192.292 33.8783 191.81 34.1595C191.761 34.1867 191.688 34.6583 191.492 34.8306C189 36.9982 187.081 36.971 184.785 34.5676C184.565 34.3409 184.565 33.8239 184.532 33.8239H179.165H179.173Z" fill="#5B3722"/>
<path d="M199.562 25.7884C200.436 27.2304 197.904 29.661 197.969 30.0691C198.182 31.3479 199.521 30.0873 200.436 30.3049C200.632 30.3503 201.956 31.2028 201.972 31.3026C202.095 31.8286 200.673 32.4453 200.371 32.5269C199.17 32.8353 198.827 31.7198 197.675 32.6448C198.778 34.105 199.946 34.894 199.554 37.107L195.878 33.5971C195.07 32.9804 191.385 31.4023 190.765 32.1188C190.446 32.4816 190.528 33.2162 189.882 33.6788C188.78 34.4587 187.334 34.4859 186.386 33.4157C185.749 32.6902 186.092 31.8286 184.908 31.7651C183.927 31.7107 182.433 32.01 181.444 31.9918C178.724 31.9374 172.344 31.1665 170.457 33.5518C169.657 34.5585 170.743 35.6922 169.902 35.6287C168.064 35.4926 168.807 33.6515 168.579 33.2434C168.35 32.8353 167.574 32.8172 167.402 31.8286C167.116 30.1598 168.513 30.051 168.677 29.4615C168.922 28.5727 168.031 27.176 170.31 27.2848C169.338 29.9784 173.243 30.9307 175.04 31.1121C178.307 31.4568 181.893 30.9398 185.202 31.1575C186.076 31.0396 185.945 29.4978 186.59 29.0534C187.628 28.3369 189.123 28.4004 190.029 29.3617C190.936 30.3231 190.144 30.9126 191.622 30.8763C193.338 30.84 195.666 29.6519 196.989 28.4729L199.546 25.7975L199.562 25.7884Z" fill="#5B3722"/>
<path d="M25.6591 29.1441C26.0349 29.4978 26.4596 31.0849 26.721 31.1575C30.6828 30.8219 35.3226 31.7379 39.1619 30.7131C40.6976 30.2959 42.6336 29.3436 41.8331 27.2758C44.153 26.8495 43.1728 28.5909 43.5077 29.4706C43.7527 30.1236 44.8555 30.1417 44.7738 31.5747C44.7085 32.79 43.7854 32.8172 43.573 33.2162C43.3933 33.5609 44.2428 35.8192 42.2334 35.6196C42.0618 35.6015 42.2334 34.0869 41.3838 33.2707C38.5411 30.5045 30.3969 32.3093 26.7129 31.7289C26.2472 31.8558 26.525 33.9781 24.2622 34.1504C21.73 34.3318 21.8361 32.1189 21.5339 32.0191C19.2385 31.2935 15.0888 34.0869 13.6511 36.055C13.308 36.5266 13.2917 37.2703 12.8506 37.3972C12.0092 35.3294 13.3489 34.0869 14.4598 32.6358C13.3652 31.7198 13.0303 32.7356 11.9847 32.5814C11.6825 32.536 10.2203 31.7742 10.1713 31.5838C10.0569 31.1303 11.4374 30.3594 11.707 30.2959C12.63 30.0782 13.9615 31.3389 14.1739 30.0601C14.2148 29.8243 11.8949 27.0128 12.581 25.7794L16.2488 29.2983C17.2535 29.9422 20.2106 31.1938 21.2562 30.7947C21.926 30.5408 23.3228 26.9856 25.6509 29.1441H25.6591Z" fill="#5B3722"/>
<path d="M196.344 41.2699C196.327 40.5897 195.87 40.0636 195.649 39.5104C195.478 39.0841 194.996 39.1567 195.674 38.6035C196.311 39.2292 197.569 40.5896 196.344 41.2789V41.2699Z" fill="#5B3722"/>
<path d="M16.878 38.5944C17.0985 38.8665 15.6608 41.4513 15.2687 40.9706C14.9338 40.5534 16.543 38.1863 16.878 38.5944Z" fill="#5B3722"/>
</g>
<defs>
<filter id="filter0_ddd_4295_99087" x="0" y="0" width="212.091" height="64.8515" filterUnits="userSpaceOnUse" color-interpolation-filters="sRGB">
<feFlood flood-opacity="0" result="BackgroundImageFix"/>
<feColorMatrix in="SourceAlpha" type="matrix" values="0 0 0 0 0 0 0 0 0 0 0 0 0 0 0 0 0 0 127 0" result="hardAlpha"/>
<feMorphology radius="2" operator="erode" in="SourceAlpha" result="effect1_dropShadow_4295_99087"/>
<feOffset dy="3"/>
<feGaussianBlur stdDeviation="1.5"/>
<feComposite in2="hardAlpha" operator="out"/>
<feColorMatrix type="matrix" values="0 0 0 0 0 0 0 0 0 0 0 0 0 0 0 0 0 0 0.2 0"/>
<feBlend mode="normal" in2="BackgroundImageFix" result="effect1_dropShadow_4295_99087"/>
<feColorMatrix in="SourceAlpha" type="matrix" values="0 0 0 0 0 0 0 0 0 0 0 0 0 0 0 0 0 0 127 0" result="hardAlpha"/>
<feOffset dy="3"/>
<feGaussianBlur stdDeviation="2"/>
<feComposite in2="hardAlpha" operator="out"/>
<feColorMatrix type="matrix" values="0 0 0 0 0 0 0 0 0 0 0 0 0 0 0 0 0 0 0.14 0"/>
<feBlend mode="normal" in2="effect1_dropShadow_4295_99087" result="effect2_dropShadow_4295_99087"/>
<feColorMatrix in="SourceAlpha" type="matrix" values="0 0 0 0 0 0 0 0 0 0 0 0 0 0 0 0 0 0 127 0" result="hardAlpha"/>
<feOffset dy="1"/>
<feGaussianBlur stdDeviation="4"/>
<feComposite in2="hardAlpha" operator="out"/>
<feColorMatrix type="matrix" values="0 0 0 0 0 0 0 0 0 0 0 0 0 0 0 0 0 0 0.12 0"/>
<feBlend mode="normal" in2="effect2_dropShadow_4295_99087" result="effect3_dropShadow_4295_99087"/>
<feBlend mode="normal" in="SourceGraphic" in2="effect3_dropShadow_4295_99087" result="shape"/>
</filter>
</defs>
</svg>
