<svg width="213" height="65" viewBox="0 0 213 65" fill="none" xmlns="http://www.w3.org/2000/svg">
<g filter="url(#filter0_ddd_20_20439)">
<path d="M28.1041 51.6543C28.1041 51.6543 27.3526 53.4319 24.3138 54.23C21.2751 55.0281 16.8803 55.8988 14.3072 52.7426C11.734 49.5865 10.0431 46.8657 10.8028 42.1314C11.5625 37.3972 11.9464 35.8464 10.9744 34.5857C10.0023 33.3251 8.38489 32.6358 9.2426 30.6043C10.1003 28.5727 11.1459 29.2439 11.2276 27.4663C11.3093 25.6887 10.7538 20.9544 10.3862 19.6847C10.0186 18.415 12.6571 10.5247 15.655 9.07356C18.6529 7.62246 21.2506 6.99667 24.8203 8.65637C28.39 10.3161 28.3655 11.5132 28.3655 11.5132L33.6016 7.94895C33.6016 7.94895 38.7152 10.2979 41.754 10.434C44.7927 10.57 81.2822 10.5791 81.2822 10.5791L146.264 10.5156C146.264 10.5156 174.332 10.9056 175.124 10.0077C175.916 9.10984 179.208 8.22104 179.208 8.22104C179.208 8.22104 184.371 10.6154 184.91 10.9872C185.449 11.359 189.615 8.22104 189.615 8.22104C189.615 8.22104 193.879 6.61576 197.408 8.98286C200.937 11.35 202.914 14.751 202.963 18.0704C203.012 21.3898 201.623 22.9225 202.007 24.2648C202.391 25.607 202.113 28.2916 202.113 28.2916C202.113 28.2916 203.682 28.9174 203.837 30.3231C203.992 31.7289 202.832 33.7241 202.497 34.5494C202.162 35.3748 202.244 38.0049 202.604 40.4627C202.963 42.9205 202.514 49.1784 200.651 51.0285C198.789 52.8787 199.173 53.5951 196.346 54.3388C193.52 55.0825 189.068 55.0553 187.859 54.0577C186.65 53.06 185.31 51.4004 185.31 51.4004L179.601 55.146L173.842 52.6066L165.967 52.525L41.5497 52.0715L33.6751 55.1551L28.0878 51.6634L28.1041 51.6543Z" fill="#FFF5D1"/>
<path d="M203.328 28.8992C203.018 28.4458 202.315 28.1827 202.283 28.1193C202.111 27.7928 202.536 27.0672 202.495 26.5593C202.446 25.7794 201.964 24.9722 201.997 24.1741C202.029 23.3669 202.65 22.1425 202.756 21.1449C203.728 11.9758 196.597 4.74747 188.51 7.70408C187.448 8.09407 184.663 10.2889 184.401 10.3161C183.446 10.4158 180.252 7.34131 179.051 7.34131C178.528 7.34131 176.184 8.82869 175.301 9.11891C170.996 10.5428 166.014 9.654 161.611 9.69935C125.799 10.1165 89.9222 9.92608 54.0454 9.76283C48.9481 9.73562 41.8495 10.697 37.0709 9.19146C36.0988 8.8831 33.6155 7.34131 33.1254 7.34131C32.1288 7.34131 28.7143 10.4158 27.7749 10.3161C27.342 10.2707 25.5612 8.50219 24.6708 8.07593C16.5021 4.2033 8.5213 11.3228 9.40352 20.8365C9.50971 21.9702 10.1632 23.2943 10.1959 24.1559C10.2122 24.6275 9.9835 27.2214 9.90181 27.7202C9.70576 28.9083 7.87598 29.3527 8.00667 31.6019C8.08836 33.0076 9.75477 34.3046 9.90181 35.1752C10.5635 39.1839 8.90523 42.2584 9.70576 46.4122C11.5355 55.9532 21.3216 58.6286 27.7586 52.5794C28.7143 52.4887 31.8511 55.4634 32.8558 55.5813C33.4521 55.6448 35.625 54.2663 36.4745 53.9488C41.2205 52.2075 47.053 53.178 51.9215 53.1598C89.0074 53.0691 126.167 52.7517 163.481 53.1054C168.48 53.1507 172.116 52.4252 177.033 54.5384C177.523 54.747 178.936 55.7899 179.051 55.7899C179.484 55.7899 183.601 52.7789 184.418 52.3889C192.112 60.0525 203.377 54.2028 202.805 42.6031C202.666 39.855 201.752 38.2951 202.266 35.1752C202.397 34.3862 203.197 34.0144 203.565 33.3341C204.333 31.8921 204.259 30.2415 203.344 28.8992H203.328ZM200.951 34.2955C200.894 34.5767 201.261 35.8736 201.188 36.6626C201.123 37.3791 200.657 37.9777 200.657 38.4402C200.657 39.0025 201.196 39.5829 201.31 40.2087C203.41 51.4094 193.354 59.2635 185.471 51.6906C185.202 51.4276 185.12 50.8018 184.924 50.7836C183.903 50.6748 180.431 53.9942 179.296 54.0758C178.512 54.1302 176.739 52.9059 175.816 52.6066C174.158 52.0624 172.45 51.9082 170.743 51.6815H40.8775C39.8727 51.9717 38.7945 51.881 37.7897 52.1259C36.6379 52.4071 33.8197 54.0577 33.109 54.0577C32.0063 54.0577 28.9103 51.355 27.7014 50.8471C25.8226 52.4252 24.4666 53.8219 22.0486 54.3026C14.6396 55.7718 9.90181 49.396 10.7432 41.4603C10.8412 40.508 11.4865 39.1748 11.4865 38.4493C11.4865 37.8054 10.9882 37.1342 10.9719 36.3543C10.9474 35.6015 11.4048 34.6673 11.2741 34.0234C11.2251 33.7695 10.4328 33.6062 10.0652 33.2162C7.44304 30.4047 11.462 28.9264 11.4947 28.6271C11.5029 28.5092 10.9882 27.4572 10.9719 26.8223C10.9474 25.8519 11.511 25.1082 11.4947 24.4462C11.4865 23.8113 10.8004 21.9702 10.7187 20.8728C10.0243 11.8307 16.9841 5.28256 24.6545 9.55424C25.4877 10.0168 27.3338 11.9939 27.5135 12.0302C28.2813 12.1934 31.9001 8.86496 33.1009 8.83776C33.9096 8.81962 36.0824 10.2526 37.1444 10.5791C38.1818 10.8965 39.2764 11.0053 40.3383 11.2049H171.274C172.279 11.0416 173.365 10.9963 174.354 10.7605C175.555 10.4793 178.618 8.73799 179.296 8.81055C180.154 8.91031 183.192 11.5314 184.262 11.9576C184.499 12.0483 184.793 12.2025 185.038 12.0483C185.112 11.9939 185.218 11.4497 185.471 11.1958C192.276 4.63863 201.743 9.8626 201.727 19.6847C201.727 21.2719 200.812 23.0223 200.714 24.1922C200.657 24.8271 201.155 25.9517 201.196 26.8314C201.229 27.43 200.894 28.3188 200.951 28.5909C201.033 28.999 202.895 29.4706 202.985 31.348C203.059 32.8807 201.033 33.9418 200.951 34.3046V34.2955Z" fill="#5B3722"/>
<path d="M17.1474 15.9572C18.9609 16.0842 21.387 14.3157 22.7838 16.3925C24.6054 19.0861 20.9214 21.5258 20.3986 19.3401C20.1208 18.1883 21.3625 18.5238 21.4523 18.1701C22.0976 15.7033 18.3891 15.9481 17.997 18.8685C17.4007 23.3578 23.7722 25.1626 25.9288 21.0995C27.8239 17.5262 26.2228 12.6741 22.7021 11.4316C17.2536 9.50888 13.3898 13.2817 12.8589 19.2403C13.496 18.9048 14.2312 18.6599 14.7295 19.3945C15.0072 20.0566 13.7084 19.6757 13.447 20.637C12.5158 24.0108 16.5511 27.82 19.2223 28.4004C20.954 28.7813 20.4966 27.9469 21.1011 27.566C22.5796 26.6319 24.6871 26.1693 26.2473 27.1488C26.7375 27.4572 27.0397 28.1465 27.4726 28.473C29.0247 29.6338 31.2711 28.5455 32.9702 29.0625C33.1009 28.2825 32.864 28.5999 32.5862 28.4457C29.4413 26.6228 26.3699 22.9769 28.4039 18.7869C30.6094 14.2522 35.2411 19.8752 32.0961 21.3988C29.8497 22.4872 29.7272 18.5601 32.1615 19.8389C32.4474 17.9434 30.4624 17.5353 29.3678 18.669C28.1425 19.9477 28.412 24.2103 30.0131 25.1989C29.8089 24.5096 30.6339 23.5574 31.0914 24.0108C31.1812 24.1015 30.4379 25.2715 31.3609 26.5502C32.7251 28.4548 36.5399 29.5431 38.533 28.5455C40.2158 27.7021 38.3288 26.26 39.8237 26.2238C40.8611 26.2056 40.7468 27.8018 40.3383 28.4639C40.1831 28.7178 38.9333 29.4252 38.6147 29.525C37.4874 29.8878 28.9348 29.9059 27.7504 29.661C26.4516 29.389 25.9614 26.7135 23.2413 27.3484C21.8444 27.6749 20.7988 29.5069 20.5048 29.5522C20.1453 29.6066 17.5722 28.6543 17.0821 28.4004C8.36609 23.8476 12.091 7.43199 22.2528 10.434C29.9396 12.7104 28.5672 25.1808 21.3788 24.2376C17.0086 23.6571 17.4905 19.6757 17.1474 15.9572Z" fill="#5B3722"/>
<path d="M185.022 29.5885C184.548 29.8968 175.056 29.7789 174.011 29.5885C171.176 29.0625 170.972 25.8428 172.867 26.3961C173.553 26.5956 172.769 27.6295 173.12 28.1918C174.231 29.9694 181.036 28.2734 181.33 25.6161C181.42 24.8089 180.497 22.6232 182.106 24.7092C182.866 25.6977 183.699 21.9883 183.723 21.4351C183.87 17.9706 180.17 16.7735 179.982 19.3854C179.917 20.247 180.374 19.4943 180.93 19.5124C182.653 19.585 181.82 21.8977 180.513 21.4986C178.356 20.8365 178.855 17.0546 181.444 17.1362C184.034 17.2179 184.687 20.4738 184.197 22.8771C183.544 26.0605 181.362 27.3302 179.173 29.0625C180.595 28.6725 182.751 29.2983 184.115 28.7722C185.128 28.3823 185.831 26.9402 187.097 26.6954C187.767 26.5684 189.27 26.5865 189.915 26.8133C190.732 27.0944 191.394 28.6181 192.178 28.6453C194.637 28.7541 199.628 24.0562 198.909 21.0089C198.696 20.1201 195.723 18.3334 199.293 19.2313C199.015 14.6694 196.564 11.0144 192.186 10.8693C187.26 10.7151 183.715 16.4107 186.362 21.2175C188.657 25.3894 195.184 23.0767 194.065 18.3243C193.493 15.8847 190.528 15.9844 190.691 17.5897C190.781 18.5148 191.631 18.2064 191.753 18.3606C192.807 19.6938 189.066 21.4623 189.074 17.889C189.082 14.3157 193.395 15.4765 195.266 16.4016C194.359 17.1 194.98 18.016 194.914 18.9501C194.694 22.1153 193.493 23.8204 190.52 24.1741C183.952 24.954 182.539 13.835 188.919 10.8421C198.77 6.2167 204.333 22.1607 195.788 28.0013C195.078 28.482 192.317 29.652 191.639 29.5431C191.206 29.4797 190.43 27.9741 189.654 27.7021C188.682 27.3756 187.04 27.4209 186.166 28.0286C185.594 28.4276 185.136 29.5159 185.022 29.5885Z" fill="#5B3722"/>
<path d="M40.4608 36.4722C40.1912 36.6445 39.5132 36.4359 39.1456 36.4994C39.1211 35.8464 39.554 35.4201 39.1783 34.8488C37.7569 32.7175 31.5977 34.6039 30.9361 37.0889C30.7645 37.7238 31.3364 39.4197 30.5603 39.0388C30.0375 38.7758 30.0702 37.6059 29.8905 37.6966C27.6441 39.4469 28.6325 46.775 31.7203 44.5711C31.9898 44.3807 32.5617 43.0112 31.8837 43.1926C29.7353 43.773 30.062 40.898 31.8428 41.4603C33.9667 42.1315 33.207 45.8318 30.7155 45.723C27.5297 45.5778 27.399 40.7983 28.5345 38.277C29.5556 36.0097 31.3445 35.3657 32.9783 33.8239C31.4834 34.2593 29.4902 33.4158 28.0689 33.8783C27.5788 34.0416 26.9498 35.1481 26.3616 35.5562C24.8749 36.581 22.8899 36.4903 21.4604 35.4383C20.8151 34.9667 20.6844 34.1141 19.8267 34.2321C17.1147 34.5948 12.3605 38.8937 13.4388 42.2585C13.6348 42.8661 14.7784 42.8389 14.468 43.9454L12.8588 43.8002C13.3326 49.5956 17.8417 53.7131 23.0533 51.2371C28.6815 48.5617 27.6604 38.3768 21.1663 39.6102C16.6736 40.4627 17.5068 46.9745 20.7742 46.3397C21.5339 46.1855 21.6973 44.943 21.4114 44.5802C21.3052 44.4532 19.5734 44.3625 20.6435 43.2017C22.6939 40.9797 25.0546 46.8838 21.0275 47.5096C16.6817 48.1808 15.9792 40.5353 20.1044 39.0298C28.2894 36.0459 30.2581 49.9311 22.6694 52.3073C11.658 55.7446 7.87589 38.0503 18.2338 33.9872C18.6259 33.833 20.2596 33.307 20.5128 33.3433C21.0601 33.4249 22.0567 35.7013 24.2378 35.5925C25.8878 35.5108 26.2391 34.1958 27.203 33.5246C28.0689 32.917 36.7277 33.0349 38.1899 33.2616C39.1946 33.4158 40.5016 34.1414 40.6568 35.3204C40.6895 35.529 40.5588 36.4178 40.4608 36.4722Z" fill="#5B3722"/>
<path d="M179.173 33.8238C180.301 34.9938 181.918 35.5742 182.882 36.9891C184.034 38.685 184.507 40.4354 184.246 42.5849C183.723 46.8837 178.708 46.4484 179.181 42.9295C179.492 40.6349 182.367 41.0975 181.836 42.8751C181.42 43.6913 180.578 43.3648 179.982 43.0565C179.663 45.1606 181.885 45.3964 182.939 44.1085C184.802 41.8321 182.522 37.2339 182.13 37.6965C182.335 38.3857 181.518 39.338 181.052 38.8846C180.987 38.8211 181.354 37.7509 181.322 37.2793C181.101 34.4678 173.472 32.4997 173.006 35.1661C172.859 36.0096 173.406 36.9528 172.099 36.463C170.939 36.0368 171.993 34.0687 172.932 33.588C174.836 32.6085 180.407 33.2071 182.784 33.2343C183.217 33.2343 183.65 32.935 184.123 32.9441C185.104 32.9622 186.182 35.6014 188.151 35.6196C190.119 35.6377 191.173 33.2978 191.851 33.2887C192.529 33.2797 194.767 34.2592 195.445 34.6582C204.088 39.7824 199.685 56.198 189.098 52.1258C181.959 49.3778 184.058 36.0186 192.243 39.1022C197.185 40.9705 194.547 49.9129 190.185 47.047C187.481 45.2694 190.144 41.2426 191.532 43.1744C192.619 44.689 190.887 44.4985 190.724 45.0155C190.095 46.9835 193.264 46.5754 193.918 45.2059C195.396 42.1133 192.341 39.1204 189.523 39.5013C184.581 40.1724 184.344 47.7453 187.889 50.5024C192.692 54.239 199.236 50.4389 199.301 44.0994C199.309 43.1381 198.108 44.4169 197.684 43.9453C197.136 43.3467 198.312 42.8569 198.492 42.6211C199.807 40.9524 197.635 37.5241 196.344 36.3451C195.715 35.7738 192.292 33.8783 191.81 34.1594C191.761 34.1866 191.688 34.6582 191.492 34.8305C189 36.9981 187.081 36.9709 184.785 34.5675C184.565 34.3408 184.565 33.8238 184.532 33.8238H179.165H179.173Z" fill="#5B3722"/>
<path d="M199.562 25.7884C200.436 27.2304 197.904 29.661 197.969 30.0691C198.182 31.3479 199.521 30.0873 200.436 30.3049C200.632 30.3503 201.956 31.2028 201.972 31.3026C202.095 31.8286 200.673 32.4453 200.371 32.5269C199.17 32.8353 198.827 31.7198 197.675 32.6448C198.778 34.105 199.946 34.894 199.554 37.107L195.878 33.5971C195.07 32.9804 191.385 31.4023 190.765 32.1188C190.446 32.4816 190.528 33.2162 189.882 33.6788C188.78 34.4587 187.334 34.4859 186.386 33.4157C185.749 32.6902 186.092 31.8286 184.908 31.7651C183.927 31.7107 182.433 32.01 181.444 31.9918C178.724 31.9374 172.344 31.1665 170.457 33.5518C169.657 34.5585 170.743 35.6922 169.902 35.6287C168.064 35.4926 168.807 33.6515 168.579 33.2434C168.35 32.8353 167.574 32.8172 167.402 31.8286C167.116 30.1598 168.513 30.051 168.677 29.4615C168.922 28.5727 168.031 27.176 170.31 27.2848C169.338 29.9784 173.243 30.9307 175.04 31.1121C178.307 31.4568 181.893 30.9398 185.202 31.1575C186.076 31.0396 185.945 29.4978 186.59 29.0534C187.628 28.3369 189.123 28.4004 190.029 29.3617C190.936 30.3231 190.144 30.9126 191.622 30.8763C193.338 30.84 195.666 29.6519 196.989 28.4729L199.546 25.7975L199.562 25.7884Z" fill="#5B3722"/>
<path d="M25.6592 29.1441C26.035 29.4978 26.4597 31.0849 26.7211 31.1575C30.683 30.8219 35.3228 31.7379 39.162 30.7131C40.6978 30.2959 42.6337 29.3436 41.8332 27.2758C44.1531 26.8495 43.1729 28.5909 43.5078 29.4706C43.7529 30.1236 44.8556 30.1417 44.7739 31.5747C44.7086 32.79 43.7855 32.8172 43.5731 33.2162C43.3934 33.5609 44.243 35.8192 42.2335 35.6196C42.0619 35.6015 42.2335 34.0869 41.3839 33.2707C38.5412 30.5045 30.3971 32.3093 26.713 31.7289C26.2474 31.8558 26.5251 33.9781 24.2624 34.1504C21.7301 34.3318 21.8363 32.1189 21.534 32.0191C19.2386 31.2935 15.0889 34.0869 13.6512 36.055C13.3082 36.5266 13.2918 37.2703 12.8507 37.3972C12.0093 35.3294 13.349 34.0869 14.4599 32.6358C13.3653 31.7198 13.0304 32.7356 11.9848 32.5814C11.6826 32.536 10.2204 31.7742 10.1714 31.5838C10.057 31.1303 11.4375 30.3594 11.7071 30.2959C12.6302 30.0782 13.9617 31.3389 14.174 30.0601C14.2149 29.8243 11.895 27.0128 12.5812 25.7794L16.2489 29.2983C17.2536 29.9422 20.2107 31.1938 21.2563 30.7947C21.9261 30.5408 23.323 26.9856 25.651 29.1441H25.6592Z" fill="#5B3722"/>
<path d="M196.344 41.2699C196.328 40.5897 195.87 40.0636 195.65 39.5104C195.478 39.0841 194.996 39.1567 195.674 38.6035C196.311 39.2292 197.569 40.5896 196.344 41.2789V41.2699Z" fill="#5B3722"/>
<path d="M16.878 38.5944C17.0985 38.8665 15.6608 41.4513 15.2687 40.9706C14.9338 40.5534 16.543 38.1863 16.878 38.5944Z" fill="#5B3722"/>
</g>
<path d="M78.112 37.0306V31.3346C78.112 30.8226 77.9733 30.4546 77.696 30.2306C77.4187 30.0066 76.992 29.8946 76.416 29.8946C75.8613 29.8946 75.3173 29.9799 74.784 30.1506C74.2613 30.3106 73.808 30.5026 73.424 30.7266V28.7426C73.7333 28.5932 74.1707 28.4439 74.736 28.2946C75.3013 28.1346 75.952 28.0546 76.688 28.0546C77.2533 28.0546 77.76 28.1239 78.208 28.2626C78.6667 28.4012 78.9973 28.6732 79.2 29.0786C79.648 29.2172 79.968 29.4892 80.16 29.8946C80.3627 30.2892 80.464 30.8012 80.464 31.4306V37.0306H78.112ZM75.488 37.1906C74.5707 37.1906 73.8613 36.9719 73.36 36.5346C72.8693 36.0972 72.624 35.4839 72.624 34.6946C72.624 33.8412 72.928 33.1586 73.536 32.6466C74.1547 32.1346 75.1253 31.8252 76.448 31.7186L78.496 31.5586V33.2866L76.72 33.4626C76.08 33.5266 75.632 33.6546 75.376 33.8466C75.1307 34.0386 75.008 34.2946 75.008 34.6146C75.008 34.9346 75.1093 35.1746 75.312 35.3346C75.5253 35.4946 75.7973 35.5746 76.128 35.5746C76.256 35.5746 76.384 35.5639 76.512 35.5426C76.64 35.5106 76.7573 35.4786 76.864 35.4466L77.072 36.9506C76.8693 37.0252 76.6293 37.0839 76.352 37.1266C76.0747 37.1692 75.7867 37.1906 75.488 37.1906ZM79.152 30.0066L77.84 28.9026C78.2133 28.7746 78.5067 28.6146 78.72 28.4226C78.9333 28.2199 79.0453 27.9746 79.056 27.6866H81.152C81.152 28.0172 81.0827 28.3372 80.944 28.6466C80.816 28.9452 80.6027 29.2119 80.304 29.4466C80.016 29.6812 79.632 29.8679 79.152 30.0066ZM85.753 37.2386C85.1237 37.2386 84.489 37.1692 83.849 37.0306C83.2197 36.8919 82.6597 36.6946 82.169 36.4386L82.841 34.5346C83.0543 34.6519 83.3103 34.7746 83.609 34.9026C83.9077 35.0306 84.233 35.1372 84.585 35.2226C84.937 35.3079 85.2943 35.3506 85.657 35.3506C86.0837 35.3506 86.4037 35.2919 86.617 35.1746C86.841 35.0466 86.953 34.8546 86.953 34.5986C86.953 34.4066 86.8783 34.2519 86.729 34.1346C86.5903 34.0066 86.3823 33.8892 86.105 33.7826C85.8277 33.6652 85.497 33.5426 85.113 33.4146C84.5477 33.2119 84.0623 32.9932 83.657 32.7586C83.2517 32.5239 82.937 32.2359 82.713 31.8946C82.4997 31.5532 82.393 31.1266 82.393 30.6146C82.393 30.0279 82.5423 29.5479 82.841 29.1746C83.1397 28.8012 83.561 28.5239 84.105 28.3426C84.649 28.1506 85.2837 28.0546 86.009 28.0546C86.6063 28.0546 87.145 28.1026 87.625 28.1986C88.105 28.2946 88.4783 28.4172 88.745 28.5666V30.4546C88.5637 30.3692 88.3237 30.2839 88.025 30.1986C87.737 30.1132 87.4223 30.0439 87.081 29.9906C86.7503 29.9266 86.4303 29.8946 86.121 29.8946C85.6837 29.8946 85.353 29.9532 85.129 30.0706C84.905 30.1879 84.793 30.3532 84.793 30.5666C84.793 30.7372 84.8677 30.8812 85.017 30.9986C85.177 31.1159 85.4063 31.2279 85.705 31.3346C86.0037 31.4306 86.361 31.5532 86.777 31.7026C87.3317 31.8946 87.801 32.1079 88.185 32.3426C88.569 32.5772 88.857 32.8652 89.049 33.2066C89.2517 33.5479 89.353 33.9692 89.353 34.4706C89.353 34.9506 89.241 35.4039 89.017 35.8306C88.8037 36.2466 88.4357 36.5879 87.913 36.8546C87.3903 37.1106 86.6703 37.2386 85.753 37.2386ZM83.9977 27.0626V26.2626C84.1471 26.2199 84.3124 26.1612 84.4937 26.0866C84.6751 26.0119 84.8351 25.9106 84.9737 25.7826C85.1124 25.6546 85.1817 25.4946 85.1817 25.3026C85.1817 25.1532 85.1391 25.0359 85.0537 24.9506C84.9684 24.8652 84.8617 24.8226 84.7337 24.8226C84.6484 24.8226 84.5577 24.8386 84.4617 24.8706C84.3657 24.9026 84.2804 24.9346 84.2057 24.9666L83.9017 23.8946C84.1151 23.7132 84.3817 23.5959 84.7017 23.5426C85.0111 23.4786 85.2724 23.4466 85.4857 23.4466C85.9657 23.4466 86.3444 23.5586 86.6217 23.7826C86.8884 24.0066 87.0217 24.3372 87.0217 24.7746C87.0217 25.0092 86.9631 25.2279 86.8457 25.4306C86.7177 25.6332 86.5257 25.7986 86.2697 25.9266L86.2057 25.5106H89.2297V27.0626H83.9977ZM93.3463 37.0306V31.2386C93.3463 30.7906 93.2396 30.4652 93.0263 30.2626C92.8236 30.0599 92.4876 29.9586 92.0182 29.9586C91.6663 29.9586 91.3409 30.0066 91.0423 30.1026C90.7543 30.1986 90.4823 30.3159 90.2263 30.4546V28.5346C90.4609 28.4279 90.7916 28.3212 91.2183 28.2146C91.6449 28.1079 92.1463 28.0546 92.7223 28.0546C93.3089 28.0546 93.8263 28.1399 94.2743 28.3106C94.7329 28.4812 95.0903 28.7692 95.3463 29.1746C95.6129 29.5692 95.7463 30.1132 95.7463 30.8066V37.0306H93.3463ZM99.4834 37.0306L96.9394 28.2626H99.3554L101.291 35.0946H101.387C101.558 35.0946 101.718 35.0466 101.867 34.9506C102.017 34.8546 102.145 34.7266 102.251 34.5666C102.465 34.2679 102.625 33.9159 102.731 33.5106C102.838 33.0946 102.891 32.6839 102.891 32.2786C102.891 31.5639 102.753 31.0146 102.475 30.6306C102.209 30.2466 101.835 30.0546 101.355 30.0546C101.259 30.0546 101.169 30.0599 101.083 30.0706C101.009 30.0812 100.939 30.1026 100.875 30.1346L100.427 28.2946C100.673 28.2199 100.902 28.1772 101.115 28.1666C101.339 28.1452 101.521 28.1346 101.659 28.1346C102.225 28.1346 102.715 28.2092 103.131 28.3586C103.547 28.5079 103.905 28.7319 104.203 29.0306C104.577 29.3932 104.854 29.8466 105.035 30.3906C105.227 30.9346 105.323 31.5479 105.323 32.2306C105.323 33.0946 105.185 33.8519 104.907 34.5026C104.641 35.1426 104.315 35.6492 103.931 36.0226C103.611 36.3319 103.206 36.5772 102.715 36.7586C102.235 36.9399 101.574 37.0306 100.731 37.0306H99.4834ZM111.072 37.2386C109.685 37.2386 108.677 36.9186 108.048 36.2786C107.429 35.6279 107.12 34.6892 107.12 33.4626V28.2626H109.52V33.5906C109.52 34.1559 109.643 34.5879 109.888 34.8866C110.144 35.1746 110.539 35.3186 111.072 35.3186C111.605 35.3186 111.995 35.1746 112.24 34.8866C112.496 34.5879 112.624 34.1559 112.624 33.5906V28.2626H115.024V33.4626C115.024 34.6892 114.709 35.6279 114.08 36.2786C113.461 36.9186 112.459 37.2386 111.072 37.2386ZM112.697 27.0466C112.196 27.0466 111.801 26.9719 111.513 26.8226C111.225 26.6732 111.022 26.4866 110.905 26.2626C110.777 26.0279 110.713 25.7826 110.713 25.5266C110.713 25.3452 110.74 25.1532 110.793 24.9506C110.846 24.7372 110.926 24.5399 111.033 24.3586L112.777 24.5826C112.756 24.6572 112.74 24.7372 112.729 24.8226C112.708 24.8972 112.697 24.9666 112.697 25.0306C112.697 25.1799 112.745 25.2972 112.841 25.3826C112.926 25.4572 113.076 25.4946 113.289 25.4946H116.729V27.0466H112.697ZM125.693 40.1666C125.213 40.1666 124.733 40.1186 124.253 40.0226C123.773 39.9372 123.33 39.8039 122.925 39.6226V37.5906C123.202 37.7612 123.554 37.9106 123.981 38.0386C124.418 38.1772 124.877 38.2466 125.357 38.2466C125.815 38.2466 126.205 38.1772 126.525 38.0386C126.855 37.8999 127.106 37.6866 127.277 37.3986C127.458 37.1106 127.549 36.7426 127.549 36.2946V35.8306H127.437C127.234 36.1292 126.941 36.3852 126.557 36.5986C126.183 36.8119 125.698 36.9186 125.101 36.9186C124.567 36.9186 124.098 36.8226 123.693 36.6306C123.298 36.4386 122.989 36.1399 122.765 35.7346C122.541 35.3186 122.429 34.7852 122.429 34.1346V31.4466C122.429 31.0732 122.359 30.7799 122.221 30.5666C122.093 30.3426 121.917 30.1826 121.693 30.0866C121.469 29.9906 121.213 29.9426 120.925 29.9426C120.519 29.9426 120.183 30.0332 119.917 30.2146C119.65 30.3852 119.506 30.6466 119.485 30.9986L120.877 31.6706L120.717 32.7106C120.322 32.7212 120.023 32.8172 119.821 32.9986C119.618 33.1692 119.517 33.4732 119.517 33.9106V34.8866C119.517 35.1212 119.565 35.2919 119.661 35.3986C119.767 35.4946 119.933 35.5426 120.157 35.5426C120.253 35.5426 120.349 35.5372 120.445 35.5266C120.551 35.5052 120.642 35.4786 120.717 35.4466L120.941 36.8706C120.738 36.9772 120.509 37.0572 120.253 37.1106C119.997 37.1639 119.725 37.1906 119.437 37.1906C118.978 37.1906 118.578 37.1159 118.237 36.9666C117.906 36.8172 117.645 36.5932 117.453 36.2946C117.271 35.9852 117.181 35.6012 117.181 35.1426V34.1026C117.181 33.4732 117.319 33.0092 117.597 32.7106C117.874 32.4119 118.258 32.1879 118.749 32.0386L118.765 31.9746L117.021 31.3506V30.9346C117.021 30.3906 117.17 29.9052 117.469 29.4786C117.778 29.0412 118.226 28.6946 118.813 28.4386C119.399 28.1826 120.114 28.0546 120.957 28.0546C121.746 28.0546 122.423 28.1772 122.989 28.4226C123.565 28.6572 124.007 29.0146 124.317 29.4946C124.626 29.9639 124.781 30.5559 124.781 31.2706V33.4146C124.781 33.9266 124.893 34.2946 125.117 34.5186C125.341 34.7426 125.618 34.8546 125.949 34.8546C126.258 34.8546 126.525 34.7692 126.749 34.5986C126.973 34.4172 127.149 34.1719 127.277 33.8626C127.405 33.5426 127.469 33.1692 127.469 32.7426V28.2626H129.869V35.9586C129.869 36.9079 129.709 37.6919 129.389 38.3106C129.079 38.9399 128.615 39.4039 127.997 39.7026C127.378 40.0119 126.61 40.1666 125.693 40.1666ZM135.973 37.2386C134.757 37.2386 133.834 36.9719 133.205 36.4386C132.586 35.8946 132.277 35.1159 132.277 34.1026V33.4786C132.277 33.0412 132.325 32.6786 132.421 32.3906C132.528 32.1026 132.666 31.8412 132.837 31.6066C133.008 31.3719 133.146 31.1639 133.253 30.9826C133.37 30.7906 133.429 30.5932 133.429 30.3906C133.429 30.1986 133.381 30.0652 133.285 29.9906C133.2 29.9052 133.082 29.8626 132.933 29.8626C132.826 29.8626 132.714 29.8786 132.597 29.9106C132.49 29.9426 132.368 29.9906 132.229 30.0546L131.845 28.5506C132.144 28.3906 132.464 28.2839 132.805 28.2306C133.157 28.1666 133.466 28.1346 133.733 28.1346C134.202 28.1346 134.576 28.2092 134.853 28.3586C135.141 28.5079 135.349 28.7212 135.477 28.9986C135.605 29.2759 135.669 29.6066 135.669 29.9906C135.669 30.3212 135.621 30.6146 135.525 30.8706C135.429 31.1159 135.306 31.3719 135.157 31.6386C135.018 31.8839 134.896 32.1132 134.789 32.3266C134.693 32.5399 134.645 32.8492 134.645 33.2546V33.8626C134.645 34.2146 134.693 34.5026 134.789 34.7266C134.896 34.9506 135.05 35.1159 135.253 35.2226C135.456 35.3186 135.696 35.3666 135.973 35.3666C136.432 35.3666 136.757 35.2439 136.949 34.9986C137.152 34.7426 137.253 34.4012 137.253 33.9746V32.4226C137.253 32.1026 137.178 31.8519 137.029 31.6706C136.89 31.4786 136.65 31.3826 136.309 31.3826H136.229V30.1186H136.325C136.656 30.1186 136.901 30.0279 137.061 29.8466C137.221 29.6652 137.322 29.4359 137.365 29.1586C137.418 28.8706 137.445 28.5719 137.445 28.2626H139.829C139.829 28.9132 139.744 29.4519 139.573 29.8786C139.402 30.3052 139.104 30.5932 138.677 30.7426V30.8066C138.933 30.8812 139.13 30.9986 139.269 31.1586C139.408 31.3079 139.504 31.4892 139.557 31.7026C139.61 31.9159 139.637 32.1506 139.637 32.4066V34.0386C139.637 35.0946 139.328 35.8946 138.709 36.4386C138.09 36.9719 137.178 37.2386 135.973 37.2386ZM132.486 27.0466V26.0386L134.102 25.3666H139.814V27.0466H132.486ZM137.766 26.0706V24.2626H139.814V26.0706H137.766Z" fill="#5B3722"/>
<defs>
<filter id="filter0_ddd_20_20439" x="0" y="0" width="212.091" height="64.8515" filterUnits="userSpaceOnUse" color-interpolation-filters="sRGB">
<feFlood flood-opacity="0" result="BackgroundImageFix"/>
<feColorMatrix in="SourceAlpha" type="matrix" values="0 0 0 0 0 0 0 0 0 0 0 0 0 0 0 0 0 0 127 0" result="hardAlpha"/>
<feMorphology radius="2" operator="erode" in="SourceAlpha" result="effect1_dropShadow_20_20439"/>
<feOffset dy="3"/>
<feGaussianBlur stdDeviation="1.5"/>
<feComposite in2="hardAlpha" operator="out"/>
<feColorMatrix type="matrix" values="0 0 0 0 0 0 0 0 0 0 0 0 0 0 0 0 0 0 0.2 0"/>
<feBlend mode="normal" in2="BackgroundImageFix" result="effect1_dropShadow_20_20439"/>
<feColorMatrix in="SourceAlpha" type="matrix" values="0 0 0 0 0 0 0 0 0 0 0 0 0 0 0 0 0 0 127 0" result="hardAlpha"/>
<feOffset dy="3"/>
<feGaussianBlur stdDeviation="2"/>
<feComposite in2="hardAlpha" operator="out"/>
<feColorMatrix type="matrix" values="0 0 0 0 0 0 0 0 0 0 0 0 0 0 0 0 0 0 0.14 0"/>
<feBlend mode="normal" in2="effect1_dropShadow_20_20439" result="effect2_dropShadow_20_20439"/>
<feColorMatrix in="SourceAlpha" type="matrix" values="0 0 0 0 0 0 0 0 0 0 0 0 0 0 0 0 0 0 127 0" result="hardAlpha"/>
<feOffset dy="1"/>
<feGaussianBlur stdDeviation="4"/>
<feComposite in2="hardAlpha" operator="out"/>
<feColorMatrix type="matrix" values="0 0 0 0 0 0 0 0 0 0 0 0 0 0 0 0 0 0 0.12 0"/>
<feBlend mode="normal" in2="effect2_dropShadow_20_20439" result="effect3_dropShadow_20_20439"/>
<feBlend mode="normal" in="SourceGraphic" in2="effect3_dropShadow_20_20439" result="shape"/>
</filter>
</defs>
</svg>
