<svg width="346" height="90" viewBox="0 0 346 90" fill="none" xmlns="http://www.w3.org/2000/svg">
<path d="M210.974 0.0331601C219.041 0.0331604 227.033 -0.00697072 235.04 0.00105593C264.806 0.0251361 294.579 -0.0149941 324.331 0.113428C325.02 4.70447 326.429 8.66947 330.543 10.6439C331.93 11.3101 334.569 11.0693 335.207 12.0164C336.274 13.6137 334.628 19.3685 336.697 22.4426C337.868 24.1843 342.383 27.6998 342.198 23.3094L339.989 22.9162C341.308 20.6608 344.244 21.648 343.555 24.3448C343.288 25.3963 341.812 25.8618 342.213 27.3146C350.627 25.0431 357.478 39.2336 348.922 42.2114C341.56 44.7718 339.573 33.551 345.623 32.949C353.585 32.1544 347.143 43.1906 345.178 38.1501C344.452 36.296 348.107 37.1067 348.121 35.7582C348.121 35.5094 346.394 33.6233 345.623 33.7838C343.755 34.1851 341.99 39.7473 344.926 40.8389C353.103 43.8728 353.519 30.9184 346.268 28.9439L345.912 31.3358C343.784 30.9986 342.287 29.3372 339.981 30.1077C338.817 31.103 340.908 35.1001 340.715 37.2913C340.522 39.4825 338.721 41.5051 337.764 43.3752C339.247 44.0173 340.634 40.9593 341.101 40.9914C341.597 41.0235 341.909 42.7251 342.428 43.1344C343.844 44.2421 348.885 44.5872 350.59 44.0253C351.65 43.6722 352.696 41.786 352.963 41.794C353.296 41.8021 354.075 43.4153 354.801 43.6963C355.594 44.0013 358.256 43.4474 358.53 44.6032C359.086 46.963 355.305 45.8152 354.772 46.2326C354.156 46.7222 354.349 48.2151 353.689 48.2311C352.51 48.2552 351.598 46.5857 350.405 46.1603C347.973 45.2935 344.14 45.9918 341.968 47.3964C341.271 47.8459 341.657 49.2665 341.101 49.0097C340.137 48.5602 339.47 46.1202 337.764 46.6098C339.329 48.7609 340.241 51.0002 340.389 53.7933C340.485 55.6474 338.988 59.2512 339.959 59.8693C342.087 61.025 344.096 59.7489 345.92 58.6412C343.903 63.77 349.278 59.9816 350.523 57.5978C355.142 48.7368 343.829 45.9115 343.065 52.0115C342.465 56.7711 349.397 56.6347 348.144 54.2348C342.635 52.6215 346.364 49.0418 348.7 51.6343C353.467 56.9236 339.47 61.1053 342.376 50.3822C343.992 44.4267 355.083 47.3482 352.266 57.0841C350.612 62.7828 342.183 62.6223 342.235 63.8583C342.235 64.0429 343.369 64.7814 343.517 65.6081C343.97 68.1203 341.634 69.6052 340.003 67.0608L341.864 66.6595C342.554 66.7799 343.176 64.2195 339.811 65.2629C333.279 67.2775 336.371 77.8562 335.548 78.707C335.392 78.8675 332.486 78.7873 331.218 79.2448C327.407 80.6012 324.286 85.5534 325.176 89.9599L21.6348 90C20.8119 87.3032 19.9371 83.0893 17.8983 81.0988C15.8595 79.1083 11.0628 78.9558 10.4178 77.9605C9.46145 76.4997 10.4549 71.7 10.0768 69.5008C9.61715 66.8762 4.6203 62.0685 3.42669 66.6675L5.64337 67.0608C4.32373 69.3162 1.38791 68.329 2.07736 65.6321C2.34427 64.5807 3.81961 64.1152 3.41925 62.6624C-7.46411 65.0462 -11.512 46.3048 -0.109682 47.597C7.62286 48.4719 3.04858 60.6237 -2.40055 56.9156C-5.27707 54.9572 -1.02896 48.1669 0.446348 51.8269C1.2174 53.7452 -1.54053 52.7499 -1.77036 53.0228C-4.16501 55.7999 3.32287 58.2479 2.6853 51.8429C2.16635 46.5857 -8.76151 47.9662 -4.91379 57.6299C-3.93518 60.0779 2.0329 63.5935 -0.2876 58.6412C2.09219 59.4599 3.58236 60.9287 6.37735 60.2385C5.25787 55.0936 4.96133 50.5668 8.60147 46.6098C6.20685 45.8714 5.94736 49.3227 4.53131 49.0177C3.86407 48.8732 4.33114 47.8699 3.63428 47.4044C0.120146 45.0447 -4.81 44.7397 -7.69394 48.2151C-7.46411 44.8841 -11.2303 46.8506 -12.157 45.7991C-14.0994 43.5839 -8.82083 44.0093 -8.60584 43.9451C-8.47238 43.9049 -8.45014 42.6207 -8.02014 42.5485C-6.29276 42.2676 -3.02329 45.1891 1.40271 44.0414C2.81875 43.6722 3.93081 42.0268 4.64252 41.8984C5.82873 41.6897 6.40701 43.8568 7.85269 43.3993C7.7044 41.2322 6.0289 40.5259 5.67303 38.142C4.78338 32.1464 9.46887 27.1701 -0.302431 31.3518L1.17291 29.3452C0.186858 28.5426 -2.79346 29.9392 -4.01672 30.5492C-6.13706 35.3007 -6.81168 42.4201 0.0311872 40.9673C3.18204 40.2931 3.19684 35.6138 1.79565 34.6827C-1.33295 32.6039 -4.33551 37.5401 0.424132 36.9782C-0.569307 43.022 -5.82565 35.5335 -1.79999 33.3584C3.85669 30.3003 7.04458 41.6014 -0.0133075 42.5726C-7.0712 43.5437 -9.52512 33.3423 -4.02411 30.5572C-2.05948 26.1427 2.15893 28.4543 3.38962 27.3386C3.60461 27.146 2.12927 22.9322 2.65564 21.7283L5.60632 22.9402C6.01407 25.4685 3.81219 22.8439 3.39703 23.3335C1.96615 25.003 6.22165 26.9213 8.90543 23.2773C11.0628 20.3558 9.32062 14.3441 10.9739 12.2813C11.5892 11.5188 14.0135 11.4787 15.1775 10.8045C19.2402 8.46077 20.9157 5.01749 21.2122 0.0893359L74.5616 0.0492067C79.4769 0.723416 84.4812 0.731443 89.3891 0.0492074C89.6337 0.0492074 89.8858 0.0492074 90.1305 0.0492074C94.297 0.731443 98.5673 0.73947 102.734 0.049208C103.231 0.049208 103.72 0.049208 104.217 0.049208C110.118 0.723418 116.108 0.723418 122.01 0.0492088C125.042 0.0492089 127.941 0.0492091 130.906 0.0492092C135.821 0.723419 140.826 0.731446 145.734 0.0492098L147.958 0.0492099C150.367 0.747499 152.955 0.731446 155.371 0.0492103C157.343 0.0492104 159.33 0.0492104 161.302 0.0492105C168.168 0.562894 175.351 1.00434 182.061 0.0492114C183.544 0.0492115 185.026 0.0492116 186.509 0.0492116C191.424 0.731448 196.429 0.731448 201.337 0.0492123C201.833 0.0492123 202.323 0.0492123 202.819 0.0492123C205.481 0.755527 208.313 0.731448 210.974 0.0492127L210.974 0.0331601Z" fill="#5B3722"/>
<path d="M161.302 0.0332022C168.212 0.0332025 175.151 0.0332028 182.061 0.0332031C181.29 1.36557 179.251 0.835833 177.99 0.851886C172.638 0.916096 166.395 1.45386 161.302 0.0332022Z" fill="#5B3722"/>
<path d="M104.216 0.0332023C110.14 0.0332026 116.086 0.0332029 122.009 0.0332031C116.701 1.3736 109.525 1.3736 104.216 0.0332023Z" fill="#5B3722"/>
<path d="M74.5617 0.0332025C79.4918 0.0332027 84.459 0.0332029 89.3892 0.0332031C85.1411 1.3736 78.8691 1.38162 74.5617 0.0332025Z" fill="#5B3722"/>
<path d="M186.509 0.0332025C191.439 0.0332027 196.406 0.0332029 201.336 0.0332031C197.088 1.3736 190.816 1.38162 186.509 0.0332025Z" fill="#5B3722"/>
<path d="M130.906 0.0332025C135.843 0.0332027 140.796 0.0332029 145.733 0.0332031C141.485 1.3736 135.213 1.38162 130.906 0.0332025Z" fill="#5B3722"/>
<path d="M90.1305 0.0332026C94.3267 0.0332028 98.5377 0.0332029 102.734 0.0332031C99.2939 1.38162 93.6224 1.38162 90.1305 0.0332026Z" fill="#5B3722"/>
<path d="M202.819 0.0332028C205.533 0.0332029 208.261 0.033203 210.975 0.0332031C209.092 1.4057 204.554 1.36557 202.819 0.0332028Z" fill="#5B3722"/>
<path d="M147.957 0.0332028C150.419 0.0332029 152.91 0.033203 155.371 0.0332031C153.733 1.4057 149.455 1.36557 147.957 0.0332028Z" fill="#5B3722"/>
<path d="M335.526 42.5725C334.258 39.3379 337.016 38.3748 337.023 38.1019C337.075 36.1354 334.962 33.1256 338.484 31.3357C339.351 35.3649 340.448 41.4167 335.533 42.5645L335.526 42.5725Z" fill="#FFF5D1"/>
<path d="M338.483 58.6252C334.962 56.8193 337.082 53.8335 337.03 51.859C337.03 51.5941 334.265 50.623 335.533 47.3884C339.714 48.6164 339.803 54.9572 338.483 58.6172L338.483 58.6252Z" fill="#FFF5D1"/>
<path d="M10.0544 42.5725C3.90844 40.8308 7.44479 27.5714 9.20926 33.4867C9.83201 35.5736 8.52721 38.2704 8.66807 38.4711C9.35013 39.4583 11.8337 38.3908 10.0544 42.5725Z" fill="#FFF5D1"/>
<path d="M9.78012 51.1447C9.68374 51.4176 8.58651 51.4336 8.57168 51.8751C8.50495 54.0101 10.9737 56.8995 7.10375 58.6332C6.53289 54.2428 5.65067 48.7288 10.8032 47.4044C10.225 48.6084 10.2249 49.9086 9.78012 51.1527L9.78012 51.1447Z" fill="#FFF5D1"/>
<path d="M9.32776 28.1173C9.69104 28.5667 11.7743 27.0738 9.69105 31.3358C8.67537 28.2216 6.79227 29.5058 4.88694 27.724L10.7957 23.3095C11.715 24.9388 9.17207 27.9166 9.32776 28.1173Z" fill="#FFF5D1"/>
<path d="M10.7957 66.6516L4.87214 61.8438C7.89694 60.3108 11.4481 62.8872 10.7957 66.6516Z" fill="#FFF5D1"/>
<path d="M340.715 63.4329C338.468 63.5212 337.253 65.4957 335.533 66.6514C335.11 63.8422 337.015 60.3107 339.766 61.6189C340.804 62.1166 340.93 61.7795 340.707 63.4249L340.715 63.4329Z" fill="#FFF5D1"/>
<path d="M340.715 28.1173C337.364 29.8911 335.177 26.8491 335.533 23.3095L340.715 28.1173Z" fill="#FFF5D1"/>
<rect x="29.5859" y="18" width="218" height="53" fill="#F8F3E8"/>
<rect x="259.586" y="18" width="57" height="53" fill="#F8F3E8"/>
<g clip-path="url(#clip0_5088_5226)">
<path d="M64.5473 30.51C67.9128 35.5068 71.3101 40.4909 74.7836 45.4131V30.51H79.0684V53.8163H75.2202L64.9442 38.9133V53.8163H60.5801V30.51H64.5473Z" fill="#010101"/>
<path d="M226.097 30.4306V39.3089H235.38V30.4306H239.427V53.8164H235.38V43.1141H226.216C226.208 43.1141 226.097 43.2253 226.097 43.2333V53.8164H222.129V30.4306H226.097Z" fill="#010101"/>
<path d="M216.11 47.0893C216.192 47.0401 216.313 47.0893 216.381 47.1545L219.272 50.1319C217.423 52.0957 214.997 53.5208 212.308 53.953C203.132 55.4306 195.813 46.5634 199.117 37.8424C202.274 29.5091 213.389 27.5469 219.272 34.1977L216.287 37.2434C215.565 36.6317 214.925 35.9613 214.09 35.491C207.415 31.7318 199.922 39.0531 203.549 45.7849C206.089 50.4973 212.308 51.1249 215.986 47.3181C216.048 47.253 216.097 47.0973 216.11 47.0893Z" fill="#010101"/>
<path d="M126.278 30.51V47.0385C126.278 48.238 127.872 49.6171 128.975 49.8936C130.906 50.3766 133.498 48.8656 133.498 46.8017V30.51H137.624L137.627 46.3282C137.132 56.5062 123.171 56.673 122.147 46.8827L122.151 30.51H126.277H126.278Z" fill="#010101"/>
<path d="M94.0641 30.2733V34.2358H87.3187V38.1999H94.0641V42.7979H87.3187V53.8164H82.7959V30.2733H94.0641Z" fill="#010101"/>
<path d="M239.586 59.2072H33.6812V60H239.586V59.2072Z" fill="#010101"/>
<path d="M239.586 56.9082H33.6812V57.6216H239.586V56.9082Z" fill="#010101"/>
<path d="M170.078 30.51V34.633H165.237V53.8163H161.111V34.633H156.271V30.51H170.078Z" fill="#010101"/>
<path d="M51.9089 31.8398C48.7022 29.6298 43.9602 29.4804 40.4502 31.0518C30.3615 35.5656 31.5998 51.8128 42.8029 53.8592C47.5417 54.7235 52.6233 53.3301 55.5777 49.4185L52.2963 46.9272C51.058 48.2936 49.5801 49.6933 47.7227 50.1319C43.5252 51.1233 38.2102 48.3667 38.2801 43.6701H56.6096C56.8557 39.1595 55.7984 34.5265 51.9058 31.8414L51.9089 31.8398ZM51.8915 40.1811H38.2832C38.2594 36.7318 41.3599 33.7416 44.746 33.5176C48.6164 33.2618 51.4502 35.2796 51.9216 39.1992C51.9423 39.3645 52.0455 40.1811 51.8915 40.1811Z" fill="#BB3733"/>
<path d="M190.971 31.9526C188.122 29.9205 184.156 29.5392 180.828 30.51C169.34 33.8576 169.846 51.8128 181.806 53.8719C186.259 54.6377 190.938 53.5128 193.964 50.054C194.086 49.9142 194.511 49.4582 194.426 49.3088L191.149 46.9145C190.041 48.2332 188.666 49.5408 186.959 50.0318C182.643 51.2742 177.226 48.4858 177.139 43.6686H195.548C195.754 39.2278 194.757 34.6504 190.971 31.951V31.9526ZM190.866 40.1811H177.139C177.447 35.5529 181.711 32.6724 186.201 33.7035C189.277 34.4105 190.935 37.1226 190.866 40.1811Z" fill="#BB3733"/>
<path d="M107.777 30.2113C97.9119 30.3114 92.5334 42.0146 98.6676 49.6521C103.743 55.9708 113.116 55.5863 117.648 48.8799C122.93 41.0613 117.288 30.1144 107.777 30.2113ZM112.747 48.1077C106.832 53.2317 98.2945 46.9733 100.706 39.6441C101.554 37.0655 104.157 34.776 106.902 34.498C114.576 33.7178 118.415 43.1999 112.749 48.1077H112.747Z" fill="#010101"/>
<path d="M149.608 43.9466C150.149 43.6972 150.735 43.5732 151.275 43.3159C157.012 40.5609 155.029 30.6101 148.538 30.5068L140.481 30.51V53.8163H144.528V43.9863L144.72 44.1516L151.551 53.8163H156.511L149.61 43.9466H149.608ZM144.528 40.1033V34.633H148.694C148.73 34.633 149.291 34.8618 149.372 34.9063C150.565 35.5593 150.931 38.1903 150.068 39.1786C149.121 40.2653 145.866 40.0747 144.526 40.1033H144.528Z" fill="#010101"/>
</g>
<g clip-path="url(#clip1_5088_5226)">
<path d="M274.308 49.3227L288.586 36.9536L302.863 49.3227H296.354L288.586 42.7311L280.818 49.3227H274.308Z" fill="#DE5B36"/>
<path d="M274.199 47.127V32.1957L279.175 36.6994L279.178 42.9566C277.784 44.0732 276.499 45.3251 275.126 46.4658C274.859 46.6881 274.519 47.0192 274.199 47.127Z" fill="#DE5B36"/>
<path d="M302.973 47.127C302.903 47.2095 302.153 46.5549 302.045 46.4658C300.673 45.3251 299.388 44.0732 297.994 42.9566L297.997 36.6994L302.973 32.1957V47.127Z" fill="#DE5B36"/>
<path d="M274.308 30H280.927L286.56 34.9954L283.114 37.8776L274.308 30Z" fill="#DE5B36"/>
<path d="M302.863 30L294.058 37.8776L290.612 34.9954L296.244 30H302.863Z" fill="#DE5B36"/>
<path d="M266.212 54.0432C266.748 54.9232 267.264 56.13 267.871 56.9341C267.956 57.0452 267.948 57.1178 268.126 57.1178C268.241 57.1178 269.056 55.3709 269.33 55.141C270.369 54.2709 271.061 56.6283 271.627 57.1145L273.596 54.0432H276.058L275.927 54.4051L272.453 59.8108C272.309 60.0385 271.156 60.0242 271.044 59.9538C270.94 59.8878 269.996 57.8065 269.876 57.7757C269.656 57.7174 269.724 57.8802 269.66 57.9924C269.505 58.2663 268.714 59.8614 268.621 59.9186C268.461 60.0165 267.47 60.0154 267.308 59.9164L263.586 54.0432H266.212Z" fill="#242020"/>
<path d="M291.923 59.9725H289.57C289.388 59.9725 287.443 57.5777 287.11 57.2829L289.078 55.581H286.015V59.9725H283.827V54.0443H290.774C290.859 54.0443 291.833 55.2103 291.795 55.4006C291.731 55.7406 289.818 56.9011 289.633 57.3786C289.66 57.5315 291.487 59.2872 291.759 59.6425C291.844 59.7536 291.971 59.7811 291.923 59.9725Z" fill="#242020"/>
<path d="M300.894 59.9725H298.542C298.36 59.9725 296.396 57.5942 296.085 57.2829L298.049 55.581H294.987V59.9725H292.798V54.0443H299.745C299.83 54.0443 300.793 55.2752 300.773 55.4006C300.541 55.7791 298.557 57.1079 298.604 57.3775C298.648 57.6272 300.746 59.4456 300.893 59.9725H300.894Z" fill="#242020"/>
<path d="M283.28 59.9725H281.037C280.835 59.9725 279.109 56.6349 278.847 56.5689C278.697 56.5315 278.66 56.6591 278.592 56.7504C278.3 57.1442 276.741 59.9725 276.551 59.9725H274.308L277.798 54.1146C277.948 53.9793 279.652 53.9892 279.834 54.152L283.278 59.9725H283.28Z" fill="#242020"/>
<path d="M313.367 59.9725H310.796C310.671 59.9725 309.254 58.4192 308.917 58.3411C308.659 58.318 307.115 59.9725 306.967 59.9725H304.286L307.566 57.0628L304.286 54.0432H306.857L313.367 59.9714V59.9725Z" fill="#242020"/>
<path d="M303.52 54.0431V59.9714H301.551V54.207C301.551 54.1949 301.704 54.042 301.716 54.042H303.521L303.52 54.0431Z" fill="#252122"/>
<path d="M313.586 54.0432L310.686 56.6734C310.553 56.4149 309.383 55.5976 309.428 55.4171C309.702 55.3027 310.909 54.0432 311.014 54.0432H313.585H313.586Z" fill="#252122"/>
</g>
<defs>
<clipPath id="clip0_5088_5226">
<rect width="206" height="30" fill="white" transform="translate(33.5859 30)"/>
</clipPath>
<clipPath id="clip1_5088_5226">
<rect width="50" height="30" fill="white" transform="translate(263.586 30)"/>
</clipPath>
</defs>
</svg>
