<svg width="346" height="312" viewBox="0 0 346 312" fill="none" xmlns="http://www.w3.org/2000/svg">
<path d="M42.579 0L0 42.5681V268.651L43.3601 312H301.36L346 267.372V43.5983L302.956 0.564916L42.579 0Z" fill="#F9F3E8"/>
<path d="M172.958 9.20483H57.4367C81.2856 35.5067 61.7578 75.8484 22.752 67.5408V236.7" stroke="#5B3722" stroke-miterlimit="10"/>
<path d="M172.958 9.20483H288.464C264.615 35.5067 284.143 75.8484 323.148 67.5408V229.888" stroke="#5B3722" stroke-miterlimit="10"/>
<path d="M172.958 301.566H57.4367C81.2856 275.264 61.7578 234.922 22.752 243.23V77.0945" stroke="#5B3722" stroke-miterlimit="10"/>
<path d="M172.958 301.566H288.464C264.615 275.264 284.143 234.922 323.148 243.23V81.6304" stroke="#5B3722" stroke-miterlimit="10"/>
<path d="M172.958 20.7357H103.489C112.48 25.7867 106.065 36.8691 98.47 32.0839C98.47 32.0839 99.4007 39.4444 93.9163 42.2524C88.4319 45.0604 82.5819 43.1828 80.1388 40.8567C77.6957 38.5306 77.9118 31.9842 81.3021 29.8741C84.6925 27.7639 88.4319 27.8802 90.2933 31.2697C90.6423 26.0193 89.3626 22.7462 86.3212 21.3339C83.2799 19.9216 53.0325 20.7191 53.0325 20.7191C53.0325 20.7191 60.0625 30.3061 58.3175 38.381C56.5724 46.456 52.2348 52.8861 49.6587 55.3285C53.2818 46.0905 52.9494 41.8204 50.9384 36.9688C47.6644 31.818 43.925 29.143 37.028 29.7245C30.1309 30.3061 27.156 35.6229 27.2225 38.7466C27.289 41.8702 29.0507 47.7188 33.5379 47.9846C38.0251 48.2505 42.5124 46.5557 42.0969 41.8702C43.6591 47.5692 42.3628 52.6037 38.424 55.9267C34.4852 59.2497 23.9485 60.1802 20.3421 58.8177C16.7357 57.4553 11.8329 53.2849 9.19043 49.7625V248.779" stroke="#5B3722" stroke-miterlimit="10"/>
<path d="M172.958 20.7357H242.428C233.437 25.7867 239.852 36.8691 247.447 32.0839C247.447 32.0839 246.516 39.4444 252.001 42.2524C257.485 45.0604 263.335 43.1828 265.778 40.8567C268.221 38.5306 268.005 31.9842 264.615 29.8741C261.224 27.7639 257.485 27.8802 255.624 31.2697C255.275 26.0193 256.554 22.7462 259.596 21.3339C262.637 19.9216 292.884 20.7191 292.884 20.7191C292.884 20.7191 285.854 30.3061 287.599 38.381C289.344 46.456 293.682 52.8861 296.258 55.3285C292.635 46.0905 292.967 41.8204 294.978 36.9688C298.252 31.818 301.992 29.143 308.889 29.7245C315.786 30.3061 318.761 35.6229 318.694 38.7466C318.628 41.8702 316.866 47.7188 312.379 47.9846C307.892 48.2505 303.404 46.5557 303.82 41.8702C302.258 47.5692 303.554 52.6037 307.493 55.9267C311.432 59.2497 321.968 60.1802 325.575 58.8177C329.181 57.4553 334.084 53.2849 336.726 49.7625C336.726 55.7439 336.726 248.779 336.726 248.779" stroke="#5B3722" stroke-miterlimit="10"/>
<path d="M172.958 289.47H103.489C112.48 284.419 106.065 273.336 98.47 278.122C98.47 278.122 99.4007 270.761 93.9163 267.953C88.4319 265.145 82.5819 267.023 80.1388 269.349C77.6957 271.675 77.9118 278.221 81.3021 280.331C84.6925 282.442 88.4319 282.325 90.2933 278.936C90.6423 284.186 89.3626 287.459 86.3212 288.872C83.2799 290.284 53.0325 289.486 53.0325 289.486C53.0325 289.486 60.0625 279.899 58.3175 271.824C56.5724 263.75 52.2348 257.319 49.6587 254.877C53.2818 264.115 52.9494 268.385 50.9384 273.237C47.6644 278.387 43.925 281.063 37.028 280.481C30.1309 279.899 27.156 274.583 27.2225 271.459C27.289 268.335 29.0507 262.487 33.5379 262.221C38.0251 261.955 42.5124 263.65 42.0969 268.335C43.6591 262.636 42.3628 257.602 38.424 254.279C34.4852 250.956 23.9485 250.025 20.3421 251.388C16.7357 252.75 11.8329 256.921 9.19043 260.443V77.0945" stroke="#5B3722" stroke-miterlimit="10"/>
<path d="M172.958 289.47H242.428C233.437 284.419 239.852 273.336 247.447 278.122C247.447 278.122 246.516 270.761 252.001 267.953C257.485 265.145 263.335 267.023 265.778 269.349C268.221 271.675 268.005 278.221 264.615 280.331C261.224 282.442 257.485 282.325 255.624 278.936C255.275 284.186 256.554 287.459 259.596 288.872C262.637 290.284 292.884 289.486 292.884 289.486C292.884 289.486 285.854 279.899 287.599 271.824C289.344 263.749 293.682 257.319 296.258 254.877C292.635 264.115 292.967 268.385 294.978 273.237C298.252 278.387 301.992 281.062 308.889 280.481C315.786 279.899 318.761 274.583 318.694 271.459C318.628 268.335 316.866 262.487 312.379 262.221C307.892 261.955 303.404 263.65 303.82 268.335C302.258 262.636 303.554 257.602 307.493 254.279C311.432 250.956 321.968 250.025 325.575 251.388C329.181 252.75 334.084 256.921 336.726 260.443C336.726 254.462 336.726 61.9912 336.726 61.9912" stroke="#5B3722" stroke-miterlimit="10"/>
</svg>
