<svg width="80" height="80" viewBox="0 0 80 80" fill="none" xmlns="http://www.w3.org/2000/svg">
<path d="M12.2006 12.2925H25.17C25.17 12.2925 25.4284 8.8162 27.1762 7.62652C29.3357 6.15857 39.0598 4.85597 45.8977 5.81578C53.4339 6.87238 55.1979 9.72762 54.5843 12.1029L67.9372 12.2965V24.4676L71.9657 26.4799L74.5854 34.3117L73.4511 52.79L67.9332 56.2784L67.9695 67.7437H54.9799L53.9021 72.4177L40.9852 74.5027L29.6143 72.8855L25.7634 70.9458L25.3315 67.4574L14.788 67.4211L11.4135 67.171L11.5871 55.1291L7.37694 52.3988L5.04785 41.0061L7.13071 27.4518L11.8373 24.0401L12.1885 12.3006L12.2006 12.2925Z" fill="#F8F3E8"/>
<path d="M73.5883 6.89259V21.0074C73.5883 21.1768 75.3281 21.9632 76.1758 23.0601C81.4112 29.8433 81.2659 50.6285 75.7721 57.2665C74.9648 58.2424 73.5883 58.7788 73.5883 58.9159V73.0308H59.6623C59.4483 73.0308 57.6682 75.6319 56.8367 76.257C49.2278 81.9635 27.9633 81.0843 21.1012 74.035C20.7661 73.6922 20.7661 73.0348 20.7096 73.0348H6.5817V59.5249C6.5817 59.1902 4.93883 58.3473 4.56343 57.9118C-1.61652 50.7293 -1.4712 29.1336 4.70471 21.9632C5.00745 21.6124 6.5817 20.7977 6.5817 20.4106V6.89259H20.1041C20.4392 6.89259 21.8116 4.75923 22.3484 4.29545C29.0289 -1.5118 50.3015 -1.2779 57.2403 4.07365C57.9831 4.64631 59.4766 6.89662 59.6623 6.89662H73.5883V6.89259ZM58.2495 8.10243C58.1687 7.01761 57.4341 6.15055 56.647 5.469C50.685 0.302967 26.3446 -0.370514 22.1547 6.94905C21.9085 7.38056 21.9811 8.10647 21.9206 8.10647H7.79267V21.818C7.79267 22.0156 5.63312 23.0279 4.78948 24.2619C0.490559 30.5773 0.24433 49.7735 4.96709 55.8913C5.54028 56.6333 7.79267 58.1255 7.79267 58.311V71.216L8.39815 71.8209H21.9206C22.0336 71.8209 22.2758 73.0993 22.9176 73.8535C28.1853 80.0116 52.8486 80.0559 57.7974 73.1679C58.1203 72.7202 58.1809 71.8209 58.2495 71.8209H71.9737V58.1094C71.9737 57.9964 73.2654 57.7988 74.0122 57.1173C79.9903 51.673 80.2365 27.226 73.3219 22.2657C72.8739 21.9431 71.9737 21.8826 71.9737 21.814V8.10243H58.2495Z" fill="#5B3722"/>
<path d="M58.2495 8.1025H71.9737V21.8141C71.9737 21.8867 72.8739 21.9431 73.3219 22.2658C80.2365 27.2261 79.9903 51.673 74.0122 57.1174C73.2654 57.7989 71.9737 57.9965 71.9737 58.1094V71.821H58.2495C58.1768 71.821 58.1203 72.7203 57.7974 73.168C52.8486 80.056 28.1853 80.0117 22.9176 73.8535C22.2758 73.1034 22.0336 71.821 21.9206 71.821H8.39816L7.79268 71.2161V58.3111C7.79268 58.1256 5.54029 56.6334 4.9671 55.8914C0.244342 49.7736 0.490571 30.5774 4.78949 24.262C5.62909 23.0239 7.79268 22.0117 7.79268 21.8181V8.1025H21.9206C21.9811 8.1025 21.9085 7.37659 22.1547 6.94508C26.3446 -0.370447 50.685 0.303034 56.647 5.46907C57.4341 6.15062 58.1688 7.01767 58.2495 8.1025ZM23.5352 10.1189H9.81095V23.4272H8.60403V23.8265H10.2186V10.5222H23.9429C23.5433 7.01364 26.5263 6.0135 29.2873 5.17468C30.1915 4.90044 33.1301 4.06968 33.8324 4.06968H45.9421C46.2731 4.06968 48.2671 5.23114 48.5658 4.06968C42.2042 3.19456 35.7619 2.83161 29.5093 4.58588C26.7766 5.35212 23.0185 6.56196 23.5392 10.1149L23.5352 10.1189ZM55.0202 11.732C55.2463 8.72759 53.9788 7.67502 51.3833 6.69505C45.712 4.55765 33.6992 4.4528 28.1086 6.82006C25.3597 7.98152 24.7906 8.50981 25.1539 11.732H11.4256V24.637C8.72109 25.0444 7.91781 25.4799 6.90868 27.9883C4.51904 33.9327 4.26878 47.124 7.18316 52.8668C8.4022 55.2703 9.56069 54.3186 11.4256 55.4841V68.1874H25.1498C24.391 72.0993 26.8048 72.7727 29.9896 73.6358C35.7902 75.2045 46.4143 75.3175 52.0009 73.0349C54.7942 71.8936 54.9758 71.3976 55.0202 68.1874H68.3408L68.353 55.3187C70.5892 54.8146 71.4167 54.9961 72.5994 52.8829C75.647 47.4386 75.5824 32.7672 72.8456 27.1818C71.453 24.3427 70.3551 25.7703 68.4054 23.9474L68.6436 12.3128L68.135 11.724H55.0162L55.0202 11.732ZM56.6349 10.1189L55.4279 7.29594L56.2312 10.5222H69.5518V23.2256L72.3734 24.2297V23.8345L70.3591 23.4272V10.7238L69.7536 10.1189H56.6349ZM5.36672 52.0602C4.07099 46.0432 3.34844 40.3247 4.20823 34.1626C4.53923 31.7872 5.508 29.4522 5.57258 27.0527C3.19102 33.1665 2.97708 40.0787 3.81265 46.5635L5.36672 52.0602ZM76.4139 45.406C76.7449 41.8047 76.1677 37.7679 76.4139 34.1142L75.6107 31.4928C76.2767 38.76 76.531 46.0916 73.9839 53.0603C74.4845 53.629 75.0254 51.54 75.09 51.3383C75.5784 49.7817 76.2686 46.9668 76.4139 45.402V45.406ZM70.3591 56.4963C71.6145 56.5891 73.883 55.2824 73.3865 54.0766C71.7558 56.5044 69.5518 55.0808 69.5518 58.3111V69.4013H56.2312L55.8316 72.2243H56.2272L56.6349 69.8046H69.7536L70.3591 69.1997V56.4963ZM10.2146 56.093C8.71705 56.1374 7.66351 55.3671 6.58575 54.4799C6.59383 56.0446 8.57981 56.4156 9.81095 56.4963V69.8046H23.5352C23.1114 72.4662 25.0449 73.5148 27.1721 74.4383C32.2662 76.6483 40.412 76.8862 45.8856 76.2087C47.8715 75.9627 49.8171 75.3537 51.787 75.0432C51.8839 74.3173 50.911 74.6762 50.4791 74.7448C48.6062 75.0432 46.7252 75.7288 44.7432 75.8699C39.754 76.2329 32.5044 76.0151 27.8705 74.1439C25.5414 73.2043 23.5554 72.3574 23.9389 69.4013H10.2146V56.093Z" fill="#F8F3E8"/>
<path d="M70.3591 56.4963V69.1997L69.7536 69.8046H56.6348L56.2271 72.2202H55.8315L56.2312 69.4013H69.5518V58.3111C69.5518 55.0808 71.7557 56.5044 73.3865 54.0766C73.8789 55.2784 71.6104 56.589 70.3591 56.4963Z" fill="#5B3722"/>
<path d="M56.6347 10.1189H69.7534L70.3589 10.7239V23.4272L72.3731 23.8386V24.2298L69.5516 23.2256V10.5222H56.231L55.4277 7.29596L56.6347 10.1189Z" fill="#5B3722"/>
<path d="M10.2148 56.093V69.4013H23.939C23.5556 72.3574 25.5415 73.2043 27.8706 74.1439C32.5046 76.0152 39.7502 76.2329 44.7434 75.87C46.7294 75.7248 48.6104 75.0392 50.4793 74.7448C50.9112 74.6763 51.884 74.3173 51.7872 75.0433C49.8173 75.3538 47.8717 75.9627 45.8857 76.2087C40.4122 76.8862 32.2624 76.6483 27.1723 74.4383C25.0451 73.5148 23.1075 72.4663 23.5354 69.8046H9.81114V56.4963C8.57999 56.4157 6.59401 56.0447 6.58594 54.4799C7.66369 55.3671 8.71723 56.1374 10.2148 56.093Z" fill="#5B3722"/>
<path d="M23.5353 10.1188C23.0146 6.56189 26.7726 5.35205 29.5054 4.58984C35.758 2.8396 42.2003 3.20256 48.5619 4.07364C48.2632 5.23106 46.2732 4.07364 45.9381 4.07364H33.8285C33.1302 4.07364 30.1875 4.9044 29.2834 5.17864C26.5183 6.01746 23.5393 7.01357 23.939 10.5262H10.2147V23.8344H8.6001V23.4352H9.80702V10.1188H23.5313H23.5353Z" fill="#5B3722"/>
<path d="M5.36678 52.0601L3.81271 46.5634C2.98119 40.0827 3.19109 33.1704 5.57265 27.0526C5.50403 29.4481 4.53929 31.7831 4.2083 34.1625C3.34851 40.3246 4.07509 46.0432 5.36678 52.0601Z" fill="#5B3722"/>
<path d="M76.4139 45.406C76.2686 46.9707 75.5783 49.7816 75.0899 51.3423C75.0294 51.544 74.4844 53.633 73.9839 53.0643C76.5269 46.0956 76.2726 38.764 75.6106 31.4968L76.4139 34.1182C76.1677 37.7719 76.7449 41.8087 76.4139 45.41V45.406Z" fill="#5B3722"/>
<path d="M55.0205 11.7319H68.1392L68.6479 12.3207L68.4097 23.9554C70.3593 25.7822 71.4573 24.3546 72.8499 27.1897C75.5867 32.7711 75.6513 47.4465 72.6037 52.8908C71.421 55.004 70.5894 54.8225 68.3572 55.3266L68.3451 68.1954H55.0245C54.9801 71.4055 54.7985 71.9015 52.0052 73.0428C46.4226 75.3254 35.7985 75.2124 29.9939 73.6437C26.8091 72.7807 24.3952 72.1072 25.1541 68.1954H11.4258V55.492C9.56091 54.3265 8.40243 55.2782 7.18339 52.8747C4.269 47.132 4.51927 33.9406 6.9089 27.9962C7.91804 25.4878 8.71728 25.0482 11.4258 24.645V11.7319H25.15C24.7868 8.50967 25.3559 7.9854 28.1048 6.81992C33.6954 4.45266 45.7122 4.56154 51.3795 6.6949C53.975 7.67488 55.2425 8.72744 55.0164 11.7319H55.0205ZM25.3519 12.9417H12.6368V24.8385C11.4339 26.4194 9.74659 25.4798 8.50738 27.1655C5.31851 31.5169 5.63739 46.8537 7.88575 51.7657C9.22184 54.6854 10.7436 53.1892 12.6368 55.0847V66.9815H25.3519C26.3449 67.8485 25.913 69.5988 26.4498 70.7239C27.6245 73.1839 39.1932 73.9623 41.9219 73.8574C43.8998 73.7808 53.1596 72.6234 53.749 70.7522C53.9589 70.0827 53.5471 66.9815 54.8187 66.9815H67.5338V54.4797C70.5289 53.8224 71.0577 54.137 72.1718 51.2495C74.0488 46.3899 74.2748 38.5461 73.4796 33.4204C72.858 29.4198 72.3251 25.6007 67.5338 25.4475V12.9458H54.8187C53.3453 12.0989 54.2172 9.62676 53.5512 8.87262C52.2272 7.37242 44.1137 6.17467 41.9219 6.06982C39.0761 5.9327 28.02 6.45697 26.583 8.93312C26.0341 9.88083 26.1592 12.6836 25.3519 12.9458V12.9417Z" fill="#5B3722"/>
<g clip-path="url(#clip0_4895_96471)">
<mask id="path-11-inside-1_4895_96471" fill="white">
<path d="M45.2181 25.4118C45.2181 24.8922 45.6401 24.4706 46.1601 24.4706C46.6801 24.4706 47.1022 24.8922 47.1022 25.4118C47.1022 25.9313 46.6801 26.3529 46.1601 26.3529C45.6401 26.3529 45.2181 25.9313 45.2181 25.4118ZM32.9715 24.4706C32.4515 24.4706 32.0294 24.8922 32.0294 25.4118C32.0294 25.9313 32.4515 26.3529 32.9715 26.3529C33.4915 26.3529 33.9135 25.9313 33.9135 25.4118C33.9135 24.8922 33.4915 24.4706 32.9715 24.4706ZM50.8703 18.8235V25.8824C50.8703 27.1934 50.0988 28.3285 48.9863 28.8584V30.5882C48.9863 31.8852 47.9302 32.9412 46.6311 32.9412C45.3321 32.9412 44.276 31.8852 44.276 30.5882V29.1765H34.8556V30.5882C34.8556 31.8852 33.7995 32.9412 32.5004 32.9412C31.2014 32.9412 30.1453 31.8852 30.1453 30.5882V28.8584C29.0328 28.3285 28.2612 27.1934 28.2612 25.8824V18.8235C28.2612 18.3049 28.6833 17.8824 29.2033 17.8824H30.215C30.8462 16.624 31.5122 15.4927 32.2084 14.4998C32.8198 13.6282 33.7204 13.0146 34.7425 12.7736C35.7778 12.528 37.4556 12.2362 39.5648 12.2362C41.6741 12.2362 43.3528 12.5289 44.3872 12.7736C45.4093 13.0155 46.3099 13.6282 46.9213 14.4998C47.6184 15.4936 48.2844 16.624 48.9147 17.8824H49.9264C50.4464 17.8824 50.8685 18.3049 50.8685 18.8235H50.8703ZM29.2626 22.5064C30.93 22.272 35.7345 21.6471 39.5648 21.6471C43.3952 21.6471 48.1996 22.272 49.8671 22.5064C48.7705 19.5031 47.5204 16.992 46.1507 15.04C45.6712 14.3576 44.9675 13.8776 44.1696 13.6885C43.1823 13.4551 41.5827 13.1765 39.5639 13.1765C37.5451 13.1765 35.9455 13.4551 34.9582 13.6885C34.1603 13.8776 33.4566 14.3576 32.9771 15.04C31.6074 16.992 30.3573 19.5031 29.2607 22.5064H29.2626ZM33.9126 29.1765H31.5584C31.3982 29.1765 31.2409 29.1652 31.0874 29.1426V30.5882C31.0874 31.3666 31.7214 32 32.5004 32C33.2795 32 33.9135 31.3666 33.9135 30.5882L33.9126 29.1765ZM48.0433 29.1426C47.8897 29.1642 47.7324 29.1765 47.5722 29.1765H45.2171V30.5882C45.2171 31.3666 45.8511 32 46.6302 32C47.4093 32 48.0433 31.3666 48.0433 30.5882V29.1426ZM49.9274 23.4654C48.4955 23.2602 43.4998 22.5882 39.5648 22.5882C35.6299 22.5882 30.6342 23.2602 29.2023 23.4654V25.8824C29.2023 27.1793 30.2584 28.2353 31.5575 28.2353H47.5732C48.8723 28.2353 49.9283 27.1793 49.9283 25.8824L49.9274 23.4654Z"/>
</mask>
<path d="M45.2181 25.4118C45.2181 24.8922 45.6401 24.4706 46.1601 24.4706C46.6801 24.4706 47.1022 24.8922 47.1022 25.4118C47.1022 25.9313 46.6801 26.3529 46.1601 26.3529C45.6401 26.3529 45.2181 25.9313 45.2181 25.4118ZM32.9715 24.4706C32.4515 24.4706 32.0294 24.8922 32.0294 25.4118C32.0294 25.9313 32.4515 26.3529 32.9715 26.3529C33.4915 26.3529 33.9135 25.9313 33.9135 25.4118C33.9135 24.8922 33.4915 24.4706 32.9715 24.4706ZM50.8703 18.8235V25.8824C50.8703 27.1934 50.0988 28.3285 48.9863 28.8584V30.5882C48.9863 31.8852 47.9302 32.9412 46.6311 32.9412C45.3321 32.9412 44.276 31.8852 44.276 30.5882V29.1765H34.8556V30.5882C34.8556 31.8852 33.7995 32.9412 32.5004 32.9412C31.2014 32.9412 30.1453 31.8852 30.1453 30.5882V28.8584C29.0328 28.3285 28.2612 27.1934 28.2612 25.8824V18.8235C28.2612 18.3049 28.6833 17.8824 29.2033 17.8824H30.215C30.8462 16.624 31.5122 15.4927 32.2084 14.4998C32.8198 13.6282 33.7204 13.0146 34.7425 12.7736C35.7778 12.528 37.4556 12.2362 39.5648 12.2362C41.6741 12.2362 43.3528 12.5289 44.3872 12.7736C45.4093 13.0155 46.3099 13.6282 46.9213 14.4998C47.6184 15.4936 48.2844 16.624 48.9147 17.8824H49.9264C50.4464 17.8824 50.8685 18.3049 50.8685 18.8235H50.8703ZM29.2626 22.5064C30.93 22.272 35.7345 21.6471 39.5648 21.6471C43.3952 21.6471 48.1996 22.272 49.8671 22.5064C48.7705 19.5031 47.5204 16.992 46.1507 15.04C45.6712 14.3576 44.9675 13.8776 44.1696 13.6885C43.1823 13.4551 41.5827 13.1765 39.5639 13.1765C37.5451 13.1765 35.9455 13.4551 34.9582 13.6885C34.1603 13.8776 33.4566 14.3576 32.9771 15.04C31.6074 16.992 30.3573 19.5031 29.2607 22.5064H29.2626ZM33.9126 29.1765H31.5584C31.3982 29.1765 31.2409 29.1652 31.0874 29.1426V30.5882C31.0874 31.3666 31.7214 32 32.5004 32C33.2795 32 33.9135 31.3666 33.9135 30.5882L33.9126 29.1765ZM48.0433 29.1426C47.8897 29.1642 47.7324 29.1765 47.5722 29.1765H45.2171V30.5882C45.2171 31.3666 45.8511 32 46.6302 32C47.4093 32 48.0433 31.3666 48.0433 30.5882V29.1426ZM49.9274 23.4654C48.4955 23.2602 43.4998 22.5882 39.5648 22.5882C35.6299 22.5882 30.6342 23.2602 29.2023 23.4654V25.8824C29.2023 27.1793 30.2584 28.2353 31.5575 28.2353H47.5732C48.8723 28.2353 49.9283 27.1793 49.9283 25.8824L49.9274 23.4654Z" fill="#5B3722"/>
<path d="M50.8703 18.8235H72.2037V-2.5098H50.8703V18.8235ZM48.9863 28.8584L39.813 9.59796L27.6529 15.3895V28.8584H48.9863ZM44.276 29.1765H65.6094V7.84314H44.276V29.1765ZM34.8556 29.1765V7.84314H13.5222V29.1765H34.8556ZM30.1453 28.8584H51.4787V15.3895L39.3186 9.59796L30.1453 28.8584ZM30.215 17.8824V39.2157H43.3811L49.284 27.4471L30.215 17.8824ZM32.2084 14.4998L14.7439 2.24819L14.7407 2.25276L32.2084 14.4998ZM34.7425 12.7736L39.6372 33.5379L39.6524 33.5343L39.6675 33.5307L34.7425 12.7736ZM44.3872 12.7736L49.3 -7.9863L49.2986 -7.98664L44.3872 12.7736ZM46.9213 14.4998L64.3867 2.24943L64.3858 2.24819L46.9213 14.4998ZM48.9147 17.8824L29.8399 27.4357L35.7398 39.2157H48.9147V17.8824ZM50.8685 18.8235H29.5351V40.1569H50.8685V18.8235ZM29.2626 22.5064V43.8397H30.7545L32.2318 43.6321L29.2626 22.5064ZM49.8671 22.5064L46.8979 43.6321L82.0975 48.5793L69.9065 15.1897L49.8671 22.5064ZM46.1507 15.04L63.6136 2.78612L63.6095 2.78022L63.6053 2.77432L46.1507 15.04ZM44.1696 13.6885L49.091 -7.06943L49.0779 -7.07253L44.1696 13.6885ZM34.9582 13.6885L30.0499 -7.07253L30.0368 -7.06943L34.9582 13.6885ZM32.9771 15.04L15.5225 2.77432L15.5183 2.78022L15.5142 2.78612L32.9771 15.04ZM29.2607 22.5064L9.22134 15.1897L-1.23915 43.8397H29.2607V22.5064ZM33.9126 29.1765L55.2459 29.1622L55.2317 7.84314H33.9126V29.1765ZM31.0874 29.1426L34.1922 8.0364L9.75404 4.44147V29.1426H31.0874ZM33.9135 30.5882H55.2468V30.5811L55.2468 30.574L33.9135 30.5882ZM48.0433 29.1426H69.3766V4.59087L45.0653 8.01813L48.0433 29.1426ZM45.2171 29.1765V7.84314H23.8838V29.1765H45.2171ZM49.9274 23.4654L71.2607 23.4571L71.2535 4.96998L52.9533 2.34777L49.9274 23.4654ZM29.2023 23.4654L26.1764 2.34777L7.869 4.97101V23.4654H29.2023ZM49.9283 25.8824H71.2616L71.2616 25.874L49.9283 25.8824ZM45.2181 25.4118H66.5514C66.5514 36.6929 57.4036 45.8039 46.1601 45.8039V24.4706V3.13725C33.8766 3.13725 23.8847 13.0916 23.8847 25.4118H45.2181ZM46.1601 24.4706V45.8039C34.9166 45.8039 25.7688 36.6929 25.7688 25.4118H47.1022H68.4355C68.4355 13.0916 58.4436 3.13725 46.1601 3.13725V24.4706ZM47.1022 25.4118H25.7688C25.7688 14.1306 34.9166 5.01961 46.1601 5.01961V26.3529V47.6863C58.4436 47.6863 68.4355 37.732 68.4355 25.4118H47.1022ZM46.1601 26.3529V5.01961C57.4036 5.01961 66.5514 14.1306 66.5514 25.4118H45.2181H23.8847C23.8847 37.732 33.8766 47.6863 46.1601 47.6863V26.3529ZM32.9715 24.4706V3.13725C20.688 3.13725 10.6961 13.0916 10.6961 25.4118H32.0294H53.3628C53.3628 36.6929 44.2149 45.8039 32.9715 45.8039V24.4706ZM32.0294 25.4118H10.6961C10.6961 37.732 20.688 47.6863 32.9715 47.6863V26.3529V5.01961C44.2149 5.01961 53.3628 14.1306 53.3628 25.4118H32.0294ZM32.9715 26.3529V47.6863C45.255 47.6863 55.2468 37.732 55.2468 25.4118H33.9135H12.5802C12.5802 14.1306 21.728 5.01961 32.9715 5.01961V26.3529ZM33.9135 25.4118H55.2468C55.2468 13.0916 45.255 3.13725 32.9715 3.13725V24.4706V45.8039C21.728 45.8039 12.5802 36.6929 12.5802 25.4118H33.9135ZM50.8703 18.8235H29.537V25.8824H50.8703H72.2037V18.8235H50.8703ZM50.8703 25.8824H29.537C29.537 18.6191 33.8151 12.4546 39.813 9.59796L48.9863 28.8584L58.1595 48.1188C66.3825 44.2023 72.2037 35.7678 72.2037 25.8824H50.8703ZM48.9863 28.8584H27.6529V30.5882H48.9863H70.3196V28.8584H48.9863ZM48.9863 30.5882H27.6529C27.6529 20.0901 36.1612 11.6078 46.6311 11.6078V32.9412V54.2745C59.6993 54.2745 70.3196 43.6803 70.3196 30.5882H48.9863ZM46.6311 32.9412V11.6078C57.1011 11.6078 65.6094 20.0901 65.6094 30.5882H44.276H22.9427C22.9427 43.6803 33.563 54.2745 46.6311 54.2745V32.9412ZM44.276 30.5882H65.6094V29.1765H44.276H22.9427V30.5882H44.276ZM44.276 29.1765V7.84314H34.8556V29.1765V50.5098H44.276V29.1765ZM34.8556 29.1765H13.5222V30.5882H34.8556H56.1889V29.1765H34.8556ZM34.8556 30.5882H13.5222C13.5222 20.0901 22.0305 11.6078 32.5004 11.6078V32.9412V54.2745C45.5686 54.2745 56.1889 43.6803 56.1889 30.5882H34.8556ZM32.5004 32.9412V11.6078C42.9704 11.6078 51.4787 20.0901 51.4787 30.5882H30.1453H8.81199C8.81199 43.6803 19.4323 54.2745 32.5004 54.2745V32.9412ZM30.1453 30.5882H51.4787V28.8584H30.1453H8.81199V30.5882H30.1453ZM30.1453 28.8584L39.3186 9.59796C45.3165 12.4546 49.5946 18.6191 49.5946 25.8824H28.2612H6.9279C6.9279 35.7678 12.7491 44.2023 20.9721 48.1188L30.1453 28.8584ZM28.2612 25.8824H49.5946V18.8235H28.2612H6.9279V25.8824H28.2612ZM28.2612 18.8235H49.5946C49.5946 30.0917 40.4606 39.2157 29.2033 39.2157V17.8824V-3.45098C16.9059 -3.45098 6.9279 6.51816 6.9279 18.8235H28.2612ZM29.2033 17.8824V39.2157H30.215V17.8824V-3.45098H29.2033V17.8824ZM30.215 17.8824L49.284 27.4471C49.401 27.2139 49.4972 27.0406 49.5678 26.9206C49.6388 26.8001 49.6769 26.7456 49.6761 26.7468L32.2084 14.4998L14.7407 2.25276C13.3549 4.22925 12.1678 6.28057 11.146 8.31762L30.215 17.8824ZM32.2084 14.4998L49.6729 26.7513C47.3277 30.0944 43.7876 32.5595 39.6372 33.5379L34.7425 12.7736L29.8478 -7.99058C23.6532 -6.53034 18.3119 -2.83795 14.7439 2.24819L32.2084 14.4998ZM34.7425 12.7736L39.6675 33.5307C39.5907 33.5489 39.5366 33.5598 39.5029 33.566C39.4691 33.5723 39.4523 33.5744 39.4504 33.5747C39.4491 33.5749 39.4913 33.5696 39.5648 33.5696V12.2362V-9.0971C35.5126 -9.0971 32.1639 -8.54014 29.8175 -7.98341L34.7425 12.7736ZM39.5648 12.2362V33.5696C39.599 33.5696 39.6269 33.5708 39.6472 33.5721C39.6675 33.5735 39.678 33.5748 39.677 33.5747C39.676 33.5746 39.6608 33.5726 39.6294 33.5668C39.598 33.561 39.5476 33.5509 39.4758 33.5339L44.3872 12.7736L49.2986 -7.98664C46.9712 -8.53723 43.6242 -9.0971 39.5648 -9.0971V12.2362ZM44.3872 12.7736L39.4744 33.5336C35.3497 32.5575 31.8093 30.1048 29.4568 26.7513L46.9213 14.4998L64.3858 2.24819C60.8105 -2.84835 55.4689 -6.52644 49.3 -7.9863L44.3872 12.7736ZM46.9213 14.4998L29.4559 26.7501C29.4557 26.7499 29.4654 26.7636 29.4841 26.7927C29.5027 26.8218 29.5294 26.8647 29.5635 26.9226C29.6324 27.0395 29.7261 27.2084 29.8399 27.4357L48.9147 17.8824L67.9894 8.32903C66.9625 6.2786 65.7724 4.22501 64.3867 2.24943L46.9213 14.4998ZM48.9147 17.8824V39.2157H49.9264V17.8824V-3.45098H48.9147V17.8824ZM49.9264 17.8824V39.2157C38.6691 39.2157 29.5351 30.0917 29.5351 18.8235H50.8685H72.2018C72.2018 6.51816 62.2238 -3.45098 49.9264 -3.45098V17.8824ZM50.8685 18.8235V40.1569H50.8703V18.8235V-2.5098H50.8685V18.8235ZM29.2626 22.5064L32.2318 43.6321C32.8795 43.541 34.1867 43.3675 35.6886 43.2199C37.2753 43.064 38.6521 42.9804 39.5648 42.9804V21.6471V0.313725C34.1006 0.313725 27.991 1.14206 26.2935 1.38065L29.2626 22.5064ZM39.5648 21.6471V42.9804C40.4776 42.9804 41.8544 43.064 43.4411 43.2199C44.943 43.3675 46.2502 43.541 46.8979 43.6321L49.8671 22.5064L52.8362 1.38065C51.1386 1.14206 45.0291 0.313725 39.5648 0.313725V21.6471ZM49.8671 22.5064L69.9065 15.1897C68.3722 10.9875 66.3463 6.68041 63.6136 2.78612L46.1507 15.04L28.6878 27.2939C28.666 27.2629 28.7894 27.4358 29.0132 27.8854C29.2338 28.3287 29.5144 28.9649 29.8277 29.823L49.8671 22.5064ZM46.1507 15.04L63.6053 2.77432C60.182 -2.09722 55.0571 -5.65495 49.091 -7.06943L44.1696 13.6885L39.2481 34.4464C34.8779 33.4102 31.1604 30.8125 28.6961 27.3057L46.1507 15.04ZM44.1696 13.6885L49.0779 -7.07253C46.7924 -7.61288 43.5264 -8.15686 39.5639 -8.15686V13.1765V34.5098C39.5941 34.5098 39.5953 34.512 39.5574 34.5072C39.5196 34.5024 39.4259 34.4884 39.2612 34.4495L44.1696 13.6885ZM39.5639 13.1765V-8.15686C35.6014 -8.15686 32.3354 -7.61288 30.0499 -7.07253L34.9582 13.6885L39.8666 34.4495C39.7019 34.4884 39.6082 34.5024 39.5704 34.5072C39.5325 34.512 39.5337 34.5098 39.5639 34.5098V13.1765ZM34.9582 13.6885L30.0368 -7.06943C24.0707 -5.65495 18.9458 -2.09722 15.5225 2.77432L32.9771 15.04L50.4317 27.3057C47.9674 30.8125 44.2499 33.4102 39.8797 34.4464L34.9582 13.6885ZM32.9771 15.04L15.5142 2.78612C12.7815 6.68041 10.7556 10.9875 9.22134 15.1897L29.2607 22.5064L49.3001 29.823C49.6134 28.9649 49.894 28.3287 50.1146 27.8854C50.3384 27.4358 50.4618 27.2629 50.44 27.2939L32.9771 15.04ZM29.2607 22.5064V43.8397H29.2626V22.5064V1.17302H29.2607V22.5064ZM33.9126 29.1765V7.84314H31.5584V29.1765V50.5098H33.9126V29.1765ZM31.5584 29.1765V7.84314C32.4012 7.84314 33.2826 7.90259 34.1922 8.0364L31.0874 29.1426L27.9826 50.2488C29.1993 50.4278 30.3953 50.5098 31.5584 50.5098V29.1765ZM31.0874 29.1426H9.75404V30.5882H31.0874H52.4207V29.1426H31.0874ZM31.0874 30.5882H9.75404C9.75404 43.1672 19.9579 53.3333 32.5004 53.3333V32V10.6667C43.4848 10.6667 52.4207 19.5659 52.4207 30.5882H31.0874ZM32.5004 32V53.3333C45.043 53.3333 55.2468 43.1672 55.2468 30.5882H33.9135H12.5802C12.5802 19.5659 21.516 10.6667 32.5004 10.6667V32ZM33.9135 30.5882L55.2468 30.574L55.2459 29.1622L33.9126 29.1765L12.5792 29.1907L12.5802 30.6025L33.9135 30.5882ZM48.0433 29.1426L45.0653 8.01813C45.8048 7.91388 46.6459 7.84314 47.5722 7.84314V29.1765V50.5098C48.8189 50.5098 49.9746 50.4146 51.0213 50.267L48.0433 29.1426ZM47.5722 29.1765V7.84314H45.2171V29.1765V50.5098H47.5722V29.1765ZM45.2171 29.1765H23.8838V30.5882H45.2171H66.5505V29.1765H45.2171ZM45.2171 30.5882H23.8838C23.8838 43.1672 34.0876 53.3333 46.6302 53.3333V32V10.6667C57.6146 10.6667 66.5505 19.5659 66.5505 30.5882H45.2171ZM46.6302 32V53.3333C59.1728 53.3333 69.3766 43.1672 69.3766 30.5882H48.0433H26.7099C26.7099 19.5659 35.6458 10.6667 46.6302 10.6667V32ZM48.0433 30.5882H69.3766V29.1426H48.0433H26.7099V30.5882H48.0433ZM49.9274 23.4654L52.9533 2.34777C51.5189 2.14223 45.1771 1.2549 39.5648 1.2549V22.5882V43.9216C40.4936 43.9216 41.9172 44.0114 43.5437 44.1755C45.076 44.3301 46.3715 44.5071 46.9014 44.5831L49.9274 23.4654ZM39.5648 22.5882V1.2549C33.9526 1.2549 27.6108 2.14223 26.1764 2.34777L29.2023 23.4654L32.2283 44.5831C32.7582 44.5071 34.0537 44.3301 35.586 44.1755C37.2125 44.0114 38.6361 43.9216 39.5648 43.9216V22.5882ZM29.2023 23.4654H7.869V25.8824H29.2023H50.5357V23.4654H29.2023ZM29.2023 25.8824H7.869C7.869 38.9744 18.4893 49.5686 31.5575 49.5686V28.2353V6.90196C42.0274 6.90196 50.5357 15.3842 50.5357 25.8824H29.2023ZM31.5575 28.2353V49.5686H47.5732V28.2353V6.90196H31.5575V28.2353ZM47.5732 28.2353V49.5686C60.6413 49.5686 71.2616 38.9744 71.2616 25.8824H49.9283H28.595C28.595 15.3842 37.1032 6.90196 47.5732 6.90196V28.2353ZM49.9283 25.8824L71.2616 25.874L71.2607 23.4571L49.9274 23.4654L28.594 23.4737L28.595 25.8907L49.9283 25.8824Z" fill="#5B3722" mask="url(#path-11-inside-1_4895_96471)"/>
</g>
<path d="M21.4622 46.121C21.1542 46.121 20.8572 46.088 20.5712 46.022C20.2852 45.956 19.9918 45.8423 19.6912 45.681L20.0432 44.801C20.2045 44.8963 20.3915 44.9807 20.6042 45.054C20.8168 45.12 21.0515 45.153 21.3082 45.153C21.8068 45.153 22.1992 44.966 22.4852 44.592C22.7712 44.218 22.9142 43.6753 22.9142 42.964C22.9142 42.2673 22.7675 41.7357 22.4742 41.369C22.1882 41.0023 21.7408 40.819 21.1322 40.819C20.8975 40.819 20.6555 40.8483 20.4062 40.907C20.1642 40.9583 19.9515 41.0353 19.7682 41.138V40.159C19.9882 40.049 20.2302 39.972 20.4942 39.928C20.7582 39.8767 21.0258 39.851 21.2972 39.851C21.9645 39.851 22.5035 39.9793 22.9142 40.236C23.3322 40.4927 23.6365 40.8557 23.8272 41.325C24.0252 41.787 24.1242 42.3333 24.1242 42.964C24.1242 43.954 23.8968 44.7277 23.4422 45.285C22.9948 45.8423 22.3348 46.121 21.4622 46.121ZM19.1821 39.048V38.542L20.0731 38.157H23.9671V39.048H19.1821ZM25.6207 46V42.227C25.6207 41.457 25.826 40.8703 26.2367 40.467C26.6474 40.0563 27.3 39.851 28.1947 39.851C28.6127 39.851 28.972 39.9023 29.2727 40.005C29.5734 40.1077 29.808 40.2837 29.9767 40.533C30.2627 40.665 30.4644 40.8813 30.5817 41.182C30.7064 41.4753 30.7687 41.8273 30.7687 42.238V46H29.5917V42.227C29.5917 41.765 29.4744 41.4167 29.2397 41.182C29.0124 40.94 28.664 40.819 28.1947 40.819C27.7254 40.819 27.3734 40.94 27.1387 41.182C26.904 41.4167 26.7867 41.765 26.7867 42.227V43.371L26.8197 43.382C26.9884 43.096 27.179 42.909 27.3917 42.821C27.6117 42.7257 27.9234 42.678 28.3267 42.678H28.6567V43.602H28.3267C27.9087 43.602 27.586 43.6643 27.3587 43.789C27.1387 43.9137 26.9884 44.0787 26.9077 44.284C26.827 44.482 26.7867 44.7057 26.7867 44.955V46H25.6207ZM29.9877 40.918L29.3387 40.335C29.5514 40.291 29.7384 40.2067 29.8997 40.082C30.061 39.9573 30.1417 39.7887 30.1417 39.576H31.2417C31.2417 39.8033 31.1904 40.0087 31.0877 40.192C30.985 40.3753 30.8384 40.5293 30.6477 40.654C30.4644 40.7713 30.2444 40.8593 29.9877 40.918ZM33.9446 46.121C33.6366 46.121 33.3396 46.088 33.0536 46.022C32.7676 45.956 32.4743 45.8423 32.1736 45.681L32.5256 44.801C32.6869 44.8963 32.8739 44.9807 33.0866 45.054C33.2993 45.12 33.5339 45.153 33.7906 45.153C34.2893 45.153 34.6816 44.966 34.9676 44.592C35.2536 44.218 35.3966 43.6753 35.3966 42.964C35.3966 42.2673 35.2499 41.7357 34.9566 41.369C34.6706 41.0023 34.2233 40.819 33.6146 40.819C33.3799 40.819 33.1379 40.8483 32.8886 40.907C32.6466 40.9583 32.4339 41.0353 32.2506 41.138V40.159C32.4706 40.049 32.7126 39.972 32.9766 39.928C33.2406 39.8767 33.5083 39.851 33.7796 39.851C34.4469 39.851 34.9859 39.9793 35.3966 40.236C35.8146 40.4927 36.1189 40.8557 36.3096 41.325C36.5076 41.787 36.6066 42.3333 36.6066 42.964C36.6066 43.954 36.3793 44.7277 35.9246 45.285C35.4773 45.8423 34.8173 46.121 33.9446 46.121ZM38.0481 46V43.987C38.0481 43.525 38.1471 43.184 38.3451 42.964C38.5431 42.744 38.8035 42.59 39.1261 42.502L39.1371 42.458L37.9381 42.007V41.666C37.9381 41.3507 38.0371 41.0537 38.2351 40.775C38.4405 40.4963 38.7338 40.2727 39.1151 40.104C39.4965 39.9353 39.9585 39.851 40.5011 39.851C40.9778 39.851 41.4105 39.928 41.7991 40.082C42.1878 40.2287 42.4958 40.4597 42.7231 40.775C42.9505 41.0903 43.0641 41.501 43.0641 42.007V46H41.8871V42.106C41.8871 41.6513 41.7551 41.325 41.4911 41.127C41.2271 40.9217 40.8898 40.819 40.4791 40.819C40.0611 40.819 39.7348 40.907 39.5001 41.083C39.2655 41.2517 39.1445 41.468 39.1371 41.732L40.2701 42.282L40.1711 42.865C39.8998 42.8723 39.6725 42.964 39.4891 43.14C39.3131 43.316 39.2251 43.5873 39.2251 43.954V46H38.0481ZM46.5888 46.121C46.1561 46.121 45.7418 46.077 45.3458 45.989C44.9571 45.901 44.6234 45.791 44.3448 45.659L44.6858 44.713C44.8398 44.779 45.0158 44.8487 45.2138 44.922C45.4118 44.988 45.6281 45.0467 45.8628 45.098C46.0974 45.142 46.3358 45.164 46.5778 45.164C46.9444 45.164 47.2378 45.1017 47.4578 44.977C47.6851 44.845 47.7988 44.6543 47.7988 44.405C47.7988 44.251 47.7511 44.119 47.6558 44.009C47.5604 43.8917 47.4174 43.789 47.2268 43.701C47.0361 43.6057 46.7978 43.5103 46.5118 43.415C46.0718 43.2683 45.6978 43.1143 45.3898 42.953C45.0818 42.7843 44.8471 42.5863 44.6858 42.359C44.5244 42.1243 44.4438 41.8347 44.4438 41.49C44.4438 41.1527 44.5318 40.863 44.7078 40.621C44.8911 40.379 45.1588 40.192 45.5108 40.06C45.8701 39.9207 46.3138 39.851 46.8418 39.851C47.2084 39.851 47.5494 39.884 47.8648 39.95C48.1874 40.0087 48.4368 40.093 48.6128 40.203V41.171C48.4881 41.1123 48.3304 41.0537 48.1398 40.995C47.9491 40.9363 47.7401 40.8887 47.5128 40.852C47.2928 40.8153 47.0691 40.797 46.8418 40.797C46.4018 40.797 46.0864 40.863 45.8958 40.995C45.7124 41.1197 45.6208 41.27 45.6208 41.446C45.6208 41.5927 45.6684 41.7173 45.7638 41.82C45.8591 41.9227 46.0168 42.0217 46.2368 42.117C46.4568 42.205 46.7428 42.3113 47.0948 42.436C47.4541 42.5607 47.7768 42.7 48.0628 42.854C48.3488 43.008 48.5724 43.2023 48.7338 43.437C48.8951 43.6717 48.9758 43.965 48.9758 44.317C48.9758 44.6323 48.8988 44.9293 48.7448 45.208C48.5981 45.4793 48.3488 45.6993 47.9968 45.868C47.6521 46.0367 47.1828 46.121 46.5888 46.121ZM52.0565 46.121C51.6239 46.121 51.2095 46.077 50.8135 45.989C50.4249 45.901 50.0912 45.791 49.8125 45.659L50.1535 44.713C50.3075 44.779 50.4835 44.8487 50.6815 44.922C50.8795 44.988 51.0959 45.0467 51.3305 45.098C51.5652 45.142 51.8035 45.164 52.0455 45.164C52.4122 45.164 52.7055 45.1017 52.9255 44.977C53.1529 44.845 53.2665 44.6543 53.2665 44.405C53.2665 44.251 53.2189 44.119 53.1235 44.009C53.0282 43.8917 52.8852 43.789 52.6945 43.701C52.5039 43.6057 52.2655 43.5103 51.9795 43.415C51.5395 43.2683 51.1655 43.1143 50.8575 42.953C50.5495 42.7843 50.3149 42.5863 50.1535 42.359C49.9922 42.1243 49.9115 41.8347 49.9115 41.49C49.9115 41.1527 49.9995 40.863 50.1755 40.621C50.3589 40.379 50.6265 40.192 50.9785 40.06C51.3379 39.9207 51.7815 39.851 52.3095 39.851C52.6762 39.851 53.0172 39.884 53.3325 39.95C53.6552 40.0087 53.9045 40.093 54.0805 40.203V41.171C53.9559 41.1123 53.7982 41.0537 53.6075 40.995C53.4169 40.9363 53.2079 40.8887 52.9805 40.852C52.7605 40.8153 52.5369 40.797 52.3095 40.797C51.8695 40.797 51.5542 40.863 51.3635 40.995C51.1802 41.1197 51.0885 41.27 51.0885 41.446C51.0885 41.5927 51.1362 41.7173 51.2315 41.82C51.3269 41.9227 51.4845 42.0217 51.7045 42.117C51.9245 42.205 52.2105 42.3113 52.5625 42.436C52.9219 42.5607 53.2445 42.7 53.5305 42.854C53.8165 43.008 54.0402 43.2023 54.2015 43.437C54.3629 43.6717 54.4435 43.965 54.4435 44.317C54.4435 44.6323 54.3665 44.9293 54.2125 45.208C54.0659 45.4793 53.8165 45.6993 53.4645 45.868C53.1199 46.0367 52.6505 46.121 52.0565 46.121ZM58.8113 46.11C58.3273 46.11 57.9166 46.0147 57.5793 45.824C57.2493 45.6333 57.022 45.373 56.8973 45.043H56.8313L56.7433 46H55.8083V39.972H56.9853V43.283C56.9853 43.6643 57.044 43.9907 57.1613 44.262C57.2786 44.5333 57.451 44.7423 57.6783 44.889C57.9056 45.0357 58.1806 45.109 58.5033 45.109C58.8993 45.109 59.1963 45.0027 59.3943 44.79C59.5923 44.57 59.6913 44.2473 59.6913 43.822V39.972H60.8683V43.976C60.8683 44.4527 60.7876 44.8487 60.6263 45.164C60.465 45.4793 60.2303 45.7177 59.9223 45.879C59.6143 46.033 59.244 46.11 58.8113 46.11Z" fill="#5B3722"/>
<path d="M24.4681 62.11C23.8521 62.11 23.3608 62.033 22.9941 61.879C22.6275 61.725 22.3598 61.5087 22.1911 61.23C22.0298 60.944 21.9491 60.614 21.9491 60.24C21.9491 59.9027 21.9968 59.635 22.0921 59.437C22.1948 59.2317 22.3231 59.0813 22.4771 58.986C22.6311 58.8907 22.7888 58.8247 22.9501 58.788V58.744C22.7961 58.6927 22.6385 58.6157 22.4771 58.513C22.3231 58.4103 22.1911 58.271 22.0811 58.095C21.9785 57.9117 21.9271 57.6807 21.9271 57.402C21.9271 57.1453 21.9858 56.9033 22.1031 56.676C22.2278 56.4413 22.4258 56.2507 22.6971 56.104C22.9685 55.9573 23.3241 55.884 23.7641 55.884C23.9548 55.884 24.1491 55.8987 24.3471 55.928C24.5451 55.9573 24.6991 56.0013 24.8091 56.06L24.6111 56.918C24.5378 56.896 24.4388 56.874 24.3141 56.852C24.1968 56.83 24.0721 56.819 23.9401 56.819C23.6615 56.819 23.4525 56.885 23.3131 57.017C23.1811 57.149 23.1151 57.3213 23.1151 57.534C23.1151 57.7687 23.1738 57.9483 23.2911 58.073C23.4085 58.1903 23.5588 58.271 23.7421 58.315C23.9328 58.359 24.1271 58.381 24.3251 58.381H24.5451V59.184H24.3251C23.9218 59.184 23.6248 59.2573 23.4341 59.404C23.2435 59.5433 23.1481 59.7817 23.1481 60.119C23.1481 60.3023 23.1848 60.4783 23.2581 60.647C23.3388 60.8083 23.4745 60.9367 23.6651 61.032C23.8558 61.1273 24.1271 61.175 24.4791 61.175C24.8238 61.175 25.0915 61.1273 25.2821 61.032C25.4728 60.9367 25.6085 60.801 25.6891 60.625C25.7771 60.449 25.8211 60.24 25.8211 59.998V55.972H26.9981V59.932C26.9981 60.6947 26.7928 61.2483 26.3821 61.593C25.9715 61.9377 25.3335 62.11 24.4681 62.11ZM30.3703 62V57.809C30.3703 57.4643 30.2897 57.2113 30.1283 57.05C29.9743 56.8887 29.7103 56.808 29.3363 56.808C29.0797 56.808 28.8377 56.8447 28.6103 56.918C28.3903 56.984 28.1813 57.0757 27.9833 57.193V56.181C28.1373 56.1077 28.35 56.0343 28.6213 55.961C28.9 55.8877 29.23 55.851 29.6113 55.851C30 55.851 30.3373 55.9097 30.6233 56.027C30.9167 56.137 31.144 56.3203 31.3053 56.577C31.4667 56.8337 31.5473 57.182 31.5473 57.622V62H30.3703ZM35.3318 62.11C34.8991 62.11 34.5251 62.033 34.2098 61.879C33.9018 61.7177 33.6671 61.4793 33.5058 61.164C33.3444 60.8413 33.2638 60.4343 33.2638 59.943V55.972H34.4408V59.822C34.4408 60.2473 34.5434 60.57 34.7488 60.79C34.9541 61.0027 35.2511 61.109 35.6398 61.109C36.1164 61.109 36.4831 60.9477 36.7398 60.625C37.0038 60.3023 37.1358 59.855 37.1358 59.283V55.972H38.3128V62H37.3778L37.2898 61.098H37.2238C37.0918 61.3913 36.8644 61.6333 36.5418 61.824C36.2264 62.0147 35.8231 62.11 35.3318 62.11ZM42.5043 62.11C41.8883 62.11 41.3969 62.033 41.0303 61.879C40.6636 61.725 40.3959 61.5087 40.2273 61.23C40.0659 60.944 39.9853 60.614 39.9853 60.24C39.9853 59.9027 40.0329 59.635 40.1283 59.437C40.2309 59.2317 40.3593 59.0813 40.5133 58.986C40.6673 58.8907 40.8249 58.8247 40.9863 58.788V58.744C40.8323 58.6927 40.6746 58.6157 40.5133 58.513C40.3593 58.4103 40.2273 58.271 40.1173 58.095C40.0146 57.9117 39.9633 57.6807 39.9633 57.402C39.9633 57.1453 40.0219 56.9033 40.1393 56.676C40.2639 56.4413 40.4619 56.2507 40.7333 56.104C41.0046 55.9573 41.3603 55.884 41.8003 55.884C41.9909 55.884 42.1853 55.8987 42.3833 55.928C42.5813 55.9573 42.7353 56.0013 42.8453 56.06L42.6473 56.918C42.5739 56.896 42.4749 56.874 42.3503 56.852C42.2329 56.83 42.1083 56.819 41.9763 56.819C41.6976 56.819 41.4886 56.885 41.3493 57.017C41.2173 57.149 41.1513 57.3213 41.1513 57.534C41.1513 57.7687 41.2099 57.9483 41.3273 58.073C41.4446 58.1903 41.5949 58.271 41.7783 58.315C41.9689 58.359 42.1633 58.381 42.3613 58.381H42.5813V59.184H42.3613C41.9579 59.184 41.6609 59.2573 41.4703 59.404C41.2796 59.5433 41.1843 59.7817 41.1843 60.119C41.1843 60.3023 41.2209 60.4783 41.2943 60.647C41.3749 60.8083 41.5106 60.9367 41.7013 61.032C41.8919 61.1273 42.1633 61.175 42.5153 61.175C42.8599 61.175 43.1276 61.1273 43.3183 61.032C43.5089 60.9367 43.6446 60.801 43.7253 60.625C43.8133 60.449 43.8573 60.24 43.8573 59.998V55.972H45.0343V59.932C45.0343 60.6947 44.8289 61.2483 44.4183 61.593C44.0076 61.9377 43.3696 62.11 42.5043 62.11ZM48.8025 62.11C48.3698 62.11 47.9958 62.033 47.6805 61.879C47.3725 61.7177 47.1378 61.4793 46.9765 61.164C46.8151 60.8413 46.7345 60.4343 46.7345 59.943V55.972H47.9115V59.822C47.9115 60.2473 48.0141 60.57 48.2195 60.79C48.4248 61.0027 48.7218 61.109 49.1105 61.109C49.5871 61.109 49.9538 60.9477 50.2105 60.625C50.4745 60.3023 50.6065 59.855 50.6065 59.283V55.972H51.7835V62H50.8485L50.7605 61.098H50.6945C50.5625 61.3913 50.3351 61.6333 50.0125 61.824C49.6971 62.0147 49.2938 62.11 48.8025 62.11ZM55.766 62.11C55.1426 62.11 54.6586 61.9707 54.314 61.692C53.9693 61.4133 53.7273 61.032 53.588 60.548C53.456 60.064 53.39 59.5067 53.39 58.876C53.39 58.1573 53.456 57.578 53.588 57.138C53.7273 56.698 53.9326 56.3753 54.204 56.17C54.4753 55.9647 54.8053 55.862 55.194 55.862C55.4506 55.862 55.6706 55.9097 55.854 56.005C56.0373 56.093 56.173 56.247 56.261 56.467H56.305C56.3856 56.2397 56.525 56.082 56.723 55.994C56.9283 55.906 57.163 55.862 57.427 55.862C57.911 55.862 58.2813 55.9903 58.538 56.247C58.802 56.5037 58.934 56.8923 58.934 57.413V62H57.757V57.512C57.757 57.248 57.702 57.0683 57.592 56.973C57.482 56.8777 57.339 56.83 57.163 56.83C56.9723 56.83 56.833 56.8777 56.745 56.973C56.657 57.0683 56.602 57.226 56.58 57.446H55.953C55.9236 57.204 55.8503 57.0427 55.733 56.962C55.623 56.874 55.4983 56.83 55.359 56.83C55.1023 56.83 54.9043 56.9877 54.765 57.303C54.633 57.6183 54.567 58.1463 54.567 58.887C54.567 59.3637 54.6036 59.7743 54.677 60.119C54.7503 60.4563 54.8823 60.7167 55.073 60.9C55.271 61.076 55.557 61.164 55.931 61.164C56.0556 61.164 56.162 61.1567 56.25 61.142C56.3453 61.1273 56.4296 61.109 56.503 61.087L56.624 61.967C56.514 62.0183 56.382 62.055 56.228 62.077C56.0813 62.099 55.9273 62.11 55.766 62.11ZM56.8747 55.345C56.8233 55.257 56.783 55.147 56.7537 55.015C56.717 54.8757 56.6987 54.7363 56.6987 54.597C56.6987 54.4283 56.7317 54.2707 56.7977 54.124C56.8637 53.9773 56.9883 53.86 57.1717 53.772C57.3477 53.684 57.5897 53.64 57.8977 53.64H59.4267V54.498H58.2387C58.092 54.498 57.9783 54.5237 57.8977 54.575C57.8097 54.6263 57.7657 54.718 57.7657 54.85C57.7657 54.9013 57.7767 54.9563 57.7987 55.015C57.8133 55.0737 57.8353 55.1323 57.8647 55.191L56.8747 55.345Z" fill="#5B3722"/>
<defs>
<clipPath id="clip0_4895_96471">
<rect width="22.6091" height="22.5882" fill="white" transform="translate(28.2612 11.2941)"/>
</clipPath>
</defs>
</svg>
