<svg width="80" height="80" viewBox="0 0 80 80" fill="none" xmlns="http://www.w3.org/2000/svg">
<path d="M12.2006 12.2925H25.17C25.17 12.2925 25.4284 8.8162 27.1762 7.62652C29.3357 6.15857 39.0598 4.85597 45.8977 5.81578C53.4339 6.87238 55.1979 9.72762 54.5843 12.1029L67.9372 12.2965V24.4676L71.9657 26.4799L74.5854 34.3117L73.4511 52.79L67.9332 56.2784L67.9695 67.7437H54.9799L53.9021 72.4177L40.9852 74.5027L29.6143 72.8855L25.7634 70.9458L25.3315 67.4574L14.788 67.4211L11.4135 67.171L11.5871 55.1291L7.37694 52.3988L5.04785 41.0061L7.13071 27.4518L11.8373 24.0401L12.1885 12.3006L12.2006 12.2925Z" fill="#F8F3E8"/>
<path d="M73.5883 6.89259V21.0074C73.5883 21.1768 75.3281 21.9632 76.1758 23.0601C81.4112 29.8433 81.2659 50.6285 75.7721 57.2665C74.9648 58.2424 73.5883 58.7788 73.5883 58.9159V73.0308H59.6623C59.4483 73.0308 57.6682 75.6319 56.8367 76.257C49.2278 81.9635 27.9633 81.0843 21.1012 74.035C20.7661 73.6922 20.7661 73.0348 20.7096 73.0348H6.5817V59.5249C6.5817 59.1902 4.93883 58.3473 4.56343 57.9118C-1.61652 50.7293 -1.4712 29.1336 4.70471 21.9632C5.00745 21.6124 6.5817 20.7977 6.5817 20.4106V6.89259H20.1041C20.4392 6.89259 21.8116 4.75923 22.3484 4.29545C29.0289 -1.5118 50.3015 -1.2779 57.2403 4.07365C57.9831 4.64631 59.4766 6.89662 59.6623 6.89662H73.5883V6.89259ZM58.2495 8.10243C58.1687 7.01761 57.4341 6.15055 56.647 5.469C50.685 0.302967 26.3446 -0.370514 22.1547 6.94905C21.9085 7.38056 21.9811 8.10647 21.9206 8.10647H7.79267V21.818C7.79267 22.0156 5.63312 23.0279 4.78948 24.2619C0.490559 30.5773 0.24433 49.7735 4.96709 55.8913C5.54028 56.6333 7.79267 58.1255 7.79267 58.311V71.216L8.39815 71.8209H21.9206C22.0336 71.8209 22.2758 73.0993 22.9176 73.8535C28.1853 80.0116 52.8486 80.0559 57.7974 73.1679C58.1203 72.7202 58.1809 71.8209 58.2495 71.8209H71.9737V58.1094C71.9737 57.9964 73.2654 57.7988 74.0122 57.1173C79.9903 51.673 80.2365 27.226 73.3219 22.2657C72.8739 21.9431 71.9737 21.8826 71.9737 21.814V8.10243H58.2495Z" fill="#5B3722"/>
<path d="M58.2495 8.1025H71.9737V21.8141C71.9737 21.8867 72.8739 21.9431 73.3219 22.2658C80.2365 27.2261 79.9903 51.673 74.0122 57.1174C73.2654 57.7989 71.9737 57.9965 71.9737 58.1094V71.821H58.2495C58.1768 71.821 58.1203 72.7203 57.7974 73.168C52.8486 80.056 28.1853 80.0117 22.9176 73.8535C22.2758 73.1034 22.0336 71.821 21.9206 71.821H8.39816L7.79268 71.2161V58.3111C7.79268 58.1256 5.54029 56.6334 4.9671 55.8914C0.244342 49.7736 0.490571 30.5774 4.78949 24.262C5.62909 23.0239 7.79268 22.0117 7.79268 21.8181V8.1025H21.9206C21.9811 8.1025 21.9085 7.37659 22.1547 6.94508C26.3446 -0.370447 50.685 0.303034 56.647 5.46907C57.4341 6.15062 58.1688 7.01767 58.2495 8.1025ZM23.5352 10.1189H9.81095V23.4272H8.60403V23.8265H10.2186V10.5222H23.9429C23.5433 7.01364 26.5263 6.0135 29.2873 5.17468C30.1915 4.90044 33.1301 4.06968 33.8324 4.06968H45.9421C46.2731 4.06968 48.2671 5.23114 48.5658 4.06968C42.2042 3.19456 35.7619 2.83161 29.5093 4.58588C26.7766 5.35212 23.0185 6.56196 23.5392 10.1149L23.5352 10.1189ZM55.0202 11.732C55.2463 8.72759 53.9788 7.67502 51.3833 6.69505C45.712 4.55765 33.6992 4.4528 28.1086 6.82006C25.3597 7.98152 24.7906 8.50981 25.1539 11.732H11.4256V24.637C8.72109 25.0444 7.91781 25.4799 6.90868 27.9883C4.51904 33.9327 4.26878 47.124 7.18316 52.8668C8.4022 55.2703 9.56069 54.3186 11.4256 55.4841V68.1874H25.1498C24.391 72.0993 26.8048 72.7727 29.9896 73.6358C35.7902 75.2045 46.4143 75.3175 52.0009 73.0349C54.7942 71.8936 54.9758 71.3976 55.0202 68.1874H68.3408L68.353 55.3187C70.5892 54.8146 71.4167 54.9961 72.5994 52.8829C75.647 47.4386 75.5824 32.7672 72.8456 27.1818C71.453 24.3427 70.3551 25.7703 68.4054 23.9474L68.6436 12.3128L68.135 11.724H55.0162L55.0202 11.732ZM56.6349 10.1189L55.4279 7.29594L56.2312 10.5222H69.5518V23.2256L72.3734 24.2297V23.8345L70.3591 23.4272V10.7238L69.7536 10.1189H56.6349ZM5.36672 52.0602C4.07099 46.0432 3.34844 40.3247 4.20823 34.1626C4.53923 31.7872 5.508 29.4522 5.57258 27.0527C3.19102 33.1665 2.97708 40.0787 3.81265 46.5635L5.36672 52.0602ZM76.4139 45.406C76.7449 41.8047 76.1677 37.7679 76.4139 34.1142L75.6107 31.4928C76.2767 38.76 76.531 46.0916 73.9839 53.0603C74.4845 53.629 75.0254 51.54 75.09 51.3383C75.5784 49.7817 76.2686 46.9668 76.4139 45.402V45.406ZM70.3591 56.4963C71.6145 56.5891 73.883 55.2824 73.3865 54.0766C71.7558 56.5044 69.5518 55.0808 69.5518 58.3111V69.4013H56.2312L55.8316 72.2243H56.2272L56.6349 69.8046H69.7536L70.3591 69.1997V56.4963ZM10.2146 56.093C8.71705 56.1374 7.66351 55.3671 6.58575 54.4799C6.59383 56.0446 8.57981 56.4156 9.81095 56.4963V69.8046H23.5352C23.1114 72.4662 25.0449 73.5148 27.1721 74.4383C32.2662 76.6483 40.412 76.8862 45.8856 76.2087C47.8715 75.9627 49.8171 75.3537 51.787 75.0432C51.8839 74.3173 50.911 74.6762 50.4791 74.7448C48.6062 75.0432 46.7252 75.7288 44.7432 75.8699C39.754 76.2329 32.5044 76.0151 27.8705 74.1439C25.5414 73.2043 23.5554 72.3574 23.9389 69.4013H10.2146V56.093Z" fill="#F8F3E8"/>
<path d="M70.3591 56.4963V69.1997L69.7536 69.8046H56.6348L56.2271 72.2203H55.8315L56.2312 69.4013H69.5518V58.3111C69.5518 55.0808 71.7557 56.5044 73.3865 54.0766C73.8789 55.2784 71.6104 56.5891 70.3591 56.4963Z" fill="#5B3722"/>
<path d="M56.6347 10.1189H69.7534L70.3589 10.7239V23.4272L72.3731 23.8386V24.2298L69.5516 23.2256V10.5222H56.231L55.4277 7.29596L56.6347 10.1189Z" fill="#5B3722"/>
<path d="M10.2148 56.093V69.4013H23.939C23.5556 72.3574 25.5415 73.2043 27.8706 74.1439C32.5046 76.0151 39.7502 76.2329 44.7434 75.8699C46.7294 75.7248 48.6104 75.0392 50.4793 74.7448C50.9112 74.6762 51.884 74.3173 51.7872 75.0432C49.8173 75.3537 47.8717 75.9627 45.8857 76.2087C40.4122 76.8862 32.2624 76.6483 27.1723 74.4383C25.0451 73.5148 23.1075 72.4662 23.5354 69.8046H9.81114V56.4963C8.57999 56.4156 6.59401 56.0446 6.58594 54.4799C7.66369 55.3671 8.71723 56.1374 10.2148 56.093Z" fill="#5B3722"/>
<path d="M23.5353 10.1188C23.0146 6.56189 26.7726 5.35205 29.5054 4.58984C35.758 2.8396 42.2003 3.20256 48.5619 4.07364C48.2632 5.23106 46.2732 4.07364 45.9381 4.07364H33.8285C33.1302 4.07364 30.1875 4.9044 29.2834 5.17864C26.5183 6.01746 23.5393 7.01357 23.939 10.5262H10.2147V23.8344H8.6001V23.4352H9.80702V10.1188H23.5313H23.5353Z" fill="#5B3722"/>
<path d="M5.36678 52.0601L3.81271 46.5634C2.98119 40.0827 3.19109 33.1704 5.57265 27.0526C5.50403 29.4481 4.53929 31.7831 4.2083 34.1625C3.34851 40.3246 4.07509 46.0432 5.36678 52.0601Z" fill="#5B3722"/>
<path d="M76.4139 45.406C76.2686 46.9707 75.5783 49.7816 75.0899 51.3423C75.0294 51.544 74.4844 53.633 73.9839 53.0643C76.5269 46.0956 76.2726 38.764 75.6106 31.4968L76.4139 34.1182C76.1677 37.7719 76.7449 41.8087 76.4139 45.41V45.406Z" fill="#5B3722"/>
<path d="M55.0205 11.7319H68.1392L68.6479 12.3207L68.4097 23.9554C70.3593 25.7822 71.4573 24.3546 72.8499 27.1897C75.5867 32.7711 75.6513 47.4465 72.6037 52.8908C71.421 55.004 70.5894 54.8225 68.3572 55.3266L68.3451 68.1954H55.0245C54.9801 71.4055 54.7985 71.9015 52.0052 73.0428C46.4226 75.3254 35.7985 75.2124 29.9939 73.6437C26.8091 72.7807 24.3952 72.1072 25.1541 68.1954H11.4258V55.492C9.56091 54.3265 8.40243 55.2782 7.18339 52.8747C4.269 47.132 4.51927 33.9406 6.9089 27.9962C7.91804 25.4878 8.71728 25.0482 11.4258 24.645V11.7319H25.15C24.7868 8.50967 25.3559 7.9854 28.1048 6.81992C33.6954 4.45266 45.7122 4.56154 51.3795 6.6949C53.975 7.67488 55.2425 8.72744 55.0164 11.7319H55.0205ZM25.3519 12.9417H12.6368V24.8385C11.4339 26.4194 9.74659 25.4798 8.50738 27.1655C5.31851 31.5169 5.63739 46.8537 7.88575 51.7657C9.22184 54.6854 10.7436 53.1892 12.6368 55.0847V66.9815H25.3519C26.3449 67.8485 25.913 69.5988 26.4498 70.7239C27.6245 73.1839 39.1932 73.9623 41.9219 73.8574C43.8998 73.7808 53.1596 72.6234 53.749 70.7522C53.9589 70.0827 53.5471 66.9815 54.8187 66.9815H67.5338V54.4797C70.5289 53.8224 71.0577 54.137 72.1718 51.2495C74.0488 46.3899 74.2748 38.5461 73.4796 33.4204C72.858 29.4198 72.3251 25.6007 67.5338 25.4475V12.9458H54.8187C53.3453 12.0989 54.2172 9.62676 53.5512 8.87262C52.2272 7.37242 44.1137 6.17467 41.9219 6.06982C39.0761 5.9327 28.02 6.45697 26.583 8.93312C26.0341 9.88083 26.1592 12.6836 25.3519 12.9458V12.9417Z" fill="#5B3722"/>
<rect x="41.4497" y="17.8824" width="7.53637" height="12.2353" rx="2" stroke="#5B3722" stroke-width="1.5"/>
<path d="M47.102 15.0588H34.0293C32.9247 15.0588 32.0293 15.9543 32.0293 17.0588V27.2941H38.6236" stroke="#5B3722" stroke-width="1.5" stroke-linecap="round"/>
<path d="M38.6239 27.2941H31.5573C30.7776 27.2941 30.1455 27.9262 30.1455 28.7059C30.1455 29.4856 30.7776 30.1177 31.5573 30.1177H38.6239" stroke="#5B3722" stroke-width="1.5" stroke-linecap="round"/>
<path d="M21.4622 46.121C21.1542 46.121 20.8572 46.088 20.5712 46.022C20.2852 45.956 19.9918 45.8424 19.6912 45.681L20.0432 44.801C20.2045 44.8964 20.3915 44.9807 20.6042 45.054C20.8168 45.12 21.0515 45.153 21.3082 45.153C21.8068 45.153 22.1992 44.966 22.4852 44.592C22.7712 44.218 22.9142 43.6754 22.9142 42.964C22.9142 42.2674 22.7675 41.7357 22.4742 41.369C22.1882 41.0024 21.7408 40.819 21.1322 40.819C20.8975 40.819 20.6555 40.8484 20.4062 40.907C20.1642 40.9584 19.9515 41.0354 19.7682 41.138V40.159C19.9882 40.049 20.2302 39.972 20.4942 39.928C20.7582 39.8767 21.0258 39.851 21.2972 39.851C21.9645 39.851 22.5035 39.9794 22.9142 40.236C23.3322 40.4927 23.6365 40.8557 23.8272 41.325C24.0252 41.787 24.1242 42.3334 24.1242 42.964C24.1242 43.954 23.8968 44.7277 23.4422 45.285C22.9948 45.8424 22.3348 46.121 21.4622 46.121ZM19.1821 39.048V38.542L20.0731 38.157H23.9671V39.048H19.1821ZM25.6207 46V42.227C25.6207 41.457 25.826 40.8704 26.2367 40.467C26.6474 40.0564 27.3 39.851 28.1947 39.851C28.6127 39.851 28.972 39.9024 29.2727 40.005C29.5734 40.1077 29.808 40.2837 29.9767 40.533C30.2627 40.665 30.4644 40.8814 30.5817 41.182C30.7064 41.4754 30.7687 41.8274 30.7687 42.238V46H29.5917V42.227C29.5917 41.765 29.4744 41.4167 29.2397 41.182C29.0124 40.94 28.664 40.819 28.1947 40.819C27.7254 40.819 27.3734 40.94 27.1387 41.182C26.904 41.4167 26.7867 41.765 26.7867 42.227V43.371L26.8197 43.382C26.9884 43.096 27.179 42.909 27.3917 42.821C27.6117 42.7257 27.9234 42.678 28.3267 42.678H28.6567V43.602H28.3267C27.9087 43.602 27.586 43.6644 27.3587 43.789C27.1387 43.9137 26.9884 44.0787 26.9077 44.284C26.827 44.482 26.7867 44.7057 26.7867 44.955V46H25.6207ZM29.9877 40.918L29.3387 40.335C29.5514 40.291 29.7384 40.2067 29.8997 40.082C30.061 39.9574 30.1417 39.7887 30.1417 39.576H31.2417C31.2417 39.8034 31.1904 40.0087 31.0877 40.192C30.985 40.3754 30.8384 40.5294 30.6477 40.654C30.4644 40.7714 30.2444 40.8594 29.9877 40.918ZM33.9446 46.121C33.6366 46.121 33.3396 46.088 33.0536 46.022C32.7676 45.956 32.4743 45.8424 32.1736 45.681L32.5256 44.801C32.6869 44.8964 32.8739 44.9807 33.0866 45.054C33.2993 45.12 33.5339 45.153 33.7906 45.153C34.2893 45.153 34.6816 44.966 34.9676 44.592C35.2536 44.218 35.3966 43.6754 35.3966 42.964C35.3966 42.2674 35.2499 41.7357 34.9566 41.369C34.6706 41.0024 34.2233 40.819 33.6146 40.819C33.3799 40.819 33.1379 40.8484 32.8886 40.907C32.6466 40.9584 32.4339 41.0354 32.2506 41.138V40.159C32.4706 40.049 32.7126 39.972 32.9766 39.928C33.2406 39.8767 33.5083 39.851 33.7796 39.851C34.4469 39.851 34.9859 39.9794 35.3966 40.236C35.8146 40.4927 36.1189 40.8557 36.3096 41.325C36.5076 41.787 36.6066 42.3334 36.6066 42.964C36.6066 43.954 36.3793 44.7277 35.9246 45.285C35.4773 45.8424 34.8173 46.121 33.9446 46.121ZM38.0481 46V43.987C38.0481 43.525 38.1471 43.184 38.3451 42.964C38.5431 42.744 38.8035 42.59 39.1261 42.502L39.1371 42.458L37.9381 42.007V41.666C37.9381 41.3507 38.0371 41.0537 38.2351 40.775C38.4405 40.4964 38.7338 40.2727 39.1151 40.104C39.4965 39.9354 39.9585 39.851 40.5011 39.851C40.9778 39.851 41.4105 39.928 41.7991 40.082C42.1878 40.2287 42.4958 40.4597 42.7231 40.775C42.9505 41.0904 43.0641 41.501 43.0641 42.007V46H41.8871V42.106C41.8871 41.6514 41.7551 41.325 41.4911 41.127C41.2271 40.9217 40.8898 40.819 40.4791 40.819C40.0611 40.819 39.7348 40.907 39.5001 41.083C39.2655 41.2517 39.1445 41.468 39.1371 41.732L40.2701 42.282L40.1711 42.865C39.8998 42.8724 39.6725 42.964 39.4891 43.14C39.3131 43.316 39.2251 43.5874 39.2251 43.954V46H38.0481ZM46.5888 46.121C46.1561 46.121 45.7418 46.077 45.3458 45.989C44.9571 45.901 44.6234 45.791 44.3448 45.659L44.6858 44.713C44.8398 44.779 45.0158 44.8487 45.2138 44.922C45.4118 44.988 45.6281 45.0467 45.8628 45.098C46.0974 45.142 46.3358 45.164 46.5778 45.164C46.9444 45.164 47.2378 45.1017 47.4578 44.977C47.6851 44.845 47.7988 44.6544 47.7988 44.405C47.7988 44.251 47.7511 44.119 47.6558 44.009C47.5604 43.8917 47.4174 43.789 47.2268 43.701C47.0361 43.6057 46.7978 43.5104 46.5118 43.415C46.0718 43.2684 45.6978 43.1144 45.3898 42.953C45.0818 42.7844 44.8471 42.5864 44.6858 42.359C44.5244 42.1244 44.4438 41.8347 44.4438 41.49C44.4438 41.1527 44.5318 40.863 44.7078 40.621C44.8911 40.379 45.1588 40.192 45.5108 40.06C45.8701 39.9207 46.3138 39.851 46.8418 39.851C47.2084 39.851 47.5494 39.884 47.8648 39.95C48.1874 40.0087 48.4368 40.093 48.6128 40.203V41.171C48.4881 41.1124 48.3304 41.0537 48.1398 40.995C47.9491 40.9364 47.7401 40.8887 47.5128 40.852C47.2928 40.8154 47.0691 40.797 46.8418 40.797C46.4018 40.797 46.0864 40.863 45.8958 40.995C45.7124 41.1197 45.6208 41.27 45.6208 41.446C45.6208 41.5927 45.6684 41.7174 45.7638 41.82C45.8591 41.9227 46.0168 42.0217 46.2368 42.117C46.4568 42.205 46.7428 42.3114 47.0948 42.436C47.4541 42.5607 47.7768 42.7 48.0628 42.854C48.3488 43.008 48.5724 43.2024 48.7338 43.437C48.8951 43.6717 48.9758 43.965 48.9758 44.317C48.9758 44.6324 48.8988 44.9294 48.7448 45.208C48.5981 45.4794 48.3488 45.6994 47.9968 45.868C47.6521 46.0367 47.1828 46.121 46.5888 46.121ZM52.0565 46.121C51.6239 46.121 51.2095 46.077 50.8135 45.989C50.4249 45.901 50.0912 45.791 49.8125 45.659L50.1535 44.713C50.3075 44.779 50.4835 44.8487 50.6815 44.922C50.8795 44.988 51.0959 45.0467 51.3305 45.098C51.5652 45.142 51.8035 45.164 52.0455 45.164C52.4122 45.164 52.7055 45.1017 52.9255 44.977C53.1529 44.845 53.2665 44.6544 53.2665 44.405C53.2665 44.251 53.2189 44.119 53.1235 44.009C53.0282 43.8917 52.8852 43.789 52.6945 43.701C52.5039 43.6057 52.2655 43.5104 51.9795 43.415C51.5395 43.2684 51.1655 43.1144 50.8575 42.953C50.5495 42.7844 50.3149 42.5864 50.1535 42.359C49.9922 42.1244 49.9115 41.8347 49.9115 41.49C49.9115 41.1527 49.9995 40.863 50.1755 40.621C50.3589 40.379 50.6265 40.192 50.9785 40.06C51.3379 39.9207 51.7815 39.851 52.3095 39.851C52.6762 39.851 53.0172 39.884 53.3325 39.95C53.6552 40.0087 53.9045 40.093 54.0805 40.203V41.171C53.9559 41.1124 53.7982 41.0537 53.6075 40.995C53.4169 40.9364 53.2079 40.8887 52.9805 40.852C52.7605 40.8154 52.5369 40.797 52.3095 40.797C51.8695 40.797 51.5542 40.863 51.3635 40.995C51.1802 41.1197 51.0885 41.27 51.0885 41.446C51.0885 41.5927 51.1362 41.7174 51.2315 41.82C51.3269 41.9227 51.4845 42.0217 51.7045 42.117C51.9245 42.205 52.2105 42.3114 52.5625 42.436C52.9219 42.5607 53.2445 42.7 53.5305 42.854C53.8165 43.008 54.0402 43.2024 54.2015 43.437C54.3629 43.6717 54.4435 43.965 54.4435 44.317C54.4435 44.6324 54.3665 44.9294 54.2125 45.208C54.0659 45.4794 53.8165 45.6994 53.4645 45.868C53.1199 46.0367 52.6505 46.121 52.0565 46.121ZM58.8113 46.11C58.3273 46.11 57.9166 46.0147 57.5793 45.824C57.2493 45.6334 57.022 45.373 56.8973 45.043H56.8313L56.7433 46H55.8083V39.972H56.9853V43.283C56.9853 43.6644 57.044 43.9907 57.1613 44.262C57.2786 44.5334 57.451 44.7424 57.6783 44.889C57.9056 45.0357 58.1806 45.109 58.5033 45.109C58.8993 45.109 59.1963 45.0027 59.3943 44.79C59.5923 44.57 59.6913 44.2474 59.6913 43.822V39.972H60.8683V43.976C60.8683 44.4527 60.7876 44.8487 60.6263 45.164C60.465 45.4794 60.2303 45.7177 59.9223 45.879C59.6143 46.033 59.244 46.11 58.8113 46.11Z" fill="#5B3722"/>
<path d="M16.0554 62V58.57C16.0554 57.87 16.2421 57.3367 16.6154 56.97C16.9887 56.5967 17.5821 56.41 18.3954 56.41C19.2154 56.41 19.8087 56.5967 20.1754 56.97C20.5487 57.3367 20.7354 57.87 20.7354 58.57V62H19.6654V58.57C19.6654 58.15 19.5587 57.8334 19.3454 57.62C19.1321 57.4 18.8121 57.29 18.3854 57.29C17.9587 57.29 17.6387 57.4 17.4254 57.62C17.2187 57.8334 17.1154 58.15 17.1154 58.57V59.61L17.1454 59.62C17.2854 59.36 17.4554 59.19 17.6554 59.11C17.8621 59.0234 18.1454 58.98 18.5054 58.98H18.8154V59.82H18.5054C18.1254 59.82 17.8354 59.8767 17.6354 59.99C17.4354 60.1034 17.2987 60.2534 17.2254 60.44C17.1521 60.62 17.1154 60.8234 17.1154 61.05V62H16.0554ZM24.2959 62.11C23.5492 62.11 22.9892 61.92 22.6159 61.54C22.2492 61.1534 22.0659 60.56 22.0659 59.76C22.0659 59.6267 22.0692 59.4767 22.0759 59.31C22.0892 59.1434 22.1059 58.9867 22.1259 58.84H24.3159V59.61H23.1359V59.79C23.1359 60.1634 23.1759 60.46 23.2559 60.68C23.3425 60.9 23.4692 61.0534 23.6359 61.14C23.8092 61.2267 24.0225 61.27 24.2759 61.27C24.5559 61.27 24.7959 61.2167 24.9959 61.11C25.1959 61.0034 25.3492 60.81 25.4559 60.53C25.5692 60.2434 25.6259 59.84 25.6259 59.32C25.6259 58.8534 25.5759 58.4734 25.4759 58.18C25.3759 57.88 25.2059 57.6567 24.9659 57.51C24.7325 57.3634 24.4192 57.29 24.0259 57.29C23.8125 57.29 23.6025 57.31 23.3959 57.35C23.1959 57.3834 23.0025 57.4367 22.8159 57.51C22.6292 57.5767 22.4492 57.66 22.2759 57.76V56.8C22.4159 56.7267 22.5859 56.6634 22.7859 56.61C22.9859 56.55 23.2059 56.5034 23.4459 56.47C23.6859 56.43 23.9325 56.41 24.1859 56.41C24.7859 56.41 25.2725 56.53 25.6459 56.77C26.0192 57.0034 26.2925 57.3367 26.4659 57.77C26.6392 58.1967 26.7259 58.7067 26.7259 59.3C26.7259 59.8934 26.6459 60.4 26.4859 60.82C26.3259 61.24 26.0659 61.56 25.7059 61.78C25.3525 62 24.8825 62.11 24.2959 62.11ZM30.8966 62.1C30.4566 62.1 30.0833 62.0134 29.7766 61.84C29.4766 61.6667 29.27 61.43 29.1566 61.13H29.0966L29.0166 62H28.1666V56.52H29.2366V59.53C29.2366 59.8767 29.29 60.1734 29.3966 60.42C29.5033 60.6667 29.66 60.8567 29.8666 60.99C30.0733 61.1234 30.3233 61.19 30.6166 61.19C30.9766 61.19 31.2466 61.0934 31.4266 60.9C31.6066 60.7 31.6966 60.4067 31.6966 60.02V56.52H32.7666V60.16C32.7666 60.5934 32.6933 60.9534 32.5466 61.24C32.4 61.5267 32.1866 61.7434 31.9066 61.89C31.6266 62.03 31.29 62.1 30.8966 62.1ZM34.8971 62L33.9171 56.52H34.9871L35.3471 58.77C35.3738 58.95 35.4038 59.19 35.4371 59.49C35.4704 59.79 35.5071 60.14 35.5471 60.54H35.5771C35.6371 60.2667 35.6938 60.02 35.7471 59.8C35.8004 59.58 35.8504 59.3834 35.8971 59.21C35.9438 59.03 35.9871 58.8734 36.0271 58.74L36.6571 56.52H37.4471L38.0871 58.74C38.1204 58.8734 38.1604 59.03 38.2071 59.21C38.2604 59.3834 38.3138 59.58 38.3671 59.8C38.4204 60.02 38.4771 60.2667 38.5371 60.54H38.5671C38.6071 60.14 38.6404 59.79 38.6671 59.49C38.7004 59.19 38.7338 58.95 38.7671 58.77L39.1271 56.52H40.1971L39.2271 62H38.1771L37.3471 59.24C37.2938 59.0467 37.2438 58.8567 37.1971 58.67C37.1571 58.4767 37.1204 58.2434 37.0871 57.97H37.0471C37.0204 58.15 36.9904 58.3134 36.9571 58.46C36.9304 58.6 36.9004 58.7334 36.8671 58.86C36.8338 58.9867 36.7971 59.1134 36.7571 59.24L35.9271 62H34.8971ZM35.4365 55.68V55.22L36.2465 54.87H39.7865V55.68H35.4365ZM42.5581 62.11C42.2781 62.11 42.0081 62.08 41.7481 62.02C41.4881 61.96 41.2215 61.8567 40.9481 61.71L41.2681 60.91C41.4148 60.9967 41.5848 61.0734 41.7781 61.14C41.9715 61.2 42.1848 61.23 42.4181 61.23C42.8715 61.23 43.2281 61.06 43.4881 60.72C43.7481 60.38 43.8781 59.8867 43.8781 59.24C43.8781 58.6067 43.7448 58.1234 43.4781 57.79C43.2181 57.4567 42.8115 57.29 42.2581 57.29C42.0448 57.29 41.8248 57.3167 41.5981 57.37C41.3781 57.4167 41.1848 57.4867 41.0181 57.58V56.69C41.2181 56.59 41.4381 56.52 41.6781 56.48C41.9181 56.4334 42.1615 56.41 42.4081 56.41C43.0148 56.41 43.5048 56.5267 43.8781 56.76C44.2581 56.9934 44.5348 57.3234 44.7081 57.75C44.8881 58.17 44.9781 58.6667 44.9781 59.24C44.9781 60.14 44.7715 60.8434 44.3581 61.35C43.9515 61.8567 43.3515 62.11 42.5581 62.11ZM47.6686 62.1C47.4486 62.1 47.2486 62.0667 47.0686 62C46.8953 61.9267 46.7553 61.81 46.6486 61.65C46.5419 61.4834 46.4886 61.26 46.4886 60.98V56.52H47.5586V60.85C47.5586 60.9967 47.5886 61.1034 47.6486 61.17C47.7153 61.23 47.8186 61.26 47.9586 61.26C48.0119 61.26 48.0719 61.2534 48.1386 61.24C48.2053 61.2267 48.2686 61.21 48.3286 61.19L48.4486 61.94C48.3219 62 48.1919 62.04 48.0586 62.06C47.9319 62.0867 47.8019 62.1 47.6686 62.1ZM51.3069 62.1C50.7402 62.1 50.3002 61.9734 49.9869 61.72C49.6735 61.4667 49.4535 61.12 49.3269 60.68C49.2069 60.24 49.1469 59.7334 49.1469 59.16C49.1469 58.5067 49.2069 57.98 49.3269 57.58C49.4535 57.18 49.6402 56.8867 49.8869 56.7C50.1335 56.5134 50.4335 56.42 50.7869 56.42C51.0202 56.42 51.2202 56.4634 51.3869 56.55C51.5535 56.63 51.6769 56.77 51.7569 56.97H51.7969C51.8702 56.7634 51.9969 56.62 52.1769 56.54C52.3635 56.46 52.5769 56.42 52.8169 56.42C53.2569 56.42 53.5935 56.5367 53.8269 56.77C54.0669 57.0034 54.1869 57.3567 54.1869 57.83V62H53.1169V57.92C53.1169 57.68 53.0669 57.5167 52.9669 57.43C52.8669 57.3434 52.7369 57.3 52.5769 57.3C52.4035 57.3 52.2769 57.3434 52.1969 57.43C52.1169 57.5167 52.0669 57.66 52.0469 57.86H51.4769C51.4502 57.64 51.3835 57.4934 51.2769 57.42C51.1769 57.34 51.0635 57.3 50.9369 57.3C50.7035 57.3 50.5235 57.4434 50.3969 57.73C50.2769 58.0167 50.2169 58.4967 50.2169 59.17C50.2169 59.6034 50.2502 59.9767 50.3169 60.29C50.3835 60.5967 50.5035 60.8334 50.6769 61C50.8569 61.16 51.1169 61.24 51.4569 61.24C51.5702 61.24 51.6669 61.2334 51.7469 61.22C51.8335 61.2067 51.9102 61.19 51.9769 61.17L52.0869 61.97C51.9869 62.0167 51.8669 62.05 51.7269 62.07C51.5935 62.09 51.4535 62.1 51.3069 62.1ZM57.7431 62.11C56.9965 62.11 56.4365 61.92 56.0631 61.54C55.6965 61.1534 55.5131 60.56 55.5131 59.76C55.5131 59.6267 55.5165 59.4767 55.5231 59.31C55.5365 59.1434 55.5531 58.9867 55.5731 58.84H57.7631V59.61H56.5831V59.79C56.5831 60.1634 56.6231 60.46 56.7031 60.68C56.7898 60.9 56.9165 61.0534 57.0831 61.14C57.2565 61.2267 57.4698 61.27 57.7231 61.27C58.0031 61.27 58.2431 61.2167 58.4431 61.11C58.6431 61.0034 58.7965 60.81 58.9031 60.53C59.0165 60.2434 59.0731 59.84 59.0731 59.32C59.0731 58.8534 59.0231 58.4734 58.9231 58.18C58.8231 57.88 58.6531 57.6567 58.4131 57.51C58.1798 57.3634 57.8665 57.29 57.4731 57.29C57.2598 57.29 57.0498 57.31 56.8431 57.35C56.6431 57.3834 56.4498 57.4367 56.2631 57.51C56.0765 57.5767 55.8965 57.66 55.7231 57.76V56.8C55.8631 56.7267 56.0331 56.6634 56.2331 56.61C56.4331 56.55 56.6531 56.5034 56.8931 56.47C57.1331 56.43 57.3798 56.41 57.6331 56.41C58.2331 56.41 58.7198 56.53 59.0931 56.77C59.4665 57.0034 59.7398 57.3367 59.9131 57.77C60.0865 58.1967 60.1731 58.7067 60.1731 59.3C60.1731 59.8934 60.0931 60.4 59.9331 60.82C59.7731 61.24 59.5131 61.56 59.1531 61.78C58.7998 62 58.3298 62.11 57.7431 62.11ZM63.1739 62.11C62.7806 62.11 62.4039 62.07 62.0439 61.99C61.6906 61.91 61.3872 61.81 61.1339 61.69L61.4439 60.83C61.5839 60.89 61.7439 60.9534 61.9239 61.02C62.1039 61.08 62.3006 61.1334 62.5139 61.18C62.7272 61.22 62.9439 61.24 63.1639 61.24C63.4972 61.24 63.7639 61.1834 63.9639 61.07C64.1706 60.95 64.2739 60.7767 64.2739 60.55C64.2739 60.41 64.2306 60.29 64.1439 60.19C64.0572 60.0834 63.9272 59.99 63.7539 59.91C63.5806 59.8234 63.3639 59.7367 63.1039 59.65C62.7039 59.5167 62.3639 59.3767 62.0839 59.23C61.8039 59.0767 61.5906 58.8967 61.4439 58.69C61.2972 58.4767 61.2239 58.2134 61.2239 57.9C61.2239 57.5934 61.3039 57.33 61.4639 57.11C61.6306 56.89 61.8739 56.72 62.1939 56.6C62.5206 56.4734 62.9239 56.41 63.4039 56.41C63.7372 56.41 64.0472 56.44 64.3339 56.5C64.6272 56.5534 64.8539 56.63 65.0139 56.73V57.61C64.9006 57.5567 64.7572 57.5034 64.5839 57.45C64.4106 57.3967 64.2206 57.3534 64.0139 57.32C63.8139 57.2867 63.6106 57.27 63.4039 57.27C63.0039 57.27 62.7172 57.33 62.5439 57.45C62.3772 57.5634 62.2939 57.7 62.2939 57.86C62.2939 57.9934 62.3372 58.1067 62.4239 58.2C62.5106 58.2934 62.6539 58.3834 62.8539 58.47C63.0539 58.55 63.3139 58.6467 63.6339 58.76C63.9606 58.8734 64.2539 59 64.5139 59.14C64.7739 59.28 64.9772 59.4567 65.1239 59.67C65.2706 59.8834 65.3439 60.15 65.3439 60.47C65.3439 60.7567 65.2739 61.0267 65.1339 61.28C65.0006 61.5267 64.7739 61.7267 64.4539 61.88C64.1406 62.0334 63.7139 62.11 63.1739 62.11ZM63.5355 55.95C63.4888 55.87 63.4521 55.77 63.4255 55.65C63.3921 55.5234 63.3755 55.3967 63.3755 55.27C63.3755 55.1167 63.4055 54.9734 63.4655 54.84C63.5255 54.7067 63.6388 54.6 63.8055 54.52C63.9655 54.44 64.1855 54.4 64.4655 54.4H65.8555V55.18H64.7755C64.6421 55.18 64.5388 55.2034 64.4655 55.25C64.3855 55.2967 64.3455 55.38 64.3455 55.5C64.3455 55.5467 64.3555 55.5967 64.3755 55.65C64.3888 55.7034 64.4088 55.7567 64.4355 55.81L63.5355 55.95Z" fill="#5B3722"/>
</svg>
