<svg width="80" height="80" viewBox="0 0 80 80" fill="none" xmlns="http://www.w3.org/2000/svg">
<path d="M12.2006 12.2925H25.17C25.17 12.2925 25.4284 8.81623 27.1762 7.62655C29.3357 6.1586 39.0598 4.85601 45.8977 5.81582C53.4339 6.87241 55.1979 9.72765 54.5843 12.103L67.9372 12.2966V24.4676L71.9657 26.48L74.5854 34.3117L73.4511 52.7901L67.9332 56.2784L67.9695 67.7437H54.9799L53.9021 72.4178L40.9852 74.5027L29.6143 72.8856L25.7634 70.9458L25.3315 67.4574L14.788 67.4211L11.4135 67.1711L11.5871 55.1291L7.37694 52.3989L5.04785 41.0062L7.13071 27.4519L11.8373 24.0401L12.1885 12.3006L12.2006 12.2925Z" fill="#F8F3E8"/>
<path d="M73.5883 6.89259V21.0074C73.5883 21.1768 75.3281 21.9632 76.1758 23.0601C81.4112 29.8433 81.2659 50.6285 75.7721 57.2665C74.9648 58.2424 73.5883 58.7788 73.5883 58.9159V73.0308H59.6623C59.4483 73.0308 57.6682 75.6319 56.8367 76.257C49.2278 81.9635 27.9633 81.0843 21.1012 74.035C20.7661 73.6922 20.7661 73.0348 20.7096 73.0348H6.5817V59.5249C6.5817 59.1902 4.93883 58.3473 4.56343 57.9118C-1.61652 50.7293 -1.4712 29.1336 4.70471 21.9632C5.00745 21.6124 6.5817 20.7977 6.5817 20.4106V6.89259H20.1041C20.4392 6.89259 21.8116 4.75923 22.3484 4.29545C29.0289 -1.5118 50.3015 -1.2779 57.2403 4.07365C57.9831 4.64631 59.4766 6.89662 59.6623 6.89662H73.5883V6.89259ZM58.2495 8.10243C58.1687 7.01761 57.4341 6.15055 56.647 5.469C50.685 0.302967 26.3446 -0.370514 22.1547 6.94905C21.9085 7.38056 21.9811 8.10647 21.9206 8.10647H7.79267V21.818C7.79267 22.0156 5.63312 23.0279 4.78948 24.2619C0.490559 30.5773 0.24433 49.7735 4.96709 55.8913C5.54028 56.6333 7.79267 58.1255 7.79267 58.311V71.216L8.39815 71.8209H21.9206C22.0336 71.8209 22.2758 73.0993 22.9176 73.8535C28.1853 80.0116 52.8486 80.0559 57.7974 73.1679C58.1203 72.7202 58.1809 71.8209 58.2495 71.8209H71.9737V58.1094C71.9737 57.9964 73.2654 57.7988 74.0122 57.1173C79.9903 51.673 80.2365 27.226 73.3219 22.2657C72.8739 21.9431 71.9737 21.8826 71.9737 21.814V8.10243H58.2495Z" fill="#5B3722"/>
<path d="M58.2495 8.10253H71.9737V21.8141C71.9737 21.8867 72.8739 21.9432 73.3219 22.2658C80.2365 27.2261 79.9903 51.6731 74.0122 57.1174C73.2654 57.7989 71.9737 57.9965 71.9737 58.1095V71.821H58.2495C58.1768 71.821 58.1203 72.7203 57.7974 73.168C52.8486 80.056 28.1853 80.0117 22.9176 73.8536C22.2758 73.1035 22.0336 71.821 21.9206 71.821H8.39816L7.79268 71.2161V58.3111C7.79268 58.1256 5.54029 56.6334 4.9671 55.8914C0.244342 49.7736 0.490571 30.5774 4.78949 24.262C5.62909 23.024 7.79268 22.0117 7.79268 21.8181V8.10253H21.9206C21.9811 8.10253 21.9085 7.37662 22.1547 6.94511C26.3446 -0.370416 50.685 0.303064 56.647 5.4691C57.4341 6.15065 58.1688 7.0177 58.2495 8.10253ZM23.5352 10.1189H9.81095V23.4272H8.60403V23.8265H10.2186V10.5222H23.9429C23.5433 7.01367 26.5263 6.01353 29.2873 5.17471C30.1915 4.90047 33.1301 4.06971 33.8324 4.06971H45.9421C46.2731 4.06971 48.2671 5.23117 48.5658 4.06971C42.2042 3.19459 35.7619 2.83164 29.5093 4.58591C26.7766 5.35215 23.0185 6.56199 23.5392 10.1149L23.5352 10.1189ZM55.0202 11.7321C55.2463 8.72762 53.9788 7.67505 51.3833 6.69508C45.712 4.55769 33.6992 4.45283 28.1086 6.8201C25.3597 7.98155 24.7906 8.50985 25.1539 11.7321H11.4256V24.6371C8.72109 25.0444 7.91781 25.4799 6.90868 27.9883C4.51904 33.9327 4.26878 47.1241 7.18316 52.8668C8.4022 55.2703 9.56069 54.3186 11.4256 55.4841V68.1875H25.1498C24.391 72.0993 26.8048 72.7728 29.9896 73.6358C35.7902 75.2046 46.4143 75.3175 52.0009 73.0349C54.7942 71.8936 54.9758 71.3976 55.0202 68.1875H68.3408L68.353 55.3187C70.5892 54.8146 71.4167 54.9961 72.5994 52.8829C75.647 47.4386 75.5824 32.7672 72.8456 27.1818C71.453 24.3427 70.3551 25.7703 68.4054 23.9475L68.6436 12.3128L68.135 11.724H55.0162L55.0202 11.7321ZM56.6349 10.1189L55.4279 7.29597L56.2312 10.5222H69.5518V23.2256L72.3734 24.2298V23.8345L70.3591 23.4272V10.7239L69.7536 10.1189H56.6349ZM5.36672 52.0602C4.07099 46.0433 3.34844 40.3247 4.20823 34.1626C4.53923 31.7873 5.508 29.4523 5.57258 27.0527C3.19102 33.1665 2.97708 40.0787 3.81265 46.5635L5.36672 52.0602ZM76.4139 45.4061C76.7449 41.8048 76.1677 37.7679 76.4139 34.1142L75.6107 31.4929C76.2767 38.76 76.531 46.0917 73.9839 53.0604C74.4845 53.629 75.0254 51.54 75.09 51.3384C75.5784 49.7817 76.2686 46.9668 76.4139 45.4021V45.4061ZM70.3591 56.4963C71.6145 56.5891 73.883 55.2824 73.3865 54.0766C71.7558 56.5044 69.5518 55.0808 69.5518 58.3111V69.4013H56.2312L55.8316 72.2243H56.2272L56.6349 69.8046H69.7536L70.3591 69.1997V56.4963ZM10.2146 56.093C8.71705 56.1374 7.66351 55.3671 6.58575 54.4799C6.59383 56.0447 8.57981 56.4157 9.81095 56.4963V69.8046H23.5352C23.1114 72.4663 25.0449 73.5148 27.1721 74.4383C32.2662 76.6483 40.412 76.8862 45.8856 76.2087C47.8715 75.9627 49.8171 75.3538 51.787 75.0433C51.8839 74.3173 50.911 74.6763 50.4791 74.7448C48.6062 75.0433 46.7252 75.7288 44.7432 75.87C39.754 76.2329 32.5044 76.0152 27.8705 74.1439C25.5414 73.2043 23.5554 72.3574 23.9389 69.4013H10.2146V56.093Z" fill="#F8F3E8"/>
<path d="M70.3591 56.4963V69.1997L69.7536 69.8046H56.6348L56.2271 72.2202H55.8315L56.2312 69.4013H69.5518V58.3111C69.5518 55.0808 71.7557 56.5044 73.3865 54.0766C73.8789 55.2784 71.6104 56.589 70.3591 56.4963Z" fill="#5B3722"/>
<path d="M56.6347 10.1189H69.7534L70.3589 10.7239V23.4272L72.3731 23.8386V24.2298L69.5516 23.2256V10.5222H56.231L55.4277 7.29596L56.6347 10.1189Z" fill="#5B3722"/>
<path d="M10.2148 56.093V69.4013H23.939C23.5556 72.3574 25.5415 73.2043 27.8706 74.1439C32.5046 76.0152 39.7502 76.2329 44.7434 75.87C46.7294 75.7248 48.6104 75.0392 50.4793 74.7448C50.9112 74.6763 51.884 74.3173 51.7872 75.0433C49.8173 75.3538 47.8717 75.9627 45.8857 76.2087C40.4122 76.8862 32.2624 76.6483 27.1723 74.4383C25.0451 73.5148 23.1075 72.4663 23.5354 69.8046H9.81114V56.4963C8.57999 56.4157 6.59401 56.0447 6.58594 54.4799C7.66369 55.3671 8.71723 56.1374 10.2148 56.093Z" fill="#5B3722"/>
<path d="M23.5353 10.1188C23.0146 6.56189 26.7726 5.35205 29.5054 4.58984C35.758 2.8396 42.2003 3.20256 48.5619 4.07364C48.2632 5.23106 46.2732 4.07364 45.9381 4.07364H33.8285C33.1302 4.07364 30.1875 4.9044 29.2834 5.17864C26.5183 6.01746 23.5393 7.01357 23.939 10.5262H10.2147V23.8344H8.6001V23.4352H9.80702V10.1188H23.5313H23.5353Z" fill="#5B3722"/>
<path d="M5.36678 52.0601L3.81271 46.5634C2.98119 40.0826 3.19109 33.1704 5.57265 27.0526C5.50403 29.4481 4.53929 31.7831 4.2083 34.1625C3.34851 40.3246 4.07509 46.0431 5.36678 52.0601Z" fill="#5B3722"/>
<path d="M76.4139 45.406C76.2686 46.9707 75.5783 49.7816 75.0899 51.3423C75.0294 51.544 74.4844 53.633 73.9839 53.0643C76.5269 46.0956 76.2726 38.764 75.6106 31.4968L76.4139 34.1182C76.1677 37.7719 76.7449 41.8087 76.4139 45.41V45.406Z" fill="#5B3722"/>
<path d="M55.0205 11.7319H68.1392L68.6479 12.3207L68.4097 23.9554C70.3593 25.7823 71.4573 24.3546 72.8499 27.1897C75.5867 32.7711 75.6513 47.4465 72.6037 52.8908C71.421 55.004 70.5894 54.8226 68.3572 55.3267L68.3451 68.1954H55.0245C54.9801 71.4055 54.7985 71.9015 52.0052 73.0428C46.4226 75.3254 35.7985 75.2125 29.9939 73.6437C26.8091 72.7807 24.3952 72.1072 25.1541 68.1954H11.4258V55.492C9.56091 54.3265 8.40243 55.2783 7.18339 52.8747C4.269 47.132 4.51927 33.9406 6.9089 27.9963C7.91804 25.4879 8.71728 25.0483 11.4258 24.645V11.7319H25.15C24.7868 8.5097 25.3559 7.98543 28.1048 6.81995C33.6954 4.45269 45.7122 4.56157 51.3795 6.69493C53.975 7.67491 55.2425 8.72747 55.0164 11.7319H55.0205ZM25.3519 12.9418H12.6368V24.8386C11.4339 26.4194 9.74659 25.4798 8.50738 27.1655C5.31851 31.5169 5.63739 46.8537 7.88575 51.7657C9.22184 54.6854 10.7436 53.1893 12.6368 55.0847V66.9815H25.3519C26.3449 67.8486 25.913 69.5988 26.4498 70.724C27.6245 73.184 39.1932 73.9623 41.9219 73.8575C43.8998 73.7808 53.1596 72.6234 53.749 70.7522C53.9589 70.0827 53.5471 66.9815 54.8187 66.9815H67.5338V54.4798C70.5289 53.8224 71.0577 54.137 72.1718 51.2495C74.0488 46.3899 74.2748 38.5461 73.4796 33.4204C72.858 29.4199 72.3251 25.6008 67.5338 25.4475V12.9458H54.8187C53.3453 12.0989 54.2172 9.62679 53.5512 8.87265C52.2272 7.37245 44.1137 6.1747 41.9219 6.06985C39.0761 5.93273 28.02 6.457 26.583 8.93315C26.0341 9.88086 26.1592 12.6837 25.3519 12.9458V12.9418Z" fill="#5B3722"/>
<path d="M44.2759 26.3529V20.7059H40.5077V26.3529M44.2759 26.3529H40.5077M44.2759 26.3529L47.6228 33.0405C48.2492 34.2921 47.3382 35.7647 45.9376 35.7647H38.846C37.4454 35.7647 36.5345 34.2921 37.1608 33.0405L40.5077 26.3529M39.5657 20.7059H45.2179M33.9134 20.7059L33.9134 39.5294M32.0293 26.3529H47.102M32.0293 39.5294H47.102" stroke="#5B3722" stroke-width="1.5" stroke-linecap="round" stroke-linejoin="round"/>
<path d="M31.44 49.059C31.0514 49.059 30.703 49.1287 30.395 49.268C30.087 49.4 29.823 49.598 29.603 49.862C29.3904 50.126 29.2254 50.445 29.108 50.819C28.998 51.193 28.943 51.6147 28.943 52.084C28.943 52.7 29.0347 53.2353 29.218 53.69C29.4014 54.1373 29.6764 54.482 30.043 54.724C30.4097 54.966 30.8717 55.087 31.429 55.087C31.7664 55.087 32.089 55.0577 32.397 54.999C32.7124 54.933 33.0314 54.8487 33.354 54.746V55.769C33.046 55.8863 32.7307 55.9707 32.408 56.022C32.0854 56.0807 31.7114 56.11 31.286 56.11C30.4867 56.11 29.8194 55.945 29.284 55.615C28.756 55.285 28.36 54.8157 28.096 54.207C27.832 53.5983 27.7 52.887 27.7 52.073C27.7 51.479 27.7807 50.9363 27.942 50.445C28.1107 49.9463 28.3527 49.5173 28.668 49.158C28.9834 48.7987 29.372 48.5237 29.834 48.333C30.3034 48.135 30.8424 48.036 31.451 48.036C31.847 48.036 32.2357 48.08 32.617 48.168C32.9984 48.2487 33.343 48.366 33.651 48.52L33.211 49.51C32.9544 49.3927 32.6757 49.29 32.375 49.202C32.0817 49.1067 31.77 49.059 31.44 49.059ZM36.08 49.873C36.08 50.0563 36.0726 50.2397 36.058 50.423C36.0433 50.6063 36.0286 50.7567 36.014 50.874H36.091C36.2156 50.6687 36.3696 50.5 36.553 50.368C36.7436 50.236 36.9526 50.137 37.18 50.071C37.4146 50.005 37.653 49.972 37.895 49.972C38.3643 49.972 38.7566 50.049 39.072 50.203C39.3946 50.3497 39.6366 50.5843 39.798 50.907C39.9666 51.2223 40.051 51.633 40.051 52.139V56H38.896V52.304C38.896 51.842 38.797 51.4973 38.599 51.27C38.4083 51.0353 38.1003 50.918 37.675 50.918C37.2716 50.918 36.9526 50.9987 36.718 51.16C36.4906 51.3213 36.3256 51.5597 36.223 51.875C36.1276 52.183 36.08 52.5643 36.08 53.019V56H34.914V47.64H36.08V49.873ZM44.1747 48.146C45.2014 48.146 45.9494 48.355 46.4187 48.773C46.888 49.1837 47.1227 49.7593 47.1227 50.5C47.1227 50.83 47.0677 51.1453 46.9577 51.446C46.855 51.7467 46.6827 52.018 46.4407 52.26C46.1987 52.4947 45.876 52.6817 45.4727 52.821C45.0767 52.953 44.589 53.019 44.0097 53.019H43.1627V56H41.9747V48.146H44.1747ZM44.0867 49.147H43.1627V52.018H43.8777C44.325 52.018 44.699 51.9703 44.9997 51.875C45.3004 51.7723 45.524 51.6147 45.6707 51.402C45.8247 51.182 45.9017 50.896 45.9017 50.544C45.9017 50.0747 45.755 49.7263 45.4617 49.499C45.1757 49.2643 44.7174 49.147 44.0867 49.147ZM50.91 49.961C51.4307 49.961 51.878 50.071 52.252 50.291C52.626 50.5037 52.912 50.8117 53.11 51.215C53.3154 51.6183 53.418 52.095 53.418 52.645V53.283H49.436C49.4507 53.8917 49.6084 54.3573 49.909 54.68C50.217 55.0027 50.646 55.164 51.196 55.164C51.5774 55.164 51.9147 55.131 52.208 55.065C52.5087 54.9917 52.8167 54.8853 53.132 54.746V55.714C52.8387 55.846 52.538 55.945 52.23 56.011C51.9294 56.077 51.57 56.11 51.152 56.11C50.58 56.11 50.074 55.9963 49.634 55.769C49.194 55.5417 48.8494 55.2043 48.6 54.757C48.358 54.3023 48.237 53.745 48.237 53.085C48.237 52.4177 48.347 51.853 48.567 51.391C48.7944 50.929 49.106 50.577 49.502 50.335C49.9054 50.0857 50.3747 49.961 50.91 49.961ZM50.91 50.863C50.492 50.863 50.1547 50.9987 49.898 51.27C49.6487 51.5413 49.502 51.9263 49.458 52.425H52.252C52.252 52.117 52.2044 51.8457 52.109 51.611C52.0137 51.3763 51.867 51.193 51.669 51.061C51.471 50.929 51.218 50.863 50.91 50.863Z" fill="#5B3722"/>
</svg>
