<svg width="80" height="80" viewBox="0 0 80 80" fill="none" xmlns="http://www.w3.org/2000/svg">
<path d="M12.2006 12.2925H25.17C25.17 12.2925 25.4284 8.81623 27.1762 7.62655C29.3357 6.1586 39.0598 4.85601 45.8977 5.81582C53.4339 6.87241 55.1979 9.72765 54.5843 12.103L67.9372 12.2966V24.4676L71.9657 26.48L74.5854 34.3117L73.4511 52.7901L67.9332 56.2784L67.9695 67.7437H54.9799L53.9021 72.4178L40.9852 74.5027L29.6143 72.8856L25.7634 70.9458L25.3315 67.4574L14.788 67.4211L11.4135 67.1711L11.5871 55.1291L7.37694 52.3989L5.04785 41.0062L7.13071 27.4519L11.8373 24.0401L12.1885 12.3006L12.2006 12.2925Z" fill="#F8F3E8"/>
<path d="M73.5883 6.89259V21.0074C73.5883 21.1768 75.3281 21.9632 76.1758 23.0601C81.4112 29.8433 81.2659 50.6285 75.7721 57.2665C74.9648 58.2424 73.5883 58.7788 73.5883 58.9159V73.0308H59.6623C59.4483 73.0308 57.6682 75.6319 56.8367 76.257C49.2278 81.9635 27.9633 81.0843 21.1012 74.035C20.7661 73.6922 20.7661 73.0348 20.7096 73.0348H6.5817V59.5249C6.5817 59.1902 4.93883 58.3473 4.56343 57.9118C-1.61652 50.7293 -1.4712 29.1336 4.70471 21.9632C5.00745 21.6124 6.5817 20.7977 6.5817 20.4106V6.89259H20.1041C20.4392 6.89259 21.8116 4.75923 22.3484 4.29545C29.0289 -1.5118 50.3015 -1.2779 57.2403 4.07365C57.9831 4.64631 59.4766 6.89662 59.6623 6.89662H73.5883V6.89259ZM58.2495 8.10243C58.1687 7.01761 57.4341 6.15055 56.647 5.469C50.685 0.302967 26.3446 -0.370514 22.1547 6.94905C21.9085 7.38056 21.9811 8.10647 21.9206 8.10647H7.79267V21.818C7.79267 22.0156 5.63312 23.0279 4.78948 24.2619C0.490559 30.5773 0.24433 49.7735 4.96709 55.8913C5.54028 56.6333 7.79267 58.1255 7.79267 58.311V71.216L8.39815 71.8209H21.9206C22.0336 71.8209 22.2758 73.0993 22.9176 73.8535C28.1853 80.0116 52.8486 80.0559 57.7974 73.1679C58.1203 72.7202 58.1809 71.8209 58.2495 71.8209H71.9737V58.1094C71.9737 57.9964 73.2654 57.7988 74.0122 57.1173C79.9903 51.673 80.2365 27.226 73.3219 22.2657C72.8739 21.9431 71.9737 21.8826 71.9737 21.814V8.10243H58.2495Z" fill="#5B3722"/>
<path d="M58.2495 8.10253H71.9737V21.8141C71.9737 21.8867 72.8739 21.9432 73.3219 22.2658C80.2365 27.2261 79.9903 51.6731 74.0122 57.1174C73.2654 57.7989 71.9737 57.9965 71.9737 58.1095V71.821H58.2495C58.1768 71.821 58.1203 72.7203 57.7974 73.168C52.8486 80.056 28.1853 80.0117 22.9176 73.8536C22.2758 73.1035 22.0336 71.821 21.9206 71.821H8.39816L7.79268 71.2161V58.3111C7.79268 58.1256 5.54029 56.6334 4.9671 55.8914C0.244342 49.7736 0.490571 30.5774 4.78949 24.262C5.62909 23.024 7.79268 22.0117 7.79268 21.8181V8.10253H21.9206C21.9811 8.10253 21.9085 7.37662 22.1547 6.94511C26.3446 -0.370416 50.685 0.303064 56.647 5.4691C57.4341 6.15065 58.1688 7.0177 58.2495 8.10253ZM23.5352 10.1189H9.81095V23.4272H8.60403V23.8265H10.2186V10.5222H23.9429C23.5433 7.01367 26.5263 6.01353 29.2873 5.17471C30.1915 4.90047 33.1301 4.06971 33.8324 4.06971H45.9421C46.2731 4.06971 48.2671 5.23117 48.5658 4.06971C42.2042 3.19459 35.7619 2.83164 29.5093 4.58591C26.7766 5.35215 23.0185 6.56199 23.5392 10.1149L23.5352 10.1189ZM55.0202 11.7321C55.2463 8.72762 53.9788 7.67505 51.3833 6.69508C45.712 4.55769 33.6992 4.45283 28.1086 6.8201C25.3597 7.98155 24.7906 8.50985 25.1539 11.7321H11.4256V24.6371C8.72109 25.0444 7.91781 25.4799 6.90868 27.9883C4.51904 33.9327 4.26878 47.1241 7.18316 52.8668C8.4022 55.2703 9.56069 54.3186 11.4256 55.4841V68.1875H25.1498C24.391 72.0993 26.8048 72.7728 29.9896 73.6358C35.7902 75.2046 46.4143 75.3175 52.0009 73.0349C54.7942 71.8936 54.9758 71.3976 55.0202 68.1875H68.3408L68.353 55.3187C70.5892 54.8146 71.4167 54.9961 72.5994 52.8829C75.647 47.4386 75.5824 32.7672 72.8456 27.1818C71.453 24.3427 70.3551 25.7703 68.4054 23.9475L68.6436 12.3128L68.135 11.724H55.0162L55.0202 11.7321ZM56.6349 10.1189L55.4279 7.29597L56.2312 10.5222H69.5518V23.2256L72.3734 24.2298V23.8345L70.3591 23.4272V10.7239L69.7536 10.1189H56.6349ZM5.36672 52.0602C4.07099 46.0433 3.34844 40.3247 4.20823 34.1626C4.53923 31.7873 5.508 29.4523 5.57258 27.0527C3.19102 33.1665 2.97708 40.0787 3.81265 46.5635L5.36672 52.0602ZM76.4139 45.4061C76.7449 41.8048 76.1677 37.7679 76.4139 34.1142L75.6107 31.4929C76.2767 38.76 76.531 46.0917 73.9839 53.0604C74.4845 53.629 75.0254 51.54 75.09 51.3384C75.5784 49.7817 76.2686 46.9668 76.4139 45.4021V45.4061ZM70.3591 56.4963C71.6145 56.5891 73.883 55.2824 73.3865 54.0766C71.7558 56.5044 69.5518 55.0808 69.5518 58.3111V69.4013H56.2312L55.8316 72.2243H56.2272L56.6349 69.8046H69.7536L70.3591 69.1997V56.4963ZM10.2146 56.093C8.71705 56.1374 7.66351 55.3671 6.58575 54.4799C6.59383 56.0447 8.57981 56.4157 9.81095 56.4963V69.8046H23.5352C23.1114 72.4663 25.0449 73.5148 27.1721 74.4383C32.2662 76.6483 40.412 76.8862 45.8856 76.2087C47.8715 75.9627 49.8171 75.3538 51.787 75.0433C51.8839 74.3173 50.911 74.6763 50.4791 74.7448C48.6062 75.0433 46.7252 75.7288 44.7432 75.87C39.754 76.2329 32.5044 76.0152 27.8705 74.1439C25.5414 73.2043 23.5554 72.3574 23.9389 69.4013H10.2146V56.093Z" fill="#F8F3E8"/>
<path d="M70.3591 56.4963V69.1997L69.7536 69.8046H56.6348L56.2271 72.2202H55.8315L56.2312 69.4013H69.5518V58.3111C69.5518 55.0808 71.7557 56.5044 73.3865 54.0766C73.8789 55.2784 71.6104 56.589 70.3591 56.4963Z" fill="#5B3722"/>
<path d="M56.6347 10.1189H69.7534L70.3589 10.7239V23.4272L72.3731 23.8386V24.2298L69.5516 23.2256V10.5222H56.231L55.4277 7.29596L56.6347 10.1189Z" fill="#5B3722"/>
<path d="M10.2145 56.093V69.4013H23.9388C23.5553 72.3574 25.5413 73.2043 27.8704 74.1439C32.5043 76.0152 39.7499 76.2329 44.7431 75.87C46.7291 75.7248 48.6102 75.0392 50.4791 74.7448C50.911 74.6763 51.8838 74.3173 51.7869 75.0433C49.8171 75.3538 47.8715 75.9627 45.8855 76.2087C40.4119 76.8862 32.2621 76.6483 27.1721 74.4383C25.0448 73.5148 23.1073 72.4663 23.5351 69.8046H9.81089V56.4963C8.57975 56.4157 6.59377 56.0447 6.58569 54.4799C7.66345 55.3671 8.71699 56.1374 10.2145 56.093Z" fill="#5B3722"/>
<path d="M23.5351 10.1188C23.0144 6.56189 26.7724 5.35205 29.5051 4.58984C35.7577 2.8396 42.2 3.20256 48.5616 4.07364C48.2629 5.23106 46.2729 4.07364 45.9379 4.07364H33.8283C33.1299 4.07364 30.1873 4.9044 29.2831 5.17864C26.5181 6.01746 23.5391 7.01357 23.9387 10.5262H10.2145V23.8344H8.59985V23.4352H9.80678V10.1188H23.531H23.5351Z" fill="#5B3722"/>
<path d="M5.36678 52.0601L3.81271 46.5634C2.98119 40.0826 3.19109 33.1704 5.57265 27.0526C5.50403 29.4481 4.53929 31.7831 4.2083 34.1625C3.34851 40.3246 4.07509 46.0431 5.36678 52.0601Z" fill="#5B3722"/>
<path d="M76.4139 45.406C76.2686 46.9707 75.5783 49.7816 75.0899 51.3423C75.0294 51.544 74.4844 53.633 73.9839 53.0643C76.5269 46.0956 76.2726 38.764 75.6106 31.4968L76.4139 34.1182C76.1677 37.7719 76.7449 41.8087 76.4139 45.41V45.406Z" fill="#5B3722"/>
<path d="M55.0202 11.7319H68.139L68.6476 12.3207L68.4095 23.9554C70.3591 25.7823 71.457 24.3546 72.8497 27.1897C75.5864 32.7711 75.651 47.4465 72.6034 52.8908C71.4207 55.004 70.5892 54.8226 68.357 55.3267L68.3449 68.1954H55.0243C54.9799 71.4055 54.7982 71.9015 52.0049 73.0428C46.4224 75.3254 35.7982 75.2125 29.9937 73.6437C26.8088 72.7807 24.395 72.1072 25.1538 68.1954H11.4256V55.492C9.56067 54.3265 8.40218 55.2783 7.18314 52.8747C4.26876 47.132 4.51903 33.9406 6.90866 27.9963C7.9178 25.4879 8.71703 25.0483 11.4256 24.645V11.7319H25.1498C24.7865 8.5097 25.3557 7.98543 28.1046 6.81995C33.6952 4.45269 45.712 4.56157 51.3793 6.69493C53.9748 7.67491 55.2422 8.72747 55.0162 11.7319H55.0202ZM25.3516 12.9418H12.6365V24.8386C11.4336 26.4194 9.74635 25.4798 8.50713 27.1655C5.31826 31.5169 5.63715 46.8537 7.8855 51.7657C9.2216 54.6854 10.7434 53.1893 12.6365 55.0847V66.9815H25.3516C26.3446 67.8486 25.9127 69.5988 26.4496 70.724C27.6242 73.184 39.1929 73.9623 41.9216 73.8575C43.8996 73.7808 53.1594 72.6234 53.7487 70.7522C53.9586 70.0827 53.5469 66.9815 54.8184 66.9815H67.5335V54.4798C70.5286 53.8224 71.0574 54.137 72.1715 51.2495C74.0485 46.3899 74.2746 38.5461 73.4794 33.4204C72.8577 29.4199 72.3249 25.6008 67.5335 25.4475V12.9458H54.8184C53.3451 12.0989 54.217 9.62679 53.5509 8.87265C52.2269 7.37245 44.1135 6.1747 41.9216 6.06985C39.0759 5.93273 28.0198 6.457 26.5828 8.93315C26.0338 9.88086 26.1589 12.6837 25.3516 12.9458V12.9418Z" fill="#5B3722"/>
<g clip-path="url(#clip0_4895_96710)">
<path d="M35.1752 32.6579C34.9726 32.8612 34.8549 33.1473 34.8558 33.4504C34.8558 33.7525 34.9764 34.0377 35.1921 34.2513L37.5265 36.3567C37.7196 36.5318 37.7347 36.8282 37.5604 37.0212C37.3861 37.2151 37.0875 37.2282 36.8953 37.0551L34.5459 34.9346C34.1342 34.5289 33.9156 34.0085 33.9138 33.4532C33.9119 32.8979 34.1276 32.3746 34.5214 31.9821L36.8906 29.7741C37.08 29.5972 37.3795 29.6075 37.5557 29.7967C37.7328 29.9868 37.7234 30.2852 37.5331 30.4612L35.1752 32.6579ZM50.8706 24V36.2353C50.8706 38.5704 48.9686 40.4706 46.6314 40.4706H32.5007C30.1635 40.4706 28.2615 38.5704 28.2615 36.2353V24C28.2615 21.6649 30.1635 19.7647 32.5007 19.7647H46.6314C48.9686 19.7647 50.8706 21.6649 50.8706 24ZM29.2035 24V26.3529H49.9285V24C49.9285 22.1835 48.4495 20.7059 46.6314 20.7059H32.5007C30.6825 20.7059 29.2035 22.1835 29.2035 24ZM49.9285 36.2353V27.2941H29.2035V36.2353C29.2035 38.0518 30.6825 39.5294 32.5007 39.5294H46.6314C48.4495 39.5294 49.9285 38.0518 49.9285 36.2353ZM32.0297 24.4706C32.5497 24.4706 32.9717 24.0489 32.9717 23.5294C32.9717 23.0099 32.5497 22.5882 32.0297 22.5882C31.5097 22.5882 31.0876 23.0099 31.0876 23.5294C31.0876 24.0489 31.5097 24.4706 32.0297 24.4706ZM34.8558 24.4706C35.3758 24.4706 35.7978 24.0489 35.7978 23.5294C35.7978 23.0099 35.3758 22.5882 34.8558 22.5882C34.3358 22.5882 33.9138 23.0099 33.9138 23.5294C33.9138 24.0489 34.3358 24.4706 34.8558 24.4706ZM37.6819 24.4706C38.202 24.4706 38.624 24.0489 38.624 23.5294C38.624 23.0099 38.202 22.5882 37.6819 22.5882C37.1619 22.5882 36.7399 23.0099 36.7399 23.5294C36.7399 24.0489 37.1619 24.4706 37.6819 24.4706ZM42.2424 29.7741C42.054 29.5972 41.7535 29.6075 41.5773 29.7967C41.4002 29.9868 41.4096 30.2852 41.5999 30.4612L43.9447 32.6466C44.1595 32.8612 44.2772 33.1464 44.2763 33.4504C44.2763 33.7525 44.1557 34.0376 43.955 34.2362L41.6056 36.3567C41.4124 36.5318 41.3974 36.8282 41.5717 37.0212C41.7459 37.2151 42.0436 37.2282 42.2367 37.0551L44.6022 34.9195C44.9979 34.5289 45.2164 34.0075 45.2183 33.4522C45.2202 32.8969 45.0045 32.3737 44.5994 31.9699L42.2424 29.7732V29.7741Z" fill="#5B3722"/>
</g>
<path d="M31.2252 49.059C30.8365 49.059 30.4882 49.1287 30.1802 49.268C29.8722 49.4 29.6082 49.598 29.3882 49.862C29.1755 50.126 29.0105 50.445 28.8932 50.819C28.7832 51.193 28.7282 51.6147 28.7282 52.084C28.7282 52.7 28.8199 53.2353 29.0032 53.69C29.1865 54.1373 29.4615 54.482 29.8282 54.724C30.1949 54.966 30.6569 55.087 31.2142 55.087C31.5515 55.087 31.8742 55.0577 32.1822 54.999C32.4975 54.933 32.8165 54.8487 33.1392 54.746V55.769C32.8312 55.8863 32.5159 55.9707 32.1932 56.022C31.8705 56.0807 31.4965 56.11 31.0712 56.11C30.2719 56.11 29.6045 55.945 29.0692 55.615C28.5412 55.285 28.1452 54.8157 27.8812 54.207C27.6172 53.5983 27.4852 52.887 27.4852 52.073C27.4852 51.479 27.5659 50.9363 27.7272 50.445C27.8959 49.9463 28.1379 49.5173 28.4532 49.158C28.7685 48.7987 29.1572 48.5237 29.6192 48.333C30.0885 48.135 30.6275 48.036 31.2362 48.036C31.6322 48.036 32.0209 48.08 32.4022 48.168C32.7835 48.2487 33.1282 48.366 33.4362 48.52L32.9962 49.51C32.7395 49.3927 32.4609 49.29 32.1602 49.202C31.8669 49.1067 31.5552 49.059 31.2252 49.059ZM39.2531 56H34.8311V48.146H39.2531V49.158H36.0191V51.402H39.0551V52.403H36.0191V54.977H39.2531V56ZM47.3122 51.996C47.3122 52.876 47.1472 53.613 46.8172 54.207C46.4872 54.801 46.0105 55.2483 45.3872 55.549C44.7712 55.8497 44.0268 56 43.1542 56H40.9542V48.146H43.3852C44.1845 48.146 44.8775 48.2927 45.4642 48.586C46.0508 48.8793 46.5055 49.312 46.8282 49.884C47.1508 50.4487 47.3122 51.1527 47.3122 51.996ZM46.0692 52.029C46.0692 51.369 45.9628 50.8263 45.7502 50.401C45.5375 49.9757 45.2222 49.6603 44.8042 49.455C44.3935 49.2497 43.8948 49.147 43.3082 49.147H42.1422V54.999H43.0992C44.0892 54.999 44.8298 54.7497 45.3212 54.251C45.8198 53.7523 46.0692 53.0117 46.0692 52.029ZM51.6616 56H50.4736V49.169H48.1196V48.146H54.0156V49.169H51.6616V56Z" fill="#5B3722"/>
<defs>
<clipPath id="clip0_4895_96710">
<rect width="22.6091" height="22.5882" fill="white" transform="translate(28.2615 18.8235)"/>
</clipPath>
</defs>
</svg>
