<svg width="80" height="80" viewBox="0 0 80 80" fill="none" xmlns="http://www.w3.org/2000/svg">
<path d="M12.2006 12.2925H25.17C25.17 12.2925 25.4284 8.8162 27.1762 7.62652C29.3357 6.15857 39.0598 4.85597 45.8977 5.81578C53.4339 6.87238 55.1979 9.72762 54.5843 12.1029L67.9372 12.2965V24.4676L71.9657 26.4799L74.5854 34.3117L73.4511 52.79L67.9332 56.2784L67.9695 67.7437H54.9799L53.9021 72.4177L40.9852 74.5027L29.6143 72.8855L25.7634 70.9458L25.3315 67.4574L14.788 67.4211L11.4135 67.171L11.5871 55.1291L7.37694 52.3988L5.04785 41.0061L7.13071 27.4518L11.8373 24.0401L12.1885 12.3006L12.2006 12.2925Z" fill="#F8F3E8"/>
<path d="M73.5883 6.89259V21.0074C73.5883 21.1768 75.3281 21.9632 76.1758 23.0601C81.4112 29.8433 81.2659 50.6285 75.7721 57.2665C74.9648 58.2424 73.5883 58.7788 73.5883 58.9159V73.0308H59.6623C59.4483 73.0308 57.6682 75.6319 56.8367 76.257C49.2278 81.9635 27.9633 81.0843 21.1012 74.035C20.7661 73.6922 20.7661 73.0348 20.7096 73.0348H6.5817V59.5249C6.5817 59.1902 4.93883 58.3473 4.56343 57.9118C-1.61652 50.7293 -1.4712 29.1336 4.70471 21.9632C5.00745 21.6124 6.5817 20.7977 6.5817 20.4106V6.89259H20.1041C20.4392 6.89259 21.8116 4.75923 22.3484 4.29545C29.0289 -1.5118 50.3015 -1.2779 57.2403 4.07365C57.9831 4.64631 59.4766 6.89662 59.6623 6.89662H73.5883V6.89259ZM58.2495 8.10243C58.1687 7.01761 57.4341 6.15055 56.647 5.469C50.685 0.302967 26.3446 -0.370514 22.1547 6.94905C21.9085 7.38056 21.9811 8.10647 21.9206 8.10647H7.79267V21.818C7.79267 22.0156 5.63312 23.0279 4.78948 24.2619C0.490559 30.5773 0.24433 49.7735 4.96709 55.8913C5.54028 56.6333 7.79267 58.1255 7.79267 58.311V71.216L8.39815 71.8209H21.9206C22.0336 71.8209 22.2758 73.0993 22.9176 73.8535C28.1853 80.0116 52.8486 80.0559 57.7974 73.1679C58.1203 72.7202 58.1809 71.8209 58.2495 71.8209H71.9737V58.1094C71.9737 57.9964 73.2654 57.7988 74.0122 57.1173C79.9903 51.673 80.2365 27.226 73.3219 22.2657C72.8739 21.9431 71.9737 21.8826 71.9737 21.814V8.10243H58.2495Z" fill="#5B3722"/>
<path d="M58.2495 8.1025H71.9737V21.8141C71.9737 21.8867 72.8739 21.9431 73.3219 22.2658C80.2365 27.2261 79.9903 51.673 74.0122 57.1174C73.2654 57.7989 71.9737 57.9965 71.9737 58.1094V71.821H58.2495C58.1768 71.821 58.1203 72.7203 57.7974 73.168C52.8486 80.056 28.1853 80.0117 22.9176 73.8535C22.2758 73.1034 22.0336 71.821 21.9206 71.821H8.39816L7.79268 71.2161V58.3111C7.79268 58.1256 5.54029 56.6334 4.9671 55.8914C0.244342 49.7736 0.490571 30.5774 4.78949 24.262C5.62909 23.0239 7.79268 22.0117 7.79268 21.8181V8.1025H21.9206C21.9811 8.1025 21.9085 7.37659 22.1547 6.94508C26.3446 -0.370447 50.685 0.303034 56.647 5.46907C57.4341 6.15062 58.1688 7.01767 58.2495 8.1025ZM23.5352 10.1189H9.81095V23.4272H8.60403V23.8265H10.2186V10.5222H23.9429C23.5433 7.01364 26.5263 6.0135 29.2873 5.17468C30.1915 4.90044 33.1301 4.06968 33.8324 4.06968H45.9421C46.2731 4.06968 48.2671 5.23114 48.5658 4.06968C42.2042 3.19456 35.7619 2.83161 29.5093 4.58588C26.7766 5.35212 23.0185 6.56196 23.5392 10.1149L23.5352 10.1189ZM55.0202 11.732C55.2463 8.72759 53.9788 7.67502 51.3833 6.69505C45.712 4.55765 33.6992 4.4528 28.1086 6.82006C25.3597 7.98152 24.7906 8.50981 25.1539 11.732H11.4256V24.637C8.72109 25.0444 7.91781 25.4799 6.90868 27.9883C4.51904 33.9327 4.26878 47.124 7.18316 52.8668C8.4022 55.2703 9.56069 54.3186 11.4256 55.4841V68.1874H25.1498C24.391 72.0993 26.8048 72.7727 29.9896 73.6358C35.7902 75.2045 46.4143 75.3175 52.0009 73.0349C54.7942 71.8936 54.9758 71.3976 55.0202 68.1874H68.3408L68.353 55.3187C70.5892 54.8146 71.4167 54.9961 72.5994 52.8829C75.647 47.4386 75.5824 32.7672 72.8456 27.1818C71.453 24.3427 70.3551 25.7703 68.4054 23.9474L68.6436 12.3128L68.135 11.724H55.0162L55.0202 11.732ZM56.6349 10.1189L55.4279 7.29594L56.2312 10.5222H69.5518V23.2256L72.3734 24.2297V23.8345L70.3591 23.4272V10.7238L69.7536 10.1189H56.6349ZM5.36672 52.0602C4.07099 46.0432 3.34844 40.3247 4.20823 34.1626C4.53923 31.7872 5.508 29.4522 5.57258 27.0527C3.19102 33.1665 2.97708 40.0787 3.81265 46.5635L5.36672 52.0602ZM76.4139 45.406C76.7449 41.8047 76.1677 37.7679 76.4139 34.1142L75.6107 31.4928C76.2767 38.76 76.531 46.0916 73.9839 53.0603C74.4845 53.629 75.0254 51.54 75.09 51.3383C75.5784 49.7817 76.2686 46.9668 76.4139 45.402V45.406ZM70.3591 56.4963C71.6145 56.5891 73.883 55.2824 73.3865 54.0766C71.7558 56.5044 69.5518 55.0808 69.5518 58.3111V69.4013H56.2312L55.8316 72.2243H56.2272L56.6349 69.8046H69.7536L70.3591 69.1997V56.4963ZM10.2146 56.093C8.71705 56.1374 7.66351 55.3671 6.58575 54.4799C6.59383 56.0446 8.57981 56.4156 9.81095 56.4963V69.8046H23.5352C23.1114 72.4662 25.0449 73.5148 27.1721 74.4383C32.2662 76.6483 40.412 76.8862 45.8856 76.2087C47.8715 75.9627 49.8171 75.3537 51.787 75.0432C51.8839 74.3173 50.911 74.6762 50.4791 74.7448C48.6062 75.0432 46.7252 75.7288 44.7432 75.8699C39.754 76.2329 32.5044 76.0151 27.8705 74.1439C25.5414 73.2043 23.5554 72.3574 23.9389 69.4013H10.2146V56.093Z" fill="#F8F3E8"/>
<path d="M70.3591 56.4963V69.1997L69.7536 69.8046H56.6348L56.2271 72.2202H55.8315L56.2312 69.4013H69.5518V58.3111C69.5518 55.0808 71.7557 56.5044 73.3865 54.0766C73.8789 55.2784 71.6104 56.589 70.3591 56.4963Z" fill="#5B3722"/>
<path d="M56.6347 10.1189H69.7534L70.3589 10.7239V23.4272L72.3731 23.8386V24.2298L69.5516 23.2256V10.5222H56.231L55.4277 7.29596L56.6347 10.1189Z" fill="#5B3722"/>
<path d="M10.2148 56.093V69.4013H23.939C23.5556 72.3574 25.5415 73.2043 27.8706 74.1439C32.5046 76.0152 39.7502 76.2329 44.7434 75.87C46.7294 75.7248 48.6104 75.0392 50.4793 74.7448C50.9112 74.6763 51.884 74.3173 51.7872 75.0433C49.8173 75.3538 47.8717 75.9627 45.8857 76.2087C40.4122 76.8862 32.2624 76.6483 27.1723 74.4383C25.0451 73.5148 23.1075 72.4663 23.5354 69.8046H9.81114V56.4963C8.57999 56.4157 6.59401 56.0447 6.58594 54.4799C7.66369 55.3671 8.71723 56.1374 10.2148 56.093Z" fill="#5B3722"/>
<path d="M23.5353 10.1188C23.0146 6.56189 26.7726 5.35205 29.5054 4.58984C35.758 2.8396 42.2003 3.20256 48.5619 4.07364C48.2632 5.23106 46.2732 4.07364 45.9381 4.07364H33.8285C33.1302 4.07364 30.1875 4.9044 29.2834 5.17864C26.5183 6.01746 23.5393 7.01357 23.939 10.5262H10.2147V23.8344H8.6001V23.4352H9.80702V10.1188H23.5313H23.5353Z" fill="#5B3722"/>
<path d="M5.36678 52.0601L3.81271 46.5634C2.98119 40.0827 3.19109 33.1704 5.57265 27.0526C5.50403 29.4481 4.53929 31.7831 4.2083 34.1625C3.34851 40.3246 4.07509 46.0432 5.36678 52.0601Z" fill="#5B3722"/>
<path d="M76.4139 45.406C76.2686 46.9707 75.5783 49.7816 75.0899 51.3423C75.0294 51.544 74.4844 53.633 73.9839 53.0643C76.5269 46.0956 76.2726 38.764 75.6106 31.4968L76.4139 34.1182C76.1677 37.7719 76.7449 41.8087 76.4139 45.41V45.406Z" fill="#5B3722"/>
<path d="M55.0205 11.7319H68.1392L68.6479 12.3207L68.4097 23.9554C70.3593 25.7822 71.4573 24.3546 72.8499 27.1897C75.5867 32.7711 75.6513 47.4465 72.6037 52.8908C71.421 55.004 70.5894 54.8225 68.3572 55.3266L68.3451 68.1954H55.0245C54.9801 71.4055 54.7985 71.9015 52.0052 73.0428C46.4226 75.3254 35.7985 75.2124 29.9939 73.6437C26.8091 72.7807 24.3952 72.1072 25.1541 68.1954H11.4258V55.492C9.56091 54.3265 8.40243 55.2782 7.18339 52.8747C4.269 47.132 4.51927 33.9406 6.9089 27.9962C7.91804 25.4878 8.71728 25.0482 11.4258 24.645V11.7319H25.15C24.7868 8.50967 25.3559 7.9854 28.1048 6.81992C33.6954 4.45266 45.7122 4.56154 51.3795 6.6949C53.975 7.67488 55.2425 8.72744 55.0164 11.7319H55.0205ZM25.3519 12.9417H12.6368V24.8385C11.4339 26.4194 9.74659 25.4798 8.50738 27.1655C5.31851 31.5169 5.63739 46.8537 7.88575 51.7657C9.22184 54.6854 10.7436 53.1892 12.6368 55.0847V66.9815H25.3519C26.3449 67.8485 25.913 69.5988 26.4498 70.7239C27.6245 73.1839 39.1932 73.9623 41.9219 73.8574C43.8998 73.7808 53.1596 72.6234 53.749 70.7522C53.9589 70.0827 53.5471 66.9815 54.8187 66.9815H67.5338V54.4797C70.5289 53.8224 71.0577 54.137 72.1718 51.2495C74.0488 46.3899 74.2748 38.5461 73.4796 33.4204C72.858 29.4198 72.3251 25.6007 67.5338 25.4475V12.9458H54.8187C53.3453 12.0989 54.2172 9.62676 53.5512 8.87262C52.2272 7.37242 44.1137 6.17467 41.9219 6.06982C39.0761 5.9327 28.02 6.45697 26.583 8.93312C26.0341 9.88083 26.1592 12.6836 25.3519 12.9458V12.9417Z" fill="#5B3722"/>
<path d="M44.6011 14.6322C44.0865 15.0133 43.7528 15.6246 43.7528 16.3137C43.7528 17.4688 42.8156 18.4052 41.6594 18.4052C40.5032 18.4052 39.566 19.3416 39.566 20.4967C39.566 21.6518 40.5032 22.5882 41.6594 22.5882C42.8156 22.5882 43.7528 23.5246 43.7528 24.6798C43.7528 25.8349 44.6901 26.7713 45.8463 26.7713H48.0072M44.6011 14.6322C43.1447 13.7103 41.4177 13.1765 39.566 13.1765C34.717 13.1765 30.7237 16.8367 30.203 21.5425M44.6011 14.6322C47.2368 16.3007 48.9864 19.2403 48.9864 22.5882C48.9864 27.7862 44.7688 32 39.566 32C37.3225 32 35.2623 31.2165 33.6443 29.9085M33.6443 29.9085L36.4258 29.9085C37.582 29.9085 38.5193 28.9721 38.5193 27.817C38.5193 26.6619 37.582 25.7255 36.4258 25.7255C35.2696 25.7255 34.3324 24.7891 34.3324 23.634C34.3324 22.4789 33.3951 21.5425 32.2389 21.5425H30.203M33.6443 29.9085C31.5101 28.1831 30.1455 25.5449 30.1455 22.5882C30.1455 22.2348 30.165 21.8859 30.203 21.5425" stroke="#5B3722" stroke-width="1.5" stroke-linecap="round"/>
<path d="M21.4622 46.121C21.1542 46.121 20.8572 46.088 20.5712 46.022C20.2852 45.956 19.9918 45.8423 19.6912 45.681L20.0432 44.801C20.2045 44.8963 20.3915 44.9807 20.6042 45.054C20.8168 45.12 21.0515 45.153 21.3082 45.153C21.8068 45.153 22.1992 44.966 22.4852 44.592C22.7712 44.218 22.9142 43.6753 22.9142 42.964C22.9142 42.2673 22.7675 41.7357 22.4742 41.369C22.1882 41.0023 21.7408 40.819 21.1322 40.819C20.8975 40.819 20.6555 40.8483 20.4062 40.907C20.1642 40.9583 19.9515 41.0353 19.7682 41.138V40.159C19.9882 40.049 20.2302 39.972 20.4942 39.928C20.7582 39.8767 21.0258 39.851 21.2972 39.851C21.9645 39.851 22.5035 39.9793 22.9142 40.236C23.3322 40.4927 23.6365 40.8557 23.8272 41.325C24.0252 41.787 24.1242 42.3333 24.1242 42.964C24.1242 43.954 23.8968 44.7277 23.4422 45.285C22.9948 45.8423 22.3348 46.121 21.4622 46.121ZM19.1821 39.048V38.542L20.0731 38.157H23.9671V39.048H19.1821ZM25.6207 46V42.227C25.6207 41.457 25.826 40.8703 26.2367 40.467C26.6474 40.0563 27.3 39.851 28.1947 39.851C28.6127 39.851 28.972 39.9023 29.2727 40.005C29.5734 40.1077 29.808 40.2837 29.9767 40.533C30.2627 40.665 30.4644 40.8813 30.5817 41.182C30.7064 41.4753 30.7687 41.8273 30.7687 42.238V46H29.5917V42.227C29.5917 41.765 29.4744 41.4167 29.2397 41.182C29.0124 40.94 28.664 40.819 28.1947 40.819C27.7254 40.819 27.3734 40.94 27.1387 41.182C26.904 41.4167 26.7867 41.765 26.7867 42.227V43.371L26.8197 43.382C26.9884 43.096 27.179 42.909 27.3917 42.821C27.6117 42.7257 27.9234 42.678 28.3267 42.678H28.6567V43.602H28.3267C27.9087 43.602 27.586 43.6643 27.3587 43.789C27.1387 43.9137 26.9884 44.0787 26.9077 44.284C26.827 44.482 26.7867 44.7057 26.7867 44.955V46H25.6207ZM29.9877 40.918L29.3387 40.335C29.5514 40.291 29.7384 40.2067 29.8997 40.082C30.061 39.9573 30.1417 39.7887 30.1417 39.576H31.2417C31.2417 39.8033 31.1904 40.0087 31.0877 40.192C30.985 40.3753 30.8384 40.5293 30.6477 40.654C30.4644 40.7713 30.2444 40.8593 29.9877 40.918ZM33.9446 46.121C33.6366 46.121 33.3396 46.088 33.0536 46.022C32.7676 45.956 32.4743 45.8423 32.1736 45.681L32.5256 44.801C32.6869 44.8963 32.8739 44.9807 33.0866 45.054C33.2993 45.12 33.5339 45.153 33.7906 45.153C34.2893 45.153 34.6816 44.966 34.9676 44.592C35.2536 44.218 35.3966 43.6753 35.3966 42.964C35.3966 42.2673 35.2499 41.7357 34.9566 41.369C34.6706 41.0023 34.2233 40.819 33.6146 40.819C33.3799 40.819 33.1379 40.8483 32.8886 40.907C32.6466 40.9583 32.4339 41.0353 32.2506 41.138V40.159C32.4706 40.049 32.7126 39.972 32.9766 39.928C33.2406 39.8767 33.5083 39.851 33.7796 39.851C34.4469 39.851 34.9859 39.9793 35.3966 40.236C35.8146 40.4927 36.1189 40.8557 36.3096 41.325C36.5076 41.787 36.6066 42.3333 36.6066 42.964C36.6066 43.954 36.3793 44.7277 35.9246 45.285C35.4773 45.8423 34.8173 46.121 33.9446 46.121ZM38.0481 46V43.987C38.0481 43.525 38.1471 43.184 38.3451 42.964C38.5431 42.744 38.8035 42.59 39.1261 42.502L39.1371 42.458L37.9381 42.007V41.666C37.9381 41.3507 38.0371 41.0537 38.2351 40.775C38.4405 40.4963 38.7338 40.2727 39.1151 40.104C39.4965 39.9353 39.9585 39.851 40.5011 39.851C40.9778 39.851 41.4105 39.928 41.7991 40.082C42.1878 40.2287 42.4958 40.4597 42.7231 40.775C42.9505 41.0903 43.0641 41.501 43.0641 42.007V46H41.8871V42.106C41.8871 41.6513 41.7551 41.325 41.4911 41.127C41.2271 40.9217 40.8898 40.819 40.4791 40.819C40.0611 40.819 39.7348 40.907 39.5001 41.083C39.2655 41.2517 39.1445 41.468 39.1371 41.732L40.2701 42.282L40.1711 42.865C39.8998 42.8723 39.6725 42.964 39.4891 43.14C39.3131 43.316 39.2251 43.5873 39.2251 43.954V46H38.0481ZM46.5888 46.121C46.1561 46.121 45.7418 46.077 45.3458 45.989C44.9571 45.901 44.6234 45.791 44.3448 45.659L44.6858 44.713C44.8398 44.779 45.0158 44.8487 45.2138 44.922C45.4118 44.988 45.6281 45.0467 45.8628 45.098C46.0974 45.142 46.3358 45.164 46.5778 45.164C46.9444 45.164 47.2378 45.1017 47.4578 44.977C47.6851 44.845 47.7988 44.6543 47.7988 44.405C47.7988 44.251 47.7511 44.119 47.6558 44.009C47.5604 43.8917 47.4174 43.789 47.2268 43.701C47.0361 43.6057 46.7978 43.5103 46.5118 43.415C46.0718 43.2683 45.6978 43.1143 45.3898 42.953C45.0818 42.7843 44.8471 42.5863 44.6858 42.359C44.5244 42.1243 44.4438 41.8347 44.4438 41.49C44.4438 41.1527 44.5318 40.863 44.7078 40.621C44.8911 40.379 45.1588 40.192 45.5108 40.06C45.8701 39.9207 46.3138 39.851 46.8418 39.851C47.2084 39.851 47.5494 39.884 47.8648 39.95C48.1874 40.0087 48.4368 40.093 48.6128 40.203V41.171C48.4881 41.1123 48.3304 41.0537 48.1398 40.995C47.9491 40.9363 47.7401 40.8887 47.5128 40.852C47.2928 40.8153 47.0691 40.797 46.8418 40.797C46.4018 40.797 46.0864 40.863 45.8958 40.995C45.7124 41.1197 45.6208 41.27 45.6208 41.446C45.6208 41.5927 45.6684 41.7173 45.7638 41.82C45.8591 41.9227 46.0168 42.0217 46.2368 42.117C46.4568 42.205 46.7428 42.3113 47.0948 42.436C47.4541 42.5607 47.7768 42.7 48.0628 42.854C48.3488 43.008 48.5724 43.2023 48.7338 43.437C48.8951 43.6717 48.9758 43.965 48.9758 44.317C48.9758 44.6323 48.8988 44.9293 48.7448 45.208C48.5981 45.4793 48.3488 45.6993 47.9968 45.868C47.6521 46.0367 47.1828 46.121 46.5888 46.121ZM52.0565 46.121C51.6239 46.121 51.2095 46.077 50.8135 45.989C50.4249 45.901 50.0912 45.791 49.8125 45.659L50.1535 44.713C50.3075 44.779 50.4835 44.8487 50.6815 44.922C50.8795 44.988 51.0959 45.0467 51.3305 45.098C51.5652 45.142 51.8035 45.164 52.0455 45.164C52.4122 45.164 52.7055 45.1017 52.9255 44.977C53.1529 44.845 53.2665 44.6543 53.2665 44.405C53.2665 44.251 53.2189 44.119 53.1235 44.009C53.0282 43.8917 52.8852 43.789 52.6945 43.701C52.5039 43.6057 52.2655 43.5103 51.9795 43.415C51.5395 43.2683 51.1655 43.1143 50.8575 42.953C50.5495 42.7843 50.3149 42.5863 50.1535 42.359C49.9922 42.1243 49.9115 41.8347 49.9115 41.49C49.9115 41.1527 49.9995 40.863 50.1755 40.621C50.3589 40.379 50.6265 40.192 50.9785 40.06C51.3379 39.9207 51.7815 39.851 52.3095 39.851C52.6762 39.851 53.0172 39.884 53.3325 39.95C53.6552 40.0087 53.9045 40.093 54.0805 40.203V41.171C53.9559 41.1123 53.7982 41.0537 53.6075 40.995C53.4169 40.9363 53.2079 40.8887 52.9805 40.852C52.7605 40.8153 52.5369 40.797 52.3095 40.797C51.8695 40.797 51.5542 40.863 51.3635 40.995C51.1802 41.1197 51.0885 41.27 51.0885 41.446C51.0885 41.5927 51.1362 41.7173 51.2315 41.82C51.3269 41.9227 51.4845 42.0217 51.7045 42.117C51.9245 42.205 52.2105 42.3113 52.5625 42.436C52.9219 42.5607 53.2445 42.7 53.5305 42.854C53.8165 43.008 54.0402 43.2023 54.2015 43.437C54.3629 43.6717 54.4435 43.965 54.4435 44.317C54.4435 44.6323 54.3665 44.9293 54.2125 45.208C54.0659 45.4793 53.8165 45.6993 53.4645 45.868C53.1199 46.0367 52.6505 46.121 52.0565 46.121ZM58.8113 46.11C58.3273 46.11 57.9166 46.0147 57.5793 45.824C57.2493 45.6333 57.022 45.373 56.8973 45.043H56.8313L56.7433 46H55.8083V39.972H56.9853V43.283C56.9853 43.6643 57.044 43.9907 57.1613 44.262C57.2786 44.5333 57.451 44.7423 57.6783 44.889C57.9056 45.0357 58.1806 45.109 58.5033 45.109C58.8993 45.109 59.1963 45.0027 59.3943 44.79C59.5923 44.57 59.6913 44.2473 59.6913 43.822V39.972H60.8683V43.976C60.8683 44.4527 60.7876 44.8487 60.6263 45.164C60.465 45.4793 60.2303 45.7177 59.9223 45.879C59.6143 46.033 59.244 46.11 58.8113 46.11Z" fill="#5B3722"/>
<path d="M19.4937 62V58.018C19.4937 57.578 19.3874 57.2663 19.1747 57.083C18.9694 56.8923 18.632 56.797 18.1627 56.797C17.7887 56.797 17.4294 56.8483 17.0847 56.951C16.7474 57.0537 16.432 57.1893 16.1387 57.358V56.313C16.3514 56.203 16.641 56.1003 17.0077 56.005C17.3817 55.9023 17.8034 55.851 18.2727 55.851C18.6614 55.851 18.9987 55.8987 19.2847 55.994C19.5707 56.082 19.7797 56.247 19.9117 56.489C20.1904 56.6063 20.3847 56.7933 20.4947 57.05C20.6047 57.3067 20.6597 57.622 20.6597 57.996V62H19.4937ZM17.6237 62.11C16.9857 62.11 16.4944 61.9633 16.1497 61.67C15.8124 61.3693 15.6437 60.9403 15.6437 60.383C15.6437 59.7817 15.86 59.3123 16.2927 58.975C16.7327 58.6377 17.4404 58.4397 18.4157 58.381L19.7137 58.293V59.217L18.5587 59.305C17.906 59.3563 17.4514 59.4663 17.1947 59.635C16.9454 59.8037 16.8207 60.042 16.8207 60.35C16.8207 60.6507 16.916 60.8707 17.1067 61.01C17.2974 61.1493 17.5577 61.219 17.8877 61.219C18.005 61.219 18.1114 61.2117 18.2067 61.197C18.3094 61.175 18.4047 61.153 18.4927 61.131L18.6357 61.956C18.4964 62.0073 18.3387 62.044 18.1627 62.066C17.994 62.0953 17.8144 62.11 17.6237 62.11ZM19.8787 56.918L19.2297 56.335C19.4424 56.291 19.6294 56.2067 19.7907 56.082C19.952 55.9573 20.0327 55.7887 20.0327 55.576H21.1327C21.1327 55.8033 21.0814 56.0087 20.9787 56.192C20.876 56.3753 20.7294 56.5293 20.5387 56.654C20.3554 56.7713 20.1354 56.8593 19.8787 56.918ZM15.8735 55.048V54.542L16.7645 54.157H20.6585V55.048H15.8735ZM19.5915 53.683V51.813H20.6695V53.683H19.5915ZM23.3883 62L21.5403 55.972H22.7283L24.2793 61.01H24.3893C24.5433 61.01 24.6936 60.9697 24.8403 60.889C24.9943 60.8083 25.1226 60.7057 25.2253 60.581C25.4233 60.3537 25.57 60.0677 25.6653 59.723C25.7606 59.3783 25.8083 59.0373 25.8083 58.7C25.8083 58.128 25.6836 57.6807 25.4343 57.358C25.185 57.0353 24.8403 56.874 24.4003 56.874C24.3123 56.874 24.228 56.8813 24.1473 56.896C24.0666 56.9033 24.0006 56.918 23.9493 56.94L23.6853 56.016C23.8466 55.972 23.997 55.9427 24.1363 55.928C24.2756 55.9133 24.3966 55.906 24.4993 55.906C24.8733 55.906 25.2033 55.961 25.4893 56.071C25.7826 56.1737 26.032 56.3277 26.2373 56.533C26.494 56.7823 26.6846 57.094 26.8093 57.468C26.934 57.842 26.9963 58.2563 26.9963 58.711C26.9963 59.2903 26.9046 59.8037 26.7213 60.251C26.5453 60.691 26.3253 61.043 26.0613 61.307C25.8413 61.5197 25.5736 61.6883 25.2583 61.813C24.943 61.9377 24.5323 62 24.0263 62H23.3883ZM29.8659 62.11C29.6239 62.11 29.4039 62.0733 29.2059 62C29.0153 61.9193 28.8613 61.791 28.7439 61.615C28.6266 61.4317 28.5679 61.186 28.5679 60.878V55.972H29.7449V60.735C29.7449 60.8963 29.7779 61.0137 29.8439 61.087C29.9173 61.153 30.0309 61.186 30.1849 61.186C30.2436 61.186 30.3096 61.1787 30.3829 61.164C30.4563 61.1493 30.5259 61.131 30.5919 61.109L30.7239 61.934C30.5846 62 30.4416 62.044 30.2949 62.066C30.1556 62.0953 30.0126 62.11 29.8659 62.11ZM32.9569 62.11C32.7149 62.11 32.4949 62.0733 32.2969 62C32.1063 61.9193 31.9523 61.791 31.8349 61.615C31.7176 61.4317 31.6589 61.186 31.6589 60.878V55.972H32.8359V60.735C32.8359 60.8963 32.8689 61.0137 32.9349 61.087C33.0083 61.153 33.1219 61.186 33.2759 61.186C33.3346 61.186 33.4006 61.1787 33.4739 61.164C33.5473 61.1493 33.6169 61.131 33.6829 61.109L33.8149 61.934C33.6756 62 33.5326 62.044 33.3859 62.066C33.2466 62.0953 33.1036 62.11 32.9569 62.11ZM36.1253 62.121C35.8173 62.121 35.5203 62.088 35.2343 62.022C34.9483 61.956 34.6549 61.8423 34.3543 61.681L34.7063 60.801C34.8676 60.8963 35.0546 60.9807 35.2673 61.054C35.4799 61.12 35.7146 61.153 35.9713 61.153C36.4699 61.153 36.8623 60.966 37.1483 60.592C37.4343 60.218 37.5773 59.6753 37.5773 58.964C37.5773 58.2673 37.4306 57.7357 37.1373 57.369C36.8513 57.0023 36.4039 56.819 35.7953 56.819C35.5606 56.819 35.3186 56.8483 35.0693 56.907C34.8273 56.9583 34.6146 57.0353 34.4313 57.138V56.159C34.6513 56.049 34.8933 55.972 35.1573 55.928C35.4213 55.8767 35.6889 55.851 35.9603 55.851C36.6276 55.851 37.1666 55.9793 37.5773 56.236C37.9953 56.4927 38.2996 56.8557 38.4903 57.325C38.6883 57.787 38.7873 58.3333 38.7873 58.964C38.7873 59.954 38.5599 60.7277 38.1053 61.285C37.6579 61.8423 36.9979 62.121 36.1253 62.121ZM42.3738 62.11C41.7798 62.11 41.3141 61.9743 40.9768 61.703C40.6394 61.4317 40.3974 61.065 40.2508 60.603C40.1114 60.1337 40.0418 59.613 40.0418 59.041C40.0418 58.4103 40.1078 57.8897 40.2398 57.479C40.3791 57.0683 40.5698 56.7457 40.8118 56.511C41.0611 56.269 41.3544 56.1003 41.6918 56.005C42.0364 55.9023 42.4141 55.851 42.8248 55.851C43.4334 55.851 43.9248 55.939 44.2988 56.115C44.6801 56.291 44.9588 56.5403 45.1348 56.863C45.3181 57.1857 45.4098 57.567 45.4098 58.007V62H44.2328V58.117C44.2328 57.6917 44.1264 57.369 43.9138 57.149C43.7084 56.929 43.3528 56.819 42.8468 56.819C42.5388 56.819 42.2601 56.8777 42.0108 56.995C41.7688 57.1123 41.5781 57.3323 41.4388 57.655C41.2994 57.9703 41.2298 58.4323 41.2298 59.041C41.2298 59.4443 41.2701 59.8073 41.3508 60.13C41.4314 60.4453 41.5671 60.6947 41.7578 60.878C41.9558 61.054 42.2271 61.142 42.5718 61.142C42.6671 61.142 42.7588 61.1383 42.8468 61.131C42.9421 61.1163 43.0301 61.0943 43.1108 61.065L43.2208 61.967C43.1034 62.0183 42.9678 62.055 42.8138 62.077C42.6598 62.099 42.5131 62.11 42.3738 62.11ZM50.6138 62V58.018C50.6138 57.578 50.5075 57.2663 50.2948 57.083C50.0895 56.8923 49.7521 56.797 49.2828 56.797C48.9088 56.797 48.5495 56.8483 48.2048 56.951C47.8675 57.0537 47.5521 57.1893 47.2588 57.358V56.313C47.4715 56.203 47.7611 56.1003 48.1278 56.005C48.5018 55.9023 48.9271 55.851 49.4038 55.851C49.7851 55.851 50.1225 55.895 50.4158 55.983C50.7091 56.0637 50.9548 56.1883 51.1528 56.357C51.3581 56.5257 51.5121 56.7457 51.6148 57.017C51.7248 57.2883 51.7798 57.6147 51.7798 57.996V62H50.6138ZM48.7438 62.11C48.1058 62.11 47.6145 61.9633 47.2698 61.67C46.9325 61.3693 46.7638 60.9403 46.7638 60.383C46.7638 59.7817 46.9801 59.3123 47.4128 58.975C47.8528 58.6377 48.5605 58.4397 49.5358 58.381L50.8338 58.293V59.217L49.6788 59.305C49.0261 59.3563 48.5715 59.4663 48.3148 59.635C48.0655 59.8037 47.9408 60.042 47.9408 60.35C47.9408 60.6507 48.0361 60.8707 48.2268 61.01C48.4175 61.1493 48.6778 61.219 49.0078 61.219C49.1251 61.219 49.2315 61.2117 49.3268 61.197C49.4295 61.175 49.5248 61.153 49.6128 61.131L49.7558 61.956C49.6165 62.0073 49.4588 62.044 49.2828 62.066C49.1141 62.0953 48.9345 62.11 48.7438 62.11ZM48.4822 55.059V54.553C48.6142 54.5237 48.7536 54.4833 48.9002 54.432C49.0469 54.3733 49.1716 54.3 49.2742 54.212C49.3696 54.1167 49.4172 54.003 49.4172 53.871C49.4172 53.783 49.3916 53.7097 49.3402 53.651C49.2816 53.585 49.1972 53.552 49.0872 53.552C49.0212 53.552 48.9516 53.5667 48.8782 53.596C48.8049 53.618 48.7389 53.64 48.6802 53.662L48.4602 53.024C48.6069 52.9067 48.7756 52.8297 48.9662 52.793C49.1569 52.749 49.3146 52.727 49.4392 52.727C49.7399 52.727 49.9782 52.8077 50.1542 52.969C50.3229 53.1303 50.4072 53.343 50.4072 53.607C50.4072 53.7977 50.3596 53.9663 50.2642 54.113C50.1616 54.2597 50.0332 54.377 49.8792 54.465L49.7912 54.201H51.9472V55.059H48.4822ZM55.6969 62.121C54.8756 62.121 54.2596 61.912 53.8489 61.494C53.4456 61.0687 53.2439 60.416 53.2439 59.536C53.2439 59.3893 53.2476 59.2243 53.2549 59.041C53.2696 58.8577 53.2879 58.6853 53.3099 58.524H55.7189V59.371H54.4209V59.569C54.4209 59.9797 54.4649 60.306 54.5529 60.548C54.6483 60.79 54.7876 60.9587 54.9709 61.054C55.1616 61.1493 55.3963 61.197 55.6749 61.197C55.9829 61.197 56.2469 61.1383 56.4669 61.021C56.6869 60.9037 56.8556 60.691 56.9729 60.383C57.0976 60.0677 57.1599 59.624 57.1599 59.052C57.1599 58.5387 57.1049 58.1207 56.9949 57.798C56.8849 57.468 56.6979 57.2223 56.4339 57.061C56.1773 56.8997 55.8326 56.819 55.3999 56.819C55.1653 56.819 54.9343 56.841 54.7069 56.885C54.4869 56.9217 54.2743 56.9803 54.0689 57.061C53.8636 57.1343 53.6656 57.226 53.4749 57.336V56.28C53.6289 56.1993 53.8159 56.1297 54.0359 56.071C54.2559 56.005 54.4979 55.9537 54.7619 55.917C55.0259 55.873 55.2973 55.851 55.5759 55.851C56.2359 55.851 56.7713 55.983 57.1819 56.247C57.5926 56.5037 57.8933 56.8703 58.0839 57.347C58.2746 57.8163 58.3699 58.3773 58.3699 59.03C58.3699 59.6827 58.2819 60.24 58.1059 60.702C57.9299 61.164 57.6439 61.516 57.2479 61.758C56.8593 62 56.3423 62.121 55.6969 62.121ZM62.9578 62.11C62.4738 62.11 62.0631 62.0147 61.7258 61.824C61.3958 61.6333 61.1685 61.373 61.0438 61.043H60.9778L60.8898 62H59.9548V55.972H61.1318V59.283C61.1318 59.6643 61.1905 59.9907 61.3078 60.262C61.4251 60.5333 61.5975 60.7423 61.8248 60.889C62.0521 61.0357 62.3271 61.109 62.6498 61.109C63.0458 61.109 63.3428 61.0027 63.5408 60.79C63.7388 60.57 63.8378 60.2473 63.8378 59.822V55.972H65.0148V59.976C65.0148 60.4527 64.9341 60.8487 64.7728 61.164C64.6115 61.4793 64.3768 61.7177 64.0688 61.879C63.7608 62.033 63.3905 62.11 62.9578 62.11Z" fill="#5B3722"/>
</svg>
