<svg width="80" height="80" viewBox="0 0 80 80" fill="none" xmlns="http://www.w3.org/2000/svg">
<path d="M12.2006 12.2925H25.17C25.17 12.2925 25.4284 8.8162 27.1762 7.62652C29.3357 6.15857 39.0598 4.85597 45.8977 5.81578C53.4339 6.87238 55.1979 9.72762 54.5843 12.1029L67.9372 12.2965V24.4676L71.9657 26.4799L74.5854 34.3117L73.4511 52.79L67.9332 56.2784L67.9695 67.7437H54.9799L53.9021 72.4177L40.9852 74.5027L29.6143 72.8855L25.7634 70.9458L25.3315 67.4574L14.788 67.4211L11.4135 67.171L11.5871 55.1291L7.37694 52.3988L5.04785 41.0061L7.13071 27.4518L11.8373 24.0401L12.1885 12.3006L12.2006 12.2925Z" fill="#F8F3E8"/>
<path d="M73.5883 6.89259V21.0074C73.5883 21.1768 75.3281 21.9632 76.1758 23.0601C81.4112 29.8433 81.2659 50.6285 75.7721 57.2665C74.9648 58.2424 73.5883 58.7788 73.5883 58.9159V73.0308H59.6623C59.4483 73.0308 57.6682 75.6319 56.8367 76.257C49.2278 81.9635 27.9633 81.0843 21.1012 74.035C20.7661 73.6922 20.7661 73.0348 20.7096 73.0348H6.5817V59.5249C6.5817 59.1902 4.93883 58.3473 4.56343 57.9118C-1.61652 50.7293 -1.4712 29.1336 4.70471 21.9632C5.00745 21.6124 6.5817 20.7977 6.5817 20.4106V6.89259H20.1041C20.4392 6.89259 21.8116 4.75923 22.3484 4.29545C29.0289 -1.5118 50.3015 -1.2779 57.2403 4.07365C57.9831 4.64631 59.4766 6.89662 59.6623 6.89662H73.5883V6.89259ZM58.2495 8.10243C58.1687 7.01761 57.4341 6.15055 56.647 5.469C50.685 0.302967 26.3446 -0.370514 22.1547 6.94905C21.9085 7.38056 21.9811 8.10647 21.9206 8.10647H7.79267V21.818C7.79267 22.0156 5.63312 23.0279 4.78948 24.2619C0.490559 30.5773 0.24433 49.7735 4.96709 55.8913C5.54028 56.6333 7.79267 58.1255 7.79267 58.311V71.216L8.39815 71.8209H21.9206C22.0336 71.8209 22.2758 73.0993 22.9176 73.8535C28.1853 80.0116 52.8486 80.0559 57.7974 73.1679C58.1203 72.7202 58.1809 71.8209 58.2495 71.8209H71.9737V58.1094C71.9737 57.9964 73.2654 57.7988 74.0122 57.1173C79.9903 51.673 80.2365 27.226 73.3219 22.2657C72.8739 21.9431 71.9737 21.8826 71.9737 21.814V8.10243H58.2495Z" fill="#5B3722"/>
<path d="M58.2495 8.1025H71.9737V21.8141C71.9737 21.8867 72.8739 21.9431 73.3219 22.2658C80.2365 27.2261 79.9903 51.673 74.0122 57.1174C73.2654 57.7989 71.9737 57.9965 71.9737 58.1094V71.821H58.2495C58.1768 71.821 58.1203 72.7203 57.7974 73.168C52.8486 80.056 28.1853 80.0117 22.9176 73.8535C22.2758 73.1034 22.0336 71.821 21.9206 71.821H8.39816L7.79268 71.2161V58.3111C7.79268 58.1256 5.54029 56.6334 4.9671 55.8914C0.244342 49.7736 0.490571 30.5774 4.78949 24.262C5.62909 23.0239 7.79268 22.0117 7.79268 21.8181V8.1025H21.9206C21.9811 8.1025 21.9085 7.37659 22.1547 6.94508C26.3446 -0.370447 50.685 0.303034 56.647 5.46907C57.4341 6.15062 58.1688 7.01767 58.2495 8.1025ZM23.5352 10.1189H9.81095V23.4272H8.60403V23.8265H10.2186V10.5222H23.9429C23.5433 7.01364 26.5263 6.0135 29.2873 5.17468C30.1915 4.90044 33.1301 4.06968 33.8324 4.06968H45.9421C46.2731 4.06968 48.2671 5.23114 48.5658 4.06968C42.2042 3.19456 35.7619 2.83161 29.5093 4.58588C26.7766 5.35212 23.0185 6.56196 23.5392 10.1149L23.5352 10.1189ZM55.0202 11.732C55.2463 8.72759 53.9788 7.67502 51.3833 6.69505C45.712 4.55765 33.6992 4.4528 28.1086 6.82006C25.3597 7.98152 24.7906 8.50981 25.1539 11.732H11.4256V24.637C8.72109 25.0444 7.91781 25.4799 6.90868 27.9883C4.51904 33.9327 4.26878 47.124 7.18316 52.8668C8.4022 55.2703 9.56069 54.3186 11.4256 55.4841V68.1874H25.1498C24.391 72.0993 26.8048 72.7727 29.9896 73.6358C35.7902 75.2045 46.4143 75.3175 52.0009 73.0349C54.7942 71.8936 54.9758 71.3976 55.0202 68.1874H68.3408L68.353 55.3187C70.5892 54.8146 71.4167 54.9961 72.5994 52.8829C75.647 47.4386 75.5824 32.7672 72.8456 27.1818C71.453 24.3427 70.3551 25.7703 68.4054 23.9474L68.6436 12.3128L68.135 11.724H55.0162L55.0202 11.732ZM56.6349 10.1189L55.4279 7.29594L56.2312 10.5222H69.5518V23.2256L72.3734 24.2297V23.8345L70.3591 23.4272V10.7238L69.7536 10.1189H56.6349ZM5.36672 52.0602C4.07099 46.0432 3.34844 40.3247 4.20823 34.1626C4.53923 31.7872 5.508 29.4522 5.57258 27.0527C3.19102 33.1665 2.97708 40.0787 3.81265 46.5635L5.36672 52.0602ZM76.4139 45.406C76.7449 41.8047 76.1677 37.7679 76.4139 34.1142L75.6107 31.4928C76.2767 38.76 76.531 46.0916 73.9839 53.0603C74.4845 53.629 75.0254 51.54 75.09 51.3383C75.5784 49.7817 76.2686 46.9668 76.4139 45.402V45.406ZM70.3591 56.4963C71.6145 56.5891 73.883 55.2824 73.3865 54.0766C71.7558 56.5044 69.5518 55.0808 69.5518 58.3111V69.4013H56.2312L55.8316 72.2243H56.2272L56.6349 69.8046H69.7536L70.3591 69.1997V56.4963ZM10.2146 56.093C8.71705 56.1374 7.66351 55.3671 6.58575 54.4799C6.59383 56.0446 8.57981 56.4156 9.81095 56.4963V69.8046H23.5352C23.1114 72.4662 25.0449 73.5148 27.1721 74.4383C32.2662 76.6483 40.412 76.8862 45.8856 76.2087C47.8715 75.9627 49.8171 75.3537 51.787 75.0432C51.8839 74.3173 50.911 74.6762 50.4791 74.7448C48.6062 75.0432 46.7252 75.7288 44.7432 75.8699C39.754 76.2329 32.5044 76.0151 27.8705 74.1439C25.5414 73.2043 23.5554 72.3574 23.9389 69.4013H10.2146V56.093Z" fill="#F8F3E8"/>
<path d="M70.3592 56.4963V69.1997L69.7537 69.8046H56.6349L56.2272 72.2202H55.8317L56.2313 69.4013H69.5519V58.3111C69.5519 55.0808 71.7558 56.5044 73.3866 54.0766C73.8791 55.2784 71.6105 56.589 70.3592 56.4963Z" fill="#5B3722"/>
<path d="M56.6349 10.1189H69.7537L70.3592 10.7239V23.4272L72.3734 23.8386V24.2298L69.5518 23.2256V10.5222H56.2312L55.428 7.29596L56.6349 10.1189Z" fill="#5B3722"/>
<path d="M10.2145 56.093V69.4013H23.9388C23.5553 72.3574 25.5413 73.2043 27.8704 74.1439C32.5043 76.0152 39.7499 76.2329 44.7431 75.87C46.7291 75.7248 48.6102 75.0392 50.4791 74.7448C50.911 74.6763 51.8838 74.3173 51.7869 75.0433C49.8171 75.3538 47.8715 75.9627 45.8855 76.2087C40.4119 76.8862 32.2621 76.6483 27.1721 74.4383C25.0448 73.5148 23.1073 72.4663 23.5351 69.8046H9.81089V56.4963C8.57975 56.4157 6.59377 56.0447 6.58569 54.4799C7.66345 55.3671 8.71699 56.1374 10.2145 56.093Z" fill="#5B3722"/>
<path d="M23.5352 10.1188C23.0145 6.56189 26.7725 5.35205 29.5052 4.58984C35.7578 2.8396 42.2002 3.20256 48.5618 4.07364C48.2631 5.23106 46.273 4.07364 45.938 4.07364H33.8284C33.1301 4.07364 30.1874 4.9044 29.2832 5.17864C26.5182 6.01746 23.5392 7.01357 23.9388 10.5262H10.2146V23.8344H8.59998V23.4352H9.8069V10.1188H23.5312H23.5352Z" fill="#5B3722"/>
<path d="M5.36666 52.0601L3.81259 46.5634C2.98106 40.0827 3.19096 33.1704 5.57253 27.0526C5.5039 29.4481 4.53917 31.7831 4.20817 34.1625C3.34839 40.3246 4.07497 46.0432 5.36666 52.0601Z" fill="#5B3722"/>
<path d="M76.4139 45.406C76.2686 46.9707 75.5783 49.7816 75.0899 51.3423C75.0294 51.544 74.4844 53.633 73.9839 53.0643C76.5269 46.0956 76.2726 38.764 75.6106 31.4968L76.4139 34.1182C76.1677 37.7719 76.7449 41.8087 76.4139 45.41V45.406Z" fill="#5B3722"/>
<path d="M55.0202 11.7319H68.139L68.6476 12.3207L68.4095 23.9554C70.3591 25.7822 71.457 24.3546 72.8497 27.1897C75.5864 32.7711 75.651 47.4465 72.6034 52.8908C71.4207 55.004 70.5892 54.8225 68.357 55.3266L68.3449 68.1954H55.0243C54.9799 71.4055 54.7982 71.9015 52.0049 73.0428C46.4224 75.3254 35.7982 75.2124 29.9937 73.6437C26.8088 72.7807 24.395 72.1072 25.1538 68.1954H11.4256V55.492C9.56067 54.3265 8.40218 55.2782 7.18314 52.8747C4.26876 47.132 4.51903 33.9406 6.90866 27.9962C7.9178 25.4878 8.71703 25.0482 11.4256 24.645V11.7319H25.1498C24.7865 8.50967 25.3557 7.9854 28.1046 6.81992C33.6952 4.45266 45.712 4.56154 51.3793 6.6949C53.9748 7.67488 55.2422 8.72744 55.0162 11.7319H55.0202ZM25.3516 12.9417H12.6365V24.8385C11.4336 26.4194 9.74635 25.4798 8.50713 27.1655C5.31826 31.5169 5.63715 46.8537 7.8855 51.7657C9.2216 54.6854 10.7434 53.1892 12.6365 55.0847V66.9815H25.3516C26.3446 67.8485 25.9127 69.5988 26.4496 70.7239C27.6242 73.1839 39.1929 73.9623 41.9216 73.8574C43.8996 73.7808 53.1594 72.6234 53.7487 70.7522C53.9586 70.0827 53.5469 66.9815 54.8184 66.9815H67.5335V54.4797C70.5286 53.8224 71.0574 54.137 72.1715 51.2495C74.0485 46.3899 74.2746 38.5461 73.4794 33.4204C72.8577 29.4198 72.3249 25.6007 67.5335 25.4475V12.9458H54.8184C53.3451 12.0989 54.217 9.62676 53.5509 8.87262C52.2269 7.37242 44.1135 6.17467 41.9216 6.06982C39.0759 5.9327 28.0198 6.45697 26.5828 8.93312C26.0338 9.88083 26.1589 12.6836 25.3516 12.9458V12.9417Z" fill="#5B3722"/>
<path d="M41.5689 14.1176H44.2305C44.8026 14.1176 45.3475 14.3652 45.7276 14.7978L48.4804 17.9308C49.1192 18.6579 49.1572 19.7416 48.5709 20.5127L41.1536 30.2679C40.3517 31.3225 38.78 31.3225 37.9782 30.2679L30.5608 20.5127C29.9745 19.7416 30.0125 18.6579 30.6514 17.9308L33.4041 14.7978C33.7842 14.3652 34.3291 14.1176 34.9012 14.1176H37.7853M41.5689 14.1176L43.572 19.1839M41.5689 14.1176H37.7853M43.572 19.1839H48.5798M43.572 19.1839L39.5659 30.8362L35.5597 19.1839M43.572 19.1839H35.5597M37.7853 14.1176L35.5597 19.1839M30.5519 19.1839H35.5597" stroke="#5B3722" stroke-width="1.5" stroke-linecap="round" stroke-linejoin="round"/>
<path d="M21.4622 46.121C21.1542 46.121 20.8572 46.088 20.5712 46.022C20.2852 45.956 19.9918 45.8423 19.6912 45.681L20.0432 44.801C20.2045 44.8963 20.3915 44.9807 20.6042 45.054C20.8168 45.12 21.0515 45.153 21.3082 45.153C21.8068 45.153 22.1992 44.966 22.4852 44.592C22.7712 44.218 22.9142 43.6753 22.9142 42.964C22.9142 42.2673 22.7675 41.7357 22.4742 41.369C22.1882 41.0023 21.7408 40.819 21.1322 40.819C20.8975 40.819 20.6555 40.8483 20.4062 40.907C20.1642 40.9583 19.9515 41.0353 19.7682 41.138V40.159C19.9882 40.049 20.2302 39.972 20.4942 39.928C20.7582 39.8767 21.0258 39.851 21.2972 39.851C21.9645 39.851 22.5035 39.9793 22.9142 40.236C23.3322 40.4927 23.6365 40.8557 23.8272 41.325C24.0252 41.787 24.1242 42.3333 24.1242 42.964C24.1242 43.954 23.8968 44.7277 23.4422 45.285C22.9948 45.8423 22.3348 46.121 21.4622 46.121ZM19.1821 39.048V38.542L20.0731 38.157H23.9671V39.048H19.1821ZM25.6207 46V42.227C25.6207 41.457 25.826 40.8703 26.2367 40.467C26.6474 40.0563 27.3 39.851 28.1947 39.851C28.6127 39.851 28.972 39.9023 29.2727 40.005C29.5734 40.1077 29.808 40.2837 29.9767 40.533C30.2627 40.665 30.4644 40.8813 30.5817 41.182C30.7064 41.4753 30.7687 41.8273 30.7687 42.238V46H29.5917V42.227C29.5917 41.765 29.4744 41.4167 29.2397 41.182C29.0124 40.94 28.664 40.819 28.1947 40.819C27.7254 40.819 27.3734 40.94 27.1387 41.182C26.904 41.4167 26.7867 41.765 26.7867 42.227V43.371L26.8197 43.382C26.9884 43.096 27.179 42.909 27.3917 42.821C27.6117 42.7257 27.9234 42.678 28.3267 42.678H28.6567V43.602H28.3267C27.9087 43.602 27.586 43.6643 27.3587 43.789C27.1387 43.9137 26.9884 44.0787 26.9077 44.284C26.827 44.482 26.7867 44.7057 26.7867 44.955V46H25.6207ZM29.9877 40.918L29.3387 40.335C29.5514 40.291 29.7384 40.2067 29.8997 40.082C30.061 39.9573 30.1417 39.7887 30.1417 39.576H31.2417C31.2417 39.8033 31.1904 40.0087 31.0877 40.192C30.985 40.3753 30.8384 40.5293 30.6477 40.654C30.4644 40.7713 30.2444 40.8593 29.9877 40.918ZM33.9446 46.121C33.6366 46.121 33.3396 46.088 33.0536 46.022C32.7676 45.956 32.4743 45.8423 32.1736 45.681L32.5256 44.801C32.6869 44.8963 32.8739 44.9807 33.0866 45.054C33.2993 45.12 33.5339 45.153 33.7906 45.153C34.2893 45.153 34.6816 44.966 34.9676 44.592C35.2536 44.218 35.3966 43.6753 35.3966 42.964C35.3966 42.2673 35.2499 41.7357 34.9566 41.369C34.6706 41.0023 34.2233 40.819 33.6146 40.819C33.3799 40.819 33.1379 40.8483 32.8886 40.907C32.6466 40.9583 32.4339 41.0353 32.2506 41.138V40.159C32.4706 40.049 32.7126 39.972 32.9766 39.928C33.2406 39.8767 33.5083 39.851 33.7796 39.851C34.4469 39.851 34.9859 39.9793 35.3966 40.236C35.8146 40.4927 36.1189 40.8557 36.3096 41.325C36.5076 41.787 36.6066 42.3333 36.6066 42.964C36.6066 43.954 36.3793 44.7277 35.9246 45.285C35.4773 45.8423 34.8173 46.121 33.9446 46.121ZM38.0481 46V43.987C38.0481 43.525 38.1471 43.184 38.3451 42.964C38.5431 42.744 38.8035 42.59 39.1261 42.502L39.1371 42.458L37.9381 42.007V41.666C37.9381 41.3507 38.0371 41.0537 38.2351 40.775C38.4405 40.4963 38.7338 40.2727 39.1151 40.104C39.4965 39.9353 39.9585 39.851 40.5011 39.851C40.9778 39.851 41.4105 39.928 41.7991 40.082C42.1878 40.2287 42.4958 40.4597 42.7231 40.775C42.9505 41.0903 43.0641 41.501 43.0641 42.007V46H41.8871V42.106C41.8871 41.6513 41.7551 41.325 41.4911 41.127C41.2271 40.9217 40.8898 40.819 40.4791 40.819C40.0611 40.819 39.7348 40.907 39.5001 41.083C39.2655 41.2517 39.1445 41.468 39.1371 41.732L40.2701 42.282L40.1711 42.865C39.8998 42.8723 39.6725 42.964 39.4891 43.14C39.3131 43.316 39.2251 43.5873 39.2251 43.954V46H38.0481ZM46.5888 46.121C46.1561 46.121 45.7418 46.077 45.3458 45.989C44.9571 45.901 44.6234 45.791 44.3448 45.659L44.6858 44.713C44.8398 44.779 45.0158 44.8487 45.2138 44.922C45.4118 44.988 45.6281 45.0467 45.8628 45.098C46.0974 45.142 46.3358 45.164 46.5778 45.164C46.9444 45.164 47.2378 45.1017 47.4578 44.977C47.6851 44.845 47.7988 44.6543 47.7988 44.405C47.7988 44.251 47.7511 44.119 47.6558 44.009C47.5604 43.8917 47.4174 43.789 47.2268 43.701C47.0361 43.6057 46.7978 43.5103 46.5118 43.415C46.0718 43.2683 45.6978 43.1143 45.3898 42.953C45.0818 42.7843 44.8471 42.5863 44.6858 42.359C44.5244 42.1243 44.4438 41.8347 44.4438 41.49C44.4438 41.1527 44.5318 40.863 44.7078 40.621C44.8911 40.379 45.1588 40.192 45.5108 40.06C45.8701 39.9207 46.3138 39.851 46.8418 39.851C47.2084 39.851 47.5494 39.884 47.8648 39.95C48.1874 40.0087 48.4368 40.093 48.6128 40.203V41.171C48.4881 41.1123 48.3304 41.0537 48.1398 40.995C47.9491 40.9363 47.7401 40.8887 47.5128 40.852C47.2928 40.8153 47.0691 40.797 46.8418 40.797C46.4018 40.797 46.0864 40.863 45.8958 40.995C45.7124 41.1197 45.6208 41.27 45.6208 41.446C45.6208 41.5927 45.6684 41.7173 45.7638 41.82C45.8591 41.9227 46.0168 42.0217 46.2368 42.117C46.4568 42.205 46.7428 42.3113 47.0948 42.436C47.4541 42.5607 47.7768 42.7 48.0628 42.854C48.3488 43.008 48.5724 43.2023 48.7338 43.437C48.8951 43.6717 48.9758 43.965 48.9758 44.317C48.9758 44.6323 48.8988 44.9293 48.7448 45.208C48.5981 45.4793 48.3488 45.6993 47.9968 45.868C47.6521 46.0367 47.1828 46.121 46.5888 46.121ZM52.0565 46.121C51.6239 46.121 51.2095 46.077 50.8135 45.989C50.4249 45.901 50.0912 45.791 49.8125 45.659L50.1535 44.713C50.3075 44.779 50.4835 44.8487 50.6815 44.922C50.8795 44.988 51.0959 45.0467 51.3305 45.098C51.5652 45.142 51.8035 45.164 52.0455 45.164C52.4122 45.164 52.7055 45.1017 52.9255 44.977C53.1529 44.845 53.2665 44.6543 53.2665 44.405C53.2665 44.251 53.2189 44.119 53.1235 44.009C53.0282 43.8917 52.8852 43.789 52.6945 43.701C52.5039 43.6057 52.2655 43.5103 51.9795 43.415C51.5395 43.2683 51.1655 43.1143 50.8575 42.953C50.5495 42.7843 50.3149 42.5863 50.1535 42.359C49.9922 42.1243 49.9115 41.8347 49.9115 41.49C49.9115 41.1527 49.9995 40.863 50.1755 40.621C50.3589 40.379 50.6265 40.192 50.9785 40.06C51.3379 39.9207 51.7815 39.851 52.3095 39.851C52.6762 39.851 53.0172 39.884 53.3325 39.95C53.6552 40.0087 53.9045 40.093 54.0805 40.203V41.171C53.9559 41.1123 53.7982 41.0537 53.6075 40.995C53.4169 40.9363 53.2079 40.8887 52.9805 40.852C52.7605 40.8153 52.5369 40.797 52.3095 40.797C51.8695 40.797 51.5542 40.863 51.3635 40.995C51.1802 41.1197 51.0885 41.27 51.0885 41.446C51.0885 41.5927 51.1362 41.7173 51.2315 41.82C51.3269 41.9227 51.4845 42.0217 51.7045 42.117C51.9245 42.205 52.2105 42.3113 52.5625 42.436C52.9219 42.5607 53.2445 42.7 53.5305 42.854C53.8165 43.008 54.0402 43.2023 54.2015 43.437C54.3629 43.6717 54.4435 43.965 54.4435 44.317C54.4435 44.6323 54.3665 44.9293 54.2125 45.208C54.0659 45.4793 53.8165 45.6993 53.4645 45.868C53.1199 46.0367 52.6505 46.121 52.0565 46.121ZM58.8113 46.11C58.3273 46.11 57.9166 46.0147 57.5793 45.824C57.2493 45.6333 57.022 45.373 56.8973 45.043H56.8313L56.7433 46H55.8083V39.972H56.9853V43.283C56.9853 43.6643 57.044 43.9907 57.1613 44.262C57.2786 44.5333 57.451 44.7423 57.6783 44.889C57.9056 45.0357 58.1806 45.109 58.5033 45.109C58.8993 45.109 59.1963 45.0027 59.3943 44.79C59.5923 44.57 59.6913 44.2473 59.6913 43.822V39.972H60.8683V43.976C60.8683 44.4527 60.7876 44.8487 60.6263 45.164C60.465 45.4793 60.2303 45.7177 59.9223 45.879C59.6143 46.033 59.244 46.11 58.8113 46.11Z" fill="#5B3722"/>
<path d="M16.1079 62V57.342H16.7539L16.8984 58.0815H16.9409C17.0372 57.8322 17.2101 57.6338 17.4594 57.4865C17.7144 57.3335 18.0261 57.257 18.3944 57.257C18.7401 57.257 19.0319 57.3165 19.2699 57.4355C19.5079 57.5545 19.6921 57.7358 19.8224 57.9795C19.9527 58.2232 20.0179 58.5377 20.0179 58.923V62H19.1084V59.025C19.1084 58.6907 19.0291 58.4413 18.8704 58.277C18.7117 58.1127 18.4794 58.0305 18.1734 58.0305C17.9241 58.0305 17.7116 58.09 17.5359 58.209C17.3659 58.328 17.2356 58.4952 17.1449 58.7105C17.0599 58.9202 17.0174 59.1638 17.0174 59.4415V62H16.1079ZM22.7306 62.0935C22.3963 62.0935 22.0761 62.0595 21.7701 61.9915C21.4698 61.9235 21.2119 61.8385 20.9966 61.7365L21.2601 61.0055C21.3791 61.0565 21.5151 61.1103 21.6681 61.167C21.8211 61.218 21.9883 61.2633 22.1696 61.303C22.3509 61.337 22.5351 61.354 22.7221 61.354C23.0054 61.354 23.2321 61.3058 23.4021 61.2095C23.5778 61.1075 23.6656 60.9602 23.6656 60.7675C23.6656 60.6485 23.6288 60.5465 23.5551 60.4615C23.4814 60.3708 23.3709 60.2915 23.2236 60.2235C23.0763 60.1498 22.8921 60.0762 22.6711 60.0025C22.3311 59.8892 22.0421 59.7702 21.8041 59.6455C21.5661 59.5152 21.3848 59.3622 21.2601 59.1865C21.1354 59.0052 21.0731 58.7813 21.0731 58.515C21.0731 58.2543 21.1411 58.0305 21.2771 57.8435C21.4188 57.6565 21.6256 57.512 21.8976 57.41C22.1753 57.3023 22.5181 57.2485 22.9261 57.2485C23.2094 57.2485 23.4729 57.274 23.7166 57.325C23.9659 57.3703 24.1586 57.4355 24.2946 57.5205V58.2685C24.1983 58.2232 24.0764 58.1778 23.9291 58.1325C23.7818 58.0872 23.6203 58.0503 23.4446 58.022C23.2746 57.9937 23.1018 57.9795 22.9261 57.9795C22.5861 57.9795 22.3424 58.0305 22.1951 58.1325C22.0534 58.2288 21.9826 58.345 21.9826 58.481C21.9826 58.5943 22.0194 58.6907 22.0931 58.77C22.1668 58.8493 22.2886 58.9258 22.4586 58.9995C22.6286 59.0675 22.8496 59.1497 23.1216 59.246C23.3993 59.3423 23.6486 59.45 23.8696 59.569C24.0906 59.688 24.2634 59.8382 24.3881 60.0195C24.5128 60.2008 24.5751 60.4275 24.5751 60.6995C24.5751 60.9432 24.5156 61.1727 24.3966 61.388C24.2833 61.5977 24.0906 61.7677 23.8186 61.898C23.5523 62.0283 23.1896 62.0935 22.7306 62.0935ZM23.3609 56.628C23.1172 56.628 22.9246 56.594 22.7829 56.526C22.6356 56.4523 22.5307 56.3617 22.4684 56.254C22.4004 56.1407 22.3664 56.0217 22.3664 55.897C22.3664 55.8063 22.3806 55.71 22.4089 55.608C22.4316 55.506 22.4656 55.4182 22.5109 55.3445L23.2334 55.455C23.2221 55.4833 23.2107 55.523 23.1994 55.574C23.1881 55.625 23.1824 55.6732 23.1824 55.7185C23.1824 55.7922 23.2051 55.8545 23.2504 55.9055C23.2957 55.9565 23.3751 55.982 23.4884 55.982H25.5454V56.628H23.3609ZM26.0547 62L25.2217 57.342H26.1312L26.4372 59.2545C26.4598 59.4075 26.4853 59.6115 26.5137 59.8665C26.542 60.1215 26.5732 60.419 26.6072 60.759H26.6327C26.6837 60.5267 26.7318 60.317 26.7772 60.13C26.8225 59.943 26.865 59.7758 26.9047 59.6285C26.9443 59.4755 26.9812 59.3423 27.0152 59.229L27.5507 57.342H28.2222L28.7662 59.229C28.7945 59.3423 28.8285 59.4755 28.8682 59.6285C28.9135 59.7758 28.9588 59.943 29.0042 60.13C29.0495 60.317 29.0977 60.5267 29.1487 60.759H29.1742C29.2082 60.419 29.2365 60.1215 29.2592 59.8665C29.2875 59.6115 29.3158 59.4075 29.3442 59.2545L29.6502 57.342H30.5597L29.7352 62H28.8427L28.1372 59.654C28.0918 59.4897 28.0493 59.3282 28.0097 59.1695C27.9757 59.0052 27.9445 58.8068 27.9162 58.5745H27.8822C27.8595 58.7275 27.834 58.8663 27.8057 58.991C27.783 59.11 27.7575 59.2233 27.7292 59.331C27.7008 59.4387 27.6697 59.5463 27.6357 59.654L26.9302 62H26.0547ZM33.391 62.085C32.915 62.085 32.5354 62.0255 32.252 61.9065C31.9687 61.7875 31.7619 61.6203 31.6315 61.405C31.5069 61.184 31.4445 60.929 31.4445 60.64C31.4445 60.3793 31.4814 60.1725 31.555 60.0195C31.6344 59.8608 31.7335 59.7447 31.8525 59.671C31.9715 59.5973 32.0934 59.5463 32.218 59.518V59.484C32.099 59.4443 31.9772 59.3848 31.8525 59.3055C31.7335 59.2262 31.6315 59.1185 31.5465 58.9825C31.4672 58.8408 31.4275 58.6623 31.4275 58.447C31.4275 58.2487 31.4729 58.0617 31.5635 57.886C31.6599 57.7047 31.8129 57.5573 32.0225 57.444C32.2322 57.3307 32.507 57.274 32.847 57.274C32.9944 57.274 33.1445 57.2853 33.2975 57.308C33.4505 57.3307 33.5695 57.3647 33.6545 57.41L33.5015 58.073C33.4449 58.056 33.3684 58.039 33.272 58.022C33.1814 58.005 33.085 57.9965 32.983 57.9965C32.7677 57.9965 32.6062 58.0475 32.4985 58.1495C32.3965 58.2515 32.3455 58.3847 32.3455 58.549C32.3455 58.7303 32.3909 58.8692 32.4815 58.9655C32.5722 59.0562 32.6884 59.1185 32.83 59.1525C32.9774 59.1865 33.1275 59.2035 33.2805 59.2035H33.4505V59.824H33.2805C32.9689 59.824 32.7394 59.8807 32.592 59.994C32.4447 60.1017 32.371 60.2858 32.371 60.5465C32.371 60.6882 32.3994 60.8242 32.456 60.9545C32.5184 61.0792 32.6232 61.1783 32.7705 61.252C32.9179 61.3257 33.1275 61.3625 33.3995 61.3625C33.6659 61.3625 33.8727 61.3257 34.02 61.252C34.1674 61.1783 34.2722 61.0735 34.3345 60.9375C34.4025 60.8015 34.4365 60.64 34.4365 60.453V57.342H35.346V60.402C35.346 60.9913 35.1874 61.4192 34.87 61.6855C34.5527 61.9518 34.0597 62.085 33.391 62.085ZM37.9518 62V58.7615C37.9518 58.4952 37.8895 58.2997 37.7648 58.175C37.6458 58.0503 37.4418 57.988 37.1528 57.988C36.9545 57.988 36.7675 58.0163 36.5918 58.073C36.4218 58.124 36.2603 58.1948 36.1073 58.2855V57.5035C36.2263 57.4468 36.3907 57.3902 36.6003 57.3335C36.8157 57.2768 37.0707 57.2485 37.3653 57.2485C37.6657 57.2485 37.9263 57.2938 38.1473 57.3845C38.374 57.4695 38.5497 57.6112 38.6743 57.8095C38.799 58.0078 38.8613 58.277 38.8613 58.617V62H37.9518ZM40.1452 62V60.4445C40.1452 60.0875 40.2217 59.824 40.3747 59.654C40.5277 59.484 40.7288 59.365 40.9782 59.297L40.9867 59.263L40.0602 58.9145V58.651C40.0602 58.4073 40.1367 58.1778 40.2897 57.9625C40.4483 57.7472 40.675 57.5743 40.9697 57.444C41.2643 57.3137 41.6213 57.2485 42.0407 57.2485C42.409 57.2485 42.7433 57.308 43.0437 57.427C43.344 57.5403 43.582 57.7188 43.7577 57.9625C43.9333 58.2062 44.0212 58.5235 44.0212 58.9145V62H43.1117V58.991C43.1117 58.6397 43.0097 58.3875 42.8057 58.2345C42.6017 58.0758 42.341 57.9965 42.0237 57.9965C41.7007 57.9965 41.4485 58.0645 41.2672 58.2005C41.0858 58.3308 40.9923 58.498 40.9867 58.702L41.8622 59.127L41.7857 59.5775C41.576 59.5832 41.4003 59.654 41.2587 59.79C41.1227 59.926 41.0547 60.1357 41.0547 60.419V62H40.1452ZM46.7447 62.0935C46.4104 62.0935 46.0902 62.0595 45.7842 61.9915C45.4839 61.9235 45.2261 61.8385 45.0107 61.7365L45.2742 61.0055C45.3932 61.0565 45.5292 61.1103 45.6822 61.167C45.8352 61.218 46.0024 61.2633 46.1837 61.303C46.3651 61.337 46.5492 61.354 46.7362 61.354C47.0196 61.354 47.2462 61.3058 47.4162 61.2095C47.5919 61.1075 47.6797 60.9602 47.6797 60.7675C47.6797 60.6485 47.6429 60.5465 47.5692 60.4615C47.4956 60.3708 47.3851 60.2915 47.2377 60.2235C47.0904 60.1498 46.9062 60.0762 46.6852 60.0025C46.3452 59.8892 46.0562 59.7702 45.8182 59.6455C45.5802 59.5152 45.3989 59.3622 45.2742 59.1865C45.1496 59.0052 45.0872 58.7813 45.0872 58.515C45.0872 58.2543 45.1552 58.0305 45.2912 57.8435C45.4329 57.6565 45.6397 57.512 45.9117 57.41C46.1894 57.3023 46.5322 57.2485 46.9402 57.2485C47.2236 57.2485 47.4871 57.274 47.7307 57.325C47.9801 57.3703 48.1727 57.4355 48.3087 57.5205V58.2685C48.2124 58.2232 48.0906 58.1778 47.9432 58.1325C47.7959 58.0872 47.6344 58.0503 47.4587 58.022C47.2887 57.9937 47.1159 57.9795 46.9402 57.9795C46.6002 57.9795 46.3566 58.0305 46.2092 58.1325C46.0676 58.2288 45.9967 58.345 45.9967 58.481C45.9967 58.5943 46.0336 58.6907 46.1072 58.77C46.1809 58.8493 46.3027 58.9258 46.4727 58.9995C46.6427 59.0675 46.8637 59.1497 47.1357 59.246C47.4134 59.3423 47.6627 59.45 47.8837 59.569C48.1047 59.688 48.2776 59.8382 48.4022 60.0195C48.5269 60.2008 48.5892 60.4275 48.5892 60.6995C48.5892 60.9432 48.5297 61.1727 48.4107 61.388C48.2974 61.5977 48.1047 61.7677 47.8327 61.898C47.5664 62.0283 47.2037 62.0935 46.7447 62.0935ZM51.2673 62.0935C50.9103 62.0935 50.5902 62.0623 50.3068 62C50.0235 61.932 49.777 61.8583 49.5673 61.779V59.875H50.3833V61.252C50.4627 61.286 50.5817 61.32 50.7403 61.354C50.9047 61.3823 51.0747 61.3965 51.2503 61.3965C51.4373 61.3965 51.6102 61.3767 51.7688 61.337C51.9275 61.2973 52.055 61.2208 52.1513 61.1075C52.2533 60.9885 52.3043 60.8242 52.3043 60.6145C52.3043 60.4558 52.2732 60.3312 52.2108 60.2405C52.1542 60.1442 52.0663 60.0677 51.9473 60.011C51.8283 59.9487 51.6838 59.892 51.5138 59.841C51.3438 59.7843 51.1455 59.7248 50.9188 59.6625C50.5845 59.5605 50.304 59.4613 50.0773 59.365C49.8563 59.263 49.6892 59.1412 49.5758 58.9995C49.4682 58.8578 49.4143 58.668 49.4143 58.43C49.4143 58.1693 49.4823 57.9512 49.6183 57.7755C49.7543 57.5998 49.9583 57.4695 50.2303 57.3845C50.508 57.2938 50.8537 57.2485 51.2673 57.2485C51.6527 57.2485 51.9813 57.2797 52.2533 57.342C52.5253 57.4043 52.7293 57.4667 52.8653 57.529V58.2855C52.769 58.2402 52.633 58.192 52.4573 58.141C52.2817 58.09 52.0862 58.0475 51.8708 58.0135C51.6555 57.9795 51.4288 57.9625 51.1908 57.9625C51.0152 57.9625 50.8622 57.9767 50.7318 58.005C50.6015 58.0277 50.4995 58.0702 50.4258 58.1325C50.3578 58.1892 50.3238 58.2685 50.3238 58.3705C50.3238 58.4782 50.372 58.566 50.4683 58.634C50.5647 58.702 50.7035 58.7643 50.8848 58.821C51.0662 58.872 51.2787 58.9315 51.5223 58.9995C51.7547 59.0675 51.97 59.1412 52.1683 59.2205C52.3723 59.2942 52.5508 59.3905 52.7038 59.5095C52.8568 59.6228 52.9758 59.7673 53.0608 59.943C53.1458 60.1187 53.1883 60.3368 53.1883 60.5975C53.1883 60.8922 53.126 61.1528 53.0013 61.3795C52.8767 61.6005 52.6727 61.7762 52.3893 61.9065C52.106 62.0312 51.732 62.0935 51.2673 62.0935ZM55.6266 62.0935C55.2922 62.0935 54.9721 62.0595 54.6661 61.9915C54.3657 61.9235 54.1079 61.8385 53.8926 61.7365L54.1561 61.0055C54.2751 61.0565 54.4111 61.1103 54.5641 61.167C54.7171 61.218 54.8842 61.2633 55.0656 61.303C55.2469 61.337 55.4311 61.354 55.6181 61.354C55.9014 61.354 56.1281 61.3058 56.2981 61.2095C56.4737 61.1075 56.5616 60.9602 56.5616 60.7675C56.5616 60.6485 56.5247 60.5465 56.4511 60.4615C56.3774 60.3708 56.2669 60.2915 56.1196 60.2235C55.9722 60.1498 55.7881 60.0762 55.5671 60.0025C55.2271 59.8892 54.9381 59.7702 54.7001 59.6455C54.4621 59.5152 54.2807 59.3622 54.1561 59.1865C54.0314 59.0052 53.9691 58.7813 53.9691 58.515C53.9691 58.2543 54.0371 58.0305 54.1731 57.8435C54.3147 57.6565 54.5216 57.512 54.7936 57.41C55.0712 57.3023 55.4141 57.2485 55.8221 57.2485C56.1054 57.2485 56.3689 57.274 56.6126 57.325C56.8619 57.3703 57.0546 57.4355 57.1906 57.5205V58.2685C57.0942 58.2232 56.9724 58.1778 56.8251 58.1325C56.6777 58.0872 56.5162 58.0503 56.3406 58.022C56.1706 57.9937 55.9977 57.9795 55.8221 57.9795C55.4821 57.9795 55.2384 58.0305 55.0911 58.1325C54.9494 58.2288 54.8786 58.345 54.8786 58.481C54.8786 58.5943 54.9154 58.6907 54.9891 58.77C55.0627 58.8493 55.1846 58.9258 55.3546 58.9995C55.5246 59.0675 55.7456 59.1497 56.0176 59.246C56.2952 59.3423 56.5446 59.45 56.7656 59.569C56.9866 59.688 57.1594 59.8382 57.2841 60.0195C57.4087 60.2008 57.4711 60.4275 57.4711 60.6995C57.4711 60.9432 57.4116 61.1727 57.2926 61.388C57.1792 61.5977 56.9866 61.7677 56.7146 61.898C56.4482 62.0283 56.0856 62.0935 55.6266 62.0935ZM59.4777 62.085C59.2907 62.085 59.1207 62.0567 58.9677 62C58.8147 61.9377 58.69 61.8385 58.5937 61.7025C58.503 61.5608 58.4577 61.371 58.4577 61.133V60.3935C58.4577 60.0478 58.5313 59.7957 58.6787 59.637C58.8317 59.4783 59.0328 59.365 59.2822 59.297L59.2907 59.263L58.3302 58.9145V58.651C58.3302 58.3903 58.4067 58.1552 58.5597 57.9455C58.7127 57.7358 58.9308 57.5687 59.2142 57.444C59.5032 57.3137 59.8432 57.2485 60.2342 57.2485C60.5798 57.2485 60.8943 57.3052 61.1777 57.4185C61.4667 57.5262 61.6962 57.7018 61.8662 57.9455C62.0418 58.1835 62.1297 58.4952 62.1297 58.8805V60.402C62.1297 60.7193 62.2005 60.9517 62.3422 61.099C62.4895 61.2407 62.6793 61.3115 62.9117 61.3115C63.1213 61.3115 63.3027 61.2577 63.4557 61.15C63.6143 61.0367 63.7362 60.8837 63.8212 60.691C63.9118 60.4927 63.9572 60.2632 63.9572 60.0025V57.342H64.8667V62H64.1357L64.0677 61.2605H64.0167C63.9203 61.5155 63.7503 61.7167 63.5067 61.864C63.263 62.0113 62.9853 62.085 62.6737 62.085C62.2317 62.085 61.8803 61.966 61.6197 61.728C61.359 61.4843 61.2287 61.0877 61.2287 60.538V58.9655C61.2287 58.7105 61.1805 58.5122 61.0842 58.3705C60.9935 58.2288 60.8717 58.1297 60.7187 58.073C60.5657 58.0163 60.4013 57.988 60.2257 57.988C59.948 57.988 59.7185 58.0475 59.5372 58.1665C59.3615 58.2855 59.268 58.4612 59.2567 58.6935L60.1577 59.1185L60.0897 59.569C59.88 59.5747 59.7043 59.637 59.5627 59.756C59.4267 59.875 59.3587 60.0733 59.3587 60.351V61.031C59.3587 61.1557 59.387 61.2463 59.4437 61.303C59.5003 61.3597 59.591 61.388 59.7157 61.388C59.7667 61.388 59.8177 61.3852 59.8687 61.3795C59.9253 61.3682 59.9763 61.354 60.0217 61.337L60.1322 61.949C60.0245 62 59.914 62.034 59.8007 62.051C59.693 62.0737 59.5853 62.085 59.4777 62.085ZM61.1523 56.628V56.237L61.8408 55.9395H64.8498V56.628H61.1523ZM64.0338 56.2455V55.285H64.8583V56.2455H64.0338Z" fill="#5B3722"/>
</svg>
