<svg width="80" height="80" viewBox="0 0 80 80" fill="none" xmlns="http://www.w3.org/2000/svg">
<path d="M12.2006 12.2925H25.17C25.17 12.2925 25.4284 8.8162 27.1762 7.62652C29.3357 6.15857 39.0598 4.85597 45.8977 5.81578C53.4339 6.87238 55.1979 9.72762 54.5843 12.1029L67.9372 12.2965V24.4676L71.9657 26.4799L74.5854 34.3117L73.4511 52.79L67.9332 56.2784L67.9695 67.7437H54.9799L53.9021 72.4177L40.9852 74.5027L29.6143 72.8855L25.7634 70.9458L25.3315 67.4574L14.788 67.4211L11.4135 67.171L11.5871 55.1291L7.37694 52.3988L5.04785 41.0061L7.13071 27.4518L11.8373 24.0401L12.1885 12.3006L12.2006 12.2925Z" fill="#F8F3E8"/>
<path d="M73.5883 6.89259V21.0074C73.5883 21.1768 75.3281 21.9632 76.1758 23.0601C81.4112 29.8433 81.2659 50.6285 75.7721 57.2665C74.9648 58.2424 73.5883 58.7788 73.5883 58.9159V73.0308H59.6623C59.4483 73.0308 57.6682 75.6319 56.8367 76.257C49.2278 81.9635 27.9633 81.0843 21.1012 74.035C20.7661 73.6922 20.7661 73.0348 20.7096 73.0348H6.5817V59.5249C6.5817 59.1902 4.93883 58.3473 4.56343 57.9118C-1.61652 50.7293 -1.4712 29.1336 4.70471 21.9632C5.00745 21.6124 6.5817 20.7977 6.5817 20.4106V6.89259H20.1041C20.4392 6.89259 21.8116 4.75923 22.3484 4.29545C29.0289 -1.5118 50.3015 -1.2779 57.2403 4.07365C57.9831 4.64631 59.4766 6.89662 59.6623 6.89662H73.5883V6.89259ZM58.2495 8.10243C58.1687 7.01761 57.4341 6.15055 56.647 5.469C50.685 0.302967 26.3446 -0.370514 22.1547 6.94905C21.9085 7.38056 21.9811 8.10647 21.9206 8.10647H7.79267V21.818C7.79267 22.0156 5.63312 23.0279 4.78948 24.2619C0.490559 30.5773 0.24433 49.7735 4.96709 55.8913C5.54028 56.6333 7.79267 58.1255 7.79267 58.311V71.216L8.39815 71.8209H21.9206C22.0336 71.8209 22.2758 73.0993 22.9176 73.8535C28.1853 80.0116 52.8486 80.0559 57.7974 73.1679C58.1203 72.7202 58.1809 71.8209 58.2495 71.8209H71.9737V58.1094C71.9737 57.9964 73.2654 57.7988 74.0122 57.1173C79.9903 51.673 80.2365 27.226 73.3219 22.2657C72.8739 21.9431 71.9737 21.8826 71.9737 21.814V8.10243H58.2495Z" fill="#5B3722"/>
<path d="M58.2495 8.1025H71.9737V21.8141C71.9737 21.8867 72.8739 21.9431 73.3219 22.2658C80.2365 27.2261 79.9903 51.673 74.0122 57.1174C73.2654 57.7989 71.9737 57.9965 71.9737 58.1094V71.821H58.2495C58.1768 71.821 58.1203 72.7203 57.7974 73.168C52.8486 80.056 28.1853 80.0117 22.9176 73.8535C22.2758 73.1034 22.0336 71.821 21.9206 71.821H8.39816L7.79268 71.2161V58.3111C7.79268 58.1256 5.54029 56.6334 4.9671 55.8914C0.244342 49.7736 0.490571 30.5774 4.78949 24.262C5.62909 23.0239 7.79268 22.0117 7.79268 21.8181V8.1025H21.9206C21.9811 8.1025 21.9085 7.37659 22.1547 6.94508C26.3446 -0.370447 50.685 0.303034 56.647 5.46907C57.4341 6.15062 58.1688 7.01767 58.2495 8.1025ZM23.5352 10.1189H9.81095V23.4272H8.60403V23.8265H10.2186V10.5222H23.9429C23.5433 7.01364 26.5263 6.0135 29.2873 5.17468C30.1915 4.90044 33.1301 4.06968 33.8324 4.06968H45.9421C46.2731 4.06968 48.2671 5.23114 48.5658 4.06968C42.2042 3.19456 35.7619 2.83161 29.5093 4.58588C26.7766 5.35212 23.0185 6.56196 23.5392 10.1149L23.5352 10.1189ZM55.0202 11.732C55.2463 8.72759 53.9788 7.67502 51.3833 6.69505C45.712 4.55765 33.6992 4.4528 28.1086 6.82006C25.3597 7.98152 24.7906 8.50981 25.1539 11.732H11.4256V24.637C8.72109 25.0444 7.91781 25.4799 6.90868 27.9883C4.51904 33.9327 4.26878 47.124 7.18316 52.8668C8.4022 55.2703 9.56069 54.3186 11.4256 55.4841V68.1874H25.1498C24.391 72.0993 26.8048 72.7727 29.9896 73.6358C35.7902 75.2045 46.4143 75.3175 52.0009 73.0349C54.7942 71.8936 54.9758 71.3976 55.0202 68.1874H68.3408L68.353 55.3187C70.5892 54.8146 71.4167 54.9961 72.5994 52.8829C75.647 47.4386 75.5824 32.7672 72.8456 27.1818C71.453 24.3427 70.3551 25.7703 68.4054 23.9474L68.6436 12.3128L68.135 11.724H55.0162L55.0202 11.732ZM56.6349 10.1189L55.4279 7.29594L56.2312 10.5222H69.5518V23.2256L72.3734 24.2297V23.8345L70.3591 23.4272V10.7238L69.7536 10.1189H56.6349ZM5.36672 52.0602C4.07099 46.0432 3.34844 40.3247 4.20823 34.1626C4.53923 31.7872 5.508 29.4522 5.57258 27.0527C3.19102 33.1665 2.97708 40.0787 3.81265 46.5635L5.36672 52.0602ZM76.4139 45.406C76.7449 41.8047 76.1677 37.7679 76.4139 34.1142L75.6107 31.4928C76.2767 38.76 76.531 46.0916 73.9839 53.0603C74.4845 53.629 75.0254 51.54 75.09 51.3383C75.5784 49.7817 76.2686 46.9668 76.4139 45.402V45.406ZM70.3591 56.4963C71.6145 56.5891 73.883 55.2824 73.3865 54.0766C71.7558 56.5044 69.5518 55.0808 69.5518 58.3111V69.4013H56.2312L55.8316 72.2243H56.2272L56.6349 69.8046H69.7536L70.3591 69.1997V56.4963ZM10.2146 56.093C8.71705 56.1374 7.66351 55.3671 6.58575 54.4799C6.59383 56.0446 8.57981 56.4156 9.81095 56.4963V69.8046H23.5352C23.1114 72.4662 25.0449 73.5148 27.1721 74.4383C32.2662 76.6483 40.412 76.8862 45.8856 76.2087C47.8715 75.9627 49.8171 75.3537 51.787 75.0432C51.8839 74.3173 50.911 74.6762 50.4791 74.7448C48.6062 75.0432 46.7252 75.7288 44.7432 75.8699C39.754 76.2329 32.5044 76.0151 27.8705 74.1439C25.5414 73.2043 23.5554 72.3574 23.9389 69.4013H10.2146V56.093Z" fill="#F8F3E8"/>
<path d="M70.3591 56.4963V69.1997L69.7536 69.8046H56.6348L56.2271 72.2202H55.8315L56.2312 69.4013H69.5518V58.3111C69.5518 55.0808 71.7557 56.5044 73.3865 54.0766C73.8789 55.2784 71.6104 56.589 70.3591 56.4963Z" fill="#5B3722"/>
<path d="M56.6347 10.1189H69.7534L70.3589 10.7239V23.4272L72.3731 23.8386V24.2298L69.5516 23.2256V10.5222H56.231L55.4277 7.29596L56.6347 10.1189Z" fill="#5B3722"/>
<path d="M10.2145 56.093V69.4013H23.9388C23.5553 72.3574 25.5413 73.2043 27.8704 74.1439C32.5043 76.0152 39.7499 76.2329 44.7431 75.87C46.7291 75.7248 48.6102 75.0392 50.4791 74.7448C50.911 74.6763 51.8838 74.3173 51.7869 75.0433C49.8171 75.3538 47.8715 75.9627 45.8855 76.2087C40.4119 76.8862 32.2621 76.6483 27.1721 74.4383C25.0448 73.5148 23.1073 72.4663 23.5351 69.8046H9.81089V56.4963C8.57975 56.4157 6.59377 56.0447 6.58569 54.4799C7.66345 55.3671 8.71699 56.1374 10.2145 56.093Z" fill="#5B3722"/>
<path d="M23.5351 10.1188C23.0144 6.56189 26.7724 5.35205 29.5051 4.58984C35.7577 2.8396 42.2 3.20256 48.5616 4.07364C48.2629 5.23106 46.2729 4.07364 45.9379 4.07364H33.8283C33.1299 4.07364 30.1873 4.9044 29.2831 5.17864C26.5181 6.01746 23.5391 7.01357 23.9387 10.5262H10.2145V23.8344H8.59985V23.4352H9.80678V10.1188H23.531H23.5351Z" fill="#5B3722"/>
<path d="M5.36678 52.0601L3.81271 46.5634C2.98119 40.0827 3.19109 33.1704 5.57265 27.0526C5.50403 29.4481 4.53929 31.7831 4.2083 34.1625C3.34851 40.3246 4.07509 46.0432 5.36678 52.0601Z" fill="#5B3722"/>
<path d="M76.4139 45.406C76.2686 46.9707 75.5783 49.7816 75.0899 51.3423C75.0294 51.544 74.4844 53.633 73.9839 53.0643C76.5269 46.0956 76.2726 38.764 75.6106 31.4968L76.4139 34.1182C76.1677 37.7719 76.7449 41.8087 76.4139 45.41V45.406Z" fill="#5B3722"/>
<path d="M55.0202 11.7319H68.139L68.6476 12.3207L68.4095 23.9554C70.3591 25.7822 71.457 24.3546 72.8497 27.1897C75.5864 32.7711 75.651 47.4465 72.6034 52.8908C71.4207 55.004 70.5892 54.8225 68.357 55.3266L68.3449 68.1954H55.0243C54.9799 71.4055 54.7982 71.9015 52.0049 73.0428C46.4224 75.3254 35.7982 75.2124 29.9937 73.6437C26.8088 72.7807 24.395 72.1072 25.1538 68.1954H11.4256V55.492C9.56067 54.3265 8.40218 55.2782 7.18314 52.8747C4.26876 47.132 4.51903 33.9406 6.90866 27.9962C7.9178 25.4878 8.71703 25.0482 11.4256 24.645V11.7319H25.1498C24.7865 8.50967 25.3557 7.9854 28.1046 6.81992C33.6952 4.45266 45.712 4.56154 51.3793 6.6949C53.9748 7.67488 55.2422 8.72744 55.0162 11.7319H55.0202ZM25.3516 12.9417H12.6365V24.8385C11.4336 26.4194 9.74635 25.4798 8.50713 27.1655C5.31826 31.5169 5.63715 46.8537 7.8855 51.7657C9.2216 54.6854 10.7434 53.1892 12.6365 55.0847V66.9815H25.3516C26.3446 67.8485 25.9127 69.5988 26.4496 70.7239C27.6242 73.1839 39.1929 73.9623 41.9216 73.8574C43.8996 73.7808 53.1594 72.6234 53.7487 70.7522C53.9586 70.0827 53.5469 66.9815 54.8184 66.9815H67.5335V54.4797C70.5286 53.8224 71.0574 54.137 72.1715 51.2495C74.0485 46.3899 74.2746 38.5461 73.4794 33.4204C72.8577 29.4198 72.3249 25.6007 67.5335 25.4475V12.9458H54.8184C53.3451 12.0989 54.217 9.62676 53.5509 8.87262C52.2269 7.37242 44.1135 6.17467 41.9216 6.06982C39.0759 5.9327 28.0198 6.45697 26.5828 8.93312C26.0338 9.88083 26.1589 12.6836 25.3516 12.9458V12.9417Z" fill="#5B3722"/>
<g clip-path="url(#clip0_4895_96504)">
<mask id="path-11-inside-1_4895_96504" fill="white">
<path d="M48.5155 33.5987H30.6166C29.3175 33.5987 28.2615 32.5426 28.2615 31.2436V10.9896H32.8935L34.7625 21.2711L40.5081 16.0484V20.8632L46.1604 16.0992V20.7426L50.8706 15.9636V31.2436C50.8706 32.5426 49.8146 33.5987 48.5155 33.5987ZM29.2035 11.9316V31.2436C29.2035 32.0226 29.8375 32.6566 30.6166 32.6566H48.5155C49.2945 32.6566 49.9285 32.0226 49.9285 31.2436V18.2622L45.9541 22.2941H45.2183V18.1256L40.2726 22.2941H39.566V18.1774L35.0376 22.2941H33.9919L32.1079 11.9316H29.2035ZM36.7399 29.8305H32.9717V26.0623H36.7399V29.8305ZM33.9138 28.8884H35.7978V27.0044H33.9138V28.8884ZM42.3922 29.8305H38.624V26.0623H42.3922V29.8305ZM39.566 28.8884H41.4501V27.0044H39.566V28.8884ZM48.0445 29.8305H44.2763V26.0623H48.0445V29.8305ZM45.2183 28.8884H47.1024V27.0044H45.2183V28.8884Z"/>
</mask>
<path d="M48.5155 33.5987H30.6166C29.3175 33.5987 28.2615 32.5426 28.2615 31.2436V10.9896H32.8935L34.7625 21.2711L40.5081 16.0484V20.8632L46.1604 16.0992V20.7426L50.8706 15.9636V31.2436C50.8706 32.5426 49.8146 33.5987 48.5155 33.5987ZM29.2035 11.9316V31.2436C29.2035 32.0226 29.8375 32.6566 30.6166 32.6566H48.5155C49.2945 32.6566 49.9285 32.0226 49.9285 31.2436V18.2622L45.9541 22.2941H45.2183V18.1256L40.2726 22.2941H39.566V18.1774L35.0376 22.2941H33.9919L32.1079 11.9316H29.2035ZM36.7399 29.8305H32.9717V26.0623H36.7399V29.8305ZM33.9138 28.8884H35.7978V27.0044H33.9138V28.8884ZM42.3922 29.8305H38.624V26.0623H42.3922V29.8305ZM39.566 28.8884H41.4501V27.0044H39.566V28.8884ZM48.0445 29.8305H44.2763V26.0623H48.0445V29.8305ZM45.2183 28.8884H47.1024V27.0044H45.2183V28.8884Z" fill="#5B3722"/>
<path d="M28.2615 10.9896V-10.3438H6.92814V10.9896H28.2615ZM32.8935 10.9896L53.8829 7.17402L50.6984 -10.3438H32.8935V10.9896ZM34.7625 21.2711L13.7732 25.0866L20.6521 62.9274L49.1121 37.0572L34.7625 21.2711ZM40.5081 16.0484H61.8414V-32.1736L26.1585 0.262261L40.5081 16.0484ZM40.5081 20.8632H19.1747V66.7436L54.2566 37.1754L40.5081 20.8632ZM46.1604 16.0992H67.4937V-29.7812L32.4118 -0.213029L46.1604 16.0992ZM46.1604 20.7426H24.827V72.7783L61.3542 35.7178L46.1604 20.7426ZM50.8706 15.9636H72.2039V-36.0722L35.6767 0.988338L50.8706 15.9636ZM29.2035 11.9316V-9.40172H7.87019V11.9316H29.2035ZM49.9285 18.2622H71.2619V-33.7684L34.7357 3.28587L49.9285 18.2622ZM45.9541 22.2941V43.6275H54.8804L61.1469 37.2704L45.9541 22.2941ZM45.2183 22.2941H23.885V43.6275H45.2183V22.2941ZM45.2183 18.1256H66.5516V-27.7557L31.4696 1.81351L45.2183 18.1256ZM40.2726 22.2941V43.6275H48.0639L54.0213 38.6062L40.2726 22.2941ZM39.566 22.2941H18.2327V43.6275H39.566V22.2941ZM39.566 18.1774H60.8994V-30.0477L25.2157 2.39199L39.566 18.1774ZM35.0376 22.2941V43.6275H43.2852L49.388 38.0795L35.0376 22.2941ZM33.9919 22.2941L13.0027 26.1103L16.1876 43.6275H33.9919V22.2941ZM32.1079 11.9316L53.0971 8.11539L49.9121 -9.40172H32.1079V11.9316ZM36.7399 29.8305V51.1638H58.0732V29.8305H36.7399ZM32.9717 29.8305H11.6384V51.1638H32.9717V29.8305ZM32.9717 26.0623V4.72898H11.6384V26.0623H32.9717ZM36.7399 26.0623H58.0732V4.72898H36.7399V26.0623ZM33.9138 28.8884H12.5804V50.2218H33.9138V28.8884ZM35.7978 28.8884V50.2218H57.1312V28.8884H35.7978ZM35.7978 27.0044H57.1312V5.67102H35.7978V27.0044ZM33.9138 27.0044V5.67102H12.5804V27.0044H33.9138ZM42.3922 29.8305V51.1638H63.7255V29.8305H42.3922ZM38.624 29.8305H17.2907V51.1638H38.624V29.8305ZM38.624 26.0623V4.72898H17.2907V26.0623H38.624ZM42.3922 26.0623H63.7255V4.72898H42.3922V26.0623ZM39.566 28.8884H18.2327V50.2218H39.566V28.8884ZM41.4501 28.8884V50.2218H62.7835V28.8884H41.4501ZM41.4501 27.0044H62.7835V5.67102H41.4501V27.0044ZM39.566 27.0044V5.67102H18.2327V27.0044H39.566ZM48.0445 29.8305V51.1638H69.3778V29.8305H48.0445ZM44.2763 29.8305H22.9429V51.1638H44.2763V29.8305ZM44.2763 26.0623V4.72898H22.9429V26.0623H44.2763ZM48.0445 26.0623H69.3778V4.72898H48.0445V26.0623ZM45.2183 28.8884H23.885V50.2218H45.2183V28.8884ZM47.1024 28.8884V50.2218H68.4357V28.8884H47.1024ZM47.1024 27.0044H68.4357V5.67102H47.1024V27.0044ZM45.2183 27.0044V5.67102H23.885V27.0044H45.2183ZM48.5155 33.5987V12.2653H30.6166V33.5987V54.932H48.5155V33.5987ZM30.6166 33.5987V12.2653C41.0996 12.2653 49.5948 20.7606 49.5948 31.2436H28.2615H6.92814C6.92814 44.3247 17.5354 54.932 30.6166 54.932V33.5987ZM28.2615 31.2436H49.5948V10.9896H28.2615H6.92814V31.2436H28.2615ZM28.2615 10.9896V32.3229H32.8935V10.9896V-10.3438H28.2615V10.9896ZM32.8935 10.9896L11.9042 14.8051L13.7732 25.0866L34.7625 21.2711L55.7519 17.4555L53.8829 7.17402L32.8935 10.9896ZM34.7625 21.2711L49.1121 37.0572L54.8577 31.8344L40.5081 16.0484L26.1585 0.262261L20.413 5.48497L34.7625 21.2711ZM40.5081 16.0484H19.1747V20.8632H40.5081H61.8414V16.0484H40.5081ZM40.5081 20.8632L54.2566 37.1754L59.9089 32.4115L46.1604 16.0992L32.4118 -0.213029L26.7596 4.5509L40.5081 20.8632ZM46.1604 16.0992H24.827V20.7426H46.1604H67.4937V16.0992H46.1604ZM46.1604 20.7426L61.3542 35.7178L66.0645 30.9388L50.8706 15.9636L35.6767 0.988338L30.9665 5.76734L46.1604 20.7426ZM50.8706 15.9636H29.5373V31.2436H50.8706H72.2039V15.9636H50.8706ZM50.8706 31.2436H29.5373C29.5373 20.7606 38.0325 12.2653 48.5155 12.2653V33.5987V54.932C61.5966 54.932 72.2039 44.3247 72.2039 31.2436H50.8706ZM29.2035 11.9316H7.87019V31.2436H29.2035H50.5369V11.9316H29.2035ZM29.2035 31.2436H7.87019C7.87019 43.8047 18.0554 53.99 30.6166 53.99V32.6566V11.3233C41.6196 11.3233 50.5369 20.2406 50.5369 31.2436H29.2035ZM30.6166 32.6566V53.99H48.5155V32.6566V11.3233H30.6166V32.6566ZM48.5155 32.6566V53.99C61.0766 53.99 71.2619 43.8047 71.2619 31.2436H49.9285H28.5952C28.5952 20.2406 37.5125 11.3233 48.5155 11.3233V32.6566ZM49.9285 31.2436H71.2619V18.2622H49.9285H28.5952V31.2436H49.9285ZM49.9285 18.2622L34.7357 3.28587L30.7612 7.31783L45.9541 22.2941L61.1469 37.2704L65.1214 33.2385L49.9285 18.2622ZM45.9541 22.2941V0.960789H45.2183V22.2941V43.6275H45.9541V22.2941ZM45.2183 22.2941H66.5516V18.1256H45.2183H23.885V22.2941H45.2183ZM45.2183 18.1256L31.4696 1.81351L26.5238 5.98206L40.2726 22.2941L54.0213 38.6062L58.9671 34.4376L45.2183 18.1256ZM40.2726 22.2941V0.960789H39.566V22.2941V43.6275H40.2726V22.2941ZM39.566 22.2941H60.8994V18.1774H39.566H18.2327V22.2941H39.566ZM39.566 18.1774L25.2157 2.39199L20.6873 6.50873L35.0376 22.2941L49.388 38.0795L53.9164 33.9628L39.566 18.1774ZM35.0376 22.2941V0.960789H33.9919V22.2941V43.6275H35.0376V22.2941ZM33.9919 22.2941L54.9812 18.4779L53.0971 8.11539L32.1079 11.9316L11.1186 15.7478L13.0027 26.1103L33.9919 22.2941ZM32.1079 11.9316V-9.40172H29.2035V11.9316V33.2649H32.1079V11.9316ZM36.7399 29.8305V8.49716H32.9717V29.8305V51.1638H36.7399V29.8305ZM32.9717 29.8305H54.305V26.0623H32.9717H11.6384V29.8305H32.9717ZM32.9717 26.0623V47.3956H36.7399V26.0623V4.72898H32.9717V26.0623ZM36.7399 26.0623H15.4066V29.8305H36.7399H58.0732V26.0623H36.7399ZM33.9138 28.8884V50.2218H35.7978V28.8884V7.55512H33.9138V28.8884ZM35.7978 28.8884H57.1312V27.0044H35.7978H14.4645V28.8884H35.7978ZM35.7978 27.0044V5.67102H33.9138V27.0044V48.3377H35.7978V27.0044ZM33.9138 27.0044H12.5804V28.8884H33.9138H55.2471V27.0044H33.9138ZM42.3922 29.8305V8.49716H38.624V29.8305V51.1638H42.3922V29.8305ZM38.624 29.8305H59.9573V26.0623H38.624H17.2907V29.8305H38.624ZM38.624 26.0623V47.3956H42.3922V26.0623V4.72898H38.624V26.0623ZM42.3922 26.0623H21.0588V29.8305H42.3922H63.7255V26.0623H42.3922ZM39.566 28.8884V50.2218H41.4501V28.8884V7.55512H39.566V28.8884ZM41.4501 28.8884H62.7835V27.0044H41.4501H20.1168V28.8884H41.4501ZM41.4501 27.0044V5.67102H39.566V27.0044V48.3377H41.4501V27.0044ZM39.566 27.0044H18.2327V28.8884H39.566H60.8994V27.0044H39.566ZM48.0445 29.8305V8.49716H44.2763V29.8305V51.1638H48.0445V29.8305ZM44.2763 29.8305H65.6096V26.0623H44.2763H22.9429V29.8305H44.2763ZM44.2763 26.0623V47.3956H48.0445V26.0623V4.72898H44.2763V26.0623ZM48.0445 26.0623H26.7111V29.8305H48.0445H69.3778V26.0623H48.0445ZM45.2183 28.8884V50.2218H47.1024V28.8884V7.55512H45.2183V28.8884ZM47.1024 28.8884H68.4357V27.0044H47.1024H25.7691V28.8884H47.1024ZM47.1024 27.0044V5.67102H45.2183V27.0044V48.3377H47.1024V27.0044ZM45.2183 27.0044H23.885V28.8884H45.2183H66.5516V27.0044H45.2183Z" fill="#5B3722" mask="url(#path-11-inside-1_4895_96504)"/>
</g>
<path d="M21.4622 46.121C21.1542 46.121 20.8572 46.088 20.5712 46.022C20.2852 45.956 19.9918 45.8423 19.6912 45.681L20.0432 44.801C20.2045 44.8963 20.3915 44.9807 20.6042 45.054C20.8168 45.12 21.0515 45.153 21.3082 45.153C21.8068 45.153 22.1992 44.966 22.4852 44.592C22.7712 44.218 22.9142 43.6753 22.9142 42.964C22.9142 42.2673 22.7675 41.7357 22.4742 41.369C22.1882 41.0023 21.7408 40.819 21.1322 40.819C20.8975 40.819 20.6555 40.8483 20.4062 40.907C20.1642 40.9583 19.9515 41.0353 19.7682 41.138V40.159C19.9882 40.049 20.2302 39.972 20.4942 39.928C20.7582 39.8767 21.0258 39.851 21.2972 39.851C21.9645 39.851 22.5035 39.9793 22.9142 40.236C23.3322 40.4927 23.6365 40.8557 23.8272 41.325C24.0252 41.787 24.1242 42.3333 24.1242 42.964C24.1242 43.954 23.8968 44.7277 23.4422 45.285C22.9948 45.8423 22.3348 46.121 21.4622 46.121ZM19.1821 39.048V38.542L20.0731 38.157H23.9671V39.048H19.1821ZM25.6207 46V42.227C25.6207 41.457 25.826 40.8703 26.2367 40.467C26.6474 40.0563 27.3 39.851 28.1947 39.851C28.6127 39.851 28.972 39.9023 29.2727 40.005C29.5734 40.1077 29.808 40.2837 29.9767 40.533C30.2627 40.665 30.4644 40.8813 30.5817 41.182C30.7064 41.4753 30.7687 41.8273 30.7687 42.238V46H29.5917V42.227C29.5917 41.765 29.4744 41.4167 29.2397 41.182C29.0124 40.94 28.664 40.819 28.1947 40.819C27.7254 40.819 27.3734 40.94 27.1387 41.182C26.904 41.4167 26.7867 41.765 26.7867 42.227V43.371L26.8197 43.382C26.9884 43.096 27.179 42.909 27.3917 42.821C27.6117 42.7257 27.9234 42.678 28.3267 42.678H28.6567V43.602H28.3267C27.9087 43.602 27.586 43.6643 27.3587 43.789C27.1387 43.9137 26.9884 44.0787 26.9077 44.284C26.827 44.482 26.7867 44.7057 26.7867 44.955V46H25.6207ZM29.9877 40.918L29.3387 40.335C29.5514 40.291 29.7384 40.2067 29.8997 40.082C30.061 39.9573 30.1417 39.7887 30.1417 39.576H31.2417C31.2417 39.8033 31.1904 40.0087 31.0877 40.192C30.985 40.3753 30.8384 40.5293 30.6477 40.654C30.4644 40.7713 30.2444 40.8593 29.9877 40.918ZM33.9446 46.121C33.6366 46.121 33.3396 46.088 33.0536 46.022C32.7676 45.956 32.4743 45.8423 32.1736 45.681L32.5256 44.801C32.6869 44.8963 32.8739 44.9807 33.0866 45.054C33.2993 45.12 33.5339 45.153 33.7906 45.153C34.2893 45.153 34.6816 44.966 34.9676 44.592C35.2536 44.218 35.3966 43.6753 35.3966 42.964C35.3966 42.2673 35.2499 41.7357 34.9566 41.369C34.6706 41.0023 34.2233 40.819 33.6146 40.819C33.3799 40.819 33.1379 40.8483 32.8886 40.907C32.6466 40.9583 32.4339 41.0353 32.2506 41.138V40.159C32.4706 40.049 32.7126 39.972 32.9766 39.928C33.2406 39.8767 33.5083 39.851 33.7796 39.851C34.4469 39.851 34.9859 39.9793 35.3966 40.236C35.8146 40.4927 36.1189 40.8557 36.3096 41.325C36.5076 41.787 36.6066 42.3333 36.6066 42.964C36.6066 43.954 36.3793 44.7277 35.9246 45.285C35.4773 45.8423 34.8173 46.121 33.9446 46.121ZM38.0481 46V43.987C38.0481 43.525 38.1471 43.184 38.3451 42.964C38.5431 42.744 38.8035 42.59 39.1261 42.502L39.1371 42.458L37.9381 42.007V41.666C37.9381 41.3507 38.0371 41.0537 38.2351 40.775C38.4405 40.4963 38.7338 40.2727 39.1151 40.104C39.4965 39.9353 39.9585 39.851 40.5011 39.851C40.9778 39.851 41.4105 39.928 41.7991 40.082C42.1878 40.2287 42.4958 40.4597 42.7231 40.775C42.9505 41.0903 43.0641 41.501 43.0641 42.007V46H41.8871V42.106C41.8871 41.6513 41.7551 41.325 41.4911 41.127C41.2271 40.9217 40.8898 40.819 40.4791 40.819C40.0611 40.819 39.7348 40.907 39.5001 41.083C39.2655 41.2517 39.1445 41.468 39.1371 41.732L40.2701 42.282L40.1711 42.865C39.8998 42.8723 39.6725 42.964 39.4891 43.14C39.3131 43.316 39.2251 43.5873 39.2251 43.954V46H38.0481ZM46.5888 46.121C46.1561 46.121 45.7418 46.077 45.3458 45.989C44.9571 45.901 44.6234 45.791 44.3448 45.659L44.6858 44.713C44.8398 44.779 45.0158 44.8487 45.2138 44.922C45.4118 44.988 45.6281 45.0467 45.8628 45.098C46.0974 45.142 46.3358 45.164 46.5778 45.164C46.9444 45.164 47.2378 45.1017 47.4578 44.977C47.6851 44.845 47.7988 44.6543 47.7988 44.405C47.7988 44.251 47.7511 44.119 47.6558 44.009C47.5604 43.8917 47.4174 43.789 47.2268 43.701C47.0361 43.6057 46.7978 43.5103 46.5118 43.415C46.0718 43.2683 45.6978 43.1143 45.3898 42.953C45.0818 42.7843 44.8471 42.5863 44.6858 42.359C44.5244 42.1243 44.4438 41.8347 44.4438 41.49C44.4438 41.1527 44.5318 40.863 44.7078 40.621C44.8911 40.379 45.1588 40.192 45.5108 40.06C45.8701 39.9207 46.3138 39.851 46.8418 39.851C47.2084 39.851 47.5494 39.884 47.8648 39.95C48.1874 40.0087 48.4368 40.093 48.6128 40.203V41.171C48.4881 41.1123 48.3304 41.0537 48.1398 40.995C47.9491 40.9363 47.7401 40.8887 47.5128 40.852C47.2928 40.8153 47.0691 40.797 46.8418 40.797C46.4018 40.797 46.0864 40.863 45.8958 40.995C45.7124 41.1197 45.6208 41.27 45.6208 41.446C45.6208 41.5927 45.6684 41.7173 45.7638 41.82C45.8591 41.9227 46.0168 42.0217 46.2368 42.117C46.4568 42.205 46.7428 42.3113 47.0948 42.436C47.4541 42.5607 47.7768 42.7 48.0628 42.854C48.3488 43.008 48.5724 43.2023 48.7338 43.437C48.8951 43.6717 48.9758 43.965 48.9758 44.317C48.9758 44.6323 48.8988 44.9293 48.7448 45.208C48.5981 45.4793 48.3488 45.6993 47.9968 45.868C47.6521 46.0367 47.1828 46.121 46.5888 46.121ZM52.0565 46.121C51.6239 46.121 51.2095 46.077 50.8135 45.989C50.4249 45.901 50.0912 45.791 49.8125 45.659L50.1535 44.713C50.3075 44.779 50.4835 44.8487 50.6815 44.922C50.8795 44.988 51.0959 45.0467 51.3305 45.098C51.5652 45.142 51.8035 45.164 52.0455 45.164C52.4122 45.164 52.7055 45.1017 52.9255 44.977C53.1529 44.845 53.2665 44.6543 53.2665 44.405C53.2665 44.251 53.2189 44.119 53.1235 44.009C53.0282 43.8917 52.8852 43.789 52.6945 43.701C52.5039 43.6057 52.2655 43.5103 51.9795 43.415C51.5395 43.2683 51.1655 43.1143 50.8575 42.953C50.5495 42.7843 50.3149 42.5863 50.1535 42.359C49.9922 42.1243 49.9115 41.8347 49.9115 41.49C49.9115 41.1527 49.9995 40.863 50.1755 40.621C50.3589 40.379 50.6265 40.192 50.9785 40.06C51.3379 39.9207 51.7815 39.851 52.3095 39.851C52.6762 39.851 53.0172 39.884 53.3325 39.95C53.6552 40.0087 53.9045 40.093 54.0805 40.203V41.171C53.9559 41.1123 53.7982 41.0537 53.6075 40.995C53.4169 40.9363 53.2079 40.8887 52.9805 40.852C52.7605 40.8153 52.5369 40.797 52.3095 40.797C51.8695 40.797 51.5542 40.863 51.3635 40.995C51.1802 41.1197 51.0885 41.27 51.0885 41.446C51.0885 41.5927 51.1362 41.7173 51.2315 41.82C51.3269 41.9227 51.4845 42.0217 51.7045 42.117C51.9245 42.205 52.2105 42.3113 52.5625 42.436C52.9219 42.5607 53.2445 42.7 53.5305 42.854C53.8165 43.008 54.0402 43.2023 54.2015 43.437C54.3629 43.6717 54.4435 43.965 54.4435 44.317C54.4435 44.6323 54.3665 44.9293 54.2125 45.208C54.0659 45.4793 53.8165 45.6993 53.4645 45.868C53.1199 46.0367 52.6505 46.121 52.0565 46.121ZM58.8113 46.11C58.3273 46.11 57.9166 46.0147 57.5793 45.824C57.2493 45.6333 57.022 45.373 56.8973 45.043H56.8313L56.7433 46H55.8083V39.972H56.9853V43.283C56.9853 43.6643 57.044 43.9907 57.1613 44.262C57.2786 44.5333 57.451 44.7423 57.6783 44.889C57.9056 45.0357 58.1806 45.109 58.5033 45.109C58.8993 45.109 59.1963 45.0027 59.3943 44.79C59.5923 44.57 59.6913 44.2473 59.6913 43.822V39.972H60.8683V43.976C60.8683 44.4527 60.7876 44.8487 60.6263 45.164C60.465 45.4793 60.2303 45.7177 59.9223 45.879C59.6143 46.033 59.244 46.11 58.8113 46.11Z" fill="#5B3722"/>
<path d="M19.7375 62.121C18.9161 62.121 18.3001 61.912 17.8895 61.494C17.4861 61.0687 17.2845 60.416 17.2845 59.536C17.2845 59.3893 17.2881 59.2243 17.2955 59.041C17.3101 58.8577 17.3285 58.6853 17.3505 58.524H19.7595V59.371H18.4615V59.569C18.4615 59.9797 18.5055 60.306 18.5935 60.548C18.6888 60.79 18.8281 60.9587 19.0115 61.054C19.2021 61.1493 19.4368 61.197 19.7155 61.197C20.0235 61.197 20.2875 61.1383 20.5075 61.021C20.7275 60.9037 20.8961 60.691 21.0135 60.383C21.1381 60.0677 21.2005 59.624 21.2005 59.052C21.2005 58.5387 21.1455 58.1207 21.0355 57.798C20.9255 57.468 20.7385 57.2223 20.4745 57.061C20.2178 56.8997 19.8731 56.819 19.4405 56.819C19.2058 56.819 18.9748 56.841 18.7475 56.885C18.5275 56.9217 18.3148 56.9803 18.1095 57.061C17.9041 57.1343 17.7061 57.226 17.5155 57.336V56.28C17.6695 56.1993 17.8565 56.1297 18.0765 56.071C18.2965 56.005 18.5385 55.9537 18.8025 55.917C19.0665 55.873 19.3378 55.851 19.6165 55.851C20.2765 55.851 20.8118 55.983 21.2225 56.247C21.6331 56.5037 21.9338 56.8703 22.1245 57.347C22.3151 57.8163 22.4105 58.3773 22.4105 59.03C22.4105 59.6827 22.3225 60.24 22.1465 60.702C21.9705 61.164 21.6845 61.516 21.2885 61.758C20.8998 62 20.3828 62.121 19.7375 62.121ZM20.5537 64.871V63.76C20.5537 63.5767 20.473 63.485 20.3117 63.485C20.275 63.485 20.2384 63.4887 20.2017 63.496C20.1577 63.5033 20.1174 63.5143 20.0807 63.529L20.0037 62.825C20.1137 62.7883 20.242 62.759 20.3887 62.737C20.528 62.715 20.6527 62.704 20.7627 62.704C21.0487 62.704 21.2577 62.7663 21.3897 62.891C21.5144 63.023 21.5767 63.199 21.5767 63.419V64.871H20.5537ZM26.0853 62.11C25.462 62.11 24.978 61.9707 24.6333 61.692C24.2886 61.4133 24.0466 61.032 23.9073 60.548C23.7753 60.064 23.7093 59.5067 23.7093 58.876C23.7093 58.1573 23.7753 57.578 23.9073 57.138C24.0466 56.698 24.252 56.3753 24.5233 56.17C24.7946 55.9647 25.1246 55.862 25.5133 55.862C25.77 55.862 25.99 55.9097 26.1733 56.005C26.3566 56.093 26.4923 56.247 26.5803 56.467H26.6243C26.705 56.2397 26.8443 56.082 27.0423 55.994C27.2476 55.906 27.4823 55.862 27.7463 55.862C28.2303 55.862 28.6006 55.9903 28.8573 56.247C29.1213 56.5037 29.2533 56.8923 29.2533 57.413V62H28.0763V57.512C28.0763 57.248 28.0213 57.0683 27.9113 56.973C27.8013 56.8777 27.6583 56.83 27.4823 56.83C27.2916 56.83 27.1523 56.8777 27.0643 56.973C26.9763 57.0683 26.9213 57.226 26.8993 57.446H26.2723C26.243 57.204 26.1696 57.0427 26.0523 56.962C25.9423 56.874 25.8176 56.83 25.6783 56.83C25.4216 56.83 25.2236 56.9877 25.0843 57.303C24.9523 57.6183 24.8863 58.1463 24.8863 58.887C24.8863 59.3637 24.923 59.7743 24.9963 60.119C25.0696 60.4563 25.2016 60.7167 25.3923 60.9C25.5903 61.076 25.8763 61.164 26.2503 61.164C26.375 61.164 26.4813 61.1567 26.5693 61.142C26.6646 61.1273 26.749 61.109 26.8223 61.087L26.9433 61.967C26.8333 62.0183 26.7013 62.055 26.5473 62.077C26.4006 62.099 26.2466 62.11 26.0853 62.11ZM34.4522 62V58.018C34.4522 57.578 34.3459 57.2663 34.1332 57.083C33.9279 56.8923 33.5905 56.797 33.1212 56.797C32.7472 56.797 32.3879 56.8483 32.0432 56.951C31.7059 57.0537 31.3905 57.1893 31.0972 57.358V56.313C31.3099 56.203 31.5995 56.1003 31.9662 56.005C32.3402 55.9023 32.7619 55.851 33.2312 55.851C33.6199 55.851 33.9572 55.8987 34.2432 55.994C34.5292 56.082 34.7382 56.247 34.8702 56.489C35.1489 56.6063 35.3432 56.7933 35.4532 57.05C35.5632 57.3067 35.6182 57.622 35.6182 57.996V62H34.4522ZM32.5822 62.11C31.9442 62.11 31.4529 61.9633 31.1082 61.67C30.7709 61.3693 30.6022 60.9403 30.6022 60.383C30.6022 59.7817 30.8185 59.3123 31.2512 58.975C31.6912 58.6377 32.3989 58.4397 33.3742 58.381L34.6722 58.293V59.217L33.5172 59.305C32.8645 59.3563 32.4099 59.4663 32.1532 59.635C31.9039 59.8037 31.7792 60.042 31.7792 60.35C31.7792 60.6507 31.8745 60.8707 32.0652 61.01C32.2559 61.1493 32.5162 61.219 32.8462 61.219C32.9635 61.219 33.0699 61.2117 33.1652 61.197C33.2679 61.175 33.3632 61.153 33.4512 61.131L33.5942 61.956C33.4549 62.0073 33.2972 62.044 33.1212 62.066C32.9525 62.0953 32.7729 62.11 32.5822 62.11ZM34.8372 56.918L34.1882 56.335C34.4009 56.291 34.5879 56.2067 34.7492 56.082C34.9105 55.9573 34.9912 55.7887 34.9912 55.576H36.0912C36.0912 55.8033 36.0399 56.0087 35.9372 56.192C35.8345 56.3753 35.6879 56.5293 35.4972 56.654C35.3139 56.7713 35.0939 56.8593 34.8372 56.918ZM39.0178 62V57.809C39.0178 57.4643 38.9371 57.2113 38.7758 57.05C38.6218 56.8887 38.3578 56.808 37.9838 56.808C37.7271 56.808 37.4851 56.8447 37.2578 56.918C37.0378 56.984 36.8288 57.0757 36.6308 57.193V56.181C36.7848 56.1077 36.9975 56.0343 37.2688 55.961C37.5475 55.8877 37.8775 55.851 38.2588 55.851C38.6475 55.851 38.9848 55.9097 39.2708 56.027C39.5641 56.137 39.7915 56.3203 39.9528 56.577C40.1141 56.8337 40.1948 57.182 40.1948 57.622V62H39.0178ZM41.9992 62V55.972H43.1652V58.48H43.2092L45.5302 55.972H46.8722V56.016L43.1652 59.866V62H41.9992ZM45.7282 62V59.921C45.7282 59.4957 45.5999 59.173 45.3432 58.953C45.0939 58.733 44.6906 58.623 44.1332 58.623L44.8262 57.776C45.2809 57.776 45.6586 57.8603 45.9592 58.029C46.2672 58.1977 46.5019 58.436 46.6632 58.744C46.8246 59.0447 46.9052 59.404 46.9052 59.822V62H45.7282ZM48.4197 62V59.987C48.4197 59.525 48.5187 59.184 48.7167 58.964C48.9147 58.744 49.175 58.59 49.4977 58.502L49.5087 58.458L48.3097 58.007V57.666C48.3097 57.3507 48.4087 57.0537 48.6067 56.775C48.812 56.4963 49.1054 56.2727 49.4867 56.104C49.868 55.9353 50.33 55.851 50.8727 55.851C51.3494 55.851 51.782 55.928 52.1707 56.082C52.5594 56.2287 52.8674 56.4597 53.0947 56.775C53.322 57.0903 53.4357 57.501 53.4357 58.007V62H52.2587V58.106C52.2587 57.6513 52.1267 57.325 51.8627 57.127C51.5987 56.9217 51.2614 56.819 50.8507 56.819C50.4327 56.819 50.1064 56.907 49.8717 57.083C49.637 57.2517 49.516 57.468 49.5087 57.732L50.6417 58.282L50.5427 58.865C50.2714 58.8723 50.044 58.964 49.8607 59.14C49.6847 59.316 49.5967 59.5873 49.5967 59.954V62H48.4197ZM56.8283 62V57.809C56.8283 57.4643 56.7477 57.2113 56.5863 57.05C56.4323 56.8887 56.1683 56.808 55.7943 56.808C55.5377 56.808 55.2957 56.8447 55.0683 56.918C54.8483 56.984 54.6393 57.0757 54.4413 57.193V56.181C54.5953 56.1077 54.808 56.0343 55.0793 55.961C55.358 55.8877 55.688 55.851 56.0693 55.851C56.458 55.851 56.7953 55.9097 57.0813 56.027C57.3747 56.137 57.602 56.3203 57.7633 56.577C57.9247 56.8337 58.0053 57.182 58.0053 57.622V62H56.8283ZM61.5258 62.121C61.0931 62.121 60.6788 62.077 60.2828 61.989C59.8941 61.901 59.5604 61.791 59.2818 61.659L59.6228 60.713C59.7768 60.779 59.9528 60.8487 60.1508 60.922C60.3488 60.988 60.5651 61.0467 60.7998 61.098C61.0344 61.142 61.2728 61.164 61.5148 61.164C61.8814 61.164 62.1748 61.1017 62.3948 60.977C62.6221 60.845 62.7358 60.6543 62.7358 60.405C62.7358 60.251 62.6881 60.119 62.5928 60.009C62.4974 59.8917 62.3544 59.789 62.1638 59.701C61.9731 59.6057 61.7348 59.5103 61.4488 59.415C61.0088 59.2683 60.6348 59.1143 60.3268 58.953C60.0188 58.7843 59.7841 58.5863 59.6228 58.359C59.4614 58.1243 59.3808 57.8347 59.3808 57.49C59.3808 57.1527 59.4688 56.863 59.6448 56.621C59.8281 56.379 60.0958 56.192 60.4478 56.06C60.8071 55.9207 61.2508 55.851 61.7788 55.851C62.1454 55.851 62.4864 55.884 62.8018 55.95C63.1244 56.0087 63.3738 56.093 63.5498 56.203V57.171C63.4251 57.1123 63.2674 57.0537 63.0768 56.995C62.8861 56.9363 62.6771 56.8887 62.4498 56.852C62.2298 56.8153 62.0061 56.797 61.7788 56.797C61.3388 56.797 61.0234 56.863 60.8328 56.995C60.6494 57.1197 60.5578 57.27 60.5578 57.446C60.5578 57.5927 60.6054 57.7173 60.7008 57.82C60.7961 57.9227 60.9538 58.0217 61.1738 58.117C61.3938 58.205 61.6798 58.3113 62.0318 58.436C62.3911 58.5607 62.7138 58.7 62.9998 58.854C63.2858 59.008 63.5094 59.2023 63.6708 59.437C63.8321 59.6717 63.9128 59.965 63.9128 60.317C63.9128 60.6323 63.8358 60.9293 63.6818 61.208C63.5351 61.4793 63.2858 61.6993 62.9338 61.868C62.5891 62.0367 62.1198 62.121 61.5258 62.121Z" fill="#5B3722"/>
<defs>
<clipPath id="clip0_4895_96504">
<rect width="22.6091" height="22.5882" fill="white" transform="translate(28.2615 11.2941)"/>
</clipPath>
</defs>
</svg>
