<svg width="80" height="80" viewBox="0 0 80 80" fill="none" xmlns="http://www.w3.org/2000/svg">
<path d="M12.2006 12.2925H25.17C25.17 12.2925 25.4284 8.81623 27.1762 7.62655C29.3357 6.1586 39.0598 4.85601 45.8977 5.81582C53.4339 6.87241 55.1979 9.72765 54.5843 12.103L67.9372 12.2966V24.4676L71.9657 26.48L74.5854 34.3117L73.4511 52.7901L67.9332 56.2784L67.9695 67.7437H54.9799L53.9021 72.4178L40.9852 74.5027L29.6143 72.8856L25.7634 70.9458L25.3315 67.4574L14.788 67.4211L11.4135 67.1711L11.5871 55.1291L7.37694 52.3989L5.04785 41.0062L7.13071 27.4519L11.8373 24.0401L12.1885 12.3006L12.2006 12.2925Z" fill="#F8F3E8"/>
<path d="M73.5883 6.89259V21.0074C73.5883 21.1768 75.3281 21.9632 76.1758 23.0601C81.4112 29.8433 81.2659 50.6285 75.7721 57.2665C74.9648 58.2424 73.5883 58.7788 73.5883 58.9159V73.0308H59.6623C59.4483 73.0308 57.6682 75.6319 56.8367 76.257C49.2278 81.9635 27.9633 81.0843 21.1012 74.035C20.7661 73.6922 20.7661 73.0348 20.7096 73.0348H6.5817V59.5249C6.5817 59.1902 4.93883 58.3473 4.56343 57.9118C-1.61652 50.7293 -1.4712 29.1336 4.70471 21.9632C5.00745 21.6124 6.5817 20.7977 6.5817 20.4106V6.89259H20.1041C20.4392 6.89259 21.8116 4.75923 22.3484 4.29545C29.0289 -1.5118 50.3015 -1.2779 57.2403 4.07365C57.9831 4.64631 59.4766 6.89662 59.6623 6.89662H73.5883V6.89259ZM58.2495 8.10243C58.1687 7.01761 57.4341 6.15055 56.647 5.469C50.685 0.302967 26.3446 -0.370514 22.1547 6.94905C21.9085 7.38056 21.9811 8.10647 21.9206 8.10647H7.79267V21.818C7.79267 22.0156 5.63312 23.0279 4.78948 24.2619C0.490559 30.5773 0.24433 49.7735 4.96709 55.8913C5.54028 56.6333 7.79267 58.1255 7.79267 58.311V71.216L8.39815 71.8209H21.9206C22.0336 71.8209 22.2758 73.0993 22.9176 73.8535C28.1853 80.0116 52.8486 80.0559 57.7974 73.1679C58.1203 72.7202 58.1809 71.8209 58.2495 71.8209H71.9737V58.1094C71.9737 57.9964 73.2654 57.7988 74.0122 57.1173C79.9903 51.673 80.2365 27.226 73.3219 22.2657C72.8739 21.9431 71.9737 21.8826 71.9737 21.814V8.10243H58.2495Z" fill="#5B3722"/>
<path d="M58.2495 8.10253H71.9737V21.8141C71.9737 21.8867 72.8739 21.9432 73.3219 22.2658C80.2365 27.2261 79.9903 51.6731 74.0122 57.1174C73.2654 57.7989 71.9737 57.9965 71.9737 58.1095V71.821H58.2495C58.1768 71.821 58.1203 72.7203 57.7974 73.168C52.8486 80.056 28.1853 80.0117 22.9176 73.8536C22.2758 73.1035 22.0336 71.821 21.9206 71.821H8.39816L7.79268 71.2161V58.3111C7.79268 58.1256 5.54029 56.6334 4.9671 55.8914C0.244342 49.7736 0.490571 30.5774 4.78949 24.262C5.62909 23.024 7.79268 22.0117 7.79268 21.8181V8.10253H21.9206C21.9811 8.10253 21.9085 7.37662 22.1547 6.94511C26.3446 -0.370416 50.685 0.303064 56.647 5.4691C57.4341 6.15065 58.1688 7.0177 58.2495 8.10253ZM23.5352 10.1189H9.81095V23.4272H8.60403V23.8265H10.2186V10.5222H23.9429C23.5433 7.01367 26.5263 6.01353 29.2873 5.17471C30.1915 4.90047 33.1301 4.06971 33.8324 4.06971H45.9421C46.2731 4.06971 48.2671 5.23117 48.5658 4.06971C42.2042 3.19459 35.7619 2.83164 29.5093 4.58591C26.7766 5.35215 23.0185 6.56199 23.5392 10.1149L23.5352 10.1189ZM55.0202 11.7321C55.2463 8.72762 53.9788 7.67505 51.3833 6.69508C45.712 4.55769 33.6992 4.45283 28.1086 6.8201C25.3597 7.98155 24.7906 8.50985 25.1539 11.7321H11.4256V24.6371C8.72109 25.0444 7.91781 25.4799 6.90868 27.9883C4.51904 33.9327 4.26878 47.1241 7.18316 52.8668C8.4022 55.2703 9.56069 54.3186 11.4256 55.4841V68.1875H25.1498C24.391 72.0993 26.8048 72.7728 29.9896 73.6358C35.7902 75.2046 46.4143 75.3175 52.0009 73.0349C54.7942 71.8936 54.9758 71.3976 55.0202 68.1875H68.3408L68.353 55.3187C70.5892 54.8146 71.4167 54.9961 72.5994 52.8829C75.647 47.4386 75.5824 32.7672 72.8456 27.1818C71.453 24.3427 70.3551 25.7703 68.4054 23.9475L68.6436 12.3128L68.135 11.724H55.0162L55.0202 11.7321ZM56.6349 10.1189L55.4279 7.29597L56.2312 10.5222H69.5518V23.2256L72.3734 24.2298V23.8345L70.3591 23.4272V10.7239L69.7536 10.1189H56.6349ZM5.36672 52.0602C4.07099 46.0433 3.34844 40.3247 4.20823 34.1626C4.53923 31.7873 5.508 29.4523 5.57258 27.0527C3.19102 33.1665 2.97708 40.0787 3.81265 46.5635L5.36672 52.0602ZM76.4139 45.4061C76.7449 41.8048 76.1677 37.7679 76.4139 34.1142L75.6107 31.4929C76.2767 38.76 76.531 46.0917 73.9839 53.0604C74.4845 53.629 75.0254 51.54 75.09 51.3384C75.5784 49.7817 76.2686 46.9668 76.4139 45.4021V45.4061ZM70.3591 56.4963C71.6145 56.5891 73.883 55.2824 73.3865 54.0766C71.7558 56.5044 69.5518 55.0808 69.5518 58.3111V69.4013H56.2312L55.8316 72.2243H56.2272L56.6349 69.8046H69.7536L70.3591 69.1997V56.4963ZM10.2146 56.093C8.71705 56.1374 7.66351 55.3671 6.58575 54.4799C6.59383 56.0447 8.57981 56.4157 9.81095 56.4963V69.8046H23.5352C23.1114 72.4663 25.0449 73.5148 27.1721 74.4383C32.2662 76.6483 40.412 76.8862 45.8856 76.2087C47.8715 75.9627 49.8171 75.3538 51.787 75.0433C51.8839 74.3173 50.911 74.6763 50.4791 74.7448C48.6062 75.0433 46.7252 75.7288 44.7432 75.87C39.754 76.2329 32.5044 76.0152 27.8705 74.1439C25.5414 73.2043 23.5554 72.3574 23.9389 69.4013H10.2146V56.093Z" fill="#F8F3E8"/>
<path d="M70.3591 56.4963V69.1997L69.7536 69.8046H56.6348L56.2271 72.2202H55.8315L56.2312 69.4013H69.5518V58.3111C69.5518 55.0808 71.7557 56.5044 73.3865 54.0766C73.8789 55.2784 71.6104 56.589 70.3591 56.4963Z" fill="#5B3722"/>
<path d="M56.6347 10.1189H69.7534L70.3589 10.7239V23.4272L72.3731 23.8386V24.2298L69.5516 23.2256V10.5222H56.231L55.4277 7.29596L56.6347 10.1189Z" fill="#5B3722"/>
<path d="M10.2148 56.093V69.4013H23.939C23.5556 72.3574 25.5415 73.2043 27.8706 74.1439C32.5046 76.0152 39.7502 76.2329 44.7434 75.87C46.7294 75.7248 48.6104 75.0392 50.4793 74.7448C50.9112 74.6763 51.884 74.3173 51.7872 75.0433C49.8173 75.3538 47.8717 75.9627 45.8857 76.2087C40.4122 76.8862 32.2624 76.6483 27.1723 74.4383C25.0451 73.5148 23.1075 72.4663 23.5354 69.8046H9.81114V56.4963C8.57999 56.4157 6.59401 56.0447 6.58594 54.4799C7.66369 55.3671 8.71723 56.1374 10.2148 56.093Z" fill="#5B3722"/>
<path d="M23.5353 10.1188C23.0146 6.56189 26.7726 5.35205 29.5054 4.58984C35.758 2.8396 42.2003 3.20256 48.5619 4.07364C48.2632 5.23106 46.2732 4.07364 45.9381 4.07364H33.8285C33.1302 4.07364 30.1875 4.9044 29.2834 5.17864C26.5183 6.01746 23.5393 7.01357 23.939 10.5262H10.2147V23.8344H8.6001V23.4352H9.80702V10.1188H23.5313H23.5353Z" fill="#5B3722"/>
<path d="M5.36678 52.0601L3.81271 46.5634C2.98119 40.0826 3.19109 33.1704 5.57265 27.0526C5.50403 29.4481 4.53929 31.7831 4.2083 34.1625C3.34851 40.3246 4.07509 46.0431 5.36678 52.0601Z" fill="#5B3722"/>
<path d="M76.4139 45.406C76.2686 46.9707 75.5783 49.7816 75.0899 51.3423C75.0294 51.544 74.4844 53.633 73.9839 53.0643C76.5269 46.0956 76.2726 38.764 75.6106 31.4968L76.4139 34.1182C76.1677 37.7719 76.7449 41.8087 76.4139 45.41V45.406Z" fill="#5B3722"/>
<path d="M55.0205 11.7319H68.1392L68.6479 12.3207L68.4097 23.9554C70.3593 25.7823 71.4573 24.3546 72.8499 27.1897C75.5867 32.7711 75.6513 47.4465 72.6037 52.8908C71.421 55.004 70.5894 54.8226 68.3572 55.3267L68.3451 68.1954H55.0245C54.9801 71.4055 54.7985 71.9015 52.0052 73.0428C46.4226 75.3254 35.7985 75.2125 29.9939 73.6437C26.8091 72.7807 24.3952 72.1072 25.1541 68.1954H11.4258V55.492C9.56091 54.3265 8.40243 55.2783 7.18339 52.8747C4.269 47.132 4.51927 33.9406 6.9089 27.9963C7.91804 25.4879 8.71728 25.0483 11.4258 24.645V11.7319H25.15C24.7868 8.5097 25.3559 7.98543 28.1048 6.81995C33.6954 4.45269 45.7122 4.56157 51.3795 6.69493C53.975 7.67491 55.2425 8.72747 55.0164 11.7319H55.0205ZM25.3519 12.9418H12.6368V24.8386C11.4339 26.4194 9.74659 25.4798 8.50738 27.1655C5.31851 31.5169 5.63739 46.8537 7.88575 51.7657C9.22184 54.6854 10.7436 53.1893 12.6368 55.0847V66.9815H25.3519C26.3449 67.8486 25.913 69.5988 26.4498 70.724C27.6245 73.184 39.1932 73.9623 41.9219 73.8575C43.8998 73.7808 53.1596 72.6234 53.749 70.7522C53.9589 70.0827 53.5471 66.9815 54.8187 66.9815H67.5338V54.4798C70.5289 53.8224 71.0577 54.137 72.1718 51.2495C74.0488 46.3899 74.2748 38.5461 73.4796 33.4204C72.858 29.4199 72.3251 25.6008 67.5338 25.4475V12.9458H54.8187C53.3453 12.0989 54.2172 9.62679 53.5512 8.87265C52.2272 7.37245 44.1137 6.1747 41.9219 6.06985C39.0761 5.93273 28.02 6.457 26.583 8.93315C26.0341 9.88086 26.1592 12.6837 25.3519 12.9458V12.9418Z" fill="#5B3722"/>
<g clip-path="url(#clip0_4895_96777)">
<path d="M46.6311 19.7647H32.5004C30.1632 19.7647 28.2612 21.6649 28.2612 24V36.2353C28.2612 38.5704 30.1632 40.4706 32.5004 40.4706H34.3845C34.6445 40.4706 34.8556 40.2598 34.8556 40C34.8556 39.7402 34.6445 39.5294 34.3845 39.5294H32.5004C30.6823 39.5294 29.2033 38.0518 29.2033 36.2353V27.2941H49.9283V36.2353C49.9283 38.0518 48.4493 39.5294 46.6311 39.5294H44.747C44.487 39.5294 44.276 39.7402 44.276 40C44.276 40.2598 44.487 40.4706 44.747 40.4706H46.6311C48.9684 40.4706 50.8703 38.5704 50.8703 36.2353V24C50.8703 21.6649 48.9684 19.7647 46.6311 19.7647ZM29.2033 26.3529V24C29.2033 22.1835 30.6823 20.7059 32.5004 20.7059H46.6311C48.4493 20.7059 49.9283 22.1835 49.9283 24V26.3529H29.2033ZM32.9715 23.5294C32.9715 24.0489 32.5494 24.4706 32.0294 24.4706C31.5094 24.4706 31.0874 24.0489 31.0874 23.5294C31.0874 23.0099 31.5094 22.5882 32.0294 22.5882C32.5494 22.5882 32.9715 23.0099 32.9715 23.5294ZM35.7976 23.5294C35.7976 24.0489 35.3756 24.4706 34.8556 24.4706C34.3355 24.4706 33.9135 24.0489 33.9135 23.5294C33.9135 23.0099 34.3355 22.5882 34.8556 22.5882C35.3756 22.5882 35.7976 23.0099 35.7976 23.5294ZM38.6237 23.5294C38.6237 24.0489 38.2017 24.4706 37.6817 24.4706C37.1617 24.4706 36.7396 24.0489 36.7396 23.5294C36.7396 23.0099 37.1617 22.5882 37.6817 22.5882C38.2017 22.5882 38.6237 23.0099 38.6237 23.5294ZM45.2181 33.4118C45.2181 35.1934 44.4004 36.8329 42.976 37.9096C42.6048 38.1911 42.3919 38.6042 42.3919 39.0447V40.9412C42.3919 41.2009 42.1809 41.4118 41.9209 41.4118C41.6609 41.4118 41.4499 41.2009 41.4499 40.9412V39.0447C41.4499 38.3078 41.7984 37.6198 42.407 37.1595C43.5949 36.2616 44.276 34.8951 44.276 33.4118C44.276 32.2334 43.8361 31.1068 43.0391 30.2372C42.8743 30.0584 42.6774 30.1148 42.6208 30.1384C42.5521 30.1647 42.3929 30.2513 42.3929 30.4734V31.8654C42.3929 33.3732 41.2784 34.6664 39.8569 34.8085C39.0571 34.8922 38.262 34.6287 37.6713 34.0932C37.0807 33.5595 36.7415 32.7953 36.7415 31.9991V30.4725C36.7415 30.2504 36.5823 30.1638 36.5136 30.1374C36.4561 30.1158 36.2601 30.0584 36.0953 30.2362C35.2974 31.1059 34.8574 32.2325 34.8574 33.4108C34.8574 34.8941 35.5385 36.2607 36.7265 37.1586C37.335 37.6188 37.6836 38.3068 37.6836 39.0438V40.9402C37.6836 41.2 37.4726 41.4108 37.2126 41.4108C36.9526 41.4108 36.7415 41.2 36.7415 40.9402V39.0438C36.7415 38.6033 36.5286 38.1901 36.1575 37.9087C34.7331 36.8311 33.9154 35.1915 33.9154 33.4108C33.9154 31.9962 34.4429 30.6438 35.401 29.6C35.7741 29.1934 36.344 29.0598 36.8555 29.2602C37.3586 29.456 37.6836 29.9313 37.6836 30.4725V31.9991C37.6836 32.5299 37.9097 33.0381 38.3034 33.3948C38.7038 33.7562 39.2219 33.9266 39.7636 33.872C40.7104 33.776 41.4518 32.8951 41.4518 31.8645V30.4725C41.4518 29.9313 41.7768 29.456 42.2798 29.2602C42.7914 29.0607 43.3613 29.1944 43.7343 29.6C44.6924 30.6428 45.22 31.9962 45.22 33.4108L45.2181 33.4118Z" fill="#5B3722"/>
</g>
<path d="M35.4787 56H32.4317V55.318L33.3667 55.043V49.114L32.4317 48.828V48.146H35.4787V48.828L34.5547 49.114V55.043L35.4787 55.318V56ZM40.3023 49.059C39.9137 49.059 39.5653 49.1287 39.2573 49.268C38.9493 49.4 38.6853 49.598 38.4653 49.862C38.2527 50.126 38.0877 50.445 37.9703 50.819C37.8603 51.193 37.8053 51.6147 37.8053 52.084C37.8053 52.7 37.897 53.2353 38.0803 53.69C38.2637 54.1373 38.5387 54.482 38.9053 54.724C39.272 54.966 39.734 55.087 40.2913 55.087C40.6287 55.087 40.9513 55.0577 41.2593 54.999C41.5747 54.933 41.8937 54.8487 42.2163 54.746V55.769C41.9083 55.8863 41.593 55.9707 41.2703 56.022C40.9477 56.0807 40.5737 56.11 40.1483 56.11C39.349 56.11 38.6817 55.945 38.1463 55.615C37.6183 55.285 37.2223 54.8157 36.9583 54.207C36.6943 53.5983 36.5623 52.887 36.5623 52.073C36.5623 51.479 36.643 50.9363 36.8043 50.445C36.973 49.9463 37.215 49.5173 37.5303 49.158C37.8457 48.7987 38.2343 48.5237 38.6963 48.333C39.1657 48.135 39.7047 48.036 40.3133 48.036C40.7093 48.036 41.098 48.08 41.4793 48.168C41.8607 48.2487 42.2053 48.366 42.5133 48.52L42.0733 49.51C41.8167 49.3927 41.538 49.29 41.2373 49.202C40.944 49.1067 40.6323 49.059 40.3023 49.059ZM48.3303 56H43.9083V48.146H48.3303V49.158H45.0963V51.402H48.1323V52.403H45.0963V54.977H48.3303V56Z" fill="#5B3722"/>
<defs>
<clipPath id="clip0_4895_96777">
<rect width="22.6091" height="22.5882" fill="white" transform="translate(28.2612 18.8235)"/>
</clipPath>
</defs>
</svg>
