<svg width="80" height="80" viewBox="0 0 80 80" fill="none" xmlns="http://www.w3.org/2000/svg">
<path d="M12.2006 12.2925H25.17C25.17 12.2925 25.4284 8.8162 27.1762 7.62652C29.3357 6.15857 39.0598 4.85597 45.8977 5.81578C53.4339 6.87238 55.1979 9.72762 54.5843 12.1029L67.9372 12.2965V24.4676L71.9657 26.4799L74.5854 34.3117L73.4511 52.79L67.9332 56.2784L67.9695 67.7437H54.9799L53.9021 72.4177L40.9852 74.5027L29.6143 72.8855L25.7634 70.9458L25.3315 67.4574L14.788 67.4211L11.4135 67.171L11.5871 55.1291L7.37694 52.3988L5.04785 41.0061L7.13071 27.4518L11.8373 24.0401L12.1885 12.3006L12.2006 12.2925Z" fill="#F8F3E8"/>
<path d="M73.5883 6.89259V21.0074C73.5883 21.1768 75.3281 21.9632 76.1758 23.0601C81.4112 29.8433 81.2659 50.6285 75.7721 57.2665C74.9648 58.2424 73.5883 58.7788 73.5883 58.9159V73.0308H59.6623C59.4483 73.0308 57.6682 75.6319 56.8367 76.257C49.2278 81.9635 27.9633 81.0843 21.1012 74.035C20.7661 73.6922 20.7661 73.0348 20.7096 73.0348H6.5817V59.5249C6.5817 59.1902 4.93883 58.3473 4.56343 57.9118C-1.61652 50.7293 -1.4712 29.1336 4.70471 21.9632C5.00745 21.6124 6.5817 20.7977 6.5817 20.4106V6.89259H20.1041C20.4392 6.89259 21.8116 4.75923 22.3484 4.29545C29.0289 -1.5118 50.3015 -1.2779 57.2403 4.07365C57.9831 4.64631 59.4766 6.89662 59.6623 6.89662H73.5883V6.89259ZM58.2495 8.10243C58.1687 7.01761 57.4341 6.15055 56.647 5.469C50.685 0.302967 26.3446 -0.370514 22.1547 6.94905C21.9085 7.38056 21.9811 8.10647 21.9206 8.10647H7.79267V21.818C7.79267 22.0156 5.63312 23.0279 4.78948 24.2619C0.490559 30.5773 0.24433 49.7735 4.96709 55.8913C5.54028 56.6333 7.79267 58.1255 7.79267 58.311V71.216L8.39815 71.8209H21.9206C22.0336 71.8209 22.2758 73.0993 22.9176 73.8535C28.1853 80.0116 52.8486 80.0559 57.7974 73.1679C58.1203 72.7202 58.1809 71.8209 58.2495 71.8209H71.9737V58.1094C71.9737 57.9964 73.2654 57.7988 74.0122 57.1173C79.9903 51.673 80.2365 27.226 73.3219 22.2657C72.8739 21.9431 71.9737 21.8826 71.9737 21.814V8.10243H58.2495Z" fill="#5B3722"/>
<path d="M58.2495 8.1025H71.9737V21.8141C71.9737 21.8867 72.8739 21.9431 73.3219 22.2658C80.2365 27.2261 79.9903 51.673 74.0122 57.1174C73.2654 57.7989 71.9737 57.9965 71.9737 58.1094V71.821H58.2495C58.1768 71.821 58.1203 72.7203 57.7974 73.168C52.8486 80.056 28.1853 80.0117 22.9176 73.8535C22.2758 73.1034 22.0336 71.821 21.9206 71.821H8.39816L7.79268 71.2161V58.3111C7.79268 58.1256 5.54029 56.6334 4.9671 55.8914C0.244342 49.7736 0.490571 30.5774 4.78949 24.262C5.62909 23.0239 7.79268 22.0117 7.79268 21.8181V8.1025H21.9206C21.9811 8.1025 21.9085 7.37659 22.1547 6.94508C26.3446 -0.370447 50.685 0.303034 56.647 5.46907C57.4341 6.15062 58.1688 7.01767 58.2495 8.1025ZM23.5352 10.1189H9.81095V23.4272H8.60403V23.8265H10.2186V10.5222H23.9429C23.5433 7.01364 26.5263 6.0135 29.2873 5.17468C30.1915 4.90044 33.1301 4.06968 33.8324 4.06968H45.9421C46.2731 4.06968 48.2671 5.23114 48.5658 4.06968C42.2042 3.19456 35.7619 2.83161 29.5093 4.58588C26.7766 5.35212 23.0185 6.56196 23.5392 10.1149L23.5352 10.1189ZM55.0202 11.732C55.2463 8.72759 53.9788 7.67502 51.3833 6.69505C45.712 4.55765 33.6992 4.4528 28.1086 6.82006C25.3597 7.98152 24.7906 8.50981 25.1539 11.732H11.4256V24.637C8.72109 25.0444 7.91781 25.4799 6.90868 27.9883C4.51904 33.9327 4.26878 47.124 7.18316 52.8668C8.4022 55.2703 9.56069 54.3186 11.4256 55.4841V68.1874H25.1498C24.391 72.0993 26.8048 72.7727 29.9896 73.6358C35.7902 75.2045 46.4143 75.3175 52.0009 73.0349C54.7942 71.8936 54.9758 71.3976 55.0202 68.1874H68.3408L68.353 55.3187C70.5892 54.8146 71.4167 54.9961 72.5994 52.8829C75.647 47.4386 75.5824 32.7672 72.8456 27.1818C71.453 24.3427 70.3551 25.7703 68.4054 23.9474L68.6436 12.3128L68.135 11.724H55.0162L55.0202 11.732ZM56.6349 10.1189L55.4279 7.29594L56.2312 10.5222H69.5518V23.2256L72.3734 24.2297V23.8345L70.3591 23.4272V10.7238L69.7536 10.1189H56.6349ZM5.36672 52.0602C4.07099 46.0432 3.34844 40.3247 4.20823 34.1626C4.53923 31.7872 5.508 29.4522 5.57258 27.0527C3.19102 33.1665 2.97708 40.0787 3.81265 46.5635L5.36672 52.0602ZM76.4139 45.406C76.7449 41.8047 76.1677 37.7679 76.4139 34.1142L75.6107 31.4928C76.2767 38.76 76.531 46.0916 73.9839 53.0603C74.4845 53.629 75.0254 51.54 75.09 51.3383C75.5784 49.7817 76.2686 46.9668 76.4139 45.402V45.406ZM70.3591 56.4963C71.6145 56.5891 73.883 55.2824 73.3865 54.0766C71.7558 56.5044 69.5518 55.0808 69.5518 58.3111V69.4013H56.2312L55.8316 72.2243H56.2272L56.6349 69.8046H69.7536L70.3591 69.1997V56.4963ZM10.2146 56.093C8.71705 56.1374 7.66351 55.3671 6.58575 54.4799C6.59383 56.0446 8.57981 56.4156 9.81095 56.4963V69.8046H23.5352C23.1114 72.4662 25.0449 73.5148 27.1721 74.4383C32.2662 76.6483 40.412 76.8862 45.8856 76.2087C47.8715 75.9627 49.8171 75.3537 51.787 75.0432C51.8839 74.3173 50.911 74.6762 50.4791 74.7448C48.6062 75.0432 46.7252 75.7288 44.7432 75.8699C39.754 76.2329 32.5044 76.0151 27.8705 74.1439C25.5414 73.2043 23.5554 72.3574 23.9389 69.4013H10.2146V56.093Z" fill="#F8F3E8"/>
<path d="M70.3591 56.4963V69.1997L69.7536 69.8046H56.6348L56.2271 72.2202H55.8315L56.2312 69.4013H69.5518V58.3111C69.5518 55.0808 71.7557 56.5044 73.3865 54.0766C73.8789 55.2784 71.6104 56.589 70.3591 56.4963Z" fill="#5B3722"/>
<path d="M56.6347 10.1189H69.7534L70.3589 10.7239V23.4272L72.3731 23.8386V24.2298L69.5516 23.2256V10.5222H56.231L55.4277 7.29596L56.6347 10.1189Z" fill="#5B3722"/>
<path d="M10.2148 56.093V69.4013H23.939C23.5556 72.3574 25.5415 73.2043 27.8706 74.1439C32.5046 76.0152 39.7502 76.2329 44.7434 75.87C46.7294 75.7248 48.6104 75.0392 50.4793 74.7448C50.9112 74.6763 51.884 74.3173 51.7872 75.0433C49.8173 75.3538 47.8717 75.9627 45.8857 76.2087C40.4122 76.8862 32.2624 76.6483 27.1723 74.4383C25.0451 73.5148 23.1075 72.4663 23.5354 69.8046H9.81114V56.4963C8.57999 56.4157 6.59401 56.0447 6.58594 54.4799C7.66369 55.3671 8.71723 56.1374 10.2148 56.093Z" fill="#5B3722"/>
<path d="M23.5353 10.1188C23.0146 6.56189 26.7726 5.35205 29.5054 4.58984C35.758 2.8396 42.2003 3.20256 48.5619 4.07364C48.2632 5.23106 46.2732 4.07364 45.9381 4.07364H33.8285C33.1302 4.07364 30.1875 4.9044 29.2834 5.17864C26.5183 6.01746 23.5393 7.01357 23.939 10.5262H10.2147V23.8344H8.6001V23.4352H9.80702V10.1188H23.5313H23.5353Z" fill="#5B3722"/>
<path d="M5.36678 52.0601L3.81271 46.5634C2.98119 40.0827 3.19109 33.1704 5.57265 27.0526C5.50403 29.4481 4.53929 31.7831 4.2083 34.1625C3.34851 40.3246 4.07509 46.0432 5.36678 52.0601Z" fill="#5B3722"/>
<path d="M76.4139 45.406C76.2686 46.9707 75.5783 49.7816 75.0899 51.3423C75.0294 51.544 74.4844 53.633 73.9839 53.0643C76.5269 46.0956 76.2726 38.764 75.6106 31.4968L76.4139 34.1182C76.1677 37.7719 76.7449 41.8087 76.4139 45.41V45.406Z" fill="#5B3722"/>
<path d="M55.0205 11.7319H68.1392L68.6479 12.3207L68.4097 23.9554C70.3593 25.7822 71.4573 24.3546 72.8499 27.1897C75.5867 32.7711 75.6513 47.4465 72.6037 52.8908C71.421 55.004 70.5894 54.8225 68.3572 55.3266L68.3451 68.1954H55.0245C54.9801 71.4055 54.7985 71.9015 52.0052 73.0428C46.4226 75.3254 35.7985 75.2124 29.9939 73.6437C26.8091 72.7807 24.3952 72.1072 25.1541 68.1954H11.4258V55.492C9.56091 54.3265 8.40243 55.2782 7.18339 52.8747C4.269 47.132 4.51927 33.9406 6.9089 27.9962C7.91804 25.4878 8.71728 25.0482 11.4258 24.645V11.7319H25.15C24.7868 8.50967 25.3559 7.9854 28.1048 6.81992C33.6954 4.45266 45.7122 4.56154 51.3795 6.6949C53.975 7.67488 55.2425 8.72744 55.0164 11.7319H55.0205ZM25.3519 12.9417H12.6368V24.8385C11.4339 26.4194 9.74659 25.4798 8.50738 27.1655C5.31851 31.5169 5.63739 46.8537 7.88575 51.7657C9.22184 54.6854 10.7436 53.1892 12.6368 55.0847V66.9815H25.3519C26.3449 67.8485 25.913 69.5988 26.4498 70.7239C27.6245 73.1839 39.1932 73.9623 41.9219 73.8574C43.8998 73.7808 53.1596 72.6234 53.749 70.7522C53.9589 70.0827 53.5471 66.9815 54.8187 66.9815H67.5338V54.4797C70.5289 53.8224 71.0577 54.137 72.1718 51.2495C74.0488 46.3899 74.2748 38.5461 73.4796 33.4204C72.858 29.4198 72.3251 25.6007 67.5338 25.4475V12.9458H54.8187C53.3453 12.0989 54.2172 9.62676 53.5512 8.87262C52.2272 7.37242 44.1137 6.17467 41.9219 6.06982C39.0761 5.9327 28.02 6.45697 26.583 8.93312C26.0341 9.88083 26.1592 12.6836 25.3519 12.9458V12.9417Z" fill="#5B3722"/>
<path d="M40.365 15.0588H38.7663C37.8834 15.0588 37.1677 15.733 37.1677 16.5647C37.1677 17.5167 36.1494 18.122 35.3131 17.6672L35.2268 17.6203C34.4622 17.2044 33.4845 17.4512 33.043 18.1715L32.2437 19.4756C31.8023 20.1959 32.0643 21.1168 32.8289 21.5327C33.6655 21.9877 33.6655 23.1888 32.8289 23.6438C32.0643 24.0597 31.8023 24.9806 32.2437 25.7009L33.043 27.005C33.4845 27.7253 34.4622 27.9721 35.2268 27.5562L35.3131 27.5093C36.1494 27.0545 37.1677 27.6598 37.1677 28.6118C37.1677 29.4435 37.8834 30.1177 38.7663 30.1177H40.365C41.2479 30.1177 41.9636 29.4435 41.9636 28.6118C41.9636 27.6598 42.9819 27.0545 43.8182 27.5093L43.9045 27.5562C44.6691 27.972 45.6468 27.7253 46.0883 27.005L46.8876 25.7009C47.329 24.9806 47.0671 24.0596 46.3025 23.6438C45.4658 23.1888 45.4658 21.9877 46.3025 21.5327C47.0671 21.1169 47.329 20.1959 46.8876 19.4756L46.0883 18.1715C45.6468 17.4512 44.6691 17.2045 43.9045 17.6203L43.8182 17.6672C42.9819 18.122 41.9636 17.5167 41.9636 16.5647C41.9636 15.733 41.2479 15.0588 40.365 15.0588Z" stroke="#5B3722" stroke-width="1.5" stroke-linejoin="round"/>
<ellipse cx="39.5659" cy="22.5882" rx="2.82614" ry="2.82353" stroke="#5B3722" stroke-width="1.5"/>
<path d="M21.4622 46.121C21.1542 46.121 20.8572 46.088 20.5712 46.022C20.2852 45.956 19.9918 45.8423 19.6912 45.681L20.0432 44.801C20.2045 44.8963 20.3915 44.9807 20.6042 45.054C20.8168 45.12 21.0515 45.153 21.3082 45.153C21.8068 45.153 22.1992 44.966 22.4852 44.592C22.7712 44.218 22.9142 43.6753 22.9142 42.964C22.9142 42.2673 22.7675 41.7357 22.4742 41.369C22.1882 41.0023 21.7408 40.819 21.1322 40.819C20.8975 40.819 20.6555 40.8483 20.4062 40.907C20.1642 40.9583 19.9515 41.0353 19.7682 41.138V40.159C19.9882 40.049 20.2302 39.972 20.4942 39.928C20.7582 39.8767 21.0258 39.851 21.2972 39.851C21.9645 39.851 22.5035 39.9793 22.9142 40.236C23.3322 40.4927 23.6365 40.8557 23.8272 41.325C24.0252 41.787 24.1242 42.3333 24.1242 42.964C24.1242 43.954 23.8968 44.7277 23.4422 45.285C22.9948 45.8423 22.3348 46.121 21.4622 46.121ZM19.1821 39.048V38.542L20.0731 38.157H23.9671V39.048H19.1821ZM25.6207 46V42.227C25.6207 41.457 25.826 40.8703 26.2367 40.467C26.6474 40.0563 27.3 39.851 28.1947 39.851C28.6127 39.851 28.972 39.9023 29.2727 40.005C29.5734 40.1077 29.808 40.2837 29.9767 40.533C30.2627 40.665 30.4644 40.8813 30.5817 41.182C30.7064 41.4753 30.7687 41.8273 30.7687 42.238V46H29.5917V42.227C29.5917 41.765 29.4744 41.4167 29.2397 41.182C29.0124 40.94 28.664 40.819 28.1947 40.819C27.7254 40.819 27.3734 40.94 27.1387 41.182C26.904 41.4167 26.7867 41.765 26.7867 42.227V43.371L26.8197 43.382C26.9884 43.096 27.179 42.909 27.3917 42.821C27.6117 42.7257 27.9234 42.678 28.3267 42.678H28.6567V43.602H28.3267C27.9087 43.602 27.586 43.6643 27.3587 43.789C27.1387 43.9137 26.9884 44.0787 26.9077 44.284C26.827 44.482 26.7867 44.7057 26.7867 44.955V46H25.6207ZM29.9877 40.918L29.3387 40.335C29.5514 40.291 29.7384 40.2067 29.8997 40.082C30.061 39.9573 30.1417 39.7887 30.1417 39.576H31.2417C31.2417 39.8033 31.1904 40.0087 31.0877 40.192C30.985 40.3753 30.8384 40.5293 30.6477 40.654C30.4644 40.7713 30.2444 40.8593 29.9877 40.918ZM33.9446 46.121C33.6366 46.121 33.3396 46.088 33.0536 46.022C32.7676 45.956 32.4743 45.8423 32.1736 45.681L32.5256 44.801C32.6869 44.8963 32.8739 44.9807 33.0866 45.054C33.2993 45.12 33.5339 45.153 33.7906 45.153C34.2893 45.153 34.6816 44.966 34.9676 44.592C35.2536 44.218 35.3966 43.6753 35.3966 42.964C35.3966 42.2673 35.2499 41.7357 34.9566 41.369C34.6706 41.0023 34.2233 40.819 33.6146 40.819C33.3799 40.819 33.1379 40.8483 32.8886 40.907C32.6466 40.9583 32.4339 41.0353 32.2506 41.138V40.159C32.4706 40.049 32.7126 39.972 32.9766 39.928C33.2406 39.8767 33.5083 39.851 33.7796 39.851C34.4469 39.851 34.9859 39.9793 35.3966 40.236C35.8146 40.4927 36.1189 40.8557 36.3096 41.325C36.5076 41.787 36.6066 42.3333 36.6066 42.964C36.6066 43.954 36.3793 44.7277 35.9246 45.285C35.4773 45.8423 34.8173 46.121 33.9446 46.121ZM38.0481 46V43.987C38.0481 43.525 38.1471 43.184 38.3451 42.964C38.5431 42.744 38.8035 42.59 39.1261 42.502L39.1371 42.458L37.9381 42.007V41.666C37.9381 41.3507 38.0371 41.0537 38.2351 40.775C38.4405 40.4963 38.7338 40.2727 39.1151 40.104C39.4965 39.9353 39.9585 39.851 40.5011 39.851C40.9778 39.851 41.4105 39.928 41.7991 40.082C42.1878 40.2287 42.4958 40.4597 42.7231 40.775C42.9505 41.0903 43.0641 41.501 43.0641 42.007V46H41.8871V42.106C41.8871 41.6513 41.7551 41.325 41.4911 41.127C41.2271 40.9217 40.8898 40.819 40.4791 40.819C40.0611 40.819 39.7348 40.907 39.5001 41.083C39.2655 41.2517 39.1445 41.468 39.1371 41.732L40.2701 42.282L40.1711 42.865C39.8998 42.8723 39.6725 42.964 39.4891 43.14C39.3131 43.316 39.2251 43.5873 39.2251 43.954V46H38.0481ZM46.5888 46.121C46.1561 46.121 45.7418 46.077 45.3458 45.989C44.9571 45.901 44.6234 45.791 44.3448 45.659L44.6858 44.713C44.8398 44.779 45.0158 44.8487 45.2138 44.922C45.4118 44.988 45.6281 45.0467 45.8628 45.098C46.0974 45.142 46.3358 45.164 46.5778 45.164C46.9444 45.164 47.2378 45.1017 47.4578 44.977C47.6851 44.845 47.7988 44.6543 47.7988 44.405C47.7988 44.251 47.7511 44.119 47.6558 44.009C47.5604 43.8917 47.4174 43.789 47.2268 43.701C47.0361 43.6057 46.7978 43.5103 46.5118 43.415C46.0718 43.2683 45.6978 43.1143 45.3898 42.953C45.0818 42.7843 44.8471 42.5863 44.6858 42.359C44.5244 42.1243 44.4438 41.8347 44.4438 41.49C44.4438 41.1527 44.5318 40.863 44.7078 40.621C44.8911 40.379 45.1588 40.192 45.5108 40.06C45.8701 39.9207 46.3138 39.851 46.8418 39.851C47.2084 39.851 47.5494 39.884 47.8648 39.95C48.1874 40.0087 48.4368 40.093 48.6128 40.203V41.171C48.4881 41.1123 48.3304 41.0537 48.1398 40.995C47.9491 40.9363 47.7401 40.8887 47.5128 40.852C47.2928 40.8153 47.0691 40.797 46.8418 40.797C46.4018 40.797 46.0864 40.863 45.8958 40.995C45.7124 41.1197 45.6208 41.27 45.6208 41.446C45.6208 41.5927 45.6684 41.7173 45.7638 41.82C45.8591 41.9227 46.0168 42.0217 46.2368 42.117C46.4568 42.205 46.7428 42.3113 47.0948 42.436C47.4541 42.5607 47.7768 42.7 48.0628 42.854C48.3488 43.008 48.5724 43.2023 48.7338 43.437C48.8951 43.6717 48.9758 43.965 48.9758 44.317C48.9758 44.6323 48.8988 44.9293 48.7448 45.208C48.5981 45.4793 48.3488 45.6993 47.9968 45.868C47.6521 46.0367 47.1828 46.121 46.5888 46.121ZM52.0565 46.121C51.6239 46.121 51.2095 46.077 50.8135 45.989C50.4249 45.901 50.0912 45.791 49.8125 45.659L50.1535 44.713C50.3075 44.779 50.4835 44.8487 50.6815 44.922C50.8795 44.988 51.0959 45.0467 51.3305 45.098C51.5652 45.142 51.8035 45.164 52.0455 45.164C52.4122 45.164 52.7055 45.1017 52.9255 44.977C53.1529 44.845 53.2665 44.6543 53.2665 44.405C53.2665 44.251 53.2189 44.119 53.1235 44.009C53.0282 43.8917 52.8852 43.789 52.6945 43.701C52.5039 43.6057 52.2655 43.5103 51.9795 43.415C51.5395 43.2683 51.1655 43.1143 50.8575 42.953C50.5495 42.7843 50.3149 42.5863 50.1535 42.359C49.9922 42.1243 49.9115 41.8347 49.9115 41.49C49.9115 41.1527 49.9995 40.863 50.1755 40.621C50.3589 40.379 50.6265 40.192 50.9785 40.06C51.3379 39.9207 51.7815 39.851 52.3095 39.851C52.6762 39.851 53.0172 39.884 53.3325 39.95C53.6552 40.0087 53.9045 40.093 54.0805 40.203V41.171C53.9559 41.1123 53.7982 41.0537 53.6075 40.995C53.4169 40.9363 53.2079 40.8887 52.9805 40.852C52.7605 40.8153 52.5369 40.797 52.3095 40.797C51.8695 40.797 51.5542 40.863 51.3635 40.995C51.1802 41.1197 51.0885 41.27 51.0885 41.446C51.0885 41.5927 51.1362 41.7173 51.2315 41.82C51.3269 41.9227 51.4845 42.0217 51.7045 42.117C51.9245 42.205 52.2105 42.3113 52.5625 42.436C52.9219 42.5607 53.2445 42.7 53.5305 42.854C53.8165 43.008 54.0402 43.2023 54.2015 43.437C54.3629 43.6717 54.4435 43.965 54.4435 44.317C54.4435 44.6323 54.3665 44.9293 54.2125 45.208C54.0659 45.4793 53.8165 45.6993 53.4645 45.868C53.1199 46.0367 52.6505 46.121 52.0565 46.121ZM58.8113 46.11C58.3273 46.11 57.9166 46.0147 57.5793 45.824C57.2493 45.6333 57.022 45.373 56.8973 45.043H56.8313L56.7433 46H55.8083V39.972H56.9853V43.283C56.9853 43.6643 57.044 43.9907 57.1613 44.262C57.2786 44.5333 57.451 44.7423 57.6783 44.889C57.9056 45.0357 58.1806 45.109 58.5033 45.109C58.8993 45.109 59.1963 45.0027 59.3943 44.79C59.5923 44.57 59.6913 44.2473 59.6913 43.822V39.972H60.8683V43.976C60.8683 44.4527 60.7876 44.8487 60.6263 45.164C60.465 45.4793 60.2303 45.7177 59.9223 45.879C59.6143 46.033 59.244 46.11 58.8113 46.11Z" fill="#5B3722"/>
<path d="M22.2927 62.11C22.0507 62.11 21.8307 62.0733 21.6327 62C21.442 61.9193 21.288 61.791 21.1707 61.615C21.0533 61.4317 20.9947 61.186 20.9947 60.878V55.972H22.1717V60.735C22.1717 60.8963 22.2047 61.0137 22.2707 61.087C22.344 61.153 22.4577 61.186 22.6117 61.186C22.6703 61.186 22.7363 61.1787 22.8097 61.164C22.883 61.1493 22.9527 61.131 23.0187 61.109L23.1507 61.934C23.0113 62 22.8683 62.044 22.7217 62.066C22.5823 62.0953 22.4393 62.11 22.2927 62.11ZM24.1168 62V58.227C24.1168 57.457 24.3221 56.8703 24.7328 56.467C25.1435 56.0563 25.7961 55.851 26.6908 55.851C27.5928 55.851 28.2455 56.0563 28.6488 56.467C29.0595 56.8703 29.2648 57.457 29.2648 58.227V62H28.0878V58.227C28.0878 57.765 27.9705 57.4167 27.7358 57.182C27.5011 56.94 27.1491 56.819 26.6798 56.819C26.2105 56.819 25.8585 56.94 25.6238 57.182C25.3965 57.4167 25.2828 57.765 25.2828 58.227V59.371L25.3158 59.382C25.4698 59.096 25.6568 58.909 25.8768 58.821C26.1041 58.7257 26.4158 58.678 26.8118 58.678H27.1528V59.602H26.8118C26.3938 59.602 26.0748 59.6643 25.8548 59.789C25.6348 59.9137 25.4845 60.0787 25.4038 60.284C25.3231 60.482 25.2828 60.7057 25.2828 60.955V62H24.1168ZM32.7743 62.121C32.3416 62.121 31.9273 62.077 31.5313 61.989C31.1426 61.901 30.809 61.791 30.5303 61.659L30.8713 60.713C31.0253 60.779 31.2013 60.8487 31.3993 60.922C31.5973 60.988 31.8136 61.0467 32.0483 61.098C32.283 61.142 32.5213 61.164 32.7633 61.164C33.13 61.164 33.4233 61.1017 33.6433 60.977C33.8706 60.845 33.9843 60.6543 33.9843 60.405C33.9843 60.251 33.9366 60.119 33.8413 60.009C33.746 59.8917 33.603 59.789 33.4123 59.701C33.2216 59.6057 32.9833 59.5103 32.6973 59.415C32.2573 59.2683 31.8833 59.1143 31.5753 58.953C31.2673 58.7843 31.0326 58.5863 30.8713 58.359C30.71 58.1243 30.6293 57.8347 30.6293 57.49C30.6293 57.1527 30.7173 56.863 30.8933 56.621C31.0766 56.379 31.3443 56.192 31.6963 56.06C32.0556 55.9207 32.4993 55.851 33.0273 55.851C33.394 55.851 33.735 55.884 34.0503 55.95C34.373 56.0087 34.6223 56.093 34.7983 56.203V57.171C34.6736 57.1123 34.516 57.0537 34.3253 56.995C34.1346 56.9363 33.9256 56.8887 33.6983 56.852C33.4783 56.8153 33.2546 56.797 33.0273 56.797C32.5873 56.797 32.272 56.863 32.0813 56.995C31.898 57.1197 31.8063 57.27 31.8063 57.446C31.8063 57.5927 31.854 57.7173 31.9493 57.82C32.0446 57.9227 32.2023 58.0217 32.4223 58.117C32.6423 58.205 32.9283 58.3113 33.2803 58.436C33.6396 58.5607 33.9623 58.7 34.2483 58.854C34.5343 59.008 34.758 59.2023 34.9193 59.437C35.0806 59.6717 35.1613 59.965 35.1613 60.317C35.1613 60.6323 35.0843 60.9293 34.9303 61.208C34.7836 61.4793 34.5343 61.6993 34.1823 61.868C33.8376 62.0367 33.3683 62.121 32.7743 62.121ZM30.279 55.048V54.542L31.17 54.157H35.053V55.048H30.279ZM32.556 54.553V53.31H33.436V54.553H32.556ZM34.184 54.553V53.31H35.053V54.553H34.184ZM33.3307 52.683V50.813H34.4087V52.683H33.3307ZM38.6491 62.121C37.8277 62.121 37.2117 61.912 36.8011 61.494C36.3977 61.0687 36.1961 60.416 36.1961 59.536C36.1961 59.3893 36.1997 59.2243 36.2071 59.041C36.2217 58.8577 36.2401 58.6853 36.2621 58.524H38.6711V59.371H37.3731V59.569C37.3731 59.9797 37.4171 60.306 37.5051 60.548C37.6004 60.79 37.7397 60.9587 37.9231 61.054C38.1137 61.1493 38.3484 61.197 38.6271 61.197C38.9351 61.197 39.1991 61.1383 39.4191 61.021C39.6391 60.9037 39.8077 60.691 39.9251 60.383C40.0497 60.0677 40.1121 59.624 40.1121 59.052C40.1121 58.5387 40.0571 58.1207 39.9471 57.798C39.8371 57.468 39.6501 57.2223 39.3861 57.061C39.1294 56.8997 38.7847 56.819 38.3521 56.819C38.1174 56.819 37.8864 56.841 37.6591 56.885C37.4391 56.9217 37.2264 56.9803 37.0211 57.061C36.8157 57.1343 36.6177 57.226 36.4271 57.336V56.28C36.5811 56.1993 36.7681 56.1297 36.9881 56.071C37.2081 56.005 37.4501 55.9537 37.7141 55.917C37.9781 55.873 38.2494 55.851 38.5281 55.851C39.1881 55.851 39.7234 55.983 40.1341 56.247C40.5447 56.5037 40.8454 56.8703 41.0361 57.347C41.2267 57.8163 41.3221 58.3773 41.3221 59.03C41.3221 59.6827 41.2341 60.24 41.0581 60.702C40.8821 61.164 40.5961 61.516 40.2001 61.758C39.8114 62 39.2944 62.121 38.6491 62.121ZM43.8199 62L41.9719 55.972H43.1599L44.7109 61.01H44.8209C44.9749 61.01 45.1253 60.9697 45.2719 60.889C45.4259 60.8083 45.5543 60.7057 45.6569 60.581C45.8549 60.3537 46.0016 60.0677 46.0969 59.723C46.1923 59.3783 46.2399 59.0373 46.2399 58.7C46.2399 58.128 46.1153 57.6807 45.8659 57.358C45.6166 57.0353 45.2719 56.874 44.8319 56.874C44.7439 56.874 44.6596 56.8813 44.5789 56.896C44.4983 56.9033 44.4323 56.918 44.3809 56.94L44.1169 56.016C44.2783 55.972 44.4286 55.9427 44.5679 55.928C44.7073 55.9133 44.8283 55.906 44.9309 55.906C45.3049 55.906 45.6349 55.961 45.9209 56.071C46.2143 56.1737 46.4636 56.3277 46.6689 56.533C46.9256 56.7823 47.1163 57.094 47.2409 57.468C47.3656 57.842 47.4279 58.2563 47.4279 58.711C47.4279 59.2903 47.3363 59.8037 47.1529 60.251C46.9769 60.691 46.7569 61.043 46.4929 61.307C46.2729 61.5197 46.0053 61.6883 45.6899 61.813C45.3746 61.9377 44.9639 62 44.4579 62H43.8199ZM48.7796 62V59.987C48.7796 59.525 48.8786 59.184 49.0766 58.964C49.2746 58.744 49.5349 58.59 49.8576 58.502L49.8686 58.458L48.6696 58.007V57.666C48.6696 57.3507 48.7686 57.0537 48.9666 56.775C49.1719 56.4963 49.4652 56.2727 49.8466 56.104C50.2279 55.9353 50.6899 55.851 51.2326 55.851C51.7092 55.851 52.1419 55.928 52.5306 56.082C52.9192 56.2287 53.2272 56.4597 53.4546 56.775C53.6819 57.0903 53.7956 57.501 53.7956 58.007V62H52.6186V58.106C52.6186 57.6513 52.4866 57.325 52.2226 57.127C51.9586 56.9217 51.6212 56.819 51.2106 56.819C50.7926 56.819 50.4662 56.907 50.2316 57.083C49.9969 57.2517 49.8759 57.468 49.8686 57.732L51.0016 58.282L50.9026 58.865C50.6312 58.8723 50.4039 58.964 50.2206 59.14C50.0446 59.316 49.9566 59.5873 49.9566 59.954V62H48.7796ZM59.0142 62V58.018C59.0142 57.578 58.9079 57.2663 58.6952 57.083C58.4899 56.8923 58.1525 56.797 57.6832 56.797C57.3092 56.797 56.9499 56.8483 56.6052 56.951C56.2679 57.0537 55.9525 57.1893 55.6592 57.358V56.313C55.8719 56.203 56.1615 56.1003 56.5282 56.005C56.9022 55.9023 57.3275 55.851 57.8042 55.851C58.1855 55.851 58.5229 55.895 58.8162 55.983C59.1095 56.0637 59.3552 56.1883 59.5532 56.357C59.7585 56.5257 59.9125 56.7457 60.0152 57.017C60.1252 57.2883 60.1802 57.6147 60.1802 57.996V62H59.0142ZM57.1442 62.11C56.5062 62.11 56.0149 61.9633 55.6702 61.67C55.3329 61.3693 55.1642 60.9403 55.1642 60.383C55.1642 59.7817 55.3805 59.3123 55.8132 58.975C56.2532 58.6377 56.9609 58.4397 57.9362 58.381L59.2342 58.293V59.217L58.0792 59.305C57.4265 59.3563 56.9719 59.4663 56.7152 59.635C56.4659 59.8037 56.3412 60.042 56.3412 60.35C56.3412 60.6507 56.4365 60.8707 56.6272 61.01C56.8179 61.1493 57.0782 61.219 57.4082 61.219C57.5255 61.219 57.6319 61.2117 57.7272 61.197C57.8299 61.175 57.9252 61.153 58.0132 61.131L58.1562 61.956C58.0169 62.0073 57.8592 62.044 57.6832 62.066C57.5145 62.0953 57.3349 62.11 57.1442 62.11Z" fill="#5B3722"/>
</svg>
