<svg width="80" height="80" viewBox="0 0 80 80" fill="none" xmlns="http://www.w3.org/2000/svg">
<path d="M12.2006 12.2925H25.17C25.17 12.2925 25.4284 8.8162 27.1762 7.62652C29.3357 6.15857 39.0598 4.85597 45.8977 5.81578C53.4339 6.87238 55.1979 9.72762 54.5843 12.1029L67.9372 12.2965V24.4676L71.9657 26.4799L74.5854 34.3117L73.4511 52.79L67.9332 56.2784L67.9695 67.7437H54.9799L53.9021 72.4177L40.9852 74.5027L29.6143 72.8855L25.7634 70.9458L25.3315 67.4574L14.788 67.4211L11.4135 67.171L11.5871 55.1291L7.37694 52.3988L5.04785 41.0061L7.13071 27.4518L11.8373 24.0401L12.1885 12.3006L12.2006 12.2925Z" fill="#F8F3E8"/>
<path d="M73.5883 6.89259V21.0074C73.5883 21.1768 75.3281 21.9632 76.1758 23.0601C81.4112 29.8433 81.2659 50.6285 75.7721 57.2665C74.9648 58.2424 73.5883 58.7788 73.5883 58.9159V73.0308H59.6623C59.4483 73.0308 57.6682 75.6319 56.8367 76.257C49.2278 81.9635 27.9633 81.0843 21.1012 74.035C20.7661 73.6922 20.7661 73.0348 20.7096 73.0348H6.5817V59.5249C6.5817 59.1902 4.93883 58.3473 4.56343 57.9118C-1.61652 50.7293 -1.4712 29.1336 4.70471 21.9632C5.00745 21.6124 6.5817 20.7977 6.5817 20.4106V6.89259H20.1041C20.4392 6.89259 21.8116 4.75923 22.3484 4.29545C29.0289 -1.5118 50.3015 -1.2779 57.2403 4.07365C57.9831 4.64631 59.4766 6.89662 59.6623 6.89662H73.5883V6.89259ZM58.2495 8.10243C58.1687 7.01761 57.4341 6.15055 56.647 5.469C50.685 0.302967 26.3446 -0.370514 22.1547 6.94905C21.9085 7.38056 21.9811 8.10647 21.9206 8.10647H7.79267V21.818C7.79267 22.0156 5.63312 23.0279 4.78948 24.2619C0.490559 30.5773 0.24433 49.7735 4.96709 55.8913C5.54028 56.6333 7.79267 58.1255 7.79267 58.311V71.216L8.39815 71.8209H21.9206C22.0336 71.8209 22.2758 73.0993 22.9176 73.8535C28.1853 80.0116 52.8486 80.0559 57.7974 73.1679C58.1203 72.7202 58.1809 71.8209 58.2495 71.8209H71.9737V58.1094C71.9737 57.9964 73.2654 57.7988 74.0122 57.1173C79.9903 51.673 80.2365 27.226 73.3219 22.2657C72.8739 21.9431 71.9737 21.8826 71.9737 21.814V8.10243H58.2495Z" fill="#5B3722"/>
<path d="M58.2495 8.1025H71.9737V21.8141C71.9737 21.8867 72.8739 21.9431 73.3219 22.2658C80.2365 27.2261 79.9903 51.673 74.0122 57.1174C73.2654 57.7989 71.9737 57.9965 71.9737 58.1094V71.821H58.2495C58.1768 71.821 58.1203 72.7203 57.7974 73.168C52.8486 80.056 28.1853 80.0117 22.9176 73.8535C22.2758 73.1034 22.0336 71.821 21.9206 71.821H8.39816L7.79268 71.2161V58.3111C7.79268 58.1256 5.54029 56.6334 4.9671 55.8914C0.244342 49.7736 0.490571 30.5774 4.78949 24.262C5.62909 23.0239 7.79268 22.0117 7.79268 21.8181V8.1025H21.9206C21.9811 8.1025 21.9085 7.37659 22.1547 6.94508C26.3446 -0.370447 50.685 0.303034 56.647 5.46907C57.4341 6.15062 58.1688 7.01767 58.2495 8.1025ZM23.5352 10.1189H9.81095V23.4272H8.60403V23.8265H10.2186V10.5222H23.9429C23.5433 7.01364 26.5263 6.0135 29.2873 5.17468C30.1915 4.90044 33.1301 4.06968 33.8324 4.06968H45.9421C46.2731 4.06968 48.2671 5.23114 48.5658 4.06968C42.2042 3.19456 35.7619 2.83161 29.5093 4.58588C26.7766 5.35212 23.0185 6.56196 23.5392 10.1149L23.5352 10.1189ZM55.0202 11.732C55.2463 8.72759 53.9788 7.67502 51.3833 6.69505C45.712 4.55765 33.6992 4.4528 28.1086 6.82006C25.3597 7.98152 24.7906 8.50981 25.1539 11.732H11.4256V24.637C8.72109 25.0444 7.91781 25.4799 6.90868 27.9883C4.51904 33.9327 4.26878 47.124 7.18316 52.8668C8.4022 55.2703 9.56069 54.3186 11.4256 55.4841V68.1874H25.1498C24.391 72.0993 26.8048 72.7727 29.9896 73.6358C35.7902 75.2045 46.4143 75.3175 52.0009 73.0349C54.7942 71.8936 54.9758 71.3976 55.0202 68.1874H68.3408L68.353 55.3187C70.5892 54.8146 71.4167 54.9961 72.5994 52.8829C75.647 47.4386 75.5824 32.7672 72.8456 27.1818C71.453 24.3427 70.3551 25.7703 68.4054 23.9474L68.6436 12.3128L68.135 11.724H55.0162L55.0202 11.732ZM56.6349 10.1189L55.4279 7.29594L56.2312 10.5222H69.5518V23.2256L72.3734 24.2297V23.8345L70.3591 23.4272V10.7238L69.7536 10.1189H56.6349ZM5.36672 52.0602C4.07099 46.0432 3.34844 40.3247 4.20823 34.1626C4.53923 31.7872 5.508 29.4522 5.57258 27.0527C3.19102 33.1665 2.97708 40.0787 3.81265 46.5635L5.36672 52.0602ZM76.4139 45.406C76.7449 41.8047 76.1677 37.7679 76.4139 34.1142L75.6107 31.4928C76.2767 38.76 76.531 46.0916 73.9839 53.0603C74.4845 53.629 75.0254 51.54 75.09 51.3383C75.5784 49.7817 76.2686 46.9668 76.4139 45.402V45.406ZM70.3591 56.4963C71.6145 56.5891 73.883 55.2824 73.3865 54.0766C71.7558 56.5044 69.5518 55.0808 69.5518 58.3111V69.4013H56.2312L55.8316 72.2243H56.2272L56.6349 69.8046H69.7536L70.3591 69.1997V56.4963ZM10.2146 56.093C8.71705 56.1374 7.66351 55.3671 6.58575 54.4799C6.59383 56.0446 8.57981 56.4156 9.81095 56.4963V69.8046H23.5352C23.1114 72.4662 25.0449 73.5148 27.1721 74.4383C32.2662 76.6483 40.412 76.8862 45.8856 76.2087C47.8715 75.9627 49.8171 75.3537 51.787 75.0432C51.8839 74.3173 50.911 74.6762 50.4791 74.7448C48.6062 75.0432 46.7252 75.7288 44.7432 75.8699C39.754 76.2329 32.5044 76.0151 27.8705 74.1439C25.5414 73.2043 23.5554 72.3574 23.9389 69.4013H10.2146V56.093Z" fill="#F8F3E8"/>
<path d="M70.3591 56.4963V69.1997L69.7536 69.8046H56.6348L56.2271 72.2203H55.8315L56.2312 69.4013H69.5518V58.3111C69.5518 55.0808 71.7557 56.5044 73.3865 54.0766C73.8789 55.2784 71.6104 56.5891 70.3591 56.4963Z" fill="#5B3722"/>
<path d="M56.6347 10.1189H69.7534L70.3589 10.7239V23.4272L72.3731 23.8386V24.2298L69.5516 23.2256V10.5222H56.231L55.4277 7.29596L56.6347 10.1189Z" fill="#5B3722"/>
<path d="M10.2145 56.093V69.4013H23.9388C23.5553 72.3574 25.5413 73.2043 27.8704 74.1439C32.5043 76.0151 39.7499 76.2329 44.7431 75.8699C46.7291 75.7248 48.6102 75.0392 50.4791 74.7448C50.911 74.6762 51.8838 74.3173 51.7869 75.0432C49.8171 75.3537 47.8715 75.9627 45.8855 76.2087C40.4119 76.8862 32.2621 76.6483 27.1721 74.4383C25.0448 73.5148 23.1073 72.4662 23.5351 69.8046H9.81089V56.4963C8.57975 56.4156 6.59377 56.0446 6.58569 54.4799C7.66345 55.3671 8.71699 56.1374 10.2145 56.093Z" fill="#5B3722"/>
<path d="M23.5351 10.1188C23.0144 6.56189 26.7724 5.35205 29.5051 4.58984C35.7577 2.8396 42.2 3.20256 48.5616 4.07364C48.2629 5.23106 46.2729 4.07364 45.9379 4.07364H33.8283C33.1299 4.07364 30.1873 4.9044 29.2831 5.17864C26.5181 6.01746 23.5391 7.01357 23.9387 10.5262H10.2145V23.8344H8.59985V23.4352H9.80678V10.1188H23.531H23.5351Z" fill="#5B3722"/>
<path d="M5.36678 52.0601L3.81271 46.5634C2.98119 40.0827 3.19109 33.1704 5.57265 27.0526C5.50403 29.4481 4.53929 31.7831 4.2083 34.1625C3.34851 40.3246 4.07509 46.0432 5.36678 52.0601Z" fill="#5B3722"/>
<path d="M76.4139 45.406C76.2686 46.9707 75.5783 49.7816 75.0899 51.3423C75.0294 51.544 74.4844 53.633 73.9839 53.0643C76.5269 46.0956 76.2726 38.764 75.6106 31.4968L76.4139 34.1182C76.1677 37.7719 76.7449 41.8087 76.4139 45.41V45.406Z" fill="#5B3722"/>
<path d="M55.0202 11.7319H68.139L68.6476 12.3207L68.4095 23.9554C70.3591 25.7822 71.457 24.3546 72.8497 27.1897C75.5864 32.7711 75.651 47.4465 72.6034 52.8908C71.4207 55.004 70.5892 54.8225 68.357 55.3266L68.3449 68.1954H55.0243C54.9799 71.4055 54.7982 71.9015 52.0049 73.0428C46.4224 75.3254 35.7982 75.2124 29.9937 73.6437C26.8088 72.7807 24.395 72.1072 25.1538 68.1954H11.4256V55.492C9.56067 54.3265 8.40218 55.2782 7.18314 52.8747C4.26876 47.132 4.51903 33.9406 6.90866 27.9962C7.9178 25.4878 8.71703 25.0482 11.4256 24.645V11.7319H25.1498C24.7865 8.50967 25.3557 7.9854 28.1046 6.81992C33.6952 4.45266 45.712 4.56154 51.3793 6.6949C53.9748 7.67488 55.2422 8.72744 55.0162 11.7319H55.0202ZM25.3516 12.9417H12.6365V24.8385C11.4336 26.4194 9.74635 25.4798 8.50713 27.1655C5.31826 31.5169 5.63715 46.8537 7.8855 51.7657C9.2216 54.6854 10.7434 53.1892 12.6365 55.0847V66.9815H25.3516C26.3446 67.8485 25.9127 69.5988 26.4496 70.7239C27.6242 73.1839 39.1929 73.9623 41.9216 73.8574C43.8996 73.7808 53.1594 72.6234 53.7487 70.7522C53.9586 70.0827 53.5469 66.9815 54.8184 66.9815H67.5335V54.4797C70.5286 53.8224 71.0574 54.137 72.1715 51.2495C74.0485 46.3899 74.2746 38.5461 73.4794 33.4204C72.8577 29.4198 72.3249 25.6007 67.5335 25.4475V12.9458H54.8184C53.3451 12.0989 54.217 9.62676 53.5509 8.87262C52.2269 7.37242 44.1135 6.17467 41.9216 6.06982C39.0759 5.9327 28.0198 6.45697 26.5828 8.93312C26.0338 9.88083 26.1589 12.6836 25.3516 12.9458V12.9417Z" fill="#5B3722"/>
<path d="M39.566 13.1765V14.1177M39.566 31.0588V32M46.2273 15.9331L45.5611 16.5986M33.5708 28.5778L32.9047 29.2434M48.9864 22.5882H48.0444M31.0876 22.5882H30.1455M46.2272 29.2434L45.5611 28.5778M33.5708 16.5986L32.9047 15.9331M45.2183 22.5882C45.2183 25.707 42.6876 28.2353 39.566 28.2353C36.4443 28.2353 33.9137 25.707 33.9137 22.5882C33.9137 19.4695 36.4443 16.9412 39.566 16.9412C42.6876 16.9412 45.2183 19.4695 45.2183 22.5882Z" stroke="#5B3722" stroke-width="1.5" stroke-linecap="round"/>
<path d="M21.4622 46.121C21.1542 46.121 20.8572 46.088 20.5712 46.022C20.2852 45.956 19.9918 45.8424 19.6912 45.681L20.0432 44.801C20.2045 44.8964 20.3915 44.9807 20.6042 45.054C20.8168 45.12 21.0515 45.153 21.3082 45.153C21.8068 45.153 22.1992 44.966 22.4852 44.592C22.7712 44.218 22.9142 43.6754 22.9142 42.964C22.9142 42.2674 22.7675 41.7357 22.4742 41.369C22.1882 41.0024 21.7408 40.819 21.1322 40.819C20.8975 40.819 20.6555 40.8484 20.4062 40.907C20.1642 40.9584 19.9515 41.0354 19.7682 41.138V40.159C19.9882 40.049 20.2302 39.972 20.4942 39.928C20.7582 39.8767 21.0258 39.851 21.2972 39.851C21.9645 39.851 22.5035 39.9794 22.9142 40.236C23.3322 40.4927 23.6365 40.8557 23.8272 41.325C24.0252 41.787 24.1242 42.3334 24.1242 42.964C24.1242 43.954 23.8968 44.7277 23.4422 45.285C22.9948 45.8424 22.3348 46.121 21.4622 46.121ZM19.1821 39.048V38.542L20.0731 38.157H23.9671V39.048H19.1821ZM25.6207 46V42.227C25.6207 41.457 25.826 40.8704 26.2367 40.467C26.6474 40.0564 27.3 39.851 28.1947 39.851C28.6127 39.851 28.972 39.9024 29.2727 40.005C29.5734 40.1077 29.808 40.2837 29.9767 40.533C30.2627 40.665 30.4644 40.8814 30.5817 41.182C30.7064 41.4754 30.7687 41.8274 30.7687 42.238V46H29.5917V42.227C29.5917 41.765 29.4744 41.4167 29.2397 41.182C29.0124 40.94 28.664 40.819 28.1947 40.819C27.7254 40.819 27.3734 40.94 27.1387 41.182C26.904 41.4167 26.7867 41.765 26.7867 42.227V43.371L26.8197 43.382C26.9884 43.096 27.179 42.909 27.3917 42.821C27.6117 42.7257 27.9234 42.678 28.3267 42.678H28.6567V43.602H28.3267C27.9087 43.602 27.586 43.6644 27.3587 43.789C27.1387 43.9137 26.9884 44.0787 26.9077 44.284C26.827 44.482 26.7867 44.7057 26.7867 44.955V46H25.6207ZM29.9877 40.918L29.3387 40.335C29.5514 40.291 29.7384 40.2067 29.8997 40.082C30.061 39.9574 30.1417 39.7887 30.1417 39.576H31.2417C31.2417 39.8034 31.1904 40.0087 31.0877 40.192C30.985 40.3754 30.8384 40.5294 30.6477 40.654C30.4644 40.7714 30.2444 40.8594 29.9877 40.918ZM33.9446 46.121C33.6366 46.121 33.3396 46.088 33.0536 46.022C32.7676 45.956 32.4743 45.8424 32.1736 45.681L32.5256 44.801C32.6869 44.8964 32.8739 44.9807 33.0866 45.054C33.2993 45.12 33.5339 45.153 33.7906 45.153C34.2893 45.153 34.6816 44.966 34.9676 44.592C35.2536 44.218 35.3966 43.6754 35.3966 42.964C35.3966 42.2674 35.2499 41.7357 34.9566 41.369C34.6706 41.0024 34.2233 40.819 33.6146 40.819C33.3799 40.819 33.1379 40.8484 32.8886 40.907C32.6466 40.9584 32.4339 41.0354 32.2506 41.138V40.159C32.4706 40.049 32.7126 39.972 32.9766 39.928C33.2406 39.8767 33.5083 39.851 33.7796 39.851C34.4469 39.851 34.9859 39.9794 35.3966 40.236C35.8146 40.4927 36.1189 40.8557 36.3096 41.325C36.5076 41.787 36.6066 42.3334 36.6066 42.964C36.6066 43.954 36.3793 44.7277 35.9246 45.285C35.4773 45.8424 34.8173 46.121 33.9446 46.121ZM38.0481 46V43.987C38.0481 43.525 38.1471 43.184 38.3451 42.964C38.5431 42.744 38.8035 42.59 39.1261 42.502L39.1371 42.458L37.9381 42.007V41.666C37.9381 41.3507 38.0371 41.0537 38.2351 40.775C38.4405 40.4964 38.7338 40.2727 39.1151 40.104C39.4965 39.9354 39.9585 39.851 40.5011 39.851C40.9778 39.851 41.4105 39.928 41.7991 40.082C42.1878 40.2287 42.4958 40.4597 42.7231 40.775C42.9505 41.0904 43.0641 41.501 43.0641 42.007V46H41.8871V42.106C41.8871 41.6514 41.7551 41.325 41.4911 41.127C41.2271 40.9217 40.8898 40.819 40.4791 40.819C40.0611 40.819 39.7348 40.907 39.5001 41.083C39.2655 41.2517 39.1445 41.468 39.1371 41.732L40.2701 42.282L40.1711 42.865C39.8998 42.8724 39.6725 42.964 39.4891 43.14C39.3131 43.316 39.2251 43.5874 39.2251 43.954V46H38.0481ZM46.5888 46.121C46.1561 46.121 45.7418 46.077 45.3458 45.989C44.9571 45.901 44.6234 45.791 44.3448 45.659L44.6858 44.713C44.8398 44.779 45.0158 44.8487 45.2138 44.922C45.4118 44.988 45.6281 45.0467 45.8628 45.098C46.0974 45.142 46.3358 45.164 46.5778 45.164C46.9444 45.164 47.2378 45.1017 47.4578 44.977C47.6851 44.845 47.7988 44.6544 47.7988 44.405C47.7988 44.251 47.7511 44.119 47.6558 44.009C47.5604 43.8917 47.4174 43.789 47.2268 43.701C47.0361 43.6057 46.7978 43.5104 46.5118 43.415C46.0718 43.2684 45.6978 43.1144 45.3898 42.953C45.0818 42.7844 44.8471 42.5864 44.6858 42.359C44.5244 42.1244 44.4438 41.8347 44.4438 41.49C44.4438 41.1527 44.5318 40.863 44.7078 40.621C44.8911 40.379 45.1588 40.192 45.5108 40.06C45.8701 39.9207 46.3138 39.851 46.8418 39.851C47.2084 39.851 47.5494 39.884 47.8648 39.95C48.1874 40.0087 48.4368 40.093 48.6128 40.203V41.171C48.4881 41.1124 48.3304 41.0537 48.1398 40.995C47.9491 40.9364 47.7401 40.8887 47.5128 40.852C47.2928 40.8154 47.0691 40.797 46.8418 40.797C46.4018 40.797 46.0864 40.863 45.8958 40.995C45.7124 41.1197 45.6208 41.27 45.6208 41.446C45.6208 41.5927 45.6684 41.7174 45.7638 41.82C45.8591 41.9227 46.0168 42.0217 46.2368 42.117C46.4568 42.205 46.7428 42.3114 47.0948 42.436C47.4541 42.5607 47.7768 42.7 48.0628 42.854C48.3488 43.008 48.5724 43.2024 48.7338 43.437C48.8951 43.6717 48.9758 43.965 48.9758 44.317C48.9758 44.6324 48.8988 44.9294 48.7448 45.208C48.5981 45.4794 48.3488 45.6994 47.9968 45.868C47.6521 46.0367 47.1828 46.121 46.5888 46.121ZM52.0565 46.121C51.6239 46.121 51.2095 46.077 50.8135 45.989C50.4249 45.901 50.0912 45.791 49.8125 45.659L50.1535 44.713C50.3075 44.779 50.4835 44.8487 50.6815 44.922C50.8795 44.988 51.0959 45.0467 51.3305 45.098C51.5652 45.142 51.8035 45.164 52.0455 45.164C52.4122 45.164 52.7055 45.1017 52.9255 44.977C53.1529 44.845 53.2665 44.6544 53.2665 44.405C53.2665 44.251 53.2189 44.119 53.1235 44.009C53.0282 43.8917 52.8852 43.789 52.6945 43.701C52.5039 43.6057 52.2655 43.5104 51.9795 43.415C51.5395 43.2684 51.1655 43.1144 50.8575 42.953C50.5495 42.7844 50.3149 42.5864 50.1535 42.359C49.9922 42.1244 49.9115 41.8347 49.9115 41.49C49.9115 41.1527 49.9995 40.863 50.1755 40.621C50.3589 40.379 50.6265 40.192 50.9785 40.06C51.3379 39.9207 51.7815 39.851 52.3095 39.851C52.6762 39.851 53.0172 39.884 53.3325 39.95C53.6552 40.0087 53.9045 40.093 54.0805 40.203V41.171C53.9559 41.1124 53.7982 41.0537 53.6075 40.995C53.4169 40.9364 53.2079 40.8887 52.9805 40.852C52.7605 40.8154 52.5369 40.797 52.3095 40.797C51.8695 40.797 51.5542 40.863 51.3635 40.995C51.1802 41.1197 51.0885 41.27 51.0885 41.446C51.0885 41.5927 51.1362 41.7174 51.2315 41.82C51.3269 41.9227 51.4845 42.0217 51.7045 42.117C51.9245 42.205 52.2105 42.3114 52.5625 42.436C52.9219 42.5607 53.2445 42.7 53.5305 42.854C53.8165 43.008 54.0402 43.2024 54.2015 43.437C54.3629 43.6717 54.4435 43.965 54.4435 44.317C54.4435 44.6324 54.3665 44.9294 54.2125 45.208C54.0659 45.4794 53.8165 45.6994 53.4645 45.868C53.1199 46.0367 52.6505 46.121 52.0565 46.121ZM58.8113 46.11C58.3273 46.11 57.9166 46.0147 57.5793 45.824C57.2493 45.6334 57.022 45.373 56.8973 45.043H56.8313L56.7433 46H55.8083V39.972H56.9853V43.283C56.9853 43.6644 57.044 43.9907 57.1613 44.262C57.2786 44.5334 57.451 44.7424 57.6783 44.889C57.9056 45.0357 58.1806 45.109 58.5033 45.109C58.8993 45.109 59.1963 45.0027 59.3943 44.79C59.5923 44.57 59.6913 44.2474 59.6913 43.822V39.972H60.8683V43.976C60.8683 44.4527 60.7876 44.8487 60.6263 45.164C60.465 45.4794 60.2303 45.7177 59.9223 45.879C59.6143 46.033 59.244 46.11 58.8113 46.11Z" fill="#5B3722"/>
<path d="M22.9621 62.11C22.5295 62.11 22.1555 62.033 21.8401 61.879C21.5321 61.7177 21.2975 61.4794 21.1361 61.164C20.9748 60.8414 20.8941 60.4344 20.8941 59.943V55.972H22.0711V59.822C22.0711 60.2474 22.1738 60.57 22.3791 60.79C22.5845 61.0027 22.8815 61.109 23.2701 61.109C23.7468 61.109 24.1135 60.9477 24.3701 60.625C24.6341 60.3024 24.7661 59.855 24.7661 59.283V55.972H25.9431V62H25.0081L24.9201 61.098H24.8541C24.7221 61.3914 24.4948 61.6334 24.1721 61.824C23.8568 62.0147 23.4535 62.11 22.9621 62.11ZM21.1586 55.048V54.542L22.0496 54.157H25.9436V55.048H21.1586ZM29.0676 62.121C28.7596 62.121 28.4626 62.088 28.1766 62.022C27.8906 61.956 27.5973 61.8424 27.2966 61.681L27.6486 60.801C27.81 60.8964 27.997 60.9807 28.2096 61.054C28.4223 61.12 28.657 61.153 28.9136 61.153C29.4123 61.153 29.8046 60.966 30.0906 60.592C30.3766 60.218 30.5196 59.6754 30.5196 58.964C30.5196 58.2674 30.373 57.7357 30.0796 57.369C29.7936 57.0024 29.3463 56.819 28.7376 56.819C28.503 56.819 28.261 56.8484 28.0116 56.907C27.7696 56.9584 27.557 57.0354 27.3736 57.138V56.159C27.5936 56.049 27.8356 55.972 28.0996 55.928C28.3636 55.8767 28.6313 55.851 28.9026 55.851C29.57 55.851 30.109 55.9794 30.5196 56.236C30.9376 56.4927 31.242 56.8557 31.4326 57.325C31.6306 57.787 31.7296 58.3334 31.7296 58.964C31.7296 59.954 31.5023 60.7277 31.0476 61.285C30.6003 61.8424 29.9403 62.121 29.0676 62.121ZM34.6892 62.11C34.4472 62.11 34.2272 62.0734 34.0292 62C33.8385 61.9194 33.6845 61.791 33.5672 61.615C33.4498 61.4317 33.3912 61.186 33.3912 60.878V55.972H34.5682V60.735C34.5682 60.8964 34.6012 61.0137 34.6672 61.087C34.7405 61.153 34.8542 61.186 35.0082 61.186C35.0668 61.186 35.1328 61.1787 35.2062 61.164C35.2795 61.1494 35.3492 61.131 35.4152 61.109L35.5472 61.934C35.4078 62 35.2648 62.044 35.1182 62.066C34.9788 62.0954 34.8358 62.11 34.6892 62.11ZM36.5133 62V58.227C36.5133 57.457 36.7186 56.8704 37.1293 56.467C37.5399 56.0564 38.1926 55.851 39.0873 55.851C39.9893 55.851 40.6419 56.0564 41.0453 56.467C41.4559 56.8704 41.6613 57.457 41.6613 58.227V62H40.4843V58.227C40.4843 57.765 40.3669 57.4167 40.1323 57.182C39.8976 56.94 39.5456 56.819 39.0763 56.819C38.6069 56.819 38.2549 56.94 38.0203 57.182C37.7929 57.4167 37.6793 57.765 37.6793 58.227V59.371L37.7123 59.382C37.8663 59.096 38.0533 58.909 38.2733 58.821C38.5006 58.7257 38.8123 58.678 39.2083 58.678H39.5493V59.602H39.2083C38.7903 59.602 38.4713 59.6644 38.2513 59.789C38.0313 59.9137 37.8809 60.0787 37.8003 60.284C37.7196 60.482 37.6793 60.7057 37.6793 60.955V62H36.5133ZM46.8648 62V58.018C46.8648 57.578 46.7585 57.2664 46.5458 57.083C46.3405 56.8924 46.0031 56.797 45.5338 56.797C45.1598 56.797 44.8005 56.8484 44.4558 56.951C44.1185 57.0537 43.8031 57.1894 43.5098 57.358V56.313C43.7225 56.203 44.0121 56.1004 44.3788 56.005C44.7528 55.9024 45.1781 55.851 45.6548 55.851C46.0361 55.851 46.3735 55.895 46.6668 55.983C46.9601 56.0637 47.2058 56.1884 47.4038 56.357C47.6091 56.5257 47.7631 56.7457 47.8658 57.017C47.9758 57.2884 48.0308 57.6147 48.0308 57.996V62H46.8648ZM44.9948 62.11C44.3568 62.11 43.8655 61.9634 43.5208 61.67C43.1835 61.3694 43.0148 60.9404 43.0148 60.383C43.0148 59.7817 43.2311 59.3124 43.6638 58.975C44.1038 58.6377 44.8115 58.4397 45.7868 58.381L47.0848 58.293V59.217L45.9298 59.305C45.2771 59.3564 44.8225 59.4664 44.5658 59.635C44.3165 59.8037 44.1918 60.042 44.1918 60.35C44.1918 60.6507 44.2871 60.8707 44.4778 61.01C44.6685 61.1494 44.9288 61.219 45.2588 61.219C45.3761 61.219 45.4825 61.2117 45.5778 61.197C45.6805 61.175 45.7758 61.153 45.8638 61.131L46.0068 61.956C45.8675 62.0074 45.7098 62.044 45.5338 62.066C45.3651 62.0954 45.1855 62.11 44.9948 62.11ZM43.0835 55.048V54.542L43.9745 54.157H47.8685V55.048H43.0835ZM46.8125 54.553V53.31H47.8795V54.553H46.8125ZM52.1239 62.11C51.5079 62.11 51.0166 62.033 50.6499 61.879C50.2832 61.725 50.0156 61.5087 49.8469 61.23C49.6856 60.944 49.6049 60.614 49.6049 60.24C49.6049 59.9027 49.6526 59.635 49.7479 59.437C49.8506 59.2317 49.9789 59.0814 50.1329 58.986C50.2869 58.8907 50.4446 58.8247 50.6059 58.788V58.744C50.4519 58.6927 50.2942 58.6157 50.1329 58.513C49.9789 58.4104 49.8469 58.271 49.7369 58.095C49.6342 57.9117 49.5829 57.6807 49.5829 57.402C49.5829 57.1454 49.6416 56.9034 49.7589 56.676C49.8836 56.4414 50.0816 56.2507 50.3529 56.104C50.6242 55.9574 50.9799 55.884 51.4199 55.884C51.6106 55.884 51.8049 55.8987 52.0029 55.928C52.2009 55.9574 52.3549 56.0014 52.4649 56.06L52.2669 56.918C52.1936 56.896 52.0946 56.874 51.9699 56.852C51.8526 56.83 51.7279 56.819 51.5959 56.819C51.3172 56.819 51.1082 56.885 50.9689 57.017C50.8369 57.149 50.7709 57.3214 50.7709 57.534C50.7709 57.7687 50.8296 57.9484 50.9469 58.073C51.0642 58.1904 51.2146 58.271 51.3979 58.315C51.5886 58.359 51.7829 58.381 51.9809 58.381H52.2009V59.184H51.9809C51.5776 59.184 51.2806 59.2574 51.0899 59.404C50.8992 59.5434 50.8039 59.7817 50.8039 60.119C50.8039 60.3024 50.8406 60.4784 50.9139 60.647C50.9946 60.8084 51.1302 60.9367 51.3209 61.032C51.5116 61.1274 51.7829 61.175 52.1349 61.175C52.4796 61.175 52.7472 61.1274 52.9379 61.032C53.1286 60.9367 53.2642 60.801 53.3449 60.625C53.4329 60.449 53.4769 60.24 53.4769 59.998V55.972H54.6539V59.932C54.6539 60.6947 54.4486 61.2484 54.0379 61.593C53.6272 61.9377 52.9892 62.11 52.1239 62.11ZM58.1581 62.121C57.7254 62.121 57.3111 62.077 56.9151 61.989C56.5264 61.901 56.1928 61.791 55.9141 61.659L56.2551 60.713C56.4091 60.779 56.5851 60.8487 56.7831 60.922C56.9811 60.988 57.1974 61.0467 57.4321 61.098C57.6668 61.142 57.9051 61.164 58.1471 61.164C58.5138 61.164 58.8071 61.1017 59.0271 60.977C59.2544 60.845 59.3681 60.6544 59.3681 60.405C59.3681 60.251 59.3204 60.119 59.2251 60.009C59.1298 59.8917 58.9868 59.789 58.7961 59.701C58.6054 59.6057 58.3671 59.5104 58.0811 59.415C57.6411 59.2684 57.2671 59.1144 56.9591 58.953C56.6511 58.7844 56.4164 58.5864 56.2551 58.359C56.0938 58.1244 56.0131 57.8347 56.0131 57.49C56.0131 57.1527 56.1011 56.863 56.2771 56.621C56.4604 56.379 56.7281 56.192 57.0801 56.06C57.4394 55.9207 57.8831 55.851 58.4111 55.851C58.7778 55.851 59.1188 55.884 59.4341 55.95C59.7568 56.0087 60.0061 56.093 60.1821 56.203V57.171C60.0574 57.1124 59.8998 57.0537 59.7091 56.995C59.5184 56.9364 59.3094 56.8887 59.0821 56.852C58.8621 56.8154 58.6384 56.797 58.4111 56.797C57.9711 56.797 57.6558 56.863 57.4651 56.995C57.2818 57.1197 57.1901 57.27 57.1901 57.446C57.1901 57.5927 57.2378 57.7174 57.3331 57.82C57.4284 57.9227 57.5861 58.0217 57.8061 58.117C58.0261 58.205 58.3121 58.3114 58.6641 58.436C59.0234 58.5607 59.3461 58.7 59.6321 58.854C59.9181 59.008 60.1418 59.2024 60.3031 59.437C60.4644 59.6717 60.5451 59.965 60.5451 60.317C60.5451 60.6324 60.4681 60.9294 60.3141 61.208C60.1674 61.4794 59.9181 61.6994 59.5661 61.868C59.2214 62.0367 58.7521 62.121 58.1581 62.121ZM58.5558 55.345C58.5045 55.257 58.4641 55.147 58.4348 55.015C58.3981 54.8757 58.3798 54.7364 58.3798 54.597C58.3798 54.4284 58.4128 54.2707 58.4788 54.124C58.5448 53.9774 58.6695 53.86 58.8528 53.772C59.0288 53.684 59.2708 53.64 59.5788 53.64H61.1078V54.498H59.9198C59.7731 54.498 59.6595 54.5237 59.5788 54.575C59.4908 54.6264 59.4468 54.718 59.4468 54.85C59.4468 54.9014 59.4578 54.9564 59.4798 55.015C59.4945 55.0737 59.5165 55.1324 59.5458 55.191L58.5558 55.345Z" fill="#5B3722"/>
</svg>
