<svg width="80" height="80" viewBox="0 0 80 80" fill="none" xmlns="http://www.w3.org/2000/svg">
<path d="M12.2006 12.2925H25.17C25.17 12.2925 25.4284 8.8162 27.1762 7.62652C29.3357 6.15857 39.0598 4.85597 45.8977 5.81578C53.4339 6.87238 55.1979 9.72762 54.5843 12.1029L67.9372 12.2965V24.4676L71.9657 26.4799L74.5854 34.3117L73.4511 52.79L67.9332 56.2784L67.9695 67.7437H54.9799L53.9021 72.4177L40.9852 74.5027L29.6143 72.8855L25.7634 70.9458L25.3315 67.4574L14.788 67.4211L11.4135 67.171L11.5871 55.1291L7.37694 52.3988L5.04785 41.0061L7.13071 27.4518L11.8373 24.0401L12.1885 12.3006L12.2006 12.2925Z" fill="#F8F3E8"/>
<path d="M73.5883 6.89259V21.0074C73.5883 21.1768 75.3281 21.9632 76.1758 23.0601C81.4112 29.8433 81.2659 50.6285 75.7721 57.2665C74.9648 58.2424 73.5883 58.7788 73.5883 58.9159V73.0308H59.6623C59.4483 73.0308 57.6682 75.6319 56.8367 76.257C49.2278 81.9635 27.9633 81.0843 21.1012 74.035C20.7661 73.6922 20.7661 73.0348 20.7096 73.0348H6.5817V59.5249C6.5817 59.1902 4.93883 58.3473 4.56343 57.9118C-1.61652 50.7293 -1.4712 29.1336 4.70471 21.9632C5.00745 21.6124 6.5817 20.7977 6.5817 20.4106V6.89259H20.1041C20.4392 6.89259 21.8116 4.75923 22.3484 4.29545C29.0289 -1.5118 50.3015 -1.2779 57.2403 4.07365C57.9831 4.64631 59.4766 6.89662 59.6623 6.89662H73.5883V6.89259ZM58.2495 8.10243C58.1687 7.01761 57.4341 6.15055 56.647 5.469C50.685 0.302967 26.3446 -0.370514 22.1547 6.94905C21.9085 7.38056 21.9811 8.10647 21.9206 8.10647H7.79267V21.818C7.79267 22.0156 5.63312 23.0279 4.78948 24.2619C0.490559 30.5773 0.24433 49.7735 4.96709 55.8913C5.54028 56.6333 7.79267 58.1255 7.79267 58.311V71.216L8.39815 71.8209H21.9206C22.0336 71.8209 22.2758 73.0993 22.9176 73.8535C28.1853 80.0116 52.8486 80.0559 57.7974 73.1679C58.1203 72.7202 58.1809 71.8209 58.2495 71.8209H71.9737V58.1094C71.9737 57.9964 73.2654 57.7988 74.0122 57.1173C79.9903 51.673 80.2365 27.226 73.3219 22.2657C72.8739 21.9431 71.9737 21.8826 71.9737 21.814V8.10243H58.2495Z" fill="#5B3722"/>
<path d="M58.2495 8.1025H71.9737V21.8141C71.9737 21.8867 72.8739 21.9431 73.3219 22.2658C80.2365 27.2261 79.9903 51.673 74.0122 57.1174C73.2654 57.7989 71.9737 57.9965 71.9737 58.1094V71.821H58.2495C58.1768 71.821 58.1203 72.7203 57.7974 73.168C52.8486 80.056 28.1853 80.0117 22.9176 73.8535C22.2758 73.1034 22.0336 71.821 21.9206 71.821H8.39816L7.79268 71.2161V58.3111C7.79268 58.1256 5.54029 56.6334 4.9671 55.8914C0.244342 49.7736 0.490571 30.5774 4.78949 24.262C5.62909 23.0239 7.79268 22.0117 7.79268 21.8181V8.1025H21.9206C21.9811 8.1025 21.9085 7.37659 22.1547 6.94508C26.3446 -0.370447 50.685 0.303034 56.647 5.46907C57.4341 6.15062 58.1688 7.01767 58.2495 8.1025ZM23.5352 10.1189H9.81095V23.4272H8.60403V23.8265H10.2186V10.5222H23.9429C23.5433 7.01364 26.5263 6.0135 29.2873 5.17468C30.1915 4.90044 33.1301 4.06968 33.8324 4.06968H45.9421C46.2731 4.06968 48.2671 5.23114 48.5658 4.06968C42.2042 3.19456 35.7619 2.83161 29.5093 4.58588C26.7766 5.35212 23.0185 6.56196 23.5392 10.1149L23.5352 10.1189ZM55.0202 11.732C55.2463 8.72759 53.9788 7.67502 51.3833 6.69505C45.712 4.55765 33.6992 4.4528 28.1086 6.82006C25.3597 7.98152 24.7906 8.50981 25.1539 11.732H11.4256V24.637C8.72109 25.0444 7.91781 25.4799 6.90868 27.9883C4.51904 33.9327 4.26878 47.124 7.18316 52.8668C8.4022 55.2703 9.56069 54.3186 11.4256 55.4841V68.1874H25.1498C24.391 72.0993 26.8048 72.7727 29.9896 73.6358C35.7902 75.2045 46.4143 75.3175 52.0009 73.0349C54.7942 71.8936 54.9758 71.3976 55.0202 68.1874H68.3408L68.353 55.3187C70.5892 54.8146 71.4167 54.9961 72.5994 52.8829C75.647 47.4386 75.5824 32.7672 72.8456 27.1818C71.453 24.3427 70.3551 25.7703 68.4054 23.9474L68.6436 12.3128L68.135 11.724H55.0162L55.0202 11.732ZM56.6349 10.1189L55.4279 7.29594L56.2312 10.5222H69.5518V23.2256L72.3734 24.2297V23.8345L70.3591 23.4272V10.7238L69.7536 10.1189H56.6349ZM5.36672 52.0602C4.07099 46.0432 3.34844 40.3247 4.20823 34.1626C4.53923 31.7872 5.508 29.4522 5.57258 27.0527C3.19102 33.1665 2.97708 40.0787 3.81265 46.5635L5.36672 52.0602ZM76.4139 45.406C76.7449 41.8047 76.1677 37.7679 76.4139 34.1142L75.6107 31.4928C76.2767 38.76 76.531 46.0916 73.9839 53.0603C74.4845 53.629 75.0254 51.54 75.09 51.3383C75.5784 49.7817 76.2686 46.9668 76.4139 45.402V45.406ZM70.3591 56.4963C71.6145 56.5891 73.883 55.2824 73.3865 54.0766C71.7558 56.5044 69.5518 55.0808 69.5518 58.3111V69.4013H56.2312L55.8316 72.2243H56.2272L56.6349 69.8046H69.7536L70.3591 69.1997V56.4963ZM10.2146 56.093C8.71705 56.1374 7.66351 55.3671 6.58575 54.4799C6.59383 56.0446 8.57981 56.4156 9.81095 56.4963V69.8046H23.5352C23.1114 72.4662 25.0449 73.5148 27.1721 74.4383C32.2662 76.6483 40.412 76.8862 45.8856 76.2087C47.8715 75.9627 49.8171 75.3537 51.787 75.0432C51.8839 74.3173 50.911 74.6762 50.4791 74.7448C48.6062 75.0432 46.7252 75.7288 44.7432 75.8699C39.754 76.2329 32.5044 76.0151 27.8705 74.1439C25.5414 73.2043 23.5554 72.3574 23.9389 69.4013H10.2146V56.093Z" fill="#F8F3E8"/>
<path d="M70.3591 56.4963V69.1997L69.7536 69.8046H56.6348L56.2271 72.2202H55.8315L56.2312 69.4013H69.5518V58.3111C69.5518 55.0808 71.7557 56.5044 73.3865 54.0766C73.8789 55.2784 71.6104 56.589 70.3591 56.4963Z" fill="#5B3722"/>
<path d="M56.6347 10.1189H69.7534L70.3589 10.7239V23.4272L72.3731 23.8386V24.2298L69.5516 23.2256V10.5222H56.231L55.4277 7.29596L56.6347 10.1189Z" fill="#5B3722"/>
<path d="M10.2148 56.093V69.4013H23.939C23.5556 72.3574 25.5415 73.2043 27.8706 74.1439C32.5046 76.0152 39.7502 76.2329 44.7434 75.87C46.7294 75.7248 48.6104 75.0392 50.4793 74.7448C50.9112 74.6763 51.884 74.3173 51.7872 75.0433C49.8173 75.3538 47.8717 75.9627 45.8857 76.2087C40.4122 76.8862 32.2624 76.6483 27.1723 74.4383C25.0451 73.5148 23.1075 72.4663 23.5354 69.8046H9.81114V56.4963C8.57999 56.4157 6.59401 56.0447 6.58594 54.4799C7.66369 55.3671 8.71723 56.1374 10.2148 56.093Z" fill="#5B3722"/>
<path d="M23.5353 10.1188C23.0146 6.56189 26.7726 5.35205 29.5054 4.58984C35.758 2.8396 42.2003 3.20256 48.5619 4.07364C48.2632 5.23106 46.2732 4.07364 45.9381 4.07364H33.8285C33.1302 4.07364 30.1875 4.9044 29.2834 5.17864C26.5183 6.01746 23.5393 7.01357 23.939 10.5262H10.2147V23.8344H8.6001V23.4352H9.80702V10.1188H23.5313H23.5353Z" fill="#5B3722"/>
<path d="M5.36678 52.0601L3.81271 46.5634C2.98119 40.0827 3.19109 33.1704 5.57265 27.0526C5.50403 29.4481 4.53929 31.7831 4.2083 34.1625C3.34851 40.3246 4.07509 46.0432 5.36678 52.0601Z" fill="#5B3722"/>
<path d="M76.4139 45.406C76.2686 46.9707 75.5783 49.7816 75.0899 51.3423C75.0294 51.544 74.4844 53.633 73.9839 53.0643C76.5269 46.0956 76.2726 38.764 75.6106 31.4968L76.4139 34.1182C76.1677 37.7719 76.7449 41.8087 76.4139 45.41V45.406Z" fill="#5B3722"/>
<path d="M55.0205 11.7319H68.1392L68.6479 12.3207L68.4097 23.9554C70.3593 25.7822 71.4573 24.3546 72.8499 27.1897C75.5867 32.7711 75.6513 47.4465 72.6037 52.8908C71.421 55.004 70.5894 54.8225 68.3572 55.3266L68.3451 68.1954H55.0245C54.9801 71.4055 54.7985 71.9015 52.0052 73.0428C46.4226 75.3254 35.7985 75.2124 29.9939 73.6437C26.8091 72.7807 24.3952 72.1072 25.1541 68.1954H11.4258V55.492C9.56091 54.3265 8.40243 55.2782 7.18339 52.8747C4.269 47.132 4.51927 33.9406 6.9089 27.9962C7.91804 25.4878 8.71728 25.0482 11.4258 24.645V11.7319H25.15C24.7868 8.50967 25.3559 7.9854 28.1048 6.81992C33.6954 4.45266 45.7122 4.56154 51.3795 6.6949C53.975 7.67488 55.2425 8.72744 55.0164 11.7319H55.0205ZM25.3519 12.9417H12.6368V24.8385C11.4339 26.4194 9.74659 25.4798 8.50738 27.1655C5.31851 31.5169 5.63739 46.8537 7.88575 51.7657C9.22184 54.6854 10.7436 53.1892 12.6368 55.0847V66.9815H25.3519C26.3449 67.8485 25.913 69.5988 26.4498 70.7239C27.6245 73.1839 39.1932 73.9623 41.9219 73.8574C43.8998 73.7808 53.1596 72.6234 53.749 70.7522C53.9589 70.0827 53.5471 66.9815 54.8187 66.9815H67.5338V54.4797C70.5289 53.8224 71.0577 54.137 72.1718 51.2495C74.0488 46.3899 74.2748 38.5461 73.4796 33.4204C72.858 29.4198 72.3251 25.6007 67.5338 25.4475V12.9458H54.8187C53.3453 12.0989 54.2172 9.62676 53.5512 8.87262C52.2272 7.37242 44.1137 6.17467 41.9219 6.06982C39.0761 5.9327 28.02 6.45697 26.583 8.93312C26.0341 9.88083 26.1592 12.6836 25.3519 12.9458V12.9417Z" fill="#5B3722"/>
<g clip-path="url(#clip0_4895_96605)">
<mask id="path-11-inside-1_4895_96605" fill="white">
<path d="M48.0444 31.1454V25.8824C48.0444 25.6226 47.8334 25.4118 47.5734 25.4118C47.3134 25.4118 47.1023 25.6226 47.1023 25.8824V31.0588H32.0296V24H34.3847C34.6447 24 34.8557 23.7892 34.8557 23.5294C34.8557 23.2697 34.6447 23.0588 34.3847 23.0588H31.5586C31.2995 23.0588 31.0876 22.8471 31.0876 22.5882C31.0876 22.3294 31.2995 22.1177 31.5586 22.1177H34.3847C34.6447 22.1177 34.8557 21.9068 34.8557 21.6471C34.8557 21.3873 34.6447 21.1765 34.3847 21.1765H32.0296V14.1177H42.3921C42.6521 14.1177 42.8631 13.9068 42.8631 13.6471C42.8631 13.3873 42.6521 13.1765 42.3921 13.1765H31.5586C31.2995 13.1765 31.0876 12.9647 31.0876 12.7059C31.0876 12.4471 31.2995 12.2353 31.5586 12.2353H44.2762C44.5362 12.2353 44.7472 12.0245 44.7472 11.7647C44.7472 11.505 44.5362 11.2941 44.2762 11.2941H31.5586C30.7795 11.2941 30.1455 11.9275 30.1455 12.7059C30.1455 13.3186 30.5402 13.8362 31.0876 14.0311V21.2631C30.5402 21.4579 30.1455 21.9755 30.1455 22.5882C30.1455 23.201 30.5402 23.7186 31.0876 23.9134V31.1454C30.5402 31.3402 30.1455 31.8579 30.1455 32.4706C30.1455 33.249 30.7795 33.8824 31.5586 33.8824H47.5734C48.3524 33.8824 48.9864 33.249 48.9864 32.4706C48.9864 31.8579 48.5917 31.3402 48.0444 31.1454ZM47.5734 32.9412H31.5586C31.2995 32.9412 31.0876 32.7294 31.0876 32.4706C31.0876 32.2118 31.2995 32 31.5586 32H47.5734C47.8324 32 48.0444 32.2118 48.0444 32.4706C48.0444 32.7294 47.8324 32.9412 47.5734 32.9412ZM38.5919 19.5897L37.5679 20.5911C36.4657 21.6922 36.4657 23.4824 37.5679 24.5835C38.1011 25.1162 38.8114 25.4108 39.566 25.4108C40.3206 25.4108 41.0309 25.1172 41.5641 24.5835C42.6663 23.4824 42.6662 21.6922 41.5603 20.5873L40.5391 19.5887C39.9927 19.056 39.1383 19.056 38.5919 19.5887V19.5897ZM40.898 23.9191C40.1858 24.6306 38.9461 24.6306 38.2339 23.9191C37.5001 23.1859 37.5001 21.9906 38.2302 21.2612L39.2494 20.2635C39.3371 20.1779 39.452 20.1355 39.566 20.1355C39.68 20.1355 39.7939 20.1779 39.8806 20.2626L40.898 21.2574C41.6319 21.9906 41.6319 23.1859 40.898 23.9191ZM49.9285 15.5294V15.3158C49.9285 14.6551 49.417 14.1177 48.7886 14.1177H46.3581C45.7298 14.1177 45.2183 14.6551 45.2183 15.3158C45.2183 15.8494 45.5602 16.3238 46.0501 16.4697L49.3651 17.4513C50.2516 17.7139 50.8715 18.56 50.8715 19.5078C50.8715 20.688 49.9379 21.6471 48.7896 21.6471H48.0453V23.0588C48.0453 23.3186 47.8343 23.5294 47.5743 23.5294C47.3143 23.5294 47.1033 23.3186 47.1033 23.0588V21.6471H46.3591C45.2107 21.6471 44.2771 20.6871 44.2771 19.5078V19.2941C44.2771 19.0344 44.4882 18.8235 44.7482 18.8235C45.0082 18.8235 45.2192 19.0344 45.2192 19.2941V19.5078C45.2192 20.1685 45.7307 20.7059 46.3591 20.7059H48.7896C49.4179 20.7059 49.9294 20.1685 49.9294 19.5078C49.9294 18.9741 49.5875 18.4998 49.0976 18.3539L45.7825 17.3722C44.8961 17.1097 44.2762 16.2635 44.2762 15.3158C44.2762 14.1355 45.2098 13.1765 46.3581 13.1765H47.1023V11.7647C47.1023 11.505 47.3134 11.2941 47.5734 11.2941C47.8334 11.2941 48.0444 11.505 48.0444 11.7647V13.1765H48.7886C49.937 13.1765 50.8705 14.1365 50.8705 15.3158V15.5294C50.8705 15.7892 50.6595 16 50.3995 16C50.1395 16 49.9285 15.7892 49.9285 15.5294Z"/>
</mask>
<path d="M48.0444 31.1454V25.8824C48.0444 25.6226 47.8334 25.4118 47.5734 25.4118C47.3134 25.4118 47.1023 25.6226 47.1023 25.8824V31.0588H32.0296V24H34.3847C34.6447 24 34.8557 23.7892 34.8557 23.5294C34.8557 23.2697 34.6447 23.0588 34.3847 23.0588H31.5586C31.2995 23.0588 31.0876 22.8471 31.0876 22.5882C31.0876 22.3294 31.2995 22.1177 31.5586 22.1177H34.3847C34.6447 22.1177 34.8557 21.9068 34.8557 21.6471C34.8557 21.3873 34.6447 21.1765 34.3847 21.1765H32.0296V14.1177H42.3921C42.6521 14.1177 42.8631 13.9068 42.8631 13.6471C42.8631 13.3873 42.6521 13.1765 42.3921 13.1765H31.5586C31.2995 13.1765 31.0876 12.9647 31.0876 12.7059C31.0876 12.4471 31.2995 12.2353 31.5586 12.2353H44.2762C44.5362 12.2353 44.7472 12.0245 44.7472 11.7647C44.7472 11.505 44.5362 11.2941 44.2762 11.2941H31.5586C30.7795 11.2941 30.1455 11.9275 30.1455 12.7059C30.1455 13.3186 30.5402 13.8362 31.0876 14.0311V21.2631C30.5402 21.4579 30.1455 21.9755 30.1455 22.5882C30.1455 23.201 30.5402 23.7186 31.0876 23.9134V31.1454C30.5402 31.3402 30.1455 31.8579 30.1455 32.4706C30.1455 33.249 30.7795 33.8824 31.5586 33.8824H47.5734C48.3524 33.8824 48.9864 33.249 48.9864 32.4706C48.9864 31.8579 48.5917 31.3402 48.0444 31.1454ZM47.5734 32.9412H31.5586C31.2995 32.9412 31.0876 32.7294 31.0876 32.4706C31.0876 32.2118 31.2995 32 31.5586 32H47.5734C47.8324 32 48.0444 32.2118 48.0444 32.4706C48.0444 32.7294 47.8324 32.9412 47.5734 32.9412ZM38.5919 19.5897L37.5679 20.5911C36.4657 21.6922 36.4657 23.4824 37.5679 24.5835C38.1011 25.1162 38.8114 25.4108 39.566 25.4108C40.3206 25.4108 41.0309 25.1172 41.5641 24.5835C42.6663 23.4824 42.6662 21.6922 41.5603 20.5873L40.5391 19.5887C39.9927 19.056 39.1383 19.056 38.5919 19.5887V19.5897ZM40.898 23.9191C40.1858 24.6306 38.9461 24.6306 38.2339 23.9191C37.5001 23.1859 37.5001 21.9906 38.2302 21.2612L39.2494 20.2635C39.3371 20.1779 39.452 20.1355 39.566 20.1355C39.68 20.1355 39.7939 20.1779 39.8806 20.2626L40.898 21.2574C41.6319 21.9906 41.6319 23.1859 40.898 23.9191ZM49.9285 15.5294V15.3158C49.9285 14.6551 49.417 14.1177 48.7886 14.1177H46.3581C45.7298 14.1177 45.2183 14.6551 45.2183 15.3158C45.2183 15.8494 45.5602 16.3238 46.0501 16.4697L49.3651 17.4513C50.2516 17.7139 50.8715 18.56 50.8715 19.5078C50.8715 20.688 49.9379 21.6471 48.7896 21.6471H48.0453V23.0588C48.0453 23.3186 47.8343 23.5294 47.5743 23.5294C47.3143 23.5294 47.1033 23.3186 47.1033 23.0588V21.6471H46.3591C45.2107 21.6471 44.2771 20.6871 44.2771 19.5078V19.2941C44.2771 19.0344 44.4882 18.8235 44.7482 18.8235C45.0082 18.8235 45.2192 19.0344 45.2192 19.2941V19.5078C45.2192 20.1685 45.7307 20.7059 46.3591 20.7059H48.7896C49.4179 20.7059 49.9294 20.1685 49.9294 19.5078C49.9294 18.9741 49.5875 18.4998 49.0976 18.3539L45.7825 17.3722C44.8961 17.1097 44.2762 16.2635 44.2762 15.3158C44.2762 14.1355 45.2098 13.1765 46.3581 13.1765H47.1023V11.7647C47.1023 11.505 47.3134 11.2941 47.5734 11.2941C47.8334 11.2941 48.0444 11.505 48.0444 11.7647V13.1765H48.7886C49.937 13.1765 50.8705 14.1365 50.8705 15.3158V15.5294C50.8705 15.7892 50.6595 16 50.3995 16C50.1395 16 49.9285 15.7892 49.9285 15.5294Z" fill="#5B3722"/>
<path d="M48.0444 31.1454H47.0444V31.8509L47.7091 32.0875L48.0444 31.1454ZM47.1023 31.0588V32.0588H48.1023V31.0588H47.1023ZM32.0296 31.0588H31.0296V32.0588H32.0296V31.0588ZM32.0296 24V23H31.0296V24H32.0296ZM32.0296 21.1765H31.0296V22.1765H32.0296V21.1765ZM32.0296 14.1177V13.1177H31.0296V14.1177H32.0296ZM31.0876 14.0311H32.0876V13.3256L31.4229 13.089L31.0876 14.0311ZM31.0876 21.2631L31.4229 22.2052L32.0876 21.9686V21.2631H31.0876ZM31.0876 23.9134H32.0876V23.2079L31.4229 22.9713L31.0876 23.9134ZM31.0876 31.1454L31.4229 32.0875L32.0876 31.8509V31.1454H31.0876ZM38.5919 19.5897L39.2911 20.3046L39.5919 20.0104V19.5897H38.5919ZM37.5679 20.5911L36.8687 19.8761L36.8611 19.8836L37.5679 20.5911ZM41.5641 24.5835L40.8573 23.8761L40.8567 23.8767L41.5641 24.5835ZM41.5603 20.5873L42.2671 19.8798L42.2594 19.8723L41.5603 20.5873ZM40.5391 19.5887L41.2383 18.8737L41.2372 18.8727L40.5391 19.5887ZM38.5919 19.5887L37.8938 18.8727L37.5919 19.1671V19.5887H38.5919ZM38.2302 21.2612L37.5306 20.5465L37.5234 20.5538L38.2302 21.2612ZM39.2494 20.2635L38.5504 19.5485L38.55 19.5489L39.2494 20.2635ZM39.8806 20.2626L40.5797 19.5476L40.5796 19.5474L39.8806 20.2626ZM40.898 21.2574L41.6048 20.5499L41.5972 20.5424L40.898 21.2574ZM46.0501 16.4697L45.7647 17.4281L45.7662 17.4285L46.0501 16.4697ZM49.3651 17.4513L49.6492 16.4925L49.6491 16.4925L49.3651 17.4513ZM48.0453 21.6471V20.6471H47.0453V21.6471H48.0453ZM47.1033 21.6471H48.1033V20.6471H47.1033V21.6471ZM49.0976 18.3539L49.383 17.3955L49.3815 17.395L49.0976 18.3539ZM45.7825 17.3722L45.4985 18.3311L45.4986 18.3311L45.7825 17.3722ZM47.1023 13.1765V14.1765H48.1023V13.1765H47.1023ZM48.0444 13.1765H47.0444V14.1765H48.0444V13.1765ZM48.0444 31.1454H49.0444V25.8824H48.0444H47.0444V31.1454H48.0444ZM48.0444 25.8824H49.0444C49.0444 25.0694 48.3848 24.4118 47.5734 24.4118V25.4118V26.4118C47.282 26.4118 47.0444 26.1758 47.0444 25.8824H48.0444ZM47.5734 25.4118V24.4118C46.762 24.4118 46.1023 25.0694 46.1023 25.8824H47.1023H48.1023C48.1023 26.1758 47.8648 26.4118 47.5734 26.4118V25.4118ZM47.1023 25.8824H46.1023V31.0588H47.1023H48.1023V25.8824H47.1023ZM47.1023 31.0588V30.0588H32.0296V31.0588V32.0588H47.1023V31.0588ZM32.0296 31.0588H33.0296V24H32.0296H31.0296V31.0588H32.0296ZM32.0296 24V25H34.3847V24V23H32.0296V24ZM34.3847 24V25C35.1961 25 35.8557 24.3423 35.8557 23.5294H34.8557H33.8557C33.8557 23.236 34.0933 23 34.3847 23V24ZM34.8557 23.5294H35.8557C35.8557 22.7165 35.1961 22.0588 34.3847 22.0588V23.0588V24.0588C34.0933 24.0588 33.8557 23.8228 33.8557 23.5294H34.8557ZM34.3847 23.0588V22.0588H31.5586V23.0588V24.0588H34.3847V23.0588ZM31.5586 23.0588V22.0588C31.8509 22.0588 32.0876 22.2939 32.0876 22.5882H31.0876H30.0876C30.0876 23.4002 30.7481 24.0588 31.5586 24.0588V23.0588ZM31.0876 22.5882H32.0876C32.0876 22.8826 31.8509 23.1177 31.5586 23.1177V22.1177V21.1177C30.7481 21.1177 30.0876 21.7763 30.0876 22.5882H31.0876ZM31.5586 22.1177V23.1177H34.3847V22.1177V21.1177H31.5586V22.1177ZM34.3847 22.1177V23.1177C35.1961 23.1177 35.8557 22.46 35.8557 21.6471H34.8557H33.8557C33.8557 21.3537 34.0933 21.1177 34.3847 21.1177V22.1177ZM34.8557 21.6471H35.8557C35.8557 20.8341 35.1961 20.1765 34.3847 20.1765V21.1765V22.1765C34.0933 22.1765 33.8557 21.9405 33.8557 21.6471H34.8557ZM34.3847 21.1765V20.1765H32.0296V21.1765V22.1765H34.3847V21.1765ZM32.0296 21.1765H33.0296V14.1177H32.0296H31.0296V21.1765H32.0296ZM32.0296 14.1177V15.1177H42.3921V14.1177V13.1177H32.0296V14.1177ZM42.3921 14.1177V15.1177C43.2035 15.1177 43.8631 14.46 43.8631 13.6471H42.8631H41.8631C41.8631 13.3537 42.1007 13.1177 42.3921 13.1177V14.1177ZM42.8631 13.6471H43.8631C43.8631 12.8341 43.2035 12.1765 42.3921 12.1765V13.1765V14.1765C42.1007 14.1765 41.8631 13.9405 41.8631 13.6471H42.8631ZM42.3921 13.1765V12.1765H31.5586V13.1765V14.1765H42.3921V13.1765ZM31.5586 13.1765V12.1765C31.8509 12.1765 32.0876 12.4116 32.0876 12.7059H31.0876H30.0876C30.0876 13.5179 30.7481 14.1765 31.5586 14.1765V13.1765ZM31.0876 12.7059H32.0876C32.0876 13.0002 31.8509 13.2353 31.5586 13.2353V12.2353V11.2353C30.7481 11.2353 30.0876 11.8939 30.0876 12.7059H31.0876ZM31.5586 12.2353V13.2353H44.2762V12.2353V11.2353H31.5586V12.2353ZM44.2762 12.2353V13.2353C45.0876 13.2353 45.7472 12.5776 45.7472 11.7647H44.7472H43.7472C43.7472 11.4713 43.9848 11.2353 44.2762 11.2353V12.2353ZM44.7472 11.7647H45.7472C45.7472 10.9518 45.0876 10.2941 44.2762 10.2941V11.2941V12.2941C43.9848 12.2941 43.7472 12.0581 43.7472 11.7647H44.7472ZM44.2762 11.2941V10.2941H31.5586V11.2941V12.2941H44.2762V11.2941ZM31.5586 11.2941V10.2941C30.2281 10.2941 29.1455 11.3744 29.1455 12.7059H30.1455H31.1455C31.1455 12.4807 31.3309 12.2941 31.5586 12.2941V11.2941ZM30.1455 12.7059H29.1455C29.1455 13.7629 29.8268 14.6438 30.7522 14.9732L31.0876 14.0311L31.4229 13.089C31.2537 13.0287 31.1455 12.8743 31.1455 12.7059H30.1455ZM31.0876 14.0311H30.0876V21.2631H31.0876H32.0876V14.0311H31.0876ZM31.0876 21.2631L30.7522 20.321C29.8268 20.6504 29.1455 21.5313 29.1455 22.5882H30.1455H31.1455C31.1455 22.4198 31.2537 22.2654 31.4229 22.2052L31.0876 21.2631ZM30.1455 22.5882H29.1455C29.1455 23.6452 29.8268 24.5261 30.7522 24.8555L31.0876 23.9134L31.4229 22.9713C31.2537 22.9111 31.1455 22.7567 31.1455 22.5882H30.1455ZM31.0876 23.9134H30.0876V31.1454H31.0876H32.0876V23.9134H31.0876ZM31.0876 31.1454L30.7522 30.2033C29.8268 30.5327 29.1455 31.4136 29.1455 32.4706H30.1455H31.1455C31.1455 32.3021 31.2537 32.1478 31.4229 32.0875L31.0876 31.1454ZM30.1455 32.4706H29.1455C29.1455 33.8021 30.2281 34.8824 31.5586 34.8824V33.8824V32.8824C31.3309 32.8824 31.1455 32.6958 31.1455 32.4706H30.1455ZM31.5586 33.8824V34.8824H47.5734V33.8824V32.8824H31.5586V33.8824ZM47.5734 33.8824V34.8824C48.9039 34.8824 49.9864 33.8021 49.9864 32.4706H48.9864H47.9864C47.9864 32.6958 47.801 32.8824 47.5734 32.8824V33.8824ZM48.9864 32.4706H49.9864C49.9864 31.4136 49.3052 30.5327 48.3797 30.2033L48.0444 31.1454L47.7091 32.0875C47.8783 32.1478 47.9864 32.3021 47.9864 32.4706H48.9864ZM47.5734 32.9412V31.9412H31.5586V32.9412V33.9412H47.5734V32.9412ZM31.5586 32.9412V31.9412C31.8509 31.9412 32.0876 32.1763 32.0876 32.4706H31.0876H30.0876C30.0876 33.2826 30.7481 33.9412 31.5586 33.9412V32.9412ZM31.0876 32.4706H32.0876C32.0876 32.7649 31.8509 33 31.5586 33V32V31C30.7481 31 30.0876 31.6586 30.0876 32.4706H31.0876ZM31.5586 32V33H47.5734V32V31H31.5586V32ZM47.5734 32V33C47.281 33 47.0444 32.7649 47.0444 32.4706H48.0444H49.0444C49.0444 31.6586 48.3838 31 47.5734 31V32ZM48.0444 32.4706H47.0444C47.0444 32.1763 47.281 31.9412 47.5734 31.9412V32.9412V33.9412C48.3838 33.9412 49.0444 33.2826 49.0444 32.4706H48.0444ZM38.5919 19.5897L37.8927 18.8747L36.8687 19.8761L37.5679 20.5911L38.2671 21.306L39.2911 20.3046L38.5919 19.5897ZM37.5679 20.5911L36.8611 19.8836C35.368 21.3754 35.368 23.7992 36.8611 25.291L37.5679 24.5835L38.2747 23.8761C37.5634 23.1655 37.5634 22.0091 38.2747 21.2985L37.5679 20.5911ZM37.5679 24.5835L36.8611 25.291C37.5816 26.0108 38.546 26.4108 39.566 26.4108V25.4108V24.4108C39.0768 24.4108 38.6206 24.2217 38.2747 23.8761L37.5679 24.5835ZM39.566 25.4108V26.4108C40.5852 26.4108 41.5502 26.0122 42.2715 25.2903L41.5641 24.5835L40.8567 23.8767C40.5115 24.2222 40.0559 24.4108 39.566 24.4108V25.4108ZM41.5641 24.5835L42.2708 25.291C43.7649 23.7983 43.7631 21.3745 42.2671 19.8799L41.5603 20.5873L40.8535 21.2947C41.5694 22.0099 41.5676 23.1664 40.8573 23.8761L41.5641 24.5835ZM41.5603 20.5873L42.2594 19.8723L41.2383 18.8737L40.5391 19.5887L39.84 20.3037L40.8611 21.3023L41.5603 20.5873ZM40.5391 19.5887L41.2372 18.8727C40.3024 17.9613 38.8286 17.9613 37.8938 18.8727L38.5919 19.5887L39.29 20.3047C39.448 20.1507 39.683 20.1507 39.841 20.3047L40.5391 19.5887ZM38.5919 19.5887H37.5919V19.5897H38.5919H39.5919V19.5887H38.5919ZM40.898 23.9191L40.1912 23.2116C39.8695 23.5331 39.2624 23.5331 38.9407 23.2116L38.2339 23.9191L37.5271 24.6265C38.6298 25.7281 40.5022 25.7281 41.6048 24.6265L40.898 23.9191ZM38.2339 23.9191L38.9407 23.2116C38.5965 22.8678 38.5991 22.3061 38.9369 21.9686L38.2302 21.2612L37.5234 20.5538C36.401 21.6751 36.4036 23.504 37.5271 24.6265L38.2339 23.9191ZM38.2302 21.2612L38.9296 21.9758L39.9489 20.9782L39.2494 20.2635L38.55 19.5489L37.5307 20.5465L38.2302 21.2612ZM39.2494 20.2635L39.9485 20.9786C39.8381 21.0865 39.6972 21.1355 39.566 21.1355V20.1355V19.1355C39.2067 19.1355 38.836 19.2692 38.5504 19.5485L39.2494 20.2635ZM39.566 20.1355V21.1355C39.4341 21.1355 39.2926 21.0862 39.1817 20.9778L39.8806 20.2626L40.5796 19.5474C40.2953 19.2696 39.9258 19.1355 39.566 19.1355V20.1355ZM39.8806 20.2626L39.1815 20.9776L40.1989 21.9724L40.898 21.2574L41.5972 20.5424L40.5797 19.5476L39.8806 20.2626ZM40.898 21.2574L40.1912 21.9649C40.5341 22.3074 40.5341 22.8691 40.1912 23.2116L40.898 23.9191L41.6048 24.6265C42.7296 23.5027 42.7296 21.6738 41.6048 20.55L40.898 21.2574ZM49.9285 15.5294H50.9285V15.3158H49.9285H48.9285V15.5294H49.9285ZM49.9285 15.3158H50.9285C50.9285 14.1502 50.0155 13.1177 48.7886 13.1177V14.1177V15.1177C48.8092 15.1177 48.838 15.1249 48.8697 15.1583C48.9022 15.1924 48.9285 15.2463 48.9285 15.3158H49.9285ZM48.7886 14.1177V13.1177H46.3581V14.1177V15.1177H48.7886V14.1177ZM46.3581 14.1177V13.1177C45.1313 13.1177 44.2183 14.1502 44.2183 15.3158H45.2183H46.2183C46.2183 15.2463 46.2445 15.1924 46.277 15.1583C46.3087 15.1249 46.3376 15.1177 46.3581 15.1177V14.1177ZM45.2183 15.3158H44.2183C44.2183 16.2648 44.8255 17.1484 45.7647 17.4281L46.0501 16.4697L46.3355 15.5113C46.3161 15.5055 46.2879 15.4897 46.2617 15.4533C46.2353 15.4168 46.2183 15.3687 46.2183 15.3158H45.2183ZM46.0501 16.4697L45.7662 17.4285L49.0812 18.4101L49.3651 17.4513L49.6491 16.4925L46.334 15.5108L46.0501 16.4697ZM49.3651 17.4513L49.0811 18.4101C49.5284 18.5426 49.8715 18.9875 49.8715 19.5078H50.8715H51.8715C51.8715 18.1325 50.9749 16.8852 49.6492 16.4925L49.3651 17.4513ZM50.8715 19.5078H49.8715C49.8715 20.1615 49.3602 20.6471 48.7896 20.6471V21.6471V22.6471C50.5156 22.6471 51.8715 21.2146 51.8715 19.5078H50.8715ZM48.7896 21.6471V20.6471H48.0453V21.6471V22.6471H48.7896V21.6471ZM48.0453 21.6471H47.0453V23.0588H48.0453H49.0453V21.6471H48.0453ZM48.0453 23.0588H47.0453C47.0453 22.7654 47.2829 22.5294 47.5743 22.5294V23.5294V24.5294C48.3857 24.5294 49.0453 23.8718 49.0453 23.0588H48.0453ZM47.5743 23.5294V22.5294C47.8657 22.5294 48.1033 22.7654 48.1033 23.0588H47.1033H46.1033C46.1033 23.8718 46.7629 24.5294 47.5743 24.5294V23.5294ZM47.1033 23.0588H48.1033V21.6471H47.1033H46.1033V23.0588H47.1033ZM47.1033 21.6471V20.6471H46.3591V21.6471V22.6471H47.1033V21.6471ZM46.3591 21.6471V20.6471C45.7887 20.6471 45.2771 20.1608 45.2771 19.5078H44.2771H43.2771C43.2771 21.2133 44.6328 22.6471 46.3591 22.6471V21.6471ZM44.2771 19.5078H45.2771V19.2941H44.2771H43.2771V19.5078H44.2771ZM44.2771 19.2941H45.2771C45.2771 19.5875 45.0396 19.8235 44.7482 19.8235V18.8235V17.8235C43.9368 17.8235 43.2771 18.4812 43.2771 19.2941H44.2771ZM44.7482 18.8235V19.8235C44.4568 19.8235 44.2192 19.5875 44.2192 19.2941H45.2192H46.2192C46.2192 18.4812 45.5596 17.8235 44.7482 17.8235V18.8235ZM45.2192 19.2941H44.2192V19.5078H45.2192H46.2192V19.2941H45.2192ZM45.2192 19.5078H44.2192C44.2192 20.6734 45.1322 21.7059 46.3591 21.7059V20.7059V19.7059C46.3385 19.7059 46.3097 19.6986 46.278 19.6653C46.2455 19.6311 46.2192 19.5773 46.2192 19.5078H45.2192ZM46.3591 20.7059V21.7059H48.7896V20.7059V19.7059H46.3591V20.7059ZM48.7896 20.7059V21.7059C50.0164 21.7059 50.9294 20.6734 50.9294 19.5078H49.9294H48.9294C48.9294 19.5773 48.9031 19.6311 48.8707 19.6653C48.8389 19.6986 48.8101 19.7059 48.7896 19.7059V20.7059ZM49.9294 19.5078H50.9294C50.9294 18.5588 50.3222 17.6752 49.383 17.3955L49.0976 18.3539L48.8122 19.3123C48.8316 19.3181 48.8598 19.3338 48.886 19.3702C48.9124 19.4068 48.9294 19.4549 48.9294 19.5078H49.9294ZM49.0976 18.3539L49.3815 17.395L46.0665 16.4134L45.7825 17.3722L45.4986 18.3311L48.8137 19.3127L49.0976 18.3539ZM45.7825 17.3722L46.0666 16.4134C45.6193 16.2809 45.2762 15.836 45.2762 15.3158H44.2762H43.2762C43.2762 16.6911 44.1728 17.9384 45.4985 18.3311L45.7825 17.3722ZM44.2762 15.3158H45.2762C45.2762 14.6621 45.7874 14.1765 46.3581 14.1765V13.1765V12.1765C44.6321 12.1765 43.2762 13.609 43.2762 15.3158H44.2762ZM46.3581 13.1765V14.1765H47.1023V13.1765V12.1765H46.3581V13.1765ZM47.1023 13.1765H48.1023V11.7647H47.1023H46.1023V13.1765H47.1023ZM47.1023 11.7647H48.1023C48.1023 12.0581 47.8648 12.2941 47.5734 12.2941V11.2941V10.2941C46.762 10.2941 46.1023 10.9518 46.1023 11.7647H47.1023ZM47.5734 11.2941V12.2941C47.282 12.2941 47.0444 12.0581 47.0444 11.7647H48.0444H49.0444C49.0444 10.9518 48.3848 10.2941 47.5734 10.2941V11.2941ZM48.0444 11.7647H47.0444V13.1765H48.0444H49.0444V11.7647H48.0444ZM48.0444 13.1765V14.1765H48.7886V13.1765V12.1765H48.0444V13.1765ZM48.7886 13.1765V14.1765C49.359 14.1765 49.8705 14.6627 49.8705 15.3158H50.8705H51.8705C51.8705 13.6102 50.5149 12.1765 48.7886 12.1765V13.1765ZM50.8705 15.3158H49.8705V15.5294H50.8705H51.8705V15.3158H50.8705ZM50.8705 15.5294H49.8705C49.8705 15.236 50.1081 15 50.3995 15V16V17C51.2109 17 51.8705 16.3423 51.8705 15.5294H50.8705ZM50.3995 16V15C50.6909 15 50.9285 15.236 50.9285 15.5294H49.9285H48.9285C48.9285 16.3423 49.5881 17 50.3995 17V16Z" fill="#5B3722" mask="url(#path-11-inside-1_4895_96605)"/>
</g>
<path d="M21.4622 46.121C21.1542 46.121 20.8572 46.088 20.5712 46.022C20.2852 45.956 19.9918 45.8423 19.6912 45.681L20.0432 44.801C20.2045 44.8963 20.3915 44.9807 20.6042 45.054C20.8168 45.12 21.0515 45.153 21.3082 45.153C21.8068 45.153 22.1992 44.966 22.4852 44.592C22.7712 44.218 22.9142 43.6753 22.9142 42.964C22.9142 42.2673 22.7675 41.7357 22.4742 41.369C22.1882 41.0023 21.7408 40.819 21.1322 40.819C20.8975 40.819 20.6555 40.8483 20.4062 40.907C20.1642 40.9583 19.9515 41.0353 19.7682 41.138V40.159C19.9882 40.049 20.2302 39.972 20.4942 39.928C20.7582 39.8767 21.0258 39.851 21.2972 39.851C21.9645 39.851 22.5035 39.9793 22.9142 40.236C23.3322 40.4927 23.6365 40.8557 23.8272 41.325C24.0252 41.787 24.1242 42.3333 24.1242 42.964C24.1242 43.954 23.8968 44.7277 23.4422 45.285C22.9948 45.8423 22.3348 46.121 21.4622 46.121ZM19.1821 39.048V38.542L20.0731 38.157H23.9671V39.048H19.1821ZM25.6207 46V42.227C25.6207 41.457 25.826 40.8703 26.2367 40.467C26.6474 40.0563 27.3 39.851 28.1947 39.851C28.6127 39.851 28.972 39.9023 29.2727 40.005C29.5734 40.1077 29.808 40.2837 29.9767 40.533C30.2627 40.665 30.4644 40.8813 30.5817 41.182C30.7064 41.4753 30.7687 41.8273 30.7687 42.238V46H29.5917V42.227C29.5917 41.765 29.4744 41.4167 29.2397 41.182C29.0124 40.94 28.664 40.819 28.1947 40.819C27.7254 40.819 27.3734 40.94 27.1387 41.182C26.904 41.4167 26.7867 41.765 26.7867 42.227V43.371L26.8197 43.382C26.9884 43.096 27.179 42.909 27.3917 42.821C27.6117 42.7257 27.9234 42.678 28.3267 42.678H28.6567V43.602H28.3267C27.9087 43.602 27.586 43.6643 27.3587 43.789C27.1387 43.9137 26.9884 44.0787 26.9077 44.284C26.827 44.482 26.7867 44.7057 26.7867 44.955V46H25.6207ZM29.9877 40.918L29.3387 40.335C29.5514 40.291 29.7384 40.2067 29.8997 40.082C30.061 39.9573 30.1417 39.7887 30.1417 39.576H31.2417C31.2417 39.8033 31.1904 40.0087 31.0877 40.192C30.985 40.3753 30.8384 40.5293 30.6477 40.654C30.4644 40.7713 30.2444 40.8593 29.9877 40.918ZM33.9446 46.121C33.6366 46.121 33.3396 46.088 33.0536 46.022C32.7676 45.956 32.4743 45.8423 32.1736 45.681L32.5256 44.801C32.6869 44.8963 32.8739 44.9807 33.0866 45.054C33.2993 45.12 33.5339 45.153 33.7906 45.153C34.2893 45.153 34.6816 44.966 34.9676 44.592C35.2536 44.218 35.3966 43.6753 35.3966 42.964C35.3966 42.2673 35.2499 41.7357 34.9566 41.369C34.6706 41.0023 34.2233 40.819 33.6146 40.819C33.3799 40.819 33.1379 40.8483 32.8886 40.907C32.6466 40.9583 32.4339 41.0353 32.2506 41.138V40.159C32.4706 40.049 32.7126 39.972 32.9766 39.928C33.2406 39.8767 33.5083 39.851 33.7796 39.851C34.4469 39.851 34.9859 39.9793 35.3966 40.236C35.8146 40.4927 36.1189 40.8557 36.3096 41.325C36.5076 41.787 36.6066 42.3333 36.6066 42.964C36.6066 43.954 36.3793 44.7277 35.9246 45.285C35.4773 45.8423 34.8173 46.121 33.9446 46.121ZM38.0481 46V43.987C38.0481 43.525 38.1471 43.184 38.3451 42.964C38.5431 42.744 38.8035 42.59 39.1261 42.502L39.1371 42.458L37.9381 42.007V41.666C37.9381 41.3507 38.0371 41.0537 38.2351 40.775C38.4405 40.4963 38.7338 40.2727 39.1151 40.104C39.4965 39.9353 39.9585 39.851 40.5011 39.851C40.9778 39.851 41.4105 39.928 41.7991 40.082C42.1878 40.2287 42.4958 40.4597 42.7231 40.775C42.9505 41.0903 43.0641 41.501 43.0641 42.007V46H41.8871V42.106C41.8871 41.6513 41.7551 41.325 41.4911 41.127C41.2271 40.9217 40.8898 40.819 40.4791 40.819C40.0611 40.819 39.7348 40.907 39.5001 41.083C39.2655 41.2517 39.1445 41.468 39.1371 41.732L40.2701 42.282L40.1711 42.865C39.8998 42.8723 39.6725 42.964 39.4891 43.14C39.3131 43.316 39.2251 43.5873 39.2251 43.954V46H38.0481ZM46.5888 46.121C46.1561 46.121 45.7418 46.077 45.3458 45.989C44.9571 45.901 44.6234 45.791 44.3448 45.659L44.6858 44.713C44.8398 44.779 45.0158 44.8487 45.2138 44.922C45.4118 44.988 45.6281 45.0467 45.8628 45.098C46.0974 45.142 46.3358 45.164 46.5778 45.164C46.9444 45.164 47.2378 45.1017 47.4578 44.977C47.6851 44.845 47.7988 44.6543 47.7988 44.405C47.7988 44.251 47.7511 44.119 47.6558 44.009C47.5604 43.8917 47.4174 43.789 47.2268 43.701C47.0361 43.6057 46.7978 43.5103 46.5118 43.415C46.0718 43.2683 45.6978 43.1143 45.3898 42.953C45.0818 42.7843 44.8471 42.5863 44.6858 42.359C44.5244 42.1243 44.4438 41.8347 44.4438 41.49C44.4438 41.1527 44.5318 40.863 44.7078 40.621C44.8911 40.379 45.1588 40.192 45.5108 40.06C45.8701 39.9207 46.3138 39.851 46.8418 39.851C47.2084 39.851 47.5494 39.884 47.8648 39.95C48.1874 40.0087 48.4368 40.093 48.6128 40.203V41.171C48.4881 41.1123 48.3304 41.0537 48.1398 40.995C47.9491 40.9363 47.7401 40.8887 47.5128 40.852C47.2928 40.8153 47.0691 40.797 46.8418 40.797C46.4018 40.797 46.0864 40.863 45.8958 40.995C45.7124 41.1197 45.6208 41.27 45.6208 41.446C45.6208 41.5927 45.6684 41.7173 45.7638 41.82C45.8591 41.9227 46.0168 42.0217 46.2368 42.117C46.4568 42.205 46.7428 42.3113 47.0948 42.436C47.4541 42.5607 47.7768 42.7 48.0628 42.854C48.3488 43.008 48.5724 43.2023 48.7338 43.437C48.8951 43.6717 48.9758 43.965 48.9758 44.317C48.9758 44.6323 48.8988 44.9293 48.7448 45.208C48.5981 45.4793 48.3488 45.6993 47.9968 45.868C47.6521 46.0367 47.1828 46.121 46.5888 46.121ZM52.0565 46.121C51.6239 46.121 51.2095 46.077 50.8135 45.989C50.4249 45.901 50.0912 45.791 49.8125 45.659L50.1535 44.713C50.3075 44.779 50.4835 44.8487 50.6815 44.922C50.8795 44.988 51.0959 45.0467 51.3305 45.098C51.5652 45.142 51.8035 45.164 52.0455 45.164C52.4122 45.164 52.7055 45.1017 52.9255 44.977C53.1529 44.845 53.2665 44.6543 53.2665 44.405C53.2665 44.251 53.2189 44.119 53.1235 44.009C53.0282 43.8917 52.8852 43.789 52.6945 43.701C52.5039 43.6057 52.2655 43.5103 51.9795 43.415C51.5395 43.2683 51.1655 43.1143 50.8575 42.953C50.5495 42.7843 50.3149 42.5863 50.1535 42.359C49.9922 42.1243 49.9115 41.8347 49.9115 41.49C49.9115 41.1527 49.9995 40.863 50.1755 40.621C50.3589 40.379 50.6265 40.192 50.9785 40.06C51.3379 39.9207 51.7815 39.851 52.3095 39.851C52.6762 39.851 53.0172 39.884 53.3325 39.95C53.6552 40.0087 53.9045 40.093 54.0805 40.203V41.171C53.9559 41.1123 53.7982 41.0537 53.6075 40.995C53.4169 40.9363 53.2079 40.8887 52.9805 40.852C52.7605 40.8153 52.5369 40.797 52.3095 40.797C51.8695 40.797 51.5542 40.863 51.3635 40.995C51.1802 41.1197 51.0885 41.27 51.0885 41.446C51.0885 41.5927 51.1362 41.7173 51.2315 41.82C51.3269 41.9227 51.4845 42.0217 51.7045 42.117C51.9245 42.205 52.2105 42.3113 52.5625 42.436C52.9219 42.5607 53.2445 42.7 53.5305 42.854C53.8165 43.008 54.0402 43.2023 54.2015 43.437C54.3629 43.6717 54.4435 43.965 54.4435 44.317C54.4435 44.6323 54.3665 44.9293 54.2125 45.208C54.0659 45.4793 53.8165 45.6993 53.4645 45.868C53.1199 46.0367 52.6505 46.121 52.0565 46.121ZM58.8113 46.11C58.3273 46.11 57.9166 46.0147 57.5793 45.824C57.2493 45.6333 57.022 45.373 56.8973 45.043H56.8313L56.7433 46H55.8083V39.972H56.9853V43.283C56.9853 43.6643 57.044 43.9907 57.1613 44.262C57.2786 44.5333 57.451 44.7423 57.6783 44.889C57.9056 45.0357 58.1806 45.109 58.5033 45.109C58.8993 45.109 59.1963 45.0027 59.3943 44.79C59.5923 44.57 59.6913 44.2473 59.6913 43.822V39.972H60.8683V43.976C60.8683 44.4527 60.7876 44.8487 60.6263 45.164C60.465 45.4793 60.2303 45.7177 59.9223 45.879C59.6143 46.033 59.244 46.11 58.8113 46.11Z" fill="#5B3722"/>
<path d="M20.9475 62.121C20.0529 62.121 19.4112 61.9157 19.0225 61.505C18.6339 61.0943 18.4395 60.5077 18.4395 59.745V55.972H19.6165V59.778C19.6165 60.24 19.7229 60.5847 19.9355 60.812C20.1555 61.0393 20.4929 61.153 20.9475 61.153C21.4022 61.153 21.7395 61.0393 21.9595 60.812C22.1795 60.5847 22.2895 60.24 22.2895 59.778V53.805H23.4665V59.745C23.4665 60.5077 23.2685 61.0943 22.8725 61.505C22.4839 61.9157 21.8422 62.121 20.9475 62.121ZM17.8154 55.048V54.542L18.6404 54.157H21.6984V55.048H17.8154ZM25.5264 57.072V55.026C25.5264 54.586 25.4274 54.2707 25.2294 54.08C25.0387 53.8893 24.782 53.794 24.4594 53.794V53.299L25.3614 52.903H28.2544V53.794H26.1424L26.1314 53.838C26.3 53.948 26.4357 54.1167 26.5384 54.344C26.6484 54.564 26.7034 54.8537 26.7034 55.213V57.072H25.5264ZM26.8244 62.11C26.5897 62.11 26.3734 62.0733 26.1754 62C25.9774 61.9193 25.8197 61.791 25.7024 61.615C25.585 61.4317 25.5264 61.186 25.5264 60.878V55.972H26.7034V60.735C26.7034 60.8963 26.7364 61.0137 26.8024 61.087C26.8757 61.153 26.9894 61.186 27.1434 61.186C27.2094 61.186 27.2754 61.1787 27.3414 61.164C27.4147 61.1493 27.4844 61.131 27.5504 61.109L27.6934 61.934C27.554 62 27.411 62.044 27.2644 62.066C27.1177 62.0953 26.971 62.11 26.8244 62.11ZM30.7904 62.11C30.1671 62.11 29.6831 61.9707 29.3384 61.692C28.9937 61.4133 28.7517 61.032 28.6124 60.548C28.4804 60.064 28.4144 59.5067 28.4144 58.876C28.4144 58.1573 28.4804 57.578 28.6124 57.138C28.7517 56.698 28.9571 56.3753 29.2284 56.17C29.4997 55.9647 29.8297 55.862 30.2184 55.862C30.4751 55.862 30.6951 55.9097 30.8784 56.005C31.0617 56.093 31.1974 56.247 31.2854 56.467H31.3294C31.4101 56.2397 31.5494 56.082 31.7474 55.994C31.9527 55.906 32.1874 55.862 32.4514 55.862C32.9354 55.862 33.3057 55.9903 33.5624 56.247C33.8264 56.5037 33.9584 56.8923 33.9584 57.413V62H32.7814V57.512C32.7814 57.248 32.7264 57.0683 32.6164 56.973C32.5064 56.8777 32.3634 56.83 32.1874 56.83C31.9967 56.83 31.8574 56.8777 31.7694 56.973C31.6814 57.0683 31.6264 57.226 31.6044 57.446H30.9774C30.9481 57.204 30.8747 57.0427 30.7574 56.962C30.6474 56.874 30.5227 56.83 30.3834 56.83C30.1267 56.83 29.9287 56.9877 29.7894 57.303C29.6574 57.6183 29.5914 58.1463 29.5914 58.887C29.5914 59.3637 29.6281 59.7743 29.7014 60.119C29.7747 60.4563 29.9067 60.7167 30.0974 60.9C30.2954 61.076 30.5814 61.164 30.9554 61.164C31.0801 61.164 31.1864 61.1567 31.2744 61.142C31.3697 61.1273 31.4541 61.109 31.5274 61.087L31.6484 61.967C31.5384 62.0183 31.4064 62.055 31.2524 62.077C31.1057 62.099 30.9517 62.11 30.7904 62.11ZM37.4633 62.121C37.0306 62.121 36.6163 62.077 36.2203 61.989C35.8316 61.901 35.4979 61.791 35.2193 61.659L35.5603 60.713C35.7143 60.779 35.8903 60.8487 36.0883 60.922C36.2863 60.988 36.5026 61.0467 36.7373 61.098C36.9719 61.142 37.2103 61.164 37.4523 61.164C37.8189 61.164 38.1123 61.1017 38.3323 60.977C38.5596 60.845 38.6733 60.6543 38.6733 60.405C38.6733 60.251 38.6256 60.119 38.5303 60.009C38.4349 59.8917 38.2919 59.789 38.1013 59.701C37.9106 59.6057 37.6723 59.5103 37.3863 59.415C36.9463 59.2683 36.5723 59.1143 36.2643 58.953C35.9563 58.7843 35.7216 58.5863 35.5603 58.359C35.3989 58.1243 35.3183 57.8347 35.3183 57.49C35.3183 57.1527 35.4063 56.863 35.5823 56.621C35.7656 56.379 36.0333 56.192 36.3853 56.06C36.7446 55.9207 37.1883 55.851 37.7163 55.851C38.0829 55.851 38.4239 55.884 38.7393 55.95C39.0619 56.0087 39.3113 56.093 39.4873 56.203V57.171C39.3626 57.1123 39.2049 57.0537 39.0143 56.995C38.8236 56.9363 38.6146 56.8887 38.3873 56.852C38.1673 56.8153 37.9436 56.797 37.7163 56.797C37.2763 56.797 36.9609 56.863 36.7703 56.995C36.5869 57.1197 36.4953 57.27 36.4953 57.446C36.4953 57.5927 36.5429 57.7173 36.6383 57.82C36.7336 57.9227 36.8913 58.0217 37.1113 58.117C37.3313 58.205 37.6173 58.3113 37.9693 58.436C38.3286 58.5607 38.6513 58.7 38.9373 58.854C39.2233 59.008 39.4469 59.2023 39.6083 59.437C39.7696 59.6717 39.8503 59.965 39.8503 60.317C39.8503 60.6323 39.7733 60.9293 39.6193 61.208C39.4726 61.4793 39.2233 61.6993 38.8713 61.868C38.5266 62.0367 38.0573 62.121 37.4633 62.121ZM42.59 62.11C42.348 62.11 42.128 62.0733 41.93 62C41.7394 61.9193 41.5854 61.791 41.468 61.615C41.3507 61.4317 41.292 61.186 41.292 60.878V55.972H42.469V60.735C42.469 60.8963 42.502 61.0137 42.568 61.087C42.6414 61.153 42.755 61.186 42.909 61.186C42.9677 61.186 43.0337 61.1787 43.107 61.164C43.1804 61.1493 43.25 61.131 43.316 61.109L43.448 61.934C43.3087 62 43.1657 62.044 43.019 62.066C42.8797 62.0953 42.7367 62.11 42.59 62.11ZM47.9336 62V58.018C47.9336 57.578 47.8273 57.2663 47.6146 57.083C47.4093 56.8923 47.072 56.797 46.6026 56.797C46.2286 56.797 45.8693 56.8483 45.5246 56.951C45.1873 57.0537 44.872 57.1893 44.5786 57.358V56.313C44.7913 56.203 45.081 56.1003 45.4476 56.005C45.8216 55.9023 46.247 55.851 46.7236 55.851C47.105 55.851 47.4423 55.895 47.7356 55.983C48.029 56.0637 48.2746 56.1883 48.4726 56.357C48.678 56.5257 48.832 56.7457 48.9346 57.017C49.0446 57.2883 49.0996 57.6147 49.0996 57.996V62H47.9336ZM46.0636 62.11C45.4256 62.11 44.9343 61.9633 44.5896 61.67C44.2523 61.3693 44.0836 60.9403 44.0836 60.383C44.0836 59.7817 44.3 59.3123 44.7326 58.975C45.1726 58.6377 45.8803 58.4397 46.8556 58.381L48.1536 58.293V59.217L46.9986 59.305C46.346 59.3563 45.8913 59.4663 45.6346 59.635C45.3853 59.8037 45.2606 60.042 45.2606 60.35C45.2606 60.6507 45.356 60.8707 45.5466 61.01C45.7373 61.1493 45.9976 61.219 46.3276 61.219C46.445 61.219 46.5513 61.2117 46.6466 61.197C46.7493 61.175 46.8446 61.153 46.9326 61.131L47.0756 61.956C46.9363 62.0073 46.7786 62.044 46.6026 62.066C46.434 62.0953 46.2543 62.11 46.0636 62.11ZM44.1523 55.048V54.542L45.0433 54.157H48.9373V55.048H44.1523ZM47.8813 54.553V53.31H48.9483V54.553H47.8813ZM53.1928 62.11C52.5768 62.11 52.0854 62.033 51.7188 61.879C51.3521 61.725 51.0844 61.5087 50.9158 61.23C50.7544 60.944 50.6738 60.614 50.6738 60.24C50.6738 59.9027 50.7214 59.635 50.8168 59.437C50.9194 59.2317 51.0478 59.0813 51.2018 58.986C51.3558 58.8907 51.5134 58.8247 51.6748 58.788V58.744C51.5208 58.6927 51.3631 58.6157 51.2018 58.513C51.0478 58.4103 50.9158 58.271 50.8058 58.095C50.7031 57.9117 50.6518 57.6807 50.6518 57.402C50.6518 57.1453 50.7104 56.9033 50.8278 56.676C50.9524 56.4413 51.1504 56.2507 51.4218 56.104C51.6931 55.9573 52.0488 55.884 52.4888 55.884C52.6794 55.884 52.8738 55.8987 53.0718 55.928C53.2698 55.9573 53.4238 56.0013 53.5338 56.06L53.3358 56.918C53.2624 56.896 53.1634 56.874 53.0388 56.852C52.9214 56.83 52.7968 56.819 52.6648 56.819C52.3861 56.819 52.1771 56.885 52.0378 57.017C51.9058 57.149 51.8398 57.3213 51.8398 57.534C51.8398 57.7687 51.8984 57.9483 52.0158 58.073C52.1331 58.1903 52.2834 58.271 52.4668 58.315C52.6574 58.359 52.8518 58.381 53.0498 58.381H53.2698V59.184H53.0498C52.6464 59.184 52.3494 59.2573 52.1588 59.404C51.9681 59.5433 51.8728 59.7817 51.8728 60.119C51.8728 60.3023 51.9094 60.4783 51.9828 60.647C52.0634 60.8083 52.1991 60.9367 52.3898 61.032C52.5804 61.1273 52.8518 61.175 53.2038 61.175C53.5484 61.175 53.8161 61.1273 54.0068 61.032C54.1974 60.9367 54.3331 60.801 54.4138 60.625C54.5018 60.449 54.5458 60.24 54.5458 59.998V55.972H55.7228V59.932C55.7228 60.6947 55.5174 61.2483 55.1068 61.593C54.6961 61.9377 54.0581 62.11 53.1928 62.11ZM60.5139 62.11C60.0299 62.11 59.6193 62.0147 59.2819 61.824C58.9519 61.6333 58.7246 61.373 58.5999 61.043H58.5339L58.4459 62H57.5109V55.972H58.6879V59.283C58.6879 59.6643 58.7466 59.9907 58.8639 60.262C58.9813 60.5333 59.1536 60.7423 59.3809 60.889C59.6083 61.0357 59.8833 61.109 60.2059 61.109C60.6019 61.109 60.8989 61.0027 61.0969 60.79C61.2949 60.57 61.3939 60.2473 61.3939 59.822V55.972H62.5709V59.976C62.5709 60.4527 62.4903 60.8487 62.3289 61.164C62.1676 61.4793 61.9329 61.7177 61.6249 61.879C61.3169 62.033 60.9466 62.11 60.5139 62.11Z" fill="#5B3722"/>
<defs>
<clipPath id="clip0_4895_96605">
<rect width="22.6091" height="22.5882" fill="white" transform="translate(28.2612 11.2941)"/>
</clipPath>
</defs>
</svg>
