<svg width="80" height="80" viewBox="0 0 80 80" fill="none" xmlns="http://www.w3.org/2000/svg">
<path d="M12.2006 12.2925H25.17C25.17 12.2925 25.4284 8.81623 27.1762 7.62655C29.3357 6.1586 39.0598 4.85601 45.8977 5.81582C53.4339 6.87241 55.1979 9.72765 54.5843 12.103L67.9372 12.2966V24.4676L71.9657 26.48L74.5854 34.3117L73.4511 52.7901L67.9332 56.2784L67.9695 67.7437H54.9799L53.9021 72.4178L40.9852 74.5027L29.6143 72.8856L25.7634 70.9458L25.3315 67.4574L14.788 67.4211L11.4135 67.1711L11.5871 55.1291L7.37694 52.3989L5.04785 41.0062L7.13071 27.4519L11.8373 24.0401L12.1885 12.3006L12.2006 12.2925Z" fill="#F8F3E8"/>
<path d="M73.5883 6.89259V21.0074C73.5883 21.1768 75.3281 21.9632 76.1758 23.0601C81.4112 29.8433 81.2659 50.6285 75.7721 57.2665C74.9648 58.2424 73.5883 58.7788 73.5883 58.9159V73.0308H59.6623C59.4483 73.0308 57.6682 75.6319 56.8367 76.257C49.2278 81.9635 27.9633 81.0843 21.1012 74.0349C20.7661 73.6922 20.7661 73.0348 20.7096 73.0348H6.5817V59.5249C6.5817 59.1902 4.93883 58.3473 4.56343 57.9117C-1.61652 50.7293 -1.4712 29.1336 4.70471 21.9632C5.00745 21.6124 6.5817 20.7977 6.5817 20.4106V6.89259H20.1041C20.4392 6.89259 21.8116 4.75923 22.3484 4.29545C29.0289 -1.5118 50.3015 -1.2779 57.2403 4.07365C57.9831 4.64631 59.4766 6.89662 59.6623 6.89662H73.5883V6.89259ZM58.2495 8.10243C58.1687 7.01761 57.4341 6.15055 56.647 5.469C50.685 0.302967 26.3446 -0.370514 22.1547 6.94905C21.9085 7.38056 21.9811 8.10647 21.9206 8.10647H7.79267V21.818C7.79267 22.0156 5.63312 23.0279 4.78948 24.2619C0.490559 30.5773 0.24433 49.7735 4.96709 55.8913C5.54028 56.6333 7.79267 58.1255 7.79267 58.311V71.216L8.39815 71.8209H21.9206C22.0336 71.8209 22.2758 73.0993 22.9176 73.8535C28.1853 80.0116 52.8486 80.0559 57.7974 73.1679C58.1203 72.7202 58.1809 71.8209 58.2495 71.8209H71.9737V58.1094C71.9737 57.9964 73.2654 57.7988 74.0122 57.1173C79.9903 51.673 80.2365 27.226 73.3219 22.2657C72.8739 21.9431 71.9737 21.8826 71.9737 21.814V8.10243H58.2495Z" fill="#5B3722"/>
<path d="M58.2495 8.10247H71.9737V21.814C71.9737 21.8866 72.8739 21.9431 73.3219 22.2657C80.2365 27.2261 79.9903 51.673 74.0122 57.1173C73.2654 57.7989 71.9737 57.9965 71.9737 58.1094V71.821H58.2495C58.1768 71.821 58.1203 72.7203 57.7974 73.1679C52.8486 80.056 28.1853 80.0116 22.9176 73.8535C22.2758 73.1034 22.0336 71.821 21.9206 71.821H8.39816L7.79268 71.216V58.311C7.79268 58.1255 5.54029 56.6334 4.9671 55.8913C0.244342 49.7736 0.490571 30.5774 4.78949 24.262C5.62909 23.0239 7.79268 22.0117 7.79268 21.8181V8.10247H21.9206C21.9811 8.10247 21.9085 7.37656 22.1547 6.94505C26.3446 -0.370477 50.685 0.303003 56.647 5.46904C57.4341 6.15059 58.1688 7.01764 58.2495 8.10247ZM23.5352 10.1189H9.81095V23.4272H8.60403V23.8264H10.2186V10.5222H23.9429C23.5433 7.01361 26.5263 6.01347 29.2873 5.17465C30.1915 4.90041 33.1301 4.06965 33.8324 4.06965H45.9421C46.2731 4.06965 48.2671 5.2311 48.5658 4.06965C42.2042 3.19453 35.7619 2.83158 29.5093 4.58585C26.7766 5.35209 23.0185 6.56193 23.5392 10.1148L23.5352 10.1189ZM55.0202 11.732C55.2463 8.72756 53.9788 7.67499 51.3833 6.69502C45.712 4.55762 33.6992 4.45277 28.1086 6.82003C25.3597 7.98149 24.7906 8.50978 25.1539 11.732H11.4256V24.637C8.72108 25.0443 7.91781 25.4799 6.90868 27.9883C4.51904 33.9327 4.26878 47.124 7.18316 52.8667C8.4022 55.2703 9.56069 54.3185 11.4256 55.484V68.1874H25.1498C24.391 72.0992 26.8048 72.7727 29.9896 73.6357C35.7902 75.2045 46.4143 75.3174 52.0009 73.0348C54.7942 71.8936 54.9758 71.3975 55.0202 68.1874H68.3408L68.353 55.3187C70.5892 54.8146 71.4167 54.9961 72.5994 52.8829C75.647 47.4386 75.5824 32.7672 72.8456 27.1817C71.453 24.3426 70.3551 25.7702 68.4054 23.9474L68.6436 12.3127L68.135 11.7239H55.0162L55.0202 11.732ZM56.6349 10.1189L55.4279 7.29591L56.2312 10.5222H69.5518V23.2255L72.3734 24.2297V23.8345L70.3591 23.4272V10.7238L69.7536 10.1189H56.6349ZM5.36672 52.0602C4.07099 46.0432 3.34844 40.3247 4.20823 34.1625C4.53923 31.7872 5.508 29.4522 5.57258 27.0527C3.19102 33.1664 2.97708 40.0787 3.81265 46.5634L5.36672 52.0602ZM76.4139 45.406C76.7449 41.8047 76.1677 37.7679 76.4139 34.1141L75.6107 31.4928C76.2767 38.7599 76.531 46.0916 73.9839 53.0603C74.4845 53.6289 75.0254 51.5399 75.0899 51.3383C75.5784 49.7816 76.2686 46.9667 76.4139 45.402V45.406ZM70.3591 56.4963C71.6145 56.589 73.883 55.2824 73.3865 54.0766C71.7558 56.5043 69.5518 55.0807 69.5518 58.311V69.4013H56.2312L55.8316 72.2242H56.2272L56.6349 69.8046H69.7536L70.3591 69.1996V56.4963ZM10.2146 56.093C8.71705 56.1373 7.66351 55.3671 6.58575 54.4799C6.59383 56.0446 8.57981 56.4156 9.81095 56.4963V69.8046H23.5352C23.1114 72.4662 25.0449 73.5148 27.1721 74.4383C32.2662 76.6483 40.412 76.8862 45.8856 76.2087C47.8715 75.9627 49.8171 75.3537 51.787 75.0432C51.8839 74.3173 50.911 74.6762 50.4791 74.7448C48.6062 75.0432 46.7252 75.7288 44.7432 75.8699C39.754 76.2329 32.5044 76.0151 27.8705 74.1439C25.5414 73.2042 23.5554 72.3573 23.9389 69.4013H10.2146V56.093Z" fill="#F8F3E8"/>
<path d="M70.3592 56.4963V69.1997L69.7537 69.8046H56.6349L56.2272 72.2203H55.8317L56.2313 69.4014H69.5519V58.3111C69.5519 55.0808 71.7558 56.5044 73.3866 54.0767C73.8791 55.2784 71.6105 56.5891 70.3592 56.4963Z" fill="#5B3722"/>
<path d="M56.6349 10.1189H69.7537L70.3592 10.7238V23.4272L72.3734 23.8385V24.2297L69.5518 23.2255V10.5222H56.2312L55.428 7.2959L56.6349 10.1189Z" fill="#5B3722"/>
<path d="M10.2145 56.093V69.4013H23.9388C23.5553 72.3573 25.5413 73.2042 27.8704 74.1439C32.5043 76.0151 39.7499 76.2329 44.7431 75.8699C46.7291 75.7247 48.6102 75.0392 50.4791 74.7448C50.911 74.6762 51.8838 74.3173 51.7869 75.0432C49.8171 75.3537 47.8715 75.9627 45.8855 76.2087C40.4119 76.8862 32.2621 76.6483 27.1721 74.4383C25.0448 73.5148 23.1073 72.4662 23.5351 69.8046H9.81089V56.4963C8.57975 56.4156 6.59377 56.0446 6.58569 54.4799C7.66345 55.3671 8.71699 56.1373 10.2145 56.093Z" fill="#5B3722"/>
<path d="M23.5352 10.1188C23.0145 6.56189 26.7725 5.35205 29.5052 4.58984C35.7578 2.8396 42.2002 3.20256 48.5618 4.07364C48.2631 5.23106 46.273 4.07364 45.938 4.07364H33.8284C33.1301 4.07364 30.1874 4.9044 29.2832 5.17864C26.5182 6.01746 23.5392 7.01357 23.9388 10.5262H10.2146V23.8344H8.59998V23.4352H9.8069V10.1188H23.5312H23.5352Z" fill="#5B3722"/>
<path d="M5.36666 52.0601L3.81259 46.5634C2.98106 40.0826 3.19096 33.1704 5.57253 27.0526C5.5039 29.4481 4.53917 31.7831 4.20817 34.1625C3.34839 40.3246 4.07497 46.0431 5.36666 52.0601Z" fill="#5B3722"/>
<path d="M76.4139 45.406C76.2686 46.9707 75.5783 49.7816 75.0899 51.3423C75.0294 51.544 74.4844 53.633 73.9839 53.0643C76.5269 46.0956 76.2726 38.764 75.6106 31.4968L76.4139 34.1182C76.1677 37.7719 76.7449 41.8087 76.4139 45.41V45.406Z" fill="#5B3722"/>
<path d="M55.0202 11.7319H68.139L68.6476 12.3207L68.4095 23.9554C70.3591 25.7823 71.457 24.3546 72.8497 27.1897C75.5864 32.7711 75.651 47.4465 72.6034 52.8908C71.4207 55.004 70.5892 54.8226 68.357 55.3267L68.3449 68.1954H55.0243C54.9799 71.4055 54.7982 71.9015 52.0049 73.0428C46.4224 75.3254 35.7982 75.2125 29.9937 73.6437C26.8088 72.7807 24.395 72.1072 25.1538 68.1954H11.4256V55.492C9.56067 54.3265 8.40218 55.2783 7.18314 52.8747C4.26876 47.132 4.51903 33.9406 6.90866 27.9963C7.9178 25.4879 8.71703 25.0483 11.4256 24.645V11.7319H25.1498C24.7865 8.5097 25.3557 7.98543 28.1046 6.81995C33.6952 4.45269 45.712 4.56157 51.3793 6.69493C53.9748 7.67491 55.2422 8.72747 55.0162 11.7319H55.0202ZM25.3516 12.9418H12.6365V24.8386C11.4336 26.4194 9.74635 25.4798 8.50713 27.1655C5.31826 31.5169 5.63715 46.8537 7.8855 51.7657C9.2216 54.6854 10.7434 53.1893 12.6365 55.0847V66.9815H25.3516C26.3446 67.8486 25.9127 69.5988 26.4496 70.724C27.6242 73.184 39.1929 73.9623 41.9216 73.8575C43.8996 73.7808 53.1594 72.6234 53.7487 70.7522C53.9586 70.0827 53.5469 66.9815 54.8184 66.9815H67.5335V54.4798C70.5286 53.8224 71.0574 54.137 72.1715 51.2495C74.0485 46.3899 74.2746 38.5461 73.4794 33.4204C72.8577 29.4199 72.3249 25.6008 67.5335 25.4475V12.9458H54.8184C53.3451 12.0989 54.217 9.62679 53.5509 8.87265C52.2269 7.37245 44.1135 6.1747 41.9216 6.06985C39.0759 5.93273 28.0198 6.457 26.5828 8.93315C26.0338 9.88086 26.1589 12.6837 25.3516 12.9458V12.9418Z" fill="#5B3722"/>
<g clip-path="url(#clip0_30_4862)">
<path d="M48.4867 22.6661L48.1322 22.9845C48.2996 22.7387 48.4206 22.4599 48.4867 22.1603V22.6661ZM43.8344 22.1642C43.9005 22.462 44.0215 22.739 44.1879 22.9835L43.8344 22.6652V22.1642ZM43.8861 20.9279C43.8682 20.9844 43.8549 21.0425 43.8412 21.1007L43.809 21.0538L43.8861 20.9279ZM47.0775 19.3263L47.1996 19.506C47.0395 19.4281 46.8703 19.3669 46.6927 19.3263H47.0775ZM46.2426 18.3282C46.2458 18.3286 46.2487 18.329 46.2504 18.3292C46.2491 18.329 46.2453 18.3287 46.2416 18.3282L46.2406 18.3273L46.2426 18.3282ZM39.7484 15.1085C39.9444 15.2734 40.1739 15.3988 40.4252 15.4747L39.9945 15.462C39.9792 15.4401 39.9597 15.4118 39.9369 15.379C39.8857 15.3055 39.8182 15.2091 39.7484 15.1085ZM39.1429 14.1818L39.097 14.1075L39.1185 14.0861C39.1261 14.1182 39.1337 14.1502 39.1429 14.1818ZM43.0248 13.3878L42.8842 13.7872C42.8876 13.7406 42.892 13.6932 42.892 13.6456C42.8919 13.4389 42.8581 13.2403 42.7972 13.0538L43.0248 13.3878Z" fill="black" stroke="#5B3722"/>
</g>
<path d="M21.1864 38.146C21.8611 38.146 22.4147 38.2303 22.8474 38.399C23.2801 38.5677 23.6027 38.8207 23.8154 39.158C24.0281 39.488 24.1344 39.906 24.1344 40.412C24.1344 40.8153 24.0574 41.1563 23.9034 41.435C23.7567 41.7063 23.5661 41.93 23.3314 42.106C23.0967 42.2747 22.8511 42.4103 22.5944 42.513L24.7944 46H23.4304L21.5384 42.821H20.1744V46H18.9864V38.146H21.1864ZM21.1094 39.158H20.1744V41.831H21.1644C21.5677 41.831 21.8977 41.7797 22.1544 41.677C22.4184 41.5743 22.6091 41.4203 22.7264 41.215C22.8511 41.0097 22.9134 40.7567 22.9134 40.456C22.9134 40.1407 22.8474 39.8913 22.7154 39.708C22.5907 39.5173 22.3927 39.378 22.1214 39.29C21.8574 39.202 21.5201 39.158 21.1094 39.158ZM31.0403 43.03C31.0403 43.5213 30.9743 43.9577 30.8423 44.339C30.7103 44.7203 30.5233 45.043 30.2813 45.307C30.0393 45.571 29.746 45.7727 29.4013 45.912C29.0567 46.044 28.668 46.11 28.2353 46.11C27.8393 46.11 27.4727 46.044 27.1353 45.912C26.798 45.7727 26.5047 45.571 26.2553 45.307C26.0133 45.043 25.8227 44.7203 25.6833 44.339C25.544 43.9577 25.4743 43.5177 25.4743 43.019C25.4743 42.3663 25.5843 41.8127 25.8043 41.358C26.0317 40.9033 26.3543 40.5587 26.7723 40.324C27.1977 40.082 27.6963 39.961 28.2683 39.961C28.811 39.961 29.2877 40.082 29.6983 40.324C30.1163 40.5587 30.4427 40.9033 30.6773 41.358C30.9193 41.8127 31.0403 42.37 31.0403 43.03ZM26.6733 43.03C26.6733 43.47 26.7283 43.8513 26.8383 44.174C26.9483 44.4893 27.1207 44.7313 27.3553 44.9C27.59 45.0687 27.8907 45.153 28.2573 45.153C28.624 45.153 28.9247 45.0687 29.1593 44.9C29.394 44.7313 29.5663 44.4893 29.6763 44.174C29.7863 43.8513 29.8413 43.47 29.8413 43.03C29.8413 42.5753 29.7827 42.194 29.6653 41.886C29.5553 41.578 29.383 41.3433 29.1483 41.182C28.921 41.0133 28.6203 40.929 28.2463 40.929C27.6963 40.929 27.2967 41.1123 27.0473 41.479C26.798 41.8457 26.6733 42.3627 26.6733 43.03ZM33.6845 39.653C33.6845 39.895 33.6771 40.126 33.6625 40.346C33.6551 40.5587 33.6441 40.7273 33.6295 40.852H33.6845C33.8531 40.6027 34.0805 40.3937 34.3665 40.225C34.6525 40.0563 35.0228 39.972 35.4775 39.972C36.1888 39.972 36.7608 40.2287 37.1935 40.742C37.6335 41.2553 37.8535 42.018 37.8535 43.03C37.8535 43.712 37.7545 44.2803 37.5565 44.735C37.3585 45.1897 37.0798 45.5343 36.7205 45.769C36.3611 45.9963 35.9431 46.11 35.4665 46.11C35.0045 46.11 34.6341 46.0293 34.3555 45.868C34.0768 45.6993 33.8531 45.5013 33.6845 45.274H33.5965L33.3765 46H32.5185V37.64H33.6845V39.653ZM35.2025 40.918C34.8211 40.918 34.5205 40.9913 34.3005 41.138C34.0805 41.2847 33.9228 41.5083 33.8275 41.809C33.7321 42.1097 33.6845 42.491 33.6845 42.953V43.041C33.6845 43.723 33.7945 44.2473 34.0145 44.614C34.2345 44.9733 34.6378 45.153 35.2245 45.153C35.6938 45.153 36.0495 44.9697 36.2915 44.603C36.5335 44.2363 36.6545 43.7083 36.6545 43.019C36.6545 42.3223 36.5335 41.798 36.2915 41.446C36.0495 41.094 35.6865 40.918 35.2025 40.918ZM44.5648 43.03C44.5648 43.5213 44.4988 43.9577 44.3668 44.339C44.2348 44.7203 44.0478 45.043 43.8058 45.307C43.5638 45.571 43.2704 45.7727 42.9258 45.912C42.5811 46.044 42.1924 46.11 41.7598 46.11C41.3638 46.11 40.9971 46.044 40.6598 45.912C40.3224 45.7727 40.0291 45.571 39.7798 45.307C39.5378 45.043 39.3471 44.7203 39.2078 44.339C39.0684 43.9577 38.9988 43.5177 38.9988 43.019C38.9988 42.3663 39.1088 41.8127 39.3288 41.358C39.5561 40.9033 39.8788 40.5587 40.2968 40.324C40.7221 40.082 41.2208 39.961 41.7928 39.961C42.3354 39.961 42.8121 40.082 43.2228 40.324C43.6408 40.5587 43.9671 40.9033 44.2018 41.358C44.4438 41.8127 44.5648 42.37 44.5648 43.03ZM40.1978 43.03C40.1978 43.47 40.2528 43.8513 40.3628 44.174C40.4728 44.4893 40.6451 44.7313 40.8798 44.9C41.1144 45.0687 41.4151 45.153 41.7818 45.153C42.1484 45.153 42.4491 45.0687 42.6838 44.9C42.9184 44.7313 43.0908 44.4893 43.2008 44.174C43.3108 43.8513 43.3658 43.47 43.3658 43.03C43.3658 42.5753 43.3071 42.194 43.1898 41.886C43.0798 41.578 42.9074 41.3433 42.6728 41.182C42.4454 41.0133 42.1448 40.929 41.7708 40.929C41.2208 40.929 40.8211 41.1123 40.5718 41.479C40.3224 41.8457 40.1978 42.3627 40.1978 43.03ZM48.1769 45.164C48.3309 45.164 48.4885 45.1493 48.6499 45.12C48.8112 45.0907 48.9505 45.0577 49.0679 45.021V45.901C48.9432 45.9597 48.7745 46.0073 48.5619 46.044C48.3492 46.088 48.1365 46.11 47.9239 46.11C47.6012 46.11 47.3042 46.055 47.0329 45.945C46.7689 45.835 46.5562 45.6443 46.3949 45.373C46.2335 45.1017 46.1529 44.724 46.1529 44.24V40.962H45.3279V40.434L46.1969 39.994L46.6039 38.74H47.3189V40.071H49.0129V40.962H47.3189V44.218C47.3189 44.5407 47.3959 44.779 47.5499 44.933C47.7112 45.087 47.9202 45.164 48.1769 45.164ZM51.4198 40.071V46H50.2538V40.071H51.4198ZM50.8478 37.816C51.0238 37.816 51.1778 37.8673 51.3098 37.97C51.4418 38.0727 51.5078 38.245 51.5078 38.487C51.5078 38.7217 51.4418 38.894 51.3098 39.004C51.1778 39.1067 51.0238 39.158 50.8478 39.158C50.6572 39.158 50.4958 39.1067 50.3638 39.004C50.2392 38.894 50.1768 38.7217 50.1768 38.487C50.1768 38.245 50.2392 38.0727 50.3638 37.97C50.4958 37.8673 50.6572 37.816 50.8478 37.816ZM55.6379 46.11C55.0952 46.11 54.6186 46.0037 54.2079 45.791C53.7972 45.5783 53.4782 45.2483 53.2509 44.801C53.0236 44.3463 52.9099 43.7707 52.9099 43.074C52.9099 42.3407 53.0309 41.7467 53.2729 41.292C53.5222 40.8373 53.8559 40.5037 54.2739 40.291C54.6992 40.071 55.1832 39.961 55.7259 39.961C56.0559 39.961 56.3639 39.9977 56.6499 40.071C56.9432 40.137 57.1852 40.214 57.3759 40.302L57.0239 41.248C56.8186 41.1673 56.5986 41.0977 56.3639 41.039C56.1366 40.9803 55.9202 40.951 55.7149 40.951C55.3482 40.951 55.0439 41.0317 54.8019 41.193C54.5672 41.347 54.3912 41.5817 54.2739 41.897C54.1639 42.205 54.1089 42.5937 54.1089 43.063C54.1089 43.5103 54.1676 43.888 54.2849 44.196C54.4022 44.504 54.5746 44.7387 54.8019 44.9C55.0366 45.054 55.3262 45.131 55.6709 45.131C56.0009 45.131 56.2906 45.0943 56.5399 45.021C56.7892 44.9477 57.0239 44.8523 57.2439 44.735V45.747C57.0312 45.8717 56.8002 45.9633 56.5509 46.022C56.3016 46.0807 55.9972 46.11 55.6379 46.11ZM62.5815 44.328C62.5815 44.7167 62.4861 45.043 62.2955 45.307C62.1048 45.571 61.8298 45.7727 61.4705 45.912C61.1111 46.044 60.6785 46.11 60.1725 46.11C59.7545 46.11 59.3951 46.077 59.0945 46.011C58.8011 45.9523 58.5298 45.8643 58.2805 45.747V44.724C58.5445 44.8487 58.8488 44.9623 59.1935 45.065C59.5381 45.1603 59.8755 45.208 60.2055 45.208C60.6455 45.208 60.9608 45.1383 61.1515 44.999C61.3495 44.8597 61.4485 44.6727 61.4485 44.438C61.4485 44.306 61.4118 44.1887 61.3385 44.086C61.2651 43.976 61.1258 43.866 60.9205 43.756C60.7225 43.6387 60.4291 43.5067 60.0405 43.36C59.6665 43.206 59.3475 43.0557 59.0835 42.909C58.8195 42.755 58.6178 42.5753 58.4785 42.37C58.3391 42.1573 58.2695 41.886 58.2695 41.556C58.2695 41.0427 58.4748 40.6503 58.8855 40.379C59.3035 40.1003 59.8535 39.961 60.5355 39.961C60.8948 39.961 61.2321 39.9977 61.5475 40.071C61.8701 40.137 62.1818 40.2397 62.4825 40.379L62.0975 41.27C61.9288 41.1893 61.7528 41.1233 61.5695 41.072C61.3935 41.0133 61.2138 40.9657 61.0305 40.929C60.8545 40.8923 60.6711 40.874 60.4805 40.874C60.1285 40.874 59.8608 40.929 59.6775 41.039C59.4941 41.149 59.4025 41.303 59.4025 41.501C59.4025 41.6403 59.4428 41.7613 59.5235 41.864C59.6115 41.9667 59.7618 42.0693 59.9745 42.172C60.1871 42.2747 60.4768 42.3993 60.8435 42.546C61.2101 42.6853 61.5218 42.8283 61.7785 42.975C62.0425 43.1217 62.2405 43.3013 62.3725 43.514C62.5118 43.7267 62.5815 43.998 62.5815 44.328Z" fill="#5B3722"/>
<path d="M32.8391 54.025C33.2425 54.025 33.5908 54.0947 33.8841 54.234C34.1848 54.366 34.4158 54.5567 34.5771 54.806C34.7458 55.0553 34.8301 55.3633 34.8301 55.73C34.8301 56.1993 34.6798 56.599 34.3791 56.929C34.0785 57.259 33.7045 57.556 33.2571 57.82L35.2041 59.701C35.3801 59.4663 35.5268 59.206 35.6441 58.92C35.7615 58.6267 35.8605 58.315 35.9411 57.985H37.1291C37.0191 58.4397 36.8688 58.8797 36.6781 59.305C36.4948 59.723 36.2565 60.1007 35.9631 60.438L37.5691 62H36.0511L35.1931 61.175C35.0171 61.3143 34.8375 61.4427 34.6541 61.56C34.4708 61.6773 34.2728 61.7763 34.0601 61.857C33.8548 61.9303 33.6311 61.989 33.3891 62.033C33.1471 62.0843 32.8831 62.11 32.5971 62.11C32.0691 62.11 31.6108 62.0257 31.2221 61.857C30.8335 61.681 30.5328 61.4317 30.3201 61.109C30.1148 60.779 30.0121 60.3867 30.0121 59.932C30.0121 59.558 30.0745 59.2353 30.1991 58.964C30.3311 58.6927 30.5181 58.4543 30.7601 58.249C31.0095 58.0363 31.2991 57.8347 31.6291 57.644C31.4678 57.4607 31.3175 57.2737 31.1781 57.083C31.0461 56.885 30.9361 56.6797 30.8481 56.467C30.7675 56.2543 30.7271 56.0233 30.7271 55.774C30.7271 55.4073 30.8115 55.0957 30.9801 54.839C31.1561 54.575 31.4018 54.3733 31.7171 54.234C32.0398 54.0947 32.4138 54.025 32.8391 54.025ZM32.3221 58.359C32.0948 58.4983 31.9005 58.6413 31.7391 58.788C31.5851 58.9273 31.4605 59.085 31.3651 59.261C31.2771 59.4297 31.2331 59.6313 31.2331 59.866C31.2331 60.24 31.3615 60.5407 31.6181 60.768C31.8821 60.988 32.2268 61.098 32.6521 61.098C33.0555 61.098 33.4038 61.0357 33.6971 60.911C33.9978 60.7863 34.2545 60.6323 34.4671 60.449L32.3221 58.359ZM32.8061 54.96C32.5348 54.96 32.3075 55.0297 32.1241 55.169C31.9408 55.3083 31.8491 55.5173 31.8491 55.796C31.8491 56.038 31.9115 56.2653 32.0361 56.478C32.1608 56.6833 32.3368 56.907 32.5641 57.149C32.9601 56.9217 33.2498 56.7053 33.4331 56.5C33.6165 56.2873 33.7081 56.0453 33.7081 55.774C33.7081 55.5247 33.6238 55.3267 33.4551 55.18C33.2865 55.0333 33.0701 54.96 32.8061 54.96ZM46.3809 62L45.5449 59.734H42.5089L41.6729 62H40.4409L43.4219 54.113H44.6539L47.6239 62H46.3809ZM44.4229 56.489C44.4009 56.4083 44.3606 56.2873 44.3019 56.126C44.2506 55.9573 44.1993 55.7887 44.1479 55.62C44.0966 55.444 44.0563 55.301 44.0269 55.191C43.9903 55.3377 43.9463 55.499 43.8949 55.675C43.8509 55.8437 43.8069 56.0013 43.7629 56.148C43.7189 56.2873 43.6823 56.401 43.6529 56.489L42.8609 58.7H45.2149L44.4229 56.489ZM51.1032 62H48.0562V61.318L48.9912 61.043V55.114L48.0562 54.828V54.146H51.1032V54.828L50.1792 55.114V61.043L51.1032 61.318V62Z" fill="#5B3722"/>
<defs>
<clipPath id="clip0_30_4862">
<rect width="22.6091" height="22.5882" fill="white" transform="translate(28.2614 11.2941)"/>
</clipPath>
</defs>
</svg>
