<svg width="80" height="80" viewBox="0 0 80 80" fill="none" xmlns="http://www.w3.org/2000/svg">
<path d="M12.2006 12.2925H25.17C25.17 12.2925 25.4284 8.81623 27.1762 7.62655C29.3357 6.1586 39.0598 4.85601 45.8977 5.81582C53.4339 6.87241 55.1979 9.72765 54.5843 12.103L67.9372 12.2966V24.4676L71.9657 26.48L74.5854 34.3117L73.4511 52.7901L67.9332 56.2784L67.9695 67.7437H54.9799L53.9021 72.4178L40.9852 74.5027L29.6143 72.8856L25.7634 70.9458L25.3315 67.4574L14.788 67.4211L11.4135 67.1711L11.5871 55.1291L7.37694 52.3989L5.04785 41.0062L7.13071 27.4519L11.8373 24.0401L12.1885 12.3006L12.2006 12.2925Z" fill="#F8F3E8"/>
<path d="M73.5883 6.89259V21.0074C73.5883 21.1768 75.3281 21.9632 76.1758 23.0601C81.4112 29.8433 81.2659 50.6285 75.7721 57.2665C74.9648 58.2424 73.5883 58.7788 73.5883 58.9159V73.0308H59.6623C59.4483 73.0308 57.6682 75.6319 56.8367 76.257C49.2278 81.9635 27.9633 81.0843 21.1012 74.035C20.7661 73.6922 20.7661 73.0348 20.7096 73.0348H6.5817V59.5249C6.5817 59.1902 4.93883 58.3473 4.56343 57.9118C-1.61652 50.7293 -1.4712 29.1336 4.70471 21.9632C5.00745 21.6124 6.5817 20.7977 6.5817 20.4106V6.89259H20.1041C20.4392 6.89259 21.8116 4.75923 22.3484 4.29545C29.0289 -1.5118 50.3015 -1.2779 57.2403 4.07365C57.9831 4.64631 59.4766 6.89662 59.6623 6.89662H73.5883V6.89259ZM58.2495 8.10243C58.1687 7.01761 57.4341 6.15055 56.647 5.469C50.685 0.302967 26.3446 -0.370514 22.1547 6.94905C21.9085 7.38056 21.9811 8.10647 21.9206 8.10647H7.79267V21.818C7.79267 22.0156 5.63312 23.0279 4.78948 24.2619C0.490559 30.5773 0.24433 49.7735 4.96709 55.8913C5.54028 56.6333 7.79267 58.1255 7.79267 58.311V71.216L8.39815 71.8209H21.9206C22.0336 71.8209 22.2758 73.0993 22.9176 73.8535C28.1853 80.0116 52.8486 80.0559 57.7974 73.1679C58.1203 72.7202 58.1809 71.8209 58.2495 71.8209H71.9737V58.1094C71.9737 57.9964 73.2654 57.7988 74.0122 57.1173C79.9903 51.673 80.2365 27.226 73.3219 22.2657C72.8739 21.9431 71.9737 21.8826 71.9737 21.814V8.10243H58.2495Z" fill="#5B3722"/>
<path d="M58.2495 8.10253H71.9737V21.8141C71.9737 21.8867 72.8739 21.9432 73.3219 22.2658C80.2365 27.2261 79.9903 51.6731 74.0122 57.1174C73.2654 57.7989 71.9737 57.9965 71.9737 58.1095V71.821H58.2495C58.1768 71.821 58.1203 72.7203 57.7974 73.168C52.8486 80.056 28.1853 80.0117 22.9176 73.8536C22.2758 73.1035 22.0336 71.821 21.9206 71.821H8.39816L7.79268 71.2161V58.3111C7.79268 58.1256 5.54029 56.6334 4.9671 55.8914C0.244342 49.7736 0.490571 30.5774 4.78949 24.262C5.62909 23.024 7.79268 22.0117 7.79268 21.8181V8.10253H21.9206C21.9811 8.10253 21.9085 7.37662 22.1547 6.94511C26.3446 -0.370416 50.685 0.303064 56.647 5.4691C57.4341 6.15065 58.1688 7.0177 58.2495 8.10253ZM23.5352 10.1189H9.81095V23.4272H8.60403V23.8265H10.2186V10.5222H23.9429C23.5433 7.01367 26.5263 6.01353 29.2873 5.17471C30.1915 4.90047 33.1301 4.06971 33.8324 4.06971H45.9421C46.2731 4.06971 48.2671 5.23117 48.5658 4.06971C42.2042 3.19459 35.7619 2.83164 29.5093 4.58591C26.7766 5.35215 23.0185 6.56199 23.5392 10.1149L23.5352 10.1189ZM55.0202 11.7321C55.2463 8.72762 53.9788 7.67505 51.3833 6.69508C45.712 4.55769 33.6992 4.45283 28.1086 6.8201C25.3597 7.98155 24.7906 8.50985 25.1539 11.7321H11.4256V24.6371C8.72109 25.0444 7.91781 25.4799 6.90868 27.9883C4.51904 33.9327 4.26878 47.1241 7.18316 52.8668C8.4022 55.2703 9.56069 54.3186 11.4256 55.4841V68.1875H25.1498C24.391 72.0993 26.8048 72.7728 29.9896 73.6358C35.7902 75.2046 46.4143 75.3175 52.0009 73.0349C54.7942 71.8936 54.9758 71.3976 55.0202 68.1875H68.3408L68.353 55.3187C70.5892 54.8146 71.4167 54.9961 72.5994 52.8829C75.647 47.4386 75.5824 32.7672 72.8456 27.1818C71.453 24.3427 70.3551 25.7703 68.4054 23.9475L68.6436 12.3128L68.135 11.724H55.0162L55.0202 11.7321ZM56.6349 10.1189L55.4279 7.29597L56.2312 10.5222H69.5518V23.2256L72.3734 24.2298V23.8345L70.3591 23.4272V10.7239L69.7536 10.1189H56.6349ZM5.36672 52.0602C4.07099 46.0433 3.34844 40.3247 4.20823 34.1626C4.53923 31.7873 5.508 29.4523 5.57258 27.0527C3.19102 33.1665 2.97708 40.0787 3.81265 46.5635L5.36672 52.0602ZM76.4139 45.4061C76.7449 41.8048 76.1677 37.7679 76.4139 34.1142L75.6107 31.4929C76.2767 38.76 76.531 46.0917 73.9839 53.0604C74.4845 53.629 75.0254 51.54 75.09 51.3384C75.5784 49.7817 76.2686 46.9668 76.4139 45.4021V45.4061ZM70.3591 56.4963C71.6145 56.5891 73.883 55.2824 73.3865 54.0766C71.7558 56.5044 69.5518 55.0808 69.5518 58.3111V69.4013H56.2312L55.8316 72.2243H56.2272L56.6349 69.8046H69.7536L70.3591 69.1997V56.4963ZM10.2146 56.093C8.71705 56.1374 7.66351 55.3671 6.58575 54.4799C6.59383 56.0447 8.57981 56.4157 9.81095 56.4963V69.8046H23.5352C23.1114 72.4663 25.0449 73.5148 27.1721 74.4383C32.2662 76.6483 40.412 76.8862 45.8856 76.2087C47.8715 75.9627 49.8171 75.3538 51.787 75.0433C51.8839 74.3173 50.911 74.6763 50.4791 74.7448C48.6062 75.0433 46.7252 75.7288 44.7432 75.87C39.754 76.2329 32.5044 76.0152 27.8705 74.1439C25.5414 73.2043 23.5554 72.3574 23.9389 69.4013H10.2146V56.093Z" fill="#F8F3E8"/>
<path d="M70.3591 56.4963V69.1997L69.7536 69.8046H56.6348L56.2271 72.2202H55.8315L56.2312 69.4013H69.5518V58.3111C69.5518 55.0808 71.7557 56.5044 73.3865 54.0766C73.8789 55.2784 71.6104 56.589 70.3591 56.4963Z" fill="#5B3722"/>
<path d="M56.6347 10.1189H69.7534L70.3589 10.7239V23.4272L72.3731 23.8386V24.2298L69.5516 23.2256V10.5222H56.231L55.4277 7.29596L56.6347 10.1189Z" fill="#5B3722"/>
<path d="M10.2148 56.093V69.4013H23.939C23.5556 72.3574 25.5415 73.2043 27.8706 74.1439C32.5046 76.0152 39.7502 76.2329 44.7434 75.87C46.7294 75.7248 48.6104 75.0392 50.4793 74.7448C50.9112 74.6763 51.884 74.3173 51.7872 75.0433C49.8173 75.3538 47.8717 75.9627 45.8857 76.2087C40.4122 76.8862 32.2624 76.6483 27.1723 74.4383C25.0451 73.5148 23.1075 72.4663 23.5354 69.8046H9.81114V56.4963C8.57999 56.4157 6.59401 56.0447 6.58594 54.4799C7.66369 55.3671 8.71723 56.1374 10.2148 56.093Z" fill="#5B3722"/>
<path d="M23.5353 10.1188C23.0146 6.56189 26.7726 5.35205 29.5054 4.58984C35.758 2.8396 42.2003 3.20256 48.5619 4.07364C48.2632 5.23106 46.2732 4.07364 45.9381 4.07364H33.8285C33.1302 4.07364 30.1875 4.9044 29.2834 5.17864C26.5183 6.01746 23.5393 7.01357 23.939 10.5262H10.2147V23.8344H8.6001V23.4352H9.80702V10.1188H23.5313H23.5353Z" fill="#5B3722"/>
<path d="M5.36678 52.0601L3.81271 46.5634C2.98119 40.0826 3.19109 33.1704 5.57265 27.0526C5.50403 29.4481 4.53929 31.7831 4.2083 34.1625C3.34851 40.3246 4.07509 46.0431 5.36678 52.0601Z" fill="#5B3722"/>
<path d="M76.4139 45.406C76.2686 46.9707 75.5783 49.7816 75.0899 51.3423C75.0294 51.544 74.4844 53.633 73.9839 53.0643C76.5269 46.0956 76.2726 38.764 75.6106 31.4968L76.4139 34.1182C76.1677 37.7719 76.7449 41.8087 76.4139 45.41V45.406Z" fill="#5B3722"/>
<path d="M55.0205 11.7319H68.1392L68.6479 12.3207L68.4097 23.9554C70.3593 25.7823 71.4573 24.3546 72.8499 27.1897C75.5867 32.7711 75.6513 47.4465 72.6037 52.8908C71.421 55.004 70.5894 54.8226 68.3572 55.3267L68.3451 68.1954H55.0245C54.9801 71.4055 54.7985 71.9015 52.0052 73.0428C46.4226 75.3254 35.7985 75.2125 29.9939 73.6437C26.8091 72.7807 24.3952 72.1072 25.1541 68.1954H11.4258V55.492C9.56091 54.3265 8.40243 55.2783 7.18339 52.8747C4.269 47.132 4.51927 33.9406 6.9089 27.9963C7.91804 25.4879 8.71728 25.0483 11.4258 24.645V11.7319H25.15C24.7868 8.5097 25.3559 7.98543 28.1048 6.81995C33.6954 4.45269 45.7122 4.56157 51.3795 6.69493C53.975 7.67491 55.2425 8.72747 55.0164 11.7319H55.0205ZM25.3519 12.9418H12.6368V24.8386C11.4339 26.4194 9.74659 25.4798 8.50738 27.1655C5.31851 31.5169 5.63739 46.8537 7.88575 51.7657C9.22184 54.6854 10.7436 53.1893 12.6368 55.0847V66.9815H25.3519C26.3449 67.8486 25.913 69.5988 26.4498 70.724C27.6245 73.184 39.1932 73.9623 41.9219 73.8575C43.8998 73.7808 53.1596 72.6234 53.749 70.7522C53.9589 70.0827 53.5471 66.9815 54.8187 66.9815H67.5338V54.4798C70.5289 53.8224 71.0577 54.137 72.1718 51.2495C74.0488 46.3899 74.2748 38.5461 73.4796 33.4204C72.858 29.4199 72.3251 25.6008 67.5338 25.4475V12.9458H54.8187C53.3453 12.0989 54.2172 9.62679 53.5512 8.87265C52.2272 7.37245 44.1137 6.1747 41.9219 6.06985C39.0761 5.93273 28.02 6.457 26.583 8.93315C26.0341 9.88086 26.1592 12.6837 25.3519 12.9458V12.9418Z" fill="#5B3722"/>
<g clip-path="url(#clip0_4895_96875)">
<path d="M34.8556 34.8235H44.276V25.4118H34.8556V34.8235ZM35.7976 26.353H43.334V33.8824H35.7976V26.353ZM50.8703 26.353V25.4118H48.9863V23.0588C48.9863 21.76 47.9312 20.7059 46.6311 20.7059H44.276V18.8235H43.334V20.7059H41.4499V18.8235H40.5078V20.7059H38.6237V18.8235H37.6817V20.7059H35.7976V18.8235H34.8556V20.7059H32.5004C31.2004 20.7059 30.1453 21.76 30.1453 23.0588V25.4118H28.2612V26.353H30.1453V28.2353H28.2612V29.1765H30.1453V31.0588H28.2612V32H30.1453V33.8824H28.2612V34.8235H30.1453V37.1765C30.1453 38.4753 31.2004 39.5294 32.5004 39.5294H34.8556V41.4118H35.7976V39.5294H37.6817V41.4118H38.6237V39.5294H40.5078V41.4118H41.4499V39.5294H43.334V41.4118H44.276V39.5294H46.6311C47.9312 39.5294 48.9863 38.4753 48.9863 37.1765V34.8235H50.8703V33.8824H48.9863V32H50.8703V31.0588H48.9863V29.1765H50.8703V28.2353H48.9863V26.353H50.8703ZM46.6311 38.5883H32.5004C31.7185 38.5883 31.0874 37.9577 31.0874 37.1765V23.0588C31.0874 22.2777 31.7185 21.6471 32.5004 21.6471H46.6311C47.413 21.6471 48.0442 22.2777 48.0442 23.0588V37.1765C48.0442 37.9577 47.413 38.5883 46.6311 38.5883Z" fill="#5B3722"/>
</g>
<path d="M32.9764 53.877C32.9764 54.3463 32.8627 54.746 32.6354 55.076C32.4081 55.406 32.0817 55.6627 31.6564 55.846C31.2311 56.022 30.7251 56.11 30.1384 56.11C29.8524 56.11 29.5774 56.0917 29.3134 56.055C29.0494 56.0257 28.8037 55.9817 28.5764 55.923C28.3491 55.8643 28.1474 55.791 27.9714 55.703V54.581C28.2647 54.713 28.6094 54.834 29.0054 54.944C29.4014 55.0467 29.8047 55.098 30.2154 55.098C30.5674 55.098 30.8607 55.0503 31.0954 54.955C31.3301 54.8597 31.5061 54.7277 31.6234 54.559C31.7407 54.3903 31.7994 54.1923 31.7994 53.965C31.7994 53.723 31.7371 53.5213 31.6124 53.36C31.4951 53.1913 31.3081 53.0373 31.0514 52.898C30.8021 52.7513 30.4647 52.5973 30.0394 52.436C29.7461 52.326 29.4784 52.205 29.2364 52.073C29.0017 51.9337 28.7927 51.7723 28.6094 51.589C28.4334 51.4057 28.2977 51.193 28.2024 50.951C28.1071 50.709 28.0594 50.4267 28.0594 50.104C28.0594 49.6713 28.1657 49.301 28.3784 48.993C28.5984 48.685 28.8991 48.4503 29.2804 48.289C29.6617 48.1203 30.1054 48.036 30.6114 48.036C31.0367 48.036 31.4291 48.08 31.7884 48.168C32.1551 48.2487 32.5034 48.3623 32.8334 48.509L32.4594 49.488C32.1587 49.3633 31.8544 49.2607 31.5464 49.18C31.2384 49.0993 30.9157 49.059 30.5784 49.059C30.2851 49.059 30.0394 49.103 29.8414 49.191C29.6434 49.279 29.4931 49.4 29.3904 49.554C29.2951 49.708 29.2474 49.8877 29.2474 50.093C29.2474 50.335 29.3024 50.5367 29.4124 50.698C29.5224 50.8593 29.6984 51.0097 29.9404 51.149C30.1824 51.281 30.5014 51.4277 30.8974 51.589C31.3374 51.7577 31.7114 51.941 32.0194 52.139C32.3347 52.337 32.5731 52.5753 32.7344 52.854C32.8957 53.1253 32.9764 53.4663 32.9764 53.877ZM38.9362 56H34.5142V48.146H38.9362V49.158H35.7022V51.402H38.7382V52.403H35.7022V54.977H38.9362V56ZM44.0583 56L41.6823 49.323H41.6383C41.6456 49.4697 41.6566 49.6677 41.6713 49.917C41.686 50.1663 41.697 50.434 41.7043 50.72C41.7116 51.006 41.7153 51.2883 41.7153 51.567V56H40.6373V48.146H42.3313L44.5863 54.449H44.6303L46.9513 48.146H48.6453V56H47.4903V51.501C47.4903 51.2443 47.494 50.9803 47.5013 50.709C47.516 50.4303 47.527 50.17 47.5343 49.928C47.549 49.686 47.56 49.488 47.5673 49.334H47.5233L45.0813 56H44.0583ZM53.1549 56H50.1079V55.318L51.0429 55.043V49.114L50.1079 48.828V48.146H53.1549V48.828L52.2309 49.114V55.043L53.1549 55.318V56Z" fill="#5B3722"/>
<defs>
<clipPath id="clip0_4895_96875">
<rect width="22.6091" height="22.5882" fill="white" transform="translate(28.2612 18.8235)"/>
</clipPath>
</defs>
</svg>
