<svg width="80" height="80" viewBox="0 0 80 80" fill="none" xmlns="http://www.w3.org/2000/svg">
<path d="M12.2006 12.2925H25.17C25.17 12.2925 25.4284 8.8162 27.1762 7.62652C29.3357 6.15857 39.0598 4.85597 45.8977 5.81578C53.4339 6.87238 55.1979 9.72762 54.5843 12.1029L67.9372 12.2965V24.4676L71.9657 26.4799L74.5854 34.3117L73.4511 52.79L67.9332 56.2784L67.9695 67.7437H54.9799L53.9021 72.4177L40.9852 74.5027L29.6143 72.8855L25.7634 70.9458L25.3315 67.4574L14.788 67.4211L11.4135 67.171L11.5871 55.1291L7.37694 52.3988L5.04785 41.0061L7.13071 27.4518L11.8373 24.0401L12.1885 12.3006L12.2006 12.2925Z" fill="#F8F3E8"/>
<path d="M73.5883 6.89259V21.0074C73.5883 21.1768 75.3281 21.9632 76.1758 23.0601C81.4112 29.8433 81.2659 50.6285 75.7721 57.2665C74.9648 58.2424 73.5883 58.7788 73.5883 58.9159V73.0308H59.6623C59.4483 73.0308 57.6682 75.6319 56.8367 76.257C49.2278 81.9635 27.9633 81.0843 21.1012 74.035C20.7661 73.6922 20.7661 73.0348 20.7096 73.0348H6.5817V59.5249C6.5817 59.1902 4.93883 58.3473 4.56343 57.9118C-1.61652 50.7293 -1.4712 29.1336 4.70471 21.9632C5.00745 21.6124 6.5817 20.7977 6.5817 20.4106V6.89259H20.1041C20.4392 6.89259 21.8116 4.75923 22.3484 4.29545C29.0289 -1.5118 50.3015 -1.2779 57.2403 4.07365C57.9831 4.64631 59.4766 6.89662 59.6623 6.89662H73.5883V6.89259ZM58.2495 8.10243C58.1687 7.01761 57.4341 6.15055 56.647 5.469C50.685 0.302967 26.3446 -0.370514 22.1547 6.94905C21.9085 7.38056 21.9811 8.10647 21.9206 8.10647H7.79267V21.818C7.79267 22.0156 5.63312 23.0279 4.78948 24.2619C0.490559 30.5773 0.24433 49.7735 4.96709 55.8913C5.54028 56.6333 7.79267 58.1255 7.79267 58.311V71.216L8.39815 71.8209H21.9206C22.0336 71.8209 22.2758 73.0993 22.9176 73.8535C28.1853 80.0116 52.8486 80.0559 57.7974 73.1679C58.1203 72.7202 58.1809 71.8209 58.2495 71.8209H71.9737V58.1094C71.9737 57.9964 73.2654 57.7988 74.0122 57.1173C79.9903 51.673 80.2365 27.226 73.3219 22.2657C72.8739 21.9431 71.9737 21.8826 71.9737 21.814V8.10243H58.2495Z" fill="#5B3722"/>
<path d="M58.2495 8.1025H71.9737V21.8141C71.9737 21.8867 72.8739 21.9431 73.3219 22.2658C80.2365 27.2261 79.9903 51.673 74.0122 57.1174C73.2654 57.7989 71.9737 57.9965 71.9737 58.1094V71.821H58.2495C58.1768 71.821 58.1203 72.7203 57.7974 73.168C52.8486 80.056 28.1853 80.0117 22.9176 73.8535C22.2758 73.1034 22.0336 71.821 21.9206 71.821H8.39816L7.79268 71.2161V58.3111C7.79268 58.1256 5.54029 56.6334 4.9671 55.8914C0.244342 49.7736 0.490571 30.5774 4.78949 24.262C5.62909 23.0239 7.79268 22.0117 7.79268 21.8181V8.1025H21.9206C21.9811 8.1025 21.9085 7.37659 22.1547 6.94508C26.3446 -0.370447 50.685 0.303034 56.647 5.46907C57.4341 6.15062 58.1688 7.01767 58.2495 8.1025ZM23.5352 10.1189H9.81095V23.4272H8.60403V23.8265H10.2186V10.5222H23.9429C23.5433 7.01364 26.5263 6.0135 29.2873 5.17468C30.1915 4.90044 33.1301 4.06968 33.8324 4.06968H45.9421C46.2731 4.06968 48.2671 5.23114 48.5658 4.06968C42.2042 3.19456 35.7619 2.83161 29.5093 4.58588C26.7766 5.35212 23.0185 6.56196 23.5392 10.1149L23.5352 10.1189ZM55.0202 11.732C55.2463 8.72759 53.9788 7.67502 51.3833 6.69505C45.712 4.55765 33.6992 4.4528 28.1086 6.82006C25.3597 7.98152 24.7906 8.50981 25.1539 11.732H11.4256V24.637C8.72109 25.0444 7.91781 25.4799 6.90868 27.9883C4.51904 33.9327 4.26878 47.124 7.18316 52.8668C8.4022 55.2703 9.56069 54.3186 11.4256 55.4841V68.1874H25.1498C24.391 72.0993 26.8048 72.7727 29.9896 73.6358C35.7902 75.2045 46.4143 75.3175 52.0009 73.0349C54.7942 71.8936 54.9758 71.3976 55.0202 68.1874H68.3408L68.353 55.3187C70.5892 54.8146 71.4167 54.9961 72.5994 52.8829C75.647 47.4386 75.5824 32.7672 72.8456 27.1818C71.453 24.3427 70.3551 25.7703 68.4054 23.9474L68.6436 12.3128L68.135 11.724H55.0162L55.0202 11.732ZM56.6349 10.1189L55.4279 7.29594L56.2312 10.5222H69.5518V23.2256L72.3734 24.2297V23.8345L70.3591 23.4272V10.7238L69.7536 10.1189H56.6349ZM5.36672 52.0602C4.07099 46.0432 3.34844 40.3247 4.20823 34.1626C4.53923 31.7872 5.508 29.4522 5.57258 27.0527C3.19102 33.1665 2.97708 40.0787 3.81265 46.5635L5.36672 52.0602ZM76.4139 45.406C76.7449 41.8047 76.1677 37.7679 76.4139 34.1142L75.6107 31.4928C76.2767 38.76 76.531 46.0916 73.9839 53.0603C74.4845 53.629 75.0254 51.54 75.09 51.3383C75.5784 49.7817 76.2686 46.9668 76.4139 45.402V45.406ZM70.3591 56.4963C71.6145 56.5891 73.883 55.2824 73.3865 54.0766C71.7558 56.5044 69.5518 55.0808 69.5518 58.3111V69.4013H56.2312L55.8316 72.2243H56.2272L56.6349 69.8046H69.7536L70.3591 69.1997V56.4963ZM10.2146 56.093C8.71705 56.1374 7.66351 55.3671 6.58575 54.4799C6.59383 56.0446 8.57981 56.4156 9.81095 56.4963V69.8046H23.5352C23.1114 72.4662 25.0449 73.5148 27.1721 74.4383C32.2662 76.6483 40.412 76.8862 45.8856 76.2087C47.8715 75.9627 49.8171 75.3537 51.787 75.0432C51.8839 74.3173 50.911 74.6762 50.4791 74.7448C48.6062 75.0432 46.7252 75.7288 44.7432 75.8699C39.754 76.2329 32.5044 76.0151 27.8705 74.1439C25.5414 73.2043 23.5554 72.3574 23.9389 69.4013H10.2146V56.093Z" fill="#F8F3E8"/>
<path d="M70.3591 56.4963V69.1997L69.7536 69.8046H56.6348L56.2271 72.2203H55.8315L56.2312 69.4013H69.5518V58.3111C69.5518 55.0808 71.7557 56.5044 73.3865 54.0766C73.8789 55.2784 71.6104 56.5891 70.3591 56.4963Z" fill="#5B3722"/>
<path d="M56.6347 10.1189H69.7534L70.3589 10.7239V23.4272L72.3731 23.8386V24.2298L69.5516 23.2256V10.5222H56.231L55.4277 7.29596L56.6347 10.1189Z" fill="#5B3722"/>
<path d="M10.2148 56.093V69.4013H23.939C23.5556 72.3574 25.5415 73.2043 27.8706 74.1439C32.5046 76.0151 39.7502 76.2329 44.7434 75.8699C46.7294 75.7248 48.6104 75.0392 50.4793 74.7448C50.9112 74.6762 51.884 74.3173 51.7872 75.0432C49.8173 75.3537 47.8717 75.9627 45.8857 76.2087C40.4122 76.8862 32.2624 76.6483 27.1723 74.4383C25.0451 73.5148 23.1075 72.4662 23.5354 69.8046H9.81114V56.4963C8.57999 56.4156 6.59401 56.0446 6.58594 54.4799C7.66369 55.3671 8.71723 56.1374 10.2148 56.093Z" fill="#5B3722"/>
<path d="M23.5353 10.1188C23.0146 6.56189 26.7726 5.35205 29.5054 4.58984C35.758 2.8396 42.2003 3.20256 48.5619 4.07364C48.2632 5.23106 46.2732 4.07364 45.9381 4.07364H33.8285C33.1302 4.07364 30.1875 4.9044 29.2834 5.17864C26.5183 6.01746 23.5393 7.01357 23.939 10.5262H10.2147V23.8344H8.6001V23.4352H9.80702V10.1188H23.5313H23.5353Z" fill="#5B3722"/>
<path d="M5.36678 52.0601L3.81271 46.5634C2.98119 40.0827 3.19109 33.1704 5.57265 27.0526C5.50403 29.4481 4.53929 31.7831 4.2083 34.1625C3.34851 40.3246 4.07509 46.0432 5.36678 52.0601Z" fill="#5B3722"/>
<path d="M76.4139 45.406C76.2686 46.9707 75.5783 49.7816 75.0899 51.3423C75.0294 51.544 74.4844 53.633 73.9839 53.0643C76.5269 46.0956 76.2726 38.764 75.6106 31.4968L76.4139 34.1182C76.1677 37.7719 76.7449 41.8087 76.4139 45.41V45.406Z" fill="#5B3722"/>
<path d="M55.0205 11.7319H68.1392L68.6479 12.3207L68.4097 23.9554C70.3593 25.7822 71.4573 24.3546 72.8499 27.1897C75.5867 32.7711 75.6513 47.4465 72.6037 52.8908C71.421 55.004 70.5894 54.8225 68.3572 55.3266L68.3451 68.1954H55.0245C54.9801 71.4055 54.7985 71.9015 52.0052 73.0428C46.4226 75.3254 35.7985 75.2124 29.9939 73.6437C26.8091 72.7807 24.3952 72.1072 25.1541 68.1954H11.4258V55.492C9.56091 54.3265 8.40243 55.2782 7.18339 52.8747C4.269 47.132 4.51927 33.9406 6.9089 27.9962C7.91804 25.4878 8.71728 25.0482 11.4258 24.645V11.7319H25.15C24.7868 8.50967 25.3559 7.9854 28.1048 6.81992C33.6954 4.45266 45.7122 4.56154 51.3795 6.6949C53.975 7.67488 55.2425 8.72744 55.0164 11.7319H55.0205ZM25.3519 12.9417H12.6368V24.8385C11.4339 26.4194 9.74659 25.4798 8.50738 27.1655C5.31851 31.5169 5.63739 46.8537 7.88575 51.7657C9.22184 54.6854 10.7436 53.1892 12.6368 55.0847V66.9815H25.3519C26.3449 67.8485 25.913 69.5988 26.4498 70.7239C27.6245 73.1839 39.1932 73.9623 41.9219 73.8574C43.8998 73.7808 53.1596 72.6234 53.749 70.7522C53.9589 70.0827 53.5471 66.9815 54.8187 66.9815H67.5338V54.4797C70.5289 53.8224 71.0577 54.137 72.1718 51.2495C74.0488 46.3899 74.2748 38.5461 73.4796 33.4204C72.858 29.4198 72.3251 25.6007 67.5338 25.4475V12.9458H54.8187C53.3453 12.0989 54.2172 9.62676 53.5512 8.87262C52.2272 7.37242 44.1137 6.17467 41.9219 6.06982C39.0761 5.9327 28.02 6.45697 26.583 8.93312C26.0341 9.88083 26.1592 12.6836 25.3519 12.9458V12.9417Z" fill="#5B3722"/>
<path d="M34.9213 17.1505C33.3747 17.6152 31.7245 18.7491 30.8258 19.428C30.3861 19.7601 30.1455 20.2841 30.1455 20.8349V29.9355C30.1455 30.7387 31.1138 31.2045 31.7812 30.7565C32.9205 29.9916 34.4683 29.1229 35.7978 28.9742C38.9238 28.6247 40.2082 32.3263 43.3342 31.9767C45.0932 31.78 47.2343 30.3229 48.3061 29.5132C48.7459 29.181 48.9864 28.6571 48.9864 28.1063V19.0057C48.9864 18.2024 48.0181 17.7366 47.3508 18.1847C46.3662 18.8457 45.0766 19.5842 43.8864 19.8686" stroke="#5B3722" stroke-width="1.5"/>
<path d="M44.2764 17.6941C44.2764 20.1892 41.9213 24.4706 39.5662 24.4706C37.2111 24.4706 34.856 20.1892 34.856 17.6941C34.856 15.1991 36.9648 13.1765 39.5662 13.1765C42.1676 13.1765 44.2764 15.1991 44.2764 17.6941Z" stroke="#5B3722" stroke-width="1.5"/>
<path d="M40.9793 17.4118C40.9793 18.1915 40.3466 18.8235 39.5662 18.8235C38.7858 18.8235 38.1531 18.1915 38.1531 17.4118C38.1531 16.6321 38.7858 16 39.5662 16C40.3466 16 40.9793 16.6321 40.9793 17.4118Z" stroke="#5B3722" stroke-width="1.5"/>
<path d="M21.4622 46.121C21.1542 46.121 20.8572 46.088 20.5712 46.022C20.2852 45.956 19.9918 45.8424 19.6912 45.681L20.0432 44.801C20.2045 44.8964 20.3915 44.9807 20.6042 45.054C20.8168 45.12 21.0515 45.153 21.3082 45.153C21.8068 45.153 22.1992 44.966 22.4852 44.592C22.7712 44.218 22.9142 43.6754 22.9142 42.964C22.9142 42.2674 22.7675 41.7357 22.4742 41.369C22.1882 41.0024 21.7408 40.819 21.1322 40.819C20.8975 40.819 20.6555 40.8484 20.4062 40.907C20.1642 40.9584 19.9515 41.0354 19.7682 41.138V40.159C19.9882 40.049 20.2302 39.972 20.4942 39.928C20.7582 39.8767 21.0258 39.851 21.2972 39.851C21.9645 39.851 22.5035 39.9794 22.9142 40.236C23.3322 40.4927 23.6365 40.8557 23.8272 41.325C24.0252 41.787 24.1242 42.3334 24.1242 42.964C24.1242 43.954 23.8968 44.7277 23.4422 45.285C22.9948 45.8424 22.3348 46.121 21.4622 46.121ZM19.1821 39.048V38.542L20.0731 38.157H23.9671V39.048H19.1821ZM25.6207 46V42.227C25.6207 41.457 25.826 40.8704 26.2367 40.467C26.6474 40.0564 27.3 39.851 28.1947 39.851C28.6127 39.851 28.972 39.9024 29.2727 40.005C29.5734 40.1077 29.808 40.2837 29.9767 40.533C30.2627 40.665 30.4644 40.8814 30.5817 41.182C30.7064 41.4754 30.7687 41.8274 30.7687 42.238V46H29.5917V42.227C29.5917 41.765 29.4744 41.4167 29.2397 41.182C29.0124 40.94 28.664 40.819 28.1947 40.819C27.7254 40.819 27.3734 40.94 27.1387 41.182C26.904 41.4167 26.7867 41.765 26.7867 42.227V43.371L26.8197 43.382C26.9884 43.096 27.179 42.909 27.3917 42.821C27.6117 42.7257 27.9234 42.678 28.3267 42.678H28.6567V43.602H28.3267C27.9087 43.602 27.586 43.6644 27.3587 43.789C27.1387 43.9137 26.9884 44.0787 26.9077 44.284C26.827 44.482 26.7867 44.7057 26.7867 44.955V46H25.6207ZM29.9877 40.918L29.3387 40.335C29.5514 40.291 29.7384 40.2067 29.8997 40.082C30.061 39.9574 30.1417 39.7887 30.1417 39.576H31.2417C31.2417 39.8034 31.1904 40.0087 31.0877 40.192C30.985 40.3754 30.8384 40.5294 30.6477 40.654C30.4644 40.7714 30.2444 40.8594 29.9877 40.918ZM33.9446 46.121C33.6366 46.121 33.3396 46.088 33.0536 46.022C32.7676 45.956 32.4743 45.8424 32.1736 45.681L32.5256 44.801C32.6869 44.8964 32.8739 44.9807 33.0866 45.054C33.2993 45.12 33.5339 45.153 33.7906 45.153C34.2893 45.153 34.6816 44.966 34.9676 44.592C35.2536 44.218 35.3966 43.6754 35.3966 42.964C35.3966 42.2674 35.2499 41.7357 34.9566 41.369C34.6706 41.0024 34.2233 40.819 33.6146 40.819C33.3799 40.819 33.1379 40.8484 32.8886 40.907C32.6466 40.9584 32.4339 41.0354 32.2506 41.138V40.159C32.4706 40.049 32.7126 39.972 32.9766 39.928C33.2406 39.8767 33.5083 39.851 33.7796 39.851C34.4469 39.851 34.9859 39.9794 35.3966 40.236C35.8146 40.4927 36.1189 40.8557 36.3096 41.325C36.5076 41.787 36.6066 42.3334 36.6066 42.964C36.6066 43.954 36.3793 44.7277 35.9246 45.285C35.4773 45.8424 34.8173 46.121 33.9446 46.121ZM38.0481 46V43.987C38.0481 43.525 38.1471 43.184 38.3451 42.964C38.5431 42.744 38.8035 42.59 39.1261 42.502L39.1371 42.458L37.9381 42.007V41.666C37.9381 41.3507 38.0371 41.0537 38.2351 40.775C38.4405 40.4964 38.7338 40.2727 39.1151 40.104C39.4965 39.9354 39.9585 39.851 40.5011 39.851C40.9778 39.851 41.4105 39.928 41.7991 40.082C42.1878 40.2287 42.4958 40.4597 42.7231 40.775C42.9505 41.0904 43.0641 41.501 43.0641 42.007V46H41.8871V42.106C41.8871 41.6514 41.7551 41.325 41.4911 41.127C41.2271 40.9217 40.8898 40.819 40.4791 40.819C40.0611 40.819 39.7348 40.907 39.5001 41.083C39.2655 41.2517 39.1445 41.468 39.1371 41.732L40.2701 42.282L40.1711 42.865C39.8998 42.8724 39.6725 42.964 39.4891 43.14C39.3131 43.316 39.2251 43.5874 39.2251 43.954V46H38.0481ZM46.5888 46.121C46.1561 46.121 45.7418 46.077 45.3458 45.989C44.9571 45.901 44.6234 45.791 44.3448 45.659L44.6858 44.713C44.8398 44.779 45.0158 44.8487 45.2138 44.922C45.4118 44.988 45.6281 45.0467 45.8628 45.098C46.0974 45.142 46.3358 45.164 46.5778 45.164C46.9444 45.164 47.2378 45.1017 47.4578 44.977C47.6851 44.845 47.7988 44.6544 47.7988 44.405C47.7988 44.251 47.7511 44.119 47.6558 44.009C47.5604 43.8917 47.4174 43.789 47.2268 43.701C47.0361 43.6057 46.7978 43.5104 46.5118 43.415C46.0718 43.2684 45.6978 43.1144 45.3898 42.953C45.0818 42.7844 44.8471 42.5864 44.6858 42.359C44.5244 42.1244 44.4438 41.8347 44.4438 41.49C44.4438 41.1527 44.5318 40.863 44.7078 40.621C44.8911 40.379 45.1588 40.192 45.5108 40.06C45.8701 39.9207 46.3138 39.851 46.8418 39.851C47.2084 39.851 47.5494 39.884 47.8648 39.95C48.1874 40.0087 48.4368 40.093 48.6128 40.203V41.171C48.4881 41.1124 48.3304 41.0537 48.1398 40.995C47.9491 40.9364 47.7401 40.8887 47.5128 40.852C47.2928 40.8154 47.0691 40.797 46.8418 40.797C46.4018 40.797 46.0864 40.863 45.8958 40.995C45.7124 41.1197 45.6208 41.27 45.6208 41.446C45.6208 41.5927 45.6684 41.7174 45.7638 41.82C45.8591 41.9227 46.0168 42.0217 46.2368 42.117C46.4568 42.205 46.7428 42.3114 47.0948 42.436C47.4541 42.5607 47.7768 42.7 48.0628 42.854C48.3488 43.008 48.5724 43.2024 48.7338 43.437C48.8951 43.6717 48.9758 43.965 48.9758 44.317C48.9758 44.6324 48.8988 44.9294 48.7448 45.208C48.5981 45.4794 48.3488 45.6994 47.9968 45.868C47.6521 46.0367 47.1828 46.121 46.5888 46.121ZM52.0565 46.121C51.6239 46.121 51.2095 46.077 50.8135 45.989C50.4249 45.901 50.0912 45.791 49.8125 45.659L50.1535 44.713C50.3075 44.779 50.4835 44.8487 50.6815 44.922C50.8795 44.988 51.0959 45.0467 51.3305 45.098C51.5652 45.142 51.8035 45.164 52.0455 45.164C52.4122 45.164 52.7055 45.1017 52.9255 44.977C53.1529 44.845 53.2665 44.6544 53.2665 44.405C53.2665 44.251 53.2189 44.119 53.1235 44.009C53.0282 43.8917 52.8852 43.789 52.6945 43.701C52.5039 43.6057 52.2655 43.5104 51.9795 43.415C51.5395 43.2684 51.1655 43.1144 50.8575 42.953C50.5495 42.7844 50.3149 42.5864 50.1535 42.359C49.9922 42.1244 49.9115 41.8347 49.9115 41.49C49.9115 41.1527 49.9995 40.863 50.1755 40.621C50.3589 40.379 50.6265 40.192 50.9785 40.06C51.3379 39.9207 51.7815 39.851 52.3095 39.851C52.6762 39.851 53.0172 39.884 53.3325 39.95C53.6552 40.0087 53.9045 40.093 54.0805 40.203V41.171C53.9559 41.1124 53.7982 41.0537 53.6075 40.995C53.4169 40.9364 53.2079 40.8887 52.9805 40.852C52.7605 40.8154 52.5369 40.797 52.3095 40.797C51.8695 40.797 51.5542 40.863 51.3635 40.995C51.1802 41.1197 51.0885 41.27 51.0885 41.446C51.0885 41.5927 51.1362 41.7174 51.2315 41.82C51.3269 41.9227 51.4845 42.0217 51.7045 42.117C51.9245 42.205 52.2105 42.3114 52.5625 42.436C52.9219 42.5607 53.2445 42.7 53.5305 42.854C53.8165 43.008 54.0402 43.2024 54.2015 43.437C54.3629 43.6717 54.4435 43.965 54.4435 44.317C54.4435 44.6324 54.3665 44.9294 54.2125 45.208C54.0659 45.4794 53.8165 45.6994 53.4645 45.868C53.1199 46.0367 52.6505 46.121 52.0565 46.121ZM58.8113 46.11C58.3273 46.11 57.9166 46.0147 57.5793 45.824C57.2493 45.6334 57.022 45.373 56.8973 45.043H56.8313L56.7433 46H55.8083V39.972H56.9853V43.283C56.9853 43.6644 57.044 43.9907 57.1613 44.262C57.2786 44.5334 57.451 44.7424 57.6783 44.889C57.9056 45.0357 58.1806 45.109 58.5033 45.109C58.8993 45.109 59.1963 45.0027 59.3943 44.79C59.5923 44.57 59.6913 44.2474 59.6913 43.822V39.972H60.8683V43.976C60.8683 44.4527 60.7876 44.8487 60.6263 45.164C60.465 45.4794 60.2303 45.7177 59.9223 45.879C59.6143 46.033 59.244 46.11 58.8113 46.11Z" fill="#5B3722"/>
<path d="M30.9341 62V58.018C30.9341 57.578 30.8278 57.2664 30.6151 57.083C30.4098 56.8924 30.0725 56.797 29.6031 56.797C29.2291 56.797 28.8698 56.8484 28.5251 56.951C28.1878 57.0537 27.8725 57.1894 27.5791 57.358V56.313C27.7918 56.203 28.0815 56.1004 28.4481 56.005C28.8221 55.9024 29.2438 55.851 29.7131 55.851C30.1018 55.851 30.4391 55.8987 30.7251 55.994C31.0111 56.082 31.2201 56.247 31.3521 56.489C31.6308 56.6064 31.8251 56.7934 31.9351 57.05C32.0451 57.3067 32.1001 57.622 32.1001 57.996V62H30.9341ZM29.0641 62.11C28.4261 62.11 27.9348 61.9634 27.5901 61.67C27.2528 61.3694 27.0841 60.9404 27.0841 60.383C27.0841 59.7817 27.3005 59.3124 27.7331 58.975C28.1731 58.6377 28.8808 58.4397 29.8561 58.381L31.1541 58.293V59.217L29.9991 59.305C29.3465 59.3564 28.8918 59.4664 28.6351 59.635C28.3858 59.8037 28.2611 60.042 28.2611 60.35C28.2611 60.6507 28.3565 60.8707 28.5471 61.01C28.7378 61.1494 28.9981 61.219 29.3281 61.219C29.4455 61.219 29.5518 61.2117 29.6471 61.197C29.7498 61.175 29.8451 61.153 29.9331 61.131L30.0761 61.956C29.9368 62.0074 29.7791 62.044 29.6031 62.066C29.4345 62.0954 29.2548 62.11 29.0641 62.11ZM31.3191 56.918L30.6701 56.335C30.8828 56.291 31.0698 56.2067 31.2311 56.082C31.3925 55.9574 31.4731 55.7887 31.4731 55.576H32.5731C32.5731 55.8034 32.5218 56.0087 32.4191 56.192C32.3165 56.3754 32.1698 56.5294 31.9791 56.654C31.7958 56.7714 31.5758 56.8594 31.3191 56.918ZM31.2189 55.312C30.8376 55.312 30.5369 55.224 30.3169 55.048C30.0896 54.8647 29.9759 54.6117 29.9759 54.289C29.9759 53.959 30.0896 53.706 30.3169 53.53C30.5369 53.354 30.8376 53.266 31.2189 53.266C31.6003 53.266 31.9083 53.354 32.1429 53.53C32.3703 53.706 32.4839 53.959 32.4839 54.289C32.4839 54.6117 32.3703 54.8647 32.1429 55.048C31.9083 55.224 31.6003 55.312 31.2189 55.312ZM31.2189 54.751C31.3876 54.751 31.5196 54.7107 31.6149 54.63C31.7029 54.542 31.7469 54.4284 31.7469 54.289C31.7469 54.1424 31.7029 54.0287 31.6149 53.948C31.5196 53.8674 31.3876 53.827 31.2189 53.827C31.0503 53.827 30.9219 53.8674 30.8339 53.948C30.7459 54.0287 30.7019 54.1424 30.7019 54.289C30.7019 54.4284 30.7459 54.542 30.8339 54.63C30.9219 54.7107 31.0503 54.751 31.2189 54.751ZM35.4997 62V57.809C35.4997 57.4644 35.4191 57.2114 35.2577 57.05C35.1037 56.8887 34.8397 56.808 34.4657 56.808C34.2091 56.808 33.9671 56.8447 33.7397 56.918C33.5197 56.984 33.3107 57.0757 33.1127 57.193V56.181C33.2667 56.1077 33.4794 56.0344 33.7507 55.961C34.0294 55.8877 34.3594 55.851 34.7407 55.851C35.1294 55.851 35.4667 55.9097 35.7527 56.027C36.0461 56.137 36.2734 56.3204 36.4347 56.577C36.5961 56.8337 36.6767 57.182 36.6767 57.622V62H35.4997ZM40.1972 62.121C39.7645 62.121 39.3502 62.077 38.9542 61.989C38.5655 61.901 38.2318 61.791 37.9532 61.659L38.2942 60.713C38.4482 60.779 38.6242 60.8487 38.8222 60.922C39.0202 60.988 39.2365 61.0467 39.4712 61.098C39.7058 61.142 39.9442 61.164 40.1862 61.164C40.5528 61.164 40.8462 61.1017 41.0662 60.977C41.2935 60.845 41.4072 60.6544 41.4072 60.405C41.4072 60.251 41.3595 60.119 41.2642 60.009C41.1688 59.8917 41.0258 59.789 40.8352 59.701C40.6445 59.6057 40.4062 59.5104 40.1202 59.415C39.6802 59.2684 39.3062 59.1144 38.9982 58.953C38.6902 58.7844 38.4555 58.5864 38.2942 58.359C38.1328 58.1244 38.0522 57.8347 38.0522 57.49C38.0522 57.1527 38.1402 56.863 38.3162 56.621C38.4995 56.379 38.7672 56.192 39.1192 56.06C39.4785 55.9207 39.9222 55.851 40.4502 55.851C40.8168 55.851 41.1578 55.884 41.4732 55.95C41.7958 56.0087 42.0452 56.093 42.2212 56.203V57.171C42.0965 57.1124 41.9388 57.0537 41.7482 56.995C41.5575 56.9364 41.3485 56.8887 41.1212 56.852C40.9012 56.8154 40.6775 56.797 40.4502 56.797C40.0102 56.797 39.6948 56.863 39.5042 56.995C39.3208 57.1197 39.2292 57.27 39.2292 57.446C39.2292 57.5927 39.2768 57.7174 39.3722 57.82C39.4675 57.9227 39.6252 58.0217 39.8452 58.117C40.0652 58.205 40.3512 58.3114 40.7032 58.436C41.0625 58.5607 41.3852 58.7 41.6712 58.854C41.9572 59.008 42.1808 59.2024 42.3422 59.437C42.5035 59.6717 42.5842 59.965 42.5842 60.317C42.5842 60.6324 42.5072 60.9294 42.3532 61.208C42.2065 61.4794 41.9572 61.6994 41.6052 61.868C41.2605 62.0367 40.7912 62.121 40.1972 62.121ZM45.1809 62.121C44.8729 62.121 44.5759 62.088 44.2899 62.022C44.0039 61.956 43.7106 61.8424 43.4099 61.681L43.7619 60.801C43.9233 60.8964 44.1103 60.9807 44.3229 61.054C44.5356 61.12 44.7703 61.153 45.0269 61.153C45.5256 61.153 45.9179 60.966 46.2039 60.592C46.4899 60.218 46.6329 59.6754 46.6329 58.964C46.6329 58.2674 46.4863 57.7357 46.1929 57.369C45.9069 57.0024 45.4596 56.819 44.8509 56.819C44.6163 56.819 44.3743 56.8484 44.1249 56.907C43.8829 56.9584 43.6703 57.0354 43.4869 57.138V56.159C43.7069 56.049 43.9489 55.972 44.2129 55.928C44.4769 55.8767 44.7446 55.851 45.0159 55.851C45.6833 55.851 46.2223 55.9794 46.6329 56.236C47.0509 56.4927 47.3553 56.8557 47.5459 57.325C47.7439 57.787 47.8429 58.3334 47.8429 58.964C47.8429 59.954 47.6156 60.7277 47.1609 61.285C46.7136 61.8424 46.0536 62.121 45.1809 62.121ZM49.9994 62V59.36H49.2184V58.524H51.0884V61.076H51.2204C51.5211 61.076 51.7741 61.0064 51.9794 60.867C52.1848 60.7204 52.3388 60.493 52.4414 60.185C52.5441 59.8697 52.5954 59.4627 52.5954 58.964C52.5954 58.4507 52.5331 58.0364 52.4084 57.721C52.2911 57.3984 52.1004 57.1674 51.8364 57.028C51.5724 56.8814 51.2278 56.808 50.8024 56.808C50.4431 56.808 50.1058 56.8594 49.7904 56.962C49.4751 57.0574 49.1781 57.193 48.8994 57.369V56.313C49.1268 56.1884 49.4201 56.082 49.7794 55.994C50.1461 55.8987 50.5458 55.851 50.9784 55.851C51.6604 55.851 52.2068 55.972 52.6174 56.214C53.0281 56.456 53.3251 56.808 53.5084 57.27C53.6991 57.732 53.7944 58.2967 53.7944 58.964C53.7944 59.6094 53.7064 60.1594 53.5304 60.614C53.3544 61.0614 53.0648 61.406 52.6614 61.648C52.2581 61.8827 51.7228 62 51.0554 62H49.9994Z" fill="#5B3722"/>
</svg>
