<svg width="201" height="59" viewBox="0 0 201 59" fill="none" xmlns="http://www.w3.org/2000/svg">
<g filter="url(#filter0_ddd_1_12)">
<path d="M119.426 7.01548C123.446 7.01548 127.429 6.99675 131.42 7.00049C146.256 7.01174 161.096 6.993 175.924 7.05295C176.268 9.19604 176.97 11.0469 179.021 11.9686C179.712 12.2795 181.027 12.1671 181.345 12.6092C181.877 13.3548 181.057 16.0412 182.088 17.4761C182.671 18.2892 184.922 19.9302 184.829 17.8808L183.728 17.6972C184.386 16.6444 185.849 17.1052 185.506 18.3641C185.373 18.8549 184.637 19.0722 184.837 19.7504C189.031 18.6901 192.445 25.3142 188.181 26.7042C184.512 27.8993 183.521 22.6615 186.536 22.3805C190.505 22.0096 187.294 27.1613 186.315 24.8084C185.953 23.9429 187.774 24.3213 187.782 23.6918C187.782 23.5757 186.921 22.6952 186.536 22.7702C185.605 22.9575 184.726 25.5539 186.189 26.0635C190.265 27.4797 190.472 21.4326 186.858 20.5109L186.681 21.6274C185.62 21.4701 184.874 20.6945 183.725 21.0542C183.144 21.5188 184.186 23.3846 184.09 24.4075C183.994 25.4303 183.096 26.3745 182.62 27.2474C183.359 27.5472 184.05 26.1197 184.282 26.1347C184.53 26.1497 184.685 26.9439 184.944 27.135C185.65 27.6521 188.162 27.8132 189.012 27.5509C189.541 27.3861 190.062 26.5056 190.195 26.5093C190.361 26.5131 190.749 27.2662 191.111 27.3973C191.506 27.5397 192.833 27.2811 192.97 27.8207C193.247 28.9222 191.362 28.3864 191.096 28.5812C190.79 28.8098 190.886 29.5067 190.557 29.5142C189.969 29.5254 189.515 28.7461 188.92 28.5475C187.708 28.1429 185.797 28.4688 184.715 29.1245C184.367 29.3343 184.56 29.9975 184.282 29.8776C183.802 29.6678 183.47 28.5288 182.62 28.7573C183.399 29.7614 183.854 30.8067 183.928 32.1106C183.976 32.9761 183.229 34.6583 183.713 34.9468C184.774 35.4863 185.775 34.8906 186.684 34.3736C185.679 36.7677 188.358 34.9993 188.979 33.8865C191.281 29.7502 185.642 28.4314 185.262 31.2788C184.962 33.5006 188.417 33.4369 187.793 32.3166C185.047 31.5636 186.906 29.8926 188.07 31.1027C190.446 33.5718 183.47 35.5238 184.918 30.5183C185.724 27.7382 191.251 29.102 189.847 33.6467C189.023 36.3068 184.822 36.2319 184.848 36.8089C184.848 36.8951 185.413 37.2398 185.487 37.6257C185.712 38.7984 184.549 39.4915 183.736 38.3038L184.663 38.1165C185.007 38.1727 185.317 36.9775 183.64 37.4646C180.384 38.405 181.925 43.3431 181.515 43.7402C181.437 43.8151 179.989 43.7777 179.357 43.9912C177.458 44.6244 175.902 46.9361 176.345 48.993L25.0559 49.0117C24.6458 47.7529 24.2098 45.7859 23.1936 44.8567C22.2107 43.9575 19.7867 43.8563 19.4652 43.3918C18.9885 42.7099 19.4837 40.4694 19.2952 39.4428C19.0661 38.2176 16.5756 35.9734 15.9807 38.1202L17.0856 38.3038C16.4278 39.3566 14.9646 38.8958 15.3082 37.6369C15.4412 37.1461 16.1766 36.9288 15.977 36.2506C10.5526 37.3634 8.53505 28.6149 14.2182 29.2182C18.0722 29.6265 15.7923 35.299 13.0763 33.568C11.6426 32.6538 13.76 29.4842 14.4953 31.1926C14.8796 32.0881 13.505 31.6235 13.3904 31.7509C12.1969 33.0472 15.929 34.19 15.6112 31.2001C15.3525 28.7461 9.90594 29.3905 11.8237 33.9015C12.3115 35.0442 15.286 36.6852 14.1295 34.3736C15.3156 34.7557 16.0583 35.4414 17.4514 35.1191C16.8934 32.7175 16.7456 30.6044 18.5599 28.7573C17.3664 28.4126 17.2371 30.0237 16.5313 29.8813C16.1987 29.8139 16.4315 29.3455 16.0842 29.1282C14.3327 28.0267 11.8754 27.8843 10.438 29.5066C10.5526 27.9518 8.67547 28.8697 8.21358 28.3789C7.24545 27.3448 9.87637 27.5434 9.98353 27.5134C10.05 27.4947 10.0611 26.8952 10.2754 26.8615C11.1364 26.7304 12.766 28.0942 14.9719 27.5584C15.6777 27.386 16.232 26.618 16.5867 26.558C17.1779 26.4606 17.4662 27.4722 18.1867 27.2587C18.1128 26.2471 17.2777 25.9174 17.1003 24.8046C16.6569 22.0058 18.9922 19.6829 14.1221 21.6349L14.8574 20.6983C14.3659 20.3236 12.8805 20.9755 12.2708 21.2603C11.214 23.4783 10.8778 26.8016 14.2884 26.1234C15.8588 25.8087 15.8662 23.6244 15.1678 23.1898C13.6084 22.2194 12.1119 24.5236 14.4842 24.2613C13.9891 27.0826 11.3692 23.5869 13.3757 22.5716C16.195 21.1441 17.7839 26.4194 14.2662 26.8728C10.6191 27.3448 9.52535 22.5641 12.2671 21.264C13.2463 19.2033 15.3489 20.2824 15.9622 19.7616C16.0694 19.6717 15.3341 17.7047 15.5964 17.1427L17.0671 17.7084C17.2703 18.8886 16.1729 17.6635 15.9659 17.892C15.2528 18.6713 17.3738 19.5668 18.7114 17.8658C19.7867 16.502 18.9183 13.6958 19.7424 12.7329C20.049 12.3769 21.2574 12.3582 21.8375 12.0435C23.8624 10.9495 24.6975 9.34215 24.8453 7.0417L51.4354 7.02297C53.8853 7.33769 56.3795 7.34144 58.8257 7.02297C58.9476 7.02297 59.0732 7.02297 59.1952 7.02297C61.2718 7.34144 63.4002 7.34518 65.4769 7.02297C65.7245 7.02297 65.9683 7.02297 66.2159 7.02297C69.1572 7.33769 72.1429 7.33769 75.0842 7.02297C76.5955 7.02297 78.0403 7.02297 79.5184 7.02297C81.9682 7.33769 84.4624 7.34144 86.9086 7.02297L88.0171 7.02297C89.2181 7.34893 90.5077 7.34144 91.7123 7.02297C92.6952 7.02297 93.6855 7.02297 94.6684 7.02297C98.09 7.26276 101.671 7.46883 105.015 7.02297C105.754 7.02297 106.493 7.02297 107.232 7.02297C109.682 7.34144 112.176 7.34144 114.622 7.02297C114.87 7.02297 115.113 7.02297 115.361 7.02297C116.688 7.35268 118.099 7.34144 119.426 7.02297L119.426 7.01548Z" fill="#5B3722"/>
</g>
<path d="M94.6684 7.01548C98.1122 7.01548 101.571 7.01548 105.015 7.01548C104.63 7.63742 103.614 7.39015 102.986 7.39764C100.318 7.42761 97.2069 7.67864 94.6684 7.01548Z" fill="#5B3722"/>
<path d="M66.2159 7.01548C69.1683 7.01548 72.1318 7.01548 75.0842 7.01548C72.4385 7.64117 68.8616 7.64117 66.2159 7.01548Z" fill="#5B3722"/>
<path d="M51.4354 7.01548C53.8927 7.01548 56.3684 7.01548 58.8257 7.01548C56.7084 7.64117 53.5823 7.64492 51.4354 7.01548Z" fill="#5B3722"/>
<path d="M107.232 7.01548C109.689 7.01548 112.165 7.01548 114.622 7.01548C112.505 7.64117 109.379 7.64492 107.232 7.01548Z" fill="#5B3722"/>
<path d="M79.5184 7.01548C81.9793 7.01548 84.4477 7.01548 86.9086 7.01548C84.7913 7.64117 81.6652 7.64492 79.5184 7.01548Z" fill="#5B3722"/>
<path d="M59.1952 7.01548C61.2866 7.01548 63.3855 7.01548 65.4769 7.01548C63.7624 7.64492 60.9356 7.64492 59.1952 7.01548Z" fill="#5B3722"/>
<path d="M115.361 7.01548C116.713 7.01548 118.073 7.01548 119.426 7.01548C118.487 7.65616 116.226 7.63743 115.361 7.01548Z" fill="#5B3722"/>
<path d="M88.0171 7.01548C89.2439 7.01548 90.4855 7.01548 91.7123 7.01548C90.8956 7.65616 88.7636 7.63742 88.0171 7.01548Z" fill="#5B3722"/>
<path d="M180.717 42.9347C178.503 43.3543 177.162 44.291 176.057 46.2654C175.407 47.4269 176.087 48.401 174.317 48.6221C168.807 49.3115 161.325 48.3411 155.612 48.3523C145.251 48.3711 134.727 48.6146 124.433 48.6221C91.5423 48.6483 58.6298 48.4348 25.8134 48.6221C24.7492 45.3587 23.4707 43.5191 20.0047 42.7586L20.0047 13.2387C21.9225 12.6317 23.6703 11.9985 24.7788 10.1477C25.3663 9.16606 25.1594 7.58122 26.4749 7.57748L175.381 7.74233C176.065 10.9232 177.687 12.5381 180.787 13.2424C180.82 23.2385 181.06 32.9723 180.72 42.9384L180.717 42.9347Z" fill="#F8F3E8"/>
<path d="M181.504 26.8728C180.872 25.3629 182.246 24.9133 182.25 24.7859C182.276 23.8679 181.223 22.4629 182.978 21.6274C183.41 23.5083 183.957 26.3332 181.507 26.869L181.504 26.8728Z" fill="#F8F3E8"/>
<path d="M182.978 34.3661C181.223 33.5231 182.28 32.1293 182.254 31.2076C182.254 31.084 180.876 30.6307 181.507 29.1208C183.591 29.694 183.636 32.6538 182.978 34.3623L182.978 34.3661Z" fill="#F8F3E8"/>
<path d="M19.2842 26.8728C16.2209 26.0597 17.9835 19.8703 18.8629 22.6315C19.1733 23.6057 18.523 24.8645 18.5932 24.9582C18.9331 25.419 20.171 24.9207 19.2842 26.8728Z" fill="#F8F3E8"/>
<path d="M19.1474 30.8742C19.0994 31.0016 18.5525 31.0091 18.5451 31.2151C18.5119 32.2117 19.7424 33.5605 17.8135 34.3698C17.529 32.3204 17.0893 29.7464 19.6574 29.1282C19.3692 29.6902 19.3692 30.2972 19.1474 30.8779L19.1474 30.8742Z" fill="#F8F3E8"/>
<path d="M18.922 20.125C19.1031 20.3348 20.1414 19.638 19.1031 21.6274C18.5969 20.1737 17.6583 20.7732 16.7087 19.9414L19.6537 17.8808C20.1119 18.6414 18.8444 20.0314 18.922 20.125Z" fill="#F8F3E8"/>
<path d="M19.6537 38.1127L16.7013 35.8685C18.2089 35.1529 19.9789 36.3555 19.6537 38.1127Z" fill="#F8F3E8"/>
<path d="M184.09 36.6103C182.971 36.6515 182.365 37.5732 181.507 38.1127C181.297 36.8014 182.246 35.1529 183.617 35.7636C184.135 35.9959 184.197 35.8385 184.087 36.6066L184.09 36.6103Z" fill="#F8F3E8"/>
<path d="M184.09 20.125C182.42 20.953 181.33 19.5331 181.507 17.8808L184.09 20.125Z" fill="#F8F3E8"/>
<path d="M62.4015 30.0005V25.4005H61.2615V23.5605H65.1015V27.7205H65.2415C65.6815 27.7205 66.0548 27.6005 66.3615 27.3605C66.6815 27.1205 66.9215 26.7672 67.0815 26.3005C67.2415 25.8205 67.3215 25.2205 67.3215 24.5005C67.3215 23.6738 67.2015 23.0205 66.9615 22.5405C66.7348 22.0472 66.3948 21.6938 65.9415 21.4805C65.4881 21.2672 64.9281 21.1605 64.2615 21.1605C63.5681 21.1605 62.9415 21.2605 62.3815 21.4605C61.8215 21.6472 61.3215 21.8738 60.8815 22.1405V19.6405C61.3215 19.4138 61.8748 19.2138 62.5415 19.0405C63.2081 18.8672 63.9748 18.7805 64.8415 18.7805C66.1348 18.7805 67.1815 18.9872 67.9815 19.4005C68.7948 19.8138 69.3948 20.4405 69.7815 21.2805C70.1681 22.1205 70.3615 23.1738 70.3615 24.4405C70.3615 25.6272 70.1815 26.6405 69.8215 27.4805C69.4748 28.3072 68.9015 28.9338 68.1015 29.3605C67.3148 29.7872 66.2615 30.0005 64.9415 30.0005H62.4015ZM77.0333 30.2605C75.4067 30.2605 74.2 29.8672 73.4133 29.0805C72.6267 28.2805 72.2333 27.1005 72.2333 25.5405C72.2333 25.2738 72.24 24.9538 72.2533 24.5805C72.28 24.1938 72.3133 23.8538 72.3533 23.5605H77.1533V25.4605H75.1733V25.7405C75.1733 26.2738 75.24 26.7138 75.3733 27.0605C75.5067 27.3938 75.7067 27.6405 75.9733 27.8005C76.2533 27.9605 76.6 28.0405 77.0133 28.0405C77.4667 28.0405 77.8467 27.9405 78.1533 27.7405C78.4733 27.5405 78.7133 27.2005 78.8733 26.7205C79.0467 26.2405 79.1333 25.5805 79.1333 24.7405C79.1333 23.9538 79.04 23.3005 78.8533 22.7805C78.68 22.2472 78.38 21.8472 77.9533 21.5805C77.54 21.3138 76.9667 21.1805 76.2333 21.1805C75.8333 21.1805 75.42 21.2272 74.9933 21.3205C74.5667 21.4005 74.16 21.5072 73.7733 21.6405C73.4 21.7738 73.0733 21.9205 72.7933 22.0805V19.5805C73.0867 19.4205 73.4467 19.2805 73.8733 19.1605C74.3133 19.0405 74.7867 18.9472 75.2933 18.8805C75.8 18.8138 76.3 18.7805 76.7933 18.7805C78.0867 18.7805 79.1267 19.0205 79.9133 19.5005C80.7133 19.9672 81.2933 20.6338 81.6533 21.5005C82.0267 22.3672 82.2133 23.3938 82.2133 24.5805C82.2133 25.7938 82.0333 26.8272 81.6733 27.6805C81.3267 28.5205 80.7733 29.1605 80.0133 29.6005C79.2533 30.0405 78.26 30.2605 77.0333 30.2605ZM86.4088 30.0005L83.2288 19.0405H86.2488L88.6688 27.5805H88.7888C89.0021 27.5805 89.2021 27.5205 89.3888 27.4005C89.5755 27.2805 89.7355 27.1205 89.8688 26.9205C90.1355 26.5472 90.3355 26.1072 90.4688 25.6005C90.6021 25.0805 90.6688 24.5672 90.6688 24.0605C90.6688 23.1672 90.4955 22.4805 90.1488 22.0005C89.8155 21.5205 89.3488 21.2805 88.7488 21.2805C88.6288 21.2805 88.5155 21.2872 88.4088 21.3005C88.3155 21.3138 88.2288 21.3405 88.1488 21.3805L87.5888 19.0805C87.8955 18.9872 88.1821 18.9338 88.4488 18.9205C88.7288 18.8938 88.9555 18.8805 89.1288 18.8805C89.8355 18.8805 90.4488 18.9738 90.9688 19.1605C91.4888 19.3472 91.9355 19.6272 92.3088 20.0005C92.7755 20.4538 93.1221 21.0205 93.3488 21.7005C93.5888 22.3805 93.7088 23.1472 93.7088 24.0005C93.7088 25.0805 93.5355 26.0272 93.1888 26.8405C92.8555 27.6405 92.4488 28.2738 91.9688 28.7405C91.5688 29.1272 91.0621 29.4338 90.4488 29.6605C89.8488 29.8872 89.0221 30.0005 87.9688 30.0005H86.4088ZM99.0346 30.2005C98.4346 30.2005 97.9279 30.1072 97.5146 29.9205C97.1012 29.7338 96.7879 29.4538 96.5746 29.0805C96.3612 28.6938 96.2546 28.2138 96.2546 27.6405V19.0405H99.2546V27.2805C99.2546 27.5338 99.3079 27.7205 99.4146 27.8405C99.5346 27.9605 99.7146 28.0205 99.9546 28.0205C100.061 28.0205 100.175 28.0072 100.295 27.9805C100.415 27.9538 100.528 27.9205 100.635 27.8805L100.915 29.8005C100.661 29.9338 100.375 30.0338 100.055 30.1005C99.7346 30.1672 99.3946 30.2005 99.0346 30.2005ZM108.933 30.0005V22.8805C108.933 22.2405 108.76 21.7805 108.413 21.5005C108.066 21.2205 107.533 21.0805 106.813 21.0805C106.12 21.0805 105.44 21.1872 104.773 21.4005C104.12 21.6005 103.553 21.8405 103.073 22.1205V19.6405C103.46 19.4538 104.006 19.2672 104.713 19.0805C105.42 18.8805 106.24 18.7805 107.173 18.7805C107.853 18.7805 108.473 18.8538 109.033 19.0005C109.606 19.1338 110.106 19.3672 110.533 19.7005C110.96 20.0205 111.286 20.4538 111.513 21.0005C111.753 21.5338 111.873 22.2005 111.873 23.0005V30.0005H108.933ZM105.653 30.2005C104.506 30.2005 103.62 29.9272 102.993 29.3805C102.38 28.8338 102.073 28.0672 102.073 27.0805C102.073 26.0138 102.453 25.1605 103.213 24.5205C103.986 23.8805 105.2 23.4938 106.853 23.3605L109.413 23.1605V25.3205L107.193 25.5405C106.393 25.6205 105.833 25.7805 105.513 26.0205C105.206 26.2605 105.053 26.5805 105.053 26.9805C105.053 27.3805 105.18 27.6805 105.433 27.8805C105.7 28.0805 106.04 28.1805 106.453 28.1805C106.613 28.1805 106.773 28.1672 106.933 28.1405C107.093 28.1005 107.24 28.0605 107.373 28.0205L107.633 29.9005C107.38 29.9938 107.08 30.0672 106.733 30.1205C106.386 30.1738 106.026 30.2005 105.653 30.2005ZM119.306 30.2605C118.106 30.2605 117.146 30.1205 116.426 29.8405C115.706 29.5472 115.179 29.1405 114.846 28.6205C114.526 28.1005 114.366 27.5005 114.366 26.8205C114.366 26.2338 114.452 25.7605 114.626 25.4005C114.812 25.0405 115.046 24.7672 115.326 24.5805C115.619 24.3805 115.912 24.2472 116.206 24.1805V24.0605C115.899 23.9538 115.606 23.8072 115.326 23.6205C115.046 23.4338 114.812 23.1805 114.626 22.8605C114.452 22.5405 114.366 22.1405 114.366 21.6605C114.366 21.1672 114.479 20.7072 114.706 20.2805C114.946 19.8538 115.326 19.5138 115.846 19.2605C116.366 18.9938 117.052 18.8605 117.906 18.8605C118.319 18.8605 118.719 18.8938 119.106 18.9605C119.492 19.0138 119.792 19.0938 120.006 19.2005L119.546 21.2205C119.439 21.1938 119.292 21.1672 119.106 21.1405C118.932 21.1005 118.752 21.0805 118.566 21.0805C118.152 21.0805 117.846 21.1805 117.646 21.3805C117.446 21.5672 117.346 21.8138 117.346 22.1205C117.346 22.4405 117.432 22.6872 117.606 22.8605C117.779 23.0338 117.999 23.1538 118.266 23.2205C118.546 23.2872 118.832 23.3205 119.126 23.3205H119.546V25.1805H119.126C118.552 25.1805 118.119 25.2805 117.826 25.4805C117.546 25.6805 117.406 26.0072 117.406 26.4605C117.406 26.7005 117.459 26.9405 117.566 27.1805C117.686 27.4072 117.886 27.6005 118.166 27.7605C118.446 27.9072 118.846 27.9805 119.366 27.9805C119.859 27.9805 120.246 27.9072 120.526 27.7605C120.806 27.6138 121.006 27.4205 121.126 27.1805C121.246 26.9272 121.306 26.6472 121.306 26.3405V19.0405H124.306V26.2405C124.306 27.6138 123.899 28.6272 123.086 29.2805C122.286 29.9338 121.026 30.2605 119.306 30.2605ZM129.767 25.2605H127.387L126.887 15.7205H130.267L129.767 25.2605ZM126.847 28.6005C126.847 27.9872 127.014 27.5605 127.347 27.3205C127.68 27.0672 128.087 26.9405 128.567 26.9405C129.034 26.9405 129.434 27.0672 129.767 27.3205C130.1 27.5605 130.267 27.9872 130.267 28.6005C130.267 29.1872 130.1 29.6138 129.767 29.8805C129.434 30.1338 129.034 30.2605 128.567 30.2605C128.087 30.2605 127.68 30.1338 127.347 29.8805C127.014 29.6138 126.847 29.1872 126.847 28.6005ZM135.49 25.2605H133.11L132.61 15.7205H135.99L135.49 25.2605ZM132.57 28.6005C132.57 27.9872 132.736 27.5605 133.07 27.3205C133.403 27.0672 133.81 26.9405 134.29 26.9405C134.756 26.9405 135.156 27.0672 135.49 27.3205C135.823 27.5605 135.99 27.9872 135.99 28.6005C135.99 29.1872 135.823 29.6138 135.49 29.8805C135.156 30.1338 134.756 30.2605 134.29 30.2605C133.81 30.2605 133.403 30.1338 133.07 29.8805C132.736 29.6138 132.57 29.1872 132.57 28.6005ZM141.212 25.2605H138.832L138.332 15.7205H141.712L141.212 25.2605ZM138.292 28.6005C138.292 27.9872 138.459 27.5605 138.792 27.3205C139.126 27.0672 139.532 26.9405 140.012 26.9405C140.479 26.9405 140.879 27.0672 141.212 27.3205C141.546 27.5605 141.712 27.9872 141.712 28.6005C141.712 29.1872 141.546 29.6138 141.212 29.8805C140.879 30.1338 140.479 30.2605 140.012 30.2605C139.532 30.2605 139.126 30.1338 138.792 29.8805C138.459 29.6138 138.292 29.1872 138.292 28.6005Z" fill="#5B3722"/>
<defs>
<filter id="filter0_ddd_1_12" x="0" y="0" width="200.997" height="58.0117" filterUnits="userSpaceOnUse" color-interpolation-filters="sRGB">
<feFlood flood-opacity="0" result="BackgroundImageFix"/>
<feColorMatrix in="SourceAlpha" type="matrix" values="0 0 0 0 0 0 0 0 0 0 0 0 0 0 0 0 0 0 127 0" result="hardAlpha"/>
<feMorphology radius="2" operator="erode" in="SourceAlpha" result="effect1_dropShadow_1_12"/>
<feOffset dy="3"/>
<feGaussianBlur stdDeviation="1.5"/>
<feComposite in2="hardAlpha" operator="out"/>
<feColorMatrix type="matrix" values="0 0 0 0 0 0 0 0 0 0 0 0 0 0 0 0 0 0 0.2 0"/>
<feBlend mode="normal" in2="BackgroundImageFix" result="effect1_dropShadow_1_12"/>
<feColorMatrix in="SourceAlpha" type="matrix" values="0 0 0 0 0 0 0 0 0 0 0 0 0 0 0 0 0 0 127 0" result="hardAlpha"/>
<feOffset dy="3"/>
<feGaussianBlur stdDeviation="2"/>
<feComposite in2="hardAlpha" operator="out"/>
<feColorMatrix type="matrix" values="0 0 0 0 0 0 0 0 0 0 0 0 0 0 0 0 0 0 0.14 0"/>
<feBlend mode="normal" in2="effect1_dropShadow_1_12" result="effect2_dropShadow_1_12"/>
<feColorMatrix in="SourceAlpha" type="matrix" values="0 0 0 0 0 0 0 0 0 0 0 0 0 0 0 0 0 0 127 0" result="hardAlpha"/>
<feOffset dy="1"/>
<feGaussianBlur stdDeviation="4"/>
<feComposite in2="hardAlpha" operator="out"/>
<feColorMatrix type="matrix" values="0 0 0 0 0 0 0 0 0 0 0 0 0 0 0 0 0 0 0.12 0"/>
<feBlend mode="normal" in2="effect2_dropShadow_1_12" result="effect3_dropShadow_1_12"/>
<feBlend mode="normal" in="SourceGraphic" in2="effect3_dropShadow_1_12" result="shape"/>
</filter>
</defs>
</svg>
