<svg width="201" height="59" viewBox="0 0 201 59" fill="none" xmlns="http://www.w3.org/2000/svg">
<g filter="url(#filter0_ddd_1_52)">
<path d="M119.426 7.01548C123.446 7.01548 127.429 6.99675 131.42 7.00049C146.256 7.01173 161.096 6.993 175.924 7.05295C176.268 9.19603 176.97 11.0469 179.021 11.9686C179.712 12.2795 181.027 12.1671 181.345 12.6092C181.877 13.3548 181.057 16.0412 182.088 17.4761C182.671 18.2892 184.922 19.9302 184.829 17.8808L183.728 17.6972C184.386 16.6444 185.849 17.1052 185.506 18.3641C185.373 18.8549 184.637 19.0722 184.837 19.7504C189.031 18.6901 192.445 25.3141 188.181 26.7042C184.512 27.8993 183.521 22.6615 186.536 22.3805C190.505 22.0096 187.294 27.1612 186.315 24.8083C185.953 23.9429 187.774 24.3213 187.782 23.6918C187.782 23.5757 186.921 22.6952 186.536 22.7702C185.605 22.9575 184.726 25.5539 186.189 26.0635C190.265 27.4797 190.472 21.4326 186.858 20.5109L186.681 21.6274C185.62 21.4701 184.874 20.6945 183.725 21.0542C183.144 21.5188 184.186 23.3846 184.09 24.4075C183.994 25.4303 183.096 26.3745 182.62 27.2474C183.359 27.5472 184.05 26.1197 184.282 26.1347C184.53 26.1497 184.685 26.9439 184.944 27.135C185.65 27.6521 188.162 27.8132 189.012 27.5509C189.541 27.386 190.062 26.5056 190.195 26.5093C190.361 26.5131 190.749 27.2662 191.111 27.3973C191.506 27.5397 192.833 27.2811 192.97 27.8207C193.247 28.9222 191.362 28.3864 191.096 28.5812C190.79 28.8098 190.886 29.5067 190.557 29.5141C189.969 29.5254 189.515 28.7461 188.92 28.5475C187.708 28.1429 185.797 28.4688 184.715 29.1245C184.367 29.3343 184.56 29.9975 184.282 29.8776C183.802 29.6678 183.47 28.5288 182.62 28.7573C183.399 29.7614 183.854 30.8067 183.928 32.1106C183.976 32.9761 183.229 34.6583 183.713 34.9468C184.774 35.4863 185.775 34.8906 186.684 34.3736C185.679 36.7677 188.358 34.9993 188.979 33.8865C191.281 29.7502 185.642 28.4314 185.262 31.2788C184.962 33.5006 188.417 33.4369 187.793 32.3166C185.047 31.5636 186.906 29.8926 188.07 31.1027C190.446 33.5718 183.47 35.5238 184.918 30.5183C185.724 27.7382 191.251 29.102 189.847 33.6467C189.023 36.3068 184.822 36.2319 184.848 36.8089C184.848 36.8951 185.413 37.2398 185.487 37.6257C185.712 38.7984 184.549 39.4915 183.736 38.3038L184.663 38.1165C185.007 38.1727 185.317 36.9775 183.64 37.4645C180.384 38.405 181.925 43.3431 181.515 43.7402C181.437 43.8151 179.989 43.7777 179.357 43.9912C177.458 44.6244 175.902 46.9361 176.345 48.993L25.0559 49.0117C24.6458 47.7529 24.2098 45.7859 23.1936 44.8567C22.2107 43.9575 19.7867 43.8563 19.4652 43.3918C18.9885 42.7099 19.4837 40.4694 19.2952 39.4428C19.0661 38.2176 16.5756 35.9734 15.9807 38.1202L17.0856 38.3038C16.4278 39.3566 14.9646 38.8958 15.3082 37.6369C15.4412 37.1461 16.1766 36.9288 15.977 36.2506C10.5526 37.3634 8.53505 28.6149 14.2182 29.2182C18.0722 29.6265 15.7923 35.299 13.0764 33.568C11.6426 32.6538 13.7599 29.4842 14.4953 31.1926C14.8796 32.0881 13.505 31.6235 13.3904 31.7509C12.1969 33.0472 15.929 34.19 15.6112 31.2001C15.3526 28.7461 9.90594 29.3905 11.8237 33.9015C12.3115 35.0442 15.286 36.6852 14.1295 34.3736C15.3156 34.7557 16.0583 35.4414 17.4514 35.1191C16.8934 32.7175 16.7456 30.6044 18.5599 28.7573C17.3664 28.4126 17.2371 30.0237 16.5313 29.8813C16.1987 29.8139 16.4315 29.3455 16.0842 29.1282C14.3327 28.0267 11.8754 27.8843 10.438 29.5066C10.5526 27.9518 8.67546 28.8697 8.21358 28.3789C7.24545 27.3448 9.87637 27.5434 9.98353 27.5134C10.05 27.4947 10.0611 26.8952 10.2755 26.8615C11.1364 26.7304 12.766 28.0942 14.972 27.5584C15.6777 27.386 16.232 26.618 16.5867 26.558C17.1779 26.4606 17.4662 27.4722 18.1867 27.2587C18.1128 26.2471 17.2777 25.9174 17.1003 24.8046C16.6569 22.0058 18.9922 19.6829 14.1221 21.6349L14.8574 20.6983C14.366 20.3236 12.8805 20.9755 12.2708 21.2603C11.214 23.4783 10.8778 26.8016 14.2884 26.1234C15.8588 25.8087 15.8662 23.6244 15.1678 23.1898C13.6084 22.2194 12.1119 24.5236 14.4842 24.2613C13.9891 27.0826 11.3692 23.5869 13.3757 22.5716C16.195 21.1441 17.7839 26.4194 14.2662 26.8727C10.6191 27.3448 9.52534 22.5641 12.2671 21.264C13.2463 19.2033 15.3489 20.2824 15.9622 19.7616C16.0694 19.6717 15.3341 17.7047 15.5964 17.1427L17.0671 17.7084C17.2703 18.8886 16.1729 17.6635 15.9659 17.892C15.2528 18.6713 17.3738 19.5668 18.7114 17.8658C19.7867 16.502 18.9183 13.6958 19.7424 12.7329C20.049 12.3769 21.2574 12.3582 21.8375 12.0435C23.8624 10.9495 24.6975 9.34215 24.8453 7.0417L51.4354 7.02297C53.8853 7.33769 56.3795 7.34144 58.8257 7.02297C58.9476 7.02297 59.0732 7.02297 59.1952 7.02297C61.2719 7.34144 63.4002 7.34518 65.4769 7.02297C65.7245 7.02297 65.9683 7.02297 66.2159 7.02297C69.1572 7.33769 72.1429 7.33769 75.0842 7.02297C76.5955 7.02297 78.0403 7.02297 79.5184 7.02297C81.9682 7.33769 84.4624 7.34144 86.9086 7.02297L88.0171 7.02297C89.2181 7.34893 90.5077 7.34144 91.7123 7.02297C92.6952 7.02297 93.6855 7.02297 94.6684 7.02297C98.09 7.26276 101.671 7.46882 105.015 7.02297C105.754 7.02297 106.493 7.02297 107.232 7.02297C109.682 7.34144 112.176 7.34144 114.622 7.02297C114.87 7.02297 115.113 7.02297 115.361 7.02297C116.688 7.35268 118.099 7.34144 119.426 7.02297L119.426 7.01548Z" fill="#B71931"/>
</g>
<path d="M94.6684 7.01548C98.1122 7.01548 101.571 7.01548 105.015 7.01548C104.63 7.63742 103.614 7.39015 102.986 7.39764C100.318 7.42761 97.2069 7.67864 94.6684 7.01548Z" fill="#B71931"/>
<path d="M66.2159 7.01548C69.1683 7.01548 72.1318 7.01548 75.0842 7.01548C72.4385 7.64117 68.8616 7.64117 66.2159 7.01548Z" fill="#B71931"/>
<path d="M51.4354 7.01548C53.8927 7.01548 56.3684 7.01548 58.8257 7.01548C56.7084 7.64117 53.5823 7.64492 51.4354 7.01548Z" fill="#B71931"/>
<path d="M107.232 7.01548C109.689 7.01548 112.165 7.01548 114.622 7.01548C112.505 7.64117 109.379 7.64492 107.232 7.01548Z" fill="#B71931"/>
<path d="M79.5184 7.01548C81.9793 7.01548 84.4477 7.01548 86.9086 7.01548C84.7913 7.64117 81.6652 7.64492 79.5184 7.01548Z" fill="#B71931"/>
<path d="M59.1952 7.01548C61.2866 7.01548 63.3855 7.01548 65.4769 7.01548C63.7624 7.64492 60.9356 7.64492 59.1952 7.01548Z" fill="#B71931"/>
<path d="M115.361 7.01548C116.713 7.01548 118.073 7.01548 119.426 7.01548C118.487 7.65616 116.226 7.63742 115.361 7.01548Z" fill="#B71931"/>
<path d="M88.0171 7.01548C89.2439 7.01548 90.4855 7.01548 91.7123 7.01548C90.8956 7.65616 88.7636 7.63742 88.0171 7.01548Z" fill="#B71931"/>
<path d="M180.717 42.9347C178.503 43.3543 177.162 44.291 176.057 46.2654C175.407 47.4269 176.087 48.401 174.317 48.6221C168.807 49.3115 161.325 48.3411 155.612 48.3523C145.251 48.3711 134.727 48.6146 124.433 48.6221C91.5423 48.6483 58.6298 48.4348 25.8134 48.6221C24.7492 45.3588 23.4707 43.5191 20.0047 42.7586L20.0047 13.2387C21.9225 12.6317 23.6703 11.9985 24.7788 10.1477C25.3663 9.16606 25.1594 7.58122 26.4749 7.57748L175.381 7.74234C176.065 10.9232 177.687 12.5381 180.787 13.2424C180.82 23.2385 181.06 32.9723 180.72 42.9384L180.717 42.9347Z" fill="#F8F3E8"/>
<path d="M181.504 26.8728C180.872 25.3629 182.246 24.9133 182.25 24.7859C182.276 23.8679 181.223 22.4629 182.978 21.6274C183.41 23.5083 183.957 26.3332 181.507 26.869L181.504 26.8728Z" fill="#F8F3E8"/>
<path d="M182.978 34.3661C181.223 33.5231 182.28 32.1293 182.254 31.2076C182.254 31.084 180.876 30.6307 181.507 29.1208C183.591 29.694 183.636 32.6538 182.978 34.3623L182.978 34.3661Z" fill="#F8F3E8"/>
<path d="M19.2842 26.8727C16.2209 26.0597 17.9835 19.8702 18.8629 22.6315C19.1733 23.6057 18.523 24.8645 18.5932 24.9582C18.9331 25.419 20.171 24.9207 19.2842 26.8727Z" fill="#F8F3E8"/>
<path d="M19.1474 30.8742C19.0994 31.0016 18.5525 31.0091 18.5451 31.2151C18.5119 32.2117 19.7424 33.5605 17.8135 34.3698C17.529 32.3204 17.0893 29.7464 19.6574 29.1282C19.3692 29.6902 19.3692 30.2972 19.1474 30.8779L19.1474 30.8742Z" fill="#F8F3E8"/>
<path d="M18.922 20.125C19.1031 20.3348 20.1414 19.638 19.1031 21.6274C18.5969 20.1737 17.6583 20.7732 16.7087 19.9414L19.6537 17.8808C20.1119 18.6413 18.8444 20.0314 18.922 20.125Z" fill="#F8F3E8"/>
<path d="M19.6537 38.1127L16.7013 35.8685C18.2089 35.1529 19.9789 36.3555 19.6537 38.1127Z" fill="#F8F3E8"/>
<path d="M184.09 36.6103C182.971 36.6515 182.365 37.5732 181.507 38.1127C181.297 36.8014 182.246 35.1529 183.617 35.7636C184.135 35.9959 184.197 35.8385 184.087 36.6066L184.09 36.6103Z" fill="#F8F3E8"/>
<path d="M184.09 20.125C182.42 20.953 181.33 19.5331 181.507 17.8808L184.09 20.125Z" fill="#F8F3E8"/>
<path d="M46.4833 30.2605C45.2833 30.2605 44.3233 30.1205 43.6033 29.8405C42.8833 29.5472 42.3566 29.1405 42.0233 28.6205C41.7033 28.1005 41.5433 27.5005 41.5433 26.8205C41.5433 26.2338 41.6299 25.7605 41.8033 25.4005C41.9899 25.0405 42.2233 24.7672 42.5033 24.5805C42.7966 24.3805 43.0899 24.2472 43.3833 24.1805V24.0605C43.0766 23.9538 42.7833 23.8072 42.5033 23.6205C42.2233 23.4338 41.9899 23.1805 41.8033 22.8605C41.6299 22.5405 41.5433 22.1405 41.5433 21.6605C41.5433 21.1672 41.6566 20.7072 41.8833 20.2805C42.1233 19.8538 42.5033 19.5138 43.0233 19.2605C43.5433 18.9938 44.2299 18.8605 45.0833 18.8605C45.4966 18.8605 45.8966 18.8938 46.2833 18.9605C46.6699 19.0138 46.9699 19.0938 47.1833 19.2005L46.7233 21.2205C46.6166 21.1938 46.4699 21.1672 46.2833 21.1405C46.1099 21.1005 45.9299 21.0805 45.7433 21.0805C45.3299 21.0805 45.0233 21.1805 44.8233 21.3805C44.6233 21.5672 44.5233 21.8138 44.5233 22.1205C44.5233 22.4405 44.6099 22.6872 44.7833 22.8605C44.9566 23.0338 45.1766 23.1538 45.4433 23.2205C45.7233 23.2872 46.0099 23.3205 46.3033 23.3205H46.7233V25.1805H46.3033C45.7299 25.1805 45.2966 25.2805 45.0033 25.4805C44.7233 25.6805 44.5833 26.0072 44.5833 26.4605C44.5833 26.7005 44.6366 26.9405 44.7433 27.1805C44.8633 27.4072 45.0633 27.6005 45.3433 27.7605C45.6233 27.9072 46.0233 27.9805 46.5433 27.9805C47.0366 27.9805 47.4233 27.9072 47.7033 27.7605C47.9833 27.6138 48.1833 27.4205 48.3033 27.1805C48.4233 26.9272 48.4833 26.6472 48.4833 26.3405V19.0405H51.4833V26.2405C51.4833 27.6138 51.0766 28.6272 50.2633 29.2805C49.4633 29.9338 48.2033 30.2605 46.4833 30.2605ZM54.1847 30.0005V26.6605C54.1847 25.8205 54.3513 25.1738 54.6847 24.7205C55.018 24.2672 55.4913 23.9472 56.1047 23.7605L56.1247 23.6805L53.9847 22.9005V22.3805C53.9847 21.7272 54.178 21.1272 54.5647 20.5805C54.9513 20.0338 55.518 19.6005 56.2647 19.2805C57.0247 18.9472 57.9447 18.7805 59.0247 18.7805C60.038 18.7805 60.9113 18.9405 61.6447 19.2605C62.378 19.5672 62.9447 20.0338 63.3447 20.6605C63.758 21.2738 63.9647 22.0538 63.9647 23.0005V30.0005H60.9647V23.1805C60.9647 22.5138 60.7847 22.0138 60.4247 21.6805C60.078 21.3472 59.5847 21.1805 58.9447 21.1805C58.3313 21.1805 57.8713 21.3138 57.5647 21.5805C57.258 21.8338 57.0913 22.1472 57.0647 22.5205L58.8447 23.3405L58.6247 24.6405C58.1447 24.6672 57.7847 24.8405 57.5447 25.1605C57.3047 25.4805 57.1847 25.9138 57.1847 26.4605V30.0005H54.1847ZM69.8451 30.2005C69.2451 30.2005 68.7385 30.1072 68.3251 29.9205C67.9118 29.7338 67.5985 29.4538 67.3851 29.0805C67.1718 28.6938 67.0651 28.2138 67.0651 27.6405V19.0405H70.0651V27.2805C70.0651 27.5338 70.1185 27.7205 70.2251 27.8405C70.3451 27.9605 70.5251 28.0205 70.7651 28.0205C70.8718 28.0205 70.9851 28.0072 71.1051 27.9805C71.2251 27.9538 71.3385 27.9205 71.4451 27.8805L71.7251 29.8005C71.4718 29.9338 71.1851 30.0338 70.8651 30.1005C70.5451 30.1672 70.2051 30.2005 69.8451 30.2005ZM79.7434 30.0005V22.8805C79.7434 22.2405 79.5701 21.7805 79.2234 21.5005C78.8767 21.2205 78.3434 21.0805 77.6234 21.0805C76.9301 21.0805 76.2501 21.1872 75.5834 21.4005C74.9301 21.6005 74.3634 21.8405 73.8834 22.1205V19.6405C74.2701 19.4538 74.8167 19.2672 75.5234 19.0805C76.2301 18.8805 77.0501 18.7805 77.9834 18.7805C78.6634 18.7805 79.2834 18.8538 79.8434 19.0005C80.4167 19.1338 80.9167 19.3672 81.3434 19.7005C81.7701 20.0205 82.0967 20.4538 82.3234 21.0005C82.5634 21.5338 82.6834 22.2005 82.6834 23.0005V30.0005H79.7434ZM76.4634 30.2005C75.3167 30.2005 74.4301 29.9272 73.8034 29.3805C73.1901 28.8338 72.8834 28.0672 72.8834 27.0805C72.8834 26.0138 73.2634 25.1605 74.0234 24.5205C74.7967 23.8805 76.0101 23.4938 77.6634 23.3605L80.2234 23.1605V25.3205L78.0034 25.5405C77.2034 25.6205 76.6434 25.7805 76.3234 26.0205C76.0167 26.2605 75.8634 26.5805 75.8634 26.9805C75.8634 27.3805 75.9901 27.6805 76.2434 27.8805C76.5101 28.0805 76.8501 28.1805 77.2634 28.1805C77.4234 28.1805 77.5834 28.1672 77.7434 28.1405C77.9034 28.1005 78.0501 28.0605 78.1834 28.0205L78.4434 29.9005C78.1901 29.9938 77.8901 30.0672 77.5434 30.1205C77.1967 30.1738 76.8367 30.2005 76.4634 30.2005ZM73.3165 17.5205V16.2605L75.3365 15.4205H82.4765V17.5205H73.3165ZM85.3761 30.0005V26.6605C85.3761 25.8205 85.5427 25.1738 85.8761 24.7205C86.2094 24.2672 86.6827 23.9472 87.2961 23.7605L87.3161 23.6805L85.1761 22.9005V22.3805C85.1761 21.7272 85.3694 21.1272 85.7561 20.5805C86.1427 20.0338 86.7094 19.6005 87.4561 19.2805C88.2161 18.9472 89.1361 18.7805 90.2161 18.7805C91.2294 18.7805 92.1027 18.9405 92.8361 19.2605C93.5694 19.5672 94.1361 20.0338 94.5361 20.6605C94.9494 21.2738 95.1561 22.0538 95.1561 23.0005V30.0005H92.1561V23.1805C92.1561 22.5138 91.9761 22.0138 91.6161 21.6805C91.2694 21.3472 90.7761 21.1805 90.1361 21.1805C89.5227 21.1805 89.0627 21.3138 88.7561 21.5805C88.4494 21.8338 88.2827 22.1472 88.2561 22.5205L90.0361 23.3405L89.8161 24.6405C89.3361 24.6672 88.9761 24.8405 88.7361 25.1605C88.4961 25.4805 88.3761 25.9138 88.3761 26.4605V30.0005H85.3761ZM97.8565 30.0005V26.6605C97.8565 25.8205 98.0232 25.1738 98.3565 24.7205C98.6899 24.2672 99.1632 23.9472 99.7765 23.7605L99.7965 23.6805L97.6565 22.9005V22.3805C97.6565 21.7272 97.8499 21.1272 98.2365 20.5805C98.6232 20.0338 99.1899 19.6005 99.9365 19.2805C100.697 18.9472 101.617 18.7805 102.697 18.7805C103.71 18.7805 104.583 18.9405 105.317 19.2605C106.05 19.5672 106.617 20.0338 107.017 20.6605C107.43 21.2738 107.637 22.0538 107.637 23.0005V30.0005H104.637V23.1805C104.637 22.5138 104.457 22.0138 104.097 21.6805C103.75 21.3472 103.257 21.1805 102.617 21.1805C102.003 21.1805 101.543 21.3138 101.237 21.5805C100.93 21.8338 100.763 22.1472 100.737 22.5205L102.517 23.3405L102.297 24.6405C101.817 24.6672 101.457 24.8405 101.217 25.1605C100.977 25.4805 100.857 25.9138 100.857 26.4605V30.0005H97.8565ZM113.337 30.0005V22.7605C113.337 22.2005 113.204 21.7938 112.937 21.5405C112.684 21.2872 112.264 21.1605 111.677 21.1605C111.237 21.1605 110.83 21.2205 110.457 21.3405C110.097 21.4605 109.757 21.6072 109.437 21.7805V19.3805C109.73 19.2472 110.144 19.1138 110.677 18.9805C111.21 18.8472 111.837 18.7805 112.557 18.7805C113.29 18.7805 113.937 18.8872 114.497 19.1005C115.07 19.3138 115.517 19.6738 115.837 20.1805C116.17 20.6738 116.337 21.3538 116.337 22.2205V30.0005H113.337ZM122.888 30.2605C122.102 30.2605 121.308 30.1738 120.508 30.0005C119.722 29.8272 119.022 29.5805 118.408 29.2605L119.248 26.8805C119.515 27.0272 119.835 27.1805 120.208 27.3405C120.582 27.5005 120.988 27.6338 121.428 27.7405C121.868 27.8472 122.315 27.9005 122.768 27.9005C123.302 27.9005 123.702 27.8272 123.968 27.6805C124.248 27.5205 124.388 27.2805 124.388 26.9605C124.388 26.7205 124.295 26.5272 124.108 26.3805C123.935 26.2205 123.675 26.0738 123.328 25.9405C122.982 25.7938 122.568 25.6405 122.088 25.4805C121.382 25.2272 120.775 24.9538 120.268 24.6605C119.762 24.3672 119.368 24.0072 119.088 23.5805C118.822 23.1538 118.688 22.6205 118.688 21.9805C118.688 21.2472 118.875 20.6472 119.248 20.1805C119.622 19.7138 120.148 19.3672 120.828 19.1405C121.508 18.9005 122.302 18.7805 123.208 18.7805C123.955 18.7805 124.628 18.8405 125.228 18.9605C125.828 19.0805 126.295 19.2338 126.628 19.4205V21.7805C126.402 21.6738 126.102 21.5672 125.728 21.4605C125.368 21.3538 124.975 21.2672 124.548 21.2005C124.135 21.1205 123.735 21.0805 123.348 21.0805C122.802 21.0805 122.388 21.1538 122.108 21.3005C121.828 21.4472 121.688 21.6538 121.688 21.9205C121.688 22.1338 121.782 22.3138 121.968 22.4605C122.168 22.6072 122.455 22.7472 122.828 22.8805C123.202 23.0005 123.648 23.1538 124.168 23.3405C124.862 23.5805 125.448 23.8472 125.928 24.1405C126.408 24.4338 126.768 24.7938 127.008 25.2205C127.262 25.6472 127.388 26.1738 127.388 26.8005C127.388 27.4005 127.248 27.9672 126.968 28.5005C126.702 29.0205 126.242 29.4472 125.588 29.7805C124.935 30.1005 124.035 30.2605 122.888 30.2605ZM130.38 30.0005V25.4005H129.24V23.5605H133.08V27.7205H133.22C133.66 27.7205 134.033 27.6005 134.34 27.3605C134.66 27.1205 134.9 26.7672 135.06 26.3005C135.22 25.8205 135.3 25.2205 135.3 24.5005C135.3 23.6738 135.18 23.0205 134.94 22.5405C134.713 22.0472 134.373 21.6938 133.92 21.4805C133.467 21.2672 132.907 21.1605 132.24 21.1605C131.547 21.1605 130.92 21.2605 130.36 21.4605C129.8 21.6472 129.3 21.8738 128.86 22.1405V19.6405C129.3 19.4138 129.853 19.2138 130.52 19.0405C131.187 18.8672 131.953 18.7805 132.82 18.7805C134.113 18.7805 135.16 18.9872 135.96 19.4005C136.773 19.8138 137.373 20.4405 137.76 21.2805C138.147 22.1205 138.34 23.1738 138.34 24.4405C138.34 25.6272 138.16 26.6405 137.8 27.4805C137.453 28.3072 136.88 28.9338 136.08 29.3605C135.293 29.7872 134.24 30.0005 132.92 30.0005H130.38ZM145.012 30.2605C143.385 30.2605 142.179 29.8672 141.392 29.0805C140.605 28.2805 140.212 27.1005 140.212 25.5405C140.212 25.2738 140.219 24.9538 140.232 24.5805C140.259 24.1938 140.292 23.8538 140.332 23.5605H145.132V25.4605H143.152V25.7405C143.152 26.2738 143.219 26.7138 143.352 27.0605C143.485 27.3938 143.685 27.6405 143.952 27.8005C144.232 27.9605 144.579 28.0405 144.992 28.0405C145.445 28.0405 145.825 27.9405 146.132 27.7405C146.452 27.5405 146.692 27.2005 146.852 26.7205C147.025 26.2405 147.112 25.5805 147.112 24.7405C147.112 23.9538 147.019 23.3005 146.832 22.7805C146.659 22.2472 146.359 21.8472 145.932 21.5805C145.519 21.3138 144.945 21.1805 144.212 21.1805C143.812 21.1805 143.399 21.2272 142.972 21.3205C142.545 21.4005 142.139 21.5072 141.752 21.6405C141.379 21.7738 141.052 21.9205 140.772 22.0805V19.5805C141.065 19.4205 141.425 19.2805 141.852 19.1605C142.292 19.0405 142.765 18.9472 143.272 18.8805C143.779 18.8138 144.279 18.7805 144.772 18.7805C146.065 18.7805 147.105 19.0205 147.892 19.5005C148.692 19.9672 149.272 20.6338 149.632 21.5005C150.005 22.3672 150.192 23.3938 150.192 24.5805C150.192 25.7938 150.012 26.8272 149.652 27.6805C149.305 28.5205 148.752 29.1605 147.992 29.6005C147.232 30.0405 146.239 30.2605 145.012 30.2605ZM154.387 30.0005L151.207 19.0405H154.227L156.647 27.5805H156.767C156.981 27.5805 157.181 27.5205 157.367 27.4005C157.554 27.2805 157.714 27.1205 157.847 26.9205C158.114 26.5472 158.314 26.1072 158.447 25.6005C158.581 25.0805 158.647 24.5672 158.647 24.0605C158.647 23.1672 158.474 22.4805 158.127 22.0005C157.794 21.5205 157.327 21.2805 156.727 21.2805C156.607 21.2805 156.494 21.2872 156.387 21.3005C156.294 21.3138 156.207 21.3405 156.127 21.3805L155.567 19.0805C155.874 18.9872 156.161 18.9338 156.427 18.9205C156.707 18.8938 156.934 18.8805 157.107 18.8805C157.814 18.8805 158.427 18.9738 158.947 19.1605C159.467 19.3472 159.914 19.6272 160.287 20.0005C160.754 20.4538 161.101 21.0205 161.327 21.7005C161.567 22.3805 161.687 23.1472 161.687 24.0005C161.687 25.0805 161.514 26.0272 161.167 26.8405C160.834 27.6405 160.427 28.2738 159.947 28.7405C159.547 29.1272 159.041 29.4338 158.427 29.6605C157.827 29.8872 157.001 30.0005 155.947 30.0005H154.387Z" fill="#B71931"/>
<defs>
<filter id="filter0_ddd_1_52" x="0" y="0" width="200.997" height="58.0117" filterUnits="userSpaceOnUse" color-interpolation-filters="sRGB">
<feFlood flood-opacity="0" result="BackgroundImageFix"/>
<feColorMatrix in="SourceAlpha" type="matrix" values="0 0 0 0 0 0 0 0 0 0 0 0 0 0 0 0 0 0 127 0" result="hardAlpha"/>
<feMorphology radius="2" operator="erode" in="SourceAlpha" result="effect1_dropShadow_1_52"/>
<feOffset dy="3"/>
<feGaussianBlur stdDeviation="1.5"/>
<feComposite in2="hardAlpha" operator="out"/>
<feColorMatrix type="matrix" values="0 0 0 0 0 0 0 0 0 0 0 0 0 0 0 0 0 0 0.2 0"/>
<feBlend mode="normal" in2="BackgroundImageFix" result="effect1_dropShadow_1_52"/>
<feColorMatrix in="SourceAlpha" type="matrix" values="0 0 0 0 0 0 0 0 0 0 0 0 0 0 0 0 0 0 127 0" result="hardAlpha"/>
<feOffset dy="3"/>
<feGaussianBlur stdDeviation="2"/>
<feComposite in2="hardAlpha" operator="out"/>
<feColorMatrix type="matrix" values="0 0 0 0 0 0 0 0 0 0 0 0 0 0 0 0 0 0 0.14 0"/>
<feBlend mode="normal" in2="effect1_dropShadow_1_52" result="effect2_dropShadow_1_52"/>
<feColorMatrix in="SourceAlpha" type="matrix" values="0 0 0 0 0 0 0 0 0 0 0 0 0 0 0 0 0 0 127 0" result="hardAlpha"/>
<feOffset dy="1"/>
<feGaussianBlur stdDeviation="4"/>
<feComposite in2="hardAlpha" operator="out"/>
<feColorMatrix type="matrix" values="0 0 0 0 0 0 0 0 0 0 0 0 0 0 0 0 0 0 0.12 0"/>
<feBlend mode="normal" in2="effect2_dropShadow_1_52" result="effect3_dropShadow_1_52"/>
<feBlend mode="normal" in="SourceGraphic" in2="effect3_dropShadow_1_52" result="shape"/>
</filter>
</defs>
</svg>
