<svg width="201" height="59" viewBox="0 0 201 59" fill="none" xmlns="http://www.w3.org/2000/svg">
<g filter="url(#filter0_ddd_4580_4226)">
<path d="M119.426 7.01548C123.446 7.01548 127.429 6.99675 131.42 7.00049C146.256 7.01173 161.096 6.993 175.924 7.05295C176.268 9.19603 176.97 11.0469 179.021 11.9686C179.712 12.2795 181.027 12.1671 181.345 12.6092C181.877 13.3548 181.057 16.0412 182.088 17.4761C182.672 18.2892 184.922 19.9302 184.829 17.8808L183.728 17.6972C184.386 16.6444 185.849 17.1052 185.506 18.3641C185.373 18.8549 184.637 19.0722 184.837 19.7504C189.031 18.6901 192.445 25.3141 188.181 26.7042C184.512 27.8993 183.521 22.6615 186.537 22.3805C190.505 22.0096 187.294 27.1612 186.315 24.8083C185.953 23.9429 187.774 24.3213 187.782 23.6918C187.782 23.5757 186.921 22.6952 186.537 22.7702C185.605 22.9575 184.726 25.5539 186.189 26.0635C190.265 27.4797 190.472 21.4326 186.858 20.5109L186.681 21.6274C185.62 21.4701 184.874 20.6945 183.725 21.0542C183.144 21.5188 184.187 23.3846 184.09 24.4075C183.994 25.4303 183.096 26.3745 182.62 27.2474C183.359 27.5472 184.05 26.1197 184.283 26.1347C184.53 26.1497 184.685 26.9439 184.944 27.135C185.65 27.6521 188.162 27.8132 189.012 27.5509C189.541 27.386 190.062 26.5056 190.195 26.5093C190.361 26.5131 190.749 27.2662 191.111 27.3973C191.507 27.5397 192.833 27.2811 192.97 27.8207C193.247 28.9222 191.362 28.3864 191.096 28.5812C190.79 28.8098 190.886 29.5067 190.557 29.5141C189.969 29.5254 189.515 28.7461 188.92 28.5475C187.708 28.1429 185.798 28.4688 184.715 29.1245C184.368 29.3343 184.56 29.9975 184.283 29.8776C183.802 29.6678 183.47 28.5288 182.62 28.7573C183.399 29.7614 183.854 30.8067 183.928 32.1106C183.976 32.9761 183.229 34.6583 183.714 34.9468C184.774 35.4863 185.775 34.8906 186.684 34.3736C185.679 36.7677 188.358 34.9993 188.979 33.8865C191.281 29.7502 185.642 28.4314 185.262 31.2788C184.962 33.5006 188.417 33.4369 187.793 32.3166C185.047 31.5636 186.906 29.8926 188.07 31.1027C190.446 33.5718 183.47 35.5238 184.918 30.5183C185.724 27.7382 191.252 29.102 189.847 33.6467C189.023 36.3068 184.822 36.2319 184.848 36.8089C184.848 36.8951 185.413 37.2398 185.487 37.6257C185.713 38.7984 184.549 39.4915 183.736 38.3038L184.663 38.1165C185.007 38.1727 185.317 36.9775 183.64 37.4645C180.384 38.405 181.925 43.3431 181.515 43.7402C181.437 43.8151 179.989 43.7777 179.357 43.9912C177.458 44.6244 175.902 46.9361 176.345 48.993L25.0561 49.0117C24.6459 47.7529 24.2099 45.7859 23.1937 44.8567C22.2108 43.9575 19.7868 43.8563 19.4653 43.3918C18.9887 42.7099 19.4838 40.4694 19.2954 39.4428C19.0663 38.2176 16.5758 35.9734 15.9808 38.1202L17.0857 38.3038C16.4279 39.3566 14.9647 38.8958 15.3083 37.6369C15.4413 37.1461 16.1767 36.9288 15.9771 36.2506C10.5527 37.3634 8.53517 28.6149 14.2183 29.2182C18.0723 29.6265 15.7924 35.299 13.0765 33.568C11.6428 32.6538 13.7601 29.4842 14.4954 31.1926C14.8797 32.0881 13.5051 31.6235 13.3906 31.7509C12.197 33.0472 15.9291 34.19 15.6113 31.2001C15.3527 28.7461 9.90607 29.3905 11.8238 33.9015C12.3116 35.0442 15.2862 36.6852 14.1296 34.3736C15.3157 34.7557 16.0584 35.4414 17.4515 35.1191C16.8935 32.7175 16.7457 30.6044 18.56 28.7573C17.3665 28.4126 17.2372 30.0237 16.5314 29.8813C16.1989 29.8139 16.4316 29.3455 16.0843 29.1282C14.3328 28.0267 11.8756 27.8843 10.4382 29.5066C10.5527 27.9518 8.67558 28.8697 8.2137 28.3789C7.24557 27.3448 9.87649 27.5434 9.98366 27.5134C10.0502 27.4947 10.0612 26.8952 10.2756 26.8615C11.1365 26.7304 12.7661 28.0942 14.9721 27.5584C15.6778 27.386 16.2321 26.618 16.5868 26.558C17.1781 26.4606 17.4663 27.4722 18.1868 27.2587C18.1129 26.2471 17.2778 25.9174 17.1005 24.8046C16.657 22.0058 18.9924 19.6829 14.1222 21.6349L14.8575 20.6983C14.3661 20.3236 12.8806 20.9755 12.2709 21.2603C11.2141 23.4783 10.8779 26.8016 14.2885 26.1234C15.8589 25.8087 15.8663 23.6244 15.1679 23.1898C13.6086 22.2194 12.1121 24.5236 14.4843 24.2613C13.9892 27.0826 11.3693 23.5869 13.3758 22.5716C16.1952 21.1441 17.7841 26.4194 14.2663 26.8727C10.6192 27.3448 9.52547 22.5641 12.2672 21.264C13.2465 19.2033 15.349 20.2824 15.9624 19.7616C16.0695 19.6717 15.3342 17.7047 15.5965 17.1427L17.0672 17.7084C17.2704 18.8886 16.173 17.6635 15.9661 17.892C15.2529 18.6713 17.3739 19.5668 18.7115 17.8658C19.7868 16.502 18.9185 13.6958 19.7425 12.7329C20.0492 12.3769 21.2575 12.3582 21.8376 12.0435C23.8625 10.9495 24.6976 9.34215 24.8454 7.0417L51.4355 7.02297C53.8854 7.33769 56.3796 7.34144 58.8258 7.02297C58.9477 7.02297 59.0734 7.02297 59.1953 7.02297C61.272 7.34144 63.4004 7.34518 65.477 7.02297C65.7246 7.02297 65.9685 7.02297 66.216 7.02297C69.1574 7.33769 72.143 7.33769 75.0843 7.02297C76.5956 7.02297 78.0404 7.02297 79.5185 7.02297C81.9683 7.33769 84.4626 7.34144 86.9087 7.02297L88.0173 7.02297C89.2182 7.34893 90.5078 7.34144 91.7124 7.02297C92.6953 7.02297 93.6856 7.02297 94.6685 7.02297C98.0902 7.26276 101.671 7.46882 105.015 7.02297C105.754 7.02297 106.493 7.02297 107.232 7.02297C109.682 7.34144 112.176 7.34144 114.622 7.02297C114.87 7.02297 115.114 7.02297 115.361 7.02297C116.688 7.35268 118.099 7.34144 119.426 7.02297L119.426 7.01548Z" fill="#B71931"/>
</g>
<path d="M94.6683 7.01547C98.1122 7.01547 101.571 7.01547 105.015 7.01547C104.63 7.63742 103.614 7.39014 102.986 7.39763C100.318 7.4276 97.2069 7.67863 94.6683 7.01547Z" fill="#B71931"/>
<path d="M66.2162 7.01547C69.1686 7.01547 72.1321 7.01547 75.0845 7.01547C72.4388 7.64116 68.8619 7.64116 66.2162 7.01547Z" fill="#B71931"/>
<path d="M51.4354 7.01547C53.8927 7.01547 56.3684 7.01547 58.8257 7.01547C56.7084 7.64116 53.5823 7.64491 51.4354 7.01547Z" fill="#B71931"/>
<path d="M107.232 7.01547C109.689 7.01547 112.165 7.01547 114.622 7.01547C112.505 7.64116 109.379 7.64491 107.232 7.01547Z" fill="#B71931"/>
<path d="M79.5184 7.01547C81.9794 7.01547 84.4477 7.01547 86.9087 7.01547C84.7914 7.64116 81.6653 7.64491 79.5184 7.01547Z" fill="#B71931"/>
<path d="M59.1953 7.01547C61.2868 7.01547 63.3856 7.01547 65.4771 7.01547C63.7625 7.64491 60.9357 7.64491 59.1953 7.01547Z" fill="#B71931"/>
<path d="M115.361 7.01547C116.714 7.01547 118.073 7.01547 119.426 7.01547C118.487 7.65615 116.226 7.63742 115.361 7.01547Z" fill="#B71931"/>
<path d="M88.0173 7.01547C89.2441 7.01547 90.4856 7.01547 91.7124 7.01547C90.8958 7.65615 88.7637 7.63742 88.0173 7.01547Z" fill="#B71931"/>
<path d="M180.717 42.9347C178.503 43.3543 177.162 44.291 176.057 46.2654C175.407 47.4269 176.087 48.401 174.317 48.6221C168.807 49.3115 161.325 48.3411 155.612 48.3523C145.251 48.3711 134.727 48.6146 124.433 48.6221C91.5424 48.6483 58.63 48.4348 25.8136 48.6221C24.7494 45.3588 23.4709 43.5191 20.0049 42.7586L20.0049 13.2387C21.9226 12.6317 23.6704 11.9985 24.779 10.1477C25.3665 9.16606 25.1596 7.58122 26.475 7.57748L175.381 7.74234C176.065 10.9232 177.687 12.5381 180.787 13.2424C180.82 23.2385 181.06 32.9723 180.721 42.9384L180.717 42.9347Z" fill="#F8F3E8"/>
<path d="M181.504 26.8728C180.872 25.3629 182.247 24.9133 182.25 24.7859C182.276 23.8679 181.223 22.4629 182.978 21.6274C183.411 23.5083 183.958 26.3332 181.508 26.869L181.504 26.8728Z" fill="#F8F3E8"/>
<path d="M182.978 34.366C181.223 33.523 182.28 32.1293 182.254 31.2076C182.254 31.084 180.876 30.6306 181.508 29.1207C183.592 29.694 183.636 32.6538 182.978 34.3623L182.978 34.366Z" fill="#F8F3E8"/>
<path d="M19.2841 26.8727C16.2208 26.0597 17.9834 19.8702 18.8628 22.6315C19.1732 23.6056 18.5229 24.8645 18.5931 24.9582C18.933 25.419 20.1709 24.9207 19.2841 26.8727Z" fill="#F8F3E8"/>
<path d="M19.1478 30.8742C19.0997 31.0016 18.5529 31.0091 18.5455 31.2151C18.5122 32.2117 19.7427 33.5605 17.8138 34.3698C17.5293 32.3204 17.0896 29.7464 19.6577 29.1282C19.3695 29.6902 19.3695 30.2972 19.1478 30.8779L19.1478 30.8742Z" fill="#F8F3E8"/>
<path d="M18.9221 20.125C19.1032 20.3348 20.1415 19.6379 19.1032 21.6274C18.597 20.1737 17.6584 20.7732 16.7088 19.9414L19.6538 17.8808C20.112 18.6413 18.8445 20.0313 18.9221 20.125Z" fill="#F8F3E8"/>
<path d="M19.6538 38.1127L16.7014 35.8685C18.2091 35.1529 19.979 36.3555 19.6538 38.1127Z" fill="#F8F3E8"/>
<path d="M184.09 36.6103C182.971 36.6515 182.365 37.5732 181.507 38.1127C181.297 36.8014 182.246 35.1529 183.617 35.7636C184.135 35.9959 184.197 35.8385 184.086 36.6066L184.09 36.6103Z" fill="#F8F3E8"/>
<path d="M184.09 20.125C182.42 20.953 181.33 19.533 181.507 17.8808L184.09 20.125Z" fill="#F8F3E8"/>
<path d="M46.4834 30.2605C45.2834 30.2605 44.3234 30.1205 43.6034 29.8405C42.8834 29.5472 42.3567 29.1405 42.0234 28.6205C41.7034 28.1005 41.5434 27.5005 41.5434 26.8205C41.5434 26.2338 41.63 25.7605 41.8034 25.4005C41.99 25.0405 42.2234 24.7672 42.5034 24.5805C42.7967 24.3805 43.09 24.2472 43.3834 24.1805V24.0605C43.0767 23.9538 42.7834 23.8072 42.5034 23.6205C42.2234 23.4338 41.99 23.1805 41.8034 22.8605C41.63 22.5405 41.5434 22.1405 41.5434 21.6605C41.5434 21.1672 41.6567 20.7072 41.8834 20.2805C42.1234 19.8538 42.5034 19.5138 43.0234 19.2605C43.5434 18.9938 44.23 18.8605 45.0834 18.8605C45.4967 18.8605 45.8967 18.8938 46.2834 18.9605C46.67 19.0138 46.97 19.0938 47.1834 19.2005L46.7234 21.2205C46.6167 21.1938 46.47 21.1672 46.2834 21.1405C46.11 21.1005 45.93 21.0805 45.7434 21.0805C45.33 21.0805 45.0234 21.1805 44.8234 21.3805C44.6234 21.5672 44.5234 21.8138 44.5234 22.1205C44.5234 22.4405 44.61 22.6872 44.7834 22.8605C44.9567 23.0338 45.1767 23.1538 45.4434 23.2205C45.7234 23.2872 46.01 23.3205 46.3034 23.3205H46.7234V25.1805H46.3034C45.73 25.1805 45.2967 25.2805 45.0034 25.4805C44.7234 25.6805 44.5834 26.0072 44.5834 26.4605C44.5834 26.7005 44.6367 26.9405 44.7434 27.1805C44.8634 27.4072 45.0634 27.6005 45.3434 27.7605C45.6234 27.9072 46.0234 27.9805 46.5434 27.9805C47.0367 27.9805 47.4234 27.9072 47.7034 27.7605C47.9834 27.6138 48.1834 27.4205 48.3034 27.1805C48.4234 26.9272 48.4834 26.6472 48.4834 26.3405V19.0405H51.4834V26.2405C51.4834 27.6138 51.0767 28.6272 50.2634 29.2805C49.4634 29.9338 48.2034 30.2605 46.4834 30.2605ZM54.1848 30.0005V26.6605C54.1848 25.8205 54.3514 25.1738 54.6848 24.7205C55.0181 24.2672 55.4914 23.9472 56.1048 23.7605L56.1248 23.6805L53.9848 22.9005V22.3805C53.9848 21.7272 54.1781 21.1272 54.5648 20.5805C54.9514 20.0338 55.5181 19.6005 56.2648 19.2805C57.0248 18.9472 57.9448 18.7805 59.0248 18.7805C60.0381 18.7805 60.9114 18.9405 61.6448 19.2605C62.3781 19.5672 62.9448 20.0338 63.3448 20.6605C63.7581 21.2738 63.9648 22.0538 63.9648 23.0005V30.0005H60.9648V23.1805C60.9648 22.5138 60.7848 22.0138 60.4248 21.6805C60.0781 21.3472 59.5848 21.1805 58.9448 21.1805C58.3314 21.1805 57.8714 21.3138 57.5648 21.5805C57.2581 21.8338 57.0914 22.1472 57.0648 22.5205L58.8448 23.3405L58.6248 24.6405C58.1448 24.6672 57.7848 24.8405 57.5448 25.1605C57.3048 25.4805 57.1848 25.9138 57.1848 26.4605V30.0005H54.1848ZM69.8452 30.2005C69.2452 30.2005 68.7386 30.1072 68.3252 29.9205C67.9119 29.7338 67.5986 29.4538 67.3852 29.0805C67.1719 28.6938 67.0652 28.2138 67.0652 27.6405V19.0405H70.0652V27.2805C70.0652 27.5338 70.1186 27.7205 70.2252 27.8405C70.3452 27.9605 70.5252 28.0205 70.7652 28.0205C70.8719 28.0205 70.9852 28.0072 71.1052 27.9805C71.2252 27.9538 71.3386 27.9205 71.4452 27.8805L71.7252 29.8005C71.4719 29.9338 71.1852 30.0338 70.8652 30.1005C70.5452 30.1672 70.2052 30.2005 69.8452 30.2005ZM79.7435 30.0005V22.8805C79.7435 22.2405 79.5702 21.7805 79.2235 21.5005C78.8768 21.2205 78.3435 21.0805 77.6235 21.0805C76.9302 21.0805 76.2502 21.1872 75.5835 21.4005C74.9302 21.6005 74.3635 21.8405 73.8835 22.1205V19.6405C74.2702 19.4538 74.8168 19.2672 75.5235 19.0805C76.2302 18.8805 77.0502 18.7805 77.9835 18.7805C78.6635 18.7805 79.2835 18.8538 79.8435 19.0005C80.4168 19.1338 80.9168 19.3672 81.3435 19.7005C81.7702 20.0205 82.0968 20.4538 82.3235 21.0005C82.5635 21.5338 82.6835 22.2005 82.6835 23.0005V30.0005H79.7435ZM76.4635 30.2005C75.3168 30.2005 74.4302 29.9272 73.8035 29.3805C73.1902 28.8338 72.8835 28.0672 72.8835 27.0805C72.8835 26.0138 73.2635 25.1605 74.0235 24.5205C74.7968 23.8805 76.0102 23.4938 77.6635 23.3605L80.2235 23.1605V25.3205L78.0035 25.5405C77.2035 25.6205 76.6435 25.7805 76.3235 26.0205C76.0168 26.2605 75.8635 26.5805 75.8635 26.9805C75.8635 27.3805 75.9902 27.6805 76.2435 27.8805C76.5102 28.0805 76.8502 28.1805 77.2635 28.1805C77.4235 28.1805 77.5835 28.1672 77.7435 28.1405C77.9035 28.1005 78.0502 28.0605 78.1835 28.0205L78.4435 29.9005C78.1902 29.9938 77.8902 30.0672 77.5435 30.1205C77.1968 30.1738 76.8368 30.2005 76.4635 30.2005ZM73.3166 17.5205V16.2605L75.3366 15.4205H82.4766V17.5205H73.3166ZM85.3762 30.0005V26.6605C85.3762 25.8205 85.5428 25.1738 85.8762 24.7205C86.2095 24.2672 86.6828 23.9472 87.2962 23.7605L87.3162 23.6805L85.1762 22.9005V22.3805C85.1762 21.7272 85.3695 21.1272 85.7562 20.5805C86.1428 20.0338 86.7095 19.6005 87.4562 19.2805C88.2162 18.9472 89.1362 18.7805 90.2162 18.7805C91.2295 18.7805 92.1028 18.9405 92.8362 19.2605C93.5695 19.5672 94.1362 20.0338 94.5362 20.6605C94.9495 21.2738 95.1562 22.0538 95.1562 23.0005V30.0005H92.1562V23.1805C92.1562 22.5138 91.9762 22.0138 91.6162 21.6805C91.2695 21.3472 90.7762 21.1805 90.1362 21.1805C89.5228 21.1805 89.0628 21.3138 88.7562 21.5805C88.4495 21.8338 88.2828 22.1472 88.2562 22.5205L90.0362 23.3405L89.8162 24.6405C89.3362 24.6672 88.9762 24.8405 88.7362 25.1605C88.4962 25.4805 88.3762 25.9138 88.3762 26.4605V30.0005H85.3762ZM97.8566 30.0005V26.6605C97.8566 25.8205 98.0233 25.1738 98.3566 24.7205C98.69 24.2672 99.1633 23.9472 99.7766 23.7605L99.7966 23.6805L97.6566 22.9005V22.3805C97.6566 21.7272 97.85 21.1272 98.2366 20.5805C98.6233 20.0338 99.19 19.6005 99.9366 19.2805C100.697 18.9472 101.617 18.7805 102.697 18.7805C103.71 18.7805 104.583 18.9405 105.317 19.2605C106.05 19.5672 106.617 20.0338 107.017 20.6605C107.43 21.2738 107.637 22.0538 107.637 23.0005V30.0005H104.637V23.1805C104.637 22.5138 104.457 22.0138 104.097 21.6805C103.75 21.3472 103.257 21.1805 102.617 21.1805C102.003 21.1805 101.543 21.3138 101.237 21.5805C100.93 21.8338 100.763 22.1472 100.737 22.5205L102.517 23.3405L102.297 24.6405C101.817 24.6672 101.457 24.8405 101.217 25.1605C100.977 25.4805 100.857 25.9138 100.857 26.4605V30.0005H97.8566ZM113.337 30.0005V22.7605C113.337 22.2005 113.204 21.7938 112.937 21.5405C112.684 21.2872 112.264 21.1605 111.677 21.1605C111.237 21.1605 110.83 21.2205 110.457 21.3405C110.097 21.4605 109.757 21.6072 109.437 21.7805V19.3805C109.73 19.2472 110.144 19.1138 110.677 18.9805C111.21 18.8472 111.837 18.7805 112.557 18.7805C113.29 18.7805 113.937 18.8872 114.497 19.1005C115.07 19.3138 115.517 19.6738 115.837 20.1805C116.17 20.6738 116.337 21.3538 116.337 22.2205V30.0005H113.337ZM122.889 30.2605C122.102 30.2605 121.309 30.1738 120.509 30.0005C119.722 29.8272 119.022 29.5805 118.409 29.2605L119.249 26.8805C119.515 27.0272 119.835 27.1805 120.209 27.3405C120.582 27.5005 120.989 27.6338 121.429 27.7405C121.869 27.8472 122.315 27.9005 122.769 27.9005C123.302 27.9005 123.702 27.8272 123.969 27.6805C124.249 27.5205 124.389 27.2805 124.389 26.9605C124.389 26.7205 124.295 26.5272 124.109 26.3805C123.935 26.2205 123.675 26.0738 123.329 25.9405C122.982 25.7938 122.569 25.6405 122.089 25.4805C121.382 25.2272 120.775 24.9538 120.269 24.6605C119.762 24.3672 119.369 24.0072 119.089 23.5805C118.822 23.1538 118.689 22.6205 118.689 21.9805C118.689 21.2472 118.875 20.6472 119.249 20.1805C119.622 19.7138 120.149 19.3672 120.829 19.1405C121.509 18.9005 122.302 18.7805 123.209 18.7805C123.955 18.7805 124.629 18.8405 125.229 18.9605C125.829 19.0805 126.295 19.2338 126.629 19.4205V21.7805C126.402 21.6738 126.102 21.5672 125.729 21.4605C125.369 21.3538 124.975 21.2672 124.549 21.2005C124.135 21.1205 123.735 21.0805 123.349 21.0805C122.802 21.0805 122.389 21.1538 122.109 21.3005C121.829 21.4472 121.689 21.6538 121.689 21.9205C121.689 22.1338 121.782 22.3138 121.969 22.4605C122.169 22.6072 122.455 22.7472 122.829 22.8805C123.202 23.0005 123.649 23.1538 124.169 23.3405C124.862 23.5805 125.449 23.8472 125.929 24.1405C126.409 24.4338 126.769 24.7938 127.009 25.2205C127.262 25.6472 127.389 26.1738 127.389 26.8005C127.389 27.4005 127.249 27.9672 126.969 28.5005C126.702 29.0205 126.242 29.4472 125.589 29.7805C124.935 30.1005 124.035 30.2605 122.889 30.2605ZM130.38 30.0005V25.4005H129.24V23.5605H133.08V27.7205H133.22C133.66 27.7205 134.033 27.6005 134.34 27.3605C134.66 27.1205 134.9 26.7672 135.06 26.3005C135.22 25.8205 135.3 25.2205 135.3 24.5005C135.3 23.6738 135.18 23.0205 134.94 22.5405C134.713 22.0472 134.373 21.6938 133.92 21.4805C133.467 21.2672 132.907 21.1605 132.24 21.1605C131.547 21.1605 130.92 21.2605 130.36 21.4605C129.8 21.6472 129.3 21.8738 128.86 22.1405V19.6405C129.3 19.4138 129.853 19.2138 130.52 19.0405C131.187 18.8672 131.953 18.7805 132.82 18.7805C134.113 18.7805 135.16 18.9872 135.96 19.4005C136.773 19.8138 137.373 20.4405 137.76 21.2805C138.147 22.1205 138.34 23.1738 138.34 24.4405C138.34 25.6272 138.16 26.6405 137.8 27.4805C137.453 28.3072 136.88 28.9338 136.08 29.3605C135.293 29.7872 134.24 30.0005 132.92 30.0005H130.38ZM145.012 30.2605C143.385 30.2605 142.179 29.8672 141.392 29.0805C140.605 28.2805 140.212 27.1005 140.212 25.5405C140.212 25.2738 140.219 24.9538 140.232 24.5805C140.259 24.1938 140.292 23.8538 140.332 23.5605H145.132V25.4605H143.152V25.7405C143.152 26.2738 143.219 26.7138 143.352 27.0605C143.485 27.3938 143.685 27.6405 143.952 27.8005C144.232 27.9605 144.579 28.0405 144.992 28.0405C145.445 28.0405 145.825 27.9405 146.132 27.7405C146.452 27.5405 146.692 27.2005 146.852 26.7205C147.025 26.2405 147.112 25.5805 147.112 24.7405C147.112 23.9538 147.019 23.3005 146.832 22.7805C146.659 22.2472 146.359 21.8472 145.932 21.5805C145.519 21.3138 144.945 21.1805 144.212 21.1805C143.812 21.1805 143.399 21.2272 142.972 21.3205C142.545 21.4005 142.139 21.5072 141.752 21.6405C141.379 21.7738 141.052 21.9205 140.772 22.0805V19.5805C141.065 19.4205 141.425 19.2805 141.852 19.1605C142.292 19.0405 142.765 18.9472 143.272 18.8805C143.779 18.8138 144.279 18.7805 144.772 18.7805C146.065 18.7805 147.105 19.0205 147.892 19.5005C148.692 19.9672 149.272 20.6338 149.632 21.5005C150.005 22.3672 150.192 23.3938 150.192 24.5805C150.192 25.7938 150.012 26.8272 149.652 27.6805C149.305 28.5205 148.752 29.1605 147.992 29.6005C147.232 30.0405 146.239 30.2605 145.012 30.2605ZM154.387 30.0005L151.207 19.0405H154.227L156.647 27.5805H156.767C156.981 27.5805 157.181 27.5205 157.367 27.4005C157.554 27.2805 157.714 27.1205 157.847 26.9205C158.114 26.5472 158.314 26.1072 158.447 25.6005C158.581 25.0805 158.647 24.5672 158.647 24.0605C158.647 23.1672 158.474 22.4805 158.127 22.0005C157.794 21.5205 157.327 21.2805 156.727 21.2805C156.607 21.2805 156.494 21.2872 156.387 21.3005C156.294 21.3138 156.207 21.3405 156.127 21.3805L155.567 19.0805C155.874 18.9872 156.161 18.9338 156.427 18.9205C156.707 18.8938 156.934 18.8805 157.107 18.8805C157.814 18.8805 158.427 18.9738 158.947 19.1605C159.467 19.3472 159.914 19.6272 160.287 20.0005C160.754 20.4538 161.101 21.0205 161.327 21.7005C161.567 22.3805 161.687 23.1472 161.687 24.0005C161.687 25.0805 161.514 26.0272 161.167 26.8405C160.834 27.6405 160.427 28.2738 159.947 28.7405C159.547 29.1272 159.041 29.4338 158.427 29.6605C157.827 29.8872 157.001 30.0005 155.947 30.0005H154.387Z" fill="#B71931"/>
<defs>
<filter id="filter0_ddd_4580_4226" x="0" y="0" width="200.998" height="58.0117" filterUnits="userSpaceOnUse" color-interpolation-filters="sRGB">
<feFlood flood-opacity="0" result="BackgroundImageFix"/>
<feColorMatrix in="SourceAlpha" type="matrix" values="0 0 0 0 0 0 0 0 0 0 0 0 0 0 0 0 0 0 127 0" result="hardAlpha"/>
<feMorphology radius="2" operator="erode" in="SourceAlpha" result="effect1_dropShadow_4580_4226"/>
<feOffset dy="3"/>
<feGaussianBlur stdDeviation="1.5"/>
<feComposite in2="hardAlpha" operator="out"/>
<feColorMatrix type="matrix" values="0 0 0 0 0 0 0 0 0 0 0 0 0 0 0 0 0 0 0.2 0"/>
<feBlend mode="normal" in2="BackgroundImageFix" result="effect1_dropShadow_4580_4226"/>
<feColorMatrix in="SourceAlpha" type="matrix" values="0 0 0 0 0 0 0 0 0 0 0 0 0 0 0 0 0 0 127 0" result="hardAlpha"/>
<feOffset dy="3"/>
<feGaussianBlur stdDeviation="2"/>
<feComposite in2="hardAlpha" operator="out"/>
<feColorMatrix type="matrix" values="0 0 0 0 0 0 0 0 0 0 0 0 0 0 0 0 0 0 0.14 0"/>
<feBlend mode="normal" in2="effect1_dropShadow_4580_4226" result="effect2_dropShadow_4580_4226"/>
<feColorMatrix in="SourceAlpha" type="matrix" values="0 0 0 0 0 0 0 0 0 0 0 0 0 0 0 0 0 0 127 0" result="hardAlpha"/>
<feOffset dy="1"/>
<feGaussianBlur stdDeviation="4"/>
<feComposite in2="hardAlpha" operator="out"/>
<feColorMatrix type="matrix" values="0 0 0 0 0 0 0 0 0 0 0 0 0 0 0 0 0 0 0.12 0"/>
<feBlend mode="normal" in2="effect2_dropShadow_4580_4226" result="effect3_dropShadow_4580_4226"/>
<feBlend mode="normal" in="SourceGraphic" in2="effect3_dropShadow_4580_4226" result="shape"/>
</filter>
</defs>
</svg>
