<svg width="201" height="59" viewBox="0 0 201 59" fill="none" xmlns="http://www.w3.org/2000/svg">
<g filter="url(#filter0_ddd_5054_148)">
<path d="M119.426 7.01548C123.446 7.01548 127.429 6.99675 131.42 7.00049C146.256 7.01173 161.096 6.993 175.924 7.05295C176.268 9.19603 176.97 11.0469 179.021 11.9686C179.712 12.2795 181.027 12.1671 181.345 12.6092C181.877 13.3548 181.057 16.0412 182.088 17.4761C182.672 18.2892 184.922 19.9302 184.829 17.8808L183.728 17.6972C184.386 16.6444 185.849 17.1052 185.506 18.3641C185.373 18.8549 184.637 19.0722 184.837 19.7504C189.031 18.6901 192.445 25.3141 188.181 26.7042C184.512 27.8993 183.521 22.6615 186.537 22.3805C190.505 22.0096 187.294 27.1612 186.315 24.8083C185.953 23.9429 187.774 24.3213 187.782 23.6918C187.782 23.5757 186.921 22.6952 186.537 22.7702C185.605 22.9575 184.726 25.5539 186.189 26.0635C190.265 27.4797 190.472 21.4326 186.858 20.5109L186.681 21.6274C185.62 21.4701 184.874 20.6945 183.725 21.0542C183.144 21.5188 184.187 23.3846 184.09 24.4075C183.994 25.4303 183.096 26.3745 182.62 27.2474C183.359 27.5472 184.05 26.1197 184.283 26.1347C184.53 26.1497 184.685 26.9439 184.944 27.135C185.65 27.6521 188.162 27.8132 189.012 27.5509C189.541 27.386 190.062 26.5056 190.195 26.5093C190.361 26.5131 190.749 27.2662 191.111 27.3973C191.507 27.5397 192.833 27.2811 192.97 27.8207C193.247 28.9222 191.362 28.3864 191.096 28.5812C190.79 28.8098 190.886 29.5067 190.557 29.5141C189.969 29.5254 189.515 28.7461 188.92 28.5475C187.708 28.1429 185.798 28.4688 184.715 29.1245C184.368 29.3343 184.56 29.9975 184.283 29.8776C183.802 29.6678 183.47 28.5288 182.62 28.7573C183.399 29.7614 183.854 30.8067 183.928 32.1106C183.976 32.9761 183.229 34.6583 183.714 34.9468C184.774 35.4863 185.775 34.8906 186.684 34.3736C185.679 36.7677 188.358 34.9993 188.979 33.8865C191.281 29.7502 185.642 28.4314 185.262 31.2788C184.962 33.5006 188.417 33.4369 187.793 32.3166C185.047 31.5636 186.906 29.8926 188.07 31.1027C190.446 33.5718 183.47 35.5238 184.918 30.5183C185.724 27.7382 191.252 29.102 189.847 33.6467C189.023 36.3068 184.822 36.2319 184.848 36.8089C184.848 36.8951 185.413 37.2398 185.487 37.6257C185.713 38.7984 184.549 39.4915 183.736 38.3038L184.663 38.1165C185.007 38.1727 185.317 36.9775 183.64 37.4645C180.384 38.405 181.925 43.3431 181.515 43.7402C181.437 43.8151 179.989 43.7777 179.357 43.9912C177.458 44.6244 175.902 46.9361 176.345 48.993L25.0561 49.0117C24.6459 47.7529 24.2099 45.7859 23.1937 44.8567C22.2108 43.9575 19.7868 43.8563 19.4653 43.3918C18.9887 42.7099 19.4838 40.4694 19.2954 39.4428C19.0663 38.2176 16.5758 35.9734 15.9808 38.1202L17.0857 38.3038C16.4279 39.3566 14.9647 38.8958 15.3083 37.6369C15.4413 37.1461 16.1767 36.9288 15.9771 36.2506C10.5527 37.3634 8.53517 28.6149 14.2183 29.2182C18.0723 29.6265 15.7924 35.299 13.0765 33.568C11.6428 32.6538 13.7601 29.4842 14.4954 31.1926C14.8797 32.0881 13.5051 31.6235 13.3906 31.7509C12.197 33.0472 15.9291 34.19 15.6113 31.2001C15.3527 28.7461 9.90607 29.3905 11.8238 33.9015C12.3116 35.0442 15.2862 36.6852 14.1296 34.3736C15.3157 34.7557 16.0584 35.4414 17.4515 35.1191C16.8935 32.7175 16.7457 30.6044 18.56 28.7573C17.3665 28.4126 17.2372 30.0237 16.5314 29.8813C16.1989 29.8139 16.4316 29.3455 16.0843 29.1282C14.3328 28.0267 11.8756 27.8843 10.4382 29.5066C10.5527 27.9518 8.67558 28.8697 8.2137 28.3789C7.24557 27.3448 9.87649 27.5434 9.98366 27.5134C10.0502 27.4947 10.0612 26.8952 10.2756 26.8615C11.1365 26.7304 12.7661 28.0942 14.9721 27.5584C15.6778 27.386 16.2321 26.618 16.5868 26.558C17.1781 26.4606 17.4663 27.4722 18.1868 27.2587C18.1129 26.2471 17.2778 25.9174 17.1005 24.8046C16.657 22.0058 18.9924 19.6829 14.1222 21.6349L14.8575 20.6983C14.3661 20.3236 12.8806 20.9755 12.2709 21.2603C11.2141 23.4783 10.8779 26.8016 14.2885 26.1234C15.8589 25.8087 15.8663 23.6244 15.1679 23.1898C13.6086 22.2194 12.1121 24.5236 14.4843 24.2613C13.9892 27.0826 11.3693 23.5869 13.3758 22.5716C16.1952 21.1441 17.7841 26.4194 14.2663 26.8727C10.6192 27.3448 9.52547 22.5641 12.2672 21.264C13.2465 19.2033 15.349 20.2824 15.9624 19.7616C16.0695 19.6717 15.3342 17.7047 15.5965 17.1427L17.0672 17.7084C17.2704 18.8886 16.173 17.6635 15.9661 17.892C15.2529 18.6713 17.3739 19.5668 18.7115 17.8658C19.7868 16.502 18.9185 13.6958 19.7425 12.7329C20.0492 12.3769 21.2575 12.3582 21.8376 12.0435C23.8625 10.9495 24.6976 9.34215 24.8454 7.0417L51.4355 7.02297C53.8854 7.33769 56.3796 7.34144 58.8258 7.02297C58.9477 7.02297 59.0734 7.02297 59.1953 7.02297C61.272 7.34144 63.4004 7.34518 65.477 7.02297C65.7246 7.02297 65.9685 7.02297 66.216 7.02297C69.1574 7.33769 72.143 7.33769 75.0843 7.02297C76.5956 7.02297 78.0404 7.02297 79.5185 7.02297C81.9683 7.33769 84.4626 7.34144 86.9087 7.02297L88.0173 7.02297C89.2182 7.34893 90.5078 7.34144 91.7124 7.02297C92.6953 7.02297 93.6856 7.02297 94.6685 7.02297C98.0902 7.26276 101.671 7.46882 105.015 7.02297C105.754 7.02297 106.493 7.02297 107.232 7.02297C109.682 7.34144 112.176 7.34144 114.622 7.02297C114.87 7.02297 115.114 7.02297 115.361 7.02297C116.688 7.35268 118.099 7.34144 119.426 7.02297L119.426 7.01548Z" fill="#B71931"/>
</g>
<path d="M94.6683 7.01547C98.1122 7.01547 101.571 7.01547 105.015 7.01547C104.63 7.63742 103.614 7.39014 102.986 7.39763C100.318 7.4276 97.2069 7.67863 94.6683 7.01547Z" fill="#B71931"/>
<path d="M66.2162 7.01547C69.1686 7.01547 72.1321 7.01547 75.0845 7.01547C72.4388 7.64116 68.8619 7.64116 66.2162 7.01547Z" fill="#B71931"/>
<path d="M51.4354 7.01547C53.8927 7.01547 56.3684 7.01547 58.8257 7.01547C56.7084 7.64116 53.5823 7.64491 51.4354 7.01547Z" fill="#B71931"/>
<path d="M107.232 7.01547C109.689 7.01547 112.165 7.01547 114.622 7.01547C112.505 7.64116 109.379 7.64491 107.232 7.01547Z" fill="#B71931"/>
<path d="M79.5184 7.01547C81.9794 7.01547 84.4477 7.01547 86.9087 7.01547C84.7914 7.64116 81.6653 7.64491 79.5184 7.01547Z" fill="#B71931"/>
<path d="M59.1953 7.01547C61.2868 7.01547 63.3856 7.01547 65.4771 7.01547C63.7625 7.64491 60.9357 7.64491 59.1953 7.01547Z" fill="#B71931"/>
<path d="M115.361 7.01547C116.714 7.01547 118.073 7.01547 119.426 7.01547C118.487 7.65615 116.226 7.63742 115.361 7.01547Z" fill="#B71931"/>
<path d="M88.0173 7.01547C89.2441 7.01547 90.4856 7.01547 91.7124 7.01547C90.8958 7.65615 88.7637 7.63742 88.0173 7.01547Z" fill="#B71931"/>
<path d="M180.717 42.9347C178.503 43.3543 177.162 44.291 176.057 46.2654C175.407 47.4269 176.087 48.401 174.317 48.6221C168.807 49.3115 161.325 48.3411 155.612 48.3523C145.251 48.3711 134.727 48.6146 124.433 48.6221C91.5424 48.6483 58.63 48.4348 25.8136 48.6221C24.7494 45.3588 23.4709 43.5191 20.0049 42.7586L20.0049 13.2387C21.9226 12.6317 23.6704 11.9985 24.779 10.1477C25.3665 9.16606 25.1596 7.58122 26.475 7.57748L175.381 7.74234C176.065 10.9232 177.687 12.5381 180.787 13.2424C180.82 23.2385 181.06 32.9723 180.721 42.9384L180.717 42.9347Z" fill="#F8F3E8"/>
<path d="M181.504 26.8728C180.872 25.3629 182.247 24.9133 182.25 24.7859C182.276 23.8679 181.223 22.4629 182.978 21.6274C183.411 23.5083 183.958 26.3332 181.508 26.869L181.504 26.8728Z" fill="#F8F3E8"/>
<path d="M182.978 34.366C181.223 33.523 182.28 32.1293 182.254 31.2076C182.254 31.084 180.876 30.6306 181.508 29.1207C183.592 29.694 183.636 32.6538 182.978 34.3623L182.978 34.366Z" fill="#F8F3E8"/>
<path d="M19.2841 26.8727C16.2208 26.0597 17.9834 19.8702 18.8628 22.6315C19.1732 23.6056 18.5229 24.8645 18.5931 24.9582C18.933 25.419 20.1709 24.9207 19.2841 26.8727Z" fill="#F8F3E8"/>
<path d="M19.1478 30.8742C19.0997 31.0016 18.5529 31.0091 18.5455 31.2151C18.5122 32.2117 19.7427 33.5605 17.8138 34.3698C17.5293 32.3204 17.0896 29.7464 19.6577 29.1282C19.3695 29.6902 19.3695 30.2972 19.1478 30.8779L19.1478 30.8742Z" fill="#F8F3E8"/>
<path d="M18.9221 20.125C19.1032 20.3348 20.1415 19.6379 19.1032 21.6274C18.597 20.1737 17.6584 20.7732 16.7088 19.9414L19.6538 17.8808C20.112 18.6413 18.8445 20.0313 18.9221 20.125Z" fill="#F8F3E8"/>
<path d="M19.6538 38.1127L16.7014 35.8685C18.2091 35.1529 19.979 36.3555 19.6538 38.1127Z" fill="#F8F3E8"/>
<path d="M184.09 36.6103C182.971 36.6515 182.365 37.5732 181.507 38.1127C181.297 36.8014 182.246 35.1529 183.617 35.7636C184.135 35.9959 184.197 35.8385 184.086 36.6066L184.09 36.6103Z" fill="#F8F3E8"/>
<path d="M184.09 20.125C182.42 20.953 181.33 19.533 181.507 17.8808L184.09 20.125Z" fill="#F8F3E8"/>
<path d="M46.4834 33.2605C45.2834 33.2605 44.3234 33.1205 43.6034 32.8405C42.8834 32.5472 42.3567 32.1405 42.0234 31.6205C41.7034 31.1005 41.5434 30.5005 41.5434 29.8205C41.5434 29.2338 41.63 28.7605 41.8034 28.4005C41.99 28.0405 42.2234 27.7672 42.5034 27.5805C42.7967 27.3805 43.09 27.2472 43.3834 27.1805V27.0605C43.0767 26.9538 42.7834 26.8072 42.5034 26.6205C42.2234 26.4338 41.99 26.1805 41.8034 25.8605C41.63 25.5405 41.5434 25.1405 41.5434 24.6605C41.5434 24.1672 41.6567 23.7072 41.8834 23.2805C42.1234 22.8538 42.5034 22.5138 43.0234 22.2605C43.5434 21.9938 44.23 21.8605 45.0834 21.8605C45.4967 21.8605 45.8967 21.8938 46.2834 21.9605C46.67 22.0138 46.97 22.0938 47.1834 22.2005L46.7234 24.2205C46.6167 24.1938 46.47 24.1672 46.2834 24.1405C46.11 24.1005 45.93 24.0805 45.7434 24.0805C45.33 24.0805 45.0234 24.1805 44.8234 24.3805C44.6234 24.5672 44.5234 24.8138 44.5234 25.1205C44.5234 25.4405 44.61 25.6872 44.7834 25.8605C44.9567 26.0338 45.1767 26.1538 45.4434 26.2205C45.7234 26.2872 46.01 26.3205 46.3034 26.3205H46.7234V28.1805H46.3034C45.73 28.1805 45.2967 28.2805 45.0034 28.4805C44.7234 28.6805 44.5834 29.0072 44.5834 29.4605C44.5834 29.7005 44.6367 29.9405 44.7434 30.1805C44.8634 30.4072 45.0634 30.6005 45.3434 30.7605C45.6234 30.9072 46.0234 30.9805 46.5434 30.9805C47.0367 30.9805 47.4234 30.9072 47.7034 30.7605C47.9834 30.6138 48.1834 30.4205 48.3034 30.1805C48.4234 29.9272 48.4834 29.6472 48.4834 29.3405V22.0405H51.4834V29.2405C51.4834 30.6138 51.0767 31.6272 50.2634 32.2805C49.4634 32.9338 48.2034 33.2605 46.4834 33.2605ZM54.1848 33.0005V29.6605C54.1848 28.8205 54.3514 28.1738 54.6848 27.7205C55.0181 27.2672 55.4914 26.9472 56.1048 26.7605L56.1248 26.6805L53.9848 25.9005V25.3805C53.9848 24.7272 54.1781 24.1272 54.5648 23.5805C54.9514 23.0338 55.5181 22.6005 56.2648 22.2805C57.0248 21.9472 57.9448 21.7805 59.0248 21.7805C60.0381 21.7805 60.9114 21.9405 61.6448 22.2605C62.3781 22.5672 62.9448 23.0338 63.3448 23.6605C63.7581 24.2738 63.9648 25.0538 63.9648 26.0005V33.0005H60.9648V26.1805C60.9648 25.5138 60.7848 25.0138 60.4248 24.6805C60.0781 24.3472 59.5848 24.1805 58.9448 24.1805C58.3314 24.1805 57.8714 24.3138 57.5648 24.5805C57.2581 24.8338 57.0914 25.1472 57.0648 25.5205L58.8448 26.3405L58.6248 27.6405C58.1448 27.6672 57.7848 27.8405 57.5448 28.1605C57.3048 28.4805 57.1848 28.9138 57.1848 29.4605V33.0005H54.1848ZM69.8452 33.2005C69.2452 33.2005 68.7386 33.1072 68.3252 32.9205C67.9119 32.7338 67.5986 32.4538 67.3852 32.0805C67.1719 31.6938 67.0652 31.2138 67.0652 30.6405V22.0405H70.0652V30.2805C70.0652 30.5338 70.1186 30.7205 70.2252 30.8405C70.3452 30.9605 70.5252 31.0205 70.7652 31.0205C70.8719 31.0205 70.9852 31.0072 71.1052 30.9805C71.2252 30.9538 71.3386 30.9205 71.4452 30.8805L71.7252 32.8005C71.4719 32.9338 71.1852 33.0338 70.8652 33.1005C70.5452 33.1672 70.2052 33.2005 69.8452 33.2005ZM79.7435 33.0005V25.8805C79.7435 25.2405 79.5702 24.7805 79.2235 24.5005C78.8768 24.2205 78.3435 24.0805 77.6235 24.0805C76.9302 24.0805 76.2502 24.1872 75.5835 24.4005C74.9302 24.6005 74.3635 24.8405 73.8835 25.1205V22.6405C74.2702 22.4538 74.8168 22.2672 75.5235 22.0805C76.2302 21.8805 77.0502 21.7805 77.9835 21.7805C78.6635 21.7805 79.2835 21.8538 79.8435 22.0005C80.4168 22.1338 80.9168 22.3672 81.3435 22.7005C81.7702 23.0205 82.0968 23.4538 82.3235 24.0005C82.5635 24.5338 82.6835 25.2005 82.6835 26.0005V33.0005H79.7435ZM76.4635 33.2005C75.3168 33.2005 74.4302 32.9272 73.8035 32.3805C73.1902 31.8338 72.8835 31.0672 72.8835 30.0805C72.8835 29.0138 73.2635 28.1605 74.0235 27.5205C74.7968 26.8805 76.0102 26.4938 77.6635 26.3605L80.2235 26.1605V28.3205L78.0035 28.5405C77.2035 28.6205 76.6435 28.7805 76.3235 29.0205C76.0168 29.2605 75.8635 29.5805 75.8635 29.9805C75.8635 30.3805 75.9902 30.6805 76.2435 30.8805C76.5102 31.0805 76.8502 31.1805 77.2635 31.1805C77.4235 31.1805 77.5835 31.1672 77.7435 31.1405C77.9035 31.1005 78.0502 31.0605 78.1835 31.0205L78.4435 32.9005C78.1902 32.9938 77.8902 33.0672 77.5435 33.1205C77.1968 33.1738 76.8368 33.2005 76.4635 33.2005ZM73.3166 20.5205V19.2605L75.3366 18.4205H82.4766V20.5205H73.3166ZM85.3762 33.0005V29.6605C85.3762 28.8205 85.5428 28.1738 85.8762 27.7205C86.2095 27.2672 86.6828 26.9472 87.2962 26.7605L87.3162 26.6805L85.1762 25.9005V25.3805C85.1762 24.7272 85.3695 24.1272 85.7562 23.5805C86.1428 23.0338 86.7095 22.6005 87.4562 22.2805C88.2162 21.9472 89.1362 21.7805 90.2162 21.7805C91.2295 21.7805 92.1028 21.9405 92.8362 22.2605C93.5695 22.5672 94.1362 23.0338 94.5362 23.6605C94.9495 24.2738 95.1562 25.0538 95.1562 26.0005V33.0005H92.1562V26.1805C92.1562 25.5138 91.9762 25.0138 91.6162 24.6805C91.2695 24.3472 90.7762 24.1805 90.1362 24.1805C89.5228 24.1805 89.0628 24.3138 88.7562 24.5805C88.4495 24.8338 88.2828 25.1472 88.2562 25.5205L90.0362 26.3405L89.8162 27.6405C89.3362 27.6672 88.9762 27.8405 88.7362 28.1605C88.4962 28.4805 88.3762 28.9138 88.3762 29.4605V33.0005H85.3762ZM97.8566 33.0005V29.6605C97.8566 28.8205 98.0233 28.1738 98.3566 27.7205C98.69 27.2672 99.1633 26.9472 99.7766 26.7605L99.7966 26.6805L97.6566 25.9005V25.3805C97.6566 24.7272 97.85 24.1272 98.2366 23.5805C98.6233 23.0338 99.19 22.6005 99.9366 22.2805C100.697 21.9472 101.617 21.7805 102.697 21.7805C103.71 21.7805 104.583 21.9405 105.317 22.2605C106.05 22.5672 106.617 23.0338 107.017 23.6605C107.43 24.2738 107.637 25.0538 107.637 26.0005V33.0005H104.637V26.1805C104.637 25.5138 104.457 25.0138 104.097 24.6805C103.75 24.3472 103.257 24.1805 102.617 24.1805C102.003 24.1805 101.543 24.3138 101.237 24.5805C100.93 24.8338 100.763 25.1472 100.737 25.5205L102.517 26.3405L102.297 27.6405C101.817 27.6672 101.457 27.8405 101.217 28.1605C100.977 28.4805 100.857 28.9138 100.857 29.4605V33.0005H97.8566ZM113.337 33.0005V25.7605C113.337 25.2005 113.204 24.7938 112.937 24.5405C112.684 24.2872 112.264 24.1605 111.677 24.1605C111.237 24.1605 110.83 24.2205 110.457 24.3405C110.097 24.4605 109.757 24.6072 109.437 24.7805V22.3805C109.73 22.2472 110.144 22.1138 110.677 21.9805C111.21 21.8472 111.837 21.7805 112.557 21.7805C113.29 21.7805 113.937 21.8872 114.497 22.1005C115.07 22.3138 115.517 22.6738 115.837 23.1805C116.17 23.6738 116.337 24.3538 116.337 25.2205V33.0005H113.337ZM122.889 33.2605C122.102 33.2605 121.309 33.1738 120.509 33.0005C119.722 32.8272 119.022 32.5805 118.409 32.2605L119.249 29.8805C119.515 30.0272 119.835 30.1805 120.209 30.3405C120.582 30.5005 120.989 30.6338 121.429 30.7405C121.869 30.8472 122.315 30.9005 122.769 30.9005C123.302 30.9005 123.702 30.8272 123.969 30.6805C124.249 30.5205 124.389 30.2805 124.389 29.9605C124.389 29.7205 124.295 29.5272 124.109 29.3805C123.935 29.2205 123.675 29.0738 123.329 28.9405C122.982 28.7938 122.569 28.6405 122.089 28.4805C121.382 28.2272 120.775 27.9538 120.269 27.6605C119.762 27.3672 119.369 27.0072 119.089 26.5805C118.822 26.1538 118.689 25.6205 118.689 24.9805C118.689 24.2472 118.875 23.6472 119.249 23.1805C119.622 22.7138 120.149 22.3672 120.829 22.1405C121.509 21.9005 122.302 21.7805 123.209 21.7805C123.955 21.7805 124.629 21.8405 125.229 21.9605C125.829 22.0805 126.295 22.2338 126.629 22.4205V24.7805C126.402 24.6738 126.102 24.5672 125.729 24.4605C125.369 24.3538 124.975 24.2672 124.549 24.2005C124.135 24.1205 123.735 24.0805 123.349 24.0805C122.802 24.0805 122.389 24.1538 122.109 24.3005C121.829 24.4472 121.689 24.6538 121.689 24.9205C121.689 25.1338 121.782 25.3138 121.969 25.4605C122.169 25.6072 122.455 25.7472 122.829 25.8805C123.202 26.0005 123.649 26.1538 124.169 26.3405C124.862 26.5805 125.449 26.8472 125.929 27.1405C126.409 27.4338 126.769 27.7938 127.009 28.2205C127.262 28.6472 127.389 29.1738 127.389 29.8005C127.389 30.4005 127.249 30.9672 126.969 31.5005C126.702 32.0205 126.242 32.4472 125.589 32.7805C124.935 33.1005 124.035 33.2605 122.889 33.2605ZM130.38 33.0005V28.4005H129.24V26.5605H133.08V30.7205H133.22C133.66 30.7205 134.033 30.6005 134.34 30.3605C134.66 30.1205 134.9 29.7672 135.06 29.3005C135.22 28.8205 135.3 28.2205 135.3 27.5005C135.3 26.6738 135.18 26.0205 134.94 25.5405C134.713 25.0472 134.373 24.6938 133.92 24.4805C133.467 24.2672 132.907 24.1605 132.24 24.1605C131.547 24.1605 130.92 24.2605 130.36 24.4605C129.8 24.6472 129.3 24.8738 128.86 25.1405V22.6405C129.3 22.4138 129.853 22.2138 130.52 22.0405C131.187 21.8672 131.953 21.7805 132.82 21.7805C134.113 21.7805 135.16 21.9872 135.96 22.4005C136.773 22.8138 137.373 23.4405 137.76 24.2805C138.147 25.1205 138.34 26.1738 138.34 27.4405C138.34 28.6272 138.16 29.6405 137.8 30.4805C137.453 31.3072 136.88 31.9338 136.08 32.3605C135.293 32.7872 134.24 33.0005 132.92 33.0005H130.38ZM145.012 33.2605C143.385 33.2605 142.179 32.8672 141.392 32.0805C140.605 31.2805 140.212 30.1005 140.212 28.5405C140.212 28.2738 140.219 27.9538 140.232 27.5805C140.259 27.1938 140.292 26.8538 140.332 26.5605H145.132V28.4605H143.152V28.7405C143.152 29.2738 143.219 29.7138 143.352 30.0605C143.485 30.3938 143.685 30.6405 143.952 30.8005C144.232 30.9605 144.579 31.0405 144.992 31.0405C145.445 31.0405 145.825 30.9405 146.132 30.7405C146.452 30.5405 146.692 30.2005 146.852 29.7205C147.025 29.2405 147.112 28.5805 147.112 27.7405C147.112 26.9538 147.019 26.3005 146.832 25.7805C146.659 25.2472 146.359 24.8472 145.932 24.5805C145.519 24.3138 144.945 24.1805 144.212 24.1805C143.812 24.1805 143.399 24.2272 142.972 24.3205C142.545 24.4005 142.139 24.5072 141.752 24.6405C141.379 24.7738 141.052 24.9205 140.772 25.0805V22.5805C141.065 22.4205 141.425 22.2805 141.852 22.1605C142.292 22.0405 142.765 21.9472 143.272 21.8805C143.779 21.8138 144.279 21.7805 144.772 21.7805C146.065 21.7805 147.105 22.0205 147.892 22.5005C148.692 22.9672 149.272 23.6338 149.632 24.5005C150.005 25.3672 150.192 26.3938 150.192 27.5805C150.192 28.7938 150.012 29.8272 149.652 30.6805C149.305 31.5205 148.752 32.1605 147.992 32.6005C147.232 33.0405 146.239 33.2605 145.012 33.2605ZM154.387 33.0005L151.207 22.0405H154.227L156.647 30.5805H156.767C156.981 30.5805 157.181 30.5205 157.367 30.4005C157.554 30.2805 157.714 30.1205 157.847 29.9205C158.114 29.5472 158.314 29.1072 158.447 28.6005C158.581 28.0805 158.647 27.5672 158.647 27.0605C158.647 26.1672 158.474 25.4805 158.127 25.0005C157.794 24.5205 157.327 24.2805 156.727 24.2805C156.607 24.2805 156.494 24.2872 156.387 24.3005C156.294 24.3138 156.207 24.3405 156.127 24.3805L155.567 22.0805C155.874 21.9872 156.161 21.9338 156.427 21.9205C156.707 21.8938 156.934 21.8805 157.107 21.8805C157.814 21.8805 158.427 21.9738 158.947 22.1605C159.467 22.3472 159.914 22.6272 160.287 23.0005C160.754 23.4538 161.101 24.0205 161.327 24.7005C161.567 25.3805 161.687 26.1472 161.687 27.0005C161.687 28.0805 161.514 29.0272 161.167 29.8405C160.834 30.6405 160.427 31.2738 159.947 31.7405C159.547 32.1272 159.041 32.4338 158.427 32.6605C157.827 32.8872 157.001 33.0005 155.947 33.0005H154.387Z" fill="#B71931"/>
<defs>
<filter id="filter0_ddd_5054_148" x="0" y="0" width="200.998" height="58.0117" filterUnits="userSpaceOnUse" color-interpolation-filters="sRGB">
<feFlood flood-opacity="0" result="BackgroundImageFix"/>
<feColorMatrix in="SourceAlpha" type="matrix" values="0 0 0 0 0 0 0 0 0 0 0 0 0 0 0 0 0 0 127 0" result="hardAlpha"/>
<feMorphology radius="2" operator="erode" in="SourceAlpha" result="effect1_dropShadow_5054_148"/>
<feOffset dy="3"/>
<feGaussianBlur stdDeviation="1.5"/>
<feComposite in2="hardAlpha" operator="out"/>
<feColorMatrix type="matrix" values="0 0 0 0 0 0 0 0 0 0 0 0 0 0 0 0 0 0 0.2 0"/>
<feBlend mode="normal" in2="BackgroundImageFix" result="effect1_dropShadow_5054_148"/>
<feColorMatrix in="SourceAlpha" type="matrix" values="0 0 0 0 0 0 0 0 0 0 0 0 0 0 0 0 0 0 127 0" result="hardAlpha"/>
<feOffset dy="3"/>
<feGaussianBlur stdDeviation="2"/>
<feComposite in2="hardAlpha" operator="out"/>
<feColorMatrix type="matrix" values="0 0 0 0 0 0 0 0 0 0 0 0 0 0 0 0 0 0 0.14 0"/>
<feBlend mode="normal" in2="effect1_dropShadow_5054_148" result="effect2_dropShadow_5054_148"/>
<feColorMatrix in="SourceAlpha" type="matrix" values="0 0 0 0 0 0 0 0 0 0 0 0 0 0 0 0 0 0 127 0" result="hardAlpha"/>
<feOffset dy="1"/>
<feGaussianBlur stdDeviation="4"/>
<feComposite in2="hardAlpha" operator="out"/>
<feColorMatrix type="matrix" values="0 0 0 0 0 0 0 0 0 0 0 0 0 0 0 0 0 0 0.12 0"/>
<feBlend mode="normal" in2="effect2_dropShadow_5054_148" result="effect3_dropShadow_5054_148"/>
<feBlend mode="normal" in="SourceGraphic" in2="effect3_dropShadow_5054_148" result="shape"/>
</filter>
</defs>
</svg>
