<svg width="201" height="59" viewBox="0 0 201 59" fill="none" xmlns="http://www.w3.org/2000/svg">
<g filter="url(#filter0_ddd_2001_97)">
<path d="M119.426 7.01548C123.446 7.01548 127.429 6.99675 131.42 7.00049C146.256 7.01173 161.096 6.993 175.924 7.05295C176.268 9.19603 176.97 11.0469 179.021 11.9686C179.712 12.2795 181.027 12.1671 181.345 12.6092C181.877 13.3548 181.057 16.0412 182.088 17.4761C182.671 18.2892 184.922 19.9302 184.829 17.8808L183.728 17.6972C184.386 16.6444 185.849 17.1052 185.506 18.3641C185.373 18.8549 184.637 19.0722 184.837 19.7504C189.031 18.6901 192.445 25.3141 188.181 26.7042C184.512 27.8993 183.521 22.6615 186.536 22.3805C190.505 22.0096 187.294 27.1612 186.315 24.8083C185.953 23.9429 187.774 24.3213 187.782 23.6918C187.782 23.5757 186.921 22.6952 186.536 22.7702C185.605 22.9575 184.726 25.5539 186.189 26.0635C190.265 27.4797 190.472 21.4326 186.858 20.5109L186.681 21.6274C185.62 21.4701 184.874 20.6945 183.725 21.0542C183.144 21.5188 184.186 23.3846 184.09 24.4075C183.994 25.4303 183.096 26.3745 182.62 27.2474C183.359 27.5472 184.05 26.1197 184.282 26.1347C184.53 26.1497 184.685 26.9439 184.944 27.135C185.65 27.6521 188.162 27.8132 189.012 27.5509C189.541 27.386 190.062 26.5056 190.195 26.5093C190.361 26.5131 190.749 27.2662 191.111 27.3973C191.506 27.5397 192.833 27.2811 192.97 27.8207C193.247 28.9222 191.362 28.3864 191.096 28.5812C190.79 28.8098 190.886 29.5067 190.557 29.5141C189.969 29.5254 189.515 28.7461 188.92 28.5475C187.708 28.1429 185.797 28.4688 184.715 29.1245C184.367 29.3343 184.56 29.9975 184.282 29.8776C183.802 29.6678 183.47 28.5288 182.62 28.7573C183.399 29.7614 183.854 30.8067 183.928 32.1106C183.976 32.9761 183.229 34.6583 183.713 34.9468C184.774 35.4863 185.775 34.8906 186.684 34.3736C185.679 36.7677 188.358 34.9993 188.979 33.8865C191.281 29.7502 185.642 28.4314 185.262 31.2788C184.962 33.5006 188.417 33.4369 187.793 32.3166C185.047 31.5636 186.906 29.8926 188.07 31.1027C190.446 33.5718 183.47 35.5238 184.918 30.5183C185.724 27.7382 191.251 29.102 189.847 33.6467C189.023 36.3068 184.822 36.2319 184.848 36.8089C184.848 36.8951 185.413 37.2398 185.487 37.6257C185.712 38.7984 184.549 39.4915 183.736 38.3038L184.663 38.1165C185.007 38.1727 185.317 36.9775 183.64 37.4645C180.384 38.405 181.925 43.3431 181.515 43.7402C181.437 43.8151 179.989 43.7777 179.357 43.9912C177.458 44.6244 175.902 46.9361 176.345 48.993L25.0559 49.0117C24.6458 47.7529 24.2098 45.7859 23.1936 44.8567C22.2107 43.9575 19.7867 43.8563 19.4652 43.3918C18.9885 42.7099 19.4837 40.4694 19.2952 39.4428C19.0661 38.2176 16.5756 35.9734 15.9807 38.1202L17.0856 38.3038C16.4278 39.3566 14.9646 38.8958 15.3082 37.6369C15.4412 37.1461 16.1766 36.9288 15.977 36.2506C10.5526 37.3634 8.53505 28.6149 14.2182 29.2182C18.0722 29.6265 15.7923 35.299 13.0763 33.568C11.6426 32.6538 13.76 29.4842 14.4953 31.1926C14.8796 32.0881 13.505 31.6235 13.3904 31.7509C12.1969 33.0472 15.929 34.19 15.6112 31.2001C15.3525 28.7461 9.90594 29.3905 11.8237 33.9015C12.3115 35.0442 15.286 36.6852 14.1295 34.3736C15.3156 34.7557 16.0583 35.4414 17.4514 35.1191C16.8934 32.7175 16.7456 30.6044 18.5599 28.7573C17.3664 28.4126 17.2371 30.0237 16.5313 29.8813C16.1987 29.8139 16.4315 29.3455 16.0842 29.1282C14.3327 28.0267 11.8754 27.8843 10.438 29.5066C10.5526 27.9518 8.67547 28.8697 8.21358 28.3789C7.24545 27.3448 9.87637 27.5434 9.98353 27.5134C10.05 27.4947 10.0611 26.8952 10.2754 26.8615C11.1364 26.7304 12.766 28.0942 14.9719 27.5584C15.6777 27.386 16.232 26.618 16.5867 26.558C17.1779 26.4606 17.4662 27.4722 18.1867 27.2587C18.1128 26.2471 17.2777 25.9174 17.1003 24.8046C16.6569 22.0058 18.9922 19.6829 14.1221 21.6349L14.8574 20.6983C14.3659 20.3236 12.8805 20.9755 12.2708 21.2603C11.214 23.4783 10.8778 26.8016 14.2884 26.1234C15.8588 25.8087 15.8662 23.6244 15.1678 23.1898C13.6084 22.2194 12.1119 24.5236 14.4842 24.2613C13.9891 27.0826 11.3692 23.5869 13.3757 22.5716C16.195 21.1441 17.7839 26.4194 14.2662 26.8727C10.6191 27.3448 9.52535 22.5641 12.2671 21.264C13.2463 19.2033 15.3489 20.2824 15.9622 19.7616C16.0694 19.6717 15.3341 17.7047 15.5964 17.1427L17.0671 17.7084C17.2703 18.8886 16.1729 17.6635 15.9659 17.892C15.2528 18.6713 17.3738 19.5668 18.7114 17.8658C19.7867 16.502 18.9183 13.6958 19.7424 12.7329C20.049 12.3769 21.2574 12.3582 21.8375 12.0435C23.8624 10.9495 24.6975 9.34215 24.8453 7.0417L51.4354 7.02297C53.8853 7.33769 56.3795 7.34144 58.8257 7.02297C58.9476 7.02297 59.0732 7.02297 59.1952 7.02297C61.2718 7.34144 63.4002 7.34518 65.4769 7.02297C65.7245 7.02297 65.9683 7.02297 66.2159 7.02297C69.1572 7.33769 72.1429 7.33769 75.0842 7.02297C76.5955 7.02297 78.0403 7.02297 79.5184 7.02297C81.9682 7.33769 84.4624 7.34144 86.9086 7.02297L88.0171 7.02297C89.2181 7.34893 90.5077 7.34144 91.7123 7.02297C92.6952 7.02297 93.6855 7.02297 94.6684 7.02297C98.09 7.26276 101.671 7.46882 105.015 7.02297C105.754 7.02297 106.493 7.02297 107.232 7.02297C109.682 7.34144 112.176 7.34144 114.622 7.02297C114.87 7.02297 115.113 7.02297 115.361 7.02297C116.688 7.35268 118.099 7.34144 119.426 7.02297L119.426 7.01548Z" fill="#919EAB"/>
</g>
<path d="M94.6684 7.0155C98.1122 7.0155 101.571 7.0155 105.015 7.0155C104.63 7.63745 103.614 7.39017 102.986 7.39766C100.318 7.42763 97.2069 7.67866 94.6684 7.0155Z" fill="#919EAB"/>
<path d="M66.2159 7.0155C69.1683 7.0155 72.1318 7.0155 75.0842 7.0155C72.4385 7.64119 68.8616 7.64119 66.2159 7.0155Z" fill="#919EAB"/>
<path d="M51.4354 7.0155C53.8926 7.0155 56.3684 7.0155 58.8256 7.0155C56.7083 7.64119 53.5822 7.64494 51.4354 7.0155Z" fill="#919EAB"/>
<path d="M107.232 7.0155C109.689 7.0155 112.165 7.0155 114.622 7.0155C112.505 7.64119 109.379 7.64494 107.232 7.0155Z" fill="#919EAB"/>
<path d="M79.5183 7.0155C81.9793 7.0155 84.4476 7.0155 86.9086 7.0155C84.7913 7.64119 81.6652 7.64494 79.5183 7.0155Z" fill="#919EAB"/>
<path d="M59.1952 7.0155C61.2866 7.0155 63.3854 7.0155 65.4769 7.0155C63.7623 7.64494 60.9356 7.64494 59.1952 7.0155Z" fill="#919EAB"/>
<path d="M115.361 7.0155C116.713 7.0155 118.073 7.0155 119.426 7.0155C118.487 7.65618 116.226 7.63745 115.361 7.0155Z" fill="#919EAB"/>
<path d="M88.0171 7.0155C89.2439 7.0155 90.4854 7.0155 91.7122 7.0155C90.8956 7.65618 88.7635 7.63745 88.0171 7.0155Z" fill="#919EAB"/>
<path d="M180.717 42.9347C178.503 43.3543 177.162 44.291 176.057 46.2655C175.407 47.4269 176.087 48.4011 174.317 48.6221C168.807 49.3115 161.325 48.3411 155.612 48.3524C145.251 48.3711 134.727 48.6146 124.433 48.6221C91.5423 48.6483 58.6298 48.4348 25.8134 48.6221C24.7492 45.3588 23.4707 43.5192 20.0047 42.7586L20.0047 13.2387C21.9225 12.6317 23.6702 11.9986 24.7788 10.1477C25.3663 9.16609 25.1594 7.58125 26.4748 7.57751L175.381 7.74237C176.064 10.9233 177.687 12.5381 180.787 13.2425C180.82 23.2385 181.06 32.9723 180.72 42.9384L180.717 42.9347Z" fill="#F8F3E8"/>
<path d="M181.504 26.8728C180.872 25.3629 182.246 24.9133 182.25 24.7859C182.276 23.8679 181.223 22.4629 182.978 21.6274C183.41 23.5083 183.957 26.3332 181.507 26.869L181.504 26.8728Z" fill="#F8F3E8"/>
<path d="M182.978 34.366C181.223 33.523 182.28 32.1293 182.254 31.2076C182.254 31.084 180.876 30.6306 181.507 29.1207C183.591 29.694 183.636 32.6538 182.978 34.3623L182.978 34.366Z" fill="#F8F3E8"/>
<path d="M19.2841 26.8727C16.2209 26.0597 17.9834 19.8702 18.8629 22.6315C19.1733 23.6056 18.5229 24.8645 18.5932 24.9582C18.9331 25.419 20.171 24.9207 19.2841 26.8727Z" fill="#F8F3E8"/>
<path d="M19.1474 30.8741C19.0994 31.0015 18.5525 31.009 18.5451 31.2151C18.5119 32.2117 19.7423 33.5605 17.8135 34.3697C17.529 32.3203 17.0892 29.7464 19.6573 29.1282C19.3691 29.6902 19.3691 30.2971 19.1474 30.8779L19.1474 30.8741Z" fill="#F8F3E8"/>
<path d="M18.922 20.125C19.1031 20.3348 20.1414 19.6379 19.1031 21.6274C18.5969 20.1737 17.6583 20.7732 16.7086 19.9414L19.6537 17.8807C20.1119 18.6413 18.8444 20.0313 18.922 20.125Z" fill="#F8F3E8"/>
<path d="M19.6537 38.1127L16.7013 35.8684C18.2089 35.1528 19.9788 36.3555 19.6537 38.1127Z" fill="#F8F3E8"/>
<path d="M184.09 36.6103C182.971 36.6515 182.365 37.5732 181.507 38.1127C181.297 36.8014 182.246 35.1529 183.617 35.7636C184.135 35.9959 184.197 35.8385 184.087 36.6066L184.09 36.6103Z" fill="#F8F3E8"/>
<path d="M184.09 20.125C182.42 20.953 181.33 19.533 181.507 17.8807L184.09 20.125Z" fill="#F8F3E8"/>
<path d="M57.8314 33.2005C57.2314 33.2005 56.7248 33.1072 56.3114 32.9205C55.8981 32.7338 55.5848 32.4538 55.3714 32.0805C55.1581 31.6938 55.0514 31.2138 55.0514 30.6405V22.0405H58.0514V30.2805C58.0514 30.5338 58.1048 30.7205 58.2114 30.8405C58.3314 30.9605 58.5114 31.0205 58.7514 31.0205C58.8581 31.0205 58.9714 31.0072 59.0914 30.9805C59.2114 30.9538 59.3248 30.9205 59.4314 30.8805L59.7114 32.8005C59.4581 32.9338 59.1714 33.0338 58.8514 33.1005C58.5314 33.1672 58.1914 33.2005 57.8314 33.2005ZM65.4428 33.2605C63.9495 33.2605 62.8228 32.9272 62.0628 32.2605C61.3028 31.5938 60.9228 30.6205 60.9228 29.3405V28.5405C60.9228 27.9938 60.9962 27.5472 61.1428 27.2005C61.2895 26.8405 61.4695 26.5138 61.6828 26.2205C61.8962 25.9272 62.0695 25.6672 62.2028 25.4405C62.3495 25.2005 62.4228 24.9538 62.4228 24.7005C62.4228 24.4605 62.3628 24.2938 62.2428 24.2005C62.1362 24.0938 61.9895 24.0405 61.8028 24.0405C61.6695 24.0405 61.5295 24.0605 61.3828 24.1005C61.2495 24.1405 61.0962 24.2005 60.9228 24.2805L60.4428 22.4005C60.8162 22.2005 61.2162 22.0672 61.6428 22.0005C62.0828 21.9205 62.4695 21.8805 62.8028 21.8805C63.3895 21.8805 63.8562 21.9738 64.2028 22.1605C64.5628 22.3472 64.8228 22.6138 64.9828 22.9605C65.1428 23.3072 65.2228 23.7205 65.2228 24.2005C65.2228 24.6138 65.1628 24.9805 65.0428 25.3005C64.9228 25.6072 64.7695 25.9272 64.5828 26.2605C64.4095 26.5672 64.2495 26.8538 64.1028 27.1205C63.9695 27.3872 63.9028 27.7738 63.9028 28.2805V29.0805C63.9028 29.5072 63.9628 29.8605 64.0828 30.1405C64.2162 30.4072 64.3962 30.6072 64.6228 30.7405C64.8628 30.8605 65.1428 30.9205 65.4628 30.9205C65.9828 30.9205 66.3695 30.7738 66.6228 30.4805C66.8762 30.1738 67.0028 29.7405 67.0028 29.1805V22.0405H69.9828V29.2605C69.9828 30.5805 69.5962 31.5805 68.8228 32.2605C68.0495 32.9272 66.9228 33.2605 65.4428 33.2605ZM63.9346 20.5405V19.5405C64.1212 19.4872 64.3279 19.4138 64.5546 19.3205C64.7812 19.2272 64.9812 19.1005 65.1546 18.9405C65.3279 18.7805 65.4146 18.5805 65.4146 18.3405C65.4146 18.1538 65.3612 18.0072 65.2546 17.9005C65.1479 17.7938 65.0146 17.7405 64.8546 17.7405C64.7479 17.7405 64.6346 17.7605 64.5146 17.8005C64.3946 17.8405 64.2879 17.8805 64.1946 17.9205L63.8146 16.5805C64.0812 16.3538 64.4146 16.2072 64.8146 16.1405C65.2012 16.0605 65.5279 16.0205 65.7946 16.0205C66.3946 16.0205 66.8679 16.1605 67.2146 16.4405C67.5479 16.7205 67.7146 17.1338 67.7146 17.6805C67.7146 17.9738 67.6412 18.2472 67.4946 18.5005C67.3346 18.7538 67.0946 18.9605 66.7746 19.1205L66.6946 18.6005H70.4746V20.5405H63.9346ZM75.6788 33.0005V25.7605C75.6788 25.2005 75.5455 24.7938 75.2788 24.5405C75.0255 24.2872 74.6055 24.1605 74.0188 24.1605C73.5788 24.1605 73.1721 24.2205 72.7988 24.3405C72.4388 24.4605 72.0988 24.6072 71.7788 24.7805V22.3805C72.0721 22.2472 72.4855 22.1138 73.0188 21.9805C73.5521 21.8472 74.1788 21.7805 74.8988 21.7805C75.6321 21.7805 76.2788 21.8872 76.8388 22.1005C77.4121 22.3138 77.8588 22.6738 78.1788 23.1805C78.5121 23.6738 78.6788 24.3538 78.6788 25.2205V33.0005H75.6788ZM85.2302 33.2605C84.4435 33.2605 83.6502 33.1738 82.8502 33.0005C82.0635 32.8272 81.3635 32.5805 80.7502 32.2605L81.5902 29.8805C81.8569 30.0272 82.1769 30.1805 82.5502 30.3405C82.9235 30.5005 83.3302 30.6338 83.7702 30.7405C84.2102 30.8472 84.6569 30.9005 85.1102 30.9005C85.6435 30.9005 86.0435 30.8272 86.3102 30.6805C86.5902 30.5205 86.7302 30.2805 86.7302 29.9605C86.7302 29.7205 86.6369 29.5272 86.4502 29.3805C86.2769 29.2205 86.0169 29.0738 85.6702 28.9405C85.3235 28.7938 84.9102 28.6405 84.4302 28.4805C83.7235 28.2272 83.1169 27.9538 82.6102 27.6605C82.1035 27.3672 81.7102 27.0072 81.4302 26.5805C81.1635 26.1538 81.0302 25.6205 81.0302 24.9805C81.0302 24.2472 81.2169 23.6472 81.5902 23.1805C81.9635 22.7138 82.4902 22.3672 83.1702 22.1405C83.8502 21.9005 84.6435 21.7805 85.5502 21.7805C86.2969 21.7805 86.9702 21.8405 87.5702 21.9605C88.1702 22.0805 88.6369 22.2338 88.9702 22.4205V24.7805C88.7435 24.6738 88.4435 24.5672 88.0702 24.4605C87.7102 24.3538 87.3169 24.2672 86.8902 24.2005C86.4769 24.1205 86.0769 24.0805 85.6902 24.0805C85.1435 24.0805 84.7302 24.1538 84.4502 24.3005C84.1702 24.4472 84.0302 24.6538 84.0302 24.9205C84.0302 25.1338 84.1235 25.3138 84.3102 25.4605C84.5102 25.6072 84.7969 25.7472 85.1702 25.8805C85.5435 26.0005 85.9902 26.1538 86.5102 26.3405C87.2035 26.5805 87.7902 26.8472 88.2702 27.1405C88.7502 27.4338 89.1102 27.7938 89.3502 28.2205C89.6035 28.6472 89.7302 29.1738 89.7302 29.8005C89.7302 30.4005 89.5902 30.9672 89.3102 31.5005C89.0435 32.0205 88.5835 32.4472 87.9302 32.7805C87.2769 33.1005 86.3769 33.2605 85.2302 33.2605ZM86.1961 20.5205V15.9805H88.9561V20.5205H86.1961ZM94.7418 33.2605C94.0618 33.2605 93.4218 33.1805 92.8218 33.0205C92.2218 32.8738 91.6618 32.6605 91.1418 32.3805L91.9418 30.2005C92.2351 30.3738 92.5884 30.5272 93.0018 30.6605C93.4151 30.7938 93.8218 30.8605 94.2218 30.8605C94.9684 30.8605 95.5618 30.5805 96.0018 30.0205C96.4418 29.4472 96.6618 28.5938 96.6618 27.4605C96.6618 26.3938 96.4418 25.5805 96.0018 25.0205C95.5618 24.4605 94.8751 24.1805 93.9418 24.1805C93.5018 24.1805 93.0484 24.2472 92.5818 24.3805C92.1151 24.5005 91.7284 24.6538 91.4218 24.8405V22.3805C91.8351 22.1938 92.3018 22.0472 92.8218 21.9405C93.3418 21.8338 93.8951 21.7805 94.4818 21.7805C95.7084 21.7805 96.7084 22.0072 97.4818 22.4605C98.2551 22.9138 98.8218 23.5672 99.1818 24.4205C99.5418 25.2605 99.7218 26.2738 99.7218 27.4605C99.7218 29.3538 99.2884 30.7938 98.4218 31.7805C97.5551 32.7672 96.3284 33.2605 94.7418 33.2605ZM108.555 33.2005C107.609 33.2005 106.842 33.0205 106.255 32.6605C105.682 32.3005 105.275 31.8405 105.035 31.2805H104.875L104.555 33.0005H102.275V22.0405H105.275V27.2805C105.275 28.0405 105.362 28.6672 105.535 29.1605C105.709 29.6405 105.962 30.0005 106.295 30.2405C106.629 30.4805 107.029 30.6005 107.495 30.6005C108.055 30.6005 108.482 30.4338 108.775 30.1005C109.069 29.7672 109.215 29.2338 109.215 28.5005V22.0405H112.215V29.1605C112.215 30.0272 112.075 30.7605 111.795 31.3605C111.529 31.9605 111.122 32.4205 110.575 32.7405C110.029 33.0472 109.355 33.2005 108.555 33.2005ZM118.105 33.2005C117.505 33.2005 116.998 33.1072 116.585 32.9205C116.172 32.7338 115.858 32.4538 115.645 32.0805C115.432 31.6938 115.325 31.2138 115.325 30.6405V22.0405H118.325V30.2805C118.325 30.5338 118.378 30.7205 118.485 30.8405C118.605 30.9605 118.785 31.0205 119.025 31.0205C119.132 31.0205 119.245 31.0072 119.365 30.9805C119.485 30.9538 119.598 30.9205 119.705 30.8805L119.985 32.8005C119.732 32.9338 119.445 33.0338 119.125 33.1005C118.805 33.1672 118.465 33.2005 118.105 33.2005ZM124.125 33.2005C123.525 33.2005 123.018 33.1072 122.605 32.9205C122.192 32.7338 121.878 32.4538 121.665 32.0805C121.452 31.6938 121.345 31.2138 121.345 30.6405V22.0405H124.345V30.2805C124.345 30.5338 124.398 30.7205 124.505 30.8405C124.625 30.9605 124.805 31.0205 125.045 31.0205C125.152 31.0205 125.265 31.0072 125.385 30.9805C125.505 30.9538 125.618 30.9205 125.725 30.8805L126.005 32.8005C125.752 32.9338 125.465 33.0338 125.145 33.1005C124.825 33.1672 124.485 33.2005 124.125 33.2005ZM134.019 33.0005V25.8805C134.019 25.2405 133.845 24.7805 133.499 24.5005C133.152 24.2205 132.619 24.0805 131.899 24.0805C131.205 24.0805 130.525 24.1872 129.859 24.4005C129.205 24.6005 128.639 24.8405 128.159 25.1205V22.6405C128.545 22.4538 129.092 22.2672 129.799 22.0805C130.505 21.8805 131.325 21.7805 132.259 21.7805C132.939 21.7805 133.559 21.8538 134.119 22.0005C134.692 22.1338 135.192 22.3672 135.619 22.7005C136.045 23.0205 136.372 23.4538 136.599 24.0005C136.839 24.5338 136.959 25.2005 136.959 26.0005V33.0005H134.019ZM130.739 33.2005C129.592 33.2005 128.705 32.9272 128.079 32.3805C127.465 31.8338 127.159 31.0672 127.159 30.0805C127.159 29.0138 127.539 28.1605 128.299 27.5205C129.072 26.8805 130.285 26.4938 131.939 26.3605L134.499 26.1605V28.3205L132.279 28.5405C131.479 28.6205 130.919 28.7805 130.599 29.0205C130.292 29.2605 130.139 29.5805 130.139 29.9805C130.139 30.3805 130.265 30.6805 130.519 30.8805C130.785 31.0805 131.125 31.1805 131.539 31.1805C131.699 31.1805 131.859 31.1672 132.019 31.1405C132.179 31.1005 132.325 31.0605 132.459 31.0205L132.719 32.9005C132.465 32.9938 132.165 33.0672 131.819 33.1205C131.472 33.1738 131.112 33.2005 130.739 33.2005ZM130.731 20.5405V19.5405C130.918 19.4872 131.125 19.4138 131.351 19.3205C131.578 19.2272 131.778 19.1005 131.951 18.9405C132.125 18.7805 132.211 18.5805 132.211 18.3405C132.211 18.1538 132.158 18.0072 132.051 17.9005C131.945 17.7938 131.811 17.7405 131.651 17.7405C131.545 17.7405 131.431 17.7605 131.311 17.8005C131.191 17.8405 131.085 17.8805 130.991 17.9205L130.611 16.5805C130.878 16.3538 131.211 16.2072 131.611 16.1405C131.998 16.0605 132.325 16.0205 132.591 16.0205C133.191 16.0205 133.665 16.1605 134.011 16.4405C134.345 16.7205 134.511 17.1338 134.511 17.6805C134.511 17.9738 134.438 18.2472 134.291 18.5005C134.131 18.7538 133.891 18.9605 133.571 19.1205L133.491 18.6005H137.271V20.5405H130.731ZM142.671 33.2605C141.991 33.2605 141.351 33.1805 140.751 33.0205C140.151 32.8738 139.591 32.6605 139.071 32.3805L139.871 30.2005C140.165 30.3738 140.518 30.5272 140.931 30.6605C141.345 30.7938 141.751 30.8605 142.151 30.8605C142.898 30.8605 143.491 30.5805 143.931 30.0205C144.371 29.4472 144.591 28.5938 144.591 27.4605C144.591 26.3938 144.371 25.5805 143.931 25.0205C143.491 24.4605 142.805 24.1805 141.871 24.1805C141.431 24.1805 140.978 24.2472 140.511 24.3805C140.045 24.5005 139.658 24.6538 139.351 24.8405V22.3805C139.765 22.1938 140.231 22.0472 140.751 21.9405C141.271 21.8338 141.825 21.7805 142.411 21.7805C143.638 21.7805 144.638 22.0072 145.411 22.4605C146.185 22.9138 146.751 23.5672 147.111 24.4205C147.471 25.2605 147.651 26.2738 147.651 27.4605C147.651 29.3538 147.218 30.7938 146.351 31.7805C145.485 32.7672 144.258 33.2605 142.671 33.2605Z" fill="#919EAB"/>
<defs>
<filter id="filter0_ddd_2001_97" x="0" y="0" width="200.997" height="58.0117" filterUnits="userSpaceOnUse" color-interpolation-filters="sRGB">
<feFlood flood-opacity="0" result="BackgroundImageFix"/>
<feColorMatrix in="SourceAlpha" type="matrix" values="0 0 0 0 0 0 0 0 0 0 0 0 0 0 0 0 0 0 127 0" result="hardAlpha"/>
<feMorphology radius="2" operator="erode" in="SourceAlpha" result="effect1_dropShadow_2001_97"/>
<feOffset dy="3"/>
<feGaussianBlur stdDeviation="1.5"/>
<feComposite in2="hardAlpha" operator="out"/>
<feColorMatrix type="matrix" values="0 0 0 0 0 0 0 0 0 0 0 0 0 0 0 0 0 0 0.2 0"/>
<feBlend mode="normal" in2="BackgroundImageFix" result="effect1_dropShadow_2001_97"/>
<feColorMatrix in="SourceAlpha" type="matrix" values="0 0 0 0 0 0 0 0 0 0 0 0 0 0 0 0 0 0 127 0" result="hardAlpha"/>
<feOffset dy="3"/>
<feGaussianBlur stdDeviation="2"/>
<feComposite in2="hardAlpha" operator="out"/>
<feColorMatrix type="matrix" values="0 0 0 0 0 0 0 0 0 0 0 0 0 0 0 0 0 0 0.14 0"/>
<feBlend mode="normal" in2="effect1_dropShadow_2001_97" result="effect2_dropShadow_2001_97"/>
<feColorMatrix in="SourceAlpha" type="matrix" values="0 0 0 0 0 0 0 0 0 0 0 0 0 0 0 0 0 0 127 0" result="hardAlpha"/>
<feOffset dy="1"/>
<feGaussianBlur stdDeviation="4"/>
<feComposite in2="hardAlpha" operator="out"/>
<feColorMatrix type="matrix" values="0 0 0 0 0 0 0 0 0 0 0 0 0 0 0 0 0 0 0.12 0"/>
<feBlend mode="normal" in2="effect2_dropShadow_2001_97" result="effect3_dropShadow_2001_97"/>
<feBlend mode="normal" in="SourceGraphic" in2="effect3_dropShadow_2001_97" result="shape"/>
</filter>
</defs>
</svg>
