<svg width="201" height="59" viewBox="0 0 201 59" fill="none" xmlns="http://www.w3.org/2000/svg">
<g filter="url(#filter0_ddd_2001_76)">
<path d="M119.426 7.01548C123.446 7.01548 127.429 6.99675 131.42 7.00049C146.256 7.01173 161.096 6.993 175.924 7.05295C176.268 9.19603 176.97 11.0469 179.021 11.9686C179.712 12.2795 181.027 12.1671 181.345 12.6092C181.877 13.3548 181.057 16.0412 182.088 17.4761C182.671 18.2892 184.922 19.9302 184.829 17.8808L183.728 17.6972C184.386 16.6444 185.849 17.1052 185.506 18.3641C185.373 18.8549 184.637 19.0722 184.837 19.7504C189.031 18.6901 192.445 25.3141 188.181 26.7042C184.512 27.8993 183.521 22.6615 186.536 22.3805C190.505 22.0096 187.294 27.1612 186.315 24.8083C185.953 23.9429 187.774 24.3213 187.782 23.6918C187.782 23.5757 186.921 22.6952 186.536 22.7702C185.605 22.9575 184.726 25.5539 186.189 26.0635C190.265 27.4797 190.472 21.4326 186.858 20.5109L186.681 21.6274C185.62 21.4701 184.874 20.6945 183.725 21.0542C183.144 21.5188 184.186 23.3846 184.09 24.4075C183.994 25.4303 183.096 26.3745 182.62 27.2474C183.359 27.5472 184.05 26.1197 184.282 26.1347C184.53 26.1497 184.685 26.9439 184.944 27.135C185.65 27.6521 188.162 27.8132 189.012 27.5509C189.541 27.386 190.062 26.5056 190.195 26.5093C190.361 26.5131 190.749 27.2662 191.111 27.3973C191.506 27.5397 192.833 27.2811 192.97 27.8207C193.247 28.9222 191.362 28.3864 191.096 28.5812C190.79 28.8098 190.886 29.5067 190.557 29.5141C189.969 29.5254 189.515 28.7461 188.92 28.5475C187.708 28.1429 185.797 28.4688 184.715 29.1245C184.367 29.3343 184.56 29.9975 184.282 29.8776C183.802 29.6678 183.47 28.5288 182.62 28.7573C183.399 29.7614 183.854 30.8067 183.928 32.1106C183.976 32.9761 183.229 34.6583 183.713 34.9468C184.774 35.4863 185.775 34.8906 186.684 34.3736C185.679 36.7677 188.358 34.9993 188.979 33.8865C191.281 29.7502 185.642 28.4314 185.262 31.2788C184.962 33.5006 188.417 33.4369 187.793 32.3166C185.047 31.5636 186.906 29.8926 188.07 31.1027C190.446 33.5718 183.47 35.5238 184.918 30.5183C185.724 27.7382 191.251 29.102 189.847 33.6467C189.023 36.3068 184.822 36.2319 184.848 36.8089C184.848 36.8951 185.413 37.2398 185.487 37.6257C185.712 38.7984 184.549 39.4915 183.736 38.3038L184.663 38.1165C185.007 38.1727 185.317 36.9775 183.64 37.4645C180.384 38.405 181.925 43.3431 181.515 43.7402C181.437 43.8151 179.989 43.7777 179.357 43.9912C177.458 44.6244 175.902 46.9361 176.345 48.993L25.0559 49.0117C24.6458 47.7529 24.2098 45.7859 23.1936 44.8567C22.2107 43.9575 19.7867 43.8563 19.4652 43.3918C18.9885 42.7099 19.4837 40.4694 19.2952 39.4428C19.0661 38.2176 16.5756 35.9734 15.9807 38.1202L17.0856 38.3038C16.4278 39.3566 14.9646 38.8958 15.3082 37.6369C15.4412 37.1461 16.1766 36.9288 15.977 36.2506C10.5526 37.3634 8.53505 28.6149 14.2182 29.2182C18.0722 29.6265 15.7923 35.299 13.0763 33.568C11.6426 32.6538 13.76 29.4842 14.4953 31.1926C14.8796 32.0881 13.505 31.6235 13.3904 31.7509C12.1969 33.0472 15.929 34.19 15.6112 31.2001C15.3525 28.7461 9.90594 29.3905 11.8237 33.9015C12.3115 35.0442 15.286 36.6852 14.1295 34.3736C15.3156 34.7557 16.0583 35.4414 17.4514 35.1191C16.8934 32.7175 16.7456 30.6044 18.5599 28.7573C17.3664 28.4126 17.2371 30.0237 16.5313 29.8813C16.1987 29.8139 16.4315 29.3455 16.0842 29.1282C14.3327 28.0267 11.8754 27.8843 10.438 29.5066C10.5526 27.9518 8.67547 28.8697 8.21358 28.3789C7.24545 27.3448 9.87637 27.5434 9.98353 27.5134C10.05 27.4947 10.0611 26.8952 10.2754 26.8615C11.1364 26.7304 12.766 28.0942 14.9719 27.5584C15.6777 27.386 16.232 26.618 16.5867 26.558C17.1779 26.4606 17.4662 27.4722 18.1867 27.2587C18.1128 26.2471 17.2777 25.9174 17.1003 24.8046C16.6569 22.0058 18.9922 19.6829 14.1221 21.6349L14.8574 20.6983C14.3659 20.3236 12.8805 20.9755 12.2708 21.2603C11.214 23.4783 10.8778 26.8016 14.2884 26.1234C15.8588 25.8087 15.8662 23.6244 15.1678 23.1898C13.6084 22.2194 12.1119 24.5236 14.4842 24.2613C13.9891 27.0826 11.3692 23.5869 13.3757 22.5716C16.195 21.1441 17.7839 26.4194 14.2662 26.8727C10.6191 27.3448 9.52535 22.5641 12.2671 21.264C13.2463 19.2033 15.3489 20.2824 15.9622 19.7616C16.0694 19.6717 15.3341 17.7047 15.5964 17.1427L17.0671 17.7084C17.2703 18.8886 16.1729 17.6635 15.9659 17.892C15.2528 18.6713 17.3738 19.5668 18.7114 17.8658C19.7867 16.502 18.9183 13.6958 19.7424 12.7329C20.049 12.3769 21.2574 12.3582 21.8375 12.0435C23.8624 10.9495 24.6975 9.34215 24.8453 7.0417L51.4354 7.02297C53.8853 7.33769 56.3795 7.34144 58.8257 7.02297C58.9476 7.02297 59.0732 7.02297 59.1952 7.02297C61.2718 7.34144 63.4002 7.34518 65.4769 7.02297C65.7245 7.02297 65.9683 7.02297 66.2159 7.02297C69.1572 7.33769 72.1429 7.33769 75.0842 7.02297C76.5955 7.02297 78.0403 7.02297 79.5184 7.02297C81.9682 7.33769 84.4624 7.34144 86.9086 7.02297L88.0171 7.02297C89.2181 7.34893 90.5077 7.34144 91.7123 7.02297C92.6952 7.02297 93.6855 7.02297 94.6684 7.02297C98.09 7.26276 101.671 7.46882 105.015 7.02297C105.754 7.02297 106.493 7.02297 107.232 7.02297C109.682 7.34144 112.176 7.34144 114.622 7.02297C114.87 7.02297 115.113 7.02297 115.361 7.02297C116.688 7.35268 118.099 7.34144 119.426 7.02297L119.426 7.01548Z" fill="#919EAB"/>
</g>
<path d="M94.6684 7.0155C98.1122 7.0155 101.571 7.0155 105.015 7.0155C104.63 7.63745 103.614 7.39017 102.986 7.39766C100.318 7.42763 97.2069 7.67866 94.6684 7.0155Z" fill="#919EAB"/>
<path d="M66.2159 7.0155C69.1683 7.0155 72.1318 7.0155 75.0842 7.0155C72.4385 7.64119 68.8616 7.64119 66.2159 7.0155Z" fill="#919EAB"/>
<path d="M51.4354 7.0155C53.8926 7.0155 56.3684 7.0155 58.8256 7.0155C56.7083 7.64119 53.5822 7.64494 51.4354 7.0155Z" fill="#919EAB"/>
<path d="M107.232 7.0155C109.689 7.0155 112.165 7.0155 114.622 7.0155C112.505 7.64119 109.379 7.64494 107.232 7.0155Z" fill="#919EAB"/>
<path d="M79.5183 7.0155C81.9793 7.0155 84.4476 7.0155 86.9086 7.0155C84.7913 7.64119 81.6652 7.64494 79.5183 7.0155Z" fill="#919EAB"/>
<path d="M59.1952 7.0155C61.2866 7.0155 63.3854 7.0155 65.4769 7.0155C63.7623 7.64494 60.9356 7.64494 59.1952 7.0155Z" fill="#919EAB"/>
<path d="M115.361 7.0155C116.713 7.0155 118.073 7.0155 119.426 7.0155C118.487 7.65618 116.226 7.63745 115.361 7.0155Z" fill="#919EAB"/>
<path d="M88.0171 7.0155C89.2439 7.0155 90.4854 7.0155 91.7122 7.0155C90.8956 7.65618 88.7635 7.63745 88.0171 7.0155Z" fill="#919EAB"/>
<path d="M180.717 42.9347C178.503 43.3543 177.162 44.291 176.057 46.2655C175.407 47.4269 176.087 48.4011 174.317 48.6221C168.807 49.3115 161.325 48.3411 155.612 48.3524C145.251 48.3711 134.727 48.6146 124.433 48.6221C91.5423 48.6483 58.6298 48.4348 25.8134 48.6221C24.7492 45.3588 23.4707 43.5192 20.0047 42.7586L20.0047 13.2387C21.9225 12.6317 23.6702 11.9986 24.7788 10.1477C25.3663 9.16609 25.1594 7.58125 26.4748 7.57751L175.381 7.74237C176.064 10.9233 177.687 12.5381 180.787 13.2425C180.82 23.2385 181.06 32.9723 180.72 42.9384L180.717 42.9347Z" fill="#F8F3E8"/>
<path d="M181.504 26.8728C180.872 25.3629 182.246 24.9133 182.25 24.7859C182.276 23.8679 181.223 22.4629 182.978 21.6274C183.41 23.5083 183.957 26.3332 181.507 26.869L181.504 26.8728Z" fill="#F8F3E8"/>
<path d="M182.978 34.366C181.223 33.523 182.28 32.1293 182.254 31.2076C182.254 31.084 180.876 30.6306 181.507 29.1207C183.591 29.694 183.636 32.6538 182.978 34.3623L182.978 34.366Z" fill="#F8F3E8"/>
<path d="M19.2841 26.8727C16.2209 26.0597 17.9834 19.8702 18.8629 22.6315C19.1733 23.6056 18.5229 24.8645 18.5932 24.9582C18.9331 25.419 20.171 24.9207 19.2841 26.8727Z" fill="#F8F3E8"/>
<path d="M19.1474 30.8741C19.0994 31.0015 18.5525 31.009 18.5451 31.2151C18.5119 32.2117 19.7423 33.5605 17.8135 34.3697C17.529 32.3203 17.0892 29.7464 19.6573 29.1282C19.3691 29.6902 19.3691 30.2971 19.1474 30.8779L19.1474 30.8741Z" fill="#F8F3E8"/>
<path d="M18.922 20.125C19.1031 20.3348 20.1414 19.6379 19.1031 21.6274C18.5969 20.1737 17.6583 20.7732 16.7086 19.9414L19.6537 17.8807C20.1119 18.6413 18.8444 20.0313 18.922 20.125Z" fill="#F8F3E8"/>
<path d="M19.6537 38.1127L16.7013 35.8684C18.2089 35.1528 19.9788 36.3555 19.6537 38.1127Z" fill="#F8F3E8"/>
<path d="M184.09 36.6103C182.971 36.6515 182.365 37.5732 181.507 38.1127C181.297 36.8014 182.246 35.1529 183.617 35.7636C184.135 35.9959 184.197 35.8385 184.087 36.6066L184.09 36.6103Z" fill="#F8F3E8"/>
<path d="M184.09 20.125C182.42 20.953 181.33 19.533 181.507 17.8807L184.09 20.125Z" fill="#F8F3E8"/>
<path d="M43.5667 24.0405V21.1205C43.5667 20.6138 43.6133 20.2072 43.7067 19.9005C43.8 19.5805 43.9267 19.3205 44.0867 19.1205C44.2467 18.9205 44.4133 18.7538 44.5867 18.6205L44.5667 18.5405H41.4667L42.0267 16.3805H48.3867V18.5405C47.8933 18.5405 47.4667 18.7005 47.1067 19.0205C46.7467 19.3405 46.5667 19.9272 46.5667 20.7805V24.0405H43.5667ZM46.3467 33.2005C45.7467 33.2005 45.24 33.1072 44.8267 32.9205C44.4133 32.7338 44.1 32.4538 43.8867 32.0805C43.6733 31.6938 43.5667 31.2138 43.5667 30.6405V22.0405H46.5667V30.2805C46.5667 30.5338 46.62 30.7205 46.7267 30.8405C46.8467 30.9605 47.0267 31.0205 47.2667 31.0205C47.3733 31.0205 47.4867 31.0072 47.6067 30.9805C47.7267 30.9538 47.84 30.9205 47.9467 30.8805L48.2267 32.8005C47.9733 32.9338 47.6867 33.0338 47.3667 33.1005C47.0467 33.1672 46.7067 33.2005 46.3467 33.2005ZM56.2603 33.2005C55.3136 33.2005 54.5469 33.0205 53.9603 32.6605C53.3869 32.3005 52.9803 31.8405 52.7403 31.2805H52.5803L52.2603 33.0005H49.9803V22.0405H52.9803V27.2805C52.9803 28.0405 53.0669 28.6672 53.2403 29.1605C53.4136 29.6405 53.6669 30.0005 54.0003 30.2405C54.3336 30.4805 54.7336 30.6005 55.2003 30.6005C55.7603 30.6005 56.1869 30.4338 56.4803 30.1005C56.7736 29.7672 56.9203 29.2338 56.9203 28.5005V22.0405H59.9203V29.1605C59.9203 30.0272 59.7803 30.7605 59.5003 31.3605C59.2336 31.9605 58.8269 32.4205 58.2803 32.7405C57.7336 33.0472 57.0603 33.2005 56.2603 33.2005ZM57.1434 20.5205V15.9805H59.9034V20.5205H57.1434ZM63.43 24.0405V21.1205C63.43 20.6138 63.4766 20.2072 63.57 19.9005C63.6633 19.5805 63.79 19.3205 63.95 19.1205C64.11 18.9205 64.2766 18.7538 64.45 18.6205L64.43 18.5405H61.33L61.89 16.3805H68.25V18.5405C67.7566 18.5405 67.33 18.7005 66.97 19.0205C66.61 19.3405 66.43 19.9272 66.43 20.7805V24.0405H63.43ZM66.21 33.2005C65.61 33.2005 65.1033 33.1072 64.69 32.9205C64.2766 32.7338 63.9633 32.4538 63.75 32.0805C63.5366 31.6938 63.43 31.2138 63.43 30.6405V22.0405H66.43V30.2805C66.43 30.5338 66.4833 30.7205 66.59 30.8405C66.71 30.9605 66.89 31.0205 67.13 31.0205C67.2366 31.0205 67.35 31.0072 67.47 30.9805C67.59 30.9538 67.7033 30.9205 67.81 30.8805L68.09 32.8005C67.8366 32.9338 67.55 33.0338 67.23 33.1005C66.91 33.1672 66.57 33.2005 66.21 33.2005ZM73.4082 33.2005C72.3282 33.2005 71.4682 32.9672 70.8282 32.5005C70.1882 32.0205 69.7282 31.3672 69.4482 30.5405C69.1682 29.7005 69.0282 28.7405 69.0282 27.6605C69.0282 26.5005 69.1549 25.5405 69.4082 24.7805C69.6749 24.0072 70.0482 23.4072 70.5282 22.9805C71.0082 22.5405 71.5749 22.2338 72.2282 22.0605C72.8949 21.8738 73.6216 21.7805 74.4082 21.7805C75.6082 21.7805 76.5682 21.9472 77.2882 22.2805C78.0082 22.6138 78.5282 23.0872 78.8482 23.7005C79.1816 24.3138 79.3482 25.0338 79.3482 25.8605V33.0005H76.3482V26.1005C76.3482 25.4738 76.1949 25.0005 75.8882 24.6805C75.5949 24.3472 75.1016 24.1805 74.4082 24.1805C73.9416 24.1805 73.5282 24.2805 73.1682 24.4805C72.8216 24.6672 72.5482 25.0072 72.3482 25.5005C72.1616 25.9938 72.0682 26.7005 72.0682 27.6205C72.0682 28.2472 72.1282 28.8005 72.2482 29.2805C72.3682 29.7605 72.5616 30.1338 72.8282 30.4005C73.1082 30.6672 73.4816 30.8005 73.9482 30.8005C74.0949 30.8005 74.2349 30.7938 74.3682 30.7805C74.5149 30.7538 74.6416 30.7272 74.7482 30.7005L75.0282 32.9405C74.8149 33.0338 74.5549 33.1005 74.2482 33.1405C73.9549 33.1805 73.6749 33.2005 73.4082 33.2005ZM72.8896 20.5405V19.5405C73.0763 19.4872 73.283 19.4138 73.5096 19.3205C73.7363 19.2272 73.9363 19.1005 74.1096 18.9405C74.283 18.7805 74.3696 18.5805 74.3696 18.3405C74.3696 18.1538 74.3163 18.0072 74.2096 17.9005C74.103 17.7938 73.9696 17.7405 73.8096 17.7405C73.703 17.7405 73.5896 17.7605 73.4696 17.8005C73.3496 17.8405 73.243 17.8805 73.1496 17.9205L72.7696 16.5805C73.0363 16.3538 73.3696 16.2072 73.7696 16.1405C74.1563 16.0605 74.483 16.0205 74.7496 16.0205C75.3496 16.0205 75.823 16.1605 76.1696 16.4405C76.503 16.7205 76.6696 17.1338 76.6696 17.6805C76.6696 17.9738 76.5963 18.2472 76.4496 18.5005C76.2896 18.7538 76.0496 18.9605 75.7296 19.1205L75.6496 18.6005H79.4296V20.5405H72.8896ZM82.844 24.0405V21.1205C82.844 20.6138 82.8907 20.2072 82.984 19.9005C83.0774 19.5805 83.204 19.3205 83.364 19.1205C83.524 18.9205 83.6907 18.7538 83.864 18.6205L83.844 18.5405H80.744L81.304 16.3805H87.664V18.5405C87.1707 18.5405 86.744 18.7005 86.384 19.0205C86.024 19.3405 85.844 19.9272 85.844 20.7805V24.0405H82.844ZM85.624 33.2005C85.024 33.2005 84.5174 33.1072 84.104 32.9205C83.6907 32.7338 83.3774 32.4538 83.164 32.0805C82.9507 31.6938 82.844 31.2138 82.844 30.6405V22.0405H85.844V30.2805C85.844 30.5338 85.8974 30.7205 86.004 30.8405C86.124 30.9605 86.304 31.0205 86.544 31.0205C86.6507 31.0205 86.764 31.0072 86.884 30.9805C87.004 30.9538 87.1174 30.9205 87.224 30.8805L87.504 32.8005C87.2507 32.9338 86.964 33.0338 86.644 33.1005C86.324 33.1672 85.984 33.2005 85.624 33.2005ZM93.8809 33.2605C92.1476 33.2605 90.8876 32.8605 90.1009 32.0605C89.3276 31.2472 88.9409 30.0738 88.9409 28.5405V22.0405H91.9409V28.7005C91.9409 29.4072 92.0942 29.9472 92.4009 30.3205C92.7209 30.6805 93.2142 30.8605 93.8809 30.8605C94.5476 30.8605 95.0342 30.6805 95.3409 30.3205C95.6609 29.9472 95.8209 29.4072 95.8209 28.7005V18.1005H98.8209V28.5405C98.8209 30.0738 98.4276 31.2472 97.6409 32.0605C96.8676 32.8605 95.6142 33.2605 93.8809 33.2605ZM104.716 33.2005C104.116 33.2005 103.61 33.1072 103.196 32.9205C102.783 32.7338 102.47 32.4538 102.256 32.0805C102.043 31.6938 101.936 31.2138 101.936 30.6405V22.0405H104.936V30.2805C104.936 30.5338 104.99 30.7205 105.096 30.8405C105.216 30.9605 105.396 31.0205 105.636 31.0205C105.743 31.0205 105.856 31.0072 105.976 30.9805C106.096 30.9538 106.21 30.9205 106.316 30.8805L106.596 32.8005C106.343 32.9338 106.056 33.0338 105.736 33.1005C105.416 33.1672 105.076 33.2005 104.716 33.2005ZM112.328 33.2605C110.834 33.2605 109.708 32.9272 108.948 32.2605C108.188 31.5938 107.808 30.6205 107.808 29.3405V28.5405C107.808 27.9938 107.881 27.5472 108.028 27.2005C108.174 26.8405 108.354 26.5138 108.568 26.2205C108.781 25.9272 108.954 25.6672 109.088 25.4405C109.234 25.2005 109.308 24.9538 109.308 24.7005C109.308 24.4605 109.248 24.2938 109.128 24.2005C109.021 24.0938 108.874 24.0405 108.688 24.0405C108.554 24.0405 108.414 24.0605 108.268 24.1005C108.134 24.1405 107.981 24.2005 107.808 24.2805L107.328 22.4005C107.701 22.2005 108.101 22.0672 108.528 22.0005C108.968 21.9205 109.354 21.8805 109.688 21.8805C110.274 21.8805 110.741 21.9738 111.088 22.1605C111.448 22.3472 111.708 22.6138 111.868 22.9605C112.028 23.3072 112.108 23.7205 112.108 24.2005C112.108 24.6138 112.048 24.9805 111.928 25.3005C111.808 25.6072 111.654 25.9272 111.468 26.2605C111.294 26.5672 111.134 26.8538 110.988 27.1205C110.854 27.3872 110.788 27.7738 110.788 28.2805V29.0805C110.788 29.5072 110.848 29.8605 110.968 30.1405C111.101 30.4072 111.281 30.6072 111.508 30.7405C111.748 30.8605 112.028 30.9205 112.348 30.9205C112.868 30.9205 113.254 30.7738 113.508 30.4805C113.761 30.1738 113.888 29.7405 113.888 29.1805V22.0405H116.868V29.2605C116.868 30.5805 116.481 31.5805 115.708 32.2605C114.934 32.9272 113.808 33.2605 112.328 33.2605ZM110.819 20.5405V19.5405C111.006 19.4872 111.213 19.4138 111.439 19.3205C111.666 19.2272 111.866 19.1005 112.039 18.9405C112.213 18.7805 112.299 18.5805 112.299 18.3405C112.299 18.1538 112.246 18.0072 112.139 17.9005C112.033 17.7938 111.899 17.7405 111.739 17.7405C111.633 17.7405 111.519 17.7605 111.399 17.8005C111.279 17.8405 111.173 17.8805 111.079 17.9205L110.699 16.5805C110.966 16.3538 111.299 16.2072 111.699 16.1405C112.086 16.0605 112.413 16.0205 112.679 16.0205C113.279 16.0205 113.753 16.1605 114.099 16.4405C114.433 16.7205 114.599 17.1338 114.599 17.6805C114.599 17.9738 114.526 18.2472 114.379 18.5005C114.219 18.7538 113.979 18.9605 113.659 19.1205L113.579 18.6005H117.359V20.5405H110.819ZM122.564 33.0005V25.7605C122.564 25.2005 122.43 24.7938 122.164 24.5405C121.91 24.2872 121.49 24.1605 120.904 24.1605C120.464 24.1605 120.057 24.2205 119.684 24.3405C119.324 24.4605 118.984 24.6072 118.664 24.7805V22.3805C118.957 22.2472 119.37 22.1138 119.904 21.9805C120.437 21.8472 121.064 21.7805 121.784 21.7805C122.517 21.7805 123.164 21.8872 123.724 22.1005C124.297 22.3138 124.744 22.6738 125.064 23.1805C125.397 23.6738 125.564 24.3538 125.564 25.2205V33.0005H122.564ZM132.115 33.2605C131.328 33.2605 130.535 33.1738 129.735 33.0005C128.948 32.8272 128.248 32.5805 127.635 32.2605L128.475 29.8805C128.742 30.0272 129.062 30.1805 129.435 30.3405C129.808 30.5005 130.215 30.6338 130.655 30.7405C131.095 30.8472 131.542 30.9005 131.995 30.9005C132.528 30.9005 132.928 30.8272 133.195 30.6805C133.475 30.5205 133.615 30.2805 133.615 29.9605C133.615 29.7205 133.522 29.5272 133.335 29.3805C133.162 29.2205 132.902 29.0738 132.555 28.9405C132.208 28.7938 131.795 28.6405 131.315 28.4805C130.608 28.2272 130.002 27.9538 129.495 27.6605C128.988 27.3672 128.595 27.0072 128.315 26.5805C128.048 26.1538 127.915 25.6205 127.915 24.9805C127.915 24.2472 128.102 23.6472 128.475 23.1805C128.848 22.7138 129.375 22.3672 130.055 22.1405C130.735 21.9005 131.528 21.7805 132.435 21.7805C133.182 21.7805 133.855 21.8405 134.455 21.9605C135.055 22.0805 135.522 22.2338 135.855 22.4205V24.7805C135.628 24.6738 135.328 24.5672 134.955 24.4605C134.595 24.3538 134.202 24.2672 133.775 24.2005C133.362 24.1205 132.962 24.0805 132.575 24.0805C132.028 24.0805 131.615 24.1538 131.335 24.3005C131.055 24.4472 130.915 24.6538 130.915 24.9205C130.915 25.1338 131.008 25.3138 131.195 25.4605C131.395 25.6072 131.682 25.7472 132.055 25.8805C132.428 26.0005 132.875 26.1538 133.395 26.3405C134.088 26.5805 134.675 26.8472 135.155 27.1405C135.635 27.4338 135.995 27.7938 136.235 28.2205C136.488 28.6472 136.615 29.1738 136.615 29.8005C136.615 30.4005 136.475 30.9672 136.195 31.5005C135.928 32.0205 135.468 32.4472 134.815 32.7805C134.162 33.1005 133.262 33.2605 132.115 33.2605ZM133.081 20.5205V15.9805H135.841V20.5205H133.081ZM141.627 33.2605C140.947 33.2605 140.307 33.1805 139.707 33.0205C139.107 32.8738 138.547 32.6605 138.027 32.3805L138.827 30.2005C139.12 30.3738 139.473 30.5272 139.887 30.6605C140.3 30.7938 140.707 30.8605 141.107 30.8605C141.853 30.8605 142.447 30.5805 142.887 30.0205C143.327 29.4472 143.547 28.5938 143.547 27.4605C143.547 26.3938 143.327 25.5805 142.887 25.0205C142.447 24.4605 141.76 24.1805 140.827 24.1805C140.387 24.1805 139.933 24.2472 139.467 24.3805C139 24.5005 138.613 24.6538 138.307 24.8405V22.3805C138.72 22.1938 139.187 22.0472 139.707 21.9405C140.227 21.8338 140.78 21.7805 141.367 21.7805C142.593 21.7805 143.593 22.0072 144.367 22.4605C145.14 22.9138 145.707 23.5672 146.067 24.4205C146.427 25.2605 146.607 26.2738 146.607 27.4605C146.607 29.3538 146.173 30.7938 145.307 31.7805C144.44 32.7672 143.213 33.2605 141.627 33.2605ZM155.44 33.2005C154.493 33.2005 153.727 33.0205 153.14 32.6605C152.567 32.3005 152.16 31.8405 151.92 31.2805H151.76L151.44 33.0005H149.16V22.0405H152.16V27.2805C152.16 28.0405 152.247 28.6672 152.42 29.1605C152.593 29.6405 152.847 30.0005 153.18 30.2405C153.513 30.4805 153.913 30.6005 154.38 30.6005C154.94 30.6005 155.367 30.4338 155.66 30.1005C155.953 29.7672 156.1 29.2338 156.1 28.5005V22.0405H159.1V29.1605C159.1 30.0272 158.96 30.7605 158.68 31.3605C158.413 31.9605 158.007 32.4205 157.46 32.7405C156.913 33.0472 156.24 33.2005 155.44 33.2005Z" fill="#919EAB"/>
<defs>
<filter id="filter0_ddd_2001_76" x="0" y="0" width="200.997" height="58.0117" filterUnits="userSpaceOnUse" color-interpolation-filters="sRGB">
<feFlood flood-opacity="0" result="BackgroundImageFix"/>
<feColorMatrix in="SourceAlpha" type="matrix" values="0 0 0 0 0 0 0 0 0 0 0 0 0 0 0 0 0 0 127 0" result="hardAlpha"/>
<feMorphology radius="2" operator="erode" in="SourceAlpha" result="effect1_dropShadow_2001_76"/>
<feOffset dy="3"/>
<feGaussianBlur stdDeviation="1.5"/>
<feComposite in2="hardAlpha" operator="out"/>
<feColorMatrix type="matrix" values="0 0 0 0 0 0 0 0 0 0 0 0 0 0 0 0 0 0 0.2 0"/>
<feBlend mode="normal" in2="BackgroundImageFix" result="effect1_dropShadow_2001_76"/>
<feColorMatrix in="SourceAlpha" type="matrix" values="0 0 0 0 0 0 0 0 0 0 0 0 0 0 0 0 0 0 127 0" result="hardAlpha"/>
<feOffset dy="3"/>
<feGaussianBlur stdDeviation="2"/>
<feComposite in2="hardAlpha" operator="out"/>
<feColorMatrix type="matrix" values="0 0 0 0 0 0 0 0 0 0 0 0 0 0 0 0 0 0 0.14 0"/>
<feBlend mode="normal" in2="effect1_dropShadow_2001_76" result="effect2_dropShadow_2001_76"/>
<feColorMatrix in="SourceAlpha" type="matrix" values="0 0 0 0 0 0 0 0 0 0 0 0 0 0 0 0 0 0 127 0" result="hardAlpha"/>
<feOffset dy="1"/>
<feGaussianBlur stdDeviation="4"/>
<feComposite in2="hardAlpha" operator="out"/>
<feColorMatrix type="matrix" values="0 0 0 0 0 0 0 0 0 0 0 0 0 0 0 0 0 0 0.12 0"/>
<feBlend mode="normal" in2="effect2_dropShadow_2001_76" result="effect3_dropShadow_2001_76"/>
<feBlend mode="normal" in="SourceGraphic" in2="effect3_dropShadow_2001_76" result="shape"/>
</filter>
</defs>
</svg>
