<svg width="201" height="59" viewBox="0 0 201 59" fill="none" xmlns="http://www.w3.org/2000/svg">
<g filter="url(#filter0_ddd_4561_4955)">
<path d="M119.426 7.01548C123.446 7.01548 127.429 6.99675 131.42 7.00049C146.256 7.01173 161.096 6.993 175.924 7.05295C176.268 9.19603 176.97 11.0469 179.021 11.9686C179.712 12.2795 181.027 12.1671 181.345 12.6092C181.877 13.3548 181.057 16.0412 182.088 17.4761C182.672 18.2892 184.922 19.9302 184.829 17.8808L183.728 17.6972C184.386 16.6444 185.849 17.1052 185.506 18.3641C185.373 18.8549 184.637 19.0722 184.837 19.7504C189.031 18.6901 192.445 25.3141 188.181 26.7042C184.512 27.8993 183.521 22.6615 186.537 22.3805C190.505 22.0096 187.294 27.1612 186.315 24.8083C185.953 23.9429 187.774 24.3213 187.782 23.6918C187.782 23.5757 186.921 22.6952 186.537 22.7702C185.605 22.9575 184.726 25.5539 186.189 26.0635C190.265 27.4797 190.472 21.4326 186.858 20.5109L186.681 21.6274C185.62 21.4701 184.874 20.6945 183.725 21.0542C183.144 21.5188 184.187 23.3846 184.09 24.4075C183.994 25.4303 183.096 26.3745 182.62 27.2474C183.359 27.5472 184.05 26.1197 184.283 26.1347C184.53 26.1497 184.685 26.9439 184.944 27.135C185.65 27.6521 188.162 27.8132 189.012 27.5509C189.541 27.386 190.062 26.5056 190.195 26.5093C190.361 26.5131 190.749 27.2662 191.111 27.3973C191.507 27.5397 192.833 27.2811 192.97 27.8207C193.247 28.9222 191.362 28.3864 191.096 28.5812C190.79 28.8098 190.886 29.5067 190.557 29.5141C189.969 29.5254 189.515 28.7461 188.92 28.5475C187.708 28.1429 185.798 28.4688 184.715 29.1245C184.368 29.3343 184.56 29.9975 184.283 29.8776C183.802 29.6678 183.47 28.5288 182.62 28.7573C183.399 29.7614 183.854 30.8067 183.928 32.1106C183.976 32.9761 183.229 34.6583 183.714 34.9468C184.774 35.4863 185.775 34.8906 186.684 34.3736C185.679 36.7677 188.358 34.9993 188.979 33.8865C191.281 29.7502 185.642 28.4314 185.262 31.2788C184.962 33.5006 188.417 33.4369 187.793 32.3166C185.047 31.5636 186.906 29.8926 188.07 31.1027C190.446 33.5718 183.47 35.5238 184.918 30.5183C185.724 27.7382 191.252 29.102 189.847 33.6467C189.023 36.3068 184.822 36.2319 184.848 36.8089C184.848 36.8951 185.413 37.2398 185.487 37.6257C185.713 38.7984 184.549 39.4915 183.736 38.3038L184.663 38.1165C185.007 38.1727 185.317 36.9775 183.64 37.4645C180.384 38.405 181.925 43.3431 181.515 43.7402C181.437 43.8151 179.989 43.7777 179.357 43.9912C177.458 44.6244 175.902 46.9361 176.345 48.993L25.0561 49.0117C24.6459 47.7529 24.2099 45.7859 23.1937 44.8567C22.2108 43.9575 19.7868 43.8563 19.4653 43.3918C18.9887 42.7099 19.4838 40.4694 19.2954 39.4428C19.0663 38.2176 16.5758 35.9734 15.9808 38.1202L17.0857 38.3038C16.4279 39.3566 14.9647 38.8958 15.3083 37.6369C15.4413 37.1461 16.1767 36.9288 15.9771 36.2506C10.5527 37.3634 8.53517 28.6149 14.2183 29.2182C18.0723 29.6265 15.7924 35.299 13.0765 33.568C11.6428 32.6538 13.7601 29.4842 14.4954 31.1926C14.8797 32.0881 13.5051 31.6235 13.3906 31.7509C12.197 33.0472 15.9291 34.19 15.6113 31.2001C15.3527 28.7461 9.90607 29.3905 11.8238 33.9015C12.3116 35.0442 15.2862 36.6852 14.1296 34.3736C15.3157 34.7557 16.0584 35.4414 17.4515 35.1191C16.8935 32.7175 16.7457 30.6044 18.56 28.7573C17.3665 28.4126 17.2372 30.0237 16.5314 29.8813C16.1989 29.8139 16.4316 29.3455 16.0843 29.1282C14.3328 28.0267 11.8756 27.8843 10.4382 29.5066C10.5527 27.9518 8.67558 28.8697 8.2137 28.3789C7.24557 27.3448 9.87649 27.5434 9.98366 27.5134C10.0502 27.4947 10.0612 26.8952 10.2756 26.8615C11.1365 26.7304 12.7661 28.0942 14.9721 27.5584C15.6778 27.386 16.2321 26.618 16.5868 26.558C17.1781 26.4606 17.4663 27.4722 18.1868 27.2587C18.1129 26.2471 17.2778 25.9174 17.1005 24.8046C16.657 22.0058 18.9924 19.6829 14.1222 21.6349L14.8575 20.6983C14.3661 20.3236 12.8806 20.9755 12.2709 21.2603C11.2141 23.4783 10.8779 26.8016 14.2885 26.1234C15.8589 25.8087 15.8663 23.6244 15.1679 23.1898C13.6086 22.2194 12.1121 24.5236 14.4843 24.2613C13.9892 27.0826 11.3693 23.5869 13.3758 22.5716C16.1952 21.1441 17.7841 26.4194 14.2663 26.8727C10.6192 27.3448 9.52547 22.5641 12.2672 21.264C13.2465 19.2033 15.349 20.2824 15.9624 19.7616C16.0695 19.6717 15.3342 17.7047 15.5965 17.1427L17.0672 17.7084C17.2704 18.8886 16.173 17.6635 15.9661 17.892C15.2529 18.6713 17.3739 19.5668 18.7115 17.8658C19.7868 16.502 18.9185 13.6958 19.7425 12.7329C20.0492 12.3769 21.2575 12.3582 21.8376 12.0435C23.8625 10.9495 24.6976 9.34215 24.8454 7.0417L51.4355 7.02297C53.8854 7.33769 56.3796 7.34144 58.8258 7.02297C58.9477 7.02297 59.0734 7.02297 59.1953 7.02297C61.272 7.34144 63.4004 7.34518 65.477 7.02297C65.7246 7.02297 65.9685 7.02297 66.216 7.02297C69.1574 7.33769 72.143 7.33769 75.0843 7.02297C76.5956 7.02297 78.0404 7.02297 79.5185 7.02297C81.9683 7.33769 84.4626 7.34144 86.9087 7.02297L88.0173 7.02297C89.2182 7.34893 90.5078 7.34144 91.7124 7.02297C92.6953 7.02297 93.6856 7.02297 94.6685 7.02297C98.0902 7.26276 101.671 7.46882 105.015 7.02297C105.754 7.02297 106.493 7.02297 107.232 7.02297C109.682 7.34144 112.176 7.34144 114.622 7.02297C114.87 7.02297 115.114 7.02297 115.361 7.02297C116.688 7.35268 118.099 7.34144 119.426 7.02297L119.426 7.01548Z" fill="#5B3722"/>
</g>
<path d="M94.6683 7.01544C98.1122 7.01544 101.571 7.01544 105.015 7.01544C104.63 7.63739 103.614 7.39011 102.986 7.3976C100.318 7.42757 97.2069 7.6786 94.6683 7.01544Z" fill="#5B3722"/>
<path d="M66.2162 7.01544C69.1686 7.01544 72.1321 7.01544 75.0845 7.01544C72.4388 7.64113 68.8619 7.64113 66.2162 7.01544Z" fill="#5B3722"/>
<path d="M51.4354 7.01544C53.8927 7.01544 56.3684 7.01544 58.8257 7.01544C56.7084 7.64113 53.5823 7.64488 51.4354 7.01544Z" fill="#5B3722"/>
<path d="M107.232 7.01544C109.689 7.01544 112.165 7.01544 114.622 7.01544C112.505 7.64113 109.379 7.64488 107.232 7.01544Z" fill="#5B3722"/>
<path d="M79.5184 7.01544C81.9794 7.01544 84.4477 7.01544 86.9087 7.01544C84.7914 7.64113 81.6653 7.64488 79.5184 7.01544Z" fill="#5B3722"/>
<path d="M59.1953 7.01544C61.2868 7.01544 63.3856 7.01544 65.4771 7.01544C63.7625 7.64488 60.9357 7.64488 59.1953 7.01544Z" fill="#5B3722"/>
<path d="M115.361 7.01544C116.714 7.01544 118.073 7.01544 119.426 7.01544C118.487 7.65612 116.226 7.63739 115.361 7.01544Z" fill="#5B3722"/>
<path d="M88.0173 7.01544C89.2441 7.01544 90.4856 7.01544 91.7124 7.01544C90.8958 7.65612 88.7637 7.63739 88.0173 7.01544Z" fill="#5B3722"/>
<path d="M180.717 42.9346C178.503 43.3543 177.162 44.2909 176.057 46.2654C175.407 47.4269 176.087 48.401 174.317 48.6221C168.807 49.3114 161.325 48.3411 155.612 48.3523C145.251 48.371 134.727 48.6146 124.433 48.6221C91.5424 48.6483 58.63 48.4347 25.8136 48.6221C24.7494 45.3587 23.4709 43.5191 20.0049 42.7585L20.0049 13.2386C21.9226 12.6317 23.6704 11.9985 24.779 10.1477C25.3665 9.16603 25.1596 7.58119 26.475 7.57745L175.381 7.74231C176.065 10.9232 177.687 12.538 180.787 13.2424C180.82 23.2385 181.06 32.9723 180.721 42.9384L180.717 42.9346Z" fill="#F8F3E8"/>
<path d="M181.504 26.8728C180.872 25.3629 182.247 24.9133 182.25 24.7859C182.276 23.8679 181.223 22.4629 182.978 21.6274C183.411 23.5083 183.958 26.3332 181.508 26.869L181.504 26.8728Z" fill="#F8F3E8"/>
<path d="M182.978 34.366C181.223 33.523 182.28 32.1293 182.254 31.2076C182.254 31.084 180.876 30.6306 181.508 29.1207C183.592 29.694 183.636 32.6538 182.978 34.3623L182.978 34.366Z" fill="#F8F3E8"/>
<path d="M19.2841 26.8727C16.2208 26.0597 17.9834 19.8702 18.8628 22.6315C19.1732 23.6056 18.5229 24.8645 18.5931 24.9582C18.933 25.419 20.1709 24.9207 19.2841 26.8727Z" fill="#F8F3E8"/>
<path d="M19.1478 30.8742C19.0997 31.0016 18.5529 31.0091 18.5455 31.2151C18.5122 32.2117 19.7427 33.5605 17.8138 34.3698C17.5293 32.3204 17.0896 29.7464 19.6577 29.1282C19.3695 29.6902 19.3695 30.2972 19.1478 30.8779L19.1478 30.8742Z" fill="#F8F3E8"/>
<path d="M18.9221 20.125C19.1032 20.3349 20.1415 19.638 19.1032 21.6275C18.597 20.1738 17.6584 20.7732 16.7088 19.9415L19.6538 17.8808C20.112 18.6414 18.8445 20.0314 18.9221 20.125Z" fill="#F8F3E8"/>
<path d="M19.6538 38.1127L16.7014 35.8685C18.2091 35.1529 19.979 36.3555 19.6538 38.1127Z" fill="#F8F3E8"/>
<path d="M184.09 36.6103C182.971 36.6515 182.365 37.5732 181.507 38.1127C181.297 36.8014 182.246 35.1529 183.617 35.7636C184.135 35.9959 184.197 35.8385 184.086 36.6066L184.09 36.6103Z" fill="#F8F3E8"/>
<path d="M184.09 20.125C182.42 20.9531 181.33 19.5331 181.507 17.8808L184.09 20.125Z" fill="#F8F3E8"/>
<path d="M62.4016 30.0005V25.4005H61.2616V23.5605H65.1016V27.7205H65.2416C65.6816 27.7205 66.0549 27.6005 66.3616 27.3605C66.6816 27.1205 66.9216 26.7672 67.0816 26.3005C67.2416 25.8205 67.3216 25.2205 67.3216 24.5005C67.3216 23.6738 67.2016 23.0205 66.9616 22.5405C66.7349 22.0472 66.3949 21.6938 65.9416 21.4805C65.4882 21.2672 64.9282 21.1605 64.2616 21.1605C63.5682 21.1605 62.9416 21.2605 62.3816 21.4605C61.8216 21.6472 61.3216 21.8738 60.8816 22.1405V19.6405C61.3216 19.4138 61.8749 19.2138 62.5416 19.0405C63.2082 18.8672 63.9749 18.7805 64.8416 18.7805C66.1349 18.7805 67.1816 18.9872 67.9816 19.4005C68.7949 19.8138 69.3949 20.4405 69.7816 21.2805C70.1682 22.1205 70.3616 23.1738 70.3616 24.4405C70.3616 25.6272 70.1816 26.6405 69.8216 27.4805C69.4749 28.3072 68.9016 28.9338 68.1016 29.3605C67.3149 29.7872 66.2616 30.0005 64.9416 30.0005H62.4016ZM77.0334 30.2605C75.4068 30.2605 74.2001 29.8672 73.4134 29.0805C72.6268 28.2805 72.2334 27.1005 72.2334 25.5405C72.2334 25.2738 72.2401 24.9538 72.2534 24.5805C72.2801 24.1938 72.3134 23.8538 72.3534 23.5605H77.1534V25.4605H75.1734V25.7405C75.1734 26.2738 75.2401 26.7138 75.3734 27.0605C75.5068 27.3938 75.7068 27.6405 75.9734 27.8005C76.2534 27.9605 76.6001 28.0405 77.0134 28.0405C77.4668 28.0405 77.8468 27.9405 78.1534 27.7405C78.4734 27.5405 78.7134 27.2005 78.8734 26.7205C79.0468 26.2405 79.1334 25.5805 79.1334 24.7405C79.1334 23.9538 79.0401 23.3005 78.8534 22.7805C78.6801 22.2472 78.3801 21.8472 77.9534 21.5805C77.5401 21.3138 76.9668 21.1805 76.2334 21.1805C75.8334 21.1805 75.4201 21.2272 74.9934 21.3205C74.5668 21.4005 74.1601 21.5072 73.7734 21.6405C73.4001 21.7738 73.0734 21.9205 72.7934 22.0805V19.5805C73.0868 19.4205 73.4468 19.2805 73.8734 19.1605C74.3134 19.0405 74.7868 18.9472 75.2934 18.8805C75.8001 18.8138 76.3001 18.7805 76.7934 18.7805C78.0868 18.7805 79.1268 19.0205 79.9134 19.5005C80.7134 19.9672 81.2934 20.6338 81.6534 21.5005C82.0268 22.3672 82.2134 23.3938 82.2134 24.5805C82.2134 25.7938 82.0334 26.8272 81.6734 27.6805C81.3268 28.5205 80.7734 29.1605 80.0134 29.6005C79.2534 30.0405 78.2601 30.2605 77.0334 30.2605ZM86.4089 30.0005L83.2289 19.0405H86.2489L88.6689 27.5805H88.7889C89.0022 27.5805 89.2022 27.5205 89.3889 27.4005C89.5756 27.2805 89.7356 27.1205 89.8689 26.9205C90.1356 26.5472 90.3356 26.1072 90.4689 25.6005C90.6022 25.0805 90.6689 24.5672 90.6689 24.0605C90.6689 23.1672 90.4956 22.4805 90.1489 22.0005C89.8156 21.5205 89.3489 21.2805 88.7489 21.2805C88.6289 21.2805 88.5156 21.2872 88.4089 21.3005C88.3156 21.3138 88.2289 21.3405 88.1489 21.3805L87.5889 19.0805C87.8956 18.9872 88.1822 18.9338 88.4489 18.9205C88.7289 18.8938 88.9556 18.8805 89.1289 18.8805C89.8356 18.8805 90.4489 18.9738 90.9689 19.1605C91.4889 19.3472 91.9356 19.6272 92.3089 20.0005C92.7756 20.4538 93.1222 21.0205 93.3489 21.7005C93.5889 22.3805 93.7089 23.1472 93.7089 24.0005C93.7089 25.0805 93.5356 26.0272 93.1889 26.8405C92.8556 27.6405 92.4489 28.2738 91.9689 28.7405C91.5689 29.1272 91.0622 29.4338 90.4489 29.6605C89.8489 29.8872 89.0222 30.0005 87.9689 30.0005H86.4089ZM99.0347 30.2005C98.4347 30.2005 97.928 30.1072 97.5147 29.9205C97.1014 29.7338 96.788 29.4538 96.5747 29.0805C96.3614 28.6938 96.2547 28.2138 96.2547 27.6405V19.0405H99.2547V27.2805C99.2547 27.5338 99.308 27.7205 99.4147 27.8405C99.5347 27.9605 99.7147 28.0205 99.9547 28.0205C100.061 28.0205 100.175 28.0072 100.295 27.9805C100.415 27.9538 100.528 27.9205 100.635 27.8805L100.915 29.8005C100.661 29.9338 100.375 30.0338 100.055 30.1005C99.7347 30.1672 99.3947 30.2005 99.0347 30.2005ZM108.933 30.0005V22.8805C108.933 22.2405 108.76 21.7805 108.413 21.5005C108.066 21.2205 107.533 21.0805 106.813 21.0805C106.12 21.0805 105.44 21.1872 104.773 21.4005C104.12 21.6005 103.553 21.8405 103.073 22.1205V19.6405C103.46 19.4538 104.006 19.2672 104.713 19.0805C105.42 18.8805 106.24 18.7805 107.173 18.7805C107.853 18.7805 108.473 18.8538 109.033 19.0005C109.606 19.1338 110.106 19.3672 110.533 19.7005C110.96 20.0205 111.286 20.4538 111.513 21.0005C111.753 21.5338 111.873 22.2005 111.873 23.0005V30.0005H108.933ZM105.653 30.2005C104.506 30.2005 103.62 29.9272 102.993 29.3805C102.38 28.8338 102.073 28.0672 102.073 27.0805C102.073 26.0138 102.453 25.1605 103.213 24.5205C103.986 23.8805 105.2 23.4938 106.853 23.3605L109.413 23.1605V25.3205L107.193 25.5405C106.393 25.6205 105.833 25.7805 105.513 26.0205C105.206 26.2605 105.053 26.5805 105.053 26.9805C105.053 27.3805 105.18 27.6805 105.433 27.8805C105.7 28.0805 106.04 28.1805 106.453 28.1805C106.613 28.1805 106.773 28.1672 106.933 28.1405C107.093 28.1005 107.24 28.0605 107.373 28.0205L107.633 29.9005C107.38 29.9938 107.08 30.0672 106.733 30.1205C106.386 30.1738 106.026 30.2005 105.653 30.2005ZM119.306 30.2605C118.106 30.2605 117.146 30.1205 116.426 29.8405C115.706 29.5472 115.179 29.1405 114.846 28.6205C114.526 28.1005 114.366 27.5005 114.366 26.8205C114.366 26.2338 114.452 25.7605 114.626 25.4005C114.812 25.0405 115.046 24.7672 115.326 24.5805C115.619 24.3805 115.912 24.2472 116.206 24.1805V24.0605C115.899 23.9538 115.606 23.8072 115.326 23.6205C115.046 23.4338 114.812 23.1805 114.626 22.8605C114.452 22.5405 114.366 22.1405 114.366 21.6605C114.366 21.1672 114.479 20.7072 114.706 20.2805C114.946 19.8538 115.326 19.5138 115.846 19.2605C116.366 18.9938 117.052 18.8605 117.906 18.8605C118.319 18.8605 118.719 18.8938 119.106 18.9605C119.492 19.0138 119.792 19.0938 120.006 19.2005L119.546 21.2205C119.439 21.1938 119.292 21.1672 119.106 21.1405C118.932 21.1005 118.752 21.0805 118.566 21.0805C118.152 21.0805 117.846 21.1805 117.646 21.3805C117.446 21.5672 117.346 21.8138 117.346 22.1205C117.346 22.4405 117.432 22.6872 117.606 22.8605C117.779 23.0338 117.999 23.1538 118.266 23.2205C118.546 23.2872 118.832 23.3205 119.126 23.3205H119.546V25.1805H119.126C118.552 25.1805 118.119 25.2805 117.826 25.4805C117.546 25.6805 117.406 26.0072 117.406 26.4605C117.406 26.7005 117.459 26.9405 117.566 27.1805C117.686 27.4072 117.886 27.6005 118.166 27.7605C118.446 27.9072 118.846 27.9805 119.366 27.9805C119.859 27.9805 120.246 27.9072 120.526 27.7605C120.806 27.6138 121.006 27.4205 121.126 27.1805C121.246 26.9272 121.306 26.6472 121.306 26.3405V19.0405H124.306V26.2405C124.306 27.6138 123.899 28.6272 123.086 29.2805C122.286 29.9338 121.026 30.2605 119.306 30.2605ZM129.767 25.2605H127.387L126.887 15.7205H130.267L129.767 25.2605ZM126.847 28.6005C126.847 27.9872 127.014 27.5605 127.347 27.3205C127.68 27.0672 128.087 26.9405 128.567 26.9405C129.034 26.9405 129.434 27.0672 129.767 27.3205C130.1 27.5605 130.267 27.9872 130.267 28.6005C130.267 29.1872 130.1 29.6138 129.767 29.8805C129.434 30.1338 129.034 30.2605 128.567 30.2605C128.087 30.2605 127.68 30.1338 127.347 29.8805C127.014 29.6138 126.847 29.1872 126.847 28.6005ZM135.49 25.2605H133.11L132.61 15.7205H135.99L135.49 25.2605ZM132.57 28.6005C132.57 27.9872 132.736 27.5605 133.07 27.3205C133.403 27.0672 133.81 26.9405 134.29 26.9405C134.756 26.9405 135.156 27.0672 135.49 27.3205C135.823 27.5605 135.99 27.9872 135.99 28.6005C135.99 29.1872 135.823 29.6138 135.49 29.8805C135.156 30.1338 134.756 30.2605 134.29 30.2605C133.81 30.2605 133.403 30.1338 133.07 29.8805C132.736 29.6138 132.57 29.1872 132.57 28.6005ZM141.212 25.2605H138.832L138.332 15.7205H141.712L141.212 25.2605ZM138.292 28.6005C138.292 27.9872 138.459 27.5605 138.792 27.3205C139.126 27.0672 139.532 26.9405 140.012 26.9405C140.479 26.9405 140.879 27.0672 141.212 27.3205C141.546 27.5605 141.712 27.9872 141.712 28.6005C141.712 29.1872 141.546 29.6138 141.212 29.8805C140.879 30.1338 140.479 30.2605 140.012 30.2605C139.532 30.2605 139.126 30.1338 138.792 29.8805C138.459 29.6138 138.292 29.1872 138.292 28.6005Z" fill="#5B3722"/>
<defs>
<filter id="filter0_ddd_4561_4955" x="0" y="0" width="200.998" height="58.0117" filterUnits="userSpaceOnUse" color-interpolation-filters="sRGB">
<feFlood flood-opacity="0" result="BackgroundImageFix"/>
<feColorMatrix in="SourceAlpha" type="matrix" values="0 0 0 0 0 0 0 0 0 0 0 0 0 0 0 0 0 0 127 0" result="hardAlpha"/>
<feMorphology radius="2" operator="erode" in="SourceAlpha" result="effect1_dropShadow_4561_4955"/>
<feOffset dy="3"/>
<feGaussianBlur stdDeviation="1.5"/>
<feComposite in2="hardAlpha" operator="out"/>
<feColorMatrix type="matrix" values="0 0 0 0 0 0 0 0 0 0 0 0 0 0 0 0 0 0 0.2 0"/>
<feBlend mode="normal" in2="BackgroundImageFix" result="effect1_dropShadow_4561_4955"/>
<feColorMatrix in="SourceAlpha" type="matrix" values="0 0 0 0 0 0 0 0 0 0 0 0 0 0 0 0 0 0 127 0" result="hardAlpha"/>
<feOffset dy="3"/>
<feGaussianBlur stdDeviation="2"/>
<feComposite in2="hardAlpha" operator="out"/>
<feColorMatrix type="matrix" values="0 0 0 0 0 0 0 0 0 0 0 0 0 0 0 0 0 0 0.14 0"/>
<feBlend mode="normal" in2="effect1_dropShadow_4561_4955" result="effect2_dropShadow_4561_4955"/>
<feColorMatrix in="SourceAlpha" type="matrix" values="0 0 0 0 0 0 0 0 0 0 0 0 0 0 0 0 0 0 127 0" result="hardAlpha"/>
<feOffset dy="1"/>
<feGaussianBlur stdDeviation="4"/>
<feComposite in2="hardAlpha" operator="out"/>
<feColorMatrix type="matrix" values="0 0 0 0 0 0 0 0 0 0 0 0 0 0 0 0 0 0 0.12 0"/>
<feBlend mode="normal" in2="effect2_dropShadow_4561_4955" result="effect3_dropShadow_4561_4955"/>
<feBlend mode="normal" in="SourceGraphic" in2="effect3_dropShadow_4561_4955" result="shape"/>
</filter>
</defs>
</svg>
